<?xml version="1.0" encoding="UTF-8" standalone="no"?>
<svg
   class="twarz twarz--right"
   data-face="europe-green"
   xmlns:dc="http://purl.org/dc/elements/1.1/"
   xmlns:cc="http://creativecommons.org/ns#"
   xmlns:rdf="http://www.w3.org/1999/02/22-rdf-syntax-ns#"
   xmlns:svg="http://www.w3.org/2000/svg"
   xmlns="http://www.w3.org/2000/svg"
   xmlns:sodipodi="http://sodipodi.sourceforge.net/DTD/sodipodi-0.dtd"
   xmlns:inkscape="http://www.inkscape.org/namespaces/inkscape"
   xml:space="preserve"
   width="73.054016mm"
   height="98.334709mm"
   version="1.0"
   style="clip-rule:evenodd;fill-rule:evenodd;image-rendering:optimizeQuality;shape-rendering:geometricPrecision;text-rendering:geometricPrecision"
   viewBox="0 0 7305.4016 9833.4709"
   id="svg73"
   sodipodi:docname="face.svg"
   inkscape:version="1.0.1 (3bc2e813f5, 2020-09-07)"><metadata
   id="metadata77"><rdf:RDF><cc:Work
       rdf:about=""><dc:format>image/svg+xml</dc:format><dc:type
         rdf:resource="http://purl.org/dc/dcmitype/StillImage" /></cc:Work></rdf:RDF></metadata><sodipodi:namedview
   pagecolor="#ffffff"
   bordercolor="#666666"
   borderopacity="1"
   objecttolerance="10"
   gridtolerance="10"
   guidetolerance="10"
   inkscape:pageopacity="0"
   inkscape:pageshadow="2"
   inkscape:window-width="1858"
   inkscape:window-height="1057"
   id="namedview75"
   showgrid="false"
   inkscape:zoom="1.1162388"
   inkscape:cx="77.620185"
   inkscape:cy="176.29983"
   inkscape:window-x="54"
   inkscape:window-y="-8"
   inkscape:window-maximized="1"
   inkscape:current-layer="svg73"
   inkscape:document-rotation="0" />
 <defs
   id="defs4">
  <style
   type="text/css"
   id="style2">
    .europe-green__fill6 {fill:#FEFEFE}
    .europe-green__fill1 {fill:#FCECE9}
    .europe-green__fill3 {fill:#F8C6BD}
    .europe-green__fill4 {fill:#F5AFA1}
    .europe-green__fill8 {fill:#738767}
    .europe-green__fill7 {fill:#1F130D}
    .europe-green__fill0 {fill:#4C3A36}
    .europe-green__fill10 {fill:#6D5346}
    .europe-green__fill9 {fill:#FEFEFE;fill-opacity:0.501961}
    .europe-green__fill2 {fill:#F8C6BD;fill-opacity:0.501961}
    .europe-green__fill5 {fill:#D7ACA6;fill-opacity:0.501961}
  </style>
 
  
  
 </defs>
 <g
   id="europe-green"
   transform="translate(-12796.299,-5835.4003)">
   <path
   class="europe-green__fill0 face"
   d="m 19455,11775 c 106,87 170,203 238,299 68,96 141,171 132,289 -9,118 -99,277 -158,395 -60,118 -89,193 -45,227 44,33 160,25 218,86 58,61 58,192 19,315 -39,123 -118,240 -237,346 -120,107 -281,204 -329,233 -48,29 17,-10 120,-1 102,9 242,68 325,130 83,62 109,129 102,273 -7,144 -48,364 8,584 56,220 208,438 245,535 36,97 -44,72 -161,13 -118,-59 -273,-152 -259,-125 14,27 197,174 196,213 -1,40 -185,-28 -378,-101 -192,-73 -393,-151 -519,-284 -126,-132 -179,-318 -157,-513 22,-195 118,-400 105,-535 -12,-135 -133,-200 -219,-271 -86,-70 -137,-146 -158,-239 -21,-93 -12,-203 55,-309 68,-106 194,-208 190,-308 -3,-100 -137,-199 -184,-316 -47,-118 -8,-254 20,-406 28,-151 46,-317 116,-442 70,-125 193,-209 328,-222 135,-13 283,45 388,132 z"
   id="europe-green__braid-right"
   style="opacity:1" />
   <path
   class="europe-green__fill0"
   d="m 13443,11845 c -106,87 -170,203 -238,299 -68,96 -141,171 -132,289 9,118 99,277 158,395 60,118 89,193 45,227 -44,33 -160,25 -218,86 -58,61 -58,192 -19,315 39,123 118,240 237,346 120,107 281,204 329,233 48,29 -17,-10 -120,-1 -102,9 -242,68 -325,130 -83,62 -109,129 -102,273 7,144 48,364 -8,584 -56,220 -208,438 -245,535 -36,97 44,72 161,13 118,-59 273,-152 259,-125 -14,27 -197,174 -196,213 1,40 185,-28 378,-101 192,-73 393,-151 519,-284 126,-132 179,-318 157,-513 -22,-195 -118,-400 -105,-535 12,-135 133,-200 219,-271 86,-70 137,-146 158,-239 21,-93 12,-203 -55,-309 -68,-106 -194,-208 -190,-308 3,-100 137,-199 184,-316 47,-118 8,-254 -20,-406 -28,-151 -46,-317 -116,-442 -70,-125 -193,-209 -328,-222 -135,-13 -283,45 -388,132 z"
   id="path9"
   style="opacity:1" />
   <path
   class="europe-green__fill1 face"
   d="m 19378,7738 c 34,375 -135,901 -160,1591 -25,690 94,1543 8,2235 -87,692 -379,1222 -837,1676 -457,454 -1080,831 -1467,1002 -387,171 -540,135 -983,-104 -443,-239 -1177,-680 -1562,-1330 -385,-650 -422,-1509 -499,-2290 -77,-781 -193,-1484 -133,-2078 60,-593 297,-1077 670,-1430 373,-354 884,-578 1463,-657 579,-80 1226,-15 1736,103 510,118 884,289 1189,486 305,197 541,421 575,796 z"
   id="europe-green__face"
   style="opacity:1" />
   <path
   class="europe-green__fill2 face"
   d="m 15200,13675 c -247,-191 -498,-427 -712,-718 -58,-79 -113,-161 -166,-247 -174,-332 -268,-712 -328,-1105 32,6 68,18 109,37 201,96 513,375 689,634 176,259 214,500 259,717 45,217 95,411 127,558 10,46 18,88 22,123 z"
   id="europe-green__cheek-left"
   style="opacity:1" />
   <path
   class="europe-green__fill3 face"
   d="m 16726,10388 c 13,159 55,391 93,558 38,168 74,271 154,365 80,94 204,180 166,305 -38,125 -237,289 -358,378 -121,89 -164,103 -293,24 -129,-79 -343,-250 -398,-378 -55,-128 51,-212 128,-306 77,-94 127,-199 159,-349 32,-150 48,-347 55,-511 7,-164 5,-296 56,-360 51,-64 154,-61 198,-16 44,45 29,130 42,289 z"
   id="europe-green__nose"
   style="opacity:1" />
   <path
   class="europe-green__fill4 face"
   d="m 16983,12600 c -89,-26 -152,-55 -206,-59 -54,-4 -98,18 -133,35 -14,7 -26,13 -37,18 -8,-4 -17,-9 -27,-14 -34,-17 -79,-38 -133,-35 -54,4 -117,33 -206,59 -119,35 -276,84 -394,111 -34,8 -79,8 -91,22 -41,47 88,6 111,140 40,229 258,402 734,395 519,-7 571,-183 746,-425 34,-48 134,-101 123,-115 -12,-14 -58,-14 -91,-22 -114,-26 -286,-79 -394,-111 z m -487,212 c 99,7 146,5 250,-5 -49,32 -87,81 -121,81 -41,0 -77,-45 -129,-75 z"
   id="europe-green__mouth"
   style="opacity:1" />
   <g
   id="europe-green__eye-right"
   style="opacity:1"
   class="face">
    <path
   class="europe-green__fill5"
   d="m 17476,10785 c 20,28 78,80 168,117 90,37 214,59 333,50 120,-9 236,-47 322,-102 86,-55 141,-127 174,-206 33,-79 44,-164 23,-172 -21,-8 -75,61 -148,123 -73,61 -167,114 -254,148 -87,33 -168,47 -242,55 -74,8 -141,10 -200,2 -59,-9 -111,-28 -145,-37 -34,-8 -52,-5 -31,23 z"
   id="path19" />
    <path
   class="europe-green__fill5"
   d="m 17249,10221 c 24,-71 66,-141 121,-196 55,-55 123,-96 217,-125 95,-29 217,-46 314,-42 97,4 170,29 241,61 71,32 142,71 196,114 55,43 94,91 123,128 30,37 50,64 63,77 13,14 18,14 24,-7 5,-22 11,-65 -27,-135 -39,-70 -122,-165 -190,-235 -68,-70 -122,-116 -233,-141 -111,-26 -280,-31 -423,-7 -143,24 -260,78 -341,123 -81,45 -125,82 -158,162 -33,80 -53,204 -51,282 2,79 27,112 45,130 19,18 32,21 41,-13 9,-34 14,-106 38,-177 z"
   id="path21" />
    <path
   class="europe-green__fill6"
   d="m 17216,10436 c -4,-62 -7,-139 22,-219 29,-80 90,-164 200,-230 110,-66 269,-113 413,-116 143,-2 271,40 378,124 107,84 194,209 243,272 49,63 60,64 28,116 -32,52 -108,155 -193,229 -85,74 -180,120 -281,152 -102,32 -211,51 -321,40 -110,-11 -221,-52 -300,-92 -79,-40 -127,-80 -154,-123 -27,-44 -32,-91 -36,-153 z"
   id="path23" />
    <path
   class="europe-green__fill7"
   d="m 17213,10391 c -3,-17 -10,-94 22,-182 32,-88 103,-189 178,-251 75,-62 154,-87 240,-103 86,-16 180,-23 245,-20 65,2 101,14 144,25 43,12 92,24 128,27 36,3 59,-3 93,-19 34,-16 79,-44 100,-75 21,-31 18,-67 22,-67 4,-1 14,33 5,71 -9,37 -38,78 -62,102 -23,24 -41,31 -49,39 -8,8 -6,16 8,24 14,8 41,17 79,18 38,2 87,-3 126,-18 39,-16 68,-43 82,-56 14,-13 14,-13 5,0 -9,14 -28,42 -62,67 -34,25 -83,48 -113,59 -29,11 -39,11 -39,17 0,6 9,19 20,30 11,11 23,22 50,26 27,5 69,4 108,-9 39,-12 76,-37 97,-54 21,-18 28,-29 25,-21 -2,8 -14,35 -45,63 -32,28 -84,56 -113,70 -29,14 -36,14 -35,18 0,4 8,13 22,21 14,8 35,15 68,13 33,-2 78,-12 109,-30 32,-18 51,-44 60,-56 9,-13 9,-13 1,2 -8,15 -24,45 -45,73 -21,28 -46,55 -75,79 -29,24 -62,45 -79,53 -17,7 -19,1 -38,-26 -19,-27 -55,-74 -97,-124 -42,-50 -90,-102 -145,-142 -55,-40 -117,-68 -172,-89 -55,-21 -103,-36 -152,-44 -49,-8 -97,-9 -158,-2 -61,7 -134,24 -195,45 -62,22 -113,49 -155,85 -42,36 -75,80 -101,119 -26,39 -44,73 -61,102 -16,28 -31,51 -38,83 -7,32 -6,74 -10,56 z"
   id="path25" />
    <ellipse
   class="europe-green__fill8"
   transform="matrix(-0.607353,0.17149,0.17149,0.607353,17851,10354)"
   rx="607"
   ry="574"
   id="ellipse27"
   cx="0"
   cy="0" />
    <path
   class="europe-green__fill7"
   d="m 17301,10646 c 72,38 145,77 212,103 67,26 130,41 215,42 85,1 192,-12 282,-37 91,-25 166,-60 230,-104 64,-43 118,-94 155,-136 37,-42 56,-74 71,-94 15,-20 25,-28 45,-30 20,-2 50,2 78,17 28,15 54,42 79,69 -45,-13 -90,-27 -121,-26 -31,1 -47,17 -39,36 8,19 41,43 60,60 19,18 26,30 32,42 -40,-26 -80,-51 -120,-46 -40,5 -78,39 -89,59 -11,20 6,25 27,39 21,14 44,36 68,58 -45,-18 -90,-37 -134,-33 -44,3 -87,28 -119,47 -33,18 -56,30 -56,44 -1,15 21,32 39,53 18,21 33,44 47,67 -61,-29 -122,-58 -187,-62 -65,-4 -135,16 -222,24 -87,8 -192,5 -287,-29 -95,-34 -180,-99 -265,-163 z"
   id="path29" />
    <ellipse
   class="europe-green__fill7"
   transform="matrix(-0.251587,0.0710369,0.0710369,0.251587,17855.2,10349.8)"
   rx="607"
   ry="574"
   id="ellipse31"
   cx="0"
   cy="0" />
    <path
   class="europe-green__fill9"
   d="m 17638,10157 c -84,24 -134,108 -112,187 23,80 109,125 193,101 84,-24 134,-108 112,-187 -23,-80 -109,-125 -193,-101 z"
   id="path33" />
   </g>
   <g
   id="europe-green__eye-left"
   style="opacity:1"
   class="face">
    <path
   class="europe-green__fill5"
   d="m 15673,10801 c -19,29 -75,83 -164,123 -89,40 -211,66 -331,62 -120,-4 -238,-39 -325,-91 -88,-52 -145,-122 -181,-199 -36,-77 -50,-163 -29,-171 21,-9 77,59 152,117 76,59 171,108 259,138 88,30 170,41 244,46 74,5 141,5 200,-6 59,-11 109,-32 143,-42 34,-9 51,-7 32,22 z"
   id="path37" />
    <path
   class="europe-green__fill5"
   d="m 15901,10230 c -26,-70 -71,-138 -128,-192 -57,-53 -126,-91 -222,-117 -96,-26 -218,-38 -315,-31 -97,8 -169,36 -239,70 -70,35 -139,76 -192,121 -53,45 -90,95 -118,133 -28,38 -48,65 -60,79 -12,14 -18,15 -24,-6 -6,-21 -14,-65 23,-136 36,-71 116,-169 181,-242 66,-73 117,-120 228,-149 110,-30 278,-42 422,-23 144,19 263,69 345,111 82,42 128,77 164,156 36,79 61,202 62,280 1,79 -23,113 -41,132 -18,19 -31,23 -41,-11 -10,-34 -18,-106 -44,-176 z"
   id="path39" />
    <path
   class="europe-green__fill6"
   d="m 15943,10444 c 2,-62 2,-139 -30,-218 -32,-79 -96,-161 -208,-222 -112,-62 -273,-104 -417,-101 -143,3 -270,50 -374,138 -104,88 -187,216 -233,281 -47,65 -58,66 -24,117 34,51 113,151 201,222 88,71 184,113 287,142 103,28 212,43 322,28 109,-15 219,-60 296,-103 78,-43 124,-84 149,-129 25,-44 28,-92 30,-154 z"
   id="path41" />
    <path
   class="europe-green__fill7"
   d="m 15944,10399 c 3,-18 7,-94 -28,-181 -35,-87 -109,-185 -187,-244 -77,-60 -157,-81 -244,-94 -87,-13 -180,-16 -245,-11 -65,5 -101,17 -143,31 -42,13 -91,27 -127,32 -36,5 -59,0 -94,-16 -35,-15 -81,-41 -103,-71 -22,-30 -21,-66 -25,-67 -4,-1 -13,34 -2,71 11,37 41,77 65,100 24,23 42,30 50,37 8,7 7,16 -7,24 -14,9 -41,18 -79,21 -38,3 -88,1 -127,-14 -39,-14 -69,-40 -84,-53 -15,-13 -15,-13 -5,1 10,14 30,41 65,64 35,24 85,45 115,55 30,10 39,10 40,16 0,6 -9,19 -19,31 -10,12 -22,23 -49,28 -27,6 -68,6 -108,-5 -40,-11 -77,-34 -99,-51 -22,-17 -29,-28 -26,-20 3,8 15,34 47,61 33,27 86,53 115,66 30,13 36,12 36,17 0,4 -8,13 -21,22 -14,8 -34,16 -67,16 -33,0 -78,-9 -110,-26 -32,-17 -52,-42 -62,-54 -10,-12 -10,-12 -1,2 9,15 26,44 47,71 22,27 48,53 77,76 30,23 63,43 81,50 18,7 19,0 37,-28 18,-28 52,-76 92,-128 40,-51 86,-105 140,-147 53,-42 115,-72 169,-95 54,-23 102,-39 150,-49 48,-10 97,-13 158,-8 61,5 134,19 197,38 63,20 114,45 158,79 43,34 78,77 105,115 27,38 47,72 64,99 17,28 33,50 41,82 8,32 9,74 12,56 z"
   id="path43" />
    <ellipse
   class="europe-green__fill8"
   transform="matrix(0.613188,0.149291,-0.149291,0.613188,15304.9,10384.8)"
   rx="607"
   ry="574"
   id="ellipse45"
   cx="0"
   cy="0" />
    <path
   class="europe-green__fill7"
   d="m 15865,10656 c -71,41 -142,82 -208,111 -66,29 -128,46 -213,50 -85,4 -192,-5 -284,-27 -92,-21 -168,-54 -234,-95 -66,-41 -121,-90 -159,-130 -38,-40 -59,-72 -75,-92 -16,-20 -26,-27 -46,-29 -20,-1 -50,4 -77,20 -27,16 -52,44 -77,72 44,-15 89,-30 120,-30 31,0 48,15 41,35 -7,20 -39,44 -58,63 -19,18 -25,31 -30,43 39,-27 78,-54 118,-51 40,3 80,37 91,56 12,20 -5,25 -25,40 -20,14 -43,38 -66,61 44,-20 89,-40 132,-38 44,2 88,25 121,42 33,17 57,28 58,42 1,15 -20,33 -37,54 -17,21 -31,45 -45,69 60,-31 120,-63 185,-69 65,-7 135,11 223,16 88,5 192,-2 286,-40 94,-37 176,-105 259,-173 z"
   id="path47" />
    <ellipse
   class="europe-green__fill7"
   transform="matrix(0.254004,0.0618415,-0.0618415,0.254004,15300.6,10380.8)"
   rx="607"
   ry="574"
   id="ellipse49"
   cx="0"
   cy="0" />
    <path
   class="europe-green__fill9"
   d="m 15239,10114 c 85,21 138,103 119,183 -20,81 -105,129 -190,108 -85,-21 -138,-103 -119,-183 20,-81 105,-129 190,-108 z"
   id="path51" />
   </g>
   <path
   class="europe-green__fill0 face"
   d="m 15953,9383 c -62,-28 -159,-78 -313,-119 -155,-42 -367,-75 -533,-71 -166,5 -286,48 -390,105 -104,57 -192,128 -221,139 -29,11 0,-38 85,-129 85,-91 227,-223 462,-276 235,-52 563,-25 769,10 206,35 291,76 332,125 41,49 38,106 18,151 -20,45 -57,77 -89,89 -32,12 -58,5 -119,-24 z"
   id="europe-green__eyebrow-left"
   style="opacity:1" />
   <path
   class="europe-green__fill0 face"
   d="m 16566,7810 c -309,8 -632,-126 -993,-79 -361,47 -761,276 -998,572 -238,296 -314,659 -416,1098 -102,439 -229,955 -310,1210 -81,255 -116,249 -259,109 -143,-140 -395,-413 -359,-1167 36,-754 360,-1988 761,-2685 401,-697 879,-857 1275,-946 395,-89 707,-107 962,-65 254,42 450,143 608,154 158,11 278,-69 441,-93 163,-24 370,9 595,71 225,62 468,152 751,307 283,154 604,372 860,782 256,410 446,1013 461,1708 15,695 -145,1483 -266,1899 -122,416 -205,459 -307,258 -102,-201 -221,-648 -310,-1029 -89,-381 -147,-697 -247,-1044 -100,-347 -241,-724 -473,-958 -232,-233 -554,-323 -863,-292 -309,31 -603,182 -912,190 z"
   id="europe-green__hair"
   style="opacity:1" />
   <path
   class="europe-green__fill10 face"
   d="m 16426,7256 c -41,-29 -146,-107 -298,-142 -152,-34 -349,-25 -579,16 -230,42 -491,116 -741,243 -250,127 -490,307 -633,486 -143,180 -191,359 -200,327 -9,-33 20,-278 115,-487 95,-210 257,-384 468,-528 211,-144 473,-259 674,-325 202,-66 343,-84 474,-61 131,23 250,86 367,169 117,83 231,187 300,248 69,62 93,82 52,53 z"
   id="europe-green__strand-one"
   style="opacity:1" />
   <path
   class="europe-green__fill10 face"
   d="m 16906,7299 c 38,-29 137,-107 280,-142 142,-34 328,-25 544,16 216,42 461,116 697,243 235,127 461,307 595,486 135,180 179,359 188,327 9,-33 -19,-278 -108,-487 -90,-210 -241,-384 -440,-528 -199,-144 -444,-259 -634,-325 -189,-66 -323,-83 -445,-61 -123,23 -235,86 -345,169 -110,83 -217,187 -282,248 -65,62 -87,82 -49,53 z"
   id="europe-green__strand-two"
   style="opacity:1" />
   <path
   class="europe-green__fill1 face"
   d="m 13962,11858 c -87,147 -275,173 -434,88 -159,-85 -290,-281 -337,-575 -47,-294 -11,-686 44,-948 54,-261 127,-392 234,-465 107,-73 249,-87 347,-4 98,84 152,265 180,485 27,220 27,477 34,740 7,263 20,531 -67,678 z"
   id="europe-green__ear-left"
   style="opacity:1" />
   <path
   class="europe-green__fill1 face"
   d="m 19234,11760 c 87,147 275,173 434,88 159,-85 290,-281 337,-575 47,-294 11,-686 -44,-948 -54,-261 -127,-392 -234,-465 -107,-73 -249,-87 -347,-4 -98,84 -152,265 -180,485 -27,220 -27,477 -34,740 -7,263 -20,531 67,678 z"
   id="europe-green__ear-right"
   style="opacity:1" />
   <path
   class="europe-green__fill0 face"
   d="m 17176,9387 c 62,-28 159,-78 313,-119 155,-42 367,-75 533,-71 166,5 286,48 390,105 104,57 192,128 221,139 29,11 0,-38 -85,-129 -85,-91 -227,-223 -462,-276 -235,-52 -563,-25 -769,10 -206,35 -291,76 -332,125 -41,49 -38,106 -18,151 20,45 57,77 89,89 32,12 58,5 119,-24 z"
   id="europe-green__eyebrow-right"
   style="opacity:1" />
   <path
   class="europe-green__fill2 face"
   d="m 19051,12260 c 75,-215 129,-442 170,-674 -32,5 -69,16 -110,34 -203,91 -523,361 -706,615 -182,255 -227,494 -278,709 -51,216 -107,408 -142,554 -10,41 -18,78 -24,111 150,-115 296,-240 428,-371 291,-288 515,-608 662,-980 z"
   id="europe-green__cheek-right"
   style="opacity:1" />
  </g>
</svg>
