<?xml version="1.0" encoding="UTF-8" standalone="no"?>
<svg
   xmlns:dc="http://purl.org/dc/elements/1.1/"
   xmlns:cc="http://creativecommons.org/ns#"
   xmlns:rdf="http://www.w3.org/1999/02/22-rdf-syntax-ns#"
   xmlns:svg="http://www.w3.org/2000/svg"
   xmlns="http://www.w3.org/2000/svg"
   xmlns:sodipodi="http://sodipodi.sourceforge.net/DTD/sodipodi-0.dtd"
   xmlns:inkscape="http://www.inkscape.org/namespaces/inkscape"
   xml:space="preserve"
   width="30.257441mm"
   height="12.861337mm"
   version="1.1"
   style="clip-rule:evenodd;fill-rule:evenodd;image-rendering:optimizeQuality;shape-rendering:geometricPrecision;text-rendering:geometricPrecision"
   viewBox="0 0 3025.7441 1286.1337"
   id="svg10"
   sodipodi:docname="usta.svg"
   inkscape:version="1.0.1 (3bc2e813f5, 2020-09-07)"><metadata
   id="metadata14"><rdf:RDF><cc:Work
       rdf:about=""><dc:format>image/svg+xml</dc:format><dc:type
         rdf:resource="http://purl.org/dc/dcmitype/StillImage" /></cc:Work></rdf:RDF></metadata><sodipodi:namedview
   pagecolor="#ffffff"
   bordercolor="#666666"
   borderopacity="1"
   objecttolerance="10"
   gridtolerance="10"
   guidetolerance="10"
   inkscape:pageopacity="0"
   inkscape:pageshadow="2"
   inkscape:window-width="753"
   inkscape:window-height="480"
   id="namedview12"
   showgrid="false"
   inkscape:zoom="1.1162388"
   inkscape:cx="48.529343"
   inkscape:cy="-6.9980402"
   inkscape:window-x="62"
   inkscape:window-y="0"
   inkscape:window-maximized="0"
   inkscape:current-layer="svg10" />
 <defs
   id="defs4">
  <style
   type="text/css"
   id="style2">
   <![CDATA[
    .fil0 {fill:#F5AFA1}
   ]]>
  </style>
 </defs>
 <g
   id="Warstwa_x0020_1"
   transform="translate(-13565.995,-10685.157)">
  <metadata
   id="CorelCorpID_0Corel-Layer" />
  <path
   class="fil0"
   d="m 15735,10790 c -156,-46 -268,-97 -362,-104 -95,-7 -173,31 -233,61 -25,12 -46,23 -64,32 -14,-7 -31,-15 -48,-24 -60,-30 -138,-68 -233,-61 -95,7 -206,58 -362,104 -208,61 -485,147 -692,195 -59,14 -139,14 -161,38 -72,83 155,10 196,245 70,403 454,706 1289,695 911,-13 1003,-322 1310,-746 61,-84 236,-178 215,-202 -21,-24 -101,-24 -161,-38 -200,-46 -502,-138 -692,-195 z m -856,373 c 173,13 257,8 439,-9 -87,56 -153,142 -213,142 -72,0 -136,-80 -226,-133 z"
   id="path7" />
 </g>
</svg>
