<?xml version="1.0" encoding="UTF-8" standalone="no"?>
<svg
   xmlns:dc="http://purl.org/dc/elements/1.1/"
   xmlns:cc="http://creativecommons.org/ns#"
   xmlns:rdf="http://www.w3.org/1999/02/22-rdf-syntax-ns#"
   xmlns:svg="http://www.w3.org/2000/svg"
   xmlns="http://www.w3.org/2000/svg"
   xmlns:sodipodi="http://sodipodi.sourceforge.net/DTD/sodipodi-0.dtd"
   xmlns:inkscape="http://www.inkscape.org/namespaces/inkscape"
   xml:space="preserve"
   width="87.590775mm"
   height="101.09455mm"
   version="1.0"
   style="clip-rule:evenodd;fill-rule:evenodd;image-rendering:optimizeQuality;shape-rendering:geometricPrecision;text-rendering:geometricPrecision"
   viewBox="0 0 8759.0775 10109.455"
   id="svg101"
   sodipodi:docname="face.svg"
   inkscape:version="1.0.1 (3bc2e813f5, 2020-09-07)"><metadata
   id="metadata105"><rdf:RDF><cc:Work
       rdf:about=""><dc:format>image/svg+xml</dc:format><dc:type
         rdf:resource="http://purl.org/dc/dcmitype/StillImage" /></cc:Work></rdf:RDF></metadata><sodipodi:namedview
   pagecolor="#ffffff"
   bordercolor="#666666"
   borderopacity="1"
   objecttolerance="10"
   gridtolerance="10"
   guidetolerance="10"
   inkscape:pageopacity="0"
   inkscape:pageshadow="2"
   inkscape:window-width="1857"
   inkscape:window-height="1057"
   id="namedview103"
   showgrid="false"
   inkscape:zoom="1.1162388"
   inkscape:cx="79.373675"
   inkscape:cy="79.225192"
   inkscape:window-x="55"
   inkscape:window-y="-8"
   inkscape:window-maximized="1"
   inkscape:current-layer="slavic"
   inkscape:document-rotation="0" />
 <defs
   id="defs4">
  <style
   type="text/css"
   id="style2">

    .slavic__fill6 {fill:#FEFEFE}
    .slavic__fill7 {fill:#2B2A29}
    .slavic__fill3 {fill:#DFAB9E}
    .slavic__fill15 {fill:#CD877A}
    .slavic__fill8 {fill:#5C3B1B}
    .slavic__fill9 {fill:#2C261A}
    .slavic__fill14 {fill:#28170F}
    .slavic__fill2 {fill:#3B2821}
    .slavic__fill1 {fill:#48362C}
    .slavic__fill12 {fill:#A2745A}
    .slavic__fill13 {fill:#CDB3A2}
    .slavic__fill4 {fill:#D2665A}
    .slavic__fill0 {fill:#F0D0C3}
    .slavic__fill10 {fill:#FEFEFE;fill-opacity:0.501961}
    .slavic__fill11 {fill:#CD877A;fill-opacity:0.501961}
    .slavic__fill5 {fill:#C4886E;fill-opacity:0.501961}

  </style>
 
   
   
   
   
   
   
   
   
   
   
   
   
   
   
   
   
   
   
   
   
   
   
   
   
   
   
   
   
   
   
  </defs>
 <g
   id="slavic"
   transform="translate(-12749.905,-6215.6295)">
  <metadata
   id="CorelCorpID_0Corel-Layer" />
  <path
   class="slavic__fill0 face"
   d="m 19966,12780 c -174,511 -466,1041 -924,1495 -457,454 -1080,831 -1467,1002 -387,171 -540,135 -935,-71 -395,-206 -1033,-583 -1498,-1214 -465,-630 -758,-1515 -882,-2328 -124,-813 -81,-1556 59,-2169 140,-613 377,-1096 750,-1450 373,-354 884,-578 1463,-657 579,-80 1226,-15 1877,154 651,169 1306,443 1614,1084 308,641 268,1651 220,2401 -47,750 -102,1242 -276,1753 z"
   id="slavic__face"
   style="opacity:1" /><path
   class="slavic__fill1 face"
   d="m 17906,10407 c 161,-22 455,-59 670,-79 215,-20 349,-24 461,10 111,34 199,104 228,115 29,11 0,-38 -84,-109 -84,-71 -221,-163 -337,-212 -116,-49 -210,-54 -376,-61 -166,-6 -403,-13 -564,4 -161,17 -246,59 -287,108 -41,49 -38,106 -18,151 20,45 57,77 89,89 32,12 58,5 218,-17 z"
   id="slavic__eyebrow-right"
   style="opacity:1" /><path
   class="slavic__fill2 face"
   d="m 17898,8225 c 118,116 256,249 351,376 95,127 148,246 179,336 31,89 42,148 28,151 -14,3 -51,-49 -142,-136 -91,-87 -235,-210 -384,-282 -148,-73 -301,-95 -448,-96 -147,-1 -289,20 -421,53 -721,178 -1654,1215 -2069,1752 -516,668 -581,1210 -534,1670 14,136 38,264 65,386 -14,-23 -28,-46 -43,-69 -387,-640 -790,-1594 -867,-2143 -78,-549 169,-695 572,-934 403,-240 962,-574 1521,-751 520,-165 1039,-196 1372,-263 58,-40 115,-81 165,-119 93,-71 157,-131 209,-169 49,-36 100,-78 149,-60 114,41 220,228 294,301 z"
   id="slavic__strand-four"
   style="opacity:1" /><path
   class="slavic__fill3 face"
   d="m 17443,11385 c 0,197 -22,507 9,689 31,183 114,239 181,356 67,116 118,293 83,395 -34,101 -154,127 -221,170 -67,42 -80,101 -138,129 -58,28 -161,24 -206,-8 -45,-32 -32,-93 -84,-132 -52,-39 -169,-56 -228,-122 -59,-66 -62,-182 -13,-297 48,-115 147,-230 183,-413 36,-184 9,-436 11,-638 2,-202 34,-353 101,-427 68,-74 171,-69 234,-25 63,44 86,128 87,325 z"
   id="slavic__nose"
   style="opacity:1" /><path
   class="slavic__fill4 face"
   d="m 17636,13636 c -89,-26 -152,-55 -206,-59 -54,-4 -98,18 -133,35 -14,7 -26,13 -37,18 -8,-4 -17,-9 -27,-14 -34,-17 -79,-38 -133,-35 -54,4 -117,33 -206,59 -119,35 -276,84 -394,111 -34,8 -79,8 -91,22 -12,14 10,42 48,56 205,79 -63,398 791,388 811,-9 641,-321 828,-393 38,-15 60,-42 48,-56 -12,-14 -58,-14 -91,-22 -114,-26 -286,-79 -394,-111 z m -461,205 c 105,17 85,15 211,3 -46,33 -83,76 -115,76 0,0 -198,-95 -96,-79 z"
   id="slavic__mouth"
   style="opacity:1" /><g
   id="slavic__eye-left"
   style="opacity:1"
   class="face">
    <path
   class="slavic__fill5"
   d="m 16319,11843 c -19,28 -76,82 -165,121 -89,39 -212,64 -332,58 -120,-6 -237,-42 -324,-95 -87,-53 -143,-124 -178,-202 -35,-78 -48,-163 -27,-172 21,-9 76,60 151,119 75,60 169,110 257,142 88,31 169,43 243,50 74,6 141,7 200,-3 59,-10 110,-31 144,-40 34,-9 51,-6 32,22 z"
   id="path17" />
    <path
   class="slavic__fill5"
   d="m 16555,11276 c -25,-70 -69,-139 -125,-193 -56,-54 -125,-93 -220,-120 -95,-27 -218,-41 -315,-35 -97,6 -169,33 -240,67 -71,34 -140,74 -194,119 -54,45 -91,93 -120,131 -29,38 -49,65 -61,79 -12,14 -18,15 -24,-7 -6,-21 -13,-65 24,-135 37,-70 118,-168 184,-240 67,-72 119,-118 230,-146 110,-28 279,-38 422,-17 143,21 262,72 344,115 82,43 127,79 162,158 35,79 58,202 58,281 0,79 -24,113 -42,131 -18,19 -31,22 -41,-12 -10,-34 -16,-106 -42,-176 z"
   id="path19" />
    <path
   class="slavic__fill6"
   d="m 16594,11490 c 3,-62 3,-139 -28,-219 -31,-80 -93,-162 -205,-225 -111,-63 -272,-107 -415,-106 -143,1 -270,47 -376,133 -105,86 -189,213 -237,278 -48,64 -59,65 -25,116 33,51 111,152 198,225 87,72 182,116 285,146 102,30 212,46 321,32 110,-14 219,-57 298,-99 78,-42 125,-83 151,-127 26,-44 30,-92 32,-154 z"
   id="path21" />
    <path
   class="slavic__fill7"
   d="m 16595,11445 c 3,-18 8,-94 -26,-182 -34,-88 -107,-186 -183,-247 -76,-61 -156,-83 -243,-97 -87,-14 -180,-18 -245,-15 -65,4 -101,16 -144,29 -42,13 -91,26 -127,30 -36,4 -59,-1 -93,-17 -34,-16 -80,-42 -102,-73 -22,-31 -20,-66 -24,-67 -4,-1 -13,34 -3,71 10,37 40,77 64,101 24,23 41,30 50,38 8,7 7,16 -7,24 -14,9 -41,18 -79,20 -38,3 -87,-1 -127,-15 -39,-15 -68,-41 -83,-54 -15,-13 -15,-13 -5,1 10,14 29,41 64,65 35,24 84,46 114,56 30,11 39,10 39,16 0,6 -9,19 -19,31 -11,12 -23,22 -49,28 -27,5 -69,5 -108,-6 -39,-12 -77,-35 -98,-52 -22,-17 -28,-28 -26,-20 3,8 14,35 47,62 32,27 85,54 114,68 30,13 36,13 36,17 0,4 -8,13 -22,21 -14,8 -35,16 -67,15 -33,-1 -78,-10 -110,-28 -32,-17 -52,-42 -61,-55 -10,-13 -10,-13 -1,2 8,15 25,44 46,72 21,28 47,54 76,77 29,23 63,44 80,51 17,7 19,0 38,-27 18,-27 53,-76 94,-126 41,-51 87,-104 141,-145 54,-41 115,-70 170,-93 55,-22 103,-38 151,-47 48,-9 97,-12 158,-6 61,6 134,21 196,41 62,20 114,47 157,81 43,35 77,78 104,116 27,39 46,72 63,100 17,28 32,50 39,82 8,32 8,74 11,56 z"
   id="path23" />
    <ellipse
   class="slavic__fill8"
   transform="matrix(0.611174,0.157331,-0.157331,0.611174,15956.8,11422.4)"
   rx="607"
   ry="574"
   id="ellipse25"
   cx="0"
   cy="0" />
    <path
   class="slavic__fill7"
   d="m 16514,11701 c -71,40 -143,80 -210,108 -67,28 -129,44 -214,47 -85,3 -192,-8 -283,-30 -91,-22 -167,-56 -232,-98 -65,-42 -120,-92 -158,-132 -38,-41 -58,-73 -73,-93 -15,-20 -25,-28 -45,-29 -20,-2 -50,3 -78,19 -28,16 -53,43 -78,71 45,-14 89,-29 120,-28 31,0 48,16 40,35 -8,20 -40,44 -59,62 -19,18 -25,30 -31,42 40,-26 79,-53 119,-49 40,4 79,38 91,57 11,20 -6,25 -26,39 -20,14 -43,37 -67,60 45,-19 89,-39 133,-37 44,2 87,26 121,44 33,18 56,28 57,43 1,15 -20,33 -38,54 -18,21 -32,45 -46,68 60,-30 121,-61 186,-67 65,-6 135,13 222,19 87,6 192,0 287,-36 94,-36 178,-103 261,-169 z"
   id="path27" />
    <ellipse
   class="slavic__fill9"
   transform="matrix(0.25317,0.065172,-0.065172,0.25317,15952.5,11418.4)"
   rx="607"
   ry="574"
   id="ellipse29"
   cx="0"
   cy="0" />
    <path
   class="slavic__fill10"
   d="m 15894,11151 c 85,22 137,105 116,185 -21,80 -106,128 -191,106 -85,-22 -137,-105 -116,-185 21,-80 106,-128 191,-106 z"
   id="path31" />
   </g><path
   class="slavic__fill1 face"
   d="m 16507,10425 c -161,-22 -455,-59 -670,-79 -215,-20 -349,-24 -461,10 -111,34 -199,104 -228,115 -29,11 0,-38 84,-109 84,-71 221,-163 337,-212 116,-49 210,-54 376,-61 166,-6 403,-13 564,4 161,17 246,59 287,108 41,49 38,106 18,151 -20,45 -57,77 -89,89 -32,12 -58,5 -218,-17 z"
   id="slavic__eyebrow-left"
   style="opacity:1" /><g
   id="slavic__eye-right"
   style="opacity:1"
   class="face">
    <path
   class="slavic__fill5"
   d="m 18129,11821 c 20,28 78,80 168,117 90,37 214,59 333,50 120,-9 236,-47 322,-103 86,-55 140,-127 173,-206 33,-79 44,-164 23,-172 -21,-8 -75,61 -148,123 -73,61 -167,114 -254,148 -87,33 -168,47 -242,55 -74,8 -141,10 -200,2 -59,-9 -111,-28 -145,-37 -34,-8 -52,-5 -31,23 z"
   id="path37" />
    <path
   class="slavic__fill5"
   d="m 17902,11257 c 24,-71 66,-141 121,-196 55,-55 123,-96 217,-125 95,-29 217,-46 314,-42 97,4 170,29 241,61 71,32 142,71 196,114 55,43 94,91 123,128 30,37 50,64 63,77 13,14 18,14 24,-7 5,-22 11,-65 -28,-135 -39,-70 -122,-165 -190,-235 -68,-70 -122,-115 -233,-141 -111,-26 -280,-31 -423,-7 -143,24 -260,78 -341,123 -81,45 -125,82 -158,162 -33,80 -53,204 -51,282 2,79 27,112 45,130 19,18 32,21 41,-13 9,-34 14,-106 38,-177 z"
   id="path39" />
    <path
   class="slavic__fill6"
   d="m 17869,11472 c -4,-62 -7,-139 22,-219 29,-80 90,-164 200,-230 110,-66 269,-113 413,-116 143,-2 271,40 379,124 107,84 194,209 243,272 49,63 60,64 28,116 -32,52 -108,155 -193,229 -85,74 -180,120 -281,152 -102,32 -211,51 -321,40 -110,-11 -221,-52 -300,-92 -79,-40 -127,-80 -154,-123 -27,-44 -32,-91 -36,-153 z"
   id="path41" />
    <path
   class="slavic__fill7"
   d="m 17866,11427 c -3,-17 -10,-94 22,-182 32,-88 103,-189 177,-251 75,-62 154,-87 240,-103 86,-16 180,-23 245,-20 65,2 101,14 144,25 43,12 92,24 128,27 36,3 59,-3 93,-19 34,-16 79,-44 100,-75 21,-31 18,-67 22,-67 4,-1 14,33 5,71 -9,37 -38,78 -62,102 -23,24 -41,31 -49,39 -8,8 -6,16 8,24 14,8 41,17 79,18 38,2 87,-3 126,-18 39,-16 68,-43 82,-56 14,-13 14,-13 5,0 -9,14 -28,42 -62,67 -34,25 -83,48 -113,59 -29,11 -39,11 -39,17 0,6 9,19 20,30 11,11 23,22 50,26 27,5 69,4 108,-9 39,-13 76,-37 97,-54 21,-18 28,-29 25,-21 -2,8 -14,35 -45,63 -32,28 -84,56 -113,70 -29,14 -36,14 -35,18 0,4 8,13 22,21 14,8 35,15 68,13 33,-2 78,-12 109,-30 32,-18 51,-44 60,-56 9,-13 9,-13 1,2 -8,15 -24,45 -45,73 -21,28 -46,55 -75,79 -29,24 -62,45 -79,53 -17,7 -19,1 -38,-26 -19,-27 -55,-74 -97,-124 -42,-50 -90,-102 -145,-142 -55,-40 -117,-67 -172,-89 -55,-21 -103,-36 -152,-44 -49,-8 -97,-9 -158,-2 -61,7 -134,24 -195,45 -62,22 -113,49 -155,85 -42,36 -75,80 -101,119 -26,39 -44,73 -61,102 -16,28 -31,51 -38,83 -7,32 -6,74 -10,56 z"
   id="path43" />
    <ellipse
   class="slavic__fill8"
   transform="matrix(-0.607305,0.171662,0.171662,0.607305,18504.1,11389.6)"
   rx="607"
   ry="574"
   id="ellipse45"
   cx="0"
   cy="0" />
    <path
   class="slavic__fill7"
   d="m 17954,11681 c 72,38 145,77 212,103 67,26 130,41 215,42 85,1 192,-13 282,-37 91,-25 166,-60 230,-104 64,-43 118,-94 155,-136 37,-42 56,-74 71,-94 15,-20 25,-28 45,-30 20,-2 50,2 78,17 28,15 54,42 79,69 -45,-13 -90,-27 -121,-26 -31,1 -47,17 -39,36 8,19 41,43 60,60 19,18 26,30 32,42 -40,-26 -80,-51 -120,-46 -40,5 -78,40 -89,59 -11,20 6,25 27,39 21,14 44,36 68,58 -45,-18 -90,-37 -134,-33 -44,3 -87,28 -119,47 -33,18 -56,30 -56,44 -1,15 21,32 39,53 18,21 33,44 47,67 -61,-29 -122,-58 -187,-62 -65,-4 -135,16 -222,24 -87,8 -192,5 -287,-29 -95,-34 -180,-99 -265,-163 z"
   id="path47" />
    <ellipse
   class="slavic__fill9"
   transform="matrix(-0.251567,0.0711084,0.0711084,0.251567,18508.3,11385.4)"
   rx="607"
   ry="574"
   id="ellipse49"
   cx="0"
   cy="0" />
    <path
   class="slavic__fill10"
   d="m 18291,11193 c -84,24 -134,108 -112,188 23,80 109,125 193,101 84,-24 134,-108 112,-188 -23,-80 -109,-125 -193,-101 z"
   id="path51" />
   </g><path
   class="slavic__fill11 face"
   d="m 15854,14710 c -247,-191 -498,-427 -712,-718 -275,-372 -489,-833 -644,-1315 47,-47 130,-61 260,1 201,96 513,375 689,634 176,259 214,500 259,717 45,217 95,411 127,558 10,46 18,88 22,123 z"
   id="slavic__cheek-left"
   style="opacity:1" /><path
   class="slavic__fill11 face"
   d="m 20036,12615 c -49,-16 -116,-9 -206,34 -201,96 -513,375 -689,634 -35,52 -585,1393 -589,1409 171,-128 339,-268 489,-417 457,-454 750,-984 990,-1647 z"
   id="slavic__cheek-right"
   style="opacity:1" /><path
   class="slavic__fill12 face"
   d="m 17153,8255 c -327,80 -886,102 -1445,280 -559,178 -1118,512 -1435,898 -317,386 -393,823 -315,1373 78,549 308,1211 610,1705 302,494 674,820 803,1189 129,369 15,781 -187,1172 -202,391 -493,761 -779,965 -287,203 -570,240 -650,196 -80,-44 44,-167 54,-352 11,-185 -91,-432 -182,-632 -91,-200 -171,-352 -225,-501 -54,-149 -83,-294 -51,-465 33,-171 127,-367 160,-621 33,-254 4,-566 -83,-896 -87,-330 -232,-678 -374,-982 -142,-305 -280,-567 -301,-1011 -22,-443 73,-1068 294,-1580 221,-512 570,-911 1027,-1303 457,-392 1024,-777 1438,-1002 414,-225 675,-290 948,-323 272,-33 555,-33 777,87 378,204 302,155 438,46 169,-135 263,-231 393,-264 131,-33 269,-33 661,98 392,131 1038,392 1492,802 454,410 715,969 915,1641 200,672 338,1456 367,2222 29,766 -51,1514 -163,2135 -113,621 -258,1115 -378,1539 -120,425 -148,834 -447,1140 -1153,1182 -845,-41 -2373,-65 -269,-4 239,-396 500,-647 261,-250 624,-643 908,-1046 283,-403 486,-817 575,-1175 89,-358 64,-661 -24,-992 -87,-330 -236,-688 -424,-880 -188,-192 -414,-218 -609,-374 -196,-155 -360,-440 -440,-750 -79,-310 -73,-645 -238,-960 -165,-315 -501,-609 -724,-893 -24,-31 -47,-61 -68,-92 -68,150 -180,253 -445,318 z"
   id="slavic__hair"
   style="opacity:1" /><path
   class="slavic__fill2 face"
   d="m 19594,11071 c 26,198 89,561 25,1024 -64,464 -255,1028 -497,1599 -242,571 -536,1149 -723,1490 -74,136 -132,234 -178,311 110,-122 241,-227 419,-398 261,-250 624,-643 908,-1046 283,-403 486,-817 575,-1175 89,-358 64,-661 -24,-992 -87,-330 -236,-688 -424,-880 -32,-32 -64,-60 -98,-84 1,35 6,83 15,150 z"
   id="slavic__strand-one"
   style="opacity:1" /><path
   class="slavic__fill13 face"
   d="m 17972,6848 c -23,-15 54,-124 208,-193 154,-69 387,-98 666,-13 280,85 606,285 877,519 270,234 485,503 648,735 163,232 276,428 178,363 -98,-65 -407,-392 -619,-616 -212,-224 -329,-346 -499,-482 -171,-136 -396,-287 -604,-365 -208,-78 -398,-83 -555,-47 -156,36 -278,114 -300,99 z"
   id="slavic__strand-ten"
   style="opacity:1" /><path
   class="slavic__fill13 face"
   d="m 18173,8047 c 105,183 421,623 552,933 131,310 76,492 78,673 1,181 58,361 227,546 169,185 449,375 639,494 189,119 287,166 363,272 76,106 130,271 157,353 27,82 27,82 15,-51 -13,-133 -38,-400 -159,-631 -121,-231 -339,-427 -506,-549 -167,-122 -283,-169 -350,-312 -67,-143 -85,-383 -140,-583 -54,-200 -145,-359 -280,-550 -134,-191 -312,-412 -454,-559 -142,-147 -247,-220 -142,-36 z"
   id="slavic__strand-eight"
   style="opacity:1" /><path
   class="slavic__fill13 face"
   d="m 13804,15567 c -5,-37 -13,-75 -23,-114 12,-8 23,-16 35,-26 525,-436 460,-1155 314,-1727 -45,-177 -118,-428 -151,-545 -32,-117 -23,-100 -26,-86 -3,14 -17,25 -12,111 6,86 31,248 15,465 -16,218 -73,492 -176,643 -102,151 -250,178 -364,215 -9,3 -18,6 -26,9 -21,-62 -37,-124 -46,-187 17,-18 36,-36 57,-57 113,-109 283,-266 354,-503 71,-237 42,-552 -2,-981 -44,-428 -102,-969 -96,-1124 5,-154 74,78 147,330 73,252 149,525 223,746 74,221 147,392 249,597 102,205 232,445 310,702 78,258 103,534 -35,810 -139,277 -441,554 -641,668 -40,23 -76,39 -108,50 z"
   id="slavic__strand-two"
   style="opacity:1" /><path
   class="slavic__fill13 face"
   d="m 17150,8016 c -5,30 -217,130 -488,181 -271,51 -602,53 -874,80 -272,27 -486,80 -677,157 -191,77 -358,179 -441,229 -84,51 -84,51 -17,-39 66,-90 199,-269 409,-400 210,-131 497,-212 791,-230 294,-18 595,27 848,30 252,3 456,-37 451,-7 z"
   id="slavic__strand-seven"
   style="opacity:1" /><path
   class="slavic__fill13 face"
   d="m 17419,6953 c -39,-78 -148,-201 -241,-280 -93,-78 -169,-111 -315,-110 -146,1 -362,35 -544,76 -182,41 -329,88 -435,156 -106,68 -172,157 -150,168 22,11 131,-56 332,-96 201,-40 496,-53 686,-30 191,23 278,81 329,133 52,53 68,100 -22,123 -90,24 -286,24 -436,35 -150,12 -253,35 -354,84 -101,49 -199,123 -143,139 55,15 264,-28 453,-38 189,-10 358,15 456,48 98,34 125,76 174,106 49,30 120,46 177,50 57,5 101,-3 88,-24 -13,-21 -82,-55 -119,-105 -37,-50 -43,-115 -23,-133 20,-18 65,11 80,-8 15,-19 -2,-86 5,-136 7,-50 38,-83 -1,-161 z"
   id="slavic__strand-six"
   style="opacity:1" /><path
   class="slavic__fill14 face"
   d="m 15988,8757 c -95,13 -449,221 -746,383 -297,162 -536,276 -699,442 -163,166 -248,384 -285,567 -37,182 -26,329 -10,324 16,-5 38,-161 122,-309 84,-148 229,-288 388,-415 160,-127 334,-241 503,-346 169,-104 332,-199 496,-338 163,-139 327,-322 231,-309 z"
   id="slavic__strand-five"
   style="opacity:1" /><path
   class="slavic__fill13 face"
   d="m 19471,16231 c -137,-85 -287,-213 -511,-316 19,-14 39,-29 59,-44 196,-144 467,-325 707,-583 240,-258 449,-592 610,-935 162,-343 276,-695 333,-871 57,-176 57,-176 36,-13 -21,163 -63,490 -138,769 -75,279 -184,509 -288,743 -103,234 -201,472 -362,719 -122,188 -281,381 -446,531 z"
   id="slavic__strand-three"
   style="opacity:1" /><path
   class="slavic__fill2 face"
   d="m 18501,7641 c 166,116 561,364 828,598 267,235 405,456 584,779 180,323 401,748 572,1118 171,370 290,686 330,728 40,42 0,-191 -62,-470 -62,-280 -145,-606 -254,-897 -109,-290 -243,-545 -409,-783 -166,-238 -364,-461 -640,-651 -276,-190 -631,-348 -841,-435 -209,-87 -274,-103 -108,12 z"
   id="slavic__strand-nine"
   style="opacity:1" /><ellipse
   class="slavic__fill15"
   cx="18737"
   cy="12595"
   rx="39"
   ry="37"
   id="ellipse79"
   style="opacity:1" /><ellipse
   class="slavic__fill15"
   cx="18998"
   cy="12387"
   rx="39"
   ry="37"
   id="ellipse81"
   style="opacity:1" /><ellipse
   class="slavic__fill15"
   cx="19040"
   cy="12703"
   rx="39"
   ry="37"
   id="ellipse83"
   style="opacity:1" /><ellipse
   class="slavic__fill15"
   cx="18379"
   cy="12479"
   rx="39"
   ry="37"
   id="ellipse85"
   style="opacity:1" /><ellipse
   class="slavic__fill15"
   cx="18405"
   cy="12779"
   rx="39"
   ry="37"
   id="ellipse87"
   style="opacity:1" /><ellipse
   class="slavic__fill15"
   cx="15980"
   cy="12576"
   rx="39"
   ry="37"
   id="ellipse89"
   style="opacity:1" /><ellipse
   class="slavic__fill15"
   cx="15719"
   cy="12368"
   rx="39"
   ry="37"
   id="ellipse91"
   style="opacity:1" /><ellipse
   class="slavic__fill15"
   cx="15677"
   cy="12685"
   rx="39"
   ry="37"
   id="ellipse93"
   style="opacity:1" /><ellipse
   class="slavic__fill15"
   cx="16338"
   cy="12461"
   rx="39"
   ry="37"
   id="ellipse95"
   style="opacity:1" /><ellipse
   class="slavic__fill15"
   cx="16313"
   cy="12761"
   rx="39"
   ry="37"
   id="ellipse97"
   style="opacity:1" />
 </g>
</svg>
