<?xml version="1.0" encoding="UTF-8" standalone="no"?>
<svg
   xmlns:dc="http://purl.org/dc/elements/1.1/"
   xmlns:cc="http://creativecommons.org/ns#"
   xmlns:rdf="http://www.w3.org/1999/02/22-rdf-syntax-ns#"
   xmlns:svg="http://www.w3.org/2000/svg"
   xmlns="http://www.w3.org/2000/svg"
   xmlns:sodipodi="http://sodipodi.sourceforge.net/DTD/sodipodi-0.dtd"
   xmlns:inkscape="http://www.inkscape.org/namespaces/inkscape"
   xml:space="preserve"
   width="30.457773mm"
   height="23.666142mm"
   version="1.1"
   style="clip-rule:evenodd;fill-rule:evenodd;image-rendering:optimizeQuality;shape-rendering:geometricPrecision;text-rendering:geometricPrecision"
   viewBox="0 0 3045.7773 2366.6142"
   id="svg25"
   sodipodi:docname="oko1.svg"
   inkscape:version="1.0.1 (3bc2e813f5, 2020-09-07)"><metadata
   id="metadata29"><rdf:RDF><cc:Work
       rdf:about=""><dc:format>image/svg+xml</dc:format><dc:type
         rdf:resource="http://purl.org/dc/dcmitype/StillImage" /></cc:Work></rdf:RDF></metadata><sodipodi:namedview
   pagecolor="#ffffff"
   bordercolor="#666666"
   borderopacity="1"
   objecttolerance="10"
   gridtolerance="10"
   guidetolerance="10"
   inkscape:pageopacity="0"
   inkscape:pageshadow="2"
   inkscape:window-width="753"
   inkscape:window-height="480"
   id="namedview27"
   showgrid="false"
   inkscape:zoom="1.1162388"
   inkscape:cx="60.463411"
   inkscape:cy="28.913194"
   inkscape:window-x="62"
   inkscape:window-y="0"
   inkscape:window-maximized="0"
   inkscape:current-layer="svg25" />
 <defs
   id="defs4">
  <style
   type="text/css"
   id="style2">
   <![CDATA[
    .fil1 {fill:#FEFEFE}
    .fil2 {fill:#2B2A29}
    .fil3 {fill:#5C3B1B}
    .fil4 {fill:#2C261A}
    .fil5 {fill:#FEFEFE;fill-opacity:0.501961}
    .fil0 {fill:#C4886E;fill-opacity:0.501961}
   ]]>
  </style>
 </defs>
 <g
   id="Warstwa_x0020_1"
   transform="translate(-13250.239,-9735.0051)">
  <metadata
   id="CorelCorpID_0Corel-Layer" />
  <g
   id="_2067154353296">
   <path
   class="fil0"
   d="m 15615,11762 c -37,53 -143,155 -311,229 -169,74 -400,120 -626,109 -226,-11 -447,-78 -611,-179 -164,-100 -270,-233 -336,-380 -66,-147 -91,-308 -51,-324 39,-16 143,113 284,225 141,112 319,208 485,267 166,59 319,82 458,93 139,12 265,13 376,-6 111,-19 207,-58 271,-75 64,-17 97,-12 60,42 z"
   id="path7" />
   <path
   class="fil0"
   d="m 16060,10693 c -48,-133 -130,-262 -236,-364 -106,-102 -235,-175 -415,-225 -180,-50 -410,-78 -593,-66 -183,12 -319,63 -452,126 -133,63 -264,140 -365,224 -101,84 -172,176 -226,247 -54,71 -91,122 -115,148 -24,26 -33,28 -45,-13 -11,-40 -24,-122 46,-255 70,-133 222,-316 348,-451 126,-135 224,-223 432,-276 208,-53 526,-71 796,-32 270,39 493,136 647,217 154,82 240,148 305,298 65,149 110,382 109,530 0,148 -45,212 -80,248 -35,35 -59,42 -77,-23 -18,-64 -31,-200 -79,-332 z"
   id="path9" />
   <path
   class="fil1"
   d="m 16133,11096 c 5,-117 6,-262 -52,-412 -58,-150 -176,-305 -386,-424 -210,-119 -512,-202 -783,-200 -270,2 -509,88 -708,251 -199,163 -357,402 -447,523 -90,121 -111,123 -48,220 63,96 210,287 374,423 164,136 344,218 537,274 193,56 399,86 606,60 207,-26 413,-107 561,-187 148,-79 236,-156 284,-239 48,-83 56,-173 61,-290 z"
   id="path11" />
   <path
   class="fil2"
   d="m 16136,11012 c 5,-33 15,-177 -49,-343 -64,-165 -202,-351 -345,-465 -144,-114 -294,-157 -457,-183 -163,-26 -340,-35 -462,-28 -122,7 -191,30 -271,54 -80,24 -172,49 -239,57 -68,8 -111,-2 -176,-32 -65,-30 -151,-79 -192,-137 -41,-58 -38,-125 -45,-126 -7,-1 -25,63 -6,133 19,70 76,145 120,189 45,44 78,57 93,71 15,14 13,30 -14,46 -27,16 -77,33 -149,38 -72,5 -165,-1 -239,-29 -74,-28 -129,-77 -157,-102 -28,-25 -28,-25 -9,1 18,26 55,77 121,123 65,46 159,86 215,106 56,20 74,19 74,31 0,12 -17,36 -36,58 -20,22 -43,42 -93,52 -51,10 -129,10 -203,-12 -74,-22 -144,-66 -185,-98 -41,-32 -53,-53 -48,-38 5,15 27,65 88,116 61,51 160,102 216,127 56,25 68,24 67,32 -1,8 -14,25 -41,40 -26,16 -65,30 -127,28 -62,-2 -147,-19 -207,-52 -61,-33 -97,-80 -116,-103 -18,-24 -18,-24 -2,4 16,28 48,83 88,136 40,52 88,101 144,145 56,44 118,83 151,96 33,13 36,1 71,-51 35,-52 100,-142 177,-238 77,-96 165,-196 267,-274 102,-78 218,-132 321,-174 103,-42 193,-72 284,-89 91,-17 183,-22 298,-11 115,11 253,39 370,77 117,38 214,88 295,153 81,65 145,147 195,220 50,73 87,136 119,189 32,53 60,95 74,155 14,60 15,139 21,106 z"
   id="path13" />
   <ellipse
   class="fil3"
   transform="matrix(1.1517,0.296475,-0.296475,1.1517,14932.4,10969.5)"
   rx="607"
   ry="574"
   id="ellipse15"
   cx="0"
   cy="0" />
   <path
   class="fil2"
   d="m 15982,11495 c -135,75 -269,151 -395,204 -126,53 -243,83 -402,88 -159,5 -361,-15 -534,-57 -172,-42 -315,-106 -438,-185 -123,-79 -226,-173 -297,-250 -71,-77 -109,-137 -138,-175 -29,-37 -48,-52 -86,-55 -38,-3 -94,6 -146,36 -52,30 -99,82 -146,133 84,-27 168,-54 226,-53 58,1 90,29 76,66 -14,37 -75,82 -111,116 -36,34 -47,57 -58,80 75,-50 149,-100 224,-93 75,7 149,71 171,108 21,37 -11,47 -49,74 -38,27 -82,70 -126,113 84,-37 168,-73 251,-69 83,4 165,50 227,83 63,33 106,54 108,81 2,28 -38,62 -71,101 -33,40 -60,84 -86,129 114,-57 227,-115 350,-126 123,-11 254,24 419,36 165,12 363,1 540,-68 178,-68 335,-194 492,-319 z"
   id="path17" />
   <ellipse
   class="fil4"
   transform="matrix(0.477073,0.12281,-0.12281,0.477073,14924.3,10961.8)"
   rx="607"
   ry="574"
   id="ellipse19"
   cx="0"
   cy="0" />
   <path
   class="fil5"
   d="m 14814,10458 c 160,41 258,197 219,348 -39,151 -200,240 -360,199 -160,-41 -258,-197 -219,-348 39,-151 200,-240 360,-199 z"
   id="path21" />
  </g>
 </g>
</svg>
