<?xml version="1.0" encoding="UTF-8" standalone="no"?>
<svg
   xmlns:dc="http://purl.org/dc/elements/1.1/"
   xmlns:cc="http://creativecommons.org/ns#"
   xmlns:rdf="http://www.w3.org/1999/02/22-rdf-syntax-ns#"
   xmlns:svg="http://www.w3.org/2000/svg"
   xmlns="http://www.w3.org/2000/svg"
   xmlns:sodipodi="http://sodipodi.sourceforge.net/DTD/sodipodi-0.dtd"
   xmlns:inkscape="http://www.inkscape.org/namespaces/inkscape"
   xml:space="preserve"
   width="30.391817mm"
   height="23.670078mm"
   version="1.1"
   style="clip-rule:evenodd;fill-rule:evenodd;image-rendering:optimizeQuality;shape-rendering:geometricPrecision;text-rendering:geometricPrecision"
   viewBox="0 0 3039.1817 2367.0078"
   id="svg25"
   sodipodi:docname="oko2.svg"
   inkscape:version="1.0.1 (3bc2e813f5, 2020-09-07)"><metadata
   id="metadata29"><rdf:RDF><cc:Work
       rdf:about=""><dc:format>image/svg+xml</dc:format><dc:type
         rdf:resource="http://purl.org/dc/dcmitype/StillImage" /></cc:Work></rdf:RDF></metadata><sodipodi:namedview
   pagecolor="#ffffff"
   bordercolor="#666666"
   borderopacity="1"
   objecttolerance="10"
   gridtolerance="10"
   guidetolerance="10"
   inkscape:pageopacity="0"
   inkscape:pageshadow="2"
   inkscape:window-width="753"
   inkscape:window-height="480"
   id="namedview27"
   showgrid="false"
   inkscape:zoom="1.1162388"
   inkscape:cx="10.026374"
   inkscape:cy="39.514938"
   inkscape:window-x="62"
   inkscape:window-y="0"
   inkscape:window-maximized="0"
   inkscape:current-layer="svg25" />
 <defs
   id="defs4">
  <style
   type="text/css"
   id="style2">
   <![CDATA[
    .fil1 {fill:#FEFEFE}
    .fil2 {fill:#2B2A29}
    .fil3 {fill:#5C3B1B}
    .fil4 {fill:#2C261A}
    .fil5 {fill:#FEFEFE;fill-opacity:0.501961}
    .fil0 {fill:#C4886E;fill-opacity:0.501961}
   ]]>
  </style>
 </defs>
 <g
   id="Warstwa_x0020_1"
   transform="translate(-14584.719,-9454.5006)">
  <metadata
   id="CorelCorpID_0Corel-Layer" />
  <g
   id="_2067149001072">
   <path
   class="fil0"
   d="m 15246,11503 c 38,52 146,151 317,221 170,70 403,110 628,94 226,-16 445,-89 606,-193 161,-104 265,-240 327,-388 62,-148 83,-310 43,-325 -40,-15 -140,116 -279,231 -138,115 -314,215 -478,278 -164,63 -317,89 -456,104 -139,15 -265,19 -376,3 -111,-16 -208,-53 -273,-69 -65,-16 -97,-9 -59,43 z"
   id="path7" />
   <path
   class="fil0"
   d="m 14819,10441 c 45,-134 124,-265 228,-370 104,-104 231,-181 410,-235 179,-55 408,-87 591,-80 183,7 320,55 455,116 135,60 267,133 370,215 103,82 176,172 232,242 56,70 94,120 118,145 24,26 34,27 44,-14 10,-41 21,-123 -52,-254 -73,-131 -229,-311 -358,-443 -129,-132 -230,-218 -439,-266 -209,-48 -527,-59 -796,-14 -269,45 -490,147 -642,233 -152,85 -236,154 -298,305 -62,151 -101,384 -97,532 4,148 50,211 86,246 35,35 60,40 77,-24 17,-65 26,-200 71,-334 z"
   id="path9" />
   <path
   class="fil1"
   d="m 14756,10846 c -7,-117 -12,-262 42,-413 55,-151 169,-309 376,-433 207,-124 507,-214 778,-219 270,-5 511,76 713,234 202,158 366,394 459,512 92,119 113,120 53,218 -61,98 -203,292 -364,432 -160,140 -338,226 -530,287 -192,61 -397,96 -604,75 -207,-21 -416,-98 -565,-173 -150,-76 -240,-150 -290,-232 -50,-82 -60,-171 -67,-288 z"
   id="path11" />
   <path
   class="fil2"
   d="m 14750,10761 c -6,-33 -19,-177 41,-344 60,-167 193,-355 334,-473 141,-118 290,-164 453,-193 163,-30 339,-43 461,-38 122,4 191,26 272,48 81,22 173,45 241,51 68,6 111,-5 175,-36 64,-31 149,-82 189,-141 40,-59 35,-126 42,-127 7,-1 27,63 9,133 -18,70 -72,147 -116,192 -44,45 -77,58 -92,73 -15,14 -12,30 15,46 27,16 78,31 149,35 72,4 165,-5 238,-35 73,-30 127,-80 154,-106 27,-25 27,-25 9,1 -18,26 -53,78 -118,126 -64,47 -157,90 -212,111 -55,21 -73,21 -73,32 0,12 17,35 38,57 20,21 44,41 94,50 51,9 129,7 203,-17 74,-24 143,-69 183,-102 40,-33 52,-54 47,-39 -5,15 -26,66 -85,118 -59,52 -157,106 -213,132 -55,27 -68,26 -67,34 1,8 15,24 42,39 27,15 66,28 128,25 62,-3 146,-23 206,-57 60,-34 95,-82 113,-106 18,-24 18,-24 3,4 -15,28 -46,84 -84,138 -39,53 -86,103 -140,149 -54,45 -116,86 -149,100 -33,14 -36,1 -72,-49 -36,-51 -104,-140 -183,-234 -79,-94 -169,-192 -273,-268 -104,-75 -221,-127 -325,-167 -104,-40 -195,-67 -286,-82 -91,-15 -183,-18 -298,-4 -115,14 -252,45 -368,86 -116,41 -212,93 -291,160 -79,67 -141,150 -190,224 -49,74 -84,138 -115,192 -31,54 -58,96 -71,157 -13,61 -12,139 -18,106 z"
   id="path13" />
   <ellipse
   class="fil3"
   transform="matrix(-1.1444,0.32348,0.32348,1.1444,15952.4,10691.1)"
   rx="607"
   ry="574"
   id="ellipse15"
   cx="0"
   cy="0" />
   <path
   class="fil2"
   d="m 14916,11241 c 136,72 273,144 400,194 127,50 245,77 404,79 160,1 361,-24 532,-70 171,-46 312,-114 433,-196 121,-82 222,-178 291,-256 69,-79 106,-140 134,-178 28,-38 47,-53 84,-57 38,-4 94,3 147,32 53,29 101,79 149,130 -85,-25 -170,-50 -228,-48 -58,2 -89,31 -74,68 15,37 77,81 113,114 37,33 48,56 60,78 -76,-48 -151,-96 -226,-87 -74,9 -148,74 -168,112 -20,38 12,47 51,73 39,26 84,68 129,110 -85,-35 -169,-69 -252,-63 -83,6 -163,54 -225,88 -62,34 -105,56 -106,84 -1,28 40,61 74,100 34,39 62,83 89,127 -115,-55 -230,-109 -353,-118 -123,-8 -254,30 -418,46 -164,16 -363,9 -542,-55 -179,-64 -339,-186 -499,-307 z"
   id="path17" />
   <ellipse
   class="fil4"
   transform="matrix(-0.474052,0.133997,0.133997,0.474052,15960.4,10683.2)"
   rx="607"
   ry="574"
   id="ellipse19"
   cx="0"
   cy="0" />
   <path
   class="fil5"
   d="m 15551,10320 c -159,45 -253,203 -211,353 42,150 206,236 365,191 159,-45 253,-203 211,-353 -42,-150 -206,-236 -365,-191 z"
   id="path21" />
  </g>
 </g>
</svg>
