<?xml version="1.0" encoding="UTF-8" standalone="no"?>
<svg
   xmlns:dc="http://purl.org/dc/elements/1.1/"
   xmlns:cc="http://creativecommons.org/ns#"
   xmlns:rdf="http://www.w3.org/1999/02/22-rdf-syntax-ns#"
   xmlns:svg="http://www.w3.org/2000/svg"
   xmlns="http://www.w3.org/2000/svg"
   xmlns:sodipodi="http://sodipodi.sourceforge.net/DTD/sodipodi-0.dtd"
   xmlns:inkscape="http://www.inkscape.org/namespaces/inkscape"
   xml:space="preserve"
   width="91.604797mm"
   height="85.021576mm"
   version="1.1"
   style="clip-rule:evenodd;fill-rule:evenodd;image-rendering:optimizeQuality;shape-rendering:geometricPrecision;text-rendering:geometricPrecision"
   viewBox="0 0 9160.4797 8502.1576"
   id="svg10"
   sodipodi:docname="pasemko4.svg"
   inkscape:version="1.0.1 (3bc2e813f5, 2020-09-07)"><metadata
   id="metadata14"><rdf:RDF><cc:Work
       rdf:about=""><dc:format>image/svg+xml</dc:format><dc:type
         rdf:resource="http://purl.org/dc/dcmitype/StillImage" /></cc:Work></rdf:RDF></metadata><sodipodi:namedview
   pagecolor="#ffffff"
   bordercolor="#666666"
   borderopacity="1"
   objecttolerance="10"
   gridtolerance="10"
   guidetolerance="10"
   inkscape:pageopacity="0"
   inkscape:pageshadow="2"
   inkscape:window-width="753"
   inkscape:window-height="480"
   id="namedview12"
   showgrid="false"
   inkscape:zoom="1.1162388"
   inkscape:cx="-33.496713"
   inkscape:cy="152.5477"
   inkscape:window-x="63"
   inkscape:window-y="0"
   inkscape:window-maximized="0"
   inkscape:current-layer="svg10" />
 <defs
   id="defs4">
  <style
   type="text/css"
   id="style2">
   <![CDATA[
    .fil0 {fill:#3B2821}
   ]]>
  </style>
 </defs>
 <g
   id="Warstwa_x0020_1"
   transform="translate(-15736.267,-6463.8422)">
  <metadata
   id="CorelCorpID_0Corel-Layer" />
  <path
   class="fil0"
   d="m 23833,7037 c 222,218 482,469 662,708 180,239 279,464 338,632 59,168 78,278 53,284 -26,6 -96,-92 -267,-257 -171,-165 -443,-395 -723,-532 -280,-137 -567,-180 -844,-181 -277,-2 -544,38 -793,99 -1359,336 -3117,2290 -3898,3302 -972,1259 -1095,2281 -1006,3146 26,256 71,498 122,728 -27,-43 -53,-86 -80,-130 -730,-1206 -1488,-3003 -1634,-4038 -146,-1035 319,-1309 1078,-1760 759,-452 1813,-1081 2866,-1416 979,-312 1959,-369 2586,-496 109,-75 217,-152 311,-223 174,-133 296,-246 393,-318 93,-68 189,-147 281,-113 214,77 414,429 555,567 z"
   id="path7" />
 </g>
</svg>
