<?xml version="1.0" encoding="UTF-8"?>
<!DOCTYPE svg PUBLIC "-//W3C//DTD SVG 1.0//EN" "http://www.w3.org/TR/2001/REC-SVG-20010904/DTD/svg10.dtd">
<!-- Creator: CorelDRAW 2017 -->
<svg xmlns="http://www.w3.org/2000/svg" xml:space="preserve" width="162.56mm" height="91.4398mm" version="1.0" style="shape-rendering:geometricPrecision; text-rendering:geometricPrecision; image-rendering:optimizeQuality; fill-rule:evenodd; clip-rule:evenodd"
viewBox="0 0 16256 9144"
 xmlns:xlink="http://www.w3.org/1999/xlink">
 <defs>
  <style type="text/css">
   <![CDATA[
    .fil0 {fill:#FEFEFE}
    .fil10 {fill:#2B2A29}
    .fil1 {fill:#F6DAD6}
    .fil7 {fill:#DFAB9E}
    .fil18 {fill:#CD877A}
    .fil11 {fill:#5C3B1B}
    .fil3 {fill:#7688A1}
    .fil12 {fill:#2C261A}
    .fil17 {fill:#28170F}
    .fil6 {fill:#3B2821}
    .fil5 {fill:#48362C}
    .fil15 {fill:#A2745A}
    .fil16 {fill:#CDB3A2}
    .fil8 {fill:#D2665A}
    .fil4 {fill:#F0D0C3}
    .fil2 {fill:#7688A1;fill-rule:nonzero}
    .fil13 {fill:#FEFEFE;fill-opacity:0.501961}
    .fil14 {fill:#CD877A;fill-opacity:0.501961}
    .fil9 {fill:#C4886E;fill-opacity:0.501961}
   ]]>
  </style>
 </defs>
 <g id="Warstwa_x0020_1">
  <metadata id="CorelCorpID_0Corel-Layer"/>
  <rect class="fil0" width="16256" height="9144"/>
  <path class="fil1" d="M9416 3854c81,175 140,427 129,725 -11,298 -92,642 -195,929 -104,287 -230,516 -428,713 -198,196 -467,359 -635,433 -168,74 -233,58 -404,-31 -171,-89 -447,-252 -648,-525 -201,-273 -328,-655 -382,-1007 -54,-352 -35,-673 26,-938 61,-265 163,-474 324,-627 162,-153 382,-250 633,-284 250,-34 530,-6 751,45 221,51 382,125 514,210 132,85 234,182 315,357z"/>
  <path class="fil2" d="M5798 1021c0,0 36,45 105,45 55,0 97,-30 97,-77 0,-84 -134,-76 -134,-116 0,-15 15,-23 38,-23 14,0 32,6 32,18l0 12 55 0 0 -26c0,-41 -54,-52 -88,-52 -52,0 -98,23 -98,74 0,81 133,81 133,117 0,17 -15,25 -34,25 -43,0 -75,-37 -75,-37l-30 41zm262 5c0,24 10,34 33,34l60 0 0 -53 -20 0c-7,0 -11,-4 -11,-11l0 -113 36 -21 0 -61 -36 20 0 -79c0,-23 -10,-34 -33,-34l-60 0 0 53 20 0c7,0 11,3 11,11l0 83 -33 19 0 62 33 -18 0 107zm122 -92c0,78 61,132 138,132 77,0 138,-54 138,-132 0,-77 -61,-132 -138,-132 -77,0 -138,55 -138,132zm63 0c0,-46 34,-79 75,-79 41,0 75,32 75,79 0,47 -34,79 -75,79 -41,0 -75,-32 -75,-79zm310 126l71 0 42 -144c4,-13 6,-27 6,-27l1 0c0,0 2,14 6,27l43 144 71 0 60 -190c3,-7 6,-9 14,-9l7 0 0 -53 -43 0c-21,0 -31,6 -36,26l-37 140c-3,13 -5,27 -5,27l-1 0c0,0 -1,-13 -5,-27l-47 -164 -55 0 -46 164c-4,13 -6,27 -6,27l-1 0c0,0 -1,-13 -5,-27l-37 -140c-5,-19 -15,-26 -36,-26l-43 0 0 53 7 0c7,0 11,1 14,9l60 190zm372 -293l54 0 0 -58 -54 0 0 58zm-3 259c0,24 10,34 33,34l60 0 0 -53 -20 0c-7,0 -11,-4 -11,-11l0 -155c0,-23 -10,-34 -33,-34l-60 0 0 53 20 0c7,0 11,3 11,11l0 154zm121 -39c0,50 41,79 86,79 57,0 76,-44 76,-44l1 0c0,0 -1,4 -1,11 0,15 9,28 32,28l56 0 0 -53 -20 0c-7,0 -11,-4 -11,-11l0 -94c0,-56 -25,-100 -109,-100 -26,0 -92,5 -92,52l0 27 58 0 0 -13c0,-14 22,-17 34,-17 32,0 46,13 46,49l0 2 -8 0c-41,0 -150,6 -150,85zm63 -3c0,-35 52,-40 84,-40l11 0 0 6c0,31 -24,66 -57,66 -26,0 -38,-16 -38,-33zm238 76l62 0 0 -116c0,-12 1,-23 5,-34 9,-30 34,-51 68,-51 32,0 40,21 40,51l0 116c0,24 10,34 34,34l60 0 0 -53 -20 0c-7,0 -11,-4 -11,-11l0 -98c0,-67 -32,-96 -88,-96 -51,0 -78,31 -89,52l-1 0c0,0 1,-5 1,-11l0 -7c0,-18 -11,-28 -33,-28l-58 0 0 53 20 0c7,0 11,3 11,11l0 188zm97 -283l46 0 52 -67 -60 0 -38 67zm192 244c0,0 36,45 105,45 55,0 97,-30 97,-77 0,-84 -134,-76 -134,-116 0,-15 15,-23 38,-23 14,0 32,6 32,18l0 12 55 0 0 -26c0,-41 -54,-52 -88,-52 -52,0 -98,23 -98,74 0,81 133,81 133,117 0,17 -15,25 -34,25 -43,0 -75,-37 -75,-37l-30 41zm258 39l63 0 0 -110 14 0c8,0 18,1 23,9l42 79c10,18 18,22 40,22l46 0 0 -53 -17 0c-12,0 -17,-2 -21,-9l-29 -54c-9,-16 -18,-20 -18,-20l0 -1c0,0 8,-4 19,-20l64 -95 -70 0 -51 80c-5,8 -16,9 -24,9l-19 0 0 -159c0,-23 -10,-29 -34,-29l-60 0 0 53 20 0c7,0 11,3 11,11l0 286zm280 -293l54 0 0 -58 -54 0 0 58zm-3 259c0,24 10,34 33,34l60 0 0 -53 -20 0c-7,0 -11,-4 -11,-11l0 -155c0,-23 -10,-34 -33,-34l-60 0 0 53 20 0c7,0 11,3 11,11l0 154zm278 -59c0,84 70,95 105,95 11,0 19,-1 19,-1l0 -55c0,0 -4,1 -11,1 -17,0 -50,-6 -50,-47l0 -102 57 0 0 -50 -57 0 0 -69 -61 0 0 69 -34 0 0 50 33 0 0 110zm161 126l-24 44c0,0 24,26 64,26 38,0 73,-20 91,-66l90 -228c3,-7 7,-9 14,-9l7 0 0 -53 -42 0c-17,0 -28,6 -34,24l-43 126c-4,13 -8,34 -8,34l-1 0c0,0 -4,-21 -9,-34l-49 -126c-6,-17 -15,-24 -33,-24l-41 0 0 53 7 0c7,0 10,1 13,9l84 189 -8 19c-9,22 -24,32 -41,32 -21,0 -36,-17 -36,-17zm289 65l62 0 0 -104c0,-13 -1,-22 -1,-22l1 0c0,0 22,33 72,33 66,0 116,-52 116,-132 0,-78 -44,-132 -112,-132 -59,0 -80,40 -80,40l-1 0c0,0 0,-4 0,-10 0,-14 -8,-24 -32,-24l-56 0 0 53 20 0c7,0 11,3 11,11l0 286zm61 -223c0,-56 31,-80 63,-80 37,0 63,31 63,79 0,50 -29,78 -64,78 -41,0 -62,-39 -62,-78zm376 35c0,69 33,96 87,96 43,0 75,-26 87,-52l1 0c0,0 -1,5 -1,11l0 7c0,18 11,28 33,28l58 0 0 -53 -20 0c-7,0 -11,-4 -11,-11l0 -188 -63 0 0 116c0,45 -25,85 -71,85 -31,0 -39,-21 -39,-51l0 -116c0,-23 -10,-33 -33,-33l-60 0 0 53 20 0c7,0 11,3 11,11l0 98zm316 90l62 0 0 -100c0,-15 2,-29 5,-41 11,-38 42,-53 69,-53 9,0 15,1 15,1l0 -62c0,0 -6,-1 -11,-1 -39,0 -69,29 -80,65l-1 0c0,0 1,-6 1,-16l0 -15c0,-21 -11,-31 -34,-31l-57 0 0 53 20 0c7,0 11,3 11,11l0 188zm169 -126c0,78 61,132 138,132 77,0 138,-54 138,-132 0,-77 -61,-132 -138,-132 -77,0 -138,55 -138,132zm63 0c0,-46 34,-79 75,-79 41,0 75,32 75,79 0,47 -34,79 -75,79 -41,0 -75,-32 -75,-79zm244 0c0,78 44,132 112,132 58,0 79,-41 79,-41l1 0c0,0 0,4 0,9 0,15 8,26 31,26l58 0 0 -53 -19 0c-7,0 -11,-4 -11,-11l0 -253c0,-23 -10,-34 -34,-34l-60 0 0 53 20 0c7,0 11,3 11,11l0 44c0,8 0,15 0,15l-1 0c0,0 -18,-31 -73,-31 -67,0 -115,52 -115,132zm126 79c-37,0 -62,-31 -62,-79 0,-50 29,-78 63,-78 42,0 62,39 62,78 0,56 -31,80 -63,80zm190 81l-24 44c0,0 24,26 64,26 38,0 73,-20 91,-66l90 -228c3,-7 7,-9 14,-9l7 0 0 -53 -42 0c-17,0 -28,6 -34,24l-43 126c-4,13 -8,34 -8,34l-1 0c0,0 -4,-21 -9,-34l-49 -126c-6,-17 -15,-24 -33,-24l-41 0 0 53 7 0c7,0 10,1 13,9l84 189 -8 19c-9,22 -24,32 -41,32 -21,0 -36,-17 -36,-17z"/>
  <path class="fil3" d="M5681 3698c-40,-9 -118,-34 -173,-31 -55,3 -88,34 -68,54 20,20 92,29 145,40 52,11 84,23 100,33 15,10 14,18 11,28 -2,10 -5,22 10,23 15,1 49,-8 87,-12 38,-5 81,-5 88,-20 7,-16 -22,-47 -45,-73 -23,-26 -41,-47 -53,-62 -13,-15 -20,-24 -29,-19 -9,4 -18,21 -24,32 -6,11 -8,17 -48,7z"/>
  <path class="fil2" d="M2151 3431l30 0 0 -6c0,-5 0,-8 0,-8l0 0c0,0 11,18 38,18 33,0 58,-26 58,-66 0,-39 -22,-66 -56,-66 -27,0 -38,18 -38,18l0 0c0,0 0,-4 0,-11l0 -37c0,-12 -5,-17 -17,-17l-30 0 0 27 10 0c3,0 5,2 5,5l0 143zm30 -62c0,-28 15,-40 32,-40 19,0 31,16 31,40 0,25 -15,39 -32,39 -21,0 -31,-19 -31,-39zm121 45c0,12 5,17 17,17l30 0 0 -26 -10 0c-3,0 -5,-2 -5,-5l0 -127c0,-12 -5,-17 -17,-17l-30 0 0 27 10 0c3,0 5,2 5,5l0 126zm60 -46c0,39 31,66 69,66 39,0 69,-27 69,-66 0,-39 -31,-66 -69,-66 -38,0 -69,27 -69,66zm32 0c0,-23 17,-39 37,-39 20,0 38,16 38,39 0,23 -17,39 -38,39 -20,0 -37,-16 -37,-39zm135 63l31 0 0 -58c0,-6 1,-12 2,-17 4,-15 17,-26 34,-26 16,0 20,10 20,26l0 58c0,12 5,17 17,17l30 0 0 -26 -10 0c-3,0 -5,-2 -5,-5l0 -49c0,-33 -16,-48 -44,-48 -25,0 -39,16 -44,26l0 0c0,0 0,-3 0,-5l0 -4c0,-9 -5,-14 -17,-14l-29 0 0 27 10 0c3,0 5,2 5,5l0 94zm146 -63c0,39 22,66 56,66 29,0 39,-20 39,-20l0 0c0,0 0,2 0,5 0,7 4,13 16,13l29 0 0 -26 -10 0c-3,0 -5,-2 -5,-5l0 -127c0,-12 -5,-17 -17,-17l-30 0 0 27 10 0c3,0 5,2 5,5l0 22c0,4 0,7 0,7l-1 0c0,0 -9,-15 -36,-15 -33,0 -57,26 -57,66zm63 40c-19,0 -31,-16 -31,-40 0,-25 14,-39 32,-39 21,0 31,19 31,39 0,28 -15,40 -32,40zm191 23l36 0 21 -72c2,-7 3,-14 3,-14l1 0c0,0 1,7 3,14l21 72 35 0 30 -95c1,-4 3,-4 7,-4l3 0 0 -27 -21 0c-10,0 -15,3 -18,13l-18 70c-2,7 -2,13 -2,13l0 0c0,0 -1,-7 -3,-13l-23 -82 -28 0 -23 82c-2,7 -3,13 -3,13l-1 0c0,0 -1,-7 -2,-13l-19 -70c-2,-10 -7,-13 -18,-13l-21 0 0 27 3 0c4,0 6,1 7,4l30 95zm185 -17c0,12 5,17 17,17l30 0 0 -26 -10 0c-3,0 -5,-2 -5,-5l0 -57 18 -10 0 -31 -18 10 0 -39c0,-12 -5,-17 -17,-17l-30 0 0 27 10 0c3,0 5,2 5,5l0 42 -16 9 0 31 16 -9 0 54zm61 -46c0,39 31,66 69,66 39,0 69,-27 69,-66 0,-39 -31,-66 -69,-66 -38,0 -69,27 -69,66zm32 0c0,-23 17,-39 37,-39 20,0 38,16 38,39 0,23 -17,39 -38,39 -20,0 -37,-16 -37,-39zm121 43c0,0 18,22 52,22 27,0 48,-15 48,-39 0,-42 -67,-38 -67,-58 0,-7 8,-11 19,-11 7,0 16,3 16,9l0 6 28 0 0 -13c0,-20 -27,-26 -44,-26 -26,0 -49,12 -49,37 0,41 66,41 66,58 0,8 -7,12 -17,12 -21,0 -38,-19 -38,-19l-15 20zm122 36l-12 22c0,0 12,13 32,13 19,0 37,-10 45,-33l45 -114c1,-4 3,-4 7,-4l4 0 0 -27 -21 0c-9,0 -14,3 -17,12l-21 63c-2,6 -4,17 -4,17l0 0c0,0 -2,-10 -4,-17l-25 -63c-3,-9 -8,-12 -17,-12l-21 0 0 27 4 0c3,0 5,1 7,4l42 95 -4 10c-4,11 -12,16 -21,16 -10,0 -18,-9 -18,-9zm198 -80c0,39 31,66 69,66 39,0 69,-27 69,-66 0,-39 -31,-66 -69,-66 -38,0 -69,27 -69,66zm32 0c0,-23 17,-39 37,-39 20,0 38,16 38,39 0,23 -17,39 -38,39 -20,0 -37,-16 -37,-39zm186 63l98 0c12,0 17,-5 17,-17l0 -22 -28 0 0 7c0,4 -2,5 -5,5l-28 0c-8,0 -12,1 -12,1l0 0c0,0 5,-5 11,-12l58 -71 0 -17 -92 0c-12,0 -17,5 -17,17l0 22 28 0 0 -7c0,-3 2,-5 5,-5l23 0c8,0 12,0 12,0l0 0c0,0 -5,4 -11,12l-58 71 0 17zm141 -17c0,12 5,17 17,17l30 0 0 -26 -10 0c-3,0 -5,-2 -5,-5l0 -57 18 -10 0 -31 -18 10 0 -39c0,-12 -5,-17 -17,-17l-30 0 0 27 10 0c3,0 5,2 5,5l0 42 -16 9 0 31 16 -9 0 54zm61 -46c0,39 31,66 69,66 39,0 69,-27 69,-66 0,-39 -31,-66 -69,-66 -38,0 -69,27 -69,66zm32 0c0,-23 17,-39 37,-39 20,0 38,16 38,39 0,23 -17,39 -38,39 -20,0 -37,-16 -37,-39zm135 17c0,42 35,47 52,47 6,0 10,-1 10,-1l0 -27c0,0 -2,1 -6,1 -9,0 -25,-3 -25,-24l0 -51 29 0 0 -25 -29 0 0 -34 -31 0 0 34 -17 0 0 25 16 0 0 55zm78 10c0,25 21,39 43,39 28,0 38,-22 38,-22l0 0c0,0 0,2 0,5 0,7 4,14 16,14l28 0 0 -26 -10 0c-3,0 -5,-2 -5,-5l0 -47c0,-28 -12,-50 -54,-50 -13,0 -46,2 -46,26l0 13 29 0 0 -7c0,-7 11,-8 17,-8 16,0 23,7 23,25l0 1 -4 0c-20,0 -75,3 -75,43zm32 -1c0,-18 26,-20 42,-20l5 0 0 3c0,15 -12,33 -29,33 -13,0 -19,-8 -19,-16zm139 38l36 0 21 -72c2,-7 3,-14 3,-14l1 0c0,0 1,7 3,14l21 72 35 0 30 -95c1,-4 3,-4 7,-4l3 0 0 -27 -21 0c-10,0 -15,3 -18,13l-18 70c-2,7 -2,13 -2,13l0 0c0,0 -1,-7 -3,-13l-23 -82 -28 0 -23 82c-2,7 -3,13 -3,13l-1 0c0,0 -1,-7 -2,-13l-19 -70c-2,-10 -7,-13 -18,-13l-21 0 0 27 3 0c4,0 6,1 7,4l30 95zm176 17l-12 22c0,0 12,13 32,13 19,0 37,-10 45,-33l45 -114c1,-4 3,-4 7,-4l4 0 0 -27 -21 0c-9,0 -14,3 -17,12l-21 63c-2,6 -4,17 -4,17l0 0c0,0 -2,-10 -4,-17l-25 -63c-3,-9 -8,-12 -17,-12l-21 0 0 27 4 0c3,0 5,1 7,4l42 95 -4 10c-4,11 -12,16 -21,16 -10,0 -18,-9 -18,-9zm145 -17l31 0 0 -55c0,-6 1,-11 2,-16 4,-16 15,-29 30,-29 15,0 17,12 17,25l0 75 31 0 0 -55c0,-6 0,-11 2,-16 3,-16 15,-29 30,-29 15,0 17,11 17,25l0 58c0,12 5,17 17,17l30 0 0 -26 -10 0c-3,0 -5,-2 -5,-5l0 -49c0,-33 -15,-48 -41,-48 -20,0 -36,12 -43,26l0 0c-5,-17 -18,-26 -37,-26 -20,0 -35,14 -41,26l0 0c0,0 0,-3 0,-5l0 -4c0,-9 -5,-14 -17,-14l-29 0 0 27 10 0c3,0 5,2 5,5l0 94zm286 -63c0,39 31,66 69,66 39,0 69,-27 69,-66 0,-39 -31,-66 -69,-66 -38,0 -69,27 -69,66zm32 0c0,-23 17,-39 37,-39 20,0 38,16 38,39 0,23 -17,39 -38,39 -20,0 -37,-16 -37,-39zm122 0c0,39 22,66 56,66 29,0 39,-20 39,-20l0 0c0,0 0,2 0,5 0,7 4,13 16,13l29 0 0 -26 -10 0c-3,0 -5,-2 -5,-5l0 -127c0,-12 -5,-17 -17,-17l-30 0 0 27 10 0c3,0 5,2 5,5l0 22c0,4 0,7 0,7l-1 0c0,0 -9,-15 -36,-15 -33,0 -57,26 -57,66zm63 40c-19,0 -31,-16 -31,-40 0,-25 14,-39 32,-39 21,0 31,19 31,39 0,28 -15,40 -32,40zm91 -40c0,37 27,66 68,66 34,0 53,-23 53,-23l-13 -22c0,0 -16,17 -37,17 -20,0 -39,-13 -39,-39 0,-23 16,-39 37,-39 8,0 18,3 18,10l0 7 28 0 0 -15c0,-22 -29,-28 -46,-28 -43,0 -69,30 -69,66zm148 -83l27 0 0 -29 -27 0 0 29zm-1 130c0,12 5,17 17,17l30 0 0 -26 -10 0c-3,0 -5,-2 -5,-5l0 -77c0,-12 -5,-17 -17,-17l-30 0 0 27 10 0c3,0 5,2 5,5l0 77zm60 -46c0,36 26,66 68,66 31,0 51,-19 51,-19l-13 -22c0,0 -15,14 -35,14 -19,0 -35,-12 -38,-34l87 0c0,0 1,-8 1,-12 0,-33 -20,-60 -56,-60 -38,0 -64,27 -64,66zm33 -16c3,-16 15,-25 31,-25 13,0 23,10 24,25l-55 0zm117 79l31 0 0 -58c0,-6 1,-12 2,-17 4,-15 17,-26 34,-26 16,0 20,10 20,26l0 58c0,12 5,17 17,17l30 0 0 -26 -10 0c-3,0 -5,-2 -5,-5l0 -49c0,-33 -16,-48 -44,-48 -25,0 -39,16 -44,26l0 0c0,0 0,-3 0,-5l0 -4c0,-9 -5,-14 -17,-14l-29 0 0 27 10 0c3,0 5,2 5,5l0 94zm161 -146l27 0 0 -29 -27 0 0 29zm-1 130c0,12 5,17 17,17l30 0 0 -26 -10 0c-3,0 -5,-2 -5,-5l0 -77c0,-12 -5,-17 -17,-17l-30 0 0 27 10 0c3,0 5,2 5,5l0 77zm72 -28c0,34 17,48 43,48 22,0 38,-13 43,-26l0 0c0,0 0,3 0,6l0 3c0,9 6,14 17,14l29 0 0 -26 -10 0c-3,0 -5,-2 -5,-5l0 -94 -31 0 0 58c0,22 -13,42 -35,42 -16,0 -20,-10 -20,-26l0 -58c0,-11 -5,-17 -17,-17l-30 0 0 27 10 0c3,0 5,2 5,5l0 49z"/>
  <path class="fil2" d="M11460 5086l31 0 0 -52c0,-6 0,-11 0,-11l0 0c0,0 11,17 36,17 33,0 58,-26 58,-66 0,-39 -22,-66 -56,-66 -29,0 -40,20 -40,20l-1 0c0,0 0,-2 0,-5 0,-7 -4,-12 -16,-12l-28 0 0 27 10 0c3,0 5,2 5,5l0 143zm30 -112c0,-28 15,-40 32,-40 19,0 31,16 31,40 0,25 -15,39 -32,39 -21,0 -31,-19 -31,-39zm125 -84l27 0 0 -29 -27 0 0 29zm-1 130c0,12 5,17 17,17l30 0 0 -26 -10 0c-3,0 -5,-2 -5,-5l0 -77c0,-12 -5,-17 -17,-17l-30 0 0 27 10 0c3,0 5,2 5,5l0 77zm94 17l36 0 21 -72c2,-7 3,-14 3,-14l1 0c0,0 1,7 3,14l21 72 35 0 30 -95c1,-4 3,-4 7,-4l3 0 0 -27 -21 0c-10,0 -15,3 -18,13l-18 70c-2,7 -2,13 -2,13l0 0c0,0 -1,-7 -3,-13l-23 -82 -28 0 -23 82c-2,7 -3,13 -3,13l-1 0c0,0 -1,-7 -2,-13l-19 -70c-2,-10 -7,-13 -18,-13l-21 0 0 27 3 0c4,0 6,1 7,4l30 95zm184 0l31 0 0 -58c0,-6 1,-12 2,-17 4,-15 17,-26 34,-26 16,0 20,10 20,26l0 58c0,12 5,17 17,17l30 0 0 -26 -10 0c-3,0 -5,-2 -5,-5l0 -49c0,-33 -16,-48 -44,-48 -25,0 -39,16 -44,26l0 0c0,0 0,-3 0,-5l0 -4c0,-9 -5,-14 -17,-14l-29 0 0 27 10 0c3,0 5,2 5,5l0 94zm146 -63c0,36 26,66 68,66 31,0 51,-19 51,-19l-13 -22c0,0 -15,14 -35,14 -19,0 -35,-12 -38,-34l87 0c0,0 1,-8 1,-12 0,-33 -20,-60 -56,-60 -38,0 -64,27 -64,66zm33 -16c3,-16 15,-25 31,-25 13,0 23,10 24,25l-55 0zm-1376 359c0,12 5,17 17,17l30 0 0 -26 -10 0c-3,0 -5,-2 -5,-5l0 -127c0,-12 -5,-17 -17,-17l-30 0 0 27 10 0c3,0 5,2 5,5l0 126zm72 -28c0,34 17,48 43,48 22,0 38,-13 43,-26l0 0c0,0 0,3 0,6l0 3c0,9 6,14 17,14l29 0 0 -26 -10 0c-3,0 -5,-2 -5,-5l0 -94 -31 0 0 58c0,22 -13,42 -35,42 -16,0 -20,-10 -20,-26l0 -58c0,-11 -5,-17 -17,-17l-30 0 0 27 10 0c3,0 5,2 5,5l0 49zm157 45l30 0 0 -6c0,-5 0,-8 0,-8l0 0c0,0 11,18 38,18 33,0 58,-26 58,-66 0,-39 -22,-66 -56,-66 -27,0 -38,18 -38,18l0 0c0,0 0,-4 0,-11l0 -37c0,-12 -5,-17 -17,-17l-30 0 0 27 10 0c3,0 5,2 5,5l0 143zm30 -62c0,-28 15,-40 32,-40 19,0 31,16 31,40 0,25 -15,39 -32,39 -21,0 -31,-19 -31,-39zm189 62l31 0 0 -58c0,-6 1,-12 2,-17 4,-15 17,-26 34,-26 16,0 20,10 20,26l0 58c0,12 5,17 17,17l30 0 0 -26 -10 0c-3,0 -5,-2 -5,-5l0 -49c0,-33 -16,-48 -44,-48 -25,0 -39,16 -44,26l0 0c0,0 0,-3 0,-5l0 -4c0,-9 -5,-14 -17,-14l-29 0 0 27 10 0c3,0 5,2 5,5l0 94zm161 -146l27 0 0 -29 -27 0 0 29zm-1 130c0,12 5,17 17,17l30 0 0 -26 -10 0c-3,0 -5,-2 -5,-5l0 -77c0,-12 -5,-17 -17,-17l-30 0 0 27 10 0c3,0 5,2 5,5l0 77zm60 -46c0,36 26,66 68,66 31,0 51,-19 51,-19l-13 -22c0,0 -15,14 -35,14 -19,0 -35,-12 -38,-34l87 0c0,0 1,-8 1,-12 0,-33 -20,-60 -56,-60 -38,0 -64,27 -64,66zm33 -16c3,-16 15,-25 31,-25 13,0 23,10 24,25l-55 0zm116 79l30 0 0 -6c0,-5 0,-8 0,-8l0 0c0,0 11,18 38,18 33,0 58,-26 58,-66 0,-39 -22,-66 -56,-66 -27,0 -38,18 -38,18l0 0c0,0 0,-4 0,-11l0 -37c0,-12 -5,-17 -17,-17l-30 0 0 27 10 0c3,0 5,2 5,5l0 143zm30 -62c0,-28 15,-40 32,-40 19,0 31,16 31,40 0,25 -15,39 -32,39 -21,0 -31,-19 -31,-39zm126 -84l27 0 0 -29 -27 0 0 29zm-1 130c0,12 5,17 17,17l30 0 0 -26 -10 0c-3,0 -5,-2 -5,-5l0 -77c0,-12 -5,-17 -17,-17l-30 0 0 27 10 0c3,0 5,2 5,5l0 77zm60 -46c0,36 26,66 68,66 31,0 51,-19 51,-19l-13 -22c0,0 -15,14 -35,14 -19,0 -35,-12 -38,-34l87 0c0,0 1,-8 1,-12 0,-33 -20,-60 -56,-60 -38,0 -64,27 -64,66zm33 -16c3,-16 15,-25 31,-25 13,0 23,10 24,25l-55 0zm103 60c0,0 18,22 52,22 27,0 48,-15 48,-39 0,-42 -67,-38 -67,-58 0,-7 8,-11 19,-11 7,0 16,3 16,9l0 6 28 0 0 -13c0,-20 -27,-26 -44,-26 -26,0 -49,12 -49,37 0,41 66,41 66,58 0,8 -7,12 -17,12 -21,0 -38,-19 -38,-19l-15 20zm129 20l31 0 0 -55 7 0c4,0 9,0 12,5l21 40c5,9 9,11 20,11l23 0 0 -26 -8 0c-6,0 -8,-1 -10,-5l-14 -27c-4,-8 -9,-10 -9,-10l0 0c0,0 4,-2 9,-10l32 -47 -35 0 -26 40c-3,4 -8,5 -12,5l-9 0 0 -80c0,-12 -5,-14 -17,-14l-30 0 0 27 10 0c3,0 5,2 5,5l0 143zm140 -146l27 0 0 -29 -27 0 0 29zm-1 130c0,12 5,17 17,17l30 0 0 -26 -10 0c-3,0 -5,-2 -5,-5l0 -77c0,-12 -5,-17 -17,-17l-30 0 0 27 10 0c3,0 5,2 5,5l0 77zm60 -46c0,36 26,66 68,66 31,0 51,-19 51,-19l-13 -22c0,0 -15,14 -35,14 -19,0 -35,-12 -38,-34l87 0c0,0 1,-8 1,-12 0,-33 -20,-60 -56,-60 -38,0 -64,27 -64,66zm33 -16c3,-16 15,-25 31,-25 13,0 23,10 24,25l-55 0zm170 16c0,39 31,66 69,66 39,0 69,-27 69,-66 0,-39 -31,-66 -69,-66 -38,0 -69,27 -69,66zm32 0c0,-23 17,-39 37,-39 20,0 38,16 38,39 0,23 -17,39 -38,39 -20,0 -37,-16 -37,-39zm122 0c0,37 27,66 68,66 34,0 53,-23 53,-23l-13 -22c0,0 -16,17 -37,17 -20,0 -39,-13 -39,-39 0,-23 16,-39 37,-39 8,0 18,3 18,10l0 7 28 0 0 -15c0,-22 -29,-28 -46,-28 -43,0 -69,30 -69,66zm132 63l98 0c12,0 17,-5 17,-17l0 -22 -28 0 0 7c0,4 -2,5 -5,5l-28 0c-8,0 -12,1 -12,1l0 0c0,0 5,-5 11,-12l58 -71 0 -17 -92 0c-12,0 -17,5 -17,17l0 22 28 0 0 -7c0,-3 2,-5 5,-5l23 0c8,0 12,0 12,0l0 0c0,0 -5,4 -11,12l-58 71 0 17zm128 17l-12 22c0,0 12,13 32,13 19,0 37,-10 45,-33l45 -114c1,-4 3,-4 7,-4l4 0 0 -27 -21 0c-9,0 -14,3 -17,12l-21 63c-2,6 -4,17 -4,17l0 0c0,0 -2,-10 -4,-17l-25 -63c-3,-9 -8,-12 -17,-12l-21 0 0 27 4 0c3,0 5,1 7,4l42 95 -4 10c-4,11 -12,16 -21,16 -10,0 -18,-9 -18,-9z"/>
  <path class="fil3" d="M10279 5029c40,9 118,34 173,31 55,-3 88,-34 68,-54 -20,-20 -92,-29 -145,-40 -52,-11 -84,-23 -100,-33 -15,-10 -14,-18 -11,-28 2,-10 5,-22 -10,-23 -15,-1 -49,8 -87,12 -38,5 -81,5 -88,20 -7,16 22,47 45,73 23,26 41,47 53,62 13,15 20,24 29,19 9,-4 18,-21 24,-32 6,-11 8,-17 48,-7z"/>
  <path class="fil2" d="M8204 7816l31 0 0 -55 7 0c4,0 9,0 12,5l21 40c5,9 9,11 20,11l23 0 0 -26 -8 0c-6,0 -8,-1 -10,-5l-14 -27c-4,-8 -9,-10 -9,-10l0 0c0,0 4,-2 9,-10l32 -47 -35 0 -26 40c-3,4 -8,5 -12,5l-9 0 0 -80c0,-12 -5,-14 -17,-14l-30 0 0 27 10 0c3,0 5,2 5,5l0 143zm138 0l31 0 0 -50c0,-7 1,-14 3,-21 6,-19 21,-26 34,-26 4,0 8,0 8,0l0 -31c0,0 -3,-1 -6,-1 -19,0 -34,14 -40,32l0 0c0,0 0,-3 0,-8l0 -7c0,-11 -6,-15 -17,-15l-29 0 0 27 10 0c3,0 5,2 5,5l0 94zm84 -63c0,36 26,66 68,66 31,0 51,-19 51,-19l-13 -22c0,0 -15,14 -35,14 -19,0 -35,-12 -38,-34l87 0c0,0 1,-8 1,-12 0,-33 -20,-60 -56,-60 -38,0 -64,27 -64,66zm33 -16c3,-16 15,-25 31,-25 13,0 23,10 24,25l-55 0zm117 79l31 0 0 -55c0,-6 1,-11 2,-16 4,-16 15,-29 30,-29 15,0 17,12 17,25l0 75 31 0 0 -55c0,-6 0,-11 2,-16 3,-16 15,-29 30,-29 15,0 17,11 17,25l0 58c0,12 5,17 17,17l30 0 0 -26 -10 0c-3,0 -5,-2 -5,-5l0 -49c0,-33 -15,-48 -41,-48 -20,0 -36,12 -43,26l0 0c-5,-17 -18,-26 -37,-26 -20,0 -35,14 -41,26l0 0c0,0 0,-3 0,-5l0 -4c0,-9 -5,-14 -17,-14l-29 0 0 27 10 0c3,0 5,2 5,5l0 94zm220 -63c0,39 31,66 69,66 39,0 69,-27 69,-66 0,-39 -31,-66 -69,-66 -38,0 -69,27 -69,66zm32 0c0,-23 17,-39 37,-39 20,0 38,16 38,39 0,23 -17,39 -38,39 -20,0 -37,-16 -37,-39zm155 63l36 0 21 -72c2,-7 3,-14 3,-14l1 0c0,0 1,7 3,14l21 72 35 0 30 -95c1,-4 3,-4 7,-4l3 0 0 -27 -21 0c-10,0 -15,3 -18,13l-18 70c-2,7 -2,13 -2,13l0 0c0,0 -1,-7 -3,-13l-23 -82 -28 0 -23 82c-2,7 -3,13 -3,13l-1 0c0,0 -1,-7 -2,-13l-19 -70c-2,-10 -7,-13 -18,-13l-21 0 0 27 3 0c4,0 6,1 7,4l30 95zm170 -36c0,25 21,39 43,39 28,0 38,-22 38,-22l0 0c0,0 0,2 0,5 0,7 4,14 16,14l28 0 0 -26 -10 0c-3,0 -5,-2 -5,-5l0 -47c0,-28 -12,-50 -54,-50 -13,0 -46,2 -46,26l0 13 29 0 0 -7c0,-7 11,-8 17,-8 16,0 23,7 23,25l0 1 -4 0c-20,0 -75,3 -75,43zm32 -1c0,-18 26,-20 42,-20l5 0 0 3c0,15 -12,33 -29,33 -13,0 -19,-8 -19,-16zm172 -25c0,37 27,66 68,66 34,0 53,-23 53,-23l-13 -22c0,0 -16,17 -37,17 -20,0 -39,-13 -39,-39 0,-23 16,-39 37,-39 8,0 18,3 18,10l0 7 28 0 0 -15c0,-22 -29,-28 -46,-28 -43,0 -69,30 -69,66zm133 0c0,36 26,66 68,66 31,0 51,-19 51,-19l-13 -22c0,0 -15,14 -35,14 -19,0 -35,-12 -38,-34l87 0c0,0 1,-8 1,-12 0,-33 -20,-60 -56,-60 -38,0 -64,27 -64,66zm33 -16c3,-16 15,-25 31,-25 13,0 23,10 24,25l-55 0zm117 79l31 0 0 -50c0,-7 1,-14 3,-21 6,-19 21,-26 34,-26 4,0 8,0 8,0l0 -31c0,0 -3,-1 -6,-1 -19,0 -34,14 -40,32l0 0c0,0 0,-3 0,-8l0 -7c0,-11 -6,-15 -17,-15l-29 0 0 27 10 0c3,0 5,2 5,5l0 94zm82 -36c0,25 21,39 43,39 28,0 38,-22 38,-22l0 0c0,0 0,2 0,5 0,7 4,14 16,14l28 0 0 -26 -10 0c-3,0 -5,-2 -5,-5l0 -47c0,-28 -12,-50 -54,-50 -13,0 -46,2 -46,26l0 13 29 0 0 -7c0,-7 11,-8 17,-8 16,0 23,7 23,25l0 1 -4 0c-20,0 -75,3 -75,43zm32 -1c0,-18 26,-20 42,-20l5 0 0 3c0,15 -12,33 -29,33 -13,0 -19,-8 -19,-16z"/>
  <path class="fil3" d="M8230 7153c11,42 27,126 57,180 29,54 72,78 80,53 8,-25 -19,-100 -36,-155 -16,-55 -21,-90 -20,-108 1,-18 9,-19 19,-19 10,0 22,-1 16,-16 -6,-15 -30,-46 -53,-83 -23,-37 -44,-80 -61,-82 -17,-3 -30,34 -42,65 -11,30 -21,53 -28,69 -7,17 -11,27 -3,34 8,8 27,12 40,15 13,3 19,4 30,46z"/>
  <g id="_1552272776336">
   <path class="fil4" d="M9247 5592c-75,221 -202,450 -400,647 -198,196 -467,359 -635,433 -168,74 -233,58 -404,-31 -171,-89 -447,-252 -648,-525 -201,-273 -328,-655 -382,-1007 -54,-352 -35,-673 26,-938 61,-265 163,-474 324,-627 162,-153 382,-250 633,-284 250,-34 530,-6 812,67 282,73 565,191 698,469 133,277 116,714 95,1038 -21,325 -44,537 -119,758z"/>
   <path class="fil5" d="M8356 4566c69,-10 197,-25 290,-34 93,-9 151,-10 199,4 48,15 86,45 99,50 13,5 0,-17 -36,-47 -36,-31 -96,-71 -146,-92 -50,-21 -91,-24 -163,-26 -72,-3 -174,-6 -244,2 -70,8 -106,25 -124,47 -18,21 -16,46 -8,65 9,19 25,33 38,39 14,5 25,2 94,-8z"/>
   <path class="fil6" d="M8352 3622c51,50 111,108 152,163 41,55 64,107 78,145 14,39 18,64 12,65 -6,1 -22,-21 -61,-59 -39,-38 -102,-91 -166,-122 -64,-31 -130,-41 -194,-42 -64,0 -125,9 -182,23 -312,77 -715,526 -895,758 -223,289 -251,523 -231,722 6,59 16,114 28,167 -6,-10 -12,-20 -18,-30 -168,-277 -342,-689 -375,-927 -34,-238 73,-300 247,-404 174,-104 416,-248 658,-325 225,-72 450,-85 594,-114 25,-17 50,-35 71,-51 40,-31 68,-57 90,-73 21,-16 43,-34 65,-26 49,18 95,99 127,130z"/>
   <path class="fil7" d="M8156 4989c0,85 -9,219 4,298 13,79 49,103 78,154 29,50 51,127 36,171 -15,44 -67,55 -96,73 -29,18 -35,44 -60,56 -25,12 -69,10 -89,-4 -19,-14 -14,-40 -36,-57 -22,-17 -73,-24 -99,-53 -26,-29 -27,-79 -6,-128 21,-50 64,-99 79,-179 16,-79 4,-189 5,-276 1,-87 15,-153 44,-185 29,-32 74,-30 101,-11 27,19 37,55 37,141z"/>
   <path class="fil8" d="M8239 5962c-38,-11 -66,-24 -89,-26 -23,-2 -43,8 -57,15 -6,3 -11,6 -16,8 -4,-2 -8,-4 -12,-6 -15,-7 -34,-17 -57,-15 -23,2 -51,14 -89,26 -51,15 -120,36 -171,48 -15,3 -34,3 -40,9 -5,6 4,18 21,24 89,34 -27,172 342,168 351,-4 277,-139 358,-170 16,-6 26,-18 21,-24 -5,-6 -25,-6 -40,-9 -49,-11 -124,-34 -171,-48zm-200 89c46,7 37,6 91,1 -20,14 -36,33 -50,33 0,0 -86,-41 -41,-34z"/>
   <g>
    <path class="fil9" d="M7669 5187c-8,12 -33,36 -71,52 -39,17 -92,28 -144,25 -52,-2 -103,-18 -140,-41 -38,-23 -62,-54 -77,-87 -15,-34 -21,-71 -12,-74 9,-4 33,26 65,52 32,26 73,48 111,61 38,14 73,19 105,21 32,3 61,3 86,-1 25,-4 48,-13 62,-17 15,-4 22,-3 14,10z"/>
    <path class="fil9" d="M7772 4941c-11,-30 -30,-60 -54,-84 -24,-23 -54,-40 -95,-52 -41,-12 -94,-18 -136,-15 -42,3 -73,14 -104,29 -31,15 -61,32 -84,51 -23,19 -40,40 -52,57 -12,16 -21,28 -26,34 -5,6 -8,6 -10,-3 -3,-9 -5,-28 11,-59 16,-30 51,-73 80,-104 29,-31 52,-51 99,-63 48,-12 121,-16 183,-7 62,9 113,31 149,50 35,19 55,34 70,68 15,34 25,88 25,122 0,34 -10,49 -18,57 -8,8 -14,10 -18,-5 -4,-15 -7,-46 -18,-76z"/>
    <path class="fil0" d="M7788 5034c1,-27 1,-60 -12,-95 -13,-34 -40,-70 -89,-97 -48,-27 -118,-46 -180,-46 -62,0 -117,20 -162,58 -46,37 -82,92 -103,120 -21,28 -25,28 -11,50 14,22 48,66 86,97 38,31 79,50 123,63 44,13 92,20 139,14 47,-6 95,-25 129,-43 34,-18 54,-36 65,-55 11,-19 13,-40 14,-67z"/>
    <path class="fil10" d="M7789 5014c1,-8 4,-41 -11,-79 -15,-38 -46,-81 -79,-107 -33,-26 -67,-36 -105,-42 -37,-6 -78,-8 -106,-6 -28,2 -44,7 -62,12 -18,6 -39,11 -55,13 -16,2 -26,-1 -40,-7 -15,-7 -35,-18 -44,-31 -9,-13 -9,-29 -10,-29 -2,0 -6,15 -1,31 4,16 17,33 28,43 10,10 18,13 21,16 4,3 3,7 -3,11 -6,4 -18,8 -34,9 -16,1 -38,0 -55,-7 -17,-6 -30,-18 -36,-23 -6,-6 -6,-6 -2,0 4,6 13,18 28,28 15,11 37,20 49,24 13,5 17,4 17,7 0,3 -4,8 -8,13 -5,5 -10,10 -21,12 -12,2 -30,2 -47,-3 -17,-5 -33,-15 -43,-22 -9,-7 -12,-12 -11,-9 1,3 6,15 20,27 14,12 37,23 50,29 13,6 16,6 16,7 0,2 -3,6 -9,9 -6,4 -15,7 -29,6 -14,0 -34,-4 -48,-12 -14,-7 -22,-18 -27,-24 -4,-5 -4,-5 -1,1 4,6 11,19 20,31 9,12 20,23 33,33 13,10 27,19 35,22 8,3 8,0 16,-12 8,-12 23,-33 41,-55 18,-22 38,-45 61,-63 23,-18 50,-30 74,-40 24,-10 44,-16 65,-20 21,-4 42,-5 68,-2 26,3 58,9 85,18 27,9 49,20 68,35 19,15 33,34 45,50 12,17 20,31 27,43 7,12 14,22 17,36 3,14 4,32 5,24z"/>
    <ellipse class="fil11" transform="matrix(0.264354 0.0680513 -0.0680513 0.264354 7512.7 5004.76)" rx="607" ry="574"/>
    <path class="fil10" d="M7754 5125c-31,17 -62,35 -91,47 -29,12 -56,19 -92,20 -37,1 -83,-3 -122,-13 -40,-10 -72,-24 -100,-43 -28,-18 -52,-40 -68,-57 -16,-18 -25,-31 -32,-40 -7,-9 -11,-12 -20,-13 -9,-1 -22,1 -34,8 -12,7 -23,19 -34,31 19,-6 39,-12 52,-12 13,0 21,7 17,15 -3,8 -17,19 -25,27 -8,8 -11,13 -13,18 17,-11 34,-23 51,-21 17,2 34,16 39,25 5,9 -2,11 -11,17 -9,6 -19,16 -29,26 19,-8 39,-17 58,-16 19,1 38,11 52,19 14,8 24,12 25,19 0,6 -9,14 -16,23 -8,9 -14,19 -20,30 26,-13 52,-26 80,-29 28,-3 58,6 96,8 38,3 83,0 124,-16 41,-16 77,-44 113,-73z"/>
    <ellipse class="fil12" transform="matrix(0.109505 0.0281892 -0.0281892 0.109505 7510.84 5003)" rx="607" ry="574"/>
    <path class="fil13" d="M7486 4887c37,9 59,45 50,80 -9,35 -46,55 -83,46 -37,-9 -59,-45 -50,-80 9,-35 46,-55 83,-46z"/>
   </g>
   <path class="fil5" d="M7751 4573c-69,-10 -197,-25 -290,-34 -93,-9 -151,-10 -199,4 -48,15 -86,45 -99,50 -13,5 0,-17 36,-47 36,-31 96,-71 146,-92 50,-21 91,-24 163,-26 72,-3 174,-6 244,2 70,8 106,25 124,47 18,21 16,46 8,65 -9,19 -25,33 -38,39 -14,5 -25,2 -94,-8z"/>
   <g>
    <path class="fil9" d="M8452 5177c9,12 34,35 73,51 39,16 92,25 144,22 52,-4 102,-20 139,-44 37,-24 61,-55 75,-89 14,-34 19,-71 10,-75 -9,-3 -32,27 -64,53 -32,26 -72,49 -110,64 -38,14 -73,20 -105,24 -32,3 -61,4 -86,1 -26,-4 -48,-12 -63,-16 -15,-4 -22,-2 -14,10z"/>
    <path class="fil9" d="M8354 4933c10,-31 29,-61 52,-85 24,-24 53,-41 94,-54 41,-13 94,-20 136,-18 42,2 74,13 104,27 31,14 61,31 85,49 24,19 40,39 53,56 13,16 22,28 27,33 6,6 8,6 10,-3 2,-9 5,-28 -12,-58 -17,-30 -53,-71 -82,-102 -30,-30 -53,-50 -101,-61 -48,-11 -121,-14 -183,-3 -62,10 -112,34 -147,53 -35,20 -54,35 -68,70 -14,35 -23,88 -22,122 1,34 12,49 20,56 8,8 14,9 18,-6 4,-15 6,-46 16,-77z"/>
    <path class="fil0" d="M8340 5026c-2,-27 -3,-60 10,-95 13,-35 39,-71 86,-99 48,-28 116,-49 178,-50 62,-1 117,17 164,54 46,36 84,90 105,118 21,27 26,28 12,50 -14,22 -47,67 -83,99 -37,32 -78,52 -122,66 -44,14 -91,22 -139,17 -48,-5 -95,-22 -130,-40 -34,-17 -55,-34 -67,-53 -11,-19 -14,-39 -15,-66z"/>
    <path class="fil10" d="M8339 5007c-1,-8 -4,-41 9,-79 14,-38 44,-82 77,-109 32,-27 67,-38 104,-44 37,-7 78,-10 106,-9 28,1 44,6 62,11 18,5 40,10 55,12 16,1 25,-1 40,-8 15,-7 34,-19 43,-32 9,-14 8,-29 10,-29 2,0 6,14 2,31 -4,16 -17,34 -27,44 -10,10 -18,13 -21,17 -3,3 -3,7 3,10 6,4 18,7 34,8 16,1 38,-1 55,-8 17,-7 29,-18 35,-24 6,-6 6,-6 2,0 -4,6 -12,18 -27,29 -15,11 -36,21 -49,26 -13,5 -17,5 -17,7 0,3 4,8 9,13 5,5 10,9 22,11 12,2 30,2 47,-4 17,-5 33,-16 42,-23 9,-8 12,-12 11,-9 -1,3 -6,15 -20,27 -14,12 -36,24 -49,30 -13,6 -16,6 -15,8 0,2 3,6 10,9 6,3 15,7 29,6 14,-1 34,-5 47,-13 14,-8 22,-19 26,-24 4,-6 4,-6 1,1 -4,6 -10,19 -19,32 -9,12 -20,24 -32,34 -13,10 -27,20 -34,23 -7,3 -8,0 -16,-11 -8,-12 -24,-32 -42,-54 -18,-22 -39,-44 -63,-61 -24,-17 -51,-29 -74,-38 -24,-9 -45,-15 -66,-19 -21,-3 -42,-4 -68,-1 -26,3 -58,10 -85,20 -27,9 -49,21 -67,37 -18,15 -32,35 -44,51 -11,17 -19,32 -26,44 -7,12 -13,22 -16,36 -3,14 -3,32 -4,24z"/>
    <ellipse class="fil11" transform="matrix(-0.262681 0.0742499 0.0742499 0.262681 8614.49 4990.56)" rx="607" ry="574"/>
    <path class="fil10" d="M8377 5117c31,17 63,33 92,45 29,11 56,18 93,18 37,0 83,-5 122,-16 39,-11 72,-26 99,-45 28,-19 51,-41 67,-59 16,-18 24,-32 31,-41 6,-9 11,-12 19,-13 9,-1 22,1 34,7 12,7 23,18 34,30 -19,-6 -39,-12 -52,-11 -13,0 -20,7 -17,16 3,8 18,18 26,26 8,8 11,13 14,18 -17,-11 -35,-22 -52,-20 -17,2 -34,17 -39,26 -5,9 3,11 12,17 9,6 19,16 30,25 -19,-8 -39,-16 -58,-14 -19,1 -37,12 -52,20 -14,8 -24,13 -24,19 0,6 9,14 17,23 8,9 14,19 20,29 -26,-13 -53,-25 -81,-27 -28,-2 -58,7 -96,11 -38,4 -83,2 -124,-13 -41,-15 -78,-43 -115,-71z"/>
    <ellipse class="fil12" transform="matrix(-0.108812 0.0307569 0.0307569 0.108812 8616.32 4988.76)" rx="607" ry="574"/>
    <path class="fil13" d="M8522 4905c-36,10 -58,47 -48,81 10,34 47,54 84,44 36,-10 58,-47 48,-81 -10,-34 -47,-54 -84,-44z"/>
   </g>
   <path class="fil14" d="M7468 6427c-107,-83 -215,-185 -308,-310 -119,-161 -212,-360 -279,-569 20,-20 56,-26 112,0 87,42 222,162 298,274 76,112 93,216 112,310 19,94 41,178 55,241 4,20 8,38 10,53z"/>
   <path class="fil14" d="M9277 5521c-21,-7 -50,-4 -89,15 -87,42 -222,162 -298,274 -15,22 -253,603 -255,610 74,-55 147,-116 212,-181 198,-196 324,-426 428,-713l2 -6z"/>
   <path class="fil15" d="M8030 3635c-141,35 -383,44 -625,121 -242,77 -484,221 -621,388 -137,167 -170,356 -136,594 34,238 133,524 264,737 130,214 292,355 347,514 56,160 7,338 -81,507 -87,169 -213,329 -337,417 -124,88 -247,104 -281,85 -35,-19 19,-72 24,-152 5,-80 -39,-187 -79,-273 -39,-86 -74,-152 -97,-217 -24,-64 -36,-127 -22,-201 14,-74 55,-159 69,-269 14,-110 2,-245 -36,-388 -38,-143 -100,-293 -162,-425 -61,-132 -121,-245 -130,-437 -9,-192 31,-462 127,-683 96,-221 247,-394 444,-564 198,-170 443,-336 622,-433 179,-97 292,-126 410,-140 118,-14 240,-14 336,38 163,88 131,67 189,20 73,-59 114,-100 170,-114 57,-14 116,-14 286,42 170,57 449,170 645,347 196,177 309,419 396,710 86,290 146,630 159,961 13,331 -22,655 -71,923 -49,269 -111,482 -163,666 -52,184 -64,361 -193,493 -499,511 -365,-18 -1027,-28 -116,-2 103,-171 216,-280 113,-108 270,-278 393,-452 122,-174 210,-353 249,-508 38,-155 28,-286 -10,-429 -38,-143 -102,-298 -183,-381 -81,-83 -179,-94 -263,-162 -85,-67 -156,-190 -190,-325 -34,-134 -32,-279 -103,-415 -71,-136 -217,-263 -313,-386 -10,-13 -20,-26 -30,-40 -29,65 -78,109 -193,138z"/>
   <path class="fil6" d="M9086 4853c11,86 38,242 11,443 -28,201 -110,445 -215,692 -105,247 -232,497 -313,645 -32,59 -57,101 -77,135 48,-53 104,-98 181,-172 113,-108 270,-278 393,-452 122,-174 210,-353 249,-508 38,-155 28,-286 -10,-429 -38,-143 -102,-298 -183,-381 -14,-14 -28,-26 -42,-36 0,15 3,36 6,65z"/>
   <path class="fil16" d="M8384 3026c-10,-7 23,-54 90,-84 67,-30 167,-42 288,-6 121,37 262,123 379,225 117,101 210,217 280,318 71,101 119,185 77,157 -42,-28 -176,-170 -268,-267 -92,-97 -142,-150 -216,-208 -74,-59 -171,-124 -261,-158 -90,-34 -172,-36 -240,-20 -68,16 -120,49 -130,43z"/>
   <path class="fil16" d="M8471 3545c46,79 182,269 239,404 57,134 33,213 34,291 1,78 25,156 98,236 73,80 194,162 276,214 82,51 124,72 157,118 33,46 56,117 68,153 12,36 12,36 6,-22 -5,-58 -16,-173 -69,-273 -53,-100 -147,-185 -219,-237 -72,-53 -122,-73 -152,-135 -29,-62 -37,-166 -60,-252 -24,-86 -63,-155 -121,-238 -58,-82 -135,-178 -196,-242 -61,-64 -107,-95 -61,-16z"/>
   <path class="fil16" d="M6582 6797c-2,-16 -6,-32 -10,-49 5,-3 10,-7 15,-11 227,-188 199,-500 136,-747 -19,-76 -51,-185 -65,-236 -14,-51 -10,-43 -11,-37 -1,6 -7,11 -5,48 2,37 13,107 7,201 -7,94 -32,213 -76,278 -44,65 -108,77 -157,93 -4,1 -8,3 -11,4 -9,-27 -16,-53 -20,-81 7,-8 16,-16 25,-25 49,-47 123,-115 153,-217 31,-102 18,-239 -1,-424 -19,-185 -44,-419 -42,-486 2,-67 32,34 64,143 31,109 64,227 97,323 32,96 64,170 108,258 44,89 101,192 134,304 34,111 45,231 -15,350 -60,120 -191,239 -277,289 -17,10 -33,17 -47,22z"/>
   <path class="fil16" d="M8029 3531c-2,13 -94,56 -211,78 -117,22 -260,23 -378,35 -118,12 -210,35 -293,68 -82,33 -155,77 -191,99 -36,22 -36,22 -7,-17 29,-39 86,-116 177,-173 91,-57 215,-92 342,-100 127,-8 258,12 367,13 109,1 197,-16 195,-3z"/>
   <path class="fil16" d="M8145 3072c-17,-34 -64,-87 -104,-121 -40,-34 -73,-48 -136,-48 -63,0 -157,15 -235,33 -79,18 -142,38 -188,68 -46,29 -74,68 -65,73 9,5 57,-24 144,-42 87,-17 214,-23 297,-13 82,10 120,35 143,58 22,23 29,43 -9,53 -39,10 -124,10 -188,15 -65,5 -110,15 -153,37 -44,21 -86,53 -62,60 24,7 114,-12 196,-16 82,-4 155,6 197,21 42,15 54,33 75,46 21,13 52,20 77,22 25,2 44,-1 38,-10 -6,-9 -35,-24 -51,-46 -16,-22 -18,-50 -10,-58 9,-8 28,5 35,-4 6,-8 -1,-37 2,-59 3,-22 16,-36 0,-69z"/>
   <path class="fil17" d="M7526 3852c-41,5 -194,96 -323,166 -128,70 -232,119 -302,191 -70,72 -107,166 -123,245 -16,79 -11,142 -4,140 7,-2 17,-70 53,-134 36,-64 99,-124 168,-179 69,-55 144,-104 217,-150 73,-45 144,-86 214,-146 71,-60 141,-139 100,-134z"/>
   <path class="fil16" d="M9033 7085c-59,-37 -124,-92 -221,-137 8,-6 17,-13 26,-19 85,-62 202,-141 306,-252 104,-111 194,-256 264,-404 70,-148 119,-301 144,-377 25,-76 25,-76 16,-5 -9,71 -27,212 -60,333 -33,121 -80,220 -124,322 -45,101 -87,204 -157,311 -53,81 -121,165 -193,230z"/>
   <path class="fil6" d="M8613 3369c72,50 243,157 358,259 115,102 175,197 253,337 78,140 174,323 247,484 74,160 126,297 143,315 17,18 0,-82 -27,-203 -27,-121 -63,-262 -110,-388 -47,-126 -105,-236 -177,-339 -72,-103 -157,-199 -277,-282 -120,-82 -273,-151 -364,-188 -91,-38 -118,-45 -47,5z"/>
   <ellipse class="fil18" cx="8715" cy="5512" rx="17" ry="16"/>
   <ellipse class="fil18" cx="8828" cy="5422" rx="17" ry="16"/>
   <ellipse class="fil18" cx="8846" cy="5559" rx="17" ry="16"/>
   <ellipse class="fil18" cx="8561" cy="5462" rx="17" ry="16"/>
   <ellipse class="fil18" cx="8572" cy="5592" rx="17" ry="16"/>
   <ellipse class="fil18" cx="7523" cy="5504" rx="17" ry="16"/>
   <ellipse class="fil18" cx="7410" cy="5414" rx="17" ry="16"/>
   <ellipse class="fil18" cx="7392" cy="5551" rx="17" ry="16"/>
   <ellipse class="fil18" cx="7678" cy="5454" rx="17" ry="16"/>
   <ellipse class="fil18" cx="7667" cy="5584" rx="17" ry="16"/>
  </g>
 </g>
</svg>
