<?xml version="1.0" encoding="UTF-8"?>
<!DOCTYPE svg PUBLIC "-//W3C//DTD SVG 1.1//EN" "http://www.w3.org/Graphics/SVG/1.1/DTD/svg11.dtd">
<!-- Creator: CorelDRAW 2017 -->
<svg xmlns="http://www.w3.org/2000/svg" xml:space="preserve" width="297mm" height="210mm" version="1.1" style="shape-rendering:geometricPrecision; text-rendering:geometricPrecision; image-rendering:optimizeQuality; fill-rule:evenodd; clip-rule:evenodd"
viewBox="0 0 29700 21000"
 xmlns:xlink="http://www.w3.org/1999/xlink">
 <defs>
  <style type="text/css">
   <![CDATA[
    .fil6 {fill:#FEFEFE}
    .fil7 {fill:#2B2A29}
    .fil3 {fill:#DFAB9E}
    .fil16 {fill:#CD877A}
    .fil8 {fill:#5C3B1B}
    .fil9 {fill:#2C261A}
    .fil15 {fill:#28170F}
    .fil2 {fill:#3B2821}
    .fil1 {fill:#48362C}
    .fil12 {fill:#A2745A}
    .fil13 {fill:#CDB3A2}
    .fil14 {fill:#CDB3A2}
    .fil4 {fill:#D2665A}
    .fil0 {fill:#F0D0C3}
    .fil10 {fill:#FEFEFE;fill-opacity:0.501961}
    .fil11 {fill:#CD877A;fill-opacity:0.501961}
    .fil5 {fill:#C4886E;fill-opacity:0.501961}
   ]]>
  </style>
 </defs>
 <g id="Warstwa_x0020_1">
  <metadata id="CorelCorpID_0Corel-Layer"/>
  <path class="fil0" d="M19967 13251c-327,963 -879,1962 -1741,2818 -862,855 -2035,1566 -2765,1888 -730,322 -1017,254 -1762,-134 -745,-389 -1947,-1099 -2824,-2287 -877,-1188 -1428,-2854 -1663,-4387 -235,-1533 -152,-2932 111,-4087 264,-1155 710,-2066 1413,-2732 704,-666 1665,-1088 2756,-1238 1091,-150 2310,-28 3538,291 1227,319 2462,834 3041,2043 580,1209 504,3110 415,4524 -89,1414 -193,2340 -520,3302z"/>
  <path class="fil1" d="M16086 8779c303,-42 858,-110 1263,-148 405,-38 658,-44 868,19 210,63 375,197 430,217 55,20 0,-73 -157,-206 -157,-133 -417,-308 -636,-400 -219,-92 -397,-102 -709,-114 -313,-12 -760,-25 -1063,8 -303,33 -463,111 -540,204 -77,93 -71,200 -33,284 38,84 107,145 167,168 59,23 109,9 411,-33z"/>
  <path class="fil2" d="M16071 4667c222,218 482,469 662,708 180,239 279,464 338,632 59,168 78,278 53,284 -26,6 -96,-92 -267,-257 -171,-165 -443,-395 -723,-532 -280,-137 -567,-180 -844,-181 -277,-2 -544,38 -793,99 -1359,336 -3117,2290 -3898,3302 -972,1259 -1095,2281 -1006,3146 26,256 71,498 122,728 -27,-43 -53,-86 -80,-130 -730,-1206 -1488,-3003 -1634,-4038 -146,-1035 319,-1309 1078,-1760 759,-452 1813,-1081 2866,-1416 979,-312 1959,-369 2586,-496 109,-75 217,-152 311,-223 174,-133 296,-246 393,-318 93,-68 189,-147 281,-113 214,77 414,429 555,567z"/>
  <path class="fil3" d="M15213 10622c1,371 -41,955 17,1299 58,345 215,451 342,670 127,220 222,553 157,744 -65,191 -291,240 -416,319 -126,80 -151,190 -261,242 -109,52 -303,45 -387,-16 -85,-61 -61,-176 -159,-249 -98,-73 -318,-105 -429,-230 -112,-125 -116,-343 -25,-559 91,-217 277,-433 345,-779 68,-346 17,-822 21,-1203 4,-381 64,-666 191,-804 127,-139 322,-131 441,-48 119,83 162,242 163,613z"/>
  <path class="fil4" d="M15578 14863c-168,-49 -287,-104 -389,-112 -102,-7 -185,33 -250,65 -26,13 -49,25 -69,34 -16,-8 -33,-16 -52,-26 -65,-32 -148,-73 -250,-65 -102,7 -221,62 -389,112 -224,66 -521,158 -743,209 -63,15 -150,15 -172,41 -23,26 18,78 90,106 386,148 -119,750 1490,732 1528,-17 1207,-605 1560,-741 72,-28 112,-80 90,-106 -23,-26 -109,-26 -172,-41 -214,-49 -538,-149 -743,-209zm-869 387c198,31 159,28 397,6 -87,61 -157,143 -217,143 -1,0 -373,-179 -180,-149z"/>
  <g id="_2067069940448">
   <path class="fil5" d="M13095 11485c-37,53 -143,155 -311,229 -169,74 -400,120 -626,109 -226,-11 -447,-78 -611,-179 -164,-100 -270,-233 -336,-380 -66,-147 -91,-308 -51,-324 39,-16 143,113 284,225 141,112 319,208 485,267 166,59 319,82 458,93 139,12 265,13 376,-6 111,-19 207,-58 271,-75 64,-17 97,-12 60,42z"/>
   <path class="fil5" d="M13540 10416c-48,-133 -130,-262 -236,-364 -106,-102 -235,-175 -415,-225 -180,-50 -410,-78 -593,-66 -183,12 -319,63 -452,126 -133,63 -264,140 -365,224 -101,84 -172,176 -226,247 -54,71 -91,122 -115,148 -24,26 -33,28 -45,-13 -11,-40 -24,-122 46,-255 70,-133 222,-316 348,-451 126,-135 224,-223 432,-276 208,-53 526,-71 796,-32 270,39 493,136 647,217 154,82 240,148 305,298 65,149 110,382 109,530 0,148 -45,212 -80,248 -35,35 -59,42 -77,-23 -18,-64 -31,-200 -79,-332z"/>
   <path class="fil6" d="M13613 10819c5,-117 6,-262 -52,-412 -58,-150 -176,-305 -386,-424 -210,-119 -512,-202 -783,-200 -270,2 -509,88 -708,251 -199,163 -357,402 -447,523 -90,121 -111,123 -48,220 63,96 210,287 374,423 164,136 344,218 537,274 193,56 399,86 606,60 207,-26 413,-107 561,-187 148,-79 236,-156 284,-239 48,-83 56,-173 61,-290z"/>
   <path class="fil7" d="M13616 10734c5,-33 15,-177 -49,-343 -64,-165 -202,-351 -345,-465 -144,-114 -294,-157 -457,-183 -163,-26 -340,-35 -462,-28 -122,7 -191,30 -271,54 -80,24 -172,49 -239,57 -68,8 -111,-2 -176,-32 -65,-30 -151,-79 -192,-137 -41,-58 -38,-125 -45,-126 -7,-1 -25,63 -6,133 19,70 76,145 120,189 45,44 78,57 93,71 15,14 13,30 -14,46 -27,16 -77,33 -149,38 -72,5 -165,-1 -239,-29 -74,-28 -129,-77 -157,-102 -28,-25 -28,-25 -9,1 18,26 55,77 121,123 65,46 159,86 215,106 56,20 74,19 74,31 0,12 -17,36 -36,58 -20,22 -43,42 -93,52 -51,10 -129,10 -203,-12 -74,-22 -144,-66 -185,-98 -41,-32 -53,-53 -48,-38 5,15 27,65 88,116 61,51 160,102 216,127 56,25 68,24 67,32 -1,8 -14,25 -41,40 -26,16 -65,30 -127,28 -62,-2 -147,-19 -207,-52 -61,-33 -97,-80 -116,-103 -18,-24 -18,-24 -2,4 16,28 48,83 88,136 40,52 88,101 144,145 56,44 118,83 151,96 33,13 36,1 71,-51 35,-52 100,-142 177,-238 77,-96 165,-196 267,-274 102,-78 218,-132 321,-174 103,-42 193,-72 284,-89 91,-17 183,-22 298,-11 115,11 253,39 370,77 117,38 214,88 295,153 81,65 145,147 195,220 50,73 87,136 119,189 32,53 60,95 74,155 14,60 15,139 21,106z"/>
   <ellipse class="fil8" transform="matrix(1.1517 0.296475 -0.296475 1.1517 12412.6 10691.9)" rx="607" ry="574"/>
   <path class="fil7" d="M13462 11217c-135,75 -269,151 -395,204 -126,53 -243,83 -402,88 -159,5 -361,-15 -534,-57 -172,-42 -315,-106 -438,-185 -123,-79 -226,-173 -297,-250 -71,-77 -109,-137 -138,-175 -29,-37 -48,-52 -86,-55 -38,-3 -94,6 -146,36 -52,30 -99,82 -146,133 84,-27 168,-54 226,-53 58,1 90,29 76,66 -14,37 -75,82 -111,116 -36,34 -47,57 -58,80 75,-50 149,-100 224,-93 75,7 149,71 171,108 21,37 -11,47 -49,74 -38,27 -82,70 -126,113 84,-37 168,-73 251,-69 83,4 165,50 227,83 63,33 106,54 108,81 2,28 -38,62 -71,101 -33,40 -60,84 -86,129 114,-57 227,-115 350,-126 123,-11 254,24 419,36 165,12 363,1 540,-68 178,-68 335,-194 492,-319z"/>
   <ellipse class="fil9" transform="matrix(0.477073 0.12281 -0.12281 0.477073 12404.5 10684.2)" rx="607" ry="574"/>
   <path class="fil10" d="M12294 10180c160,41 258,197 219,348 -39,151 -200,240 -360,199 -160,-41 -258,-197 -219,-348 39,-151 200,-240 360,-199z"/>
  </g>
  <path class="fil1" d="M13450 8812c-303,-42 -858,-110 -1263,-148 -405,-38 -658,-44 -868,19 -210,63 -375,197 -430,217 -55,20 0,-73 157,-206 157,-133 417,-308 636,-400 219,-92 397,-102 709,-114 313,-12 760,-25 1063,8 303,33 463,111 540,204 77,93 71,200 33,284 -38,84 -107,145 -167,168 -59,23 -109,9 -411,-33z"/>
  <g id="_2067069936320">
   <path class="fil5" d="M16506 11442c38,52 146,151 317,221 170,70 403,110 628,94 226,-16 445,-89 606,-193 161,-104 265,-240 327,-388 62,-148 83,-310 43,-325 -40,-15 -140,116 -279,231 -138,115 -314,215 -478,278 -164,63 -317,89 -456,104 -139,15 -265,19 -376,3 -111,-16 -208,-53 -273,-69 -65,-16 -97,-9 -59,43z"/>
   <path class="fil5" d="M16079 10380c45,-134 124,-265 228,-370 104,-104 231,-181 410,-235 179,-55 408,-87 591,-80 183,7 320,55 455,116 135,60 267,133 370,215 103,82 176,172 232,242 56,70 94,120 118,145 24,26 34,27 44,-14 10,-41 21,-123 -52,-254 -73,-131 -229,-311 -358,-443 -129,-132 -230,-218 -439,-266 -209,-48 -527,-59 -796,-14 -269,45 -490,147 -642,233 -152,85 -236,154 -298,305 -62,151 -101,384 -97,532 4,148 50,211 86,246 35,35 60,40 77,-24 17,-65 26,-200 71,-334z"/>
   <path class="fil6" d="M16016 10785c-7,-117 -12,-262 42,-413 55,-151 169,-309 376,-433 207,-124 507,-214 778,-219 270,-5 511,76 713,234 202,158 366,394 459,512 92,119 113,120 53,218 -61,98 -203,292 -364,432 -160,140 -338,226 -530,287 -192,61 -397,96 -604,75 -207,-21 -416,-98 -565,-173 -150,-76 -240,-150 -290,-232 -50,-82 -60,-171 -67,-288z"/>
   <path class="fil7" d="M16011 10700c-6,-33 -19,-177 41,-344 60,-167 193,-355 334,-473 141,-118 290,-164 453,-193 163,-30 339,-43 461,-38 122,4 191,26 272,48 81,22 173,45 241,51 68,6 111,-5 175,-36 64,-31 149,-82 189,-141 40,-59 35,-126 42,-127 7,-1 27,63 9,133 -18,70 -72,147 -116,192 -44,45 -77,58 -92,73 -15,14 -12,30 15,46 27,16 78,31 149,35 72,4 165,-5 238,-35 73,-30 127,-80 154,-106 27,-25 27,-25 9,1 -18,26 -53,78 -118,126 -64,47 -157,90 -212,111 -55,21 -73,21 -73,32 0,12 17,35 38,57 20,21 44,41 94,50 51,9 129,7 203,-17 74,-24 143,-69 183,-102 40,-33 52,-54 47,-39 -5,15 -26,66 -85,118 -59,52 -157,106 -213,132 -55,27 -68,26 -67,34 1,8 15,24 42,39 27,15 66,28 128,25 62,-3 146,-23 206,-57 60,-34 95,-82 113,-106 18,-24 18,-24 3,4 -15,28 -46,84 -84,138 -39,53 -86,103 -140,149 -54,45 -116,86 -149,100 -33,14 -36,1 -72,-49 -36,-51 -104,-140 -183,-234 -79,-94 -169,-192 -273,-268 -104,-75 -221,-127 -325,-167 -104,-40 -195,-67 -286,-82 -91,-15 -183,-18 -298,-4 -115,14 -252,45 -368,86 -116,41 -212,93 -291,160 -79,67 -141,150 -190,224 -49,74 -84,138 -115,192 -31,54 -58,96 -71,157 -13,61 -12,139 -18,106z"/>
   <ellipse class="fil8" transform="matrix(-1.1444 0.32348 0.32348 1.1444 17212.7 10630)" rx="607" ry="574"/>
   <path class="fil7" d="M16176 11180c136,72 273,144 400,194 127,50 245,77 404,79 160,1 361,-24 532,-70 171,-46 312,-114 433,-196 121,-82 222,-178 291,-256 69,-79 106,-140 134,-178 28,-38 47,-53 84,-57 38,-4 94,3 147,32 53,29 101,79 149,130 -85,-25 -170,-50 -228,-48 -58,2 -89,31 -74,68 15,37 77,81 113,114 37,33 48,56 60,78 -76,-48 -151,-96 -226,-87 -74,9 -148,74 -168,112 -20,38 12,47 51,73 39,26 84,68 129,110 -85,-35 -169,-69 -252,-63 -83,6 -163,54 -225,88 -62,34 -105,56 -106,84 -1,28 40,61 74,100 34,39 62,83 89,127 -115,-55 -230,-109 -353,-118 -123,-8 -254,30 -418,46 -164,16 -363,9 -542,-55 -179,-64 -339,-186 -499,-307z"/>
   <ellipse class="fil9" transform="matrix(-0.474052 0.133997 0.133997 0.474052 17220.7 10622.2)" rx="607" ry="574"/>
   <path class="fil10" d="M16812 10259c-159,45 -253,203 -211,353 42,150 206,236 365,191 159,-45 253,-203 211,-353 -42,-150 -206,-236 -365,-191z"/>
  </g>
  <path class="fil11" d="M12218 16887c-465,-360 -938,-805 -1342,-1353 -518,-701 -922,-1570 -1214,-2478 89,-89 246,-115 490,2 379,181 968,706 1298,1195 331,489 403,941 487,1350 84,409 180,775 239,1052 19,87 34,165 42,232z"/>
  <path class="fil11" d="M20100 12940c-92,-29 -219,-17 -387,64 -379,181 -968,706 -1298,1195 -66,97 -1102,2625 -1110,2656 323,-241 639,-506 922,-787 862,-855 1413,-1855 1865,-3104l9 -24z"/>
  <path class="fil12" d="M14667 4724c-616,151 -1669,192 -2723,527 -1054,335 -2107,965 -2705,1691 -598,727 -740,1551 -593,2586 146,1035 581,2282 1149,3212 568,931 1270,1545 1514,2241 244,695 29,1472 -352,2209 -381,737 -928,1435 -1469,1818 -540,383 -1074,452 -1225,369 -151,-82 82,-315 103,-664 21,-349 -171,-814 -342,-1190 -171,-376 -322,-664 -424,-944 -103,-280 -157,-554 -96,-876 62,-322 239,-691 301,-1170 62,-479 7,-1067 -157,-1689 -164,-622 -438,-1277 -705,-1851 -267,-575 -527,-1069 -568,-1904 -41,-835 137,-2012 554,-2977 417,-965 1074,-1717 1936,-2456 862,-739 1929,-1464 2709,-1888 780,-424 1272,-547 1786,-609 513,-62 1047,-62 1464,164 712,385 569,292 825,87 319,-255 495,-436 741,-498 246,-62 506,-62 1245,185 739,246 1957,739 2812,1512 855,773 1348,1827 1724,3092 376,1266 636,2743 691,4187 55,1443 -96,2853 -308,4022 -212,1170 -486,2100 -711,2901 -226,800 -278,1571 -841,2148 -2173,2227 -1591,-78 -4472,-122 -507,-8 450,-747 942,-1219 493,-472 1177,-1211 1710,-1970 534,-759 917,-1539 1084,-2214 168,-675 120,-1246 -44,-1868 -164,-623 -445,-1297 -798,-1659 -353,-362 -780,-411 -1148,-704 -368,-293 -679,-830 -829,-1414 -149,-584 -138,-1216 -449,-1809 -311,-593 -944,-1147 -1364,-1683 -45,-58 -88,-115 -129,-173 -128,282 -339,477 -839,599z"/>
  <path class="fil2" d="M19267 10030c50,373 168,1056 47,1930 -121,874 -480,1937 -936,3014 -456,1076 -1009,2165 -1362,2808 -140,255 -249,441 -335,586 208,-230 454,-428 790,-749 493,-472 1177,-1211 1710,-1970 534,-759 917,-1539 1084,-2214 168,-675 120,-1246 -44,-1868 -164,-623 -445,-1297 -798,-1659 -60,-61 -121,-113 -184,-159 2,65 11,156 28,282z"/>
  <path class="fil13" d="M16209 2071c-43,-29 101,-234 392,-364 291,-130 729,-185 1255,-24 527,161 1142,537 1652,978 510,441 913,947 1221,1385 308,438 520,807 335,684 -185,-123 -766,-739 -1166,-1161 -400,-422 -619,-652 -941,-908 -322,-257 -746,-540 -1137,-688 -392,-147 -751,-157 -1045,-89 -294,68 -523,215 -566,186z"/>
  <path class="fil14" d="M16589 4330c198,345 794,1173 1040,1758 246,585 144,927 146,1268 2,341 110,681 428,1030 318,349 847,707 1203,930 357,223 541,312 685,512 143,200 245,510 296,666 51,155 51,155 27,-96 -24,-251 -71,-753 -300,-1189 -229,-436 -639,-805 -954,-1034 -315,-229 -534,-318 -660,-588 -127,-270 -161,-722 -263,-1098 -103,-376 -274,-677 -527,-1036 -253,-359 -588,-776 -855,-1054 -267,-277 -465,-414 -267,-68z"/>
  <path class="fil14" d="M8356 18501c-9,-69 -24,-141 -43,-214 22,-15 44,-31 66,-49 988,-821 866,-2176 592,-3254 -85,-333 -223,-806 -284,-1027 -61,-221 -44,-188 -49,-162 -5,27 -32,47 -22,209 10,162 59,466 29,877 -30,410 -138,927 -331,1211 -193,284 -471,335 -686,406 -17,6 -34,11 -50,17 -40,-117 -70,-233 -86,-353 32,-33 68,-69 108,-107 212,-205 534,-502 668,-947 134,-446 79,-1041 -3,-1848 -82,-807 -192,-1827 -181,-2117 10,-291 140,147 277,623 137,475 280,989 421,1406 140,417 277,739 469,1125 192,387 438,838 585,1324 147,486 195,1006 -66,1527 -261,521 -831,1043 -1207,1259 -75,43 -143,74 -204,94z"/>
  <path class="fil14" d="M14661 4272c-9,56 -409,245 -920,340 -511,96 -1134,99 -1647,151 -513,51 -917,151 -1276,296 -359,145 -674,336 -832,432 -158,96 -158,96 -32,-74 125,-169 375,-508 770,-754 395,-246 936,-400 1490,-434 554,-34 1122,51 1597,56 475,5 859,-70 850,-14z"/>
  <path class="fil14" d="M15168 2270c-74,-147 -279,-380 -453,-527 -174,-147 -318,-209 -593,-207 -275,2 -682,67 -1024,144 -342,77 -619,166 -819,294 -200,128 -323,296 -282,316 41,21 246,-106 626,-181 380,-75 934,-99 1293,-56 359,43 523,152 621,251 97,99 128,188 -41,233 -169,44 -539,44 -821,67 -282,22 -477,67 -667,159 -190,92 -375,233 -270,262 104,29 498,-53 853,-71 356,-18 674,28 858,91 185,63 236,144 328,199 92,56 226,86 334,95 108,9 190,-5 166,-44 -24,-39 -154,-104 -224,-198 -70,-94 -80,-217 -43,-251 38,-34 123,21 151,-15 27,-36 -3,-162 10,-257 14,-94 72,-156 -2,-303z"/>
  <path class="fil15" d="M12472 5670c-180,24 -847,417 -1406,722 -559,304 -1011,520 -1317,833 -306,313 -468,724 -538,1068 -70,344 -49,620 -18,611 31,-9 72,-303 229,-582 157,-279 431,-542 732,-782 301,-239 629,-455 947,-652 318,-197 626,-375 934,-636 308,-262 616,-607 436,-583z"/>
  <path class="fil14" d="M19034 19753c-258,-160 -540,-401 -963,-596 36,-27 73,-55 111,-83 369,-272 880,-613 1332,-1099 452,-485 845,-1115 1150,-1761 304,-646 520,-1310 628,-1642 108,-332 108,-332 68,-24 -39,308 -118,924 -260,1449 -142,525 -347,959 -542,1401 -195,441 -380,889 -682,1355 -230,354 -529,718 -841,1001z"/>
  <path class="fil2" d="M17206 3565c312,218 1057,685 1560,1128 503,442 763,860 1101,1468 339,609 756,1409 1077,2107 322,698 547,1293 623,1372 75,79 0,-359 -116,-886 -116,-527 -274,-1142 -479,-1690 -205,-547 -458,-1026 -771,-1475 -313,-449 -686,-869 -1207,-1227 -521,-359 -1189,-656 -1584,-820 -395,-164 -516,-195 -204,24z"/>
  <ellipse class="fil16" cx="17652" cy="12901" rx="74" ry="70"/>
  <ellipse class="fil16" cx="18144" cy="12509" rx="74" ry="70"/>
  <ellipse class="fil16" cx="18222" cy="13105" rx="74" ry="70"/>
  <ellipse class="fil16" cx="16978" cy="12683" rx="74" ry="70"/>
  <ellipse class="fil16" cx="17026" cy="13249" rx="74" ry="70"/>
  <ellipse class="fil16" cx="12456" cy="12866" rx="74" ry="70"/>
  <ellipse class="fil16" cx="11965" cy="12474" rx="74" ry="70"/>
  <ellipse class="fil16" cx="11886" cy="13071" rx="74" ry="70"/>
  <ellipse class="fil16" cx="13131" cy="12648" rx="74" ry="70"/>
  <ellipse class="fil16" cx="13083" cy="13214" rx="74" ry="70"/>
 </g>
</svg>
