<?xml version="1.0" encoding="UTF-8" standalone="no"?>
<svg
   xmlns:dc="http://purl.org/dc/elements/1.1/"
   xmlns:cc="http://creativecommons.org/ns#"
   xmlns:rdf="http://www.w3.org/1999/02/22-rdf-syntax-ns#"
   xmlns:svg="http://www.w3.org/2000/svg"
   xmlns="http://www.w3.org/2000/svg"
   xmlns:sodipodi="http://sodipodi.sourceforge.net/DTD/sodipodi-0.dtd"
   xmlns:inkscape="http://www.inkscape.org/namespaces/inkscape"
   xml:space="preserve"
   width="32.424397mm"
   height="12.092015mm"
   version="1.1"
   style="clip-rule:evenodd;fill-rule:evenodd;image-rendering:optimizeQuality;shape-rendering:geometricPrecision;text-rendering:geometricPrecision"
   viewBox="0 0 3242.4397 1209.2015"
   id="svg10"
   sodipodi:docname="usta.svg"
   inkscape:version="1.0.1 (3bc2e813f5, 2020-09-07)"><metadata
   id="metadata14"><rdf:RDF><cc:Work
       rdf:about=""><dc:format>image/svg+xml</dc:format><dc:type
         rdf:resource="http://purl.org/dc/dcmitype/StillImage" /></cc:Work></rdf:RDF></metadata><sodipodi:namedview
   pagecolor="#ffffff"
   bordercolor="#666666"
   borderopacity="1"
   objecttolerance="10"
   gridtolerance="10"
   guidetolerance="10"
   inkscape:pageopacity="0"
   inkscape:pageshadow="2"
   inkscape:window-width="753"
   inkscape:window-height="480"
   id="namedview12"
   showgrid="false"
   inkscape:zoom="1.1162388"
   inkscape:cx="45.029495"
   inkscape:cy="-85.991573"
   inkscape:window-x="63"
   inkscape:window-y="0"
   inkscape:window-maximized="0"
   inkscape:current-layer="svg10" />
 <defs
   id="defs4">
  <style
   type="text/css"
   id="style2">
   <![CDATA[
    .fil0 {fill:#D2665A}
   ]]>
  </style>
 </defs>
 <g
   id="Warstwa_x0020_1"
   transform="translate(-13658.595,-12775.194)">
  <metadata
   id="CorelCorpID_0Corel-Layer" />
  <path
   class="fil0"
   d="m 15979,12888 c -168,-49 -287,-104 -389,-112 -102,-7 -185,33 -250,65 -26,13 -49,25 -69,34 -16,-8 -33,-16 -52,-26 -65,-32 -148,-73 -250,-65 -102,7 -221,62 -389,112 -224,66 -521,158 -743,209 -63,15 -150,15 -172,41 -23,26 18,78 90,106 386,148 -119,750 1490,732 1528,-17 1207,-605 1560,-741 72,-28 112,-80 90,-106 -23,-26 -109,-26 -172,-41 -214,-49 -538,-149 -743,-209 z m -869,387 c 198,31 159,28 397,6 -87,61 -157,143 -217,143 -1,0 -373,-179 -180,-149 z"
   id="path7" />
 </g>
</svg>
