<?xml version="1.0" encoding="UTF-8" standalone="no"?>
<svg
   xmlns:dc="http://purl.org/dc/elements/1.1/"
   xmlns:cc="http://creativecommons.org/ns#"
   xmlns:rdf="http://www.w3.org/1999/02/22-rdf-syntax-ns#"
   xmlns:svg="http://www.w3.org/2000/svg"
   xmlns="http://www.w3.org/2000/svg"
   xmlns:sodipodi="http://sodipodi.sourceforge.net/DTD/sodipodi-0.dtd"
   xmlns:inkscape="http://www.inkscape.org/namespaces/inkscape"
   xml:space="preserve"
   width="87.77327mm"
   height="127.47691mm"
   version="1.0"
   style="clip-rule:evenodd;fill-rule:evenodd;image-rendering:optimizeQuality;shape-rendering:geometricPrecision;text-rendering:geometricPrecision"
   viewBox="0 0 8777.327 12747.691"
   id="svg69"
   sodipodi:docname="face.svg"
   inkscape:version="1.0.1 (3bc2e813f5, 2020-09-07)"><metadata
   id="metadata73"><rdf:RDF><cc:Work
       rdf:about=""><dc:format>image/svg+xml</dc:format><dc:type
         rdf:resource="http://purl.org/dc/dcmitype/StillImage" /></cc:Work></rdf:RDF></metadata><sodipodi:namedview
   pagecolor="#ffffff"
   bordercolor="#666666"
   borderopacity="1"
   objecttolerance="10"
   gridtolerance="10"
   guidetolerance="10"
   inkscape:pageopacity="0"
   inkscape:pageshadow="2"
   inkscape:window-width="1857"
   inkscape:window-height="1057"
   id="namedview71"
   showgrid="false"
   inkscape:zoom="0.197325"
   inkscape:cx="-2610.4395"
   inkscape:cy="425.54892"
   inkscape:window-x="55"
   inkscape:window-y="-8"
   inkscape:window-maximized="1"
   inkscape:current-layer="south" />
 <defs
   id="defs4">
  <style
   type="text/css"
   id="style2">
    .south__fill4 {fill:#FEFEFE}
    .south__fill5 {fill:#2B2A29}
    .south__fill6 {fill:#5C3B1B}
    .south__fill7 {fill:#2C261A}
    .south__fill1 {fill:#2E221C}
    .south__fill11 {fill:#4C3A36}
    .south__fill13 {fill:#6D5346}
    .south__fill2 {fill:#D48066}
    .south__fill10 {fill:#DA9A7E}
    .south__fill0 {fill:#E7B59A}
    .south__fill12 {fill:#B98C6D;fill-opacity:0.301961}
    .south__fill8 {fill:#FEFEFE;fill-opacity:0.501961}
    .south__fill3 {fill:#C4886E;fill-opacity:0.501961}
    .south__fill9 {fill:#DA9A7E;fill-opacity:0.701961}
  </style>
 
   
   
   
   
   
   

   
  </defs>
 <g
   id="south"
   transform="translate(-11956.221,-4130.0924)">
  <metadata
   id="CorelCorpID_0Corel-Layer" />
  <path
   class="south__fill0 face"
   d="m 19530,10829 c -174,511 -466,1041 -840,1437 -374,396 -830,657 -1257,793 -427,136 -824,147 -1303,-1 -478,-148 -1038,-456 -1464,-1052 -426,-596 -718,-1480 -843,-2293 -124,-813 -81,-1556 59,-2169 140,-613 377,-1096 750,-1450 373,-354 884,-578 1463,-657 579,-80 1226,-15 1877,154 651,169 1306,443 1614,1084 308,641 268,1651 220,2401 -47,750 -102,1242 -276,1753 z"
   id="south__face"
   style="opacity:1" /><path
   class="south__fill1 face"
   d="m 17442,8581 c 153,-55 432,-157 656,-182 224,-25 394,28 513,94 119,66 188,147 207,162 20,15 -10,-34 -55,-150 -45,-116 -107,-300 -342,-352 -235,-52 -643,26 -889,86 -246,60 -331,102 -372,151 -41,49 -38,106 -18,151 20,45 57,77 89,89 32,12 58,5 211,-50 z"
   id="south__eyebrow-right"
   style="opacity:1" /><path
   class="south__fill2 face"
   d="m 17184,11633 c -89,-26 -152,-55 -206,-59 -54,-4 -98,18 -133,35 -14,7 -26,13 -37,18 -8,-4 -17,-9 -27,-14 -34,-17 -79,-38 -133,-35 -54,4 -117,33 -206,59 -119,35 -276,84 -394,111 -34,8 -79,8 -91,22 -12,14 10,42 48,56 205,79 -63,398 791,388 811,-9 641,-321 828,-393 38,-15 60,-42 48,-56 -12,-14 -58,-14 -91,-22 -114,-26 -286,-79 -394,-111 z m -461,205 c 105,17 85,15 211,3 -46,33 -83,76 -115,76 0,0 -198,-95 -96,-79 z"
   id="south__mouth"
   style="opacity:1" /><g
   id="south__eye-left"
   style="opacity:1"
   class="face">
    <path
   class="south__fill3"
   d="m 15869,9909 c -20,28 -78,80 -169,116 -91,36 -214,56 -334,47 -120,-10 -236,-50 -321,-106 -85,-56 -139,-129 -171,-208 -32,-79 -43,-165 -21,-173 21,-8 74,62 147,124 73,62 166,116 252,150 87,34 167,49 241,58 74,9 141,12 200,4 59,-8 111,-27 145,-35 34,-8 52,-5 31,23 z"
   id="path13" />
    <path
   class="south__fill3"
   d="m 16124,9350 c -23,-71 -65,-142 -119,-197 -54,-56 -122,-97 -216,-127 -94,-30 -216,-49 -313,-46 -97,3 -170,28 -242,59 -72,31 -142,69 -197,112 -55,43 -94,90 -125,127 -30,37 -51,63 -64,77 -13,13 -18,14 -23,-8 -5,-22 -11,-65 29,-134 39,-69 123,-164 192,-233 69,-70 123,-114 234,-139 111,-24 280,-29 423,-3 143,26 259,81 339,127 80,46 125,83 157,163 32,80 51,204 49,283 -3,79 -28,112 -47,130 -19,18 -32,21 -41,-13 -9,-35 -13,-107 -36,-178 z"
   id="path15" />
    <path
   class="south__fill4"
   d="m 16155,9565 c 5,-62 8,-139 -20,-219 -28,-81 -88,-165 -197,-232 -109,-67 -268,-116 -411,-120 -143,-4 -272,38 -380,120 -108,83 -196,207 -246,269 -50,62 -61,63 -29,116 32,52 106,156 191,231 84,75 178,122 280,155 101,33 210,53 320,43 110,-10 221,-50 301,-89 80,-39 128,-78 155,-122 27,-43 33,-91 37,-153 z"
   id="path17" />
    <path
   class="south__fill5"
   d="m 16159,9520 c 3,-17 11,-94 -20,-183 -31,-89 -101,-190 -175,-253 -74,-63 -153,-88 -239,-105 -86,-17 -180,-24 -245,-23 -65,2 -102,13 -144,24 -43,11 -92,23 -128,26 -36,3 -59,-3 -93,-20 -34,-17 -79,-44 -100,-76 -21,-32 -18,-67 -21,-68 -4,-1 -14,33 -5,71 9,37 38,78 61,103 23,24 40,31 48,39 8,8 6,16 -8,24 -14,8 -41,16 -79,18 -38,1 -87,-4 -126,-20 -39,-16 -67,-43 -81,-57 -14,-14 -14,-14 -5,0 9,14 28,42 62,67 34,26 83,49 112,60 29,11 39,11 39,18 0,6 -9,19 -20,30 -11,11 -23,21 -50,26 -27,4 -69,3 -108,-10 -39,-13 -75,-37 -97,-55 -21,-18 -27,-29 -25,-21 2,8 13,35 45,63 31,28 83,57 112,71 29,14 36,14 35,18 -1,4 -8,13 -22,21 -14,8 -35,15 -68,13 -33,-2 -77,-13 -109,-31 -32,-18 -50,-44 -59,-57 -9,-13 -9,-13 -1,2 8,15 24,45 44,73 20,28 45,55 74,80 29,24 61,46 78,54 17,8 19,1 38,-26 19,-27 56,-74 98,-123 42,-49 91,-101 146,-141 55,-39 118,-66 173,-87 55,-21 104,-35 152,-42 49,-7 97,-8 158,0 61,8 133,25 195,47 62,22 112,50 154,86 42,36 74,81 100,120 25,39 44,74 60,102 16,29 30,51 37,84 7,32 6,74 9,57 z"
   id="path19" />
    <ellipse
   class="south__fill6"
   transform="matrix(0.605552,0.177746,-0.177746,0.605552,15521,9476.39)"
   rx="607"
   ry="574"
   id="ellipse21"
   cx="0"
   cy="0" />
    <path
   class="south__fill5"
   d="m 16068,9774 c -73,38 -146,75 -213,101 -68,26 -130,40 -215,40 -85,0 -191,-14 -282,-40 -91,-25 -165,-62 -229,-106 -64,-44 -117,-96 -153,-138 -36,-42 -56,-75 -70,-95 -15,-20 -24,-28 -44,-31 -20,-2 -50,1 -78,16 -28,15 -54,41 -80,68 45,-13 90,-26 121,-24 31,1 47,17 39,36 -8,19 -41,42 -61,60 -20,17 -26,29 -32,41 40,-25 81,-50 120,-45 39,5 78,40 89,60 11,20 -7,25 -27,39 -21,14 -45,36 -69,58 45,-18 90,-36 134,-32 44,4 86,29 119,48 33,19 55,30 56,45 0,15 -21,32 -40,53 -18,20 -33,44 -48,67 61,-28 123,-57 188,-61 65,-4 134,17 222,27 87,9 192,7 288,-26 95,-33 181,-97 267,-160 z"
   id="path23" />
    <ellipse
   class="south__fill7"
   transform="matrix(0.250841,0.0736286,-0.0736286,0.250841,15516.8,9472.18)"
   rx="607"
   ry="574"
   id="ellipse25"
   cx="0"
   cy="0" />
    <path
   class="south__fill8"
   d="m 15467,9203 c 84,25 133,109 110,189 -23,79 -110,124 -194,99 -84,-25 -133,-109 -110,-189 23,-80 110,-124 194,-99 z"
   id="path27" />
   </g><g
   id="south__eye-right"
   style="opacity:1"
   class="face">
    <path
   class="south__fill3"
   d="m 17748,9920 c 23,25 86,71 180,97 94,26 219,34 337,12 118,-22 229,-74 308,-139 79,-65 125,-142 149,-224 24,-82 25,-168 3,-174 -22,-6 -67,70 -133,139 -66,69 -153,133 -235,176 -83,43 -161,66 -234,83 -72,16 -139,26 -198,24 -60,-2 -113,-16 -148,-20 -35,-4 -52,1 -29,26 z"
   id="path31" />
    <path
   class="south__fill3"
   d="m 17458,9386 c 15,-73 49,-147 98,-209 48,-61 111,-109 202,-149 91,-40 210,-71 307,-78 97,-7 172,10 247,33 75,24 149,54 208,91 59,37 103,80 137,113 34,34 57,57 71,69 14,12 20,12 23,-10 3,-22 4,-66 -43,-131 -46,-65 -140,-150 -216,-212 -76,-62 -134,-101 -247,-114 -113,-13 -282,1 -421,41 -139,40 -249,107 -324,162 -75,54 -115,96 -139,179 -23,83 -30,209 -19,286 11,78 39,108 60,124 21,16 34,18 39,-18 5,-35 2,-107 17,-180 z"
   id="path33" />
    <path
   class="south__fill4"
   d="m 17449,9603 c -11,-61 -22,-137 -3,-220 20,-83 70,-173 172,-251 102,-78 254,-143 397,-162 142,-19 274,9 390,80 116,71 217,185 273,242 56,57 67,57 41,112 -26,55 -89,166 -165,250 -76,84 -165,140 -262,183 -97,44 -204,74 -314,76 -110,2 -225,-26 -309,-57 -83,-31 -135,-65 -167,-105 -31,-40 -42,-87 -53,-148 z"
   id="path35" />
    <path
   class="south__fill5"
   d="m 17442,9559 c -5,-17 -21,-92 1,-184 22,-91 80,-199 148,-270 67,-71 143,-104 227,-129 84,-25 176,-43 241,-48 65,-5 102,2 146,9 44,7 94,13 130,12 36,-1 58,-9 90,-30 32,-20 74,-52 91,-86 17,-34 11,-68 14,-69 4,-1 18,31 13,70 -5,38 -29,82 -50,108 -20,26 -37,35 -44,44 -7,9 -5,17 11,23 15,7 43,12 81,9 38,-3 87,-13 123,-33 37,-20 62,-50 75,-65 13,-15 13,-15 5,0 -8,15 -23,45 -54,74 -31,29 -77,57 -105,71 -28,14 -37,15 -37,21 1,6 11,18 23,28 12,10 25,19 53,20 27,2 69,-4 106,-21 37,-17 71,-45 90,-65 19,-20 24,-32 23,-24 -2,8 -10,36 -38,67 -28,31 -77,65 -104,83 -27,17 -34,18 -33,22 1,4 9,12 24,18 15,6 36,11 69,6 32,-5 76,-21 105,-42 30,-22 45,-49 53,-63 8,-14 8,-14 2,2 -6,16 -19,47 -36,78 -17,30 -39,60 -65,87 -26,27 -56,52 -72,61 -16,9 -19,3 -41,-22 -22,-25 -63,-67 -111,-112 -47,-45 -101,-91 -160,-125 -59,-33 -124,-54 -181,-68 -57,-15 -107,-24 -156,-26 -49,-2 -98,2 -157,16 -60,14 -130,39 -189,67 -59,29 -106,62 -144,102 -38,40 -65,88 -87,130 -21,42 -36,78 -49,108 -13,30 -25,54 -28,87 -3,33 2,74 -3,57 z"
   id="path37" />
    <ellipse
   class="south__fill6"
   transform="matrix(-0.583739,0.239867,0.239867,0.583739,18071,9448.74)"
   rx="607"
   ry="574"
   id="ellipse39"
   cx="0"
   cy="0" />
    <path
   class="south__fill5"
   d="m 17558,9801 c 76,30 153,60 223,78 70,19 134,26 218,17 84,-9 189,-34 276,-69 87,-35 158,-79 217,-129 59,-50 106,-107 138,-153 32,-46 48,-80 60,-102 12,-22 21,-31 41,-35 20,-4 50,-4 79,8 29,12 58,36 86,59 -46,-8 -92,-16 -123,-12 -30,5 -45,22 -35,40 10,18 45,38 67,53 21,15 29,26 37,38 -43,-21 -86,-42 -124,-32 -39,9 -73,48 -82,69 -9,21 9,24 31,35 22,11 48,31 74,50 -47,-13 -94,-26 -137,-18 -43,8 -83,38 -113,60 -30,22 -52,36 -51,51 1,15 25,30 45,48 20,18 37,40 55,61 -64,-22 -128,-44 -193,-41 -65,3 -132,31 -218,50 -86,18 -191,27 -289,4 -98,-23 -190,-77 -282,-132 z"
   id="path41" />
    <ellipse
   class="south__fill7"
   transform="matrix(-0.241805,0.0993611,0.0993611,0.241805,18074.7,9444.13)"
   rx="607"
   ry="574"
   id="ellipse43"
   cx="0"
   cy="0" />
    <path
   class="south__fill8"
   d="m 17837,9277 c -81,33 -121,122 -90,199 31,77 123,112 204,78 81,-33 121,-122 90,-199 -31,-77 -123,-112 -204,-78 z"
   id="path45" />
   </g><path
   class="south__fill9 face"
   d="m 15418,12759 c -247,-191 -498,-427 -712,-718 -275,-372 -489,-833 -644,-1315 47,-47 130,-61 260,1 201,96 513,375 689,634 176,259 214,500 259,717 45,217 95,411 127,558 10,46 18,88 22,123 z"
   id="south__cheek-left"
   style="opacity:1" /><path
   class="south__fill9 face"
   d="m 19600,10664 c -49,-16 -116,-9 -206,34 -201,96 -513,375 -689,634 -35,52 -585,1393 -589,1409 171,-128 339,-268 489,-417 457,-454 750,-984 990,-1647 z"
   id="south__cheek-right"
   style="opacity:1" /><path
   class="south__fill10 face"
   d="m 16937,9529 c 15,151 62,371 106,531 44,159 84,257 175,347 91,90 231,171 189,290 -43,119 -270,275 -407,359 -138,84 -187,97 -333,23 -146,-75 -390,-238 -453,-359 -62,-121 58,-201 145,-291 88,-90 144,-189 181,-332 37,-143 54,-329 62,-485 8,-156 6,-281 64,-342 58,-61 175,-58 226,-15 50,42 32,124 47,275 z"
   id="south__nose"
   style="opacity:1" /><path
   class="south__fill1 face"
   d="m 16127,8571 c -153,-55 -432,-157 -656,-182 -224,-25 -394,28 -513,94 -119,66 -188,147 -207,162 -20,15 10,-34 55,-150 45,-116 107,-300 342,-352 235,-52 643,26 889,86 246,60 331,102 372,151 41,49 38,106 18,151 -20,45 -57,77 -89,89 -32,12 -58,5 -211,-50 z"
   id="south__eyebrow-left"
   style="opacity:1" /><path
   class="south__fill11 face"
   d="m 17093,6360 c -229,-44 -555,102 -842,225 -287,123 -534,225 -599,374 -65,149 51,345 -27,596 -78,251 -349,558 -567,685 -218,127 -382,75 -407,268 -25,193 90,632 31,1013 -59,381 -290,704 -352,1007 -62,303 46,587 217,898 171,311 407,650 524,904 117,254 117,424 55,567 -62,143 -185,259 -334,383 -149,123 -323,254 -483,374 -160,120 -305,229 -414,425 -109,196 -182,479 -73,868 109,388 399,882 534,1260 134,378 113,639 40,668 -73,29 -196,-174 -352,-359 -156,-185 -345,-352 -523,-468 -178,-116 -345,-182 -541,-283 -196,-102 -421,-240 -617,-436 -196,-196 -363,-450 -399,-744 -36,-294 58,-628 178,-860 120,-232 265,-363 305,-599 40,-236 -25,-577 -152,-958 -127,-381 -316,-802 -323,-1183 -7,-381 167,-722 298,-1056 131,-334 218,-661 294,-969 76,-309 142,-599 203,-908 62,-309 120,-635 214,-1100 94,-465 225,-1067 443,-1478 218,-410 523,-628 853,-817 330,-189 686,-349 1242,-447 555,-98 1311,-134 1721,58 410,192 476,614 566,806 91,192 207,156 417,127 211,-29 516,-51 784,18 269,69 501,229 737,505 236,276 476,668 672,1216 196,548 349,1252 312,1830 -36,577 -261,1027 -305,1525 -44,497 94,1042 131,1449 36,407 -29,675 -272,908 -243,232 -664,428 -708,657 -44,229 290,490 265,991 -25,501 -410,1242 -973,1594 -563,352 -1303,316 -1523,254 -220,-62 82,-149 387,-378 305,-229 614,-599 568,-882 -45,-283 -445,-479 -459,-813 -15,-334 356,-806 642,-1346 286,-540 488,-1149 566,-1703 78,-554 33,-1052 -26,-1528 -59,-476 -131,-929 -267,-1345 -136,-416 -336,-794 -469,-901 -133,-107 -198,56 -303,38 -105,-18 -250,-218 -388,-434 -138,-216 -269,-448 -497,-492 z"
   id="south__hair"
   style="opacity:1" /><path
   class="south__fill12 face"
   d="m 13869,14127 c -94,193 -147,462 -47,819 109,388 399,882 534,1260 134,378 113,639 40,668 -73,29 -196,-174 -352,-359 -156,-185 -345,-352 -523,-468 -178,-116 -345,-182 -541,-283 -196,-102 -421,-240 -617,-436 -196,-196 -363,-450 -399,-744 -36,-294 58,-628 178,-860 120,-232 265,-363 305,-599 28,-163 5,-376 -54,-619 94,-166 109,-316 79,-498 -42,-251 -173,-563 -140,-912 33,-349 229,-733 410,-1024 182,-290 349,-486 514,-712 166,-225 331,-480 442,-816 111,-336 169,-754 225,-881 55,-127 109,37 124,334 16,296 -6,725 -50,1033 -44,308 -109,496 -236,692 -127,196 -316,400 -359,796 -44,396 58,984 51,1529 -7,545 -123,1046 33,1478 76,210 217,404 384,602 z"
   id="south__strand-four"
   style="opacity:1" /><path
   class="south__fill13 face"
   d="m 20487,9909 c -29,126 -53,253 -64,382 -44,497 94,1042 131,1449 36,407 -29,675 -272,908 -243,232 -664,428 -708,657 -44,229 290,490 265,991 -25,501 -410,1242 -973,1594 -563,352 -1303,316 -1523,254 -220,-62 82,-149 387,-378 305,-229 614,-599 568,-882 -45,-283 -445,-479 -459,-813 -15,-334 356,-806 642,-1346 286,-540 488,-1149 566,-1703 46,-326 49,-633 32,-927 79,-193 141,-329 205,-379 161,-124 335,298 459,341 123,44 196,-290 211,-831 15,-541 -29,-1289 7,-1452 36,-163 152,258 192,610 40,352 4,635 109,980 52,170 138,354 227,545 z"
   id="south__strand-three"
   style="opacity:1" /><path
   class="south__fill13 face"
   d="m 17921,6064 c 17,54 201,84 408,216 207,133 437,368 607,637 170,269 279,570 349,859 71,289 103,565 125,713 22,149 33,171 33,-33 0,-203 -11,-632 -43,-964 -32,-332 -84,-568 -182,-768 -98,-200 -241,-363 -418,-503 -177,-140 -388,-256 -567,-274 -180,-18 -329,62 -311,116 z"
   id="south__strand-two"
   style="opacity:1" /><path
   class="south__fill13 face"
   d="m 17467,5406 c -47,-143 -165,-375 -334,-538 -168,-163 -386,-258 -615,-288 -229,-31 -468,2 -782,78 -314,76 -702,196 -940,370 -238,174 -325,403 -227,425 98,22 381,-163 677,-258 296,-94 604,-98 828,-82 223,16 361,53 496,94 134,42 265,89 252,123 -13,34 -169,54 -314,70 -145,16 -279,26 -453,85 -174,59 -389,165 -527,300 -138,135 -200,298 -105,337 94,38 345,-49 619,-125 274,-76 572,-142 806,-125 234,16 405,114 445,82 40,-33 -51,-196 -44,-267 7,-71 113,-49 177,-66 65,-17 89,-72 41,-215 z"
   id="south__strand-one"
   style="opacity:1" />
 </g>
</svg>
