<?xml version="1.0" encoding="UTF-8" standalone="no"?>
<svg
   xmlns:dc="http://purl.org/dc/elements/1.1/"
   xmlns:cc="http://creativecommons.org/ns#"
   xmlns:rdf="http://www.w3.org/1999/02/22-rdf-syntax-ns#"
   xmlns:svg="http://www.w3.org/2000/svg"
   xmlns="http://www.w3.org/2000/svg"
   xmlns:sodipodi="http://sodipodi.sourceforge.net/DTD/sodipodi-0.dtd"
   xmlns:inkscape="http://www.inkscape.org/namespaces/inkscape"
   xml:space="preserve"
   width="24.781204mm"
   height="19.272867mm"
   version="1.1"
   style="clip-rule:evenodd;fill-rule:evenodd;image-rendering:optimizeQuality;shape-rendering:geometricPrecision;text-rendering:geometricPrecision"
   viewBox="0 0 2478.1204 1927.2867"
   id="svg25"
   sodipodi:docname="oko1.svg"
   inkscape:version="1.0.1 (3bc2e813f5, 2020-09-07)"><metadata
   id="metadata29"><rdf:RDF><cc:Work
       rdf:about=""><dc:format>image/svg+xml</dc:format><dc:type
         rdf:resource="http://purl.org/dc/dcmitype/StillImage" /></cc:Work></rdf:RDF></metadata><sodipodi:namedview
   pagecolor="#ffffff"
   bordercolor="#666666"
   borderopacity="1"
   objecttolerance="10"
   gridtolerance="10"
   guidetolerance="10"
   inkscape:pageopacity="0"
   inkscape:pageshadow="2"
   inkscape:window-width="753"
   inkscape:window-height="480"
   id="namedview27"
   showgrid="false"
   inkscape:zoom="1.1162388"
   inkscape:cx="2.7501534"
   inkscape:cy="24.586649"
   inkscape:window-x="63"
   inkscape:window-y="0"
   inkscape:window-maximized="0"
   inkscape:current-layer="svg25" />
 <defs
   id="defs4">
  <style
   type="text/css"
   id="style2">
   <![CDATA[
    .fil1 {fill:#FEFEFE}
    .fil2 {fill:#2B2A29}
    .fil3 {fill:#5C3B1B}
    .fil4 {fill:#2C261A}
    .fil5 {fill:#FEFEFE;fill-opacity:0.501961}
    .fil0 {fill:#C4886E;fill-opacity:0.501961}
   ]]>
  </style>
 </defs>
 <g
   id="Warstwa_x0020_1"
   transform="translate(-14777.236,-9849.4783)">
  <metadata
   id="CorelCorpID_0Corel-Layer" />
  <g
   id="_2067069941856">
   <path
   class="fil0"
   d="m 16672,11523 c -31,42 -121,122 -260,178 -139,56 -329,87 -513,72 -184,-15 -362,-76 -493,-162 -131,-86 -214,-198 -263,-319 -50,-122 -65,-253 -33,-265 33,-12 114,96 225,191 112,95 255,178 388,231 133,53 257,75 371,89 113,13 216,18 307,5 91,-12 170,-42 223,-54 53,-12 79,-7 48,36 z"
   id="path7" />
   <path
   class="fil0"
   d="m 17064,10664 c -35,-109 -99,-217 -183,-303 -84,-86 -187,-149 -332,-195 -145,-46 -332,-75 -482,-70 -150,5 -262,42 -372,90 -110,48 -219,107 -303,172 -85,66 -145,139 -191,195 -46,57 -78,97 -98,118 -20,21 -28,22 -36,-12 -8,-33 -16,-100 44,-207 61,-106 190,-251 296,-358 106,-107 189,-176 360,-213 171,-38 430,-44 650,-5 219,39 398,124 522,195 124,71 192,128 241,251 49,124 79,314 75,435 -4,121 -43,172 -72,200 -29,28 -49,32 -62,-21 -13,-53 -20,-164 -55,-273 z"
   id="path9" />
   <path
   class="fil1"
   d="m 17112,10995 c 7,-95 12,-213 -31,-337 -43,-124 -135,-254 -303,-356 -168,-103 -412,-179 -632,-185 -220,-6 -417,58 -584,185 -166,127 -302,318 -378,414 -76,96 -94,97 -45,178 49,80 163,240 293,355 130,116 274,187 430,238 156,51 323,81 492,66 169,-15 340,-76 463,-137 123,-60 197,-120 238,-187 42,-66 50,-139 57,-235 z"
   id="path11" />
   <path
   class="fil2"
   d="m 17117,10925 c 5,-27 17,-144 -30,-281 -48,-136 -155,-291 -269,-388 -114,-97 -235,-136 -368,-161 -132,-25 -276,-38 -376,-35 -100,2 -156,19 -222,37 -66,17 -141,35 -197,40 -55,4 -91,-5 -143,-31 -52,-26 -121,-68 -153,-117 -32,-48 -27,-103 -33,-104 -6,-1 -22,51 -8,108 14,58 58,121 93,158 35,37 62,48 74,60 12,12 10,25 -13,37 -22,12 -64,25 -122,27 -59,2 -134,-5 -194,-30 -60,-25 -103,-66 -125,-87 -22,-21 -22,-21 -7,1 14,21 43,64 95,104 52,39 127,75 172,92 45,18 60,17 60,27 0,9 -15,29 -31,46 -17,17 -36,33 -77,40 -42,7 -106,5 -166,-15 -60,-20 -116,-57 -148,-85 -33,-27 -42,-45 -38,-32 4,12 20,54 68,97 48,43 128,88 172,110 45,22 55,22 54,28 -1,6 -12,20 -34,32 -22,12 -54,23 -104,20 -50,-3 -119,-20 -168,-48 -49,-28 -77,-68 -91,-88 -14,-20 -14,-20 -2,3 12,23 37,69 68,113 31,44 69,85 113,122 44,37 94,71 121,82 26,12 29,1 59,-40 30,-41 86,-113 151,-189 65,-76 140,-155 225,-216 85,-61 181,-102 266,-133 85,-32 159,-53 234,-65 75,-12 150,-13 243,-1 93,12 205,38 300,73 95,34 172,77 236,133 64,56 114,124 153,184 39,61 67,113 92,157 25,44 46,79 56,128 10,50 9,114 14,87 z"
   id="path13" />
   <ellipse
   class="fil3"
   transform="matrix(0.930631,0.273165,-0.273165,0.930631,16137,10858.2)"
   rx="607"
   ry="574"
   id="ellipse15"
   cx="0"
   cy="0" />
   <path
   class="fil2"
   d="m 16978,11315 c -112,58 -224,116 -328,155 -104,40 -200,61 -330,61 -130,0 -294,-22 -433,-61 -139,-39 -254,-95 -352,-163 -98,-68 -180,-147 -235,-212 -56,-65 -85,-115 -108,-146 -22,-31 -38,-44 -68,-47 -31,-3 -77,2 -120,25 -43,23 -83,64 -123,104 69,-20 139,-40 186,-37 47,2 73,26 60,56 -13,30 -63,65 -93,92 -30,27 -40,45 -50,63 62,-39 124,-77 185,-69 61,8 120,62 136,93 16,31 -10,38 -42,59 -32,21 -69,55 -106,89 69,-28 139,-55 206,-49 67,6 133,45 183,74 50,29 85,47 86,69 1,22 -33,49 -61,81 -28,31 -51,67 -74,103 94,-44 188,-87 289,-93 100,-6 207,27 341,41 134,14 296,10 442,-40 147,-51 278,-149 410,-246 z"
   id="path17" />
   <ellipse
   class="fil4"
   transform="matrix(0.3855,0.113155,-0.113155,0.3855,16130.6,10851.8)"
   rx="607"
   ry="574"
   id="ellipse19"
   cx="0"
   cy="0" />
   <path
   class="fil5"
   d="m 16055,10438 c 129,38 205,168 169,290 -36,122 -170,190 -299,153 -129,-38 -205,-168 -169,-290 36,-122 170,-190 299,-153 z"
   id="path21" />
  </g>
 </g>
</svg>
