<?xml version="1.0" encoding="UTF-8" standalone="no"?>
<svg
   xmlns:dc="http://purl.org/dc/elements/1.1/"
   xmlns:cc="http://creativecommons.org/ns#"
   xmlns:rdf="http://www.w3.org/1999/02/22-rdf-syntax-ns#"
   xmlns:svg="http://www.w3.org/2000/svg"
   xmlns="http://www.w3.org/2000/svg"
   xmlns:sodipodi="http://sodipodi.sourceforge.net/DTD/sodipodi-0.dtd"
   xmlns:inkscape="http://www.inkscape.org/namespaces/inkscape"
   xml:space="preserve"
   width="24.413263mm"
   height="19.64221mm"
   version="1.1"
   style="clip-rule:evenodd;fill-rule:evenodd;image-rendering:optimizeQuality;shape-rendering:geometricPrecision;text-rendering:geometricPrecision"
   viewBox="0 0 2441.3263 1964.221"
   id="svg25"
   sodipodi:docname="oko2.svg"
   inkscape:version="1.0.1 (3bc2e813f5, 2020-09-07)"><metadata
   id="metadata29"><rdf:RDF><cc:Work
       rdf:about=""><dc:format>image/svg+xml</dc:format><dc:type
         rdf:resource="http://purl.org/dc/dcmitype/StillImage" /></cc:Work></rdf:RDF></metadata><sodipodi:namedview
   pagecolor="#ffffff"
   bordercolor="#666666"
   borderopacity="1"
   objecttolerance="10"
   gridtolerance="10"
   guidetolerance="10"
   inkscape:pageopacity="0"
   inkscape:pageshadow="2"
   inkscape:window-width="1857"
   inkscape:window-height="1057"
   id="namedview27"
   showgrid="false"
   inkscape:zoom="1.1162388"
   inkscape:cx="-116.93634"
   inkscape:cy="-31.97261"
   inkscape:window-x="55"
   inkscape:window-y="-8"
   inkscape:window-maximized="1"
   inkscape:current-layer="svg25" />
 <defs
   id="defs4">
  <style
   type="text/css"
   id="style2">
   <![CDATA[
    .fil1 {fill:#FEFEFE}
    .fil2 {fill:#2B2A29}
    .fil3 {fill:#5C3B1B}
    .fil4 {fill:#2C261A}
    .fil5 {fill:#FEFEFE;fill-opacity:0.501961}
    .fil0 {fill:#C4886E;fill-opacity:0.501961}
   ]]>
  </style>
 </defs>
 <g
   id="Warstwa_x0020_1"
   transform="translate(-17943.941,-11345.942)">
  <metadata
   id="CorelCorpID_0Corel-Layer" />
  <g
   id="_2067241386560">
   <path
   class="fil0"
   d="m 18575,13122 c 36,39 133,109 277,150 144,41 336,52 518,18 181,-34 352,-113 473,-213 121,-99 192,-219 229,-345 37,-126 39,-259 5,-267 -34,-9 -103,107 -204,213 -101,106 -235,204 -362,270 -127,66 -248,102 -359,127 -111,25 -213,40 -305,37 -92,-3 -174,-24 -228,-30 -54,-7 -80,1 -44,40 z"
   id="path7" />
   <path
   class="fil0"
   d="m 18130,12302 c 24,-112 76,-227 150,-321 74,-94 171,-168 310,-229 140,-61 323,-109 472,-120 149,-11 265,15 379,51 115,36 229,83 320,140 91,57 159,123 211,174 52,52 88,88 109,107 22,18 30,19 35,-15 5,-34 6,-102 -66,-201 -71,-99 -215,-230 -331,-326 -117,-95 -206,-155 -380,-174 -174,-19 -433,1 -646,63 -214,62 -383,165 -499,248 -115,83 -177,147 -213,275 -36,128 -46,321 -29,440 17,120 60,167 92,191 32,25 52,27 60,-27 8,-54 3,-165 26,-277 z"
   id="path9" />
   <path
   class="fil1"
   d="m 18117,12636 c -17,-94 -34,-211 -4,-339 30,-128 108,-266 264,-386 156,-120 391,-221 610,-249 219,-29 421,14 600,123 179,109 333,285 419,372 86,88 103,87 63,172 -40,85 -137,255 -254,384 -117,128 -253,215 -403,282 -150,67 -313,114 -483,117 -170,2 -346,-40 -474,-88 -128,-47 -208,-99 -256,-161 -48,-62 -65,-133 -82,-227 z"
   id="path11" />
   <path
   class="fil2"
   d="m 18105,12567 c -8,-26 -32,-142 1,-282 33,-141 123,-306 227,-414 103,-108 220,-160 349,-199 129,-39 271,-66 370,-74 100,-8 157,3 225,13 67,10 144,20 200,19 55,-1 90,-14 139,-45 49,-31 113,-81 140,-132 27,-51 16,-105 22,-107 6,-2 27,48 20,107 -8,59 -45,126 -76,167 -31,41 -57,55 -68,68 -11,13 -7,25 16,35 23,10 66,18 124,14 59,-4 133,-19 190,-50 57,-31 96,-77 115,-100 19,-23 19,-23 7,0 -12,23 -36,69 -84,113 -48,44 -119,88 -162,110 -43,22 -57,24 -56,33 1,9 17,27 36,42 19,16 39,29 81,31 42,2 105,-6 163,-32 58,-26 109,-69 139,-100 30,-31 37,-49 35,-36 -2,13 -15,56 -58,104 -43,48 -118,100 -160,127 -42,27 -52,27 -51,34 1,6 14,18 37,28 23,10 56,17 106,9 50,-8 116,-32 162,-65 45,-33 70,-75 82,-97 12,-21 12,-21 2,3 -10,24 -29,73 -56,119 -26,47 -60,92 -100,133 -40,42 -86,80 -111,95 -25,14 -29,5 -63,-33 -34,-38 -97,-104 -170,-172 -73,-69 -155,-140 -246,-191 -91,-51 -191,-82 -278,-105 -88,-22 -164,-36 -240,-40 -75,-4 -150,3 -242,25 -92,22 -200,60 -290,104 -91,44 -163,95 -221,157 -58,62 -101,135 -133,199 -33,64 -55,120 -75,166 -20,46 -38,83 -43,134 -5,50 3,114 -5,88 z"
   id="path13" />
   <ellipse
   class="fil3"
   transform="matrix(-0.897108,0.368634,0.368634,0.897108,19072.2,12398.5)"
   rx="607"
   ry="574"
   id="ellipse15"
   cx="0"
   cy="0" />
   <path
   class="fil2"
   d="m 18284,12940 c 117,46 235,92 342,120 108,29 206,40 335,26 129,-14 290,-53 425,-106 134,-53 242,-121 333,-199 90,-78 163,-165 212,-235 49,-70 73,-123 92,-156 19,-33 33,-47 63,-54 30,-7 77,-6 122,12 45,18 89,55 133,91 -71,-12 -142,-25 -189,-18 -47,7 -69,34 -54,62 16,28 70,58 102,82 33,24 44,41 56,58 -66,-32 -132,-64 -191,-50 -60,14 -113,74 -126,106 -13,32 14,37 48,55 34,17 74,47 114,77 -72,-20 -144,-40 -210,-28 -66,13 -127,59 -174,92 -47,34 -80,55 -78,78 2,22 38,46 69,74 31,28 58,61 84,94 -98,-34 -196,-67 -297,-62 -100,5 -203,48 -335,76 -132,28 -293,41 -444,6 -151,-35 -292,-119 -433,-202 z"
   id="path17" />
   <ellipse
   class="fil4"
   transform="matrix(-0.371613,0.152701,0.152701,0.371613,19077.9,12391.4)"
   rx="607"
   ry="574"
   id="ellipse19"
   cx="0"
   cy="0" />
   <path
   class="fil5"
   d="m 18713,12135 c -125,51 -186,188 -138,306 48,118 189,172 313,121 125,-51 186,-188 138,-306 -48,-118 -189,-172 -313,-121 z"
   id="path21" />
  </g>
 </g>
</svg>
