<?xml version="1.0" encoding="UTF-8"?>
<!DOCTYPE svg PUBLIC "-//W3C//DTD SVG 1.0//EN" "http://www.w3.org/TR/2001/REC-SVG-20010904/DTD/svg10.dtd">
<!-- Creator: CorelDRAW 2017 -->
<svg xmlns="http://www.w3.org/2000/svg" xml:space="preserve" width="162.56mm" height="91.4398mm" version="1.0" style="shape-rendering:geometricPrecision; text-rendering:geometricPrecision; image-rendering:optimizeQuality; fill-rule:evenodd; clip-rule:evenodd"
viewBox="0 0 16256 9144"
 xmlns:xlink="http://www.w3.org/1999/xlink">
 <defs>
  <style type="text/css">
   <![CDATA[
    .fil0 {fill:#FEFEFE}
    .fil7 {fill:#2B2A29}
    .fil8 {fill:#5C3B1B}
    .fil2 {fill:#7688A1}
    .fil9 {fill:#2C261A}
    .fil4 {fill:#2E221C}
    .fil13 {fill:#4C3A36}
    .fil15 {fill:#6D5346}
    .fil5 {fill:#D48066}
    .fil12 {fill:#DA9A7E}
    .fil3 {fill:#E7B59A}
    .fil1 {fill:#7688A1;fill-rule:nonzero}
    .fil14 {fill:#B98C6D;fill-opacity:0.301961}
    .fil10 {fill:#FEFEFE;fill-opacity:0.501961}
    .fil6 {fill:#C4886E;fill-opacity:0.501961}
    .fil11 {fill:#DA9A7E;fill-opacity:0.701961}
   ]]>
  </style>
 </defs>
 <g id="Warstwa_x0020_1">
  <metadata id="CorelCorpID_0Corel-Layer"/>
  <rect class="fil0" width="16256" height="9144"/>
  <path class="fil1" d="M5651 1159l62 0 0 -104c0,-13 -1,-22 -1,-22l1 0c0,0 22,33 72,33 66,0 116,-52 116,-132 0,-78 -44,-132 -112,-132 -59,0 -80,40 -80,40l-1 0c0,0 0,-4 0,-10 0,-14 -8,-24 -32,-24l-56 0 0 53 20 0c7,0 11,3 11,11l0 286zm61 -223c0,-56 31,-80 63,-80 37,0 63,31 63,79 0,50 -29,78 -64,78 -41,0 -62,-39 -62,-78zm221 -1c0,78 61,132 138,132 77,0 138,-54 138,-132 0,-77 -61,-132 -138,-132 -77,0 -138,55 -138,132zm63 0c0,-46 34,-79 75,-79 41,0 75,32 75,79 0,47 -34,79 -75,79 -41,0 -75,-32 -75,-79zm272 92c0,24 10,34 33,34l60 0 0 -53 -20 0c-7,0 -11,-4 -11,-11l0 -113 36 -21 0 -61 -36 20 0 -79c0,-23 -10,-34 -33,-34l-60 0 0 53 20 0c7,0 11,3 11,11l0 83 -33 19 0 62 33 -18 0 107zm146 -56c0,69 33,96 87,96 43,0 75,-26 87,-52l1 0c0,0 -1,5 -1,11l0 7c0,18 11,28 33,28l58 0 0 -53 -20 0c-7,0 -11,-4 -11,-11l0 -188 -63 0 0 116c0,45 -25,85 -71,85 -31,0 -39,-21 -39,-51l0 -116c0,-23 -10,-33 -33,-33l-60 0 0 53 20 0c7,0 11,3 11,11l0 98zm291 -36c0,78 44,132 112,132 58,0 79,-41 79,-41l1 0c0,0 0,4 0,9 0,15 8,26 31,26l58 0 0 -53 -19 0c-7,0 -11,-4 -11,-11l0 -253c0,-23 -10,-34 -34,-34l-60 0 0 53 20 0c7,0 11,3 11,11l0 44c0,8 0,15 0,15l-1 0c0,0 -18,-31 -73,-31 -67,0 -115,52 -115,132zm126 79c-37,0 -62,-31 -62,-79 0,-50 29,-78 63,-78 42,0 62,39 62,78 0,56 -31,80 -63,80zm206 47l62 0 0 -116c0,-12 1,-23 5,-34 9,-30 34,-51 68,-51 32,0 40,21 40,51l0 116c0,24 10,34 34,34l60 0 0 -53 -20 0c-7,0 -11,-4 -11,-11l0 -98c0,-67 -32,-96 -88,-96 -51,0 -78,31 -89,52l-1 0c0,0 1,-5 1,-11l0 -7c0,-18 -11,-28 -33,-28l-58 0 0 53 20 0c7,0 11,3 11,11l0 188zm323 -293l54 0 0 -58 -54 0 0 58zm-3 259c0,24 10,34 33,34l60 0 0 -53 -20 0c-7,0 -11,-4 -11,-11l0 -155c0,-23 -10,-34 -33,-34l-60 0 0 53 20 0c7,0 11,3 11,11l0 154zm121 -92c0,78 61,132 138,132 77,0 138,-54 138,-132 0,-77 -61,-132 -138,-132 -77,0 -138,55 -138,132zm63 0c0,-46 34,-79 75,-79 41,0 75,32 75,79 0,47 -34,79 -75,79 -41,0 -75,-32 -75,-79zm310 126l71 0 42 -144c4,-13 6,-27 6,-27l1 0c0,0 2,14 6,27l43 144 71 0 60 -190c3,-7 6,-9 14,-9l7 0 0 -53 -43 0c-21,0 -31,6 -36,26l-37 140c-3,13 -5,27 -5,27l-1 0c0,0 -1,-13 -5,-27l-47 -164 -55 0 -46 164c-4,13 -6,27 -6,27l-1 0c0,0 -1,-13 -5,-27l-37 -140c-5,-19 -15,-26 -36,-26l-43 0 0 53 7 0c7,0 11,1 14,9l60 190zm351 34l-24 44c0,0 24,26 64,26 38,0 73,-20 91,-66l90 -228c3,-7 7,-9 14,-9l7 0 0 -53 -42 0c-17,0 -28,6 -34,24l-43 126c-4,13 -8,34 -8,34l-1 0c0,0 -4,-21 -9,-34l-49 -126c-6,-17 -15,-24 -33,-24l-41 0 0 53 7 0c7,0 10,1 13,9l84 189 -8 19c-9,22 -24,32 -41,32 -21,0 -36,-17 -36,-17zm421 -126c0,84 70,95 105,95 11,0 19,-1 19,-1l0 -55c0,0 -4,1 -11,1 -17,0 -50,-6 -50,-47l0 -102 57 0 0 -50 -57 0 0 -69 -61 0 0 69 -34 0 0 50 33 0 0 110zm161 126l-24 44c0,0 24,26 64,26 38,0 73,-20 91,-66l90 -228c3,-7 7,-9 14,-9l7 0 0 -53 -42 0c-17,0 -28,6 -34,24l-43 126c-4,13 -8,34 -8,34l-1 0c0,0 -4,-21 -9,-34l-49 -126c-6,-17 -15,-24 -33,-24l-41 0 0 53 7 0c7,0 10,1 13,9l84 189 -8 19c-9,22 -24,32 -41,32 -21,0 -36,-17 -36,-17zm289 65l62 0 0 -104c0,-13 -1,-22 -1,-22l1 0c0,0 22,33 72,33 66,0 116,-52 116,-132 0,-78 -44,-132 -112,-132 -59,0 -80,40 -80,40l-1 0c0,0 0,-4 0,-10 0,-14 -8,-24 -32,-24l-56 0 0 53 20 0c7,0 11,3 11,11l0 286zm61 -223c0,-56 31,-80 63,-80 37,0 63,31 63,79 0,50 -29,78 -64,78 -41,0 -62,-39 -62,-78zm376 35c0,69 33,96 87,96 43,0 75,-26 87,-52l1 0c0,0 -1,5 -1,11l0 7c0,18 11,28 33,28l58 0 0 -53 -20 0c-7,0 -11,-4 -11,-11l0 -188 -63 0 0 116c0,45 -25,85 -71,85 -31,0 -39,-21 -39,-51l0 -116c0,-23 -10,-33 -33,-33l-60 0 0 53 20 0c7,0 11,3 11,11l0 98zm316 90l62 0 0 -100c0,-15 2,-29 5,-41 11,-38 42,-53 69,-53 9,0 15,1 15,1l0 -62c0,0 -6,-1 -11,-1 -39,0 -69,29 -80,65l-1 0c0,0 1,-6 1,-16l0 -15c0,-21 -11,-31 -34,-31l-57 0 0 53 20 0c7,0 11,3 11,11l0 188zm169 -126c0,78 61,132 138,132 77,0 138,-54 138,-132 0,-77 -61,-132 -138,-132 -77,0 -138,55 -138,132zm63 0c0,-46 34,-79 75,-79 41,0 75,32 75,79 0,47 -34,79 -75,79 -41,0 -75,-32 -75,-79zm244 0c0,78 44,132 112,132 58,0 79,-41 79,-41l1 0c0,0 0,4 0,9 0,15 8,26 31,26l58 0 0 -53 -19 0c-7,0 -11,-4 -11,-11l0 -253c0,-23 -10,-34 -34,-34l-60 0 0 53 20 0c7,0 11,3 11,11l0 44c0,8 0,15 0,15l-1 0c0,0 -18,-31 -73,-31 -67,0 -115,52 -115,132zm126 79c-37,0 -62,-31 -62,-79 0,-50 29,-78 63,-78 42,0 62,39 62,78 0,56 -31,80 -63,80zm190 81l-24 44c0,0 24,26 64,26 38,0 73,-20 91,-66l90 -228c3,-7 7,-9 14,-9l7 0 0 -53 -42 0c-17,0 -28,6 -34,24l-43 126c-4,13 -8,34 -8,34l-1 0c0,0 -4,-21 -9,-34l-49 -126c-6,-17 -15,-24 -33,-24l-41 0 0 53 7 0c7,0 10,1 13,9l84 189 -8 19c-9,22 -24,32 -41,32 -21,0 -36,-17 -36,-17z"/>
  <path class="fil2" d="M5681 3698c-40,-9 -118,-34 -173,-31 -55,3 -88,34 -68,54 20,20 92,29 145,40 52,11 84,23 100,33 15,10 14,18 11,28 -2,10 -5,22 10,23 15,1 49,-8 87,-12 38,-5 81,-5 88,-20 7,-16 -22,-47 -45,-73 -23,-26 -41,-47 -53,-62 -13,-15 -20,-24 -29,-19 -9,4 -18,21 -24,32 -6,11 -8,17 -48,7z"/>
  <path class="fil1" d="M2883 3430l36 0 21 -72c2,-7 3,-14 3,-14l1 0c0,0 1,7 3,14l21 72 35 0 30 -95c1,-4 3,-4 7,-4l3 0 0 -27 -21 0c-10,0 -15,3 -18,13l-18 70c-2,7 -2,13 -2,13l0 0c0,0 -1,-7 -3,-13l-23 -82 -28 0 -23 82c-2,7 -3,13 -3,13l-1 0c0,0 -1,-7 -2,-13l-19 -70c-2,-10 -7,-13 -18,-13l-21 0 0 27 3 0c4,0 6,1 7,4l30 95zm185 -17c0,12 5,17 17,17l30 0 0 -26 -10 0c-3,0 -5,-2 -5,-5l0 -57 18 -10 0 -31 -18 10 0 -39c0,-12 -5,-17 -17,-17l-30 0 0 27 10 0c3,0 5,2 5,5l0 42 -16 9 0 31 16 -9 0 54zm61 -46c0,39 31,66 69,66 39,0 69,-27 69,-66 0,-39 -31,-66 -69,-66 -38,0 -69,27 -69,66zm32 0c0,-23 17,-39 37,-39 20,0 38,16 38,39 0,23 -17,39 -38,39 -20,0 -37,-16 -37,-39zm121 43c0,0 18,22 52,22 27,0 48,-15 48,-39 0,-42 -67,-38 -67,-58 0,-7 8,-11 19,-11 7,0 16,3 16,9l0 6 28 0 0 -13c0,-20 -27,-26 -44,-26 -26,0 -49,12 -49,37 0,41 66,41 66,58 0,8 -7,12 -17,12 -21,0 -38,-19 -38,-19l-15 20zm122 36l-12 22c0,0 12,13 32,13 19,0 37,-10 45,-33l45 -114c1,-4 3,-4 7,-4l4 0 0 -27 -21 0c-9,0 -14,3 -17,12l-21 63c-2,6 -4,17 -4,17l0 0c0,0 -2,-10 -4,-17l-25 -63c-3,-9 -8,-12 -17,-12l-21 0 0 27 4 0c3,0 5,1 7,4l42 95 -4 10c-4,11 -12,16 -21,16 -10,0 -18,-9 -18,-9zm198 -80c0,37 27,66 68,66 34,0 53,-23 53,-23l-13 -22c0,0 -16,17 -37,17 -20,0 -39,-13 -39,-39 0,-23 16,-39 37,-39 8,0 18,3 18,10l0 7 28 0 0 -15c0,-22 -29,-28 -46,-28 -43,0 -69,30 -69,66zm148 -83l27 0 0 -29 -27 0 0 29zm-1 130c0,12 5,17 17,17l30 0 0 -26 -10 0c-3,0 -5,-2 -5,-5l0 -77c0,-12 -5,-17 -17,-17l-30 0 0 27 10 0c3,0 5,2 5,5l0 77zm60 -46c0,36 26,66 68,66 31,0 51,-19 51,-19l-13 -22c0,0 -15,14 -35,14 -19,0 -35,-12 -38,-34l87 0c0,0 1,-8 1,-12 0,-33 -20,-60 -56,-60 -38,0 -64,27 -64,66zm33 -16c3,-16 15,-25 31,-25 13,0 23,10 24,25l-55 0zm117 79l31 0 0 -55c0,-6 1,-11 2,-16 4,-16 15,-29 30,-29 15,0 17,12 17,25l0 75 31 0 0 -55c0,-6 0,-11 2,-16 3,-16 15,-29 30,-29 15,0 17,11 17,25l0 58c0,12 5,17 17,17l30 0 0 -26 -10 0c-3,0 -5,-2 -5,-5l0 -49c0,-33 -15,-48 -41,-48 -20,0 -36,12 -43,26l0 0c-5,-17 -18,-26 -37,-26 -20,0 -35,14 -41,26l0 0c0,0 0,-3 0,-5l0 -4c0,-9 -5,-14 -17,-14l-29 0 0 27 10 0c3,0 5,2 5,5l0 94zm233 0l31 0 0 -58c0,-6 1,-12 2,-17 4,-15 17,-26 34,-26 16,0 20,10 20,26l0 58c0,12 5,17 17,17l30 0 0 -26 -10 0c-3,0 -5,-2 -5,-5l0 -49c0,-33 -16,-48 -44,-48 -25,0 -39,16 -44,26l0 0c0,0 0,-3 0,-5l0 -4c0,-9 -5,-14 -17,-14l-29 0 0 27 10 0c3,0 5,2 5,5l0 94zm146 -63c0,39 31,66 69,66 39,0 69,-27 69,-66 0,-39 -31,-66 -69,-66 -38,0 -69,27 -69,66zm32 0c0,-23 17,-39 37,-39 20,0 38,16 38,39 0,23 -17,39 -38,39 -20,0 -37,-16 -37,-39zm132 63l30 0 0 -6c0,-5 0,-8 0,-8l0 0c0,0 11,18 38,18 33,0 58,-26 58,-66 0,-39 -22,-66 -56,-66 -27,0 -38,18 -38,18l0 0c0,0 0,-4 0,-11l0 -37c0,-12 -5,-17 -17,-17l-30 0 0 27 10 0c3,0 5,2 5,5l0 143zm30 -62c0,-28 15,-40 32,-40 19,0 31,16 31,40 0,25 -15,39 -32,39 -21,0 -31,-19 -31,-39zm123 62l31 0 0 -50c0,-7 1,-14 3,-21 6,-19 21,-26 34,-26 4,0 8,0 8,0l0 -31c0,0 -3,-1 -6,-1 -19,0 -34,14 -40,32l0 0c0,0 0,-3 0,-8l0 -7c0,-11 -6,-15 -17,-15l-29 0 0 27 10 0c3,0 5,2 5,5l0 94zm82 -36c0,24 20,39 42,39 29,0 39,-22 39,-22l0 0c0,0 0,2 0,5l0 1c0,6 4,13 15,13l6 0 0 0c-7,6 -16,15 -16,27 0,21 30,24 30,24l7 -23c0,0 -12,-1 -12,-9 0,-7 9,-15 14,-19l0 -26 -10 0c-3,0 -5,-2 -5,-5l0 -47c0,-28 -12,-50 -54,-50 -13,0 -46,3 -46,26l0 13 29 0 0 -7c0,-7 11,-8 17,-8 16,0 23,7 23,25l0 1 -3 0c-21,0 -75,3 -75,43zm32 -1c0,-17 26,-20 42,-20l5 0 0 3c0,15 -12,33 -29,33 -13,0 -19,-8 -19,-16zm105 38l98 0c12,0 17,-5 17,-17l0 -22 -28 0 0 7c0,4 -2,5 -5,5l-28 0c-8,0 -12,1 -12,1l0 0c0,0 5,-5 11,-12l58 -71 0 -17 -92 0c-12,0 -17,5 -17,17l0 22 28 0 0 -7c0,-3 2,-5 5,-5l23 0c8,0 12,0 12,0l0 0c0,0 -5,4 -11,12l-58 71 0 17zm125 -63c0,39 31,66 69,66 39,0 69,-27 69,-66 0,-39 -31,-66 -69,-66 -38,0 -69,27 -69,66zm32 0c0,-23 17,-39 37,-39 20,0 38,16 38,39 0,23 -17,39 -38,39 -20,0 -37,-16 -37,-39zm155 63l36 0 21 -72c2,-7 3,-14 3,-14l1 0c0,0 1,7 3,14l21 72 35 0 30 -95c1,-4 3,-4 7,-4l3 0 0 -27 -21 0c-10,0 -15,3 -18,13l-18 70c-2,7 -2,13 -2,13l0 0c0,0 -1,-7 -3,-13l-23 -82 -28 0 -23 82c-2,7 -3,13 -3,13l-1 0c0,0 -1,-7 -2,-13l-19 -70c-2,-10 -7,-13 -18,-13l-21 0 0 27 3 0c4,0 6,1 7,4l30 95zm169 -63c0,36 26,66 68,66 31,0 51,-19 51,-19l-13 -22c0,0 -15,14 -35,14 -19,0 -35,-12 -38,-34l87 0c0,0 1,-8 1,-12 0,-33 -20,-60 -56,-60 -38,0 -64,27 -64,66zm33 -16c3,-16 15,-25 31,-25 13,0 23,10 24,25l-55 0zm-2273 359c0,12 5,17 17,17l30 0 0 -26 -10 0c-3,0 -5,-2 -5,-5l0 -127c0,-12 -5,-17 -17,-17l-30 0 0 27 10 0c3,0 5,2 5,5l0 126zm72 -28c0,34 17,48 43,48 22,0 38,-13 43,-26l0 0c0,0 0,3 0,6l0 3c0,9 6,14 17,14l29 0 0 -26 -10 0c-3,0 -5,-2 -5,-5l0 -94 -31 0 0 58c0,22 -13,42 -35,42 -16,0 -20,-10 -20,-26l0 -58c0,-11 -5,-17 -17,-17l-30 0 0 27 10 0c3,0 5,2 5,5l0 49zm157 45l30 0 0 -6c0,-5 0,-8 0,-8l0 0c0,0 11,18 38,18 33,0 58,-26 58,-66 0,-39 -22,-66 -56,-66 -27,0 -38,18 -38,18l0 0c0,0 0,-4 0,-11l0 -37c0,-12 -5,-17 -17,-17l-30 0 0 27 10 0c3,0 5,2 5,5l0 143zm30 -62c0,-28 15,-40 32,-40 19,0 31,16 31,40 0,25 -15,39 -32,39 -21,0 -31,-19 -31,-39zm176 -1c0,37 27,66 68,66 34,0 53,-23 53,-23l-13 -22c0,0 -16,17 -37,17 -20,0 -39,-13 -39,-39 0,-23 16,-39 37,-39 8,0 18,3 18,10l0 7 28 0 0 -15c0,-22 -29,-28 -46,-28 -43,0 -69,30 -69,66zm148 -83l27 0 0 -29 -27 0 0 29zm-1 130c0,12 5,17 17,17l30 0 0 -26 -10 0c-3,0 -5,-2 -5,-5l0 -77c0,-12 -5,-17 -17,-17l-30 0 0 27 10 0c3,0 5,2 5,5l0 77zm60 -46c0,36 26,66 68,66 31,0 51,-19 51,-19l-13 -22c0,0 -15,14 -35,14 -19,0 -35,-12 -38,-34l87 0c0,0 1,-8 1,-12 0,-33 -20,-60 -56,-60 -38,0 -64,27 -64,66zm33 -16c3,-16 15,-25 31,-25 13,0 23,10 24,25l-55 0zm117 79l31 0 0 -55c0,-6 1,-11 2,-16 4,-16 15,-29 30,-29 15,0 17,12 17,25l0 75 31 0 0 -55c0,-6 0,-11 2,-16 3,-16 15,-29 30,-29 15,0 17,11 17,25l0 58c0,12 5,17 17,17l30 0 0 -26 -10 0c-3,0 -5,-2 -5,-5l0 -49c0,-33 -15,-48 -41,-48 -20,0 -36,12 -43,26l0 0c-5,-17 -18,-26 -37,-26 -20,0 -35,14 -41,26l0 0c0,0 0,-3 0,-5l0 -4c0,-9 -5,-14 -17,-14l-29 0 0 27 10 0c3,0 5,2 5,5l0 94zm233 0l31 0 0 -58c0,-6 1,-12 2,-17 4,-15 17,-26 34,-26 16,0 20,10 20,26l0 58c0,12 5,17 17,17l30 0 0 -26 -10 0c-3,0 -5,-2 -5,-5l0 -49c0,-33 -16,-48 -44,-48 -25,0 -39,16 -44,26l0 0c0,0 0,-3 0,-5l0 -4c0,-9 -5,-14 -17,-14l-29 0 0 27 10 0c3,0 5,2 5,5l0 94zm148 17l-12 22c0,0 12,13 32,13 19,0 37,-10 45,-33l45 -114c1,-4 3,-4 7,-4l4 0 0 -27 -21 0c-9,0 -14,3 -17,12l-21 63c-2,6 -4,17 -4,17l0 0c0,0 -2,-10 -4,-17l-25 -63c-3,-9 -8,-12 -17,-12l-21 0 0 27 4 0c3,0 5,1 7,4l42 95 -4 10c-4,11 -12,16 -21,16 -10,0 -18,-9 -18,-9zm209 -17l30 0 0 -6c0,-5 0,-8 0,-8l0 0c0,0 11,18 38,18 33,0 58,-26 58,-66 0,-39 -22,-66 -56,-66 -27,0 -38,18 -38,18l0 0c0,0 0,-4 0,-11l0 -37c0,-12 -5,-17 -17,-17l-30 0 0 27 10 0c3,0 5,2 5,5l0 143zm30 -62c0,-28 15,-40 32,-40 19,0 31,16 31,40 0,25 -15,39 -32,39 -21,0 -31,-19 -31,-39zm121 45c0,12 5,17 17,17l30 0 0 -26 -10 0c-3,0 -5,-2 -5,-5l0 -127c0,-12 -5,-17 -17,-17l-30 0 0 27 10 0c3,0 5,2 5,5l0 126zm60 -46c0,39 31,66 69,66 39,0 69,-27 69,-66 0,-39 -31,-66 -69,-66 -38,0 -69,27 -69,66zm32 0c0,-23 17,-39 37,-39 20,0 38,16 38,39 0,23 -17,39 -38,39 -20,0 -37,-16 -37,-39zm135 63l31 0 0 -58c0,-6 1,-12 2,-17 4,-15 17,-26 34,-26 16,0 20,10 20,26l0 58c0,12 5,17 17,17l30 0 0 -26 -10 0c-3,0 -5,-2 -5,-5l0 -49c0,-33 -16,-48 -44,-48 -25,0 -39,16 -44,26l0 0c0,0 0,-3 0,-5l0 -4c0,-9 -5,-14 -17,-14l-29 0 0 27 10 0c3,0 5,2 5,5l0 94zm146 -63c0,39 22,66 56,66 29,0 39,-20 39,-20l0 0c0,0 0,2 0,5 0,7 4,13 16,13l29 0 0 -26 -10 0c-3,0 -5,-2 -5,-5l0 -127c0,-12 -5,-17 -17,-17l-30 0 0 27 10 0c3,0 5,2 5,5l0 22c0,4 0,7 0,7l-1 0c0,0 -9,-15 -36,-15 -33,0 -57,26 -57,66zm63 40c-19,0 -31,-16 -31,-40 0,-25 14,-39 32,-39 21,0 31,19 31,39 0,28 -15,40 -32,40z"/>
  <path class="fil1" d="M10787 5043l30 0 0 -6c0,-5 0,-8 0,-8l0 0c0,0 11,18 38,18 33,0 58,-26 58,-66 0,-39 -22,-66 -56,-66 -27,0 -38,18 -38,18l0 0c0,0 0,-4 0,-11l0 -37c0,-12 -5,-17 -17,-17l-30 0 0 27 10 0c3,0 5,2 5,5l0 143zm30 -62c0,-28 15,-40 32,-40 19,0 31,16 31,40 0,25 -15,39 -32,39 -21,0 -31,-19 -31,-39zm123 62l31 0 0 -50c0,-7 1,-14 3,-21 6,-19 21,-26 34,-26 4,0 8,0 8,0l0 -31c0,0 -3,-1 -6,-1 -19,0 -34,14 -40,32l0 0c0,0 0,-3 0,-8l0 -7c0,-11 -6,-15 -17,-15l-29 0 0 27 10 0c3,0 5,2 5,5l0 94zm82 -36c0,24 20,39 42,39 29,0 39,-22 39,-22l0 0c0,0 0,2 0,5l0 1c0,6 4,13 15,13l6 0 0 0c-7,6 -16,15 -16,27 0,21 30,24 30,24l7 -23c0,0 -12,-1 -12,-9 0,-7 9,-15 14,-19l0 -26 -10 0c-3,0 -5,-2 -5,-5l0 -47c0,-28 -12,-50 -54,-50 -13,0 -46,3 -46,26l0 13 29 0 0 -7c0,-7 11,-8 17,-8 16,0 23,7 23,25l0 1 -3 0c-21,0 -75,3 -75,43zm32 -1c0,-17 26,-20 42,-20l5 0 0 3c0,15 -12,33 -29,33 -13,0 -19,-8 -19,-16zm105 38l98 0c12,0 17,-5 17,-17l0 -22 -28 0 0 7c0,4 -2,5 -5,5l-28 0c-8,0 -12,1 -12,1l0 0c0,0 5,-5 11,-12l58 -71 0 -17 -92 0c-12,0 -17,5 -17,17l0 22 28 0 0 -7c0,-3 2,-5 5,-5l23 0c8,0 12,0 12,0l0 0c0,0 -5,4 -11,12l-58 71 0 17zm125 -63c0,39 31,66 69,66 39,0 69,-27 69,-66 0,-39 -31,-66 -69,-66 -38,0 -69,27 -69,66zm32 0c0,-23 17,-39 37,-39 20,0 38,16 38,39 0,23 -17,39 -38,39 -20,0 -37,-16 -37,-39zm155 63l36 0 21 -72c2,-7 3,-14 3,-14l1 0c0,0 1,7 3,14l21 72 35 0 30 -95c1,-4 3,-4 7,-4l3 0 0 -27 -21 0c-10,0 -15,3 -18,13l-18 70c-2,7 -2,13 -2,13l0 0c0,0 -1,-7 -3,-13l-23 -82 -28 0 -23 82c-2,7 -3,13 -3,13l-1 0c0,0 -1,-7 -2,-13l-19 -70c-2,-10 -7,-13 -18,-13l-21 0 0 27 3 0c4,0 6,1 7,4l30 95zm169 -63c0,36 26,66 68,66 31,0 51,-19 51,-19l-13 -22c0,0 -15,14 -35,14 -19,0 -35,-12 -38,-34l87 0c0,0 1,-8 1,-12 0,-33 -20,-60 -56,-60 -38,0 -64,27 -64,66zm33 -16c3,-16 15,-25 31,-25 13,0 23,10 24,25l-55 0zm119 47l-17 58 23 0 24 -58 -30 0zm129 81l31 0 0 -52c0,-6 0,-11 0,-11l0 0c0,0 11,17 36,17 33,0 58,-26 58,-66 0,-39 -22,-66 -56,-66 -29,0 -40,20 -40,20l-1 0c0,0 0,-2 0,-5 0,-7 -4,-12 -16,-12l-28 0 0 27 10 0c3,0 5,2 5,5l0 143zm30 -112c0,-28 15,-40 32,-40 19,0 31,16 31,40 0,25 -15,39 -32,39 -21,0 -31,-19 -31,-39zm125 -84l27 0 0 -29 -27 0 0 29zm-1 130c0,12 5,17 17,17l30 0 0 -26 -10 0c-3,0 -5,-2 -5,-5l0 -77c0,-12 -5,-17 -17,-17l-30 0 0 27 10 0c3,0 5,2 5,5l0 77zm94 17l36 0 21 -72c2,-7 3,-14 3,-14l1 0c0,0 1,7 3,14l21 72 35 0 30 -95c1,-4 3,-4 7,-4l3 0 0 -27 -21 0c-10,0 -15,3 -18,13l-18 70c-2,7 -2,13 -2,13l0 0c0,0 -1,-7 -3,-13l-23 -82 -28 0 -23 82c-2,7 -3,13 -3,13l-1 0c0,0 -1,-7 -2,-13l-19 -70c-2,-10 -7,-13 -18,-13l-21 0 0 27 3 0c4,0 6,1 7,4l30 95zm184 0l31 0 0 -58c0,-6 1,-12 2,-17 4,-15 17,-26 34,-26 16,0 20,10 20,26l0 58c0,12 5,17 17,17l30 0 0 -26 -10 0c-3,0 -5,-2 -5,-5l0 -49c0,-33 -16,-48 -44,-48 -25,0 -39,16 -44,26l0 0c0,0 0,-3 0,-5l0 -4c0,-9 -5,-14 -17,-14l-29 0 0 27 10 0c3,0 5,2 5,5l0 94zm146 -63c0,36 26,66 68,66 31,0 51,-19 51,-19l-13 -22c0,0 -15,14 -35,14 -19,0 -35,-12 -38,-34l87 0c0,0 1,-8 1,-12 0,-33 -20,-60 -56,-60 -38,0 -64,27 -64,66zm33 -16c3,-16 15,-25 31,-25 13,0 23,10 24,25l-55 0zm-1773 359c0,12 5,17 17,17l30 0 0 -26 -10 0c-3,0 -5,-2 -5,-5l0 -127c0,-12 -5,-17 -17,-17l-30 0 0 27 10 0c3,0 5,2 5,5l0 126zm72 -28c0,34 17,48 43,48 22,0 38,-13 43,-26l0 0c0,0 0,3 0,6l0 3c0,9 6,14 17,14l29 0 0 -26 -10 0c-3,0 -5,-2 -5,-5l0 -94 -31 0 0 58c0,22 -13,42 -35,42 -16,0 -20,-10 -20,-26l0 -58c0,-11 -5,-17 -17,-17l-30 0 0 27 10 0c3,0 5,2 5,5l0 49zm157 45l30 0 0 -6c0,-5 0,-8 0,-8l0 0c0,0 11,18 38,18 33,0 58,-26 58,-66 0,-39 -22,-66 -56,-66 -27,0 -38,18 -38,18l0 0c0,0 0,-4 0,-11l0 -37c0,-12 -5,-17 -17,-17l-30 0 0 27 10 0c3,0 5,2 5,5l0 143zm30 -62c0,-28 15,-40 32,-40 19,0 31,16 31,40 0,25 -15,39 -32,39 -21,0 -31,-19 -31,-39zm175 62l98 0c12,0 17,-5 17,-17l0 -22 -28 0 0 7c0,4 -2,5 -5,5l-28 0c-8,0 -12,1 -12,1l0 0c0,0 5,-5 11,-12l58 -71 0 -17 -92 0c-12,0 -17,5 -17,17l0 22 28 0 0 -7c0,-3 2,-5 5,-5l23 0c8,0 12,0 12,0l0 0c0,0 -5,4 -11,12l-58 71 0 17zm142 -146l27 0 0 -29 -27 0 0 29zm-1 130c0,12 5,17 17,17l30 0 0 -26 -10 0c-3,0 -5,-2 -5,-5l0 -77c0,-12 -5,-17 -17,-17l-30 0 0 27 10 0c3,0 5,2 5,5l0 77zm60 -46c0,36 26,66 68,66 31,0 51,-19 51,-19l-13 -22c0,0 -15,14 -35,14 -19,0 -35,-12 -38,-34l87 0c0,0 1,-8 1,-12 0,-33 -20,-60 -56,-60 -38,0 -64,27 -64,66zm33 -16c3,-16 15,-25 31,-25 13,0 23,10 24,25l-55 0zm116 62c0,12 5,17 17,17l30 0 0 -26 -10 0c-3,0 -5,-2 -5,-5l0 -127c0,-12 -5,-17 -17,-17l-30 0 0 27 10 0c3,0 5,2 5,5l0 126zm60 -46c0,39 31,66 69,66 39,0 69,-27 69,-66 0,-39 -31,-66 -69,-66 -38,0 -69,27 -69,66zm32 0c0,-23 17,-39 37,-39 20,0 38,16 38,39 0,23 -17,39 -38,39 -20,0 -37,-16 -37,-39zm135 63l31 0 0 -58c0,-6 1,-12 2,-17 4,-15 17,-26 34,-26 16,0 20,10 20,26l0 58c0,12 5,17 17,17l30 0 0 -26 -10 0c-3,0 -5,-2 -5,-5l0 -49c0,-33 -16,-48 -44,-48 -25,0 -39,16 -44,26l0 0c0,0 0,-3 0,-5l0 -4c0,-9 -5,-14 -17,-14l-29 0 0 27 10 0c3,0 5,2 5,5l0 94zm146 -63c0,36 26,66 68,66 31,0 51,-19 51,-19l-13 -22c0,0 -15,14 -35,14 -19,0 -35,-12 -38,-34l87 0c0,0 1,-8 1,-12 0,-33 -20,-60 -56,-60 -38,0 -64,27 -64,66zm33 -16c3,-16 15,-25 31,-25 13,0 23,10 24,25l-55 0zm170 16c0,39 31,66 69,66 39,0 69,-27 69,-66 0,-39 -31,-66 -69,-66 -38,0 -69,27 -69,66zm32 0c0,-23 17,-39 37,-39 20,0 38,16 38,39 0,23 -17,39 -38,39 -20,0 -37,-16 -37,-39zm122 0c0,37 27,66 68,66 34,0 53,-23 53,-23l-13 -22c0,0 -16,17 -37,17 -20,0 -39,-13 -39,-39 0,-23 16,-39 37,-39 8,0 18,3 18,10l0 7 28 0 0 -15c0,-22 -29,-28 -46,-28 -43,0 -69,30 -69,66zm132 63l98 0c12,0 17,-5 17,-17l0 -22 -28 0 0 7c0,4 -2,5 -5,5l-28 0c-8,0 -12,1 -12,1l0 0c0,0 5,-5 11,-12l58 -71 0 -17 -92 0c-12,0 -17,5 -17,17l0 22 28 0 0 -7c0,-3 2,-5 5,-5l23 0c8,0 12,0 12,0l0 0c0,0 -5,4 -11,12l-58 71 0 17zm128 17l-12 22c0,0 12,13 32,13 19,0 37,-10 45,-33l45 -114c1,-4 3,-4 7,-4l4 0 0 -27 -21 0c-9,0 -14,3 -17,12l-21 63c-2,6 -4,17 -4,17l0 0c0,0 -2,-10 -4,-17l-25 -63c-3,-9 -8,-12 -17,-12l-21 0 0 27 4 0c3,0 5,1 7,4l42 95 -4 10c-4,11 -12,16 -21,16 -10,0 -18,-9 -18,-9z"/>
  <path class="fil2" d="M10279 5029c40,9 118,34 173,31 55,-3 88,-34 68,-54 -20,-20 -92,-29 -145,-40 -52,-11 -84,-23 -100,-33 -15,-10 -14,-18 -11,-28 2,-10 5,-22 -10,-23 -15,-1 -49,8 -87,12 -38,5 -81,5 -88,20 -7,16 22,47 45,73 23,26 41,47 53,62 13,15 20,24 29,19 9,-4 18,-21 24,-32 6,-11 8,-17 48,-7z"/>
  <path class="fil1" d="M7279 8259c0,39 31,66 69,66 39,0 69,-27 69,-66 0,-39 -31,-66 -69,-66 -38,0 -69,27 -69,66zm32 0c0,-23 17,-39 37,-39 20,0 38,16 38,39 0,23 -17,39 -38,39 -20,0 -37,-16 -37,-39zm135 63l31 0 0 -50c0,-7 1,-14 3,-21 6,-19 21,-26 34,-26 4,0 8,0 8,0l0 -31c0,0 -3,-1 -6,-1 -19,0 -34,14 -40,32l0 0c0,0 0,-3 0,-8l0 -7c0,-11 -6,-15 -17,-15l-29 0 0 27 10 0c3,0 5,2 5,5l0 94zm88 0l98 0c12,0 17,-5 17,-17l0 -22 -28 0 0 7c0,4 -2,5 -5,5l-28 0c-8,0 -12,1 -12,1l0 0c0,0 5,-5 11,-12l58 -71 0 -17 -92 0c-12,0 -17,5 -17,17l0 22 28 0 0 -7c0,-3 2,-5 5,-5l23 0c8,0 12,0 12,0l0 0c0,0 -5,4 -11,12l-58 71 0 17zm125 -63c0,36 26,66 68,66 31,0 51,-19 51,-19l-13 -22c0,0 -15,14 -35,14 -19,0 -35,-12 -38,-34l87 0c0,0 1,-8 1,-12 0,-33 -20,-60 -56,-60 -38,0 -64,27 -64,66zm33 -16c3,-16 15,-25 31,-25 13,0 23,10 24,25l-55 0zm104 16c0,37 27,66 68,66 34,0 53,-23 53,-23l-13 -22c0,0 -16,17 -37,17 -20,0 -39,-13 -39,-39 0,-23 16,-39 37,-39 8,0 18,3 18,10l0 7 28 0 0 -15c0,-22 -29,-28 -46,-28 -43,0 -69,30 -69,66zm144 63l31 0 0 -58c0,-6 0,-11 2,-16 5,-15 18,-26 34,-26 16,0 20,10 20,26l0 58c0,12 5,17 17,17l30 0 0 -26 -10 0c-3,0 -5,-2 -5,-5l0 -49c0,-33 -16,-48 -44,-48 -22,0 -37,13 -43,25l0 0c0,0 0,-4 0,-11l0 -44c0,-11 -5,-17 -17,-17l-30 0 0 27 10 0c3,0 5,2 5,5l0 143zm146 -63c0,39 31,66 69,66 39,0 69,-27 69,-66 0,-39 -31,-66 -69,-66 -38,0 -69,27 -69,66zm32 0c0,-23 17,-39 37,-39 20,0 38,16 38,39 0,23 -17,39 -38,39 -20,0 -37,-16 -37,-39zm155 63l36 0 21 -72c2,-7 3,-14 3,-14l1 0c0,0 1,7 3,14l21 72 35 0 30 -95c1,-4 3,-4 7,-4l3 0 0 -27 -21 0c-10,0 -15,3 -18,13l-18 70c-2,7 -2,13 -2,13l0 0c0,0 -1,-7 -3,-13l-23 -82 -28 0 -23 82c-2,7 -3,13 -3,13l-1 0c0,0 -1,-7 -2,-13l-19 -70c-2,-10 -7,-13 -18,-13l-21 0 0 27 3 0c4,0 6,1 7,4l30 95zm170 -36c0,25 21,39 43,39 28,0 38,-22 38,-22l0 0c0,0 0,2 0,5 0,7 4,14 16,14l28 0 0 -26 -10 0c-3,0 -5,-2 -5,-5l0 -47c0,-28 -12,-50 -54,-50 -13,0 -46,2 -46,26l0 13 29 0 0 -7c0,-7 11,-8 17,-8 16,0 23,7 23,25l0 1 -4 0c-20,0 -75,3 -75,43zm32 -1c0,-18 26,-20 42,-20l5 0 0 3c0,15 -12,33 -29,33 -13,0 -19,-8 -19,-16zm184 21c0,12 5,17 17,17l30 0 0 -26 -10 0c-3,0 -5,-2 -5,-5l0 -127c0,-12 -5,-17 -17,-17l-30 0 0 27 10 0c3,0 5,2 5,5l0 126zm72 -28c0,34 17,48 43,48 22,0 38,-13 43,-26l0 0c0,0 0,3 0,6l0 3c0,9 6,14 17,14l29 0 0 -26 -10 0c-3,0 -5,-2 -5,-5l0 -94 -31 0 0 58c0,22 -13,42 -35,42 -16,0 -20,-10 -20,-26l0 -58c0,-11 -5,-17 -17,-17l-30 0 0 27 10 0c3,0 5,2 5,5l0 49zm157 45l30 0 0 -6c0,-5 0,-8 0,-8l0 0c0,0 11,18 38,18 33,0 58,-26 58,-66 0,-39 -22,-66 -56,-66 -27,0 -38,18 -38,18l0 0c0,0 0,-4 0,-11l0 -37c0,-12 -5,-17 -17,-17l-30 0 0 27 10 0c3,0 5,2 5,5l0 143zm30 -62c0,-28 15,-40 32,-40 19,0 31,16 31,40 0,25 -15,39 -32,39 -21,0 -31,-19 -31,-39zm176 -1c0,37 27,66 68,66 34,0 53,-23 53,-23l-13 -22c0,0 -16,17 -37,17 -20,0 -39,-13 -39,-39 0,-23 16,-39 37,-39 8,0 18,3 18,10l0 7 28 0 0 -15c0,-22 -29,-28 -46,-28 -43,0 -69,30 -69,66zm148 -83l27 0 0 -29 -27 0 0 29zm-1 130c0,12 5,17 17,17l30 0 0 -26 -10 0c-3,0 -5,-2 -5,-5l0 -77c0,-12 -5,-17 -17,-17l-30 0 0 27 10 0c3,0 5,2 5,5l0 77zm60 -46c0,36 26,66 68,66 31,0 51,-19 51,-19l-13 -22c0,0 -15,14 -35,14 -19,0 -35,-12 -38,-34l87 0c0,0 1,-8 1,-12 0,-33 -20,-60 -56,-60 -38,0 -64,27 -64,66zm33 -16c3,-16 15,-25 31,-25 13,0 23,10 24,25l-55 0zm117 79l31 0 0 -55c0,-6 1,-11 2,-16 4,-16 15,-29 30,-29 15,0 17,12 17,25l0 75 31 0 0 -55c0,-6 0,-11 2,-16 3,-16 15,-29 30,-29 15,0 17,11 17,25l0 58c0,12 5,17 17,17l30 0 0 -26 -10 0c-3,0 -5,-2 -5,-5l0 -49c0,-33 -15,-48 -41,-48 -20,0 -36,12 -43,26l0 0c-5,-17 -18,-26 -37,-26 -20,0 -35,14 -41,26l0 0c0,0 0,-3 0,-5l0 -4c0,-9 -5,-14 -17,-14l-29 0 0 27 10 0c3,0 5,2 5,5l0 94zm233 0l31 0 0 -58c0,-6 1,-12 2,-17 4,-15 17,-26 34,-26 16,0 20,10 20,26l0 58c0,12 5,17 17,17l30 0 0 -26 -10 0c-3,0 -5,-2 -5,-5l0 -49c0,-33 -16,-48 -44,-48 -25,0 -39,16 -44,26l0 0c0,0 0,-3 0,-5l0 -4c0,-9 -5,-14 -17,-14l-29 0 0 27 10 0c3,0 5,2 5,5l0 94zm146 -36c0,25 21,39 43,39 28,0 38,-22 38,-22l0 0c0,0 0,2 0,5 0,7 4,14 16,14l28 0 0 -26 -10 0c-3,0 -5,-2 -5,-5l0 -47c0,-28 -12,-50 -54,-50 -13,0 -46,2 -46,26l0 13 29 0 0 -7c0,-7 11,-8 17,-8 16,0 23,7 23,25l0 1 -4 0c-20,0 -75,3 -75,43zm32 -1c0,-18 26,-20 42,-20l5 0 0 3c0,15 -12,33 -29,33 -13,0 -19,-8 -19,-16zm172 -25c0,37 27,66 68,66 34,0 53,-23 53,-23l-13 -22c0,0 -16,17 -37,17 -20,0 -39,-13 -39,-39 0,-23 16,-39 37,-39 8,0 18,3 18,10l0 7 28 0 0 -15c0,-22 -29,-28 -46,-28 -43,0 -69,30 -69,66zm133 0c0,36 26,66 68,66 31,0 51,-19 51,-19l-13 -22c0,0 -15,14 -35,14 -19,0 -35,-12 -38,-34l87 0c0,0 1,-8 1,-12 0,-33 -20,-60 -56,-60 -38,0 -64,27 -64,66zm33 -16c3,-16 15,-25 31,-25 13,0 23,10 24,25l-55 0zm117 79l31 0 0 -50c0,-7 1,-14 3,-21 6,-19 21,-26 34,-26 4,0 8,0 8,0l0 -31c0,0 -3,-1 -6,-1 -19,0 -34,14 -40,32l0 0c0,0 0,-3 0,-8l0 -7c0,-11 -6,-15 -17,-15l-29 0 0 27 10 0c3,0 5,2 5,5l0 94zm82 -36c0,25 21,39 43,39 28,0 38,-22 38,-22l0 0c0,0 0,2 0,5 0,7 4,14 16,14l28 0 0 -26 -10 0c-3,0 -5,-2 -5,-5l0 -47c0,-28 -12,-50 -54,-50 -13,0 -46,2 -46,26l0 13 29 0 0 -7c0,-7 11,-8 17,-8 16,0 23,7 23,25l0 1 -4 0c-20,0 -75,3 -75,43zm32 -1c0,-18 26,-20 42,-20l5 0 0 3c0,15 -12,33 -29,33 -13,0 -19,-8 -19,-16z"/>
  <path class="fil2" d="M7964 7709c11,42 27,126 57,180 29,54 72,78 80,53 8,-25 -19,-100 -36,-155 -16,-55 -21,-90 -20,-108 1,-18 9,-19 19,-19 10,0 22,-1 16,-16 -6,-15 -30,-46 -53,-83 -23,-37 -44,-80 -61,-82 -17,-3 -30,34 -42,65 -11,30 -21,53 -28,69 -7,17 -11,27 -3,34 8,8 27,12 40,15 13,3 19,4 30,46z"/>
  <g id="_1552268347488">
   <path class="fil3" d="M9307 5513c-75,221 -202,450 -364,622 -162,171 -359,284 -544,343 -185,59 -357,64 -563,-1 -207,-64 -449,-197 -633,-455 -184,-258 -311,-640 -365,-992 -54,-352 -35,-673 26,-938 61,-265 163,-474 324,-627 162,-153 382,-250 633,-284 250,-34 530,-6 812,67 282,73 565,191 698,469 133,277 116,714 95,1038 -21,325 -44,537 -119,758z"/>
   <path class="fil4" d="M8404 4541c66,-24 187,-68 284,-79 97,-11 170,12 222,41 51,29 81,63 90,70 9,7 -4,-15 -24,-65 -20,-50 -46,-130 -148,-152 -102,-23 -278,11 -385,37 -107,26 -143,44 -161,65 -18,21 -16,46 -8,65 9,19 25,33 38,39 14,5 25,2 91,-22z"/>
   <path class="fil5" d="M8293 5861c-38,-11 -66,-24 -89,-26 -23,-2 -43,8 -57,15 -6,3 -11,6 -16,8 -4,-2 -8,-4 -12,-6 -15,-7 -34,-17 -57,-15 -23,2 -51,14 -89,26 -51,15 -120,36 -171,48 -15,3 -34,3 -40,9 -5,6 4,18 21,24 89,34 -27,172 342,168 351,-4 277,-139 358,-170 16,-6 26,-18 21,-24 -5,-6 -25,-6 -40,-9 -49,-11 -124,-34 -171,-48zm-200 89c46,7 37,6 91,1 -20,14 -36,33 -50,33 0,0 -86,-41 -41,-34z"/>
   <g>
    <path class="fil6" d="M7724 5115c-9,12 -34,34 -73,50 -39,16 -93,24 -144,20 -52,-4 -102,-21 -139,-46 -37,-24 -60,-56 -74,-90 -14,-34 -18,-71 -9,-75 9,-3 32,27 63,54 31,27 72,50 109,65 38,15 72,21 104,25 32,4 61,5 86,2 26,-4 48,-12 63,-15 15,-3 22,-2 14,10z"/>
    <path class="fil6" d="M7834 4873c-10,-31 -28,-61 -51,-85 -24,-24 -53,-42 -94,-55 -41,-13 -93,-21 -136,-20 -42,1 -74,12 -105,25 -31,14 -62,30 -85,48 -24,18 -41,39 -54,55 -13,16 -22,27 -28,33 -6,6 -8,6 -10,-3 -2,-9 -5,-28 12,-58 17,-30 53,-71 83,-101 30,-30 53,-49 101,-60 48,-11 121,-12 183,-1 62,11 112,35 147,55 35,20 54,36 68,71 14,35 22,88 21,122 -1,34 -12,48 -20,56 -8,8 -14,9 -18,-6 -4,-15 -6,-46 -15,-77z"/>
    <path class="fil0" d="M7848 4966c2,-27 3,-60 -9,-95 -12,-35 -38,-71 -85,-100 -47,-29 -116,-50 -178,-52 -62,-2 -117,16 -164,52 -47,36 -85,90 -106,117 -22,27 -26,27 -13,50 14,23 46,67 82,100 36,33 77,53 121,67 44,14 91,23 139,19 48,-4 96,-21 130,-38 34,-17 55,-34 67,-53 12,-19 14,-39 16,-66z"/>
    <path class="fil7" d="M7849 4947c1,-8 5,-41 -9,-79 -13,-38 -44,-82 -76,-109 -32,-27 -66,-38 -103,-45 -37,-7 -78,-11 -106,-10 -28,1 -44,5 -62,10 -19,5 -40,10 -55,11 -16,1 -25,-1 -40,-9 -15,-7 -34,-19 -43,-33 -9,-14 -8,-29 -9,-29 -2,0 -6,14 -2,31 4,16 16,34 26,44 10,10 17,14 21,17 3,3 3,7 -4,10 -6,4 -18,7 -34,8 -17,1 -38,-2 -55,-9 -17,-7 -29,-19 -35,-25 -6,-6 -6,-6 -2,0 4,6 12,18 27,29 15,11 36,21 49,26 13,5 17,5 17,8 0,3 -4,8 -9,13 -5,5 -10,9 -22,11 -12,2 -30,1 -47,-4 -17,-6 -33,-16 -42,-24 -9,-8 -12,-13 -11,-9 1,3 6,15 19,27 14,12 36,25 48,31 13,6 15,6 15,8 0,2 -4,6 -10,9 -6,3 -15,6 -29,6 -14,-1 -33,-6 -47,-14 -14,-8 -22,-19 -26,-25 -4,-6 -4,-6 -1,1 3,6 10,19 19,32 9,12 19,24 32,34 12,11 26,20 34,23 7,3 8,0 17,-11 8,-12 24,-32 43,-53 18,-21 39,-44 63,-61 24,-17 51,-29 75,-38 24,-9 45,-15 66,-18 21,-3 42,-4 68,0 26,3 58,11 84,21 27,10 49,22 66,37 18,16 32,35 43,52 11,17 19,32 26,44 7,12 13,22 16,36 3,14 2,32 4,24z"/>
    <ellipse class="fil8" transform="matrix(0.261923 0.0768814 -0.0768814 0.261923 7573.19 4927.72)" rx="607" ry="574"/>
    <path class="fil7" d="M7810 5056c-31,16 -63,33 -92,44 -29,11 -56,17 -93,17 -37,0 -83,-6 -122,-17 -39,-11 -71,-27 -99,-46 -28,-19 -51,-41 -66,-60 -16,-18 -24,-32 -30,-41 -6,-9 -11,-12 -19,-13 -9,-1 -22,1 -34,7 -12,6 -23,18 -35,29 20,-6 39,-11 52,-11 13,1 20,7 17,16 -4,8 -18,18 -26,26 -8,8 -11,13 -14,18 18,-11 35,-22 52,-20 17,2 34,17 38,26 5,9 -3,11 -12,17 -9,6 -19,15 -30,25 20,-8 39,-16 58,-14 19,2 37,13 51,21 14,8 24,13 24,19 0,6 -9,14 -17,23 -8,9 -14,19 -21,29 27,-12 53,-25 81,-26 28,-2 58,8 96,12 38,4 83,3 124,-11 41,-14 78,-42 115,-69z"/>
    <ellipse class="fil9" transform="matrix(0.108498 0.031847 -0.031847 0.108498 7571.38 4925.9)" rx="607" ry="574"/>
    <path class="fil10" d="M7550 4809c36,11 58,47 48,82 -10,34 -48,54 -84,43 -36,-11 -58,-47 -48,-82 10,-34 48,-54 84,-43z"/>
   </g>
   <g>
    <path class="fil6" d="M8536 5120c10,11 37,31 78,42 41,11 95,15 146,5 51,-10 99,-32 133,-60 34,-28 54,-62 64,-97 10,-35 11,-73 1,-75 -9,-2 -29,30 -58,60 -29,30 -66,57 -102,76 -36,19 -70,29 -101,36 -31,7 -60,11 -86,11 -26,-1 -49,-7 -64,-9 -15,-2 -22,0 -12,11z"/>
    <path class="fil6" d="M8411 4889c7,-32 21,-64 42,-90 21,-26 48,-47 87,-64 39,-17 91,-31 133,-34 42,-3 75,4 107,14 32,10 64,23 90,39 26,16 45,35 59,49 15,15 25,25 31,30 6,5 8,5 10,-4 1,-10 2,-29 -18,-57 -20,-28 -60,-65 -93,-92 -33,-27 -58,-44 -107,-49 -49,-5 -122,0 -182,18 -60,17 -108,46 -140,70 -33,23 -50,41 -60,77 -10,36 -13,90 -8,124 5,34 17,47 26,54 9,7 15,8 17,-8 2,-15 1,-46 7,-78z"/>
    <path class="fil0" d="M8407 4982c-5,-27 -10,-59 -1,-95 9,-36 30,-75 74,-109 44,-34 110,-62 172,-70 62,-8 119,4 169,35 50,31 94,80 118,105 24,25 29,24 18,48 -11,24 -39,72 -72,108 -33,36 -71,60 -113,79 -42,19 -88,32 -136,33 -48,1 -97,-11 -133,-25 -36,-13 -59,-28 -72,-45 -14,-17 -18,-38 -23,-64z"/>
    <path class="fil7" d="M8404 4963c-2,-7 -9,-40 0,-79 9,-40 35,-86 64,-117 29,-31 62,-45 98,-56 36,-11 76,-19 104,-21 28,-2 44,1 63,4 19,3 41,6 56,5 16,0 25,-4 39,-13 14,-9 32,-23 39,-37 8,-14 5,-30 6,-30 2,0 8,14 6,30 -2,17 -13,35 -21,47 -9,11 -16,15 -19,19 -3,4 -2,7 5,10 7,3 19,5 35,4 16,-1 37,-5 53,-14 16,-9 27,-22 32,-28 5,-6 5,-6 2,0 -3,6 -10,19 -24,32 -13,13 -33,25 -46,31 -12,6 -16,7 -16,9 0,3 5,8 10,12 5,4 11,8 23,9 12,1 30,-2 46,-9 16,-7 31,-19 39,-28 8,-9 10,-14 10,-10 -1,4 -4,16 -16,29 -12,13 -33,28 -45,36 -12,7 -15,8 -14,9 0,2 4,5 11,8 6,3 16,5 30,2 14,-2 33,-9 45,-18 13,-9 20,-21 23,-27 3,-6 3,-6 1,1 -3,7 -8,20 -16,34 -7,13 -17,26 -28,38 -11,12 -24,23 -31,27 -7,4 -8,1 -18,-9 -9,-11 -27,-29 -48,-49 -21,-19 -44,-39 -69,-54 -26,-14 -54,-23 -78,-30 -25,-6 -46,-10 -67,-11 -21,-1 -42,1 -68,7 -26,6 -56,17 -82,29 -25,12 -46,27 -62,44 -16,17 -28,38 -37,56 -9,18 -15,34 -21,47 -6,13 -11,23 -12,38 -1,14 1,32 -1,25z"/>
    <ellipse class="fil8" transform="matrix(-0.252488 0.103751 0.103751 0.252488 8676.17 4915.76)" rx="607" ry="574"/>
    <path class="fil7" d="M8454 5068c33,13 66,26 96,34 30,8 58,11 94,7 36,-4 82,-15 120,-30 38,-15 68,-34 94,-56 25,-22 46,-46 60,-66 14,-20 21,-35 26,-44 5,-9 9,-13 18,-15 9,-2 22,-2 34,4 13,5 25,15 37,26 -20,-4 -40,-7 -53,-5 -13,2 -20,9 -15,17 4,8 20,16 29,23 9,7 13,11 16,16 -19,-9 -37,-18 -54,-14 -17,4 -32,21 -35,30 -4,9 4,10 13,15 9,5 21,13 32,22 -20,-6 -40,-11 -59,-8 -19,4 -36,17 -49,26 -13,9 -22,16 -22,22 0,6 11,13 19,21 9,8 16,17 24,27 -28,-9 -55,-19 -84,-18 -28,1 -57,14 -94,21 -37,8 -82,12 -125,2 -43,-10 -82,-33 -122,-57z"/>
    <ellipse class="fil9" transform="matrix(-0.104589 0.0429772 0.0429772 0.104589 8677.77 4913.76)" rx="607" ry="574"/>
    <path class="fil10" d="M8575 4842c-35,14 -52,53 -39,86 14,33 53,48 88,34 35,-14 52,-53 39,-86 -14,-33 -53,-48 -88,-34z"/>
   </g>
   <path class="fil11" d="M7528 6348c-107,-83 -215,-185 -308,-310 -119,-161 -212,-360 -279,-569 20,-20 56,-26 112,0 87,42 222,162 298,274 76,112 93,216 112,310 19,94 41,178 55,241 4,20 8,38 10,53z"/>
   <path class="fil11" d="M9338 5442c-21,-7 -50,-4 -89,15 -87,42 -222,162 -298,274 -15,22 -253,603 -255,610 74,-55 147,-116 212,-181 198,-196 324,-426 428,-713l2 -6z"/>
   <path class="fil12" d="M8186 4951c6,65 27,161 46,230 19,69 36,111 76,150 39,39 100,74 82,125 -19,51 -117,119 -176,155 -60,37 -81,42 -144,10 -63,-32 -169,-103 -196,-155 -27,-52 25,-87 63,-126 38,-39 62,-82 78,-143 16,-62 23,-142 27,-210 3,-67 2,-122 27,-148 25,-26 76,-25 98,-7 22,18 14,54 20,119z"/>
   <path class="fil4" d="M7835 4536c-66,-24 -187,-68 -284,-79 -97,-11 -170,12 -222,41 -51,29 -81,63 -90,70 -9,7 4,-15 24,-65 20,-50 46,-130 148,-152 102,-23 278,11 385,37 107,26 143,44 161,65 18,21 16,46 8,65 -9,19 -25,33 -38,39 -14,5 -25,2 -91,-22z"/>
   <path class="fil13" d="M8253 3580c-99,-19 -240,44 -364,97 -124,53 -231,97 -259,162 -28,64 22,149 -12,258 -34,109 -151,241 -245,296 -94,55 -165,32 -176,116 -11,84 39,273 14,438 -25,165 -125,304 -152,436 -27,131 20,254 94,389 74,135 176,281 227,391 51,110 50,183 24,245 -27,62 -80,112 -145,166 -64,53 -140,110 -209,162 -69,52 -132,99 -179,184 -47,85 -79,207 -31,375 47,168 173,382 231,545 58,163 49,276 17,289 -31,13 -85,-75 -152,-155 -68,-80 -149,-152 -226,-203 -77,-50 -149,-79 -234,-122 -85,-44 -182,-104 -267,-188 -85,-85 -157,-195 -173,-322 -16,-127 25,-272 77,-372 52,-100 115,-157 132,-259 17,-102 -11,-250 -66,-415 -55,-165 -137,-347 -140,-512 -3,-165 72,-312 129,-457 57,-144 94,-286 127,-419 33,-133 61,-259 88,-393 27,-133 52,-275 93,-476 41,-201 97,-462 192,-639 94,-177 226,-272 369,-353 143,-82 297,-151 537,-193 240,-42 567,-58 744,25 177,83 206,265 245,349 39,83 90,68 181,55 91,-13 223,-22 339,8 116,30 217,99 319,218 102,119 206,289 290,526 85,237 151,542 135,791 -16,250 -113,444 -132,660 -19,215 41,451 57,627 16,176 -13,292 -118,393 -105,101 -287,185 -306,284 -19,99 126,212 115,429 -11,217 -177,537 -421,689 -243,152 -564,137 -659,110 -95,-27 35,-64 167,-163 132,-99 265,-259 246,-382 -20,-122 -192,-207 -199,-352 -6,-144 154,-349 278,-582 124,-234 211,-497 245,-737 34,-239 14,-455 -11,-661 -25,-206 -57,-402 -116,-582 -59,-180 -145,-343 -203,-390 -57,-46 -86,24 -131,16 -46,-8 -108,-94 -168,-188 -60,-93 -116,-194 -215,-213z"/>
   <path class="fil14" d="M6859 6939c-41,84 -64,200 -20,354 47,168 173,382 231,545 58,163 49,276 17,289 -31,13 -85,-75 -152,-155 -68,-80 -149,-152 -226,-203 -77,-50 -149,-79 -234,-122 -85,-44 -182,-104 -267,-188 -85,-85 -157,-195 -173,-322 -16,-127 25,-272 77,-372 52,-100 115,-157 132,-259 12,-71 2,-163 -23,-268 41,-72 47,-137 34,-215 -18,-108 -75,-244 -61,-394 14,-151 99,-317 177,-443 79,-126 151,-210 223,-308 72,-97 143,-208 191,-353 48,-145 73,-326 97,-381 24,-55 47,16 54,144 7,128 -3,313 -21,447 -19,133 -47,215 -102,299 -55,85 -137,173 -155,345 -19,171 25,426 22,661 -3,236 -53,452 14,639 33,91 94,175 166,261z"/>
   <path class="fil15" d="M9721 5115c-13,55 -23,109 -28,165 -19,215 41,451 57,627 16,176 -13,292 -118,393 -105,101 -287,185 -306,284 -19,99 126,212 115,429 -11,217 -177,537 -421,689 -243,152 -564,137 -659,110 -95,-27 35,-64 167,-163 132,-99 265,-259 246,-382 -20,-122 -192,-207 -199,-352 -6,-144 154,-349 278,-582 124,-234 211,-497 245,-737 20,-141 21,-274 14,-401 34,-84 61,-142 89,-164 70,-53 145,129 198,148 53,19 85,-126 91,-360 6,-234 -13,-557 3,-628 16,-71 66,111 83,264 17,152 2,275 47,424 22,73 60,153 98,236z"/>
   <path class="fil15" d="M8611 3452c7,24 87,36 176,93 90,57 189,159 263,276 73,116 121,247 151,371 31,125 45,244 54,309 9,64 14,74 14,-14 0,-88 -5,-273 -18,-417 -14,-144 -37,-246 -79,-332 -42,-86 -104,-157 -181,-217 -77,-60 -168,-111 -245,-119 -78,-8 -142,27 -135,50z"/>
   <path class="fil15" d="M8415 3167c-20,-62 -72,-162 -144,-233 -73,-71 -167,-111 -266,-125 -99,-13 -203,1 -338,34 -136,33 -304,85 -407,160 -103,75 -141,174 -98,184 42,9 165,-71 293,-111 128,-41 261,-42 358,-35 97,7 156,23 214,41 58,18 115,38 109,53 -6,15 -73,23 -136,30 -63,7 -121,11 -196,37 -75,25 -168,72 -228,130 -60,58 -86,129 -46,146 41,16 149,-21 268,-54 119,-33 247,-61 349,-54 101,7 175,49 192,35 17,-14 -22,-85 -19,-115 3,-31 49,-21 77,-28 28,-7 38,-31 18,-93z"/>
  </g>
 </g>
</svg>
