<?xml version="1.0" encoding="UTF-8" standalone="no"?>
<svg
   xmlns:dc="http://purl.org/dc/elements/1.1/"
   xmlns:cc="http://creativecommons.org/ns#"
   xmlns:rdf="http://www.w3.org/1999/02/22-rdf-syntax-ns#"
   xmlns:svg="http://www.w3.org/2000/svg"
   xmlns="http://www.w3.org/2000/svg"
   xmlns:sodipodi="http://sodipodi.sourceforge.net/DTD/sodipodi-0.dtd"
   xmlns:inkscape="http://www.inkscape.org/namespaces/inkscape"
   xml:space="preserve"
   width="26.436665mm"
   height="9.8500891mm"
   version="1.1"
   style="clip-rule:evenodd;fill-rule:evenodd;image-rendering:optimizeQuality;shape-rendering:geometricPrecision;text-rendering:geometricPrecision"
   viewBox="0 0 2643.6665 985.00891"
   id="svg10"
   sodipodi:docname="usta.svg"
   inkscape:version="1.0.1 (3bc2e813f5, 2020-09-07)"><metadata
   id="metadata14"><rdf:RDF><cc:Work
       rdf:about=""><dc:format>image/svg+xml</dc:format><dc:type
         rdf:resource="http://purl.org/dc/dcmitype/StillImage" /></cc:Work></rdf:RDF></metadata><sodipodi:namedview
   pagecolor="#ffffff"
   bordercolor="#666666"
   borderopacity="1"
   objecttolerance="10"
   gridtolerance="10"
   guidetolerance="10"
   inkscape:pageopacity="0"
   inkscape:pageshadow="2"
   inkscape:window-width="753"
   inkscape:window-height="480"
   id="namedview12"
   showgrid="false"
   inkscape:zoom="1.1162388"
   inkscape:cx="67.513292"
   inkscape:cy="-28.319439"
   inkscape:window-x="63"
   inkscape:window-y="0"
   inkscape:window-maximized="0"
   inkscape:current-layer="svg10" />
 <defs
   id="defs4">
  <style
   type="text/css"
   id="style2">
   <![CDATA[
    .fil0 {fill:#D48066}
   ]]>
  </style>
 </defs>
 <g
   id="Warstwa_x0020_1"
   transform="translate(-13063.711,-11249.285)">
  <metadata
   id="CorelCorpID_0Corel-Layer" />
  <path
   class="fil0"
   d="m 14956,11341 c -137,-40 -234,-85 -317,-91 -83,-6 -151,27 -204,53 -21,11 -40,20 -56,28 -13,-6 -27,-13 -42,-21 -53,-26 -121,-59 -204,-53 -83,6 -181,51 -317,91 -182,54 -425,129 -606,170 -52,12 -122,12 -141,33 -19,21 15,64 73,86 315,121 -97,611 1215,597 1246,-14 985,-494 1272,-604 59,-22 92,-65 73,-86 -19,-21 -89,-21 -141,-33 -175,-40 -439,-121 -606,-170 z m -709,315 c 162,25 130,23 324,5 -71,50 -128,117 -177,117 -1,0 -304,-146 -147,-121 z"
   id="path7" />
 </g>
</svg>
