<?xml version="1.0" encoding="UTF-8" standalone="no"?>
<svg
   xmlns:dc="http://purl.org/dc/elements/1.1/"
   xmlns:cc="http://creativecommons.org/ns#"
   xmlns:rdf="http://www.w3.org/1999/02/22-rdf-syntax-ns#"
   xmlns:svg="http://www.w3.org/2000/svg"
   xmlns="http://www.w3.org/2000/svg"
   xmlns:sodipodi="http://sodipodi.sourceforge.net/DTD/sodipodi-0.dtd"
   xmlns:inkscape="http://www.inkscape.org/namespaces/inkscape"
   xml:space="preserve"
   width="25.940535mm"
   height="7.8416624mm"
   version="1.0"
   style="clip-rule:evenodd;fill-rule:evenodd;image-rendering:optimizeQuality;shape-rendering:geometricPrecision;text-rendering:geometricPrecision"
   viewBox="0 0 2594.0535 784.16624"
   id="svg10"
   sodipodi:docname="brew1.svg"
   inkscape:version="1.0.1 (3bc2e813f5, 2020-09-07)"><metadata
   id="metadata14"><rdf:RDF><cc:Work
       rdf:about=""><dc:format>image/svg+xml</dc:format><dc:type
         rdf:resource="http://purl.org/dc/dcmitype/StillImage" /></cc:Work></rdf:RDF></metadata><sodipodi:namedview
   pagecolor="#ffffff"
   bordercolor="#666666"
   borderopacity="1"
   objecttolerance="10"
   gridtolerance="10"
   guidetolerance="10"
   inkscape:pageopacity="0"
   inkscape:pageshadow="2"
   inkscape:window-width="1004"
   inkscape:window-height="480"
   id="namedview12"
   showgrid="false"
   inkscape:zoom="1.1162388"
   inkscape:cx="96.370847"
   inkscape:cy="10.420772"
   inkscape:window-x="62"
   inkscape:window-y="0"
   inkscape:window-maximized="0"
   inkscape:current-layer="svg10" />
 <defs
   id="defs4">
  <style
   type="text/css"
   id="style2">
   <![CDATA[
    .fil0 {fill:#2F2F2E}
   ]]>
  </style>
 </defs>
 <g
   id="Warstwa_x0020_1"
   transform="translate(-12300.188,-10224.284)">
  <metadata
   id="CorelCorpID_0Corel-Layer" />
  <path
   class="fil0"
   d="m 14412,10921 c -233,-37 -659,-97 -1060,-70 -401,28 -777,143 -942,156 -165,14 -120,-74 -22,-237 98,-163 248,-401 612,-494 364,-94 941,-43 1296,20 354,63 486,137 549,225 63,88 58,190 27,270 -31,80 -88,138 -137,160 -49,22 -90,8 -323,-29 z"
   id="path7" />
 </g>
</svg>
