<?xml version="1.0" encoding="UTF-8" standalone="no"?>
<svg
   xmlns:dc="http://purl.org/dc/elements/1.1/"
   xmlns:cc="http://creativecommons.org/ns#"
   xmlns:rdf="http://www.w3.org/1999/02/22-rdf-syntax-ns#"
   xmlns:svg="http://www.w3.org/2000/svg"
   xmlns="http://www.w3.org/2000/svg"
   xmlns:sodipodi="http://sodipodi.sourceforge.net/DTD/sodipodi-0.dtd"
   xmlns:inkscape="http://www.inkscape.org/namespaces/inkscape"
   xml:space="preserve"
   width="26.783842mm"
   height="21.616594mm"
   version="1.1"
   style="clip-rule:evenodd;fill-rule:evenodd;image-rendering:optimizeQuality;shape-rendering:geometricPrecision;text-rendering:geometricPrecision"
   viewBox="0 0 2678.3842 2161.6594"
   id="svg25"
   sodipodi:docname="oko śnieżki 2.svg"
   inkscape:version="1.0.1 (3bc2e813f5, 2020-09-07)"><metadata
   id="metadata29"><rdf:RDF><cc:Work
       rdf:about=""><dc:format>image/svg+xml</dc:format><dc:type
         rdf:resource="http://purl.org/dc/dcmitype/StillImage" /></cc:Work></rdf:RDF></metadata><sodipodi:namedview
   pagecolor="#ffffff"
   bordercolor="#666666"
   borderopacity="1"
   objecttolerance="10"
   gridtolerance="10"
   guidetolerance="10"
   inkscape:pageopacity="0"
   inkscape:pageshadow="2"
   inkscape:window-width="753"
   inkscape:window-height="480"
   id="namedview27"
   showgrid="false"
   inkscape:zoom="1.1162388"
   inkscape:cx="172.94654"
   inkscape:cy="18.564038"
   inkscape:window-x="63"
   inkscape:window-y="0"
   inkscape:window-maximized="0"
   inkscape:current-layer="svg25" />
 <defs
   id="defs4">
  <style
   type="text/css"
   id="style2">
   <![CDATA[
    .fil1 {fill:#FEFEFE}
    .fil2 {fill:#2B2A29}
    .fil3 {fill:#29533E}
    .fil4 {fill:#152C20}
    .fil5 {fill:#FEFEFE;fill-opacity:0.501961}
    .fil0 {fill:#CD877A;fill-opacity:0.501961}
   ]]>
  </style>
 </defs>
 <g
   id="Warstwa_x0020_1"
   transform="translate(-10274.123,-10008.827)">
  <metadata
   id="CorelCorpID_0Corel-Layer" />
  <g
   id="_2067069946144">
   <path
   class="fil0"
   d="m 12567,11650 c -20,54 -88,164 -216,264 -128,100 -316,191 -511,231 -196,41 -400,31 -562,-19 -162,-50 -283,-140 -371,-251 -89,-111 -145,-243 -115,-266 30,-22 147,65 293,130 145,65 319,107 474,122 155,14 291,0 412,-21 122,-21 230,-47 321,-88 91,-41 164,-96 215,-124 51,-29 80,-31 61,22 z"
   id="path7" />
   <path
   class="fil0"
   d="m 12712,10637 c -70,-103 -169,-196 -283,-259 -113,-64 -240,-98 -405,-101 -165,-4 -368,24 -522,74 -154,50 -259,124 -359,208 -100,84 -195,177 -263,272 -68,94 -109,188 -139,261 -31,73 -51,125 -66,152 -14,28 -22,31 -41,-1 -19,-32 -47,-99 -17,-228 31,-129 120,-319 198,-463 78,-144 143,-240 309,-331 166,-91 434,-177 674,-203 240,-26 452,8 602,43 150,36 238,74 327,188 89,114 178,302 210,429 32,127 8,192 -14,230 -22,38 -41,49 -71,-2 -30,-51 -70,-164 -140,-267 z"
   id="path9" />
   <path
   class="fil1"
   d="m 12863,10966 c -22,-101 -52,-226 -135,-341 -83,-115 -218,-222 -424,-278 -206,-56 -483,-60 -714,1 -231,61 -416,187 -550,370 -134,183 -217,423 -267,546 -50,123 -68,130 8,198 75,69 243,199 413,280 170,81 342,111 520,117 178,5 361,-14 532,-82 171,-68 330,-183 439,-283 109,-100 168,-185 191,-267 23,-82 10,-160 -12,-261 z"
   id="path11" />
   <path
   class="fil2"
   d="m 12847,10893 c -3,-29 -26,-155 -117,-282 -91,-127 -250,-256 -398,-322 -148,-66 -286,-69 -431,-56 -145,14 -298,45 -401,78 -103,33 -156,68 -220,106 -63,38 -136,80 -192,101 -56,21 -96,23 -158,12 -62,-11 -147,-34 -195,-75 -48,-41 -60,-98 -66,-98 -6,1 -8,60 24,115 32,56 97,108 145,136 48,28 79,31 96,40 16,9 17,23 -2,42 -19,20 -59,45 -119,65 -60,20 -141,35 -211,28 -70,-8 -127,-38 -156,-53 -29,-15 -29,-15 -8,3 21,18 64,54 130,79 66,25 155,39 207,43 52,5 67,0 70,10 3,10 -6,34 -19,57 -12,23 -27,45 -68,65 -41,20 -108,37 -177,35 -68,-2 -138,-24 -180,-43 -42,-19 -57,-34 -50,-22 8,12 38,50 101,80 63,30 159,52 213,61 53,9 64,6 65,13 1,7 -7,24 -26,43 -19,19 -49,40 -103,52 -53,12 -130,16 -189,1 -59,-14 -101,-47 -122,-63 -21,-16 -21,-16 -1,4 20,20 59,61 105,97 46,36 98,67 155,93 57,25 119,45 151,49 31,4 31,-7 49,-59 18,-52 55,-144 99,-243 45,-99 98,-204 168,-293 70,-89 157,-161 236,-220 79,-59 149,-104 224,-139 74,-35 152,-59 253,-75 101,-16 225,-23 334,-16 109,7 203,28 286,66 83,38 156,94 215,145 59,51 104,97 143,135 39,38 72,68 98,116 26,48 44,115 41,86 z"
   id="path13" />
   <ellipse
   class="fil3"
   cx="11808"
   cy="11122"
   rx="638"
   ry="603"
   id="ellipse15" />
   <path
   class="fil2"
   d="m 12822,11340 c -99,94 -197,188 -293,261 -96,73 -190,125 -325,164 -135,39 -313,67 -469,69 -157,2 -293,-22 -415,-62 -123,-40 -232,-98 -309,-148 -78,-50 -124,-93 -157,-119 -33,-26 -52,-34 -85,-28 -33,6 -80,26 -117,63 -38,37 -67,92 -96,146 66,-42 132,-83 182,-96 50,-12 83,5 79,40 -4,35 -46,87 -69,124 -23,37 -28,59 -32,81 53,-59 106,-118 171,-129 65,-10 143,28 170,55 26,27 1,43 -25,74 -27,31 -55,78 -83,125 64,-50 127,-100 199,-114 72,-14 152,6 213,21 61,14 103,23 110,46 8,23 -19,61 -39,103 -20,41 -32,85 -45,129 85,-74 169,-148 272,-185 103,-36 223,-35 367,-61 144,-26 310,-79 447,-177 137,-98 244,-239 351,-381 z"
   id="path17" />
   <ellipse
   class="fil4"
   cx="11800"
   cy="11117"
   rx="264"
   ry="250"
   id="ellipse19" />
   <path
   class="fil5"
   d="m 11595,10710 c 146,0 264,112 264,250 0,138 -118,250 -264,250 -146,0 -264,-112 -264,-250 0,-138 118,-250 264,-250 z"
   id="path21" />
  </g>
 </g>
</svg>
