<?xml version="1.0" encoding="UTF-8" standalone="no"?>
<svg
   xmlns:dc="http://purl.org/dc/elements/1.1/"
   xmlns:cc="http://creativecommons.org/ns#"
   xmlns:rdf="http://www.w3.org/1999/02/22-rdf-syntax-ns#"
   xmlns:svg="http://www.w3.org/2000/svg"
   xmlns="http://www.w3.org/2000/svg"
   xmlns:sodipodi="http://sodipodi.sourceforge.net/DTD/sodipodi-0.dtd"
   xmlns:inkscape="http://www.inkscape.org/namespaces/inkscape"
   xml:space="preserve"
   width="30.915749mm"
   height="24.038012mm"
   version="1.1"
   style="clip-rule:evenodd;fill-rule:evenodd;image-rendering:optimizeQuality;shape-rendering:geometricPrecision;text-rendering:geometricPrecision"
   viewBox="0 0 3091.5749 2403.8012"
   id="svg25"
   sodipodi:docname="oko1.svg"
   inkscape:version="1.0.1 (3bc2e813f5, 2020-09-07)"><metadata
   id="metadata29"><rdf:RDF><cc:Work
       rdf:about=""><dc:format>image/svg+xml</dc:format><dc:type
         rdf:resource="http://purl.org/dc/dcmitype/StillImage" /></cc:Work></rdf:RDF></metadata><sodipodi:namedview
   pagecolor="#ffffff"
   bordercolor="#666666"
   borderopacity="1"
   objecttolerance="10"
   gridtolerance="10"
   guidetolerance="10"
   inkscape:pageopacity="0"
   inkscape:pageshadow="2"
   inkscape:window-width="753"
   inkscape:window-height="480"
   id="namedview27"
   showgrid="false"
   inkscape:zoom="1.1162388"
   inkscape:cx="38.570474"
   inkscape:cy="72.94349"
   inkscape:window-x="62"
   inkscape:window-y="0"
   inkscape:window-maximized="0"
   inkscape:current-layer="svg25" />
 <defs
   id="defs4">
  <style
   type="text/css"
   id="style2">
   <![CDATA[
    .fil1 {fill:#FEFEFE}
    .fil3 {fill:#593A1B}
    .fil2 {fill:#1F130D}
    .fil4 {fill:#FEFEFE;fill-opacity:0.501961}
    .fil0 {fill:#D7ACA6;fill-opacity:0.501961}
   ]]>
  </style>
 </defs>
 <g
   id="Warstwa_x0020_1"
   transform="translate(-13829.49,-8570.0369)">
  <metadata
   id="CorelCorpID_0Corel-Layer" />
  <g
   id="_2067070215136">
   <path
   class="fil0"
   d="m 16243,10618 c -37,55 -143,159 -313,236 -170,77 -404,127 -634,119 -230,-8 -455,-74 -622,-173 -167,-100 -277,-233 -346,-381 -69,-148 -96,-311 -56,-328 40,-17 147,112 291,224 145,112 327,207 496,264 169,58 324,79 466,89 142,10 269,10 382,-11 112,-21 209,-62 274,-80 65,-18 98,-13 62,41 z"
   id="path7" />
   <path
   class="fil0"
   d="m 16680,9527 c -50,-134 -136,-265 -245,-366 -109,-102 -241,-175 -424,-223 -183,-49 -417,-74 -603,-59 -186,14 -323,68 -457,134 -134,66 -266,145 -367,232 -101,87 -172,181 -227,254 -54,73 -91,125 -115,152 -24,27 -34,28 -45,-12 -12,-41 -26,-124 43,-259 69,-136 221,-324 347,-463 126,-139 225,-229 435,-286 211,-57 532,-80 807,-43 275,36 502,131 660,212 158,81 246,147 314,298 68,151 116,386 118,536 2,150 -43,216 -78,253 -35,36 -59,43 -79,-22 -20,-65 -34,-202 -84,-336 z"
   id="path9" />
   <path
   class="fil1"
   d="m 16760,9935 c 3,-119 3,-266 -58,-417 -61,-151 -183,-307 -398,-425 -215,-118 -522,-198 -797,-193 -274,5 -515,96 -715,264 -199,168 -357,413 -446,537 -89,124 -111,126 -45,223 65,97 217,289 385,425 168,136 352,217 548,271 197,54 406,82 616,53 209,-29 418,-115 567,-197 149,-82 238,-161 285,-246 48,-85 54,-176 58,-295 z"
   id="path11" />
   <path
   class="fil2"
   d="m 16762,9849 c 5,-34 13,-180 -54,-347 -67,-167 -209,-353 -357,-467 -148,-114 -300,-155 -466,-179 -166,-24 -345,-31 -469,-22 -124,9 -193,33 -274,59 -81,26 -174,52 -242,61 -69,9 -113,-1 -179,-30 -66,-29 -154,-78 -197,-136 -43,-58 -40,-126 -47,-127 -7,-1 -25,65 -4,135 20,71 79,147 125,191 46,44 80,56 96,71 16,14 13,30 -13,47 -27,17 -78,35 -150,41 -73,6 -167,1 -243,-26 -76,-27 -132,-77 -160,-101 -28,-25 -28,-25 -9,1 19,26 57,78 124,123 67,46 163,86 220,105 57,19 75,18 76,30 1,12 -16,36 -36,59 -20,23 -43,43 -94,54 -51,11 -131,12 -207,-9 -76,-21 -147,-65 -189,-97 -42,-32 -55,-53 -50,-38 5,15 28,66 91,117 62,51 164,101 221,126 57,25 70,24 69,32 -1,8 -14,25 -41,41 -27,16 -66,31 -129,30 -63,-1 -149,-18 -211,-50 -62,-32 -100,-80 -119,-104 -19,-24 -19,-24 -2,4 16,28 49,84 91,136 41,53 91,102 148,145 57,44 121,83 155,95 34,13 37,0 71,-53 34,-53 100,-146 177,-244 77,-98 165,-201 267,-282 102,-80 219,-137 323,-181 104,-44 195,-75 287,-94 92,-19 185,-25 302,-15 117,10 257,36 377,73 120,37 219,86 301,151 83,65 149,147 201,220 52,73 90,137 123,190 33,53 62,95 78,156 15,61 17,141 22,107 z"
   id="path13" />
   <ellipse
   class="fil3"
   transform="matrix(1.17277,0.285531,-0.285531,1.17277,15539.8,9822.49)"
   rx="607"
   ry="574"
   id="ellipse15"
   cx="0"
   cy="0" />
   <path
   class="fil2"
   d="m 16612,10341 c -136,78 -271,157 -398,212 -127,55 -245,88 -407,95 -162,7 -367,-10 -542,-51 -175,-41 -321,-104 -447,-182 -126,-78 -232,-172 -305,-249 -73,-77 -113,-138 -143,-175 -30,-38 -49,-52 -88,-55 -38,-3 -96,7 -148,38 -52,31 -99,84 -146,137 85,-29 170,-57 229,-57 59,0 92,28 78,66 -14,38 -75,85 -111,120 -36,35 -47,58 -58,82 75,-52 150,-103 226,-97 76,6 153,70 175,107 22,37 -10,48 -49,76 -38,28 -82,72 -126,116 85,-38 169,-77 253,-73 84,3 168,48 232,81 64,33 108,53 110,81 2,28 -38,63 -71,104 -33,41 -59,86 -86,132 115,-60 229,-120 353,-132 124,-13 258,21 426,31 167,10 368,-4 547,-76 179,-72 337,-201 495,-330 z"
   id="path17" />
   <ellipse
   class="fil2"
   transform="matrix(0.485804,0.118277,-0.118277,0.485804,15531.5,9814.83)"
   rx="607"
   ry="574"
   id="ellipse19"
   cx="0"
   cy="0" />
   <path
   class="fil4"
   d="m 15413,9305 c 163,40 264,197 227,351 -37,154 -200,247 -363,207 -163,-40 -264,-197 -227,-351 37,-154 200,-247 363,-207 z"
   id="path21" />
  </g>
 </g>
</svg>
