<?xml version="1.0" encoding="UTF-8" standalone="no"?>
<svg
   xmlns:dc="http://purl.org/dc/elements/1.1/"
   xmlns:cc="http://creativecommons.org/ns#"
   xmlns:rdf="http://www.w3.org/1999/02/22-rdf-syntax-ns#"
   xmlns:svg="http://www.w3.org/2000/svg"
   xmlns="http://www.w3.org/2000/svg"
   xmlns:sodipodi="http://sodipodi.sourceforge.net/DTD/sodipodi-0.dtd"
   xmlns:inkscape="http://www.inkscape.org/namespaces/inkscape"
   xml:space="preserve"
   width="32.289249mm"
   height="25.365074mm"
   version="1.1"
   style="clip-rule:evenodd;fill-rule:evenodd;image-rendering:optimizeQuality;shape-rendering:geometricPrecision;text-rendering:geometricPrecision"
   viewBox="0 0 3228.9249 2536.5074"
   id="svg10"
   sodipodi:docname="pasemko3.svg"
   inkscape:version="1.0.1 (3bc2e813f5, 2020-09-07)"><metadata
   id="metadata14"><rdf:RDF><cc:Work
       rdf:about=""><dc:format>image/svg+xml</dc:format><dc:type
         rdf:resource="http://purl.org/dc/dcmitype/StillImage" /></cc:Work></rdf:RDF></metadata><sodipodi:namedview
   pagecolor="#ffffff"
   bordercolor="#666666"
   borderopacity="1"
   objecttolerance="10"
   gridtolerance="10"
   guidetolerance="10"
   inkscape:pageopacity="0"
   inkscape:pageshadow="2"
   inkscape:window-width="753"
   inkscape:window-height="480"
   id="namedview12"
   showgrid="false"
   inkscape:zoom="1.1162388"
   inkscape:cx="39.807589"
   inkscape:cy="72.833174"
   inkscape:window-x="62"
   inkscape:window-y="0"
   inkscape:window-maximized="0"
   inkscape:current-layer="svg10" />
 <defs
   id="defs4">
  <style
   type="text/css"
   id="style2">
   <![CDATA[
    .fil0 {fill:#6D5346}
   ]]>
  </style>
 </defs>
 <g
   id="Warstwa_x0020_1"
   transform="translate(-13796.758,-8572.9556)">
  <metadata
   id="CorelCorpID_0Corel-Layer" />
  <path
   class="fil0"
   d="m 16998,9812 c -51,-256 -180,-670 -351,-859 -171,-189 -384,-152 -633,-207 -249,-55 -535,-202 -890,-168 -355,34 -778,248 -1037,559 -259,311 -354,720 -247,759 107,39 416,-292 738,-460 323,-169 659,-175 902,-146 243,29 394,94 540,169 146,75 289,159 275,219 -14,60 -184,97 -342,125 -158,28 -304,47 -494,152 -190,105 -424,295 -574,537 -151,241 -218,533 -115,601 103,68 376,-88 675,-224 299,-136 623,-253 879,-224 255,29 441,204 485,146 44,-58 -55,-350 -48,-477 8,-126 123,-88 193,-117 70,-30 96,-128 45,-384 z"
   id="path7" />
 </g>
</svg>
