<?xml version="1.0" encoding="UTF-8" standalone="no"?>
<svg
   xmlns:dc="http://purl.org/dc/elements/1.1/"
   xmlns:cc="http://creativecommons.org/ns#"
   xmlns:rdf="http://www.w3.org/1999/02/22-rdf-syntax-ns#"
   xmlns:svg="http://www.w3.org/2000/svg"
   xmlns="http://www.w3.org/2000/svg"
   xmlns:sodipodi="http://sodipodi.sourceforge.net/DTD/sodipodi-0.dtd"
   xmlns:inkscape="http://www.inkscape.org/namespaces/inkscape"
   xml:space="preserve"
   width="10.50061mm"
   height="30.202702mm"
   version="1.1"
   style="clip-rule:evenodd;fill-rule:evenodd;image-rendering:optimizeQuality;shape-rendering:geometricPrecision;text-rendering:geometricPrecision"
   viewBox="0 0 1050.061 3020.2702"
   id="svg10"
   sodipodi:docname="pasemko7.svg"
   inkscape:version="1.0.1 (3bc2e813f5, 2020-09-07)"><metadata
   id="metadata14"><rdf:RDF><cc:Work
       rdf:about=""><dc:format>image/svg+xml</dc:format><dc:type
         rdf:resource="http://purl.org/dc/dcmitype/StillImage" /></cc:Work></rdf:RDF></metadata><sodipodi:namedview
   pagecolor="#ffffff"
   bordercolor="#666666"
   borderopacity="1"
   objecttolerance="10"
   gridtolerance="10"
   guidetolerance="10"
   inkscape:pageopacity="0"
   inkscape:pageshadow="2"
   inkscape:window-width="1004"
   inkscape:window-height="480"
   id="namedview12"
   showgrid="false"
   inkscape:zoom="1.1162388"
   inkscape:cx="60.992605"
   inkscape:cy="85.677107"
   inkscape:window-x="62"
   inkscape:window-y="0"
   inkscape:window-maximized="0"
   inkscape:current-layer="svg10" />
 <defs
   id="defs4">
  <style
   type="text/css"
   id="style2">
   <![CDATA[
    .fil0 {fill:#E64223}
   ]]>
  </style>
 </defs>
 <g
   id="Warstwa_x0020_1"
   transform="translate(-13236.237,-8233.1266)">
  <metadata
   id="CorelCorpID_0Corel-Layer" />
  <path
   class="fil0"
   d="m 13387,8241 c -47,47 -85,312 -116,507 -32,195 -57,321 -4,436 53,115 185,219 323,259 137,40 280,17 364,67 84,50 108,174 68,280 -41,106 -146,194 -241,287 -94,93 -177,192 -220,278 -42,86 -44,158 1,211 45,54 137,89 193,172 55,83 73,214 67,296 -7,82 -38,114 -62,144 -24,29 -40,56 -49,69 -8,13 -8,13 50,-67 58,-80 174,-239 188,-384 14,-145 -75,-277 -60,-383 16,-107 136,-189 230,-349 94,-160 162,-397 167,-568 5,-170 -53,-274 -161,-345 -108,-71 -264,-110 -369,-207 -104,-97 -157,-252 -211,-415 -55,-163 -111,-335 -159,-288 z"
   id="path7" />
 </g>
</svg>
