<?xml version="1.0" encoding="UTF-8" standalone="no"?>
<svg
   xmlns:dc="http://purl.org/dc/elements/1.1/"
   xmlns:cc="http://creativecommons.org/ns#"
   xmlns:rdf="http://www.w3.org/1999/02/22-rdf-syntax-ns#"
   xmlns:svg="http://www.w3.org/2000/svg"
   xmlns="http://www.w3.org/2000/svg"
   xmlns:sodipodi="http://sodipodi.sourceforge.net/DTD/sodipodi-0.dtd"
   xmlns:inkscape="http://www.inkscape.org/namespaces/inkscape"
   xml:space="preserve"
   width="81.294411mm"
   height="87.001427mm"
   version="1.0"
   style="clip-rule:evenodd;fill-rule:evenodd;image-rendering:optimizeQuality;shape-rendering:geometricPrecision;text-rendering:geometricPrecision"
   viewBox="0 0 8129.4411 8700.1427"
   id="svg69"
   sodipodi:docname="face.svg"
   inkscape:version="1.0.1 (3bc2e813f5, 2020-09-07)"><metadata
   id="metadata73"><rdf:RDF><cc:Work
       rdf:about=""><dc:format>image/svg+xml</dc:format><dc:type
         rdf:resource="http://purl.org/dc/dcmitype/StillImage" /><dc:title /></cc:Work></rdf:RDF></metadata><sodipodi:namedview
   pagecolor="#ffffff"
   bordercolor="#666666"
   borderopacity="1"
   objecttolerance="10"
   gridtolerance="10"
   guidetolerance="10"
   inkscape:pageopacity="0"
   inkscape:pageshadow="2"
   inkscape:window-width="1858"
   inkscape:window-height="1057"
   id="namedview71"
   showgrid="false"
   inkscape:zoom="1.5786001"
   inkscape:cx="-24.817285"
   inkscape:cy="219.79308"
   inkscape:window-x="54"
   inkscape:window-y="-8"
   inkscape:window-maximized="1"
   inkscape:current-layer="nordic"
   inkscape:document-rotation="0" />
 <defs
   id="defs4">
  <style
   type="text/css"
   id="style2">
   <![CDATA[
    .fil2 {fill:#FEFEFE}
    .fil0 {fill:#FCECE9}
    .fil11 {fill:#E4B9AF}
    .fil5 {fill:#4E565A}
    .fil4 {fill:#B0BFCA}
    .fil3 {fill:#7D5C4D}
    .fil8 {fill:#CDB3A2}
    .fil9 {fill:#D4655E}
    .fil10 {fill:#E3C9B8}
    .fil6 {fill:#FEFEFE;fill-opacity:0.501961}
    .fil7 {fill:#EABEB6;fill-opacity:0.501961}
    .fil1 {fill:#CD877A;fill-opacity:0.501961}
   ]]>
  </style>
 
   
   
   
   
   
   
   
   
   
   
   
   
   
   
  </defs>
 <g
   id="nordic"
   transform="translate(-13457.096,-5938.8577)">
  <metadata
   id="CorelCorpID_0Corel-Layer" />
  <path
   class="fil0 face"
   d="m 20296,8087 c 187,404 324,987 299,1677 -25,690 -212,1485 -451,2148 -240,663 -532,1194 -909,1593 -377,399 -838,667 -1250,812 -412,145 -776,168 -1252,17 -476,-152 -1065,-477 -1505,-1082 -441,-605 -733,-1489 -858,-2302 -124,-813 -81,-1556 59,-2169 140,-613 377,-1096 750,-1450 373,-354 884,-578 1463,-657 579,-80 1226,-15 1736,103 510,118 884,289 1189,486 305,197 541,421 728,825 z"
   id="nordic__face"
   style="opacity:1" /><g
   id="nordic__eye-left"
   style="opacity:1"
   class="face">
    <path
   class="fil1"
   d="m 16533,10995 c -12,32 -53,98 -130,159 -77,60 -190,114 -307,139 -118,24 -240,19 -337,-11 -97,-30 -170,-84 -223,-151 -53,-67 -87,-146 -69,-160 18,-13 88,39 176,78 87,39 192,65 284,73 93,8 174,0 248,-13 73,-12 138,-28 193,-53 55,-24 99,-57 129,-75 31,-17 48,-19 36,13 z"
   id="path9" />
    <path
   class="fil1"
   d="m 16620,10387 c -42,-62 -102,-118 -170,-156 -68,-38 -144,-59 -243,-61 -99,-2 -221,14 -314,45 -93,30 -156,74 -216,125 -60,50 -117,107 -158,163 -41,57 -65,113 -84,157 -18,44 -31,75 -39,91 -9,17 -14,19 -25,-1 -11,-19 -28,-60 -10,-137 18,-77 72,-192 119,-278 47,-86 86,-144 186,-199 100,-55 261,-106 405,-122 144,-16 271,5 361,26 90,22 143,45 196,113 53,68 107,182 126,258 19,76 5,115 -8,138 -13,23 -25,29 -43,-1 -18,-31 -42,-99 -84,-160 z"
   id="path11" />
    <path
   class="fil2"
   d="m 16711,10585 c -13,-61 -31,-135 -81,-205 -50,-69 -131,-134 -255,-167 -124,-33 -290,-36 -429,1 -139,37 -250,113 -330,223 -80,110 -130,254 -160,328 -30,74 -41,78 5,119 45,41 146,120 248,168 102,48 205,67 312,70 107,3 217,-9 319,-49 103,-41 198,-110 264,-170 65,-60 101,-111 115,-160 14,-49 6,-96 -7,-157 z"
   id="path13" />
    <path
   class="fil3"
   d="m 16701,10541 c -2,-18 -16,-93 -70,-170 -55,-76 -150,-154 -239,-193 -89,-40 -172,-42 -259,-33 -87,8 -179,27 -241,47 -62,20 -94,41 -132,64 -38,23 -82,48 -116,61 -34,13 -57,14 -95,7 -37,-7 -88,-21 -117,-45 -29,-24 -36,-59 -40,-59 -4,0 -5,36 15,69 19,33 58,65 87,81 29,17 48,19 57,24 10,5 10,14 -1,25 -11,12 -35,27 -71,39 -36,12 -85,21 -127,17 -42,-5 -77,-23 -94,-32 -17,-9 -17,-9 -5,2 13,11 39,32 78,47 40,15 93,23 125,26 31,3 40,0 42,6 2,6 -4,21 -11,34 -7,14 -16,27 -41,39 -25,12 -65,22 -106,21 -41,-1 -83,-15 -108,-26 -25,-11 -34,-20 -30,-13 5,7 23,30 61,48 38,18 96,31 128,37 32,6 38,3 39,8 1,4 -4,15 -16,26 -11,11 -30,24 -62,31 -32,7 -78,9 -113,1 -35,-9 -61,-28 -73,-38 -13,-10 -13,-10 -1,2 12,12 35,37 63,58 27,22 59,40 93,56 34,15 72,27 90,29 19,2 19,-4 30,-36 11,-31 33,-86 60,-146 27,-59 59,-123 101,-176 42,-53 94,-97 142,-132 47,-35 90,-62 134,-83 45,-21 91,-35 152,-45 61,-9 135,-14 200,-9 65,4 122,17 172,40 50,23 94,56 129,87 35,31 63,58 86,81 24,23 43,41 59,70 15,29 26,69 25,52 z"
   id="path15" />
    <ellipse
   class="fil4"
   cx="16077"
   cy="10678"
   rx="383"
   ry="362"
   id="ellipse17" />
    <path
   class="fil3"
   d="m 16686,10809 c -59,57 -119,113 -176,157 -58,44 -114,75 -195,99 -81,24 -188,40 -282,41 -94,1 -176,-13 -249,-37 -74,-24 -139,-59 -186,-89 -47,-30 -74,-56 -94,-71 -20,-15 -31,-20 -51,-17 -20,3 -48,15 -70,38 -23,22 -40,55 -57,88 40,-25 79,-50 109,-57 30,-7 50,3 48,24 -2,21 -27,52 -41,74 -14,22 -17,35 -19,49 32,-35 63,-71 103,-77 39,-6 86,17 102,33 16,16 1,26 -15,45 -16,19 -33,47 -50,75 38,-30 77,-60 120,-69 43,-9 91,4 128,13 37,9 62,14 66,27 5,14 -11,37 -23,62 -12,25 -19,51 -27,78 51,-45 102,-89 163,-111 62,-22 134,-21 220,-37 86,-16 186,-48 269,-106 82,-59 146,-144 211,-229 z"
   id="path19" />
    <ellipse
   class="fil5"
   cx="16072"
   cy="10675"
   rx="159"
   ry="150"
   id="ellipse21" />
    <path
   class="fil6"
   d="m 15949,10431 c 88,0 159,67 159,150 0,83 -71,150 -159,150 -88,0 -159,-67 -159,-150 0,-83 71,-150 159,-150 z"
   id="path23" />
   </g><path
   class="fil3  face"
   d="m 16783,9942 c -62,-28 -159,-78 -313,-119 -155,-42 -367,-75 -533,-71 -166,5 -286,48 -390,105 -104,57 -192,128 -221,139 -29,11 0,-38 85,-129 85,-91 227,-223 339,-297 112,-74 196,-89 359,-75 164,14 409,57 573,99 165,42 249,84 290,133 41,49 38,106 18,151 -20,45 -57,77 -89,89 -32,12 -58,5 -119,-24 z"
   id="nordic__eyebrow-left"
   style="opacity:1" /><g
   id="nordic__eye-right"
   style="opacity:1"
   class="face">
    <path
   class="fil1"
   d="m 18127,10956 c 12,32 53,98 130,159 77,60 190,114 307,139 118,24 240,19 337,-11 97,-30 170,-84 223,-151 53,-67 87,-146 69,-160 -18,-13 -88,39 -176,78 -87,39 -192,65 -284,73 -93,8 -174,0 -248,-13 -73,-12 -138,-28 -193,-53 -55,-24 -99,-57 -129,-75 -31,-17 -48,-19 -36,13 z"
   id="path29" />
    <path
   class="fil1"
   d="m 18062,10352 c 42,-62 102,-118 170,-156 68,-38 144,-59 243,-61 99,-2 221,14 314,45 93,30 156,74 216,125 60,50 117,107 158,163 41,57 65,113 84,157 18,44 31,75 39,91 9,17 14,19 25,-1 11,-19 28,-60 10,-137 -18,-77 -72,-192 -119,-278 -47,-86 -86,-144 -186,-199 -100,-55 -261,-106 -405,-122 -144,-16 -271,5 -361,26 -90,22 -143,45 -196,113 -53,68 -107,182 -126,258 -19,76 -5,115 8,138 13,23 25,29 43,-1 18,-31 42,-99 84,-160 z"
   id="path31" />
    <path
   class="fil2"
   d="m 17972,10549 c 13,-61 31,-135 81,-205 50,-69 131,-134 255,-167 124,-33 290,-36 429,1 139,37 250,113 330,223 80,110 130,254 160,328 30,74 41,78 -5,119 -45,41 -146,120 -248,168 -102,48 -205,67 -312,70 -107,3 -217,-9 -319,-49 -103,-41 -198,-110 -264,-170 -65,-60 -101,-111 -115,-160 -14,-49 -6,-96 7,-157 z"
   id="path33" />
    <path
   class="fil3"
   d="m 17981,10505 c 2,-18 16,-93 70,-170 55,-76 150,-154 239,-193 89,-40 172,-42 259,-33 87,8 179,27 241,47 62,20 94,41 132,64 38,23 82,48 115,61 34,13 57,14 95,7 37,-7 88,-21 117,-45 29,-24 36,-59 40,-59 4,0 5,36 -15,69 -19,33 -58,65 -87,81 -29,17 -48,19 -57,24 -10,5 -10,14 1,25 11,12 35,27 71,39 36,12 85,21 127,17 42,-5 77,-23 94,-32 17,-9 17,-9 5,2 -13,11 -39,32 -78,47 -40,15 -93,23 -125,26 -31,3 -40,0 -42,6 -2,6 4,21 11,34 7,14 16,27 41,39 25,12 65,22 106,21 41,-1 83,-15 108,-26 25,-11 34,-20 30,-13 -5,7 -23,30 -61,48 -38,18 -96,31 -128,37 -32,6 -38,3 -39,8 -1,4 4,15 16,26 11,11 30,24 62,31 32,7 78,9 113,1 35,-9 61,-28 73,-38 13,-10 13,-10 1,2 -12,12 -35,37 -63,58 -27,22 -59,40 -93,56 -34,15 -72,27 -90,29 -19,2 -19,-4 -30,-36 -11,-31 -33,-86 -60,-146 -27,-59 -59,-123 -101,-176 -42,-53 -94,-97 -142,-132 -47,-35 -90,-62 -134,-83 -45,-21 -91,-35 -152,-45 -61,-9 -135,-14 -200,-9 -65,4 -122,17 -172,40 -50,23 -94,56 -129,87 -35,31 -63,58 -86,81 -24,23 -43,41 -59,70 -15,29 -26,69 -25,52 z"
   id="path35" />
    <ellipse
   class="fil4"
   cx="18605"
   cy="10643"
   rx="383"
   ry="362"
   id="ellipse37" />
    <path
   class="fil3"
   d="m 17997,10774 c 59,57 119,113 176,157 58,44 114,75 195,99 81,24 188,40 282,41 94,1 176,-13 249,-37 74,-24 139,-59 186,-89 47,-30 74,-56 94,-71 20,-15 31,-20 51,-17 20,3 48,15 70,38 23,22 40,55 57,88 -40,-25 -79,-50 -109,-57 -30,-7 -50,3 -48,24 2,21 27,52 41,74 14,22 17,35 19,49 -32,-35 -63,-71 -103,-77 -39,-6 -86,17 -102,33 -16,16 -1,26 15,45 16,19 33,47 50,75 -38,-30 -77,-60 -120,-69 -43,-9 -91,4 -128,13 -37,9 -62,14 -66,27 -5,14 11,37 23,62 12,25 19,51 27,78 -51,-45 -102,-89 -163,-111 -62,-22 -134,-21 -220,-37 -86,-16 -186,-48 -269,-106 -82,-59 -146,-144 -211,-229 z"
   id="path39" />
    <ellipse
   class="fil5"
   cx="18611"
   cy="10640"
   rx="159"
   ry="150"
   id="ellipse41" />
    <path
   class="fil6"
   d="m 18454,10396 c -88,0 -159,67 -159,150 0,83 71,150 159,150 88,0 159,-67 159,-150 0,-83 -71,-150 -159,-150 z"
   id="path43" />
   </g><path
   class="fil3 face"
   d="m 17986,9934 c 62,-28 159,-78 313,-119 155,-42 367,-75 533,-71 166,5 286,48 390,105 104,57 192,128 221,139 29,11 0,-38 -85,-129 -85,-91 -227,-223 -339,-297 -112,-74 -196,-89 -359,-75 -164,14 -409,57 -573,99 -165,42 -249,84 -290,133 -41,49 -38,106 -18,151 20,45 57,77 89,89 32,12 58,5 119,-24 z"
   id="nordic__eyebrow-right"
   style="opacity:1" /><path
   class="fil7 face"
   d="m 15965,13994 c -247,-191 -498,-427 -712,-718 -275,-372 -489,-833 -644,-1315 47,-47 130,-61 260,1 201,96 513,375 689,634 176,259 214,500 259,717 45,217 95,411 127,558 10,46 18,88 22,123 z"
   id="nordic__cheek-left"
   style="opacity:1" /><path
   class="fil7 face"
   d="m 20148,11899 c -49,-16 -116,-9 -206,34 -201,96 -513,375 -689,634 -35,52 -585,1393 -589,1409 171,-128 339,-268 489,-417 457,-454 750,-984 990,-1647 z"
   id="nordic__cheek-right"
   style="opacity:1" /><path
   class="fil8 face"
   d="m 18379,8126 c 350,392 883,1166 1162,1828 279,662 305,1211 217,1932 -88,721 -290,1613 -331,2115 -41,502 80,613 264,629 184,16 431,-64 706,-95 276,-31 581,-12 759,-1 178,11 229,14 301,-384 72,-398 166,-1198 115,-2389 -51,-1191 -246,-2773 -804,-3863 -558,-1090 -1478,-1689 -2148,-1882 -670,-192 -1089,22 -1302,128 -213,105 -220,101 -372,25 -152,-76 -448,-222 -833,-170 -385,52 -859,304 -1258,692 -399,388 -724,912 -947,2119 -223,1207 -345,3095 -410,4161 -65,1066 -74,1309 136,1450 211,141 641,179 1071,217 416,-36 831,-73 888,-245 57,-173 -246,-481 -425,-904 -179,-423 -235,-959 -270,-1398 -35,-438 -48,-778 -1,-1161 47,-383 155,-809 289,-1212 134,-403 294,-783 476,-1076 182,-293 386,-499 557,-644 171,-145 309,-230 462,-243 153,-12 322,47 494,52 172,5 346,-45 516,-65 171,-20 338,-10 688,382 z"
   id="nordic__hair"
   style="opacity:1" /><path
   class="fil9 face"
   d="m 17759,12920 c -89,-26 -152,-55 -206,-59 -54,-4 -98,18 -133,35 -14,7 -26,13 -37,18 -8,-4 -17,-9 -27,-14 -34,-17 -79,-38 -133,-35 -54,4 -117,33 -206,59 -119,35 -276,84 -394,111 -34,8 -79,8 -91,22 -12,14 10,42 48,56 205,79 -63,398 791,388 811,-9 641,-321 828,-393 38,-15 60,-42 48,-56 -12,-14 -58,-14 -91,-22 -114,-26 -286,-79 -394,-111 z m -461,205 c 105,17 85,15 211,3 -46,33 -83,76 -115,76 0,0 -198,-95 -96,-79 z"
   id="nordic__lips"
   style="opacity:1" /><path
   class="fil10 face"
   d="m 17081,6968 c -27,-111 -94,-291 -190,-417 -96,-126 -220,-200 -350,-224 -130,-24 -267,1 -446,61 -179,59 -400,152 -536,287 -136,135 -185,312 -129,329 56,17 217,-127 386,-200 169,-73 345,-76 472,-63 127,13 206,41 282,73 77,32 151,69 144,95 -7,26 -96,42 -179,54 -83,12 -159,20 -258,66 -99,46 -222,128 -300,233 -79,105 -114,231 -60,261 54,30 197,-38 353,-97 156,-59 326,-110 459,-97 133,13 231,89 253,63 23,-25 -29,-152 -25,-207 4,-55 64,-38 101,-51 37,-13 50,-55 24,-167 z"
   id="nordic__strand-four"
   style="opacity:1" /><path
   class="fil10 face"
   d="m 17396,6976 c 27,-111 94,-291 190,-417 96,-126 220,-200 350,-224 130,-24 267,1 446,61 179,59 400,152 536,287 136,135 185,312 129,329 -56,17 -217,-127 -386,-200 -169,-73 -345,-76 -472,-63 -127,13 -206,41 -282,73 -77,32 -151,69 -144,95 7,26 96,42 179,54 83,12 159,20 258,66 99,46 222,128 300,233 79,105 114,231 60,261 -54,30 -197,-38 -353,-97 -156,-59 -326,-110 -459,-97 -133,13 -231,89 -253,63 -23,-25 29,-152 25,-207 -4,-55 -64,-38 -101,-51 -37,-13 -50,-55 -24,-167 z"
   id="nordic__strand-three"
   style="opacity:1" /><path
   class="fil10 face"
   d="m 20124,14579 c 87,-16 179,-33 274,-43 186,-21 385,-19 550,-12 28,-534 -10,-1172 -72,-1816 -106,-1105 -280,-2231 -331,-2445 -51,-214 22,483 44,1205 22,722 -7,1470 -209,2263 -72,285 -167,576 -255,849 z"
   id="nordic_strand-two"
   style="opacity:1" /><path
   class="fil10 face"
   d="m 13951,14542 c 216,49 485,73 755,97 l 18,-2 c -70,-219 -140,-445 -197,-667 -201,-792 -231,-1540 -209,-2263 22,-722 94,-1419 44,-1205 -51,214 -225,1340 -331,2445 -54,558 -90,1110 -80,1595 z"
   id="nordic__strand-one"
   style="opacity:1" /><path
   class="fil11 face"
   d="m 17405,10679 c 70,21 146,98 211,265 65,168 120,426 178,667 59,240 121,462 103,568 -19,106 -118,97 -184,116 -65,19 -96,67 -126,105 -30,39 -58,69 -78,97 -20,28 -33,53 -71,63 -38,10 -102,6 -137,-12 -35,-18 -43,-49 -57,-79 -14,-30 -35,-60 -65,-76 -30,-17 -69,-21 -97,-18 -28,3 -44,14 -93,-9 -49,-23 -131,-79 -130,-196 1,-116 84,-292 127,-467 43,-176 44,-351 74,-514 30,-163 88,-314 149,-406 61,-92 124,-125 194,-104 z"
   id="nordic__nose"
   style="opacity:1" />
 </g>
</svg>
