<?xml version="1.0" encoding="UTF-8" standalone="no"?>
<svg
   xmlns:dc="http://purl.org/dc/elements/1.1/"
   xmlns:cc="http://creativecommons.org/ns#"
   xmlns:rdf="http://www.w3.org/1999/02/22-rdf-syntax-ns#"
   xmlns:svg="http://www.w3.org/2000/svg"
   xmlns="http://www.w3.org/2000/svg"
   xmlns:sodipodi="http://sodipodi.sourceforge.net/DTD/sodipodi-0.dtd"
   xmlns:inkscape="http://www.inkscape.org/namespaces/inkscape"
   xml:space="preserve"
   width="37.457832mm"
   height="30.288525mm"
   version="1.0"
   style="clip-rule:evenodd;fill-rule:evenodd;image-rendering:optimizeQuality;shape-rendering:geometricPrecision;text-rendering:geometricPrecision"
   viewBox="0 0 3745.7832 3028.8525"
   id="svg25"
   sodipodi:docname="oko1.svg"
   inkscape:version="1.0.1 (3bc2e813f5, 2020-09-07)"><metadata
   id="metadata29"><rdf:RDF><cc:Work
       rdf:about=""><dc:format>image/svg+xml</dc:format><dc:type
         rdf:resource="http://purl.org/dc/dcmitype/StillImage" /></cc:Work></rdf:RDF></metadata><sodipodi:namedview
   pagecolor="#ffffff"
   bordercolor="#666666"
   borderopacity="1"
   objecttolerance="10"
   gridtolerance="10"
   guidetolerance="10"
   inkscape:pageopacity="0"
   inkscape:pageshadow="2"
   inkscape:window-width="1004"
   inkscape:window-height="480"
   id="namedview27"
   showgrid="false"
   inkscape:zoom="1.1162388"
   inkscape:cx="37.606554"
   inkscape:cy="68.753784"
   inkscape:window-x="62"
   inkscape:window-y="0"
   inkscape:window-maximized="0"
   inkscape:current-layer="svg25" />
 <defs
   id="defs4">
  <style
   type="text/css"
   id="style2">
   <![CDATA[
    .fil1 {fill:#FEFEFE}
    .fil4 {fill:#4E565A}
    .fil3 {fill:#B0BFCA}
    .fil2 {fill:#7D5C4D}
    .fil5 {fill:#FEFEFE;fill-opacity:0.501961}
    .fil0 {fill:#CD877A;fill-opacity:0.501961}
   ]]>
  </style>
 </defs>
 <g
   id="Warstwa_x0020_1"
   transform="translate(-13854.993,-8680.8895)">
  <metadata
   id="CorelCorpID_0Corel-Layer" />
  <g
   id="_2067242748832">
   <path
   class="fil0"
   d="m 17060,10980 c -28,75 -123,230 -303,370 -179,140 -442,267 -716,324 -274,57 -560,44 -787,-26 -227,-70 -396,-196 -520,-352 -124,-156 -203,-341 -161,-372 42,-31 206,91 410,182 204,91 447,150 663,170 217,20 407,-1 578,-29 171,-29 322,-66 449,-123 127,-57 230,-134 302,-174 72,-40 113,-44 85,31 z"
   id="path7" />
   <path
   class="fil0"
   d="m 17264,9562 c -98,-144 -237,-274 -396,-363 -158,-89 -336,-137 -567,-142 -231,-5 -515,33 -731,104 -216,71 -363,174 -503,291 -140,117 -273,249 -368,380 -95,132 -152,264 -195,366 -43,102 -72,174 -92,213 -20,39 -31,43 -57,-1 -26,-45 -66,-139 -24,-320 43,-181 169,-447 277,-648 109,-201 200,-336 433,-464 233,-128 608,-248 944,-284 336,-37 633,11 843,61 210,50 333,104 457,263 124,159 249,423 294,601 45,178 11,268 -19,322 -31,53 -58,68 -100,-3 -42,-72 -99,-230 -197,-374 z"
   id="path9" />
   <path
   class="fil1"
   d="m 17475,10023 c -31,-142 -73,-316 -189,-478 -116,-162 -305,-311 -594,-389 -288,-78 -676,-84 -999,2 -323,85 -583,262 -771,519 -188,256 -304,592 -374,764 -70,172 -95,182 11,278 105,96 340,279 578,392 238,113 479,156 728,163 249,8 505,-20 745,-114 240,-95 462,-256 615,-397 153,-140 235,-259 267,-374 32,-114 14,-224 -17,-366 z"
   id="path11" />
   <path
   class="fil2"
   d="m 17453,9920 c -4,-41 -36,-217 -164,-395 -127,-178 -350,-358 -557,-451 -208,-92 -401,-97 -604,-78 -204,19 -418,63 -562,109 -144,46 -219,95 -307,148 -88,54 -191,112 -269,142 -79,30 -134,32 -221,16 -87,-15 -205,-48 -273,-105 -67,-57 -84,-138 -92,-137 -9,1 -11,84 34,161 45,78 135,151 203,190 67,39 111,44 134,56 23,12 24,32 -2,59 -27,28 -82,63 -166,92 -84,28 -198,49 -295,39 -97,-11 -178,-53 -219,-74 -41,-21 -41,-21 -11,4 30,25 90,75 182,110 92,35 217,54 290,61 73,6 94,0 98,14 4,14 -9,48 -26,80 -17,32 -38,63 -96,91 -58,28 -152,52 -247,49 -96,-3 -193,-34 -252,-60 -59,-26 -80,-47 -70,-31 11,16 53,70 141,112 88,42 223,73 298,86 75,13 89,8 91,18 2,10 -10,34 -36,61 -27,27 -69,56 -144,73 -75,17 -182,22 -264,2 -83,-20 -141,-66 -170,-88 -29,-23 -29,-23 -2,6 28,28 83,85 147,135 64,50 137,94 217,130 80,36 167,63 211,68 44,6 43,-10 69,-83 25,-73 76,-202 139,-340 63,-138 137,-286 235,-410 98,-124 220,-226 330,-308 110,-82 209,-145 313,-194 104,-49 213,-83 354,-105 141,-22 315,-32 467,-22 152,10 284,39 401,92 117,54 219,131 302,203 83,71 146,136 201,190 55,53 101,95 137,163 36,68 61,162 57,120 z"
   id="path13" />
   <ellipse
   class="fil3"
   cx="15998"
   cy="10241"
   rx="893"
   ry="844"
   id="ellipse15" />
   <path
   class="fil2"
   d="m 17417,10546 c -138,132 -276,264 -411,366 -135,102 -265,175 -455,230 -190,55 -438,93 -657,96 -219,3 -410,-30 -582,-87 -172,-57 -324,-137 -433,-207 -109,-70 -173,-131 -219,-166 -46,-36 -73,-47 -120,-39 -46,8 -111,36 -164,88 -53,52 -93,128 -134,204 92,-58 185,-117 255,-134 70,-17 117,7 111,56 -6,49 -64,122 -97,174 -32,52 -39,83 -45,114 74,-83 148,-165 240,-180 92,-15 201,39 238,77 37,38 2,60 -36,104 -37,44 -77,109 -116,174 89,-70 178,-140 279,-160 101,-20 212,9 298,29 85,20 144,32 154,64 11,32 -27,86 -54,144 -28,58 -45,119 -63,181 118,-104 237,-208 380,-259 144,-51 312,-49 513,-86 201,-37 435,-111 626,-248 192,-137 342,-335 491,-534 z"
   id="path17" />
   <ellipse
   class="fil4"
   cx="15986"
   cy="10234"
   rx="370"
   ry="350"
   id="ellipse19" />
   <path
   class="fil5"
   d="m 15699,9664 c 204,0 370,157 370,350 0,193 -166,350 -370,350 -204,0 -370,-157 -370,-350 0,-193 166,-350 370,-350 z"
   id="path21" />
  </g>
 </g>
</svg>
