<?xml version="1.0" encoding="UTF-8" standalone="no"?>
<svg
   xmlns:dc="http://purl.org/dc/elements/1.1/"
   xmlns:cc="http://creativecommons.org/ns#"
   xmlns:rdf="http://www.w3.org/1999/02/22-rdf-syntax-ns#"
   xmlns:svg="http://www.w3.org/2000/svg"
   xmlns="http://www.w3.org/2000/svg"
   xmlns:sodipodi="http://sodipodi.sourceforge.net/DTD/sodipodi-0.dtd"
   xmlns:inkscape="http://www.inkscape.org/namespaces/inkscape"
   xml:space="preserve"
   width="39.374229mm"
   height="28.257357mm"
   version="1.0"
   style="clip-rule:evenodd;fill-rule:evenodd;image-rendering:optimizeQuality;shape-rendering:geometricPrecision;text-rendering:geometricPrecision"
   viewBox="0 0 3937.4229 2825.7357"
   id="svg10"
   sodipodi:docname="pasemko2.svg"
   inkscape:version="1.0.1 (3bc2e813f5, 2020-09-07)"><metadata
   id="metadata14"><rdf:RDF><cc:Work
       rdf:about=""><dc:format>image/svg+xml</dc:format><dc:type
         rdf:resource="http://purl.org/dc/dcmitype/StillImage" /><dc:title></dc:title></cc:Work></rdf:RDF></metadata><sodipodi:namedview
   pagecolor="#ffffff"
   bordercolor="#666666"
   borderopacity="1"
   objecttolerance="10"
   gridtolerance="10"
   guidetolerance="10"
   inkscape:pageopacity="0"
   inkscape:pageshadow="2"
   inkscape:window-width="1004"
   inkscape:window-height="480"
   id="namedview12"
   showgrid="false"
   fit-margin-top="0"
   fit-margin-left="0"
   fit-margin-right="0"
   fit-margin-bottom="0"
   inkscape:zoom="1.1162388"
   inkscape:cx="20.977021"
   inkscape:cy="73.863143"
   inkscape:window-x="150"
   inkscape:window-y="104"
   inkscape:window-maximized="0"
   inkscape:current-layer="svg10" />
 <defs
   id="defs4">
  <style
   type="text/css"
   id="style2">
   <![CDATA[
    .fil0 {fill:#E3C9B8}
   ]]>
  </style>
 </defs>
 <g
   id="Warstwa_x0020_1"
   transform="translate(-14294.983,-7459.996)">
  <metadata
   id="CorelCorpID_0Corel-Layer" />
  <path
   class="fil0"
   d="m 14329,8975 c 63,-259 220,-678 443,-973 223,-295 513,-466 817,-521 304,-56 622,3 1040,141 417,138 934,354 1249,669 316,315 432,728 302,768 -130,39 -507,-295 -900,-466 -393,-171 -803,-177 -1100,-148 -297,30 -480,95 -659,171 -179,75 -352,161 -335,222 17,61 224,98 417,126 193,28 371,48 602,154 232,106 517,299 700,543 184,244 266,539 140,608 -125,69 -458,-89 -823,-226 -364,-138 -760,-256 -1071,-226 -311,30 -538,207 -591,148 -53,-59 68,-354 58,-482 -10,-128 -150,-89 -235,-119 -86,-30 -118,-129 -55,-389 z"
   id="path7" />
 </g>
</svg>
