<?xml version="1.0" encoding="UTF-8" standalone="no"?>
<svg
   xmlns:dc="http://purl.org/dc/elements/1.1/"
   xmlns:cc="http://creativecommons.org/ns#"
   xmlns:rdf="http://www.w3.org/1999/02/22-rdf-syntax-ns#"
   xmlns:svg="http://www.w3.org/2000/svg"
   xmlns="http://www.w3.org/2000/svg"
   xmlns:sodipodi="http://sodipodi.sourceforge.net/DTD/sodipodi-0.dtd"
   xmlns:inkscape="http://www.inkscape.org/namespaces/inkscape"
   xml:space="preserve"
   width="162.55965mm"
   height="91.439796mm"
   version="1.0"
   style="clip-rule:evenodd;fill-rule:evenodd;image-rendering:optimizeQuality;shape-rendering:geometricPrecision;text-rendering:geometricPrecision"
   viewBox="0 0 16255.965 9144"
   id="svg85"
   sodipodi:docname="preview.svg"
   inkscape:version="1.0.1 (3bc2e813f5, 2020-09-07)"><metadata
   id="metadata89"><rdf:RDF><cc:Work
       rdf:about=""><dc:format>image/svg+xml</dc:format><dc:type
         rdf:resource="http://purl.org/dc/dcmitype/StillImage" /></cc:Work></rdf:RDF></metadata><sodipodi:namedview
   pagecolor="#ffffff"
   bordercolor="#666666"
   borderopacity="1"
   objecttolerance="10"
   gridtolerance="10"
   guidetolerance="10"
   inkscape:pageopacity="0"
   inkscape:pageshadow="2"
   inkscape:window-width="1004"
   inkscape:window-height="480"
   id="namedview87"
   showgrid="false"
   inkscape:zoom="2.0393881"
   inkscape:cx="307.19934"
   inkscape:cy="172.79962"
   inkscape:window-x="62"
   inkscape:window-y="0"
   inkscape:window-maximized="0"
   inkscape:current-layer="svg85" />
 <defs
   id="defs4">
  <style
   type="text/css"
   id="style2">
   <![CDATA[
    .fil0 {fill:#FEFEFE}
    .fil3 {fill:#FCECE9}
    .fil13 {fill:#E4B9AF}
    .fil7 {fill:#4E565A}
    .fil6 {fill:#B0BFCA}
    .fil2 {fill:#7688A1}
    .fil5 {fill:#7D5C4D}
    .fil10 {fill:#CDB3A2}
    .fil11 {fill:#D4655E}
    .fil12 {fill:#E3C9B8}
    .fil1 {fill:#7688A1;fill-rule:nonzero}
    .fil8 {fill:#FEFEFE;fill-opacity:0.501961}
    .fil9 {fill:#EABEB6;fill-opacity:0.501961}
    .fil4 {fill:#CD877A;fill-opacity:0.501961}
   ]]>
  </style>
 </defs>
 <g
   id="Warstwa_x0020_1"
   transform="translate(-0.01731523)">
  <metadata
   id="CorelCorpID_0Corel-Layer" />
  <rect
   class="fil0"
   width="16256"
   height="9144"
   id="rect7"
   x="0"
   y="0" />
  <path
   class="fil1"
   d="m 6031,1060 h 62 V 944 c 0,-12 1,-23 5,-34 9,-30 34,-51 68,-51 32,0 40,21 40,51 v 116 c 0,24 10,34 34,34 h 60 v -53 h -20 c -7,0 -11,-4 -11,-11 v -98 c 0,-67 -32,-96 -88,-96 -51,0 -78,31 -89,52 h -1 c 0,0 1,-5 1,-11 v -7 c 0,-18 -11,-28 -33,-28 h -58 v 53 h 20 c 7,0 11,3 11,11 v 188 z m 292,-126 c 0,78 61,132 138,132 77,0 138,-54 138,-132 0,-77 -61,-132 -138,-132 -77,0 -138,55 -138,132 z m 63,0 c 0,-46 34,-79 75,-79 41,0 75,32 75,79 0,47 -34,79 -75,79 -41,0 -75,-32 -75,-79 z m 270,126 h 62 V 960 c 0,-15 2,-29 5,-41 11,-38 42,-53 69,-53 9,0 15,1 15,1 v -62 c 0,0 -6,-1 -11,-1 -39,0 -69,29 -80,65 h -1 c 0,0 1,-6 1,-16 v -15 c 0,-21 -11,-31 -34,-31 h -57 v 53 h 20 c 7,0 11,3 11,11 v 188 z m 169,-126 c 0,78 44,132 112,132 58,0 79,-41 79,-41 h 1 c 0,0 0,4 0,9 0,15 8,26 31,26 h 58 v -53 h -19 c -7,0 -11,-4 -11,-11 V 743 c 0,-23 -10,-34 -34,-34 h -60 v 53 h 20 c 7,0 11,3 11,11 v 44 c 0,8 0,15 0,15 h -1 c 0,0 -18,-31 -73,-31 -67,0 -115,52 -115,132 z m 126,79 c -37,0 -62,-31 -62,-79 0,-50 29,-78 63,-78 42,0 62,39 62,78 0,56 -31,80 -63,80 z m 190,81 -24,44 c 0,0 24,26 64,26 38,0 73,-20 91,-66 l 90,-228 c 3,-7 7,-9 14,-9 h 7 v -53 h -42 c -17,0 -28,6 -34,24 l -43,126 c -4,13 -8,34 -8,34 h -1 c 0,0 -4,-21 -9,-34 l -49,-126 c -6,-17 -15,-24 -33,-24 h -41 v 53 h 7 c 7,0 10,1 13,9 l 84,189 -8,19 c -9,22 -24,32 -41,32 -21,0 -36,-17 -36,-17 z m 259,-160 c 0,73 53,132 136,132 69,0 106,-45 106,-45 l -26,-43 c 0,0 -32,34 -75,34 -41,0 -79,-26 -79,-78 0,-45 31,-79 75,-79 15,0 36,6 36,20 v 14 h 55 v -30 c 0,-43 -59,-57 -91,-57 -86,0 -138,61 -138,132 z m 287,126 h 63 V 950 h 14 c 8,0 18,1 23,9 l 42,79 c 10,18 18,22 40,22 h 46 v -53 h -17 c -12,0 -17,-2 -21,-9 l -29,-54 c -9,-16 -18,-20 -18,-20 v -1 c 0,0 8,-4 19,-20 l 64,-95 h -70 l -51,80 c -5,8 -16,9 -24,9 h -19 V 738 c 0,-23 -10,-29 -34,-29 h -60 v 53 h 20 c 7,0 11,3 11,11 v 286 z m 280,-293 h 54 v -58 h -54 z m -3,259 c 0,24 10,34 33,34 h 60 v -53 h -20 c -7,0 -11,-4 -11,-11 V 841 c 0,-23 -10,-34 -33,-34 h -60 v 53 h 20 c 7,0 11,3 11,11 v 154 z m 278,-59 c 0,84 70,95 105,95 11,0 19,-1 19,-1 v -55 c 0,0 -4,1 -11,1 -17,0 -50,-6 -50,-47 V 858 h 57 v -50 h -57 v -69 h -61 v 69 h -34 v 50 h 33 v 110 z m 161,126 -24,44 c 0,0 24,26 64,26 38,0 73,-20 91,-66 l 90,-228 c 3,-7 7,-9 14,-9 h 7 v -53 h -42 c -17,0 -28,6 -34,24 l -43,126 c -4,13 -8,34 -8,34 h -1 c 0,0 -4,-21 -9,-34 l -49,-126 c -6,-17 -15,-24 -33,-24 h -41 v 53 h 7 c 7,0 10,1 13,9 l 84,189 -8,19 c -9,22 -24,32 -41,32 -21,0 -36,-17 -36,-17 z m 289,65 h 62 v -104 c 0,-13 -1,-22 -1,-22 h 1 c 0,0 22,33 72,33 66,0 116,-52 116,-132 0,-78 -44,-132 -112,-132 -59,0 -80,40 -80,40 h -1 c 0,0 0,-4 0,-10 0,-14 -8,-24 -32,-24 h -56 v 53 h 20 c 7,0 11,3 11,11 v 286 z m 61,-223 c 0,-56 31,-80 63,-80 37,0 63,31 63,79 0,50 -29,78 -64,78 -41,0 -62,-39 -62,-78 z m 376,35 c 0,69 33,96 87,96 43,0 75,-26 87,-52 h 1 c 0,0 -1,5 -1,11 v 7 c 0,18 11,28 33,28 h 58 v -53 h -20 c -7,0 -11,-4 -11,-11 V 808 h -63 v 116 c 0,45 -25,85 -71,85 -31,0 -39,-21 -39,-51 V 842 c 0,-23 -10,-33 -33,-33 h -60 v 53 h 20 c 7,0 11,3 11,11 v 98 z m 316,90 h 62 V 960 c 0,-15 2,-29 5,-41 11,-38 42,-53 69,-53 9,0 15,1 15,1 v -62 c 0,0 -6,-1 -11,-1 -39,0 -69,29 -80,65 h -1 c 0,0 1,-6 1,-16 v -15 c 0,-21 -11,-31 -34,-31 h -57 v 53 h 20 c 7,0 11,3 11,11 v 188 z m 169,-126 c 0,78 61,132 138,132 77,0 138,-54 138,-132 0,-77 -61,-132 -138,-132 -77,0 -138,55 -138,132 z m 63,0 c 0,-46 34,-79 75,-79 41,0 75,32 75,79 0,47 -34,79 -75,79 -41,0 -75,-32 -75,-79 z m 244,0 c 0,78 44,132 112,132 58,0 79,-41 79,-41 h 1 c 0,0 0,4 0,9 0,15 8,26 31,26 h 58 v -53 h -19 c -7,0 -11,-4 -11,-11 V 743 c 0,-23 -10,-34 -34,-34 h -60 v 53 h 20 c 7,0 11,3 11,11 v 44 c 0,8 0,15 0,15 h -1 c 0,0 -18,-31 -73,-31 -67,0 -115,52 -115,132 z m 126,79 c -37,0 -62,-31 -62,-79 0,-50 29,-78 63,-78 42,0 62,39 62,78 0,56 -31,80 -63,80 z m 190,81 -24,44 c 0,0 24,26 64,26 38,0 73,-20 91,-66 l 90,-228 c 3,-7 7,-9 14,-9 h 7 v -53 h -42 c -17,0 -28,6 -34,24 l -43,126 c -4,13 -8,34 -8,34 h -1 c 0,0 -4,-21 -9,-34 l -49,-126 c -6,-17 -15,-24 -33,-24 h -41 v 53 h 7 c 7,0 10,1 13,9 l 84,189 -8,19 c -9,22 -24,32 -41,32 -21,0 -36,-17 -36,-17 z"
   id="path9" />
  <path
   class="fil2"
   d="m 5681,3698 c -40,-9 -118,-34 -173,-31 -55,3 -88,34 -68,54 20,20 92,29 145,40 52,11 84,23 100,33 15,10 14,18 11,28 -2,10 -5,22 10,23 15,1 49,-8 87,-12 38,-5 81,-5 88,-20 7,-16 -22,-47 -45,-73 -23,-26 -41,-47 -53,-62 -13,-15 -20,-24 -29,-19 -9,4 -18,21 -24,32 -6,11 -8,17 -48,7 z"
   id="path11" />
  <path
   class="fil1"
   d="m 2264,3432 h 36 l 21,-72 c 2,-7 3,-14 3,-14 h 1 c 0,0 1,7 3,14 l 21,72 h 35 l 30,-95 c 1,-4 3,-4 7,-4 h 3 v -27 h -21 c -10,0 -15,3 -18,13 l -18,70 c -2,7 -2,13 -2,13 v 0 c 0,0 -1,-7 -3,-13 l -23,-82 h -28 l -23,82 c -2,7 -3,13 -3,13 h -1 c 0,0 -1,-7 -2,-13 l -19,-70 c -2,-10 -7,-13 -18,-13 h -21 v 27 h 3 c 4,0 6,1 7,4 z m 185,-17 c 0,12 5,17 17,17 h 30 v -26 h -10 c -3,0 -5,-2 -5,-5 v -57 l 18,-10 v -31 l -18,10 v -39 c 0,-12 -5,-17 -17,-17 h -30 v 27 h 10 c 3,0 5,2 5,5 v 42 l -16,9 v 31 l 16,-9 v 54 z m 61,-46 c 0,39 31,66 69,66 39,0 69,-27 69,-66 0,-39 -31,-66 -69,-66 -38,0 -69,27 -69,66 z m 32,0 c 0,-23 17,-39 37,-39 20,0 38,16 38,39 0,23 -17,39 -38,39 -20,0 -37,-16 -37,-39 z m 121,43 c 0,0 18,22 52,22 27,0 48,-15 48,-39 0,-42 -67,-38 -67,-58 0,-7 8,-11 19,-11 7,0 16,3 16,9 v 6 h 28 v -13 c 0,-20 -27,-26 -44,-26 -26,0 -49,12 -49,37 0,41 66,41 66,58 0,8 -7,12 -17,12 -21,0 -38,-19 -38,-19 l -15,20 z m 122,36 -12,22 c 0,0 12,13 32,13 19,0 37,-10 45,-33 l 45,-114 c 1,-4 3,-4 7,-4 h 4 v -27 h -21 c -9,0 -14,3 -17,12 l -21,63 c -2,6 -4,17 -4,17 v 0 c 0,0 -2,-10 -4,-17 l -25,-63 c -3,-9 -8,-12 -17,-12 h -21 v 27 h 4 c 3,0 5,1 7,4 l 42,95 -4,10 c -4,11 -12,16 -21,16 -10,0 -18,-9 -18,-9 z m 210,33 h 31 v -52 c 0,-6 0,-11 0,-11 v 0 c 0,0 11,17 36,17 33,0 58,-26 58,-66 0,-39 -22,-66 -56,-66 -29,0 -40,20 -40,20 h -1 c 0,0 0,-2 0,-5 0,-7 -4,-12 -16,-12 h -28 v 27 h 10 c 3,0 5,2 5,5 v 143 z m 30,-112 c 0,-28 15,-40 32,-40 19,0 31,16 31,40 0,25 -15,39 -32,39 -21,0 -31,-19 -31,-39 z m 120,45 c 0,12 5,17 17,17 h 30 v -26 h -10 c -3,0 -5,-2 -5,-5 v -127 c 0,-12 -5,-17 -17,-17 h -30 v 27 h 10 c 3,0 5,2 5,5 z m 60,-20 c 0,25 21,39 43,39 28,0 38,-22 38,-22 v 0 c 0,0 0,2 0,5 0,7 4,14 16,14 h 28 v -26 h -10 c -3,0 -5,-2 -5,-5 v -47 c 0,-28 -12,-50 -54,-50 -13,0 -46,2 -46,26 v 13 h 29 v -7 c 0,-7 11,-8 17,-8 16,0 23,7 23,25 v 1 h -4 c -20,0 -75,3 -75,43 z m 32,-1 c 0,-18 26,-20 42,-20 h 5 v 3 c 0,15 -12,33 -29,33 -13,0 -19,-8 -19,-16 z m 120,-8 c 0,42 35,47 52,47 6,0 10,-1 10,-1 v -27 c 0,0 -2,1 -6,1 -9,0 -25,-3 -25,-24 v -51 h 29 v -25 h -29 v -34 h -31 v 34 h -17 v 25 h 16 v 55 z m 80,63 -12,22 c 0,0 12,13 32,13 19,0 37,-10 45,-33 l 45,-114 c 1,-4 3,-4 7,-4 h 4 v -27 h -21 c -9,0 -14,3 -17,12 l -21,63 c -2,6 -4,17 -4,17 v 0 c 0,0 -2,-10 -4,-17 l -25,-63 c -3,-9 -8,-12 -17,-12 h -21 v 27 h 4 c 3,0 5,1 7,4 l 42,95 -4,10 c -4,11 -12,16 -21,16 -10,0 -18,-9 -18,-9 z m 145,-17 h 31 v -58 c 0,-6 1,-12 2,-17 4,-15 17,-26 34,-26 16,0 20,10 20,26 v 58 c 0,12 5,17 17,17 h 30 v -26 h -10 c -3,0 -5,-2 -5,-5 v -49 c 0,-33 -16,-48 -44,-48 -25,0 -39,16 -44,26 v 0 c 0,0 0,-3 0,-5 v -4 c 0,-9 -5,-14 -17,-14 h -29 v 27 h 10 c 3,0 5,2 5,5 v 94 z m 146,-63 c 0,39 31,66 69,66 39,0 69,-27 69,-66 0,-39 -31,-66 -69,-66 -38,0 -69,27 -69,66 z m 32,0 c 0,-23 17,-39 37,-39 20,0 38,16 38,39 0,23 -17,39 -38,39 -20,0 -37,-16 -37,-39 z m 155,63 h 36 l 21,-72 c 2,-7 3,-14 3,-14 h 1 c 0,0 1,7 3,14 l 21,72 h 35 l 30,-95 c 1,-4 3,-4 7,-4 h 3 v -27 h -21 c -10,0 -15,3 -18,13 l -18,70 c -2,7 -2,13 -2,13 v 0 c 0,0 -1,-7 -3,-13 l -23,-82 h -28 l -23,82 c -2,7 -3,13 -3,13 h -1 c 0,0 -1,-7 -2,-13 l -19,-70 c -2,-10 -7,-13 -18,-13 h -21 v 27 h 3 c 4,0 6,1 7,4 z m 169,-63 c 0,36 26,66 68,66 31,0 51,-19 51,-19 l -13,-22 c 0,0 -15,14 -35,14 -19,0 -35,-12 -38,-34 h 87 c 0,0 1,-8 1,-12 0,-33 -20,-60 -56,-60 -38,0 -64,27 -64,66 z m 33,-16 c 3,-16 15,-25 31,-25 13,0 23,10 24,25 z m 182,62 c 0,12 5,17 17,17 h 30 v -26 h -10 c -3,0 -5,-2 -5,-5 v -127 c 0,-12 -5,-17 -17,-17 h -30 v 27 h 10 c 3,0 5,2 5,5 z m 72,-28 c 0,34 17,48 43,48 22,0 38,-13 43,-26 v 0 c 0,0 0,3 0,6 v 3 c 0,9 6,14 17,14 h 29 v -26 h -10 c -3,0 -5,-2 -5,-5 v -94 h -31 v 58 c 0,22 -13,42 -35,42 -16,0 -20,-10 -20,-26 v -58 c 0,-11 -5,-17 -17,-17 h -30 v 27 h 10 c 3,0 5,2 5,5 v 49 z m 157,45 h 30 v -6 c 0,-5 0,-8 0,-8 v 0 c 0,0 11,18 38,18 33,0 58,-26 58,-66 0,-39 -22,-66 -56,-66 -27,0 -38,18 -38,18 v 0 c 0,0 0,-4 0,-11 v -37 c 0,-12 -5,-17 -17,-17 h -30 v 27 h 10 c 3,0 5,2 5,5 z m 30,-62 c 0,-28 15,-40 32,-40 19,0 31,16 31,40 0,25 -15,39 -32,39 -21,0 -31,-19 -31,-39 z m 174,43 c 0,0 18,22 52,22 27,0 48,-15 48,-39 0,-42 -67,-38 -67,-58 0,-7 8,-11 19,-11 7,0 16,3 16,9 v 6 h 28 v -13 c 0,-20 -27,-26 -44,-26 -26,0 -49,12 -49,37 0,41 66,41 66,58 0,8 -7,12 -17,12 -21,0 -38,-19 -38,-19 l -15,20 z m 116,20 h 98 c 12,0 17,-5 17,-17 v -22 h -28 v 7 c 0,4 -2,5 -5,5 h -28 c -8,0 -12,1 -12,1 v 0 c 0,0 5,-5 11,-12 l 58,-71 v -17 h -92 c -12,0 -17,5 -17,17 v 22 h 28 v -7 c 0,-3 2,-5 5,-5 h 23 c 8,0 12,0 12,0 v 0 c 0,0 -5,4 -11,12 l -58,71 v 17 z m 128,-36 c 0,25 21,39 43,39 28,0 38,-22 38,-22 v 0 c 0,0 0,2 0,5 0,7 4,14 16,14 h 28 v -26 h -10 c -3,0 -5,-2 -5,-5 v -47 c 0,-28 -12,-50 -54,-50 -13,0 -46,2 -46,26 v 13 h 29 v -7 c 0,-7 11,-8 17,-8 16,0 23,7 23,25 v 1 h -4 c -20,0 -75,3 -75,43 z m 32,-1 c 0,-18 26,-20 42,-20 h 5 v 3 c 0,15 -12,33 -29,33 -13,0 -19,-8 -19,-16 z m 119,38 h 31 v -50 c 0,-7 1,-14 3,-21 6,-19 21,-26 34,-26 4,0 8,0 8,0 v -31 c 0,0 -3,-1 -6,-1 -19,0 -34,14 -40,32 v 0 c 0,0 0,-3 0,-8 v -7 c 0,-11 -6,-15 -17,-15 h -29 v 27 h 10 c 3,0 5,2 5,5 v 94 z m 97,17 -12,22 c 0,0 12,13 32,13 19,0 37,-10 45,-33 l 45,-114 c 1,-4 3,-4 7,-4 h 4 v -27 h -21 c -9,0 -14,3 -17,12 l -21,63 c -2,6 -4,17 -4,17 v 0 c 0,0 -2,-10 -4,-17 l -25,-63 c -3,-9 -8,-12 -17,-12 h -21 v 27 h 4 c 3,0 5,1 7,4 l 42,95 -4,10 c -4,11 -12,16 -21,16 -10,0 -18,-9 -18,-9 z m 209,-17 h 30 v -6 c 0,-5 0,-8 0,-8 v 0 c 0,0 11,18 38,18 33,0 58,-26 58,-66 0,-39 -22,-66 -56,-66 -27,0 -38,18 -38,18 v 0 c 0,0 0,-4 0,-11 v -37 c 0,-12 -5,-17 -17,-17 h -30 v 27 h 10 c 3,0 5,2 5,5 z m 30,-62 c 0,-28 15,-40 32,-40 19,0 31,16 31,40 0,25 -15,39 -32,39 -21,0 -31,-19 -31,-39 z m 121,45 c 0,12 5,17 17,17 h 30 v -26 h -10 c -3,0 -5,-2 -5,-5 v -127 c 0,-12 -5,-17 -17,-17 h -30 v 27 h 10 c 3,0 5,2 5,5 z m 60,-46 c 0,39 31,66 69,66 39,0 69,-27 69,-66 0,-39 -31,-66 -69,-66 -38,0 -69,27 -69,66 z m 32,0 c 0,-23 17,-39 37,-39 20,0 38,16 38,39 0,23 -17,39 -38,39 -20,0 -37,-16 -37,-39 z m 135,63 h 31 v -58 c 0,-6 1,-12 2,-17 4,-15 17,-26 34,-26 16,0 20,10 20,26 v 58 c 0,12 5,17 17,17 h 30 v -26 h -10 c -3,0 -5,-2 -5,-5 v -49 c 0,-33 -16,-48 -44,-48 -25,0 -39,16 -44,26 v 0 c 0,0 0,-3 0,-5 v -4 c 0,-9 -5,-14 -17,-14 h -29 v 27 h 10 c 3,0 5,2 5,5 v 94 z m 146,-63 c 0,39 22,66 56,66 29,0 39,-20 39,-20 v 0 c 0,0 0,2 0,5 0,7 4,13 16,13 h 29 v -26 h -10 c -3,0 -5,-2 -5,-5 v -127 c 0,-12 -5,-17 -17,-17 h -30 v 27 h 10 c 3,0 5,2 5,5 v 22 c 0,4 0,7 0,7 h -1 c 0,0 -9,-15 -36,-15 -33,0 -57,26 -57,66 z m 63,40 c -19,0 -31,-16 -31,-40 0,-25 14,-39 32,-39 21,0 31,19 31,39 0,28 -15,40 -32,40 z"
   id="path13" />
  <path
   class="fil1"
   d="m 10752,5083 c 0,0 18,22 52,22 27,0 48,-15 48,-39 0,-42 -67,-38 -67,-58 0,-7 8,-11 19,-11 7,0 16,3 16,9 v 6 h 28 v -13 c 0,-20 -27,-26 -44,-26 -26,0 -49,12 -49,37 0,41 66,41 66,58 0,8 -7,12 -17,12 -21,0 -38,-19 -38,-19 l -15,20 z m 116,20 h 98 c 12,0 17,-5 17,-17 v -22 h -28 v 7 c 0,4 -2,5 -5,5 h -28 c -8,0 -12,1 -12,1 v 0 c 0,0 5,-5 11,-12 l 58,-71 v -17 h -92 c -12,0 -17,5 -17,17 v 22 h 28 v -7 c 0,-3 2,-5 5,-5 h 23 c 8,0 12,0 12,0 v 0 c 0,0 -5,4 -11,12 l -58,71 v 17 z m 128,-36 c 0,25 21,39 43,39 28,0 38,-22 38,-22 v 0 c 0,0 0,2 0,5 0,7 4,14 16,14 h 28 v -26 h -10 c -3,0 -5,-2 -5,-5 v -47 c 0,-28 -12,-50 -54,-50 -13,0 -46,2 -46,26 v 13 h 29 v -7 c 0,-7 11,-8 17,-8 16,0 23,7 23,25 v 1 h -4 c -20,0 -75,3 -75,43 z m 32,-1 c 0,-18 26,-20 42,-20 h 5 v 3 c 0,15 -12,33 -29,33 -13,0 -19,-8 -19,-16 z m 119,38 h 31 v -50 c 0,-7 1,-14 3,-21 6,-19 21,-26 34,-26 4,0 8,0 8,0 v -31 c 0,0 -3,-1 -6,-1 -19,0 -34,14 -40,32 v 0 c 0,0 0,-3 0,-8 v -7 c 0,-11 -6,-15 -17,-15 h -29 v 27 h 10 c 3,0 5,2 5,5 v 94 z m 84,-63 c 0,36 26,66 68,66 31,0 51,-19 51,-19 l -13,-22 c 0,0 -15,14 -35,14 -19,0 -35,-12 -38,-34 h 87 c 0,0 1,-8 1,-12 0,-33 -20,-60 -56,-60 -38,0 -64,27 -64,66 z m 33,-16 c 3,-16 15,-25 31,-25 13,0 23,10 24,25 z m 182,62 c 0,12 5,17 17,17 h 30 v -26 h -10 c -3,0 -5,-2 -5,-5 v -127 c 0,-12 -5,-17 -17,-17 h -30 v 27 h 10 c 3,0 5,2 5,5 z m 72,-28 c 0,34 17,48 43,48 22,0 38,-13 43,-26 v 0 c 0,0 0,3 0,6 v 3 c 0,9 6,14 17,14 h 29 v -26 h -10 c -3,0 -5,-2 -5,-5 v -94 h -31 v 58 c 0,22 -13,42 -35,42 -16,0 -20,-10 -20,-26 v -58 c 0,-11 -5,-17 -17,-17 h -30 v 27 h 10 c 3,0 5,2 5,5 v 49 z m 157,45 h 30 v -6 c 0,-5 0,-8 0,-8 v 0 c 0,0 11,18 38,18 33,0 58,-26 58,-66 0,-39 -22,-66 -56,-66 -27,0 -38,18 -38,18 v 0 c 0,0 0,-4 0,-11 v -37 c 0,-12 -5,-17 -17,-17 h -30 v 27 h 10 c 3,0 5,2 5,5 z m 30,-62 c 0,-28 15,-40 32,-40 19,0 31,16 31,40 0,25 -15,39 -32,39 -21,0 -31,-19 -31,-39 z m 189,62 h 31 v -58 c 0,-6 1,-12 2,-17 4,-15 17,-26 34,-26 16,0 20,10 20,26 v 58 c 0,12 5,17 17,17 h 30 v -26 h -10 c -3,0 -5,-2 -5,-5 v -49 c 0,-33 -16,-48 -44,-48 -25,0 -39,16 -44,26 v 0 c 0,0 0,-3 0,-5 v -4 c 0,-9 -5,-14 -17,-14 h -29 v 27 h 10 c 3,0 5,2 5,5 v 94 z m 161,-146 h 27 v -29 h -27 z m -1,130 c 0,12 5,17 17,17 h 30 v -26 h -10 c -3,0 -5,-2 -5,-5 v -77 c 0,-12 -5,-17 -17,-17 h -30 v 27 h 10 c 3,0 5,2 5,5 v 77 z m 60,-46 c 0,36 26,66 68,66 31,0 51,-19 51,-19 l -13,-22 c 0,0 -15,14 -35,14 -19,0 -35,-12 -38,-34 h 87 c 0,0 1,-8 1,-12 0,-33 -20,-60 -56,-60 -38,0 -64,27 -64,66 z m 33,-16 c 3,-16 15,-25 31,-25 13,0 23,10 24,25 z m 116,79 h 30 v -6 c 0,-5 0,-8 0,-8 v 0 c 0,0 11,18 38,18 33,0 58,-26 58,-66 0,-39 -22,-66 -56,-66 -27,0 -38,18 -38,18 v 0 c 0,0 0,-4 0,-11 v -37 c 0,-12 -5,-17 -17,-17 h -30 v 27 h 10 c 3,0 5,2 5,5 z m 30,-62 c 0,-28 15,-40 32,-40 19,0 31,16 31,40 0,25 -15,39 -32,39 -21,0 -31,-19 -31,-39 z m 126,-84 h 27 v -29 h -27 z m -1,130 c 0,12 5,17 17,17 h 30 v -26 h -10 c -3,0 -5,-2 -5,-5 v -77 c 0,-12 -5,-17 -17,-17 h -30 v 27 h 10 c 3,0 5,2 5,5 v 77 z m 60,-46 c 0,36 26,66 68,66 31,0 51,-19 51,-19 l -13,-22 c 0,0 -15,14 -35,14 -19,0 -35,-12 -38,-34 h 87 c 0,0 1,-8 1,-12 0,-33 -20,-60 -56,-60 -38,0 -64,27 -64,66 z m 33,-16 c 3,-16 15,-25 31,-25 13,0 23,10 24,25 z m 103,60 c 0,0 18,22 52,22 27,0 48,-15 48,-39 0,-42 -67,-38 -67,-58 0,-7 8,-11 19,-11 7,0 16,3 16,9 v 6 h 28 v -13 c 0,-20 -27,-26 -44,-26 -26,0 -49,12 -49,37 0,41 66,41 66,58 0,8 -7,12 -17,12 -21,0 -38,-19 -38,-19 l -15,20 z m 129,20 h 31 v -55 h 7 c 4,0 9,0 12,5 l 21,40 c 5,9 9,11 20,11 h 23 v -26 h -8 c -6,0 -8,-1 -10,-5 l -14,-27 c -4,-8 -9,-10 -9,-10 v 0 c 0,0 4,-2 9,-10 l 32,-47 h -35 l -26,40 c -3,4 -8,5 -12,5 h -9 v -80 c 0,-12 -5,-14 -17,-14 h -30 v 27 h 10 c 3,0 5,2 5,5 v 143 z m 140,-146 h 27 v -29 h -27 z m -1,130 c 0,12 5,17 17,17 h 30 v -26 h -10 c -3,0 -5,-2 -5,-5 v -77 c 0,-12 -5,-17 -17,-17 h -30 v 27 h 10 c 3,0 5,2 5,5 v 77 z m 60,-46 c 0,36 26,66 68,66 31,0 51,-19 51,-19 l -13,-22 c 0,0 -15,14 -35,14 -19,0 -35,-12 -38,-34 h 87 c 0,0 1,-8 1,-12 0,-33 -20,-60 -56,-60 -38,0 -64,27 -64,66 z m 33,-16 c 3,-16 15,-25 31,-25 13,0 23,10 24,25 z m 170,16 c 0,39 31,66 69,66 39,0 69,-27 69,-66 0,-39 -31,-66 -69,-66 -38,0 -69,27 -69,66 z m 32,0 c 0,-23 17,-39 37,-39 20,0 38,16 38,39 0,23 -17,39 -38,39 -20,0 -37,-16 -37,-39 z m 122,0 c 0,37 27,66 68,66 34,0 53,-23 53,-23 l -13,-22 c 0,0 -16,17 -37,17 -20,0 -39,-13 -39,-39 0,-23 16,-39 37,-39 8,0 18,3 18,10 v 7 h 28 v -15 c 0,-22 -29,-28 -46,-28 -43,0 -69,30 -69,66 z m 132,63 h 98 c 12,0 17,-5 17,-17 v -22 h -28 v 7 c 0,4 -2,5 -5,5 h -28 c -8,0 -12,1 -12,1 v 0 c 0,0 5,-5 11,-12 l 58,-71 v -17 h -92 c -12,0 -17,5 -17,17 v 22 h 28 v -7 c 0,-3 2,-5 5,-5 h 23 c 8,0 12,0 12,0 v 0 c 0,0 -5,4 -11,12 l -58,71 v 17 z m 128,17 -12,22 c 0,0 12,13 32,13 19,0 37,-10 45,-33 l 45,-114 c 1,-4 3,-4 7,-4 h 4 v -27 h -21 c -9,0 -14,3 -17,12 l -21,63 c -2,6 -4,17 -4,17 v 0 c 0,0 -2,-10 -4,-17 l -25,-63 c -3,-9 -8,-12 -17,-12 h -21 v 27 h 4 c 3,0 5,1 7,4 l 42,95 -4,10 c -4,11 -12,16 -21,16 -10,0 -18,-9 -18,-9 z"
   id="path15" />
  <path
   class="fil2"
   d="m 10279,5029 c 40,9 118,34 173,31 55,-3 88,-34 68,-54 -20,-20 -92,-29 -145,-40 -52,-11 -84,-23 -100,-33 -15,-10 -14,-18 -11,-28 2,-10 5,-22 -10,-23 -15,-1 -49,8 -87,12 -38,5 -81,5 -88,20 -7,16 22,47 45,73 23,26 41,47 53,62 13,15 20,24 29,19 9,-4 18,-21 24,-32 6,-11 8,-17 48,-7 z"
   id="path17" />
  <path
   class="fil1"
   d="m 7999,7816 h 30 v -6 c 0,-5 0,-8 0,-8 v 0 c 0,0 11,18 38,18 33,0 58,-26 58,-66 0,-39 -22,-66 -56,-66 -27,0 -38,18 -38,18 v 0 c 0,0 0,-4 0,-11 v -37 c 0,-12 -5,-17 -17,-17 h -30 v 27 h 10 c 3,0 5,2 5,5 z m 30,-62 c 0,-28 15,-40 32,-40 19,0 31,16 31,40 0,25 -15,39 -32,39 -21,0 -31,-19 -31,-39 z m 110,26 c 0,25 21,39 43,39 28,0 38,-22 38,-22 v 0 c 0,0 0,2 0,5 0,7 4,14 16,14 h 28 v -26 h -10 c -3,0 -5,-2 -5,-5 v -47 c 0,-28 -12,-50 -54,-50 -13,0 -46,2 -46,26 v 13 h 29 v -7 c 0,-7 11,-8 17,-8 16,0 23,7 23,25 v 1 h -4 c -20,0 -75,3 -75,43 z m 32,-1 c 0,-18 26,-20 42,-20 h 5 v 3 c 0,15 -12,33 -29,33 -13,0 -19,-8 -19,-16 z m 119,38 h 31 v -50 c 0,-7 1,-14 3,-21 6,-19 21,-26 34,-26 4,0 8,0 8,0 v -31 c 0,0 -3,-1 -6,-1 -19,0 -34,14 -40,32 v 0 c 0,0 0,-3 0,-8 v -7 c 0,-11 -6,-15 -17,-15 h -29 v 27 h 10 c 3,0 5,2 5,5 v 94 z m 84,-63 c 0,39 22,66 56,66 29,0 39,-20 39,-20 v 0 c 0,0 0,2 0,5 0,7 4,13 16,13 h 29 v -26 h -10 c -3,0 -5,-2 -5,-5 v -127 c 0,-12 -5,-17 -17,-17 h -30 v 27 h 10 c 3,0 5,2 5,5 v 22 c 0,4 0,7 0,7 h -1 c 0,0 -9,-15 -36,-15 -33,0 -57,26 -57,66 z m 63,40 c -19,0 -31,-16 -31,-40 0,-25 14,-39 32,-39 21,0 31,19 31,39 0,28 -15,40 -32,40 z m 89,23 h 98 c 12,0 17,-5 17,-17 v -22 h -28 v 7 c 0,4 -2,5 -5,5 h -28 c -8,0 -12,1 -12,1 v 0 c 0,0 5,-5 11,-12 l 58,-71 v -17 h -92 c -12,0 -17,5 -17,17 v 22 h 28 v -7 c 0,-3 2,-5 5,-5 h 23 c 8,0 12,0 12,0 v 0 c 0,0 -5,4 -11,12 l -58,71 v 17 z m 125,-63 c 0,39 31,66 69,66 39,0 69,-27 69,-66 0,-39 -31,-66 -69,-66 -38,0 -69,27 -69,66 z m 32,0 c 0,-23 17,-39 37,-39 20,0 38,16 38,39 0,23 -17,39 -38,39 -20,0 -37,-16 -37,-39 z m 207,-83 h 27 v -29 h -27 z m -32,170 v 26 c 0,0 4,1 9,1 17,0 53,-5 53,-47 v -113 c 0,-12 -5,-17 -17,-17 h -30 v 27 h 10 c 3,0 5,2 5,5 v 95 c 0,21 -16,23 -25,23 -3,0 -5,-1 -5,-1 z m 88,-60 c 0,25 21,39 43,39 28,0 38,-22 38,-22 v 0 c 0,0 0,2 0,5 0,7 4,14 16,14 h 28 v -26 h -10 c -3,0 -5,-2 -5,-5 v -47 c 0,-28 -12,-50 -54,-50 -13,0 -46,2 -46,26 v 13 h 29 v -7 c 0,-7 11,-8 17,-8 16,0 23,7 23,25 v 1 h -4 c -20,0 -75,3 -75,43 z m 32,-1 c 0,-18 26,-20 42,-20 h 5 v 3 c 0,15 -12,33 -29,33 -13,0 -19,-8 -19,-16 z m 105,18 c 0,0 18,22 52,22 27,0 48,-15 48,-39 0,-42 -67,-38 -67,-58 0,-7 8,-11 19,-11 7,0 16,3 16,9 v 6 h 28 v -13 c 0,-20 -27,-26 -44,-26 -26,0 -49,12 -49,37 0,41 66,41 66,58 0,8 -7,12 -17,12 -21,0 -38,-19 -38,-19 l -15,20 z m 130,20 h 31 v -58 c 0,-6 1,-12 2,-17 4,-15 17,-26 34,-26 16,0 20,10 20,26 v 58 c 0,12 5,17 17,17 h 30 v -26 h -10 c -3,0 -5,-2 -5,-5 v -49 c 0,-33 -16,-48 -44,-48 -25,0 -39,16 -44,26 v 0 c 0,0 0,-3 0,-5 v -4 c 0,-9 -5,-14 -17,-14 h -29 v 27 h 10 c 3,0 5,2 5,5 v 94 z m 146,-36 c 0,25 21,39 43,39 28,0 38,-22 38,-22 v 0 c 0,0 0,2 0,5 0,7 4,14 16,14 h 28 v -26 h -10 c -3,0 -5,-2 -5,-5 v -47 c 0,-28 -12,-50 -54,-50 -13,0 -46,2 -46,26 v 13 h 29 v -7 c 0,-7 11,-8 17,-8 16,0 23,7 23,25 v 1 h -4 c -20,0 -75,3 -75,43 z m 32,-1 c 0,-18 26,-20 42,-20 h 5 v 3 c 0,15 -12,33 -29,33 -13,0 -19,-8 -19,-16 z m 172,-25 c 0,37 27,66 68,66 34,0 53,-23 53,-23 l -13,-22 c 0,0 -16,17 -37,17 -20,0 -39,-13 -39,-39 0,-23 16,-39 37,-39 8,0 18,3 18,10 v 7 h 28 v -15 c 0,-22 -29,-28 -46,-28 -43,0 -69,30 -69,66 z m 133,0 c 0,36 26,66 68,66 31,0 51,-19 51,-19 l -13,-22 c 0,0 -15,14 -35,14 -19,0 -35,-12 -38,-34 h 87 c 0,0 1,-8 1,-12 0,-33 -20,-60 -56,-60 -38,0 -64,27 -64,66 z m 33,-16 c 3,-16 15,-25 31,-25 13,0 23,10 24,25 z m 117,79 h 31 v -50 c 0,-7 1,-14 3,-21 6,-19 21,-26 34,-26 4,0 8,0 8,0 v -31 c 0,0 -3,-1 -6,-1 -19,0 -34,14 -40,32 v 0 c 0,0 0,-3 0,-8 v -7 c 0,-11 -6,-15 -17,-15 h -29 v 27 h 10 c 3,0 5,2 5,5 v 94 z m 82,-36 c 0,25 21,39 43,39 28,0 38,-22 38,-22 v 0 c 0,0 0,2 0,5 0,7 4,14 16,14 h 28 v -26 h -10 c -3,0 -5,-2 -5,-5 v -47 c 0,-28 -12,-50 -54,-50 -13,0 -46,2 -46,26 v 13 h 29 v -7 c 0,-7 11,-8 17,-8 16,0 23,7 23,25 v 1 h -4 c -20,0 -75,3 -75,43 z m 32,-1 c 0,-18 26,-20 42,-20 h 5 v 3 c 0,15 -12,33 -29,33 -13,0 -19,-8 -19,-16 z"
   id="path19" />
  <path
   class="fil2"
   d="m 8230,7153 c 11,42 27,126 57,180 29,54 72,78 80,53 8,-25 -19,-100 -36,-155 -16,-55 -21,-90 -20,-108 1,-18 9,-19 19,-19 10,0 22,-1 16,-16 -6,-15 -30,-46 -53,-83 -23,-37 -44,-80 -61,-82 -17,-3 -30,34 -42,65 -11,30 -21,53 -28,69 -7,17 -11,27 -3,34 8,8 27,12 40,15 13,3 19,4 30,46 z"
   id="path21" />
  <g
   id="_1552417056896">
   <path
   class="fil3"
   d="m 9356,3848 c 81,175 140,427 129,725 -11,298 -92,642 -195,929 -104,287 -230,516 -393,689 -163,173 -362,288 -541,351 -178,63 -335,73 -541,7 -206,-66 -460,-207 -651,-468 -191,-262 -317,-644 -371,-996 -54,-352 -35,-673 26,-938 61,-265 163,-474 324,-627 162,-153 382,-250 633,-284 250,-34 530,-6 751,45 221,51 382,125 514,210 132,85 234,182 315,357 z"
   id="path23" />
   <g
   id="g41">
    <path
   class="fil4"
   d="m 7728,5106 c -5,14 -23,43 -56,69 -33,26 -82,50 -133,60 -51,11 -104,8 -146,-5 -42,-13 -73,-36 -96,-65 -23,-29 -38,-63 -30,-69 8,-6 38,17 76,34 38,17 83,28 123,32 40,4 75,0 107,-5 32,-5 60,-12 83,-23 24,-11 43,-25 56,-32 13,-7 21,-8 16,6 z"
   id="path25" />
    <path
   class="fil4"
   d="m 7766,4843 c -18,-27 -44,-51 -73,-67 -29,-17 -62,-25 -105,-26 -43,-1 -96,6 -136,19 -40,13 -67,32 -93,54 -26,22 -51,46 -68,71 -18,24 -28,49 -36,68 -8,19 -13,32 -17,40 -4,7 -6,8 -11,0 -5,-8 -12,-26 -4,-59 8,-33 31,-83 51,-120 20,-37 37,-62 80,-86 43,-24 113,-46 175,-53 62,-7 117,2 156,11 39,9 62,19 85,49 23,29 46,79 55,111 8,33 2,50 -4,60 -6,10 -11,13 -18,-1 -8,-13 -18,-43 -36,-69 z"
   id="path27" />
    <path
   class="fil0"
   d="m 7805,4929 c -6,-26 -14,-59 -35,-89 -22,-30 -57,-58 -110,-72 -53,-14 -125,-16 -185,0 -60,16 -108,49 -143,96 -35,48 -56,110 -69,142 -13,32 -18,34 2,52 20,18 63,52 107,73 44,21 89,29 135,30 46,1 94,-4 138,-21 44,-18 86,-48 114,-74 28,-26 44,-48 50,-69 6,-21 3,-42 -3,-68 z"
   id="path29" />
    <path
   class="fil5"
   d="m 7801,4910 c -1,-8 -7,-40 -30,-73 -24,-33 -65,-66 -103,-84 -39,-17 -74,-18 -112,-14 -38,4 -77,12 -104,20 -27,9 -41,18 -57,28 -16,10 -35,21 -50,26 -15,6 -25,6 -41,3 -16,-3 -38,-9 -51,-19 -12,-11 -16,-26 -17,-25 -2,0 -2,16 6,30 8,14 25,28 38,35 12,7 21,8 25,10 4,2 5,6 0,11 -5,5 -15,12 -31,17 -16,5 -37,9 -55,7 -18,-2 -33,-10 -41,-14 -8,-4 -8,-4 -2,1 6,5 17,14 34,20 17,6 40,10 54,11 14,1 17,0 18,3 1,3 -2,9 -5,15 -3,6 -7,12 -18,17 -11,5 -28,10 -46,9 -18,-1 -36,-6 -47,-11 -11,-5 -15,-9 -13,-6 2,3 10,13 26,21 16,8 41,14 55,16 14,2 17,2 17,3 0,2 -2,6 -7,11 -5,5 -13,10 -27,14 -14,3 -34,4 -49,0 -15,-4 -26,-12 -32,-16 -5,-4 -5,-4 0,1 5,5 15,16 27,25 12,9 25,17 40,24 15,7 31,12 39,13 8,1 8,-2 13,-15 5,-13 14,-37 26,-63 12,-26 25,-53 44,-76 18,-23 41,-42 61,-57 20,-15 39,-27 58,-36 19,-9 39,-15 66,-19 26,-4 58,-6 87,-4 28,2 53,7 74,17 22,10 41,24 56,38 15,13 27,25 37,35 10,10 19,18 25,30 7,13 11,30 11,22 z"
   id="path31" />
    <ellipse
   class="fil6"
   cx="7531"
   cy="4969"
   rx="166"
   ry="157"
   id="ellipse33" />
    <path
   class="fil5"
   d="m 7794,5026 c -26,24 -51,49 -76,68 -25,19 -49,32 -84,43 -35,10 -81,17 -122,18 -41,0 -76,-6 -108,-16 -32,-11 -60,-25 -80,-38 -20,-13 -32,-24 -41,-31 -9,-7 -14,-9 -22,-7 -9,2 -21,7 -30,16 -10,10 -17,24 -25,38 17,-11 34,-22 47,-25 13,-3 22,1 21,10 -1,9 -12,23 -18,32 -6,10 -7,15 -8,21 14,-15 27,-31 44,-33 17,-3 37,7 44,14 7,7 0,11 -7,19 -7,8 -14,20 -22,32 17,-13 33,-26 52,-30 19,-4 39,2 55,5 16,4 27,6 29,12 2,6 -5,16 -10,27 -5,11 -8,22 -12,34 22,-19 44,-39 71,-48 27,-9 58,-9 95,-16 37,-7 81,-21 116,-46 36,-25 63,-62 91,-99 z"
   id="path35" />
    <ellipse
   class="fil7"
   cx="7529"
   cy="4968"
   rx="69"
   ry="65"
   id="ellipse37" />
    <path
   class="fil8"
   d="m 7475,4862 c 38,0 69,29 69,65 0,36 -31,65 -69,65 -38,0 -69,-29 -69,-65 0,-36 31,-65 69,-65 z"
   id="path39" />
   </g>
   <path
   class="fil5"
   d="m 7836,4651 c -27,-12 -69,-34 -136,-52 -67,-18 -159,-33 -231,-31 -72,2 -124,21 -169,45 -45,25 -83,55 -96,60 -13,5 0,-17 37,-56 37,-39 98,-97 147,-129 49,-32 85,-39 155,-33 71,6 177,25 248,43 71,18 108,36 126,58 18,21 16,46 8,65 -9,19 -25,33 -38,39 -14,5 -25,2 -52,-10 z"
   id="path43" />
   <g
   id="g61">
    <path
   class="fil4"
   d="m 8418,5089 c 5,14 23,43 56,69 33,26 82,50 133,60 51,11 104,8 146,-5 42,-13 73,-36 96,-65 23,-29 38,-63 30,-69 -8,-6 -38,17 -76,34 -38,17 -83,28 -123,32 -40,4 -75,0 -107,-5 -32,-5 -60,-12 -83,-23 -24,-11 -43,-25 -56,-32 -13,-7 -21,-8 -16,6 z"
   id="path45" />
    <path
   class="fil4"
   d="m 8390,4828 c 18,-27 44,-51 73,-67 29,-17 62,-25 105,-26 43,-1 96,6 136,19 40,13 67,32 93,54 26,22 51,46 68,71 18,24 28,49 36,68 8,19 13,32 17,40 4,7 6,8 11,0 5,-8 12,-26 4,-59 -8,-33 -31,-83 -51,-120 -20,-37 -37,-62 -80,-86 -43,-24 -113,-46 -175,-53 -62,-7 -117,2 -156,11 -39,9 -62,19 -85,49 -23,29 -46,79 -55,112 -8,33 -2,50 4,60 6,10 11,13 18,-1 8,-13 18,-43 36,-69 z"
   id="path47" />
    <path
   class="fil0"
   d="m 8350,4913 c 6,-26 14,-59 35,-89 22,-30 57,-58 110,-72 54,-14 125,-16 185,0 60,16 108,49 143,96 35,48 56,110 69,142 13,32 18,34 -2,52 -20,18 -63,52 -107,73 -44,21 -89,29 -135,30 -46,1 -94,-4 -138,-21 -44,-18 -86,-48 -114,-74 -28,-26 -44,-48 -50,-69 -6,-21 -3,-42 3,-68 z"
   id="path49" />
    <path
   class="fil5"
   d="m 8354,4894 c 1,-8 7,-40 30,-73 24,-33 65,-66 103,-84 39,-17 74,-18 112,-14 38,4 78,12 104,20 27,9 41,18 57,28 16,10 35,21 50,26 15,6 25,6 41,3 16,-3 38,-9 51,-19 12,-11 16,-26 17,-25 2,0 2,15 -6,30 -8,14 -25,28 -38,35 -12,7 -21,8 -25,10 -4,2 -5,6 0,11 5,5 15,12 31,17 16,5 37,9 55,7 18,-2 33,-10 41,-14 8,-4 8,-4 2,1 -6,5 -17,14 -34,20 -17,6 -40,10 -54,11 -14,1 -17,0 -18,3 -1,3 2,9 5,15 3,6 7,12 18,17 11,5 28,10 46,9 18,-1 36,-6 47,-11 11,-5 15,-9 13,-6 -2,3 -10,13 -26,21 -16,8 -41,14 -55,16 -14,2 -17,2 -17,3 0,2 2,6 7,11 5,5 13,10 27,14 14,3 34,4 49,0 15,-4 26,-12 32,-16 5,-4 5,-4 0,1 -5,5 -15,16 -27,25 -12,9 -25,17 -40,24 -15,7 -31,12 -39,13 -8,1 -8,-2 -13,-15 -5,-13 -14,-37 -26,-63 -12,-26 -25,-53 -44,-76 -18,-23 -41,-42 -61,-57 -20,-15 -39,-27 -58,-36 -19,-9 -39,-15 -66,-19 -26,-4 -58,-6 -87,-4 -28,2 -53,7 -74,17 -22,10 -41,24 -56,38 -15,13 -27,25 -37,35 -10,10 -19,18 -25,30 -7,13 -11,30 -11,22 z"
   id="path51" />
    <ellipse
   class="fil6"
   cx="8624"
   cy="4954"
   rx="166"
   ry="157"
   id="ellipse53" />
    <path
   class="fil5"
   d="m 8361,5011 c 26,24 51,49 76,68 25,19 49,32 84,43 35,10 81,17 122,18 41,0 76,-6 108,-16 32,-11 60,-25 80,-38 20,-13 32,-24 41,-31 9,-7 14,-9 22,-7 9,2 21,7 30,16 10,10 17,24 25,38 -17,-11 -34,-22 -47,-25 -13,-3 -22,1 -21,10 1,9 12,23 18,32 6,10 7,15 8,21 -14,-15 -27,-31 -44,-33 -17,-3 -37,7 -44,14 -7,7 0,11 7,19 7,8 14,20 22,32 -17,-13 -33,-26 -52,-30 -19,-4 -39,2 -55,5 -16,4 -27,6 -29,12 -2,6 5,16 10,27 5,11 8,22 12,34 -22,-19 -44,-39 -71,-48 -27,-9 -58,-9 -95,-16 -37,-7 -81,-21 -116,-46 -36,-25 -63,-62 -91,-99 z"
   id="path55" />
    <ellipse
   class="fil7"
   cx="8627"
   cy="4953"
   rx="69"
   ry="65"
   id="ellipse57" />
    <path
   class="fil8"
   d="m 8559,4847 c -38,0 -69,29 -69,65 0,36 31,65 69,65 38,0 69,-29 69,-65 0,-36 -31,-65 -69,-65 z"
   id="path59" />
   </g>
   <path
   class="fil5"
   d="m 8357,4647 c 27,-12 69,-34 136,-52 67,-18 159,-33 231,-31 72,2 124,21 169,45 45,25 83,55 96,60 13,5 0,-17 -37,-56 -37,-39 -98,-97 -147,-129 -49,-32 -85,-39 -155,-33 -71,6 -177,25 -248,43 -71,18 -108,36 -126,58 -18,21 -16,46 -8,65 9,19 25,33 38,39 14,5 25,2 52,-10 z"
   id="path63" />
   <path
   class="fil9"
   d="m 7482,6403 c -107,-83 -215,-185 -308,-310 -119,-161 -212,-360 -279,-569 20,-20 56,-26 112,0 87,42 222,162 298,274 76,112 93,216 112,310 19,94 41,178 55,241 4,20 8,38 10,53 z"
   id="path65" />
   <path
   class="fil9"
   d="m 9292,5497 c -21,-7 -50,-4 -89,15 -87,42 -222,162 -298,274 -15,22 -253,603 -255,610 74,-55 147,-116 212,-181 198,-196 324,-426 428,-713 l 2,-6 z"
   id="path67" />
   <path
   class="fil10"
   d="m 8527,3865 c 151,170 382,504 503,790 121,286 132,524 94,836 -38,312 -125,698 -143,915 -18,217 35,265 114,272 79,7 186,-28 306,-41 119,-13 251,-5 328,0 77,5 99,6 130,-166 31,-172 72,-518 50,-1033 -22,-515 -106,-1199 -348,-1671 -241,-472 -639,-731 -929,-814 -290,-83 -471,10 -563,55 -92,45 -95,44 -161,11 -66,-33 -194,-96 -360,-74 -166,23 -371,131 -544,299 -173,168 -313,395 -410,917 -97,522 -149,1339 -177,1800 -28,461 -32,566 59,627 91,61 277,77 463,94 180,-16 360,-31 384,-106 24,-75 -106,-208 -184,-391 -78,-183 -102,-415 -117,-604 -15,-190 -21,-337 -1,-502 20,-166 67,-350 125,-524 58,-174 127,-339 206,-465 79,-127 167,-216 241,-279 74,-63 134,-100 200,-105 66,-5 139,21 213,23 74,2 150,-20 223,-28 74,-9 146,-4 297,165 z"
   id="path69" />
   <path
   class="fil11"
   d="m 8258,5939 c -38,-11 -66,-24 -89,-26 -23,-2 -43,8 -57,15 -6,3 -11,6 -16,8 -4,-2 -8,-4 -12,-6 -15,-7 -34,-17 -57,-15 -23,2 -51,14 -89,26 -51,15 -120,36 -171,48 -15,3 -34,3 -40,9 -5,6 4,18 21,24 89,34 -27,172 342,168 351,-4 277,-139 358,-170 16,-6 26,-18 21,-24 -5,-6 -25,-6 -40,-9 -49,-11 -124,-34 -171,-48 z m -199,89 c 46,7 37,6 91,1 -20,14 -36,33 -50,33 0,0 -86,-41 -41,-34 z"
   id="path71" />
   <path
   class="fil12"
   d="m 7965,3364 c -12,-48 -41,-126 -82,-181 -41,-55 -95,-86 -152,-97 -56,-10 -115,1 -193,26 -77,26 -173,66 -232,124 -59,58 -80,135 -56,142 24,7 94,-55 167,-86 73,-32 149,-33 204,-27 55,5 89,18 122,32 33,14 65,30 62,41 -3,11 -42,18 -77,23 -36,5 -69,9 -112,29 -43,20 -96,55 -130,101 -34,45 -49,100 -26,113 23,13 85,-16 153,-42 68,-26 141,-47 199,-42 58,5 100,38 110,27 10,-11 -13,-66 -11,-89 2,-24 28,-16 44,-22 16,-6 22,-24 10,-72 z"
   id="path73" />
   <path
   class="fil12"
   d="m 8101,3368 c 12,-48 41,-126 82,-181 41,-55 95,-86 152,-97 56,-10 115,1 193,26 77,26 173,66 232,124 59,58 80,135 56,142 -24,7 -94,-55 -167,-86 -73,-32 -149,-33 -204,-27 -55,5 -89,18 -122,32 -33,14 -65,30 -62,41 3,11 42,18 77,23 36,5 69,9 112,29 43,20 96,55 130,101 34,45 49,100 26,113 -23,13 -85,-16 -153,-42 -68,-26 -141,-47 -199,-42 -58,5 -100,38 -110,27 -10,-11 13,-66 11,-89 -2,-24 -28,-16 -44,-22 -16,-6 -22,-24 -10,-72 z"
   id="path75" />
   <path
   class="fil12"
   d="m 9281,6656 c 38,-7 77,-14 119,-19 80,-9 167,-8 238,-5 12,-231 -4,-507 -31,-786 -46,-478 -121,-965 -143,-1058 -22,-93 9,209 19,521 9,312 -3,636 -90,979 -31,123 -72,249 -110,367 z"
   id="path77" />
   <path
   class="fil12"
   d="m 6611,6640 c 93,21 210,32 327,42 l 8,-1 c -30,-95 -61,-192 -85,-289 -87,-343 -100,-666 -90,-979 9,-312 41,-614 19,-521 -22,93 -97,579 -143,1058 -23,241 -39,480 -35,690 z"
   id="path79" />
   <path
   class="fil13"
   d="m 8105,4969 c 30,9 63,42 91,115 28,73 52,184 77,288 25,104 52,200 44,246 -8,46 -51,42 -79,50 -28,8 -42,29 -54,46 -13,17 -25,30 -34,42 -9,12 -14,23 -31,27 -16,5 -44,3 -59,-5 -15,-8 -18,-21 -25,-34 -6,-13 -15,-26 -28,-33 -13,-7 -30,-9 -42,-8 -12,1 -19,6 -40,-4 -21,-10 -57,-34 -56,-85 0,-50 37,-126 55,-202 18,-76 19,-152 32,-223 13,-71 38,-136 64,-175 26,-40 54,-54 84,-45 z"
   id="path81" />
  </g>
 </g>
</svg>
