<?xml version="1.0" encoding="UTF-8" standalone="no"?>
<svg
   xmlns:dc="http://purl.org/dc/elements/1.1/"
   xmlns:cc="http://creativecommons.org/ns#"
   xmlns:rdf="http://www.w3.org/1999/02/22-rdf-syntax-ns#"
   xmlns:svg="http://www.w3.org/2000/svg"
   xmlns="http://www.w3.org/2000/svg"
   xmlns:sodipodi="http://sodipodi.sourceforge.net/DTD/sodipodi-0.dtd"
   xmlns:inkscape="http://www.inkscape.org/namespaces/inkscape"
   xml:space="preserve"
   width="149.96465mm"
   height="179.34024mm"
   version="1.1"
   style="clip-rule:evenodd;fill-rule:evenodd;image-rendering:optimizeQuality;shape-rendering:geometricPrecision;text-rendering:geometricPrecision"
   viewBox="0 0 14996.465 17934.024"
   id="svg104"
   sodipodi:docname="celtycka merida.svg"
   inkscape:version="1.0.1 (3bc2e813f5, 2020-09-07)"><metadata
   id="metadata108"><rdf:RDF><cc:Work
       rdf:about=""><dc:format>image/svg+xml</dc:format><dc:type
         rdf:resource="http://purl.org/dc/dcmitype/StillImage" /></cc:Work></rdf:RDF></metadata><sodipodi:namedview
   pagecolor="#ffffff"
   bordercolor="#666666"
   borderopacity="1"
   objecttolerance="10"
   gridtolerance="10"
   guidetolerance="10"
   inkscape:pageopacity="0"
   inkscape:pageshadow="2"
   inkscape:window-width="1004"
   inkscape:window-height="480"
   id="namedview106"
   showgrid="false"
   inkscape:zoom="1.1162388"
   inkscape:cx="309.36064"
   inkscape:cy="317.20348"
   inkscape:window-x="62"
   inkscape:window-y="0"
   inkscape:window-maximized="0"
   inkscape:current-layer="svg104" />
 <defs
   id="defs4">
  <style
   type="text/css"
   id="style2">
   <![CDATA[
    .fil4 {fill:#FEFEFE}
    .fil9 {fill:#E64223}
    .fil2 {fill:#E5543A}
    .fil0 {fill:#F6DAD6}
    .fil1 {fill:#E4B9AF}
    .fil10 {fill:#9C3420}
    .fil5 {fill:#74291D}
    .fil11 {fill:#74291D}
    .fil6 {fill:#4E565A}
    .fil7 {fill:#152C20}
    .fil8 {fill:#FEFEFE;fill-opacity:0.501961}
    .fil3 {fill:#CD877A;fill-opacity:0.501961}
   ]]>
  </style>
 </defs>
 <g
   id="Warstwa_x0020_1"
   transform="translate(-6664.8331,-2107.3245)">
  <metadata
   id="CorelCorpID_0Corel-Layer" />
  <path
   class="fil0"
   d="m 19009,5859 c 302,653 524,1597 483,2713 -40,1116 -342,2403 -730,3476 -388,1073 -861,1931 -1601,2665 -740,734 -1747,1345 -2374,1621 -627,276 -873,218 -1513,-115 -639,-334 -1672,-943 -2425,-1964 -753,-1020 -1226,-2451 -1428,-3767 -201,-1316 -131,-2518 96,-3509 227,-992 609,-1774 1213,-2346 604,-572 1430,-935 2367,-1063 937,-129 1984,-24 2810,167 826,191 1430,467 1923,787 493,319 876,682 1178,1335 z"
   id="path7" />
  <path
   class="fil1"
   d="m 14470,10048 c 21,288 88,709 151,1013 62,304 120,491 248,662 129,171 329,327 268,554 -61,227 -384,524 -580,685 -196,161 -266,186 -474,43 -208,-143 -556,-454 -644,-685 -88,-232 82,-384 207,-555 125,-171 205,-360 257,-633 52,-273 77,-629 88,-927 11,-298 8,-536 90,-653 82,-116 250,-110 321,-29 71,81 46,236 67,525 z"
   id="path9" />
  <path
   class="fil2"
   d="m 14887,13679 c -144,-42 -247,-90 -334,-96 -87,-6 -159,29 -215,56 -23,11 -42,21 -59,30 -13,-7 -28,-14 -44,-22 -55,-27 -127,-62 -215,-56 -87,6 -190,54 -334,96 -192,57 -447,136 -638,179 -54,12 -128,12 -148,35 -20,22 15,67 77,91 62,24 150,26 265,30 115,4 257,9 368,1 111,-7 191,-27 308,-16 359,34 379,27 737,-7 117,-11 197,9 308,16 111,7 253,3 368,-1 115,-4 203,-6 265,-30 62,-24 97,-68 77,-91 -20,-22 -93,-22 -148,-35 -184,-42 -462,-128 -638,-179 z"
   id="path11" />
  <path
   class="fil2"
   d="m 14233,14574 c 840,-8 895,-101 1257,-393 151,-122 -76,-126 -194,-129 -115,-3 -257,-7 -368,-1 -111,6 -191,23 -308,13 -162,-13 -262,110 -348,110 -105,0 -192,-120 -389,-104 -117,9 -197,-7 -308,-13 -111,-6 -253,-2 -368,1 -12,0 -193,-9 -162,105 65,238 418,418 1188,411 z"
   id="path13" />
  <g
   id="_2067148965248">
   <path
   class="fil3"
   d="m 12766,10767 c -31,46 -121,135 -265,200 -144,65 -342,107 -536,101 -194,-7 -385,-62 -526,-147 -142,-84 -235,-197 -293,-323 -58,-125 -81,-263 -48,-277 34,-14 124,95 246,190 122,95 276,175 419,224 143,49 274,66 394,75 120,9 228,8 323,-9 95,-18 177,-52 232,-68 55,-15 83,-11 52,35 z"
   id="path15" />
   <path
   class="fil3"
   d="m 13136,9845 c -42,-113 -115,-224 -207,-310 -92,-86 -204,-148 -359,-189 -155,-41 -353,-62 -510,-50 -157,12 -273,57 -387,113 -114,56 -225,123 -311,196 -86,73 -146,153 -192,215 -46,62 -77,106 -97,129 -20,23 -28,24 -38,-10 -10,-34 -22,-105 37,-219 58,-115 187,-274 293,-391 106,-118 190,-194 368,-242 178,-48 450,-67 683,-37 232,31 425,111 558,179 133,68 208,125 265,252 58,128 98,326 100,454 1,127 -36,183 -66,214 -29,31 -50,37 -67,-19 -17,-55 -29,-171 -71,-284 z"
   id="path17" />
   <path
   class="fil4"
   d="m 13203,10190 c 3,-101 2,-225 -49,-353 -52,-128 -155,-260 -336,-360 -182,-100 -442,-168 -674,-163 -232,5 -436,81 -605,223 -169,142 -302,349 -378,454 -76,105 -94,107 -38,189 55,82 184,244 326,359 142,115 297,184 464,230 166,46 344,70 521,45 177,-24 354,-97 480,-167 126,-70 201,-136 241,-208 40,-72 46,-149 49,-250 z"
   id="path19" />
   <path
   class="fil5"
   d="m 13205,10117 c 4,-28 11,-153 -46,-294 -57,-141 -177,-299 -302,-395 -125,-96 -254,-131 -395,-152 -140,-20 -292,-26 -397,-18 -105,7 -163,28 -232,50 -68,22 -147,44 -205,52 -58,7 -95,-1 -151,-25 -56,-25 -131,-66 -167,-115 -36,-49 -34,-107 -40,-108 -6,-1 -21,55 -4,114 17,60 67,124 106,161 39,37 68,48 81,60 13,12 11,25 -11,40 -23,14 -66,29 -127,35 -62,5 -142,1 -205,-22 -64,-23 -112,-65 -136,-86 -24,-21 -24,-21 -8,1 16,22 48,66 105,104 57,39 138,72 186,89 48,16 63,15 64,25 0,10 -14,31 -31,50 -17,19 -36,36 -79,46 -43,9 -111,10 -175,-8 -64,-18 -125,-55 -160,-82 -36,-27 -46,-45 -42,-32 4,13 24,56 77,99 53,43 138,86 187,107 48,21 59,20 58,27 -1,7 -12,21 -35,35 -22,14 -56,26 -109,26 -53,-1 -126,-15 -179,-42 -52,-27 -84,-67 -100,-88 -16,-20 -16,-20 -2,4 14,24 42,71 77,115 35,44 77,86 125,123 48,37 102,70 131,81 28,11 31,0 60,-45 29,-45 85,-123 150,-206 65,-83 139,-170 226,-238 87,-68 185,-116 273,-153 88,-37 165,-64 243,-80 78,-16 157,-21 256,-13 99,8 217,30 319,62 101,32 185,73 255,128 70,55 126,125 170,186 44,62 76,116 104,161 28,45 53,81 66,132 13,52 15,119 19,91 z"
   id="path21" />
   <ellipse
   class="fil6"
   transform="matrix(0.992143,0.241554,-0.241554,0.992143,12171.4,10094.6)"
   rx="607"
   ry="574"
   id="ellipse23"
   cx="0"
   cy="0" />
   <path
   class="fil5"
   d="m 13078,10534 c -115,66 -230,132 -337,179 -107,47 -208,74 -344,80 -137,6 -310,-9 -459,-43 -148,-34 -271,-88 -378,-154 -106,-66 -196,-146 -258,-211 -62,-65 -96,-117 -121,-148 -25,-32 -42,-44 -74,-46 -33,-2 -81,6 -125,32 -44,26 -84,71 -124,116 72,-24 144,-48 194,-48 50,0 78,24 66,56 -12,32 -63,72 -94,101 -30,30 -40,49 -49,69 63,-44 127,-87 191,-82 64,5 129,59 148,91 19,32 -9,41 -41,64 -32,23 -70,61 -107,99 72,-32 143,-65 214,-62 71,3 142,41 196,69 54,28 92,45 93,69 2,24 -32,54 -60,88 -28,34 -50,73 -72,112 97,-51 194,-101 299,-112 105,-11 219,18 360,26 142,8 311,-4 463,-64 152,-61 285,-170 419,-279 z"
   id="path25" />
   <ellipse
   class="fil7"
   transform="matrix(0.41098,0.10006,-0.10006,0.41098,12164.3,10088.1)"
   rx="607"
   ry="574"
   id="ellipse27"
   cx="0"
   cy="0" />
   <path
   class="fil8"
   d="m 12064,9657 c 138,34 224,166 192,297 -32,130 -169,209 -307,175 -138,-34 -224,-166 -192,-297 32,-130 169,-209 307,-175 z"
   id="path29" />
  </g>
  <path
   class="fil5"
   d="m 13220,8473 c -100,-46 -257,-126 -507,-193 -250,-67 -594,-122 -863,-115 -269,7 -463,77 -631,169 -168,92 -310,207 -357,224 -47,17 0,-62 138,-209 138,-147 367,-361 549,-481 182,-120 316,-144 582,-122 265,22 661,92 928,161 267,69 404,136 470,215 66,80 61,172 29,244 -32,72 -92,125 -143,144 -51,20 -93,7 -193,-39 z"
   id="path32" />
  <g
   id="_2067148953792">
   <path
   class="fil3"
   d="m 15684,10742 c 33,45 126,130 272,190 146,60 346,95 539,81 194,-14 382,-76 521,-166 139,-89 227,-206 281,-333 53,-127 72,-266 37,-279 -34,-13 -121,99 -239,199 -119,99 -270,185 -411,239 -141,54 -272,76 -391,89 -119,13 -228,17 -323,2 -96,-14 -179,-46 -234,-59 -56,-13 -83,-8 -51,37 z"
   id="path34" />
   <path
   class="fil3"
   d="m 15317,9830 c 38,-115 107,-228 196,-317 89,-89 199,-155 352,-202 153,-47 350,-75 508,-69 157,6 275,47 391,99 116,52 229,115 318,185 88,70 151,148 199,208 48,60 81,103 102,125 21,22 29,23 38,-12 9,-35 18,-106 -44,-218 -63,-112 -197,-267 -307,-380 -110,-114 -197,-187 -377,-228 -180,-41 -453,-51 -684,-12 -231,39 -421,126 -551,200 -131,73 -203,132 -256,262 -53,130 -86,330 -83,457 3,127 43,181 73,211 30,30 51,35 66,-21 15,-56 23,-172 61,-287 z"
   id="path36" />
   <path
   class="fil4"
   d="m 15263,10178 c -6,-101 -11,-225 36,-355 47,-130 145,-265 323,-372 178,-106 436,-184 668,-187 232,-4 439,65 612,201 174,136 314,338 394,440 79,102 97,103 45,187 -52,84 -175,251 -312,371 -138,120 -291,194 -455,246 -165,52 -341,82 -519,64 -178,-18 -357,-84 -485,-149 -128,-65 -206,-129 -249,-199 -43,-70 -51,-147 -58,-248 z"
   id="path38" />
   <path
   class="fil5"
   d="m 15259,10105 c -5,-28 -17,-152 35,-295 52,-143 166,-305 287,-406 121,-101 249,-141 389,-166 140,-25 291,-37 396,-33 105,4 164,22 233,41 69,19 148,39 207,44 58,5 95,-4 150,-31 55,-27 128,-71 162,-121 34,-51 30,-108 36,-109 6,-1 23,54 8,114 -15,60 -62,126 -100,165 -38,39 -66,50 -79,63 -13,12 -10,26 13,39 23,13 67,27 128,30 62,3 142,-4 205,-30 63,-25 109,-69 132,-91 23,-22 23,-22 8,1 -15,22 -46,67 -101,108 -55,41 -135,77 -182,95 -48,18 -63,18 -63,28 0,10 15,30 32,49 18,18 37,35 81,43 44,8 111,6 174,-14 63,-20 122,-59 157,-88 35,-29 45,-47 41,-34 -4,13 -22,57 -73,101 -51,45 -135,91 -183,114 -47,23 -58,22 -57,29 1,7 13,21 36,34 23,13 57,24 110,22 53,-3 125,-20 177,-49 51,-29 82,-70 97,-91 15,-21 15,-21 2,3 -13,24 -39,72 -73,118 -33,46 -74,89 -121,128 -47,39 -100,73 -128,85 -28,12 -31,1 -62,-42 -31,-44 -89,-120 -157,-201 -68,-81 -145,-165 -234,-230 -89,-65 -189,-109 -279,-143 -89,-34 -167,-58 -246,-71 -79,-13 -158,-15 -256,-3 -98,12 -216,38 -316,73 -100,35 -182,80 -250,137 -68,58 -121,129 -163,192 -42,63 -72,119 -98,164 -27,46 -50,83 -61,135 -11,52 -10,119 -16,91 z"
   id="path40" />
   <ellipse
   class="fil6"
   transform="matrix(-0.982703,0.277471,0.277471,0.982703,16290.9,10044.7)"
   rx="607"
   ry="574"
   id="ellipse42"
   cx="0"
   cy="0" />
   <path
   class="fil5"
   d="m 15401,10516 c 117,62 234,124 343,167 109,43 210,67 347,68 137,1 310,-20 457,-60 147,-40 268,-98 372,-168 104,-70 191,-153 250,-220 59,-67 91,-120 115,-153 24,-33 40,-45 72,-49 32,-3 81,3 126,28 45,25 87,68 128,111 -73,-22 -146,-43 -195,-41 -50,2 -77,27 -64,58 13,31 66,69 97,98 31,29 42,48 52,67 -65,-41 -130,-83 -194,-75 -64,8 -127,64 -144,96 -18,32 10,41 43,63 33,22 72,58 110,95 -73,-30 -145,-60 -216,-54 -71,5 -140,46 -193,76 -53,30 -90,48 -91,72 -1,24 34,52 63,86 29,33 53,71 76,109 -99,-47 -197,-94 -303,-101 -106,-7 -218,26 -359,39 -141,14 -311,8 -465,-47 -154,-55 -291,-159 -429,-264 z"
   id="path44" />
   <ellipse
   class="fil7"
   transform="matrix(-0.40707,0.114938,0.114938,0.40707,16297.7,10037.9)"
   rx="607"
   ry="574"
   id="ellipse46"
   cx="0"
   cy="0" />
   <path
   class="fil8"
   d="m 15947,9726 c -136,39 -218,174 -181,303 36,129 177,202 313,164 136,-39 218,-174 181,-303 -36,-129 -177,-202 -313,-164 z"
   id="path48" />
  </g>
  <path
   class="fil5"
   d="m 15264,8372 c 100,-46 257,-126 507,-193 250,-67 594,-122 863,-115 269,7 463,77 631,169 168,92 310,207 357,224 47,17 0,-62 -138,-209 -138,-147 -367,-361 -691,-454 -324,-93 -742,-65 -1039,-17 -297,48 -474,115 -616,132 -142,17 -249,-17 -294,54 -45,71 -27,247 22,344 50,97 131,116 193,119 62,3 104,-9 204,-55 z"
   id="path51" />
  <path
   class="fil3"
   d="m 12002,15417 c -400,-309 -806,-692 -1152,-1161 -444,-602 -791,-1348 -1043,-2128 76,-77 211,-99 421,1 325,156 831,607 1115,1026 284,420 346,808 418,1160 72,351 154,665 206,903 16,75 29,142 36,199 z"
   id="path53" />
  <path
   class="fil3"
   d="m 18770,12028 c -79,-25 -188,-15 -333,55 -325,156 -831,607 -1115,1026 -56,84 -946,2254 -953,2280 277,-207 549,-434 792,-675 740,-734 1213,-1593 1601,-2665 l 7,-21 z"
   id="path55" />
  <g
   id="_2067148952096">
   <ellipse
   class="fil9"
   cx="16640"
   cy="11862"
   rx="64"
   ry="60"
   id="ellipse57" />
   <ellipse
   class="fil9"
   cx="17062"
   cy="11525"
   rx="64"
   ry="60"
   id="ellipse59" />
   <ellipse
   class="fil9"
   cx="17129"
   cy="12037"
   rx="64"
   ry="60"
   id="ellipse61" />
   <ellipse
   class="fil9"
   cx="16060"
   cy="11675"
   rx="64"
   ry="60"
   id="ellipse63" />
   <ellipse
   class="fil9"
   cx="16102"
   cy="12161"
   rx="64"
   ry="60"
   id="ellipse65" />
  </g>
  <g
   id="_2067148948416">
   <ellipse
   class="fil9"
   cx="12178"
   cy="11832"
   rx="64"
   ry="60"
   id="ellipse68" />
   <ellipse
   class="fil9"
   cx="11756"
   cy="11495"
   rx="64"
   ry="60"
   id="ellipse70" />
   <ellipse
   class="fil9"
   cx="11689"
   cy="12007"
   rx="64"
   ry="60"
   id="ellipse72" />
   <ellipse
   class="fil9"
   cx="12757"
   cy="11645"
   rx="64"
   ry="60"
   id="ellipse74" />
   <ellipse
   class="fil9"
   cx="12716"
   cy="12131"
   rx="64"
   ry="60"
   id="ellipse76" />
  </g>
  <path
   class="fil10"
   d="m 15967,5097 c -179,-84 -561,225 -908,316 -347,91 -658,-35 -819,113 -162,148 -173,571 -273,894 -100,323 -288,546 -611,617 -323,70 -781,-12 -1008,81 -227,93 -222,361 -365,553 -142,192 -432,308 -734,380 -302,72 -616,99 -591,628 25,529 388,1560 485,2236 97,675 -73,995 -283,1158 -210,163 -460,169 -460,421 1,252 252,749 242,1204 -10,455 -281,868 -311,1356 -30,488 181,1052 70,1434 -112,382 -546,582 -541,765 5,184 450,351 579,720 129,369 -59,938 -297,1097 -238,159 -526,-94 -989,48 -463,142 -1102,680 -1568,855 -466,175 -760,-13 -772,-260 -12,-247 258,-552 429,-834 170,-282 241,-540 141,-752 -100,-211 -370,-376 -388,-722 -18,-347 217,-875 223,-1251 6,-376 -217,-599 -276,-922 -59,-323 47,-746 -18,-1122 -65,-376 -300,-705 -253,-1069 47,-364 376,-764 382,-1269 6,-505 -311,-1116 -312,-1451 0,-335 316,-395 384,-859 68,-464 -114,-1333 -128,-1920 -14,-587 138,-892 397,-1142 258,-250 623,-443 805,-717 182,-273 182,-626 429,-952 247,-326 740,-626 1016,-863 276,-238 335,-414 464,-537 129,-123 329,-194 629,-264 300,-70 699,-141 896,-273 197,-132 191,-326 537,-449 347,-123 1046,-176 1668,-209 623,-32 1169,-44 1607,0 438,44 767,144 934,392 167,248 173,644 252,735 79,91 232,-123 585,-253 353,-130 905,-177 1307,87 402,264 655,840 937,1157 282,317 593,376 781,846 188,470 253,1351 555,1962 303,611 843,952 843,1492 0,540 -540,1281 -517,1950 23,670 611,1269 532,1797 -79,529 -825,987 -913,1301 -88,314 482,485 505,861 23,376 -499,957 -529,1427 -29,470 435,828 463,1399 29,571 -378,1355 -725,1571 -347,216 -635,-137 -1107,-73 -472,63 -1129,542 -1407,382 -278,-160 -178,-959 -55,-1405 124,-446 272,-538 260,-802 -12,-264 -183,-701 -234,-1007 -51,-306 19,-482 39,-819 20,-337 -10,-836 -82,-1102 -72,-266 -185,-299 -123,-643 62,-344 300,-1000 343,-1451 43,-451 -110,-698 -51,-1041 59,-344 329,-784 271,-1066 -58,-282 -444,-405 -550,-737 -106,-332 69,-872 33,-1119 -36,-247 -283,-200 -459,-270 -176,-70 -282,-258 -417,-411 -135,-153 -300,-270 -441,-458 -141,-188 -258,-446 -305,-814 -47,-367 -23,-843 -203,-927 z"
   id="path79" />
  <path
   class="fil11"
   d="m 16963,5768 c -24,35 23,411 164,652 141,241 376,347 623,505 247,159 505,370 605,670 100,300 41,687 12,881 -29,194 -29,194 65,53 94,-141 282,-423 376,-705 94,-282 94,-564 -70,-781 -164,-217 -493,-370 -781,-476 -288,-106 -535,-164 -705,-347 -170,-182 -264,-488 -288,-452 z"
   id="path81" />
  <path
   class="fil11"
   d="m 10261,9463 c 100,182 370,981 393,1528 23,547 -201,843 -365,1045 -164,202 -266,311 -211,652 55,340 267,911 196,1373 -71,461 -427,813 -604,989 -178,176 -178,176 -60,-83 117,-258 352,-775 347,-1204 -6,-429 -253,-769 -338,-1096 -85,-326 -9,-639 144,-862 153,-223 382,-357 485,-618 103,-261 79,-649 32,-1060 -47,-411 -117,-846 -18,-664 z"
   id="path83" />
  <path
   class="fil11"
   d="m 15477,3143 c 135,-88 -194,-311 -676,-370 -482,-59 -1116,47 -1568,164 -452,117 -722,247 -969,317 -247,70 -470,82 -434,147 36,64 332,182 761,146 429,-35 991,-223 1571,-293 580,-70 1180,-23 1315,-111 z"
   id="path85" />
  <path
   class="fil11"
   d="m 15042,4746 c -65,35 -394,129 -681,141 -288,12 -535,-59 -652,100 -117,159 -106,546 -117,816 -12,270 -47,423 -104,546 -57,123 -137,217 -348,270 -211,53 -555,65 -815,123 -260,59 -436,164 -548,300 -112,135 -159,300 -352,423 -194,123 -535,206 -775,200 -241,-6 -382,-100 -452,-147 -70,-47 -70,-47 123,-129 194,-82 582,-247 881,-470 300,-223 511,-505 758,-599 247,-94 529,0 758,-76 229,-76 405,-323 476,-582 70,-258 35,-529 88,-705 53,-176 194,-258 446,-276 253,-18 617,29 899,41 282,12 482,-12 417,24 z"
   id="path87" />
  <path
   class="fil11"
   d="m 20890,12006 c 109,159 126,305 38,452 -88,147 -282,294 -470,426 -188,132 -370,250 -420,443 -50,194 32,464 159,661 126,197 297,320 379,470 82,150 76,326 12,508 -65,182 -188,370 -294,535 -106,164 -194,305 -197,188 -3,-117 79,-493 70,-767 -9,-273 -109,-443 -279,-620 -170,-176 -411,-358 -505,-561 -94,-203 -41,-426 65,-599 106,-173 264,-297 458,-405 194,-109 423,-203 567,-276 144,-73 203,-126 205,-231 2,-104 -52,-260 -111,-389 -59,-129 -122,-232 -54,-198 68,34 268,204 377,363 z"
   id="path89" />
  <path
   class="fil9"
   d="m 16826,4144 c 144,-76 350,-194 564,-273 214,-79 438,-120 675,3 238,123 490,411 687,655 197,244 338,443 493,499 156,56 326,-32 411,-76 85,-44 85,-44 15,-47 -70,-3 -211,-9 -344,-126 -132,-117 -256,-347 -399,-590 -144,-244 -308,-502 -470,-631 -162,-129 -320,-129 -529,-65 -209,65 -467,194 -711,338 -244,144 -473,303 -546,364 -73,62 9,26 153,-50 z"
   id="path91" />
  <path
   class="fil9"
   d="m 9419,9542 c 44,38 65,235 84,380 19,145 37,239 -24,319 -60,79 -198,144 -338,162 -140,18 -280,-12 -367,18 -87,29 -119,117 -85,198 34,81 134,154 222,231 88,76 164,156 201,222 37,66 34,119 -15,154 -48,35 -142,53 -203,109 -60,56 -87,150 -85,210 1,60 31,87 53,110 22,24 37,44 44,54 7,10 7,10 -46,-53 -53,-63 -159,-189 -163,-297 -4,-107 93,-195 84,-275 -9,-79 -123,-150 -207,-275 -84,-125 -137,-304 -131,-429 6,-125 70,-195 182,-238 112,-43 270,-57 380,-119 110,-62 172,-170 236,-285 65,-115 132,-235 176,-197 z"
   id="path93" />
  <path
   class="fil9"
   d="m 18951,9102 c -47,47 -85,312 -116,507 -32,195 -57,321 -4,436 53,115 185,219 323,259 137,40 280,17 364,67 84,50 108,174 68,280 -41,106 -146,194 -241,287 -94,93 -177,192 -220,278 -42,86 -44,158 1,211 45,54 137,89 193,172 55,83 73,214 67,296 -7,82 -38,114 -62,144 -24,29 -40,56 -49,69 -8,13 -8,13 50,-67 58,-80 174,-239 188,-384 14,-145 -75,-277 -60,-383 16,-107 136,-189 230,-349 94,-160 162,-397 167,-568 5,-170 -53,-274 -161,-345 -108,-71 -264,-110 -369,-207 -104,-97 -157,-252 -211,-415 -55,-163 -111,-335 -159,-288 z"
   id="path95" />
  <path
   class="fil9"
   d="m 18427,15297 c -44,51 -65,313 -84,507 -19,194 -37,319 24,425 60,106 198,192 338,215 140,24 280,-16 367,24 87,39 119,157 85,264 -34,108 -134,206 -222,308 -88,102 -164,208 -201,296 -37,88 -34,159 15,206 48,47 142,71 203,145 60,74 87,200 85,280 -1,80 -31,116 -53,147 -22,31 -37,59 -44,72 -7,14 -7,14 46,-71 53,-84 159,-253 163,-396 4,-143 -93,-260 -84,-366 9,-106 123,-200 207,-366 84,-166 137,-405 131,-572 -6,-166 -70,-260 -182,-317 -112,-57 -270,-76 -380,-159 -110,-82 -172,-227 -236,-380 -65,-153 -132,-313 -176,-262 z"
   id="path97" />
  <path
   class="fil9"
   d="m 9226,6911 c 67,3 287,-142 451,-246 165,-104 274,-168 320,-280 46,-113 29,-274 -38,-399 -67,-124 -185,-211 -208,-304 -22,-92 50,-190 156,-230 106,-40 244,-21 379,-15 135,7 265,2 357,-24 92,-25 146,-71 153,-138 7,-67 -32,-156 -11,-249 22,-93 104,-191 168,-240 64,-48 110,-47 148,-49 38,-2 69,-7 84,-10 15,-3 15,-3 -84,8 -99,10 -297,31 -412,115 -115,85 -148,233 -237,291 -89,58 -233,26 -416,62 -183,37 -404,142 -531,249 -128,107 -162,216 -138,339 24,123 106,260 109,397 3,137 -73,275 -154,420 -81,145 -166,297 -98,300 z"
   id="path99" />
  <path
   class="fil9"
   d="m 7918,15524 c -52,50 -120,352 -173,574 -53,222 -93,365 -53,501 40,136 161,266 294,323 133,57 279,41 357,105 78,64 89,208 37,327 -52,119 -168,212 -273,312 -105,100 -199,207 -251,302 -52,95 -62,178 -22,243 39,65 128,112 173,212 46,100 50,251 34,345 -16,93 -51,128 -78,160 -27,32 -47,61 -56,75 -10,14 -10,14 57,-73 67,-87 201,-261 231,-427 30,-166 -44,-324 -17,-445 28,-122 157,-207 269,-383 112,-176 207,-444 231,-639 24,-195 -23,-319 -122,-409 -100,-90 -252,-146 -346,-266 -94,-119 -128,-301 -165,-493 -36,-192 -74,-394 -126,-344 z"
   id="path101" />
 </g>
</svg>
