<?xml version="1.0" encoding="UTF-8" standalone="no"?>
<svg
   xmlns:dc="http://purl.org/dc/elements/1.1/"
   xmlns:cc="http://creativecommons.org/ns#"
   xmlns:rdf="http://www.w3.org/1999/02/22-rdf-syntax-ns#"
   xmlns:svg="http://www.w3.org/2000/svg"
   xmlns="http://www.w3.org/2000/svg"
   xmlns:sodipodi="http://sodipodi.sourceforge.net/DTD/sodipodi-0.dtd"
   xmlns:inkscape="http://www.inkscape.org/namespaces/inkscape"
   xml:space="preserve"
   width="297mm"
   height="210mm"
   version="1.0"
   style="shape-rendering:geometricPrecision; text-rendering:geometricPrecision; image-rendering:optimizeQuality; fill-rule:evenodd; clip-rule:evenodd"
   viewBox="0 0 29700 21000"
   id="svg105"
   sodipodi:docname="face.svg"
   inkscape:version="1.0.1 (3bc2e813f5, 2020-09-07)"><metadata
   id="metadata109"><rdf:RDF><cc:Work
       rdf:about=""><dc:format>image/svg+xml</dc:format><dc:type
         rdf:resource="http://purl.org/dc/dcmitype/StillImage" /></cc:Work></rdf:RDF></metadata><sodipodi:namedview
   pagecolor="#ffffff"
   bordercolor="#666666"
   borderopacity="1"
   objecttolerance="10"
   gridtolerance="10"
   guidetolerance="10"
   inkscape:pageopacity="0"
   inkscape:pageshadow="2"
   inkscape:window-width="1858"
   inkscape:window-height="1057"
   id="namedview107"
   showgrid="false"
   inkscape:zoom="1.5786"
   inkscape:cx="506.05479"
   inkscape:cy="410.31118"
   inkscape:window-x="54"
   inkscape:window-y="-8"
   inkscape:window-maximized="1"
   inkscape:current-layer="Warstwa_x0020_1" />
 <defs
   id="defs4">
  <style
   type="text/css"
   id="style2">
   <![CDATA[
    .fil4 {fill:#FEFEFE}
    .fil9 {fill:#E64223}
    .fil2 {fill:#E5543A}
    .fil0 {fill:#F6DAD6}
    .fil1 {fill:#E4B9AF}
    .fil10 {fill:#9C3420}
    .fil5 {fill:#74291D}
    .fil6 {fill:#4E565A}
    .fil7 {fill:#152C20}
    .fil8 {fill:#FEFEFE;fill-opacity:0.501961}
    .fil3 {fill:#CD877A;fill-opacity:0.501961}
   ]]>
  </style>
 
   
   
   
   
   
   
   
   
   
   
   
   
   
   
   
   
   
   
   
   
   
   
   
   
   
   
   
   
   
   
   
   
  </defs>
 <g
   id="Warstwa_x0020_1">
  <metadata
   id="CorelCorpID_0Corel-Layer" />
  <path
   class="fil0 face"
   d="m 18119,7465 c 187,404 324,987 299,1677 -25,690 -212,1485 -451,2148 -240,663 -532,1194 -990,1647 -457,454 -1080,831 -1467,1002 -387,171 -540,135 -935,-71 -395,-206 -1033,-583 -1498,-1214 -465,-630 -758,-1515 -882,-2328 -124,-813 -81,-1556 59,-2169 140,-613 377,-1096 750,-1450 373,-354 884,-578 1463,-657 579,-80 1226,-15 1736,103 510,118 884,289 1189,486 305,197 541,421 728,825 z"
   id="celtic__face"
   style="opacity:1" /><path
   class="fil1 face"
   d="m 15314,10054 c 13,178 55,438 93,626 38,188 74,303 154,409 80,106 204,202 166,342 -38,140 -237,324 -358,424 -121,100 -164,115 -293,27 -129,-88 -343,-280 -398,-424 -55,-143 51,-237 128,-343 77,-106 127,-223 159,-391 32,-169 48,-389 55,-573 7,-184 5,-332 56,-403 51,-72 154,-68 198,-18 44,50 29,146 42,324 z"
   id="celtic__nose"
   style="opacity:1" /><g
   id="celtic__lips"
   class="face"
   style="opacity:1"><path
     class="fil2"
     d="m 15571,12298 c -89,-26 -152,-55 -206,-59 -54,-4 -98,18 -133,35 -14,7 -26,13 -37,18 -8,-4 -17,-9 -27,-14 -34,-17 -79,-38 -133,-35 -54,4 -117,33 -206,59 -119,35 -276,84 -394,111 -34,8 -79,8 -91,22 -12,14 10,42 48,56 38,15 93,16 164,18 71,2 159,5 227,1 69,-5 118,-17 190,-10 222,21 234,17 455,-5 72,-7 122,5 190,10 69,5 156,2 227,-1 71,-2 126,-4 164,-18 38,-15 60,-42 48,-56 -12,-14 -58,-14 -91,-22 -114,-26 -286,-79 -394,-111 z"
     id="path11" /><path
     class="fil2"
     d="m 15167,12851 c 519,-5 553,-62 777,-243 93,-75 -47,-78 -120,-80 -71,-2 -159,-4 -227,-1 -69,4 -118,14 -190,8 -100,-8 -162,68 -215,68 -65,0 -119,-74 -240,-64 -72,6 -122,-4 -190,-8 -69,-4 -156,-1 -227,1 -7,0 -119,-5 -100,65 40,147 258,258 734,254 z"
     id="path13" /></g><g
   id="celtic__eye-left"
   style="opacity:1"
   class="face">
    <path
   class="fil3"
   d="m 14261,10498 c -19,29 -75,83 -164,123 -89,40 -211,66 -331,62 -120,-4 -238,-39 -325,-91 -88,-52 -145,-122 -181,-199 -36,-77 -50,-163 -29,-171 21,-9 77,59 152,117 76,59 171,108 259,138 88,30 170,41 244,46 74,5 141,5 200,-6 59,-11 109,-32 143,-42 34,-9 51,-7 32,22 z"
   id="path15" />
    <path
   class="fil3"
   d="m 14489,9928 c -26,-70 -71,-138 -128,-192 -57,-53 -126,-91 -222,-117 -96,-26 -218,-38 -315,-31 -97,8 -169,36 -239,70 -70,35 -139,76 -192,121 -53,45 -90,95 -118,133 -28,38 -48,65 -60,79 -12,14 -18,15 -24,-6 -6,-21 -14,-65 23,-136 36,-71 116,-169 181,-242 66,-73 117,-120 228,-149 110,-30 278,-42 422,-23 144,19 263,69 345,111 82,42 128,77 164,156 36,79 61,202 62,280 1,79 -23,113 -41,132 -18,19 -31,23 -41,-11 -10,-34 -18,-106 -44,-176 z"
   id="path17" />
    <path
   class="fil4"
   d="m 14531,10142 c 2,-62 2,-139 -30,-218 -32,-79 -96,-161 -208,-222 -112,-62 -273,-104 -417,-101 -143,3 -270,50 -374,138 -104,88 -187,216 -233,281 -47,65 -58,66 -24,117 34,51 113,151 201,222 88,71 184,113 287,142 103,28 212,43 322,28 109,-15 219,-60 296,-103 78,-43 124,-84 149,-129 25,-44 28,-92 30,-154 z"
   id="path19" />
    <path
   class="fil5"
   d="m 14532,10096 c 3,-18 7,-94 -28,-181 -35,-87 -109,-185 -187,-244 -77,-60 -157,-81 -244,-94 -87,-13 -181,-16 -245,-11 -65,5 -101,17 -143,31 -42,13 -91,27 -127,32 -36,5 -59,0 -94,-16 -35,-15 -81,-41 -103,-71 -22,-31 -21,-66 -25,-67 -4,-1 -13,34 -2,71 11,37 41,77 65,100 24,23 42,30 50,37 8,7 7,16 -7,24 -14,9 -41,18 -79,21 -38,3 -87,1 -127,-14 -39,-14 -69,-40 -84,-53 -15,-13 -15,-13 -5,1 10,14 30,41 65,64 35,24 85,45 115,55 30,10 39,10 40,16 0,6 -9,19 -19,31 -10,12 -22,23 -49,28 -27,6 -68,6 -108,-5 -40,-11 -77,-34 -99,-51 -22,-17 -29,-28 -26,-20 3,8 15,34 47,61 33,27 86,53 115,66 30,13 36,12 36,17 0,4 -8,13 -21,22 -14,8 -34,16 -67,16 -33,0 -78,-9 -110,-26 -32,-17 -52,-42 -62,-54 -10,-12 -10,-12 -1,2 9,15 26,44 47,71 22,27 48,53 77,76 30,23 63,43 81,50 18,7 19,0 37,-28 18,-28 52,-76 92,-128 40,-51 86,-105 140,-147 53,-42 115,-72 169,-95 54,-23 102,-39 150,-49 48,-10 97,-13 158,-8 61,5 134,19 197,38 63,20 114,45 158,79 43,34 78,77 105,115 27,38 47,72 64,99 17,28 33,50 41,82 8,32 9,74 12,56 z"
   id="path21" />
    <ellipse
   class="fil6"
   transform="matrix(0.613188,0.149291,-0.149291,0.613188,13892.9,10082.5)"
   rx="607"
   ry="574"
   id="ellipse23"
   cx="0"
   cy="0" />
    <path
   class="fil5"
   d="m 14453,10354 c -71,41 -142,82 -208,111 -66,29 -128,46 -213,50 -85,4 -192,-5 -284,-27 -92,-21 -168,-54 -234,-95 -66,-41 -121,-90 -159,-130 -38,-40 -59,-72 -75,-92 -16,-20 -26,-27 -46,-29 -20,-1 -50,4 -77,20 -27,16 -52,44 -77,72 44,-15 89,-30 120,-30 31,0 48,15 41,35 -7,20 -39,44 -58,63 -19,18 -25,31 -30,43 39,-27 78,-54 118,-51 40,3 80,37 91,56 12,20 -5,25 -25,40 -20,14 -43,38 -66,61 44,-20 89,-40 132,-38 44,2 88,25 121,42 33,17 57,28 58,42 1,15 -20,33 -37,54 -17,21 -31,45 -45,69 60,-31 120,-63 185,-69 65,-7 135,11 223,16 88,5 192,-2 286,-40 94,-37 176,-105 259,-173 z"
   id="path25" />
    <ellipse
   class="fil7"
   transform="matrix(0.254004,0.0618415,-0.0618415,0.254004,13888.5,10078.5)"
   rx="607"
   ry="574"
   id="ellipse27"
   cx="0"
   cy="0" />
    <path
   class="fil8"
   d="m 13827,9812 c 85,21 138,103 119,183 -20,81 -105,129 -190,108 -85,-21 -138,-103 -119,-183 20,-81 105,-129 190,-108 z"
   id="path29" />
   </g><path
   class="fil5 face"
   d="m 14541,9080 c -62,-28 -159,-78 -313,-119 -155,-42 -367,-75 -533,-71 -166,5 -286,48 -390,105 -104,57 -192,128 -221,139 -29,11 0,-38 85,-129 85,-91 227,-223 339,-297 112,-74 196,-89 359,-75 164,14 409,57 573,99 165,42 249,84 290,133 41,49 38,106 18,151 -20,45 -57,77 -89,89 -32,12 -58,5 -119,-24 z"
   id="celtic__eyebrow-left"
   style="opacity:1" /><g
   id="celtic__eye-right"
   style="opacity:1"
   class="face">
    <path
   class="fil3"
   d="m 16064,10483 c 20,28 78,80 168,117 90,37 214,59 333,50 120,-9 236,-47 322,-102 86,-55 141,-127 174,-206 33,-79 44,-164 23,-172 -21,-8 -75,61 -148,123 -73,61 -167,114 -254,148 -87,33 -168,47 -242,55 -74,8 -141,10 -200,2 -59,-9 -111,-28 -145,-37 -34,-8 -52,-5 -31,23 z"
   id="path35" />
    <path
   class="fil3"
   d="m 15837,9919 c 24,-71 66,-141 121,-196 55,-55 123,-96 217,-125 95,-29 217,-46 314,-42 97,4 170,29 241,61 71,32 142,71 196,114 55,43 94,91 123,128 30,37 50,64 63,77 13,14 18,14 24,-7 5,-22 11,-65 -27,-135 -39,-70 -122,-165 -190,-235 -68,-70 -122,-116 -233,-141 -111,-26 -280,-31 -423,-7 -143,24 -260,78 -341,123 -81,45 -126,82 -158,162 -33,80 -53,204 -51,282 2,79 27,112 45,130 19,18 32,21 41,-13 9,-34 14,-106 38,-177 z"
   id="path37" />
    <path
   class="fil4"
   d="m 15804,10134 c -4,-62 -7,-139 22,-219 29,-80 90,-164 200,-230 110,-66 269,-113 413,-116 143,-2 271,40 378,124 107,84 194,209 243,272 49,63 60,64 28,116 -32,52 -108,155 -193,229 -85,74 -180,120 -281,152 -102,32 -211,51 -321,40 -110,-11 -221,-52 -300,-92 -79,-40 -127,-80 -154,-123 -27,-44 -32,-91 -36,-153 z"
   id="path39" />
    <path
   class="fil5"
   d="m 15801,10089 c -3,-17 -10,-94 22,-182 32,-88 103,-189 178,-251 75,-62 154,-87 240,-103 86,-16 180,-23 245,-20 65,2 101,14 144,25 43,12 92,24 128,27 36,3 59,-3 93,-19 34,-16 79,-44 100,-75 21,-31 18,-67 22,-67 4,-1 14,33 5,71 -9,37 -38,78 -62,102 -23,24 -41,31 -49,39 -8,8 -6,16 8,24 14,8 41,17 79,18 38,2 87,-3 126,-18 39,-16 68,-43 82,-56 14,-13 14,-13 5,0 -9,14 -28,42 -62,67 -34,25 -83,48 -113,59 -29,11 -39,11 -39,17 0,6 9,19 20,30 11,11 23,22 50,26 27,5 69,4 108,-9 39,-12 76,-37 97,-54 21,-18 28,-29 25,-21 -2,8 -14,35 -45,63 -32,28 -84,56 -113,70 -29,14 -36,14 -35,18 0,4 8,13 22,21 14,8 35,15 68,13 33,-2 78,-12 109,-30 32,-18 51,-44 60,-56 9,-13 9,-13 1,2 -8,15 -24,45 -45,73 -21,28 -46,55 -75,79 -29,24 -62,45 -79,53 -17,7 -19,1 -38,-26 -19,-27 -55,-74 -97,-124 -42,-50 -90,-102 -145,-142 -55,-40 -117,-68 -172,-89 -55,-21 -103,-36 -152,-44 -49,-8 -97,-9 -158,-2 -61,7 -134,24 -195,45 -62,22 -113,49 -155,85 -42,36 -75,80 -101,119 -26,39 -44,73 -61,102 -16,28 -31,51 -38,83 -7,32 -6,74 -10,56 z"
   id="path41" />
    <ellipse
   class="fil6"
   transform="matrix(-0.607353,0.17149,0.17149,0.607353,16438.9,10051.7)"
   rx="607"
   ry="574"
   id="ellipse43"
   cx="0"
   cy="0" />
    <path
   class="fil5"
   d="m 15889,10343 c 72,38 145,77 212,103 67,26 130,41 215,42 85,1 192,-12 282,-37 91,-25 166,-60 230,-104 64,-43 118,-94 155,-136 37,-42 56,-74 71,-94 15,-20 25,-28 45,-30 20,-2 50,2 78,17 28,15 54,42 79,69 -45,-13 -90,-27 -121,-26 -31,1 -47,17 -39,36 8,19 41,43 60,60 19,18 26,30 32,42 -40,-26 -80,-51 -120,-46 -40,5 -78,39 -89,59 -11,20 6,25 27,39 21,14 44,36 68,58 -45,-18 -90,-37 -134,-33 -44,3 -87,28 -119,47 -33,18 -56,30 -56,44 -1,15 21,32 39,53 18,21 33,44 47,67 -61,-29 -122,-58 -187,-62 -65,-4 -135,16 -222,24 -87,8 -192,5 -287,-29 -95,-34 -180,-99 -265,-163 z"
   id="path45" />
    <ellipse
   class="fil7"
   transform="matrix(-0.251587,0.0710369,0.0710369,0.251587,16443.1,10047.5)"
   rx="607"
   ry="574"
   id="ellipse47"
   cx="0"
   cy="0" />
    <path
   class="fil8"
   d="m 16226,9855 c -84,24 -134,108 -112,187 23,80 109,125 193,101 84,-24 134,-108 112,-187 -23,-80 -109,-125 -193,-101 z"
   id="path49" />
   </g><path
   class="fil5 face"
   d="m 15804,9018 c 62,-28 159,-78 313,-119 155,-42 367,-75 533,-71 166,5 286,48 390,105 104,57 192,128 221,139 29,11 0,-38 -85,-129 -85,-91 -227,-223 -427,-281 -200,-57 -458,-40 -642,-10 -184,30 -293,71 -381,82 -88,10 -154,-10 -182,34 -28,44 -17,152 14,213 31,60 81,72 119,74 38,2 64,-6 126,-34 z"
   id="celtic__eyebrow-right"
   style="opacity:1" /><path
   class="fil3 face"
   d="m 13788,13372 c -247,-191 -498,-427 -712,-718 -275,-372 -489,-833 -644,-1315 47,-47 130,-61 260,1 201,96 513,375 689,634 176,259 214,500 259,717 45,217 95,411 127,558 10,46 18,88 22,123 z"
   id="celtic__cheek-left"
   style="opacity:1" /><path
   class="fil3 face"
   d="m 17971,11277 c -49,-16 -116,-9 -206,34 -201,96 -513,375 -689,634 -35,52 -585,1393 -589,1409 171,-128 339,-268 489,-417 457,-454 750,-984 990,-1647 z"
   id="celtic__cheek-right"
   style="opacity:1" /><ellipse
   class="fil9"
   cx="16654"
   cy="11175"
   rx="39"
   ry="37"
   id="ellipse59"
   style="opacity:1" /><ellipse
   class="fil9"
   cx="16915"
   cy="10967"
   rx="39"
   ry="37"
   id="ellipse61"
   style="opacity:1" /><ellipse
   class="fil9"
   cx="16957"
   cy="11283"
   rx="39"
   ry="37"
   id="ellipse63"
   style="opacity:1" /><ellipse
   class="fil9"
   cx="16297"
   cy="11059"
   rx="39"
   ry="37"
   id="ellipse65"
   style="opacity:1" /><ellipse
   class="fil9"
   cx="16322"
   cy="11359"
   rx="39"
   ry="37"
   id="ellipse67"
   style="opacity:1" /><ellipse
   class="fil9"
   cx="13897"
   cy="11156"
   rx="39"
   ry="37"
   id="ellipse69"
   style="opacity:1" /><ellipse
   class="fil9"
   cx="13636"
   cy="10948"
   rx="39"
   ry="37"
   id="ellipse71"
   style="opacity:1" /><ellipse
   class="fil9"
   cx="13595"
   cy="11265"
   rx="39"
   ry="37"
   id="ellipse73"
   style="opacity:1" /><ellipse
   class="fil9"
   cx="14255"
   cy="11041"
   rx="39"
   ry="37"
   id="ellipse75"
   style="opacity:1" /><ellipse
   class="fil9"
   cx="14230"
   cy="11341"
   rx="39"
   ry="37"
   id="ellipse77"
   style="opacity:1" /><path
   class="fil10"
   d="m 16239,6994 c -111,-52 -347,139 -561,195 -214,56 -407,-22 -506,70 -100,92 -107,353 -169,553 -62,200 -178,338 -378,381 -200,44 -483,-7 -623,50 -140,57 -137,223 -225,342 -88,119 -267,190 -454,235 -187,44 -381,61 -365,388 15,327 240,964 300,1382 60,417 -45,615 -175,716 -130,101 -285,105 -284,260 0,156 156,463 150,744 -6,281 -174,536 -192,838 -19,302 112,650 43,886 -69,236 -338,359 -334,473 3,113 278,217 358,445 79,228 -37,580 -184,678 -147,98 -325,-58 -611,30 -286,88 -681,420 -969,528 -288,108 -470,-8 -477,-161 -7,-152 160,-341 265,-516 105,-174 149,-334 87,-465 -62,-131 -229,-232 -240,-447 -11,-214 134,-541 138,-773 4,-232 -134,-370 -171,-570 -36,-200 29,-461 -11,-693 -40,-232 -185,-436 -156,-661 29,-225 232,-472 236,-784 4,-312 -192,-690 -193,-897 0,-207 196,-244 237,-531 42,-287 -70,-824 -79,-1186 -9,-363 85,-552 245,-706 160,-154 385,-274 497,-443 113,-169 113,-387 265,-588 152,-201 457,-387 628,-534 171,-147 207,-256 287,-332 80,-76 203,-120 388,-163 185,-44 432,-87 554,-169 122,-82 118,-201 332,-278 214,-76 646,-109 1031,-129 385,-20 722,-27 993,0 270,27 474,89 577,242 103,153 107,398 156,454 49,56 144,-76 362,-157 218,-81 559,-110 808,54 249,163 405,519 579,715 174,196 367,232 483,523 116,290 156,835 343,1213 187,378 521,588 521,922 0,334 -334,791 -319,1205 15,414 378,784 329,1111 -49,327 -510,610 -565,804 -54,194 298,300 312,532 15,232 -309,592 -327,882 -18,290 269,512 286,865 18,353 -234,838 -448,971 -215,133 -393,-84 -684,-45 -292,39 -697,335 -869,236 -172,-99 -110,-593 -34,-868 77,-275 168,-332 161,-496 -7,-163 -113,-433 -145,-622 -31,-189 12,-298 24,-506 12,-208 -6,-517 -50,-681 -44,-164 -115,-185 -76,-397 38,-213 186,-618 212,-897 26,-279 -68,-431 -32,-644 36,-212 203,-485 167,-659 -36,-174 -275,-250 -340,-456 -65,-205 43,-539 21,-692 -22,-152 -175,-123 -284,-167 -109,-44 -174,-160 -258,-254 -84,-94 -185,-167 -272,-283 -87,-116 -160,-276 -189,-503 -29,-227 -15,-521 -125,-573 z"
   id="celtic__hair"
   style="opacity:1" /><path
   class="fil5 face"
   d="m 16854,7409 c -15,22 15,254 102,403 87,149 232,214 385,312 152,98 312,229 374,414 62,185 25,425 7,545 -18,120 -18,120 40,33 58,-87 174,-261 232,-436 58,-174 58,-349 -44,-483 -102,-134 -305,-229 -483,-294 -178,-65 -330,-102 -436,-214 -105,-113 -163,-301 -178,-280 z"
   id="celtic__strand-eleven"
   style="opacity:1" /><path
   class="fil5 face"
   d="m 12712,9692 c 62,113 229,606 243,944 14,338 -125,521 -226,646 -101,125 -165,192 -131,403 34,210 165,563 121,848 -44,285 -264,502 -373,611 -110,109 -110,109 -37,-51 73,-160 218,-479 214,-744 -4,-265 -156,-476 -209,-677 -53,-202 -6,-395 89,-533 94,-138 236,-221 300,-382 64,-161 49,-401 20,-655 -29,-254 -73,-523 -11,-410 z"
   id="celtic__strand-ten"
   style="opacity:1" /><path
   class="fil5 face"
   d="m 15936,5786 c 84,-54 -120,-192 -417,-229 -298,-36 -690,29 -969,102 -280,73 -447,152 -599,196 -152,44 -290,51 -268,91 22,40 205,112 470,90 265,-22 612,-138 971,-181 359,-43 729,-14 813,-69 z"
   id="celtic__strand-nine"
   style="opacity:1" /><path
   class="fil5 face"
   d="m 15667,6777 c -40,22 -243,80 -421,87 -178,7 -330,-36 -403,62 -73,98 -65,338 -73,505 -7,167 -29,261 -64,338 -35,76 -84,134 -215,167 -131,33 -343,40 -504,76 -161,36 -270,102 -339,185 -69,84 -98,185 -218,261 -120,76 -330,127 -479,123 -149,-4 -236,-62 -280,-91 -44,-29 -44,-29 76,-80 120,-51 359,-152 545,-290 185,-138 316,-312 468,-370 152,-58 327,0 468,-47 142,-47 250,-200 294,-359 44,-160 22,-327 54,-436 33,-109 120,-160 276,-171 156,-11 381,18 555,25 174,7 298,-7 258,15 z"
   id="celtic__strand-eight"
   style="opacity:1" /><path
   class="fil5 face"
   d="m 19281,11264 c 67,98 78,189 24,280 -54,91 -174,182 -290,263 -116,82 -229,154 -260,274 -31,120 20,287 98,408 78,122 183,198 234,290 51,93 47,201 7,314 -40,113 -116,229 -182,330 -65,102 -120,189 -122,116 -2,-73 49,-305 44,-474 -5,-169 -67,-274 -172,-383 -105,-109 -254,-221 -312,-347 -58,-125 -25,-263 40,-370 65,-107 163,-183 283,-250 120,-67 261,-125 350,-171 89,-45 125,-78 127,-142 1,-64 -32,-161 -69,-241 -36,-80 -75,-143 -33,-123 42,21 166,126 233,224 z"
   id="celtic__strand-seven"
   style="opacity:1" /><path
   class="fil9 face"
   d="m 16770,6405 c 89,-47 216,-120 349,-169 133,-49 270,-74 417,2 147,76 303,254 425,405 122,151 209,274 305,309 96,34 201,-20 254,-47 53,-27 53,-27 9,-29 -44,-2 -131,-5 -212,-78 -82,-73 -158,-214 -247,-365 -89,-151 -191,-310 -290,-390 -100,-80 -198,-80 -327,-40 -129,40 -289,120 -439,209 -151,89 -292,187 -338,225 -45,38 5,16 94,-31 z"
   id="celtic__strand-six"
   style="opacity:1" /><path
   class="fil9 face"
   d="m 12192,9741 c 27,24 40,145 52,235 12,90 23,148 -15,197 -37,49 -123,89 -209,100 -86,11 -173,-7 -227,11 -54,18 -74,73 -53,123 21,50 83,95 137,142 54,47 102,96 124,137 23,41 21,74 -9,95 -30,22 -88,33 -125,67 -37,34 -54,93 -53,130 1,37 19,54 33,68 14,15 23,27 27,34 5,6 5,6 -28,-33 -33,-39 -98,-117 -101,-183 -3,-66 57,-121 52,-170 -5,-49 -76,-93 -128,-170 -52,-77 -84,-188 -81,-265 4,-77 44,-121 113,-147 69,-26 167,-35 235,-74 68,-38 106,-105 146,-176 40,-71 82,-145 109,-122 z"
   id="celtic__strand-five"
   style="opacity:1" /><path
   class="fil9 face"
   d="m 18083,9469 c -29,29 -52,193 -72,314 -19,121 -35,199 -2,270 33,71 114,135 199,160 85,25 173,11 225,41 52,31 67,107 42,173 -25,65 -90,120 -149,178 -58,58 -110,119 -136,172 -26,53 -27,98 1,131 28,33 85,55 119,106 34,51 45,132 41,183 -4,51 -24,71 -38,89 -15,18 -25,34 -30,42 -5,8 -5,8 31,-41 36,-49 108,-148 116,-238 8,-90 -47,-171 -37,-237 10,-66 84,-117 142,-216 58,-99 100,-246 103,-351 3,-105 -33,-169 -99,-213 -66,-44 -163,-68 -228,-128 -65,-60 -97,-156 -130,-257 -34,-101 -69,-207 -98,-178 z"
   id="celtic__strand-four"
   style="opacity:1" /><path
   class="fil9 face"
   d="m 17759,13298 c -27,31 -40,194 -52,314 -12,120 -23,197 15,263 37,65 123,119 209,133 86,15 173,-10 227,15 54,24 74,97 53,163 -21,67 -83,127 -137,190 -54,63 -102,128 -124,183 -23,54 -21,98 9,127 30,29 88,44 125,90 37,46 54,123 53,173 -1,50 -19,71 -33,91 -14,19 -23,36 -27,45 -5,8 -5,8 28,-44 33,-52 98,-156 101,-245 3,-88 -57,-161 -52,-226 5,-65 76,-123 128,-226 52,-103 84,-251 81,-353 -4,-103 -44,-161 -113,-196 -69,-35 -167,-47 -235,-98 -68,-51 -106,-140 -146,-235 -40,-94 -82,-194 -109,-162 z"
   id="celtic__strand-three"
   style="opacity:1" /><path
   class="fil9"
   d="m 12072,8115 c 42,2 177,-88 279,-152 102,-64 169,-104 198,-173 29,-70 18,-170 -24,-246 -42,-77 -114,-131 -128,-188 -14,-57 31,-118 96,-142 65,-25 151,-13 234,-9 83,4 164,1 221,-15 57,-16 90,-44 95,-85 4,-41 -20,-96 -7,-154 13,-58 64,-118 104,-148 40,-30 68,-29 92,-30 24,-1 43,-4 52,-6 9,-2 9,-2 -52,5 -61,6 -183,19 -255,71 -71,52 -92,144 -147,180 -55,36 -144,16 -257,39 -113,23 -249,88 -328,154 -79,66 -100,133 -85,209 15,76 66,161 67,246 2,85 -45,170 -95,260 -50,90 -102,184 -61,186 z"
   id="celtic__strand-two"
   style="opacity:1" /><path
   class="fil9 face"
   d="m 11264,13438 c -32,31 -74,217 -107,355 -33,137 -58,225 -33,310 25,84 99,164 182,200 82,35 172,25 221,65 48,40 55,129 23,202 -32,73 -104,131 -169,193 -65,62 -123,128 -155,187 -32,59 -38,110 -14,150 24,40 79,70 107,131 28,62 31,155 21,213 -10,58 -32,79 -48,99 -17,20 -29,38 -35,46 -6,9 -6,9 35,-45 41,-54 124,-161 143,-264 18,-103 -27,-200 -10,-275 17,-75 97,-128 166,-237 69,-109 128,-274 143,-395 15,-121 -14,-197 -76,-253 -62,-56 -156,-90 -214,-164 -58,-74 -79,-186 -102,-305 -22,-119 -46,-243 -78,-212 z"
   id="celtic__strand-one"
   style="opacity:1" />
 </g>
</svg>
