<?xml version="1.0" encoding="UTF-8" standalone="no"?>
<svg
   xmlns:dc="http://purl.org/dc/elements/1.1/"
   xmlns:cc="http://creativecommons.org/ns#"
   xmlns:rdf="http://www.w3.org/1999/02/22-rdf-syntax-ns#"
   xmlns:svg="http://www.w3.org/2000/svg"
   xmlns="http://www.w3.org/2000/svg"
   xmlns:sodipodi="http://sodipodi.sourceforge.net/DTD/sodipodi-0.dtd"
   xmlns:inkscape="http://www.inkscape.org/namespaces/inkscape"
   xml:space="preserve"
   width="26.182823mm"
   height="20.329796mm"
   version="1.1"
   style="clip-rule:evenodd;fill-rule:evenodd;image-rendering:optimizeQuality;shape-rendering:geometricPrecision;text-rendering:geometricPrecision"
   viewBox="0 0 2618.2823 2032.9796"
   id="svg25"
   sodipodi:docname="oko meridy1.svg"
   inkscape:version="1.0.1 (3bc2e813f5, 2020-09-07)"><metadata
   id="metadata29"><rdf:RDF><cc:Work
       rdf:about=""><dc:format>image/svg+xml</dc:format><dc:type
         rdf:resource="http://purl.org/dc/dcmitype/StillImage" /></cc:Work></rdf:RDF></metadata><sodipodi:namedview
   pagecolor="#ffffff"
   bordercolor="#666666"
   borderopacity="1"
   objecttolerance="10"
   gridtolerance="10"
   guidetolerance="10"
   inkscape:pageopacity="0"
   inkscape:pageshadow="2"
   inkscape:window-width="1004"
   inkscape:window-height="480"
   id="namedview27"
   showgrid="false"
   inkscape:zoom="1.1162388"
   inkscape:cx="156.06662"
   inkscape:cy="55.347815"
   inkscape:window-x="62"
   inkscape:window-y="0"
   inkscape:window-maximized="0"
   inkscape:current-layer="svg25" />
 <defs
   id="defs4">
  <style
   type="text/css"
   id="style2">
   <![CDATA[
    .fil1 {fill:#FEFEFE}
    .fil2 {fill:#74291D}
    .fil3 {fill:#4E565A}
    .fil4 {fill:#152C20}
    .fil5 {fill:#FEFEFE;fill-opacity:0.501961}
    .fil0 {fill:#CD877A;fill-opacity:0.501961}
   ]]>
  </style>
 </defs>
 <g
   id="Warstwa_x0020_1"
   transform="translate(-10720.737,-9035.5891)">
  <metadata
   id="CorelCorpID_0Corel-Layer" />
  <g
   id="_2067147716848">
   <path
   class="fil0"
   d="m 12766,10767 c -31,46 -121,135 -265,200 -144,65 -342,107 -536,101 -194,-7 -385,-62 -526,-147 -142,-84 -235,-197 -293,-323 -58,-125 -81,-263 -48,-277 34,-14 124,95 246,190 122,95 276,175 419,224 143,49 274,66 394,75 120,9 228,8 323,-9 95,-18 177,-52 232,-68 55,-15 83,-11 52,35 z"
   id="path7" />
   <path
   class="fil0"
   d="m 13136,9845 c -42,-113 -115,-224 -207,-310 -92,-86 -204,-148 -359,-189 -155,-41 -353,-62 -510,-50 -157,12 -273,57 -387,113 -114,56 -225,123 -311,196 -86,73 -146,153 -192,215 -46,62 -77,106 -97,129 -20,23 -28,24 -38,-10 -10,-34 -22,-105 37,-219 58,-115 187,-274 293,-391 106,-118 190,-194 368,-242 178,-48 450,-67 683,-37 232,31 425,111 558,179 133,68 208,125 265,252 58,128 98,326 100,454 1,127 -36,183 -66,214 -29,31 -50,37 -67,-19 -17,-55 -29,-171 -71,-284 z"
   id="path9" />
   <path
   class="fil1"
   d="m 13203,10190 c 3,-101 2,-225 -49,-353 -52,-128 -155,-260 -336,-360 -182,-100 -442,-168 -674,-163 -232,5 -436,81 -605,223 -169,142 -302,349 -378,454 -76,105 -94,107 -38,189 55,82 184,244 326,359 142,115 297,184 464,230 166,46 344,70 521,45 177,-24 354,-97 480,-167 126,-70 201,-136 241,-208 40,-72 46,-149 49,-250 z"
   id="path11" />
   <path
   class="fil2"
   d="m 13205,10117 c 4,-28 11,-153 -46,-294 -57,-141 -177,-299 -302,-395 -125,-96 -254,-131 -395,-152 -140,-20 -292,-26 -397,-18 -105,7 -163,28 -232,50 -68,22 -147,44 -205,52 -58,7 -95,-1 -151,-25 -56,-25 -131,-66 -167,-115 -36,-49 -34,-107 -40,-108 -6,-1 -21,55 -4,114 17,60 67,124 106,161 39,37 68,48 81,60 13,12 11,25 -11,40 -23,14 -66,29 -127,35 -62,5 -142,1 -205,-22 -64,-23 -112,-65 -136,-86 -24,-21 -24,-21 -8,1 16,22 48,66 105,104 57,39 138,72 186,89 48,16 63,15 64,25 0,10 -14,31 -31,50 -17,19 -36,36 -79,46 -43,9 -111,10 -175,-8 -64,-18 -125,-55 -160,-82 -36,-27 -46,-45 -42,-32 4,13 24,56 77,99 53,43 138,86 187,107 48,21 59,20 58,27 -1,7 -12,21 -35,35 -22,14 -56,26 -109,26 -53,-1 -126,-15 -179,-42 -52,-27 -84,-67 -100,-88 -16,-20 -16,-20 -2,4 14,24 42,71 77,115 35,44 77,86 125,123 48,37 102,70 131,81 28,11 31,0 60,-45 29,-45 85,-123 150,-206 65,-83 139,-170 226,-238 87,-68 185,-116 273,-153 88,-37 165,-64 243,-80 78,-16 157,-21 256,-13 99,8 217,30 319,62 101,32 185,73 255,128 70,55 126,125 170,186 44,62 76,116 104,161 28,45 53,81 66,132 13,52 15,119 19,91 z"
   id="path13" />
   <ellipse
   class="fil3"
   transform="matrix(0.992143,0.241554,-0.241554,0.992143,12171.4,10094.6)"
   rx="607"
   ry="574"
   id="ellipse15"
   cx="0"
   cy="0" />
   <path
   class="fil2"
   d="m 13078,10534 c -115,66 -230,132 -337,179 -107,47 -208,74 -344,80 -137,6 -310,-9 -459,-43 -148,-34 -271,-88 -378,-154 -106,-66 -196,-146 -258,-211 -62,-65 -96,-117 -121,-148 -25,-32 -42,-44 -74,-46 -33,-2 -81,6 -125,32 -44,26 -84,71 -124,116 72,-24 144,-48 194,-48 50,0 78,24 66,56 -12,32 -63,72 -94,101 -30,30 -40,49 -49,69 63,-44 127,-87 191,-82 64,5 129,59 148,91 19,32 -9,41 -41,64 -32,23 -70,61 -107,99 72,-32 143,-65 214,-62 71,3 142,41 196,69 54,28 92,45 93,69 2,24 -32,54 -60,88 -28,34 -50,73 -72,112 97,-51 194,-101 299,-112 105,-11 219,18 360,26 142,8 311,-4 463,-64 152,-61 285,-170 419,-279 z"
   id="path17" />
   <ellipse
   class="fil4"
   transform="matrix(0.41098,0.10006,-0.10006,0.41098,12164.3,10088.1)"
   rx="607"
   ry="574"
   id="ellipse19"
   cx="0"
   cy="0" />
   <path
   class="fil5"
   d="m 12064,9657 c 138,34 224,166 192,297 -32,130 -169,209 -307,175 -138,-34 -224,-166 -192,-297 32,-130 169,-209 307,-175 z"
   id="path21" />
  </g>
 </g>
</svg>
