<?xml version="1.0" encoding="UTF-8" standalone="no"?>
<svg
   xmlns:dc="http://purl.org/dc/elements/1.1/"
   xmlns:cc="http://creativecommons.org/ns#"
   xmlns:rdf="http://www.w3.org/1999/02/22-rdf-syntax-ns#"
   xmlns:svg="http://www.w3.org/2000/svg"
   xmlns="http://www.w3.org/2000/svg"
   xmlns:sodipodi="http://sodipodi.sourceforge.net/DTD/sodipodi-0.dtd"
   xmlns:inkscape="http://www.inkscape.org/namespaces/inkscape"
   xml:space="preserve"
   width="10.084368mm"
   height="34.935871mm"
   version="1.1"
   style="clip-rule:evenodd;fill-rule:evenodd;image-rendering:optimizeQuality;shape-rendering:geometricPrecision;text-rendering:geometricPrecision"
   viewBox="0 0 1008.4368 3493.5871"
   id="svg10"
   sodipodi:docname="pasemko9.svg"
   inkscape:version="1.0.1 (3bc2e813f5, 2020-09-07)"><metadata
   id="metadata14"><rdf:RDF><cc:Work
       rdf:about=""><dc:format>image/svg+xml</dc:format><dc:type
         rdf:resource="http://purl.org/dc/dcmitype/StillImage" /></cc:Work></rdf:RDF></metadata><sodipodi:namedview
   pagecolor="#ffffff"
   bordercolor="#666666"
   borderopacity="1"
   objecttolerance="10"
   gridtolerance="10"
   guidetolerance="10"
   inkscape:pageopacity="0"
   inkscape:pageshadow="2"
   inkscape:window-width="1004"
   inkscape:window-height="480"
   id="namedview12"
   showgrid="false"
   inkscape:zoom="1.1162388"
   inkscape:cx="28.091616"
   inkscape:cy="69.457074"
   inkscape:window-x="62"
   inkscape:window-y="0"
   inkscape:window-maximized="0"
   inkscape:current-layer="svg10" />
 <defs
   id="defs4">
  <style
   type="text/css"
   id="style2">
   <![CDATA[
    .fil0 {fill:#E64223}
   ]]>
  </style>
 </defs>
 <g
   id="Warstwa_x0020_1"
   transform="translate(-14106.743,-8662.2816)">
  <metadata
   id="CorelCorpID_0Corel-Layer" />
  <path
   class="fil0"
   d="m 14349,8670 c -52,50 -120,352 -173,574 -53,222 -93,365 -53,501 40,136 161,266 294,323 133,57 279,41 357,105 78,64 89,208 37,327 -52,119 -168,212 -273,312 -105,100 -199,207 -251,302 -52,95 -62,178 -22,243 39,65 128,112 173,212 46,100 50,251 34,345 -16,93 -51,128 -78,160 -27,32 -47,61 -56,75 -10,14 -10,14 57,-73 67,-87 201,-261 231,-427 30,-166 -44,-324 -17,-445 28,-122 157,-207 269,-383 112,-176 207,-444 231,-639 24,-195 -23,-319 -122,-409 -100,-90 -252,-146 -346,-266 -94,-119 -128,-301 -165,-493 -36,-192 -74,-394 -126,-344 z"
   id="path7" />
 </g>
</svg>
