<?xml version="1.0" encoding="UTF-8"?>
<!DOCTYPE svg PUBLIC "-//W3C//DTD SVG 1.0//EN" "http://www.w3.org/TR/2001/REC-SVG-20010904/DTD/svg10.dtd">
<!-- Creator: CorelDRAW 2017 -->
<svg xmlns="http://www.w3.org/2000/svg" xml:space="preserve" width="162.56mm" height="91.4398mm" version="1.0" style="shape-rendering:geometricPrecision; text-rendering:geometricPrecision; image-rendering:optimizeQuality; fill-rule:evenodd; clip-rule:evenodd"
viewBox="0 0 16256 9144"
 xmlns:xlink="http://www.w3.org/1999/xlink">
 <defs>
  <style type="text/css">
   <![CDATA[
    .fil0 {fill:#FEFEFE}
    .fil11 {fill:#E64223}
    .fil5 {fill:#E5543A}
    .fil1 {fill:#F6DAD6}
    .fil4 {fill:#E4B9AF}
    .fil12 {fill:#9C3420}
    .fil7 {fill:#74291D}
    .fil8 {fill:#4E565A}
    .fil3 {fill:#7688A1}
    .fil9 {fill:#152C20}
    .fil2 {fill:#7688A1;fill-rule:nonzero}
    .fil10 {fill:#FEFEFE;fill-opacity:0.501961}
    .fil6 {fill:#CD877A;fill-opacity:0.501961}
   ]]>
  </style>
 </defs>
 <g id="Warstwa_x0020_1">
  <metadata id="CorelCorpID_0Corel-Layer"/>
  <rect class="fil0" width="16256" height="9144"/>
  <path class="fil1" d="M9416 3854c81,175 140,427 129,725 -11,298 -92,642 -195,929 -104,287 -230,516 -428,713 -198,196 -467,359 -635,433 -168,74 -233,58 -404,-31 -171,-89 -447,-252 -648,-525 -201,-273 -328,-655 -382,-1007 -54,-352 -35,-673 26,-938 61,-265 163,-474 324,-627 162,-153 382,-250 633,-284 250,-34 530,-6 751,45 221,51 382,125 514,210 132,85 234,182 315,357z"/>
  <path class="fil2" d="M6138 935c0,73 53,132 136,132 69,0 106,-45 106,-45l-26 -43c0,0 -32,34 -75,34 -41,0 -79,-26 -79,-78 0,-45 31,-79 75,-79 15,0 36,6 36,20l0 14 55 0 0 -30c0,-43 -59,-57 -91,-57 -86,0 -138,61 -138,132zm266 0c0,72 52,132 135,132 63,0 101,-38 101,-38l-26 -43c0,0 -30,28 -71,28 -38,0 -71,-23 -76,-68l174 0c0,0 1,-16 1,-23 0,-67 -40,-120 -112,-120 -76,0 -128,54 -128,132zm66 -33c7,-32 30,-51 62,-51 26,0 46,21 47,51l-109 0zm233 125c0,24 10,34 34,34l59 0 0 -53 -19 0c-7,0 -11,-4 -11,-11l0 -253c0,-23 -10,-34 -34,-34l-60 0 0 53 20 0c7,0 11,3 11,11l0 253zm146 -59c0,84 70,95 105,95 11,0 19,-1 19,-1l0 -55c0,0 -4,1 -11,1 -17,0 -50,-6 -50,-47l0 -102 57 0 0 -50 -57 0 0 -69 -61 0 0 69 -34 0 0 50 33 0 0 110zm161 126l-24 44c0,0 24,26 64,26 38,0 73,-20 91,-66l90 -228c3,-7 7,-9 14,-9l7 0 0 -53 -42 0c-17,0 -28,6 -34,24l-43 126c-4,13 -8,34 -8,34l-1 0c0,0 -4,-21 -9,-34l-49 -126c-6,-17 -15,-24 -33,-24l-41 0 0 53 7 0c7,0 10,1 13,9l84 189 -8 19c-9,22 -24,32 -41,32 -21,0 -36,-17 -36,-17zm259 -160c0,73 53,132 136,132 69,0 106,-45 106,-45l-26 -43c0,0 -32,34 -75,34 -41,0 -79,-26 -79,-78 0,-45 31,-79 75,-79 15,0 36,6 36,20l0 14 55 0 0 -30c0,-43 -59,-57 -91,-57 -86,0 -138,61 -138,132zm287 126l63 0 0 -110 14 0c8,0 18,1 23,9l42 79c10,18 18,22 40,22l46 0 0 -53 -17 0c-12,0 -17,-2 -21,-9l-29 -54c-9,-16 -18,-20 -18,-20l0 -1c0,0 8,-4 19,-20l64 -95 -70 0 -51 80c-5,8 -16,9 -24,9l-19 0 0 -159c0,-23 -10,-29 -34,-29l-60 0 0 53 20 0c7,0 11,3 11,11l0 286zm280 -293l54 0 0 -58 -54 0 0 58zm-3 259c0,24 10,34 33,34l60 0 0 -53 -20 0c-7,0 -11,-4 -11,-11l0 -155c0,-23 -10,-34 -33,-34l-60 0 0 53 20 0c7,0 11,3 11,11l0 154zm278 -59c0,84 70,95 105,95 11,0 19,-1 19,-1l0 -55c0,0 -4,1 -11,1 -17,0 -50,-6 -50,-47l0 -102 57 0 0 -50 -57 0 0 -69 -61 0 0 69 -34 0 0 50 33 0 0 110zm161 126l-24 44c0,0 24,26 64,26 38,0 73,-20 91,-66l90 -228c3,-7 7,-9 14,-9l7 0 0 -53 -42 0c-17,0 -28,6 -34,24l-43 126c-4,13 -8,34 -8,34l-1 0c0,0 -4,-21 -9,-34l-49 -126c-6,-17 -15,-24 -33,-24l-41 0 0 53 7 0c7,0 10,1 13,9l84 189 -8 19c-9,22 -24,32 -41,32 -21,0 -36,-17 -36,-17zm289 65l62 0 0 -104c0,-13 -1,-22 -1,-22l1 0c0,0 22,33 72,33 66,0 116,-52 116,-132 0,-78 -44,-132 -112,-132 -59,0 -80,40 -80,40l-1 0c0,0 0,-4 0,-10 0,-14 -8,-24 -32,-24l-56 0 0 53 20 0c7,0 11,3 11,11l0 286zm61 -223c0,-56 31,-80 63,-80 37,0 63,31 63,79 0,50 -29,78 -64,78 -41,0 -62,-39 -62,-78zm376 35c0,69 33,96 87,96 43,0 75,-26 87,-52l1 0c0,0 -1,5 -1,11l0 7c0,18 11,28 33,28l58 0 0 -53 -20 0c-7,0 -11,-4 -11,-11l0 -188 -63 0 0 116c0,45 -25,85 -71,85 -31,0 -39,-21 -39,-51l0 -116c0,-23 -10,-33 -33,-33l-60 0 0 53 20 0c7,0 11,3 11,11l0 98zm316 90l62 0 0 -100c0,-15 2,-29 5,-41 11,-38 42,-53 69,-53 9,0 15,1 15,1l0 -62c0,0 -6,-1 -11,-1 -39,0 -69,29 -80,65l-1 0c0,0 1,-6 1,-16l0 -15c0,-21 -11,-31 -34,-31l-57 0 0 53 20 0c7,0 11,3 11,11l0 188zm169 -126c0,78 61,132 138,132 77,0 138,-54 138,-132 0,-77 -61,-132 -138,-132 -77,0 -138,55 -138,132zm63 0c0,-46 34,-79 75,-79 41,0 75,32 75,79 0,47 -34,79 -75,79 -41,0 -75,-32 -75,-79zm244 0c0,78 44,132 112,132 58,0 79,-41 79,-41l1 0c0,0 0,4 0,9 0,15 8,26 31,26l58 0 0 -53 -19 0c-7,0 -11,-4 -11,-11l0 -253c0,-23 -10,-34 -34,-34l-60 0 0 53 20 0c7,0 11,3 11,11l0 44c0,8 0,15 0,15l-1 0c0,0 -18,-31 -73,-31 -67,0 -115,52 -115,132zm126 79c-37,0 -62,-31 -62,-79 0,-50 29,-78 63,-78 42,0 62,39 62,78 0,56 -31,80 -63,80zm190 81l-24 44c0,0 24,26 64,26 38,0 73,-20 91,-66l90 -228c3,-7 7,-9 14,-9l7 0 0 -53 -42 0c-17,0 -28,6 -34,24l-43 126c-4,13 -8,34 -8,34l-1 0c0,0 -4,-21 -9,-34l-49 -126c-6,-17 -15,-24 -33,-24l-41 0 0 53 7 0c7,0 10,1 13,9l84 189 -8 19c-9,22 -24,32 -41,32 -21,0 -36,-17 -36,-17z"/>
  <path class="fil3" d="M5681 3698c-40,-9 -118,-34 -173,-31 -55,3 -88,34 -68,54 20,20 92,29 145,40 52,11 84,23 100,33 15,10 14,18 11,28 -2,10 -5,22 10,23 15,1 49,-8 87,-12 38,-5 81,-5 88,-20 7,-16 -22,-47 -45,-73 -23,-26 -41,-47 -53,-62 -13,-15 -20,-24 -29,-19 -9,4 -18,21 -24,32 -6,11 -8,17 -48,7z"/>
  <path class="fil2" d="M2542 3432l31 0 0 -50c0,-7 1,-14 3,-21 6,-19 21,-26 34,-26 4,0 8,0 8,0l0 -31c0,0 -3,-1 -6,-1 -19,0 -34,14 -40,32l0 0c0,0 0,-3 0,-8l0 -7c0,-11 -6,-15 -17,-15l-29 0 0 27 10 0c3,0 5,2 5,5l0 94zm103 -45c0,34 17,48 43,48 22,0 38,-13 43,-26l0 0c0,0 0,3 0,6l0 3c0,9 6,14 17,14l29 0 0 -26 -10 0c-3,0 -5,-2 -5,-5l0 -94 -31 0 0 58c0,22 -13,42 -35,42 -16,0 -20,-10 -20,-26l0 -58c0,-11 -5,-17 -17,-17l-30 0 0 27 10 0c3,0 5,2 5,5l0 49zm145 -18c0,39 22,66 56,66 29,0 39,-20 39,-20l0 0c0,0 0,2 0,5 0,7 4,13 16,13l29 0 0 -26 -10 0c-3,0 -5,-2 -5,-5l0 -127c0,-12 -5,-17 -17,-17l-30 0 0 27 10 0c3,0 5,2 5,5l0 22c0,4 0,7 0,7l-1 0c0,0 -9,-15 -36,-15 -33,0 -57,26 -57,66zm63 40c-19,0 -31,-16 -31,-40 0,-25 14,-39 32,-39 21,0 31,19 31,39 0,28 -15,40 -32,40zm91 -40c0,36 26,66 68,66 31,0 51,-19 51,-19l-13 -22c0,0 -15,14 -35,14 -19,0 -35,-12 -38,-34l87 0c0,0 1,-8 1,-12 0,-33 -20,-60 -56,-60 -38,0 -64,27 -64,66zm33 -16c3,-16 15,-25 31,-25 13,0 23,10 24,25l-55 0zm182 62c0,12 5,17 17,17l30 0 0 -26 -10 0c-3,0 -5,-2 -5,-5l0 -127c0,-12 -5,-17 -17,-17l-30 0 0 27 10 0c3,0 5,2 5,5l0 126zm72 -28c0,34 17,48 43,48 22,0 38,-13 43,-26l0 0c0,0 0,3 0,6l0 3c0,9 6,14 17,14l29 0 0 -26 -10 0c-3,0 -5,-2 -5,-5l0 -94 -31 0 0 58c0,22 -13,42 -35,42 -16,0 -20,-10 -20,-26l0 -58c0,-11 -5,-17 -17,-17l-30 0 0 27 10 0c3,0 5,2 5,5l0 49zm157 45l30 0 0 -6c0,-5 0,-8 0,-8l0 0c0,0 11,18 38,18 33,0 58,-26 58,-66 0,-39 -22,-66 -56,-66 -27,0 -38,18 -38,18l0 0c0,0 0,-4 0,-11l0 -37c0,-12 -5,-17 -17,-17l-30 0 0 27 10 0c3,0 5,2 5,5l0 143zm30 -62c0,-28 15,-40 32,-40 19,0 31,16 31,40 0,25 -15,39 -32,39 -21,0 -31,-19 -31,-39zm188 62l31 0 0 -55 7 0c4,0 9,0 12,5l21 40c5,9 9,11 20,11l23 0 0 -26 -8 0c-6,0 -8,-1 -10,-5l-14 -27c-4,-8 -9,-10 -9,-10l0 0c0,0 4,-2 9,-10l32 -47 -35 0 -26 40c-3,4 -8,5 -12,5l-9 0 0 -80c0,-12 -5,-14 -17,-14l-30 0 0 27 10 0c3,0 5,2 5,5l0 143zm124 -36c0,25 21,39 43,39 28,0 38,-22 38,-22l0 0c0,0 0,2 0,5 0,7 4,14 16,14l28 0 0 -26 -10 0c-3,0 -5,-2 -5,-5l0 -47c0,-28 -12,-50 -54,-50 -13,0 -46,2 -46,26l0 13 29 0 0 -7c0,-7 11,-8 17,-8 16,0 23,7 23,25l0 1 -4 0c-20,0 -75,3 -75,43zm32 -1c0,-18 26,-20 42,-20l5 0 0 3c0,15 -12,33 -29,33 -13,0 -19,-8 -19,-16zm105 18c0,0 18,22 52,22 27,0 48,-15 48,-39 0,-42 -67,-38 -67,-58 0,-7 8,-11 19,-11 7,0 16,3 16,9l0 6 28 0 0 -13c0,-20 -27,-26 -44,-26 -26,0 -49,12 -49,37 0,41 66,41 66,58 0,8 -7,12 -17,12 -21,0 -38,-19 -38,-19l-15 20zm116 20l98 0c12,0 17,-5 17,-17l0 -22 -28 0 0 7c0,4 -2,5 -5,5l-28 0c-8,0 -12,1 -12,1l0 0c0,0 5,-5 11,-12l58 -71 0 -17 -92 0c-12,0 -17,5 -17,17l0 22 28 0 0 -7c0,-3 2,-5 5,-5l23 0c8,0 12,0 12,0l0 0c0,0 -5,4 -11,12l-58 71 0 17zm141 -46c0,42 35,47 52,47 6,0 10,-1 10,-1l0 -27c0,0 -2,1 -6,1 -9,0 -25,-3 -25,-24l0 -51 29 0 0 -25 -29 0 0 -34 -31 0 0 34 -17 0 0 25 16 0 0 55zm78 10c0,25 21,39 43,39 28,0 38,-22 38,-22l0 0c0,0 0,2 0,5 0,7 4,14 16,14l28 0 0 -26 -10 0c-3,0 -5,-2 -5,-5l0 -47c0,-28 -12,-50 -54,-50 -13,0 -46,2 -46,26l0 13 29 0 0 -7c0,-7 11,-8 17,-8 16,0 23,7 23,25l0 1 -4 0c-20,0 -75,3 -75,43zm32 -1c0,-18 26,-20 42,-20l5 0 0 3c0,15 -12,33 -29,33 -13,0 -19,-8 -19,-16zm119 38l31 0 0 -58c0,-6 1,-12 2,-17 4,-15 17,-26 34,-26 16,0 20,10 20,26l0 58c0,12 5,17 17,17l30 0 0 -26 -10 0c-3,0 -5,-2 -5,-5l0 -49c0,-33 -16,-48 -44,-48 -25,0 -39,16 -44,26l0 0c0,0 0,-3 0,-5l0 -4c0,-9 -5,-14 -17,-14l-29 0 0 27 10 0c3,0 5,2 5,5l0 94zm146 -63c0,39 31,66 69,66 39,0 69,-27 69,-66 0,-39 -31,-66 -69,-66 -38,0 -69,27 -69,66zm32 0c0,-23 17,-39 37,-39 20,0 38,16 38,39 0,23 -17,39 -38,39 -20,0 -37,-16 -37,-39zm155 63l36 0 21 -72c2,-7 3,-14 3,-14l1 0c0,0 1,7 3,14l21 72 35 0 30 -95c1,-4 3,-4 7,-4l3 0 0 -27 -21 0c-10,0 -15,3 -18,13l-18 70c-2,7 -2,13 -2,13l0 0c0,0 -1,-7 -3,-13l-23 -82 -28 0 -23 82c-2,7 -3,13 -3,13l-1 0c0,0 -1,-7 -2,-13l-19 -70c-2,-10 -7,-13 -18,-13l-21 0 0 27 3 0c4,0 6,1 7,4l30 95zm169 -63c0,36 26,66 68,66 31,0 51,-19 51,-19l-13 -22c0,0 -15,14 -35,14 -19,0 -35,-12 -38,-34l87 0c0,0 1,-8 1,-12 0,-33 -20,-60 -56,-60 -38,0 -64,27 -64,66zm33 -16c3,-16 15,-25 31,-25 13,0 23,10 24,25l-55 0zm205 79l36 0 21 -72c2,-7 3,-14 3,-14l1 0c0,0 1,7 3,14l21 72 35 0 30 -95c1,-4 3,-4 7,-4l3 0 0 -27 -21 0c-10,0 -15,3 -18,13l-18 70c-2,7 -2,13 -2,13l0 0c0,0 -1,-7 -3,-13l-23 -82 -28 0 -23 82c-2,7 -3,13 -3,13l-1 0c0,0 -1,-7 -2,-13l-19 -70c-2,-10 -7,-13 -18,-13l-21 0 0 27 3 0c4,0 6,1 7,4l30 95zm185 -17c0,12 5,17 17,17l30 0 0 -26 -10 0c-3,0 -5,-2 -5,-5l0 -57 18 -10 0 -31 -18 10 0 -39c0,-12 -5,-17 -17,-17l-30 0 0 27 10 0c3,0 5,2 5,5l0 42 -16 9 0 31 16 -9 0 54zm61 -46c0,39 31,66 69,66 39,0 69,-27 69,-66 0,-39 -31,-66 -69,-66 -38,0 -69,27 -69,66zm32 0c0,-23 17,-39 37,-39 20,0 38,16 38,39 0,23 -17,39 -38,39 -20,0 -37,-16 -37,-39zm121 43c0,0 18,22 52,22 27,0 48,-15 48,-39 0,-42 -67,-38 -67,-58 0,-7 8,-11 19,-11 7,0 16,3 16,9l0 6 28 0 0 -13c0,-20 -27,-26 -44,-26 -26,0 -49,12 -49,37 0,41 66,41 66,58 0,8 -7,12 -17,12 -21,0 -38,-19 -38,-19l-15 20zm122 36l-12 22c0,0 12,13 32,13 19,0 37,-10 45,-33l45 -114c1,-4 3,-4 7,-4l4 0 0 -27 -21 0c-9,0 -14,3 -17,12l-21 63c-2,6 -4,17 -4,17l0 0c0,0 -2,-10 -4,-17l-25 -63c-3,-9 -8,-12 -17,-12l-21 0 0 27 4 0c3,0 5,1 7,4l42 95 -4 10c-4,11 -12,16 -21,16 -10,0 -18,-9 -18,-9z"/>
  <path class="fil2" d="M11007 5017c0,0 18,22 52,22 27,0 48,-15 48,-39 0,-42 -67,-38 -67,-58 0,-7 8,-11 19,-11 7,0 16,3 16,9l0 6 28 0 0 -13c0,-20 -27,-26 -44,-26 -26,0 -49,12 -49,37 0,41 66,41 66,58 0,8 -7,12 -17,12 -21,0 -38,-19 -38,-19l-15 20zm116 20l98 0c12,0 17,-5 17,-17l0 -22 -28 0 0 7c0,4 -2,5 -5,5l-28 0c-8,0 -12,1 -12,1l0 0c0,0 5,-5 11,-12l58 -71 0 -17 -92 0c-12,0 -17,5 -17,17l0 22 28 0 0 -7c0,-3 2,-5 5,-5l23 0c8,0 12,0 12,0l0 0c0,0 -5,4 -11,12l-58 71 0 17zm128 -36c0,25 21,39 43,39 28,0 38,-22 38,-22l0 0c0,0 0,2 0,5 0,7 4,14 16,14l28 0 0 -26 -10 0c-3,0 -5,-2 -5,-5l0 -47c0,-28 -12,-50 -54,-50 -13,0 -46,2 -46,26l0 13 29 0 0 -7c0,-7 11,-8 17,-8 16,0 23,7 23,25l0 1 -4 0c-20,0 -75,3 -75,43zm32 -1c0,-18 26,-20 42,-20l5 0 0 3c0,15 -12,33 -29,33 -13,0 -19,-8 -19,-16zm119 38l31 0 0 -50c0,-7 1,-14 3,-21 6,-19 21,-26 34,-26 4,0 8,0 8,0l0 -31c0,0 -3,-1 -6,-1 -19,0 -34,14 -40,32l0 0c0,0 0,-3 0,-8l0 -7c0,-11 -6,-15 -17,-15l-29 0 0 27 10 0c3,0 5,2 5,5l0 94zm84 -63c0,36 26,66 68,66 31,0 51,-19 51,-19l-13 -22c0,0 -15,14 -35,14 -19,0 -35,-12 -38,-34l87 0c0,0 1,-8 1,-12 0,-33 -20,-60 -56,-60 -38,0 -64,27 -64,66zm33 -16c3,-16 15,-25 31,-25 13,0 23,10 24,25l-55 0zm119 47l-17 58 23 0 24 -58 -30 0zm116 32l98 0c12,0 17,-5 17,-17l0 -22 -28 0 0 7c0,4 -2,5 -5,5l-28 0c-8,0 -12,1 -12,1l0 0c0,0 5,-5 11,-12l58 -71 0 -17 -92 0c-12,0 -17,5 -17,17l0 22 28 0 0 -7c0,-3 2,-5 5,-5l23 0c8,0 12,0 12,0l0 0c0,0 -5,4 -11,12l-58 71 0 17zm142 -146l27 0 0 -29 -27 0 0 29zm-1 130c0,12 5,17 17,17l30 0 0 -26 -10 0c-3,0 -5,-2 -5,-5l0 -77c0,-12 -5,-17 -17,-17l-30 0 0 27 10 0c3,0 5,2 5,5l0 77zm60 -46c0,36 26,66 68,66 31,0 51,-19 51,-19l-13 -22c0,0 -15,14 -35,14 -19,0 -35,-12 -38,-34l87 0c0,0 1,-8 1,-12 0,-33 -20,-60 -56,-60 -38,0 -64,27 -64,66zm33 -16c3,-16 15,-25 31,-25 13,0 23,10 24,25l-55 0zm116 62c0,12 5,17 17,17l30 0 0 -26 -10 0c-3,0 -5,-2 -5,-5l0 -127c0,-12 -5,-17 -17,-17l-30 0 0 27 10 0c3,0 5,2 5,5l0 126zm60 -46c0,39 31,66 69,66 39,0 69,-27 69,-66 0,-39 -31,-66 -69,-66 -38,0 -69,27 -69,66zm32 0c0,-23 17,-39 37,-39 20,0 38,16 38,39 0,23 -17,39 -38,39 -20,0 -37,-16 -37,-39zm135 63l31 0 0 -58c0,-6 1,-12 2,-17 4,-15 17,-26 34,-26 16,0 20,10 20,26l0 58c0,12 5,17 17,17l30 0 0 -26 -10 0c-3,0 -5,-2 -5,-5l0 -49c0,-33 -16,-48 -44,-48 -25,0 -39,16 -44,26l0 0c0,0 0,-3 0,-5l0 -4c0,-9 -5,-14 -17,-14l-29 0 0 27 10 0c3,0 5,2 5,5l0 94zm146 -63c0,36 26,66 68,66 31,0 51,-19 51,-19l-13 -22c0,0 -15,14 -35,14 -19,0 -35,-12 -38,-34l87 0c0,0 1,-8 1,-12 0,-33 -20,-60 -56,-60 -38,0 -64,27 -64,66zm33 -16c3,-16 15,-25 31,-25 13,0 23,10 24,25l-55 0zm-1814 359c0,12 5,17 17,17l30 0 0 -26 -10 0c-3,0 -5,-2 -5,-5l0 -127c0,-12 -5,-17 -17,-17l-30 0 0 27 10 0c3,0 5,2 5,5l0 126zm72 -28c0,34 17,48 43,48 22,0 38,-13 43,-26l0 0c0,0 0,3 0,6l0 3c0,9 6,14 17,14l29 0 0 -26 -10 0c-3,0 -5,-2 -5,-5l0 -94 -31 0 0 58c0,22 -13,42 -35,42 -16,0 -20,-10 -20,-26l0 -58c0,-11 -5,-17 -17,-17l-30 0 0 27 10 0c3,0 5,2 5,5l0 49zm157 45l30 0 0 -6c0,-5 0,-8 0,-8l0 0c0,0 11,18 38,18 33,0 58,-26 58,-66 0,-39 -22,-66 -56,-66 -27,0 -38,18 -38,18l0 0c0,0 0,-4 0,-11l0 -37c0,-12 -5,-17 -17,-17l-30 0 0 27 10 0c3,0 5,2 5,5l0 143zm30 -62c0,-28 15,-40 32,-40 19,0 31,16 31,40 0,25 -15,39 -32,39 -21,0 -31,-19 -31,-39zm189 62l31 0 0 -58c0,-6 1,-12 2,-17 4,-15 17,-26 34,-26 16,0 20,10 20,26l0 58c0,12 5,17 17,17l30 0 0 -26 -10 0c-3,0 -5,-2 -5,-5l0 -49c0,-33 -16,-48 -44,-48 -25,0 -39,16 -44,26l0 0c0,0 0,-3 0,-5l0 -4c0,-9 -5,-14 -17,-14l-29 0 0 27 10 0c3,0 5,2 5,5l0 94zm161 -146l27 0 0 -29 -27 0 0 29zm-1 130c0,12 5,17 17,17l30 0 0 -26 -10 0c-3,0 -5,-2 -5,-5l0 -77c0,-12 -5,-17 -17,-17l-30 0 0 27 10 0c3,0 5,2 5,5l0 77zm60 -46c0,36 26,66 68,66 31,0 51,-19 51,-19l-13 -22c0,0 -15,14 -35,14 -19,0 -35,-12 -38,-34l87 0c0,0 1,-8 1,-12 0,-33 -20,-60 -56,-60 -38,0 -64,27 -64,66zm33 -16c3,-16 15,-25 31,-25 13,0 23,10 24,25l-55 0zm116 79l30 0 0 -6c0,-5 0,-8 0,-8l0 0c0,0 11,18 38,18 33,0 58,-26 58,-66 0,-39 -22,-66 -56,-66 -27,0 -38,18 -38,18l0 0c0,0 0,-4 0,-11l0 -37c0,-12 -5,-17 -17,-17l-30 0 0 27 10 0c3,0 5,2 5,5l0 143zm30 -62c0,-28 15,-40 32,-40 19,0 31,16 31,40 0,25 -15,39 -32,39 -21,0 -31,-19 -31,-39zm126 -84l27 0 0 -29 -27 0 0 29zm-1 130c0,12 5,17 17,17l30 0 0 -26 -10 0c-3,0 -5,-2 -5,-5l0 -77c0,-12 -5,-17 -17,-17l-30 0 0 27 10 0c3,0 5,2 5,5l0 77zm60 -46c0,36 26,66 68,66 31,0 51,-19 51,-19l-13 -22c0,0 -15,14 -35,14 -19,0 -35,-12 -38,-34l87 0c0,0 1,-8 1,-12 0,-33 -20,-60 -56,-60 -38,0 -64,27 -64,66zm33 -16c3,-16 15,-25 31,-25 13,0 23,10 24,25l-55 0zm103 60c0,0 18,22 52,22 27,0 48,-15 48,-39 0,-42 -67,-38 -67,-58 0,-7 8,-11 19,-11 7,0 16,3 16,9l0 6 28 0 0 -13c0,-20 -27,-26 -44,-26 -26,0 -49,12 -49,37 0,41 66,41 66,58 0,8 -7,12 -17,12 -21,0 -38,-19 -38,-19l-15 20zm129 20l31 0 0 -55 7 0c4,0 9,0 12,5l21 40c5,9 9,11 20,11l23 0 0 -26 -8 0c-6,0 -8,-1 -10,-5l-14 -27c-4,-8 -9,-10 -9,-10l0 0c0,0 4,-2 9,-10l32 -47 -35 0 -26 40c-3,4 -8,5 -12,5l-9 0 0 -80c0,-12 -5,-14 -17,-14l-30 0 0 27 10 0c3,0 5,2 5,5l0 143zm140 -146l27 0 0 -29 -27 0 0 29zm-1 130c0,12 5,17 17,17l30 0 0 -26 -10 0c-3,0 -5,-2 -5,-5l0 -77c0,-12 -5,-17 -17,-17l-30 0 0 27 10 0c3,0 5,2 5,5l0 77zm60 -46c0,36 26,66 68,66 31,0 51,-19 51,-19l-13 -22c0,0 -15,14 -35,14 -19,0 -35,-12 -38,-34l87 0c0,0 1,-8 1,-12 0,-33 -20,-60 -56,-60 -38,0 -64,27 -64,66zm33 -16c3,-16 15,-25 31,-25 13,0 23,10 24,25l-55 0zm170 16c0,39 31,66 69,66 39,0 69,-27 69,-66 0,-39 -31,-66 -69,-66 -38,0 -69,27 -69,66zm32 0c0,-23 17,-39 37,-39 20,0 38,16 38,39 0,23 -17,39 -38,39 -20,0 -37,-16 -37,-39zm122 0c0,37 27,66 68,66 34,0 53,-23 53,-23l-13 -22c0,0 -16,17 -37,17 -20,0 -39,-13 -39,-39 0,-23 16,-39 37,-39 8,0 18,3 18,10l0 7 28 0 0 -15c0,-22 -29,-28 -46,-28 -43,0 -69,30 -69,66zm132 63l98 0c12,0 17,-5 17,-17l0 -22 -28 0 0 7c0,4 -2,5 -5,5l-28 0c-8,0 -12,1 -12,1l0 0c0,0 5,-5 11,-12l58 -71 0 -17 -92 0c-12,0 -17,5 -17,17l0 22 28 0 0 -7c0,-3 2,-5 5,-5l23 0c8,0 12,0 12,0l0 0c0,0 -5,4 -11,12l-58 71 0 17zm128 17l-12 22c0,0 12,13 32,13 19,0 37,-10 45,-33l45 -114c1,-4 3,-4 7,-4l4 0 0 -27 -21 0c-9,0 -14,3 -17,12l-21 63c-2,6 -4,17 -4,17l0 0c0,0 -2,-10 -4,-17l-25 -63c-3,-9 -8,-12 -17,-12l-21 0 0 27 4 0c3,0 5,1 7,4l42 95 -4 10c-4,11 -12,16 -21,16 -10,0 -18,-9 -18,-9z"/>
  <path class="fil3" d="M10279 5029c40,9 118,34 173,31 55,-3 88,-34 68,-54 -20,-20 -92,-29 -145,-40 -52,-11 -84,-23 -100,-33 -15,-10 -14,-18 -11,-28 2,-10 5,-22 -10,-23 -15,-1 -49,8 -87,12 -38,5 -81,5 -88,20 -7,16 22,47 45,73 23,26 41,47 53,62 13,15 20,24 29,19 9,-4 18,-21 24,-32 6,-11 8,-17 48,-7z"/>
  <path class="fil2" d="M7999 7816l30 0 0 -6c0,-5 0,-8 0,-8l0 0c0,0 11,18 38,18 33,0 58,-26 58,-66 0,-39 -22,-66 -56,-66 -27,0 -38,18 -38,18l0 0c0,0 0,-4 0,-11l0 -37c0,-12 -5,-17 -17,-17l-30 0 0 27 10 0c3,0 5,2 5,5l0 143zm30 -62c0,-28 15,-40 32,-40 19,0 31,16 31,40 0,25 -15,39 -32,39 -21,0 -31,-19 -31,-39zm110 26c0,25 21,39 43,39 28,0 38,-22 38,-22l0 0c0,0 0,2 0,5 0,7 4,14 16,14l28 0 0 -26 -10 0c-3,0 -5,-2 -5,-5l0 -47c0,-28 -12,-50 -54,-50 -13,0 -46,2 -46,26l0 13 29 0 0 -7c0,-7 11,-8 17,-8 16,0 23,7 23,25l0 1 -4 0c-20,0 -75,3 -75,43zm32 -1c0,-18 26,-20 42,-20l5 0 0 3c0,15 -12,33 -29,33 -13,0 -19,-8 -19,-16zm119 38l31 0 0 -50c0,-7 1,-14 3,-21 6,-19 21,-26 34,-26 4,0 8,0 8,0l0 -31c0,0 -3,-1 -6,-1 -19,0 -34,14 -40,32l0 0c0,0 0,-3 0,-8l0 -7c0,-11 -6,-15 -17,-15l-29 0 0 27 10 0c3,0 5,2 5,5l0 94zm84 -63c0,39 22,66 56,66 29,0 39,-20 39,-20l0 0c0,0 0,2 0,5 0,7 4,13 16,13l29 0 0 -26 -10 0c-3,0 -5,-2 -5,-5l0 -127c0,-12 -5,-17 -17,-17l-30 0 0 27 10 0c3,0 5,2 5,5l0 22c0,4 0,7 0,7l-1 0c0,0 -9,-15 -36,-15 -33,0 -57,26 -57,66zm63 40c-19,0 -31,-16 -31,-40 0,-25 14,-39 32,-39 21,0 31,19 31,39 0,28 -15,40 -32,40zm89 23l98 0c12,0 17,-5 17,-17l0 -22 -28 0 0 7c0,4 -2,5 -5,5l-28 0c-8,0 -12,1 -12,1l0 0c0,0 5,-5 11,-12l58 -71 0 -17 -92 0c-12,0 -17,5 -17,17l0 22 28 0 0 -7c0,-3 2,-5 5,-5l23 0c8,0 12,0 12,0l0 0c0,0 -5,4 -11,12l-58 71 0 17zm125 -63c0,39 31,66 69,66 39,0 69,-27 69,-66 0,-39 -31,-66 -69,-66 -38,0 -69,27 -69,66zm32 0c0,-23 17,-39 37,-39 20,0 38,16 38,39 0,23 -17,39 -38,39 -20,0 -37,-16 -37,-39zm207 -83l27 0 0 -29 -27 0 0 29zm-32 170l0 26c0,0 4,1 9,1 17,0 53,-5 53,-47l0 -113c0,-12 -5,-17 -17,-17l-30 0 0 27 10 0c3,0 5,2 5,5l0 95c0,21 -16,23 -25,23 -3,0 -5,-1 -5,-1zm88 -60c0,25 21,39 43,39 28,0 38,-22 38,-22l0 0c0,0 0,2 0,5 0,7 4,14 16,14l28 0 0 -26 -10 0c-3,0 -5,-2 -5,-5l0 -47c0,-28 -12,-50 -54,-50 -13,0 -46,2 -46,26l0 13 29 0 0 -7c0,-7 11,-8 17,-8 16,0 23,7 23,25l0 1 -4 0c-20,0 -75,3 -75,43zm32 -1c0,-18 26,-20 42,-20l5 0 0 3c0,15 -12,33 -29,33 -13,0 -19,-8 -19,-16zm105 18c0,0 18,22 52,22 27,0 48,-15 48,-39 0,-42 -67,-38 -67,-58 0,-7 8,-11 19,-11 7,0 16,3 16,9l0 6 28 0 0 -13c0,-20 -27,-26 -44,-26 -26,0 -49,12 -49,37 0,41 66,41 66,58 0,8 -7,12 -17,12 -21,0 -38,-19 -38,-19l-15 20zm130 20l31 0 0 -58c0,-6 1,-12 2,-17 4,-15 17,-26 34,-26 16,0 20,10 20,26l0 58c0,12 5,17 17,17l30 0 0 -26 -10 0c-3,0 -5,-2 -5,-5l0 -49c0,-33 -16,-48 -44,-48 -25,0 -39,16 -44,26l0 0c0,0 0,-3 0,-5l0 -4c0,-9 -5,-14 -17,-14l-29 0 0 27 10 0c3,0 5,2 5,5l0 94zm146 -36c0,25 21,39 43,39 28,0 38,-22 38,-22l0 0c0,0 0,2 0,5 0,7 4,14 16,14l28 0 0 -26 -10 0c-3,0 -5,-2 -5,-5l0 -47c0,-28 -12,-50 -54,-50 -13,0 -46,2 -46,26l0 13 29 0 0 -7c0,-7 11,-8 17,-8 16,0 23,7 23,25l0 1 -4 0c-20,0 -75,3 -75,43zm32 -1c0,-18 26,-20 42,-20l5 0 0 3c0,15 -12,33 -29,33 -13,0 -19,-8 -19,-16zm172 -25c0,37 27,66 68,66 34,0 53,-23 53,-23l-13 -22c0,0 -16,17 -37,17 -20,0 -39,-13 -39,-39 0,-23 16,-39 37,-39 8,0 18,3 18,10l0 7 28 0 0 -15c0,-22 -29,-28 -46,-28 -43,0 -69,30 -69,66zm133 0c0,36 26,66 68,66 31,0 51,-19 51,-19l-13 -22c0,0 -15,14 -35,14 -19,0 -35,-12 -38,-34l87 0c0,0 1,-8 1,-12 0,-33 -20,-60 -56,-60 -38,0 -64,27 -64,66zm33 -16c3,-16 15,-25 31,-25 13,0 23,10 24,25l-55 0zm117 79l31 0 0 -50c0,-7 1,-14 3,-21 6,-19 21,-26 34,-26 4,0 8,0 8,0l0 -31c0,0 -3,-1 -6,-1 -19,0 -34,14 -40,32l0 0c0,0 0,-3 0,-8l0 -7c0,-11 -6,-15 -17,-15l-29 0 0 27 10 0c3,0 5,2 5,5l0 94zm82 -36c0,25 21,39 43,39 28,0 38,-22 38,-22l0 0c0,0 0,2 0,5 0,7 4,14 16,14l28 0 0 -26 -10 0c-3,0 -5,-2 -5,-5l0 -47c0,-28 -12,-50 -54,-50 -13,0 -46,2 -46,26l0 13 29 0 0 -7c0,-7 11,-8 17,-8 16,0 23,7 23,25l0 1 -4 0c-20,0 -75,3 -75,43zm32 -1c0,-18 26,-20 42,-20l5 0 0 3c0,15 -12,33 -29,33 -13,0 -19,-8 -19,-16zm-2182 334l98 0c12,0 17,-5 17,-17l0 -22 -28 0 0 7c0,4 -2,5 -5,5l-28 0c-8,0 -12,1 -12,1l0 0c0,0 5,-5 11,-12l58 -71 0 -17 -92 0c-12,0 -17,5 -17,17l0 22 28 0 0 -7c0,-3 2,-5 5,-5l23 0c8,0 12,0 12,0l0 0c0,0 -5,4 -11,12l-58 71 0 17zm193 -63c0,37 27,66 68,66 34,0 53,-23 53,-23l-13 -22c0,0 -16,17 -37,17 -20,0 -39,-13 -39,-39 0,-23 16,-39 37,-39 8,0 18,3 18,10l0 7 28 0 0 -15c0,-22 -29,-28 -46,-28 -43,0 -69,30 -69,66zm133 0c0,36 26,66 68,66 31,0 51,-19 51,-19l-13 -22c0,0 -15,14 -35,14 -19,0 -35,-12 -38,-34l87 0c0,0 1,-8 1,-12 0,-33 -20,-60 -56,-60 -38,0 -64,27 -64,66zm33 -16c3,-16 15,-25 31,-25 13,0 23,10 24,25l-55 0zm104 13c0,35 21,64 57,64 17,0 28,-6 35,-16l0 0c0,0 0,4 0,7l0 6c0,23 -17,31 -36,31 -19,0 -35,-8 -35,-8l-10 25c12,6 29,11 45,11 33,0 66,-16 66,-60l0 -87c0,-3 2,-5 5,-5l10 0 0 -27 -29 0c-10,0 -14,6 -14,12 0,2 0,3 0,3l0 0c0,0 -10,-18 -39,-18 -36,0 -56,28 -56,63zm63 37c-20,0 -31,-16 -31,-38 0,-21 10,-35 29,-35 17,0 31,8 31,36 0,28 -14,37 -29,37zm100 12c0,12 5,17 17,17l30 0 0 -26 -10 0c-3,0 -5,-2 -5,-5l0 -127c0,-12 -5,-17 -17,-17l-30 0 0 27 10 0c3,0 5,2 5,5l0 126zm60 -20c0,25 21,39 43,39 28,0 38,-22 38,-22l0 0c0,0 0,2 0,5 0,7 4,14 16,14l28 0 0 -26 -10 0c-3,0 -5,-2 -5,-5l0 -47c0,-28 -12,-50 -54,-50 -13,0 -46,2 -46,26l0 13 29 0 0 -7c0,-7 11,-8 17,-8 16,0 23,7 23,25l0 1 -4 0c-20,0 -75,3 -75,43zm32 -1c0,-18 26,-20 42,-20l5 0 0 3c0,15 -12,33 -29,33 -13,0 -19,-8 -19,-16zm105 18c0,0 18,22 52,22 27,0 48,-15 48,-39 0,-42 -67,-38 -67,-58 0,-7 8,-11 19,-11 7,0 16,3 16,9l0 6 28 0 0 -13c0,-20 -27,-26 -44,-26 -26,0 -49,12 -49,37 0,41 66,41 66,58 0,8 -7,12 -17,12 -21,0 -38,-19 -38,-19l-15 20zm130 -27c0,42 35,47 52,47 6,0 10,-1 10,-1l0 -27c0,0 -2,1 -6,1 -9,0 -25,-3 -25,-24l0 -51 29 0 0 -25 -29 0 0 -34 -31 0 0 34 -17 0 0 25 16 0 0 55zm80 63l-12 22c0,0 12,13 32,13 19,0 37,-10 45,-33l45 -114c1,-4 3,-4 7,-4l4 0 0 -27 -21 0c-9,0 -14,3 -17,12l-21 63c-2,6 -4,17 -4,17l0 0c0,0 -2,-10 -4,-17l-25 -63c-3,-9 -8,-12 -17,-12l-21 0 0 27 4 0c3,0 5,1 7,4l42 95 -4 10c-4,11 -12,16 -21,16 -10,0 -18,-9 -18,-9zm145 -17l31 0 0 -55c0,-6 1,-11 2,-16 4,-16 15,-29 30,-29 15,0 17,12 17,25l0 75 31 0 0 -55c0,-6 0,-11 2,-16 3,-16 15,-29 30,-29 15,0 17,11 17,25l0 58c0,12 5,17 17,17l30 0 0 -26 -10 0c-3,0 -5,-2 -5,-5l0 -49c0,-33 -15,-48 -41,-48 -20,0 -36,12 -43,26l0 0c-5,-17 -18,-26 -37,-26 -20,0 -35,14 -41,26l0 0c0,0 0,-3 0,-5l0 -4c0,-9 -5,-14 -17,-14l-29 0 0 27 10 0c3,0 5,2 5,5l0 94zm235 -146l27 0 0 -29 -27 0 0 29zm-1 130c0,12 5,17 17,17l30 0 0 -26 -10 0c-3,0 -5,-2 -5,-5l0 -77c0,-12 -5,-17 -17,-17l-30 0 0 27 10 0c3,0 5,2 5,5l0 77zm138 66l31 0 0 -52c0,-6 0,-11 0,-11l0 0c0,0 11,17 36,17 33,0 58,-26 58,-66 0,-39 -22,-66 -56,-66 -29,0 -40,20 -40,20l-1 0c0,0 0,-2 0,-5 0,-7 -4,-12 -16,-12l-28 0 0 27 10 0c3,0 5,2 5,5l0 143zm30 -112c0,-28 15,-40 32,-40 19,0 31,16 31,40 0,25 -15,39 -32,39 -21,0 -31,-19 -31,-39zm125 -84l27 0 0 -29 -27 0 0 29zm-1 130c0,12 5,17 17,17l30 0 0 -26 -10 0c-3,0 -5,-2 -5,-5l0 -77c0,-12 -5,-17 -17,-17l-30 0 0 27 10 0c3,0 5,2 5,5l0 77zm60 -46c0,36 26,66 68,66 31,0 51,-19 51,-19l-13 -22c0,0 -15,14 -35,14 -19,0 -35,-12 -38,-34l87 0c0,0 1,-8 1,-12 0,-33 -20,-60 -56,-60 -38,0 -64,27 -64,66zm33 -16c3,-16 15,-25 31,-25 13,0 23,10 24,25l-55 0zm104 13c0,35 21,64 57,64 17,0 28,-6 35,-16l0 0c0,0 0,4 0,7l0 6c0,23 -17,31 -36,31 -19,0 -35,-8 -35,-8l-10 25c12,6 29,11 45,11 33,0 66,-16 66,-60l0 -87c0,-3 2,-5 5,-5l10 0 0 -27 -29 0c-10,0 -14,6 -14,12 0,2 0,3 0,3l0 0c0,0 -10,-18 -39,-18 -36,0 -56,28 -56,63zm63 37c-20,0 -31,-16 -31,-38 0,-21 10,-35 29,-35 17,0 31,8 31,36 0,28 -14,37 -29,37zm88 -7c0,25 21,39 43,39 28,0 38,-22 38,-22l0 0c0,0 0,2 0,5 0,7 4,14 16,14l28 0 0 -26 -10 0c-3,0 -5,-2 -5,-5l0 -47c0,-28 -12,-50 -54,-50 -13,0 -46,2 -46,26l0 13 29 0 0 -7c0,-7 11,-8 17,-8 16,0 23,7 23,25l0 1 -4 0c-20,0 -75,3 -75,43zm32 -1c0,-18 26,-20 42,-20l5 0 0 3c0,15 -12,33 -29,33 -13,0 -19,-8 -19,-16zm119 38l31 0 0 -55c0,-6 1,-11 2,-16 4,-16 15,-29 30,-29 15,0 17,12 17,25l0 75 31 0 0 -55c0,-6 0,-11 2,-16 3,-16 15,-29 30,-29 15,0 17,11 17,25l0 58c0,12 5,17 17,17l30 0 0 -26 -10 0c-3,0 -5,-2 -5,-5l0 -49c0,-33 -15,-48 -41,-48 -20,0 -36,12 -43,26l0 0c-5,-17 -18,-26 -37,-26 -20,0 -35,14 -41,26l0 0c0,0 0,-3 0,-5l0 -4c0,-9 -5,-14 -17,-14l-29 0 0 27 10 0c3,0 5,2 5,5l0 94zm235 -146l27 0 0 -29 -27 0 0 29zm-1 130c0,12 5,17 17,17l30 0 0 -26 -10 0c-3,0 -5,-2 -5,-5l0 -77c0,-12 -5,-17 -17,-17l-30 0 0 27 10 0c3,0 5,2 5,5l0 77z"/>
  <path class="fil3" d="M8230 7153c11,42 27,126 57,180 29,54 72,78 80,53 8,-25 -19,-100 -36,-155 -16,-55 -21,-90 -20,-108 1,-18 9,-19 19,-19 10,0 22,-1 16,-16 -6,-15 -30,-46 -53,-83 -23,-37 -44,-80 -61,-82 -17,-3 -30,34 -42,65 -11,30 -21,53 -28,69 -7,17 -11,27 -3,34 8,8 27,12 40,15 13,3 19,4 30,46z"/>
  <g id="_1552416669744">
   <path class="fil1" d="M9345 3873c81,175 140,427 129,725 -11,298 -92,642 -195,929 -104,287 -230,516 -428,713 -198,196 -467,359 -635,433 -168,74 -233,58 -404,-31 -171,-89 -447,-252 -648,-525 -201,-273 -328,-655 -382,-1007 -54,-352 -35,-673 26,-938 61,-265 163,-474 324,-627 162,-153 382,-250 633,-284 250,-34 530,-6 751,45 221,51 382,125 514,210 132,85 234,182 315,357z"/>
   <path class="fil4" d="M8131 4993c6,77 24,190 40,271 17,81 32,131 66,177 34,46 88,87 72,148 -16,61 -103,140 -155,183 -52,43 -71,50 -127,12 -56,-38 -149,-121 -172,-183 -24,-62 22,-103 55,-148 33,-46 55,-96 69,-169 14,-73 21,-168 24,-248 3,-80 2,-143 24,-175 22,-31 67,-29 86,-8 19,22 12,63 18,140z"/>
   <path class="fil5" d="M8242 5964c-38,-11 -66,-24 -89,-26 -23,-2 -43,8 -57,15 -6,3 -11,6 -16,8 -4,-2 -8,-4 -12,-6 -15,-7 -34,-17 -57,-15 -23,2 -51,14 -89,26 -51,15 -120,36 -171,48 -15,3 -34,3 -40,9 -5,6 4,18 21,24 16,6 40,7 71,8 31,1 69,2 98,0 30,-2 51,-7 82,-4 96,9 101,7 197,-2 31,-3 53,2 82,4 30,2 68,1 98,0 31,-1 54,-2 71,-8 16,-6 26,-18 21,-24 -5,-6 -25,-6 -40,-9 -49,-11 -124,-34 -171,-48z"/>
   <path class="fil5" d="M8068 6203c224,-2 239,-27 336,-105 40,-33 -20,-34 -52,-35 -31,-1 -69,-2 -98,0 -30,2 -51,6 -82,4 -43,-3 -70,29 -93,29 -28,0 -51,-32 -104,-28 -31,2 -53,-2 -82,-4 -30,-2 -68,-1 -98,0 -3,0 -52,-2 -43,28 17,64 112,112 317,110z"/>
   <g>
    <path class="fil6" d="M7676 5185c-8,12 -32,36 -71,53 -38,17 -91,29 -143,27 -52,-2 -103,-17 -141,-39 -38,-23 -63,-53 -78,-86 -16,-34 -22,-70 -13,-74 9,-4 33,25 66,51 33,25 74,47 112,60 38,13 73,18 105,20 32,2 61,2 86,-2 25,-5 47,-14 62,-18 15,-4 22,-3 14,9z"/>
    <path class="fil6" d="M7775 4939c-11,-30 -31,-60 -55,-83 -25,-23 -55,-39 -96,-51 -41,-11 -94,-17 -136,-13 -42,3 -73,15 -103,30 -30,15 -60,33 -83,52 -23,20 -39,41 -51,57 -12,17 -21,28 -26,34 -5,6 -8,6 -10,-3 -3,-9 -6,-28 10,-59 16,-31 50,-73 78,-105 28,-31 51,-52 98,-65 48,-13 120,-18 183,-10 62,8 114,30 149,48 36,18 56,33 71,67 15,34 26,87 27,121 0,34 -10,49 -18,57 -8,8 -13,10 -18,-5 -4,-15 -8,-46 -19,-76z"/>
    <path class="fil0" d="M7792 5031c1,-27 1,-60 -13,-94 -14,-34 -41,-70 -90,-96 -49,-27 -118,-45 -180,-44 -62,1 -117,22 -162,60 -45,38 -81,93 -101,121 -20,28 -25,29 -10,51 15,22 49,65 87,96 38,31 80,49 124,61 44,12 92,19 139,12 47,-7 95,-26 128,-45 34,-19 54,-36 65,-56 11,-19 12,-40 13,-67z"/>
    <path class="fil7" d="M7793 5012c1,-8 3,-41 -12,-78 -15,-38 -47,-80 -81,-106 -33,-26 -68,-35 -106,-41 -38,-5 -78,-7 -106,-5 -28,2 -44,8 -62,13 -18,6 -39,12 -55,14 -16,2 -26,0 -40,-7 -15,-7 -35,-18 -45,-31 -10,-13 -9,-29 -11,-29 -2,0 -6,15 -1,31 5,16 18,33 28,43 10,10 18,13 22,16 4,3 3,7 -3,11 -6,4 -18,8 -34,9 -16,1 -38,0 -55,-6 -17,-6 -30,-17 -36,-23 -6,-6 -6,-6 -2,0 4,6 13,18 28,28 15,10 37,19 50,24 13,4 17,4 17,7 0,3 -4,8 -8,13 -4,5 -10,10 -21,12 -12,2 -30,3 -47,-2 -17,-5 -33,-15 -43,-22 -10,-7 -12,-12 -11,-9 1,3 6,15 21,26 14,11 37,23 50,29 13,6 16,5 16,7 0,2 -3,6 -9,9 -6,4 -15,7 -29,7 -14,0 -34,-4 -48,-11 -14,-7 -23,-18 -27,-23 -4,-5 -4,-5 -1,1 4,6 11,19 21,31 9,12 21,23 33,33 13,10 27,19 35,22 8,3 8,0 16,-12 8,-12 23,-33 40,-55 17,-22 37,-46 60,-64 23,-18 50,-31 73,-41 24,-10 44,-17 65,-21 21,-4 42,-6 68,-3 26,2 58,8 85,17 27,8 49,19 68,34 19,15 34,33 45,50 12,16 20,31 28,43 8,12 14,22 18,35 3,14 4,32 5,24z"/>
    <ellipse class="fil8" transform="matrix(0.265225 0.0645736 -0.0645736 0.265225 7516.54 5005.49)" rx="607" ry="574"/>
    <path class="fil7" d="M7759 5123c-31,18 -61,35 -90,48 -29,13 -55,20 -92,21 -37,2 -83,-2 -123,-12 -40,-9 -73,-23 -101,-41 -28,-18 -52,-39 -69,-56 -17,-17 -26,-31 -32,-40 -7,-8 -11,-12 -20,-12 -9,-1 -22,2 -33,9 -12,7 -22,19 -33,31 19,-6 38,-13 52,-13 13,0 21,6 18,15 -3,9 -17,19 -25,27 -8,8 -11,13 -13,18 17,-12 34,-23 51,-22 17,1 35,16 40,24 5,8 -2,11 -11,17 -9,6 -19,16 -29,26 19,-9 38,-17 57,-17 19,1 38,11 52,18 14,7 24,12 25,18 0,6 -9,14 -16,23 -8,9 -13,20 -19,30 26,-14 52,-27 80,-30 28,-3 58,5 96,7 38,2 83,-1 124,-17 41,-16 76,-45 112,-75z"/>
    <ellipse class="fil9" transform="matrix(0.109866 0.0267486 -0.0267486 0.109866 7514.65 5003.76)" rx="607" ry="574"/>
    <path class="fil10" d="M7488 4888c37,9 60,44 51,79 -8,35 -45,56 -82,47 -37,-9 -60,-44 -51,-79 8,-35 45,-56 82,-47z"/>
   </g>
   <path class="fil7" d="M7797 4572c-27,-12 -69,-34 -136,-52 -67,-18 -159,-33 -231,-31 -72,2 -124,21 -169,45 -45,25 -83,55 -96,60 -13,5 0,-17 37,-56 37,-39 98,-97 147,-129 49,-32 85,-39 155,-33 71,6 177,25 248,43 71,18 108,36 126,58 18,21 16,46 8,65 -9,19 -25,33 -38,39 -14,5 -25,2 -52,-10z"/>
   <g>
    <path class="fil6" d="M8456 5179c9,12 34,35 73,51 39,16 92,25 144,22 52,-4 102,-20 139,-44 37,-24 61,-55 75,-89 14,-34 19,-71 10,-75 -9,-3 -32,27 -64,53 -32,26 -72,49 -110,64 -38,14 -73,20 -105,24 -32,3 -61,4 -86,1 -26,-4 -48,-12 -63,-16 -15,-4 -22,-2 -14,10z"/>
    <path class="fil6" d="M8358 4935c10,-31 29,-61 52,-85 24,-24 53,-41 94,-54 41,-13 94,-20 136,-18 42,2 74,13 104,27 31,14 61,31 85,49 24,19 40,39 53,56 13,16 22,28 27,33 6,6 8,6 10,-3 2,-9 5,-28 -12,-58 -17,-30 -53,-71 -82,-102 -30,-30 -53,-50 -101,-61 -48,-11 -121,-14 -183,-3 -62,10 -112,34 -147,53 -35,20 -54,35 -68,70 -14,35 -23,88 -22,122 1,34 12,49 20,56 8,8 14,9 18,-6 4,-15 6,-46 16,-77z"/>
    <path class="fil0" d="M8343 5028c-2,-27 -3,-60 10,-95 13,-35 39,-71 86,-99 48,-28 116,-49 179,-50 62,-1 117,17 164,54 46,36 84,90 105,118 21,27 26,28 12,50 -14,22 -47,67 -83,99 -37,32 -78,52 -122,66 -44,14 -91,22 -139,17 -48,-5 -95,-22 -130,-40 -34,-17 -55,-34 -67,-53 -11,-19 -14,-39 -15,-66z"/>
    <path class="fil7" d="M8342 5008c-1,-8 -4,-41 9,-79 14,-38 44,-82 77,-109 32,-27 67,-38 104,-44 37,-7 78,-10 106,-9 28,1 44,6 62,11 18,5 40,10 55,12 16,1 25,-1 40,-8 15,-7 34,-19 43,-32 9,-14 8,-29 10,-29 2,0 6,14 2,31 -4,16 -17,34 -27,44 -10,10 -18,13 -21,17 -3,3 -3,7 3,10 6,4 18,7 34,8 16,1 38,-1 55,-8 17,-7 29,-18 35,-24 6,-6 6,-6 2,0 -4,6 -12,18 -27,29 -15,11 -36,21 -49,26 -13,5 -17,5 -17,7 0,3 4,8 9,13 5,5 10,9 22,11 12,2 30,2 47,-4 17,-5 33,-16 42,-23 9,-8 12,-12 11,-9 -1,3 -6,15 -20,27 -14,12 -36,24 -49,30 -13,6 -16,6 -15,8 0,2 3,6 10,9 6,3 15,7 29,6 14,-1 34,-5 47,-13 14,-8 22,-19 26,-24 4,-6 4,-6 1,1 -4,6 -10,19 -19,32 -9,12 -20,24 -32,34 -13,10 -27,20 -34,23 -7,3 -8,0 -16,-11 -8,-12 -24,-32 -42,-54 -18,-22 -39,-44 -63,-61 -24,-17 -51,-29 -74,-38 -24,-9 -45,-15 -66,-19 -21,-3 -42,-4 -68,-1 -26,3 -58,10 -85,20 -27,9 -49,21 -67,37 -18,15 -32,35 -44,51 -11,17 -19,32 -26,44 -7,12 -13,22 -16,36 -3,14 -3,32 -4,24z"/>
    <ellipse class="fil8" transform="matrix(-0.262702 0.0741753 0.0741753 0.262702 8617.78 4992.15)" rx="607" ry="574"/>
    <path class="fil7" d="M8380 5118c31,17 63,33 92,45 29,11 56,18 93,18 37,0 83,-5 122,-16 39,-11 72,-26 99,-45 28,-19 51,-41 67,-59 16,-18 24,-32 31,-41 6,-9 11,-12 19,-13 9,-1 22,1 34,7 12,7 23,18 34,30 -19,-6 -39,-12 -52,-11 -13,0 -20,7 -17,16 3,8 18,18 26,26 8,8 11,13 14,18 -17,-11 -35,-22 -52,-20 -17,2 -34,17 -39,26 -5,9 3,11 12,17 9,6 19,16 29,25 -19,-8 -39,-16 -58,-14 -19,1 -37,12 -52,20 -14,8 -24,13 -24,19 0,6 9,14 17,23 8,9 14,19 20,29 -26,-13 -53,-25 -81,-27 -28,-2 -58,7 -96,11 -38,4 -83,2 -124,-13 -41,-15 -78,-43 -115,-71z"/>
    <ellipse class="fil9" transform="matrix(-0.10882 0.030726 0.030726 0.10882 8619.61 4990.35)" rx="607" ry="574"/>
    <path class="fil10" d="M8526 4907c-36,10 -58,47 -48,81 10,34 47,54 84,44 36,-10 58,-47 48,-81 -10,-34 -47,-54 -84,-44z"/>
   </g>
   <path class="fil7" d="M8343 4545c27,-12 69,-34 136,-52 67,-18 159,-33 231,-31 72,2 124,21 169,45 45,25 83,55 96,60 13,5 0,-17 -37,-56 -37,-39 -98,-97 -185,-121 -87,-25 -198,-17 -278,-4 -79,13 -127,31 -165,35 -38,5 -67,-4 -79,15 -12,19 -7,66 6,92 13,26 35,31 52,32 17,1 28,-2 55,-15z"/>
   <path class="fil6" d="M7471 6428c-107,-83 -215,-185 -308,-310 -119,-161 -212,-360 -279,-569 20,-20 56,-26 112,0 87,42 222,162 298,274 76,112 93,216 112,310 19,94 41,178 55,241 4,20 8,38 10,53z"/>
   <path class="fil6" d="M9281 5522c-21,-7 -50,-4 -89,15 -87,42 -222,162 -298,274 -15,22 -253,603 -255,610 74,-55 147,-116 212,-181 198,-196 324,-426 428,-713l2 -6z"/>
   <ellipse class="fil11" cx="8711" cy="5478" rx="17" ry="16"/>
   <ellipse class="fil11" cx="8824" cy="5388" rx="17" ry="16"/>
   <ellipse class="fil11" cx="8842" cy="5525" rx="17" ry="16"/>
   <ellipse class="fil11" cx="8556" cy="5428" rx="17" ry="16"/>
   <ellipse class="fil11" cx="8567" cy="5558" rx="17" ry="16"/>
   <ellipse class="fil11" cx="7518" cy="5470" rx="17" ry="16"/>
   <ellipse class="fil11" cx="7406" cy="5380" rx="17" ry="16"/>
   <ellipse class="fil11" cx="7388" cy="5517" rx="17" ry="16"/>
   <ellipse class="fil11" cx="7673" cy="5420" rx="17" ry="16"/>
   <ellipse class="fil11" cx="7662" cy="5550" rx="17" ry="16"/>
   <path class="fil12" d="M8531 3670c-48,-22 -150,60 -243,84 -93,24 -176,-9 -219,30 -43,40 -46,153 -73,239 -27,86 -77,146 -163,165 -86,19 -209,-3 -269,22 -61,25 -59,96 -98,148 -38,51 -115,82 -196,102 -81,19 -165,26 -158,168 7,141 104,417 130,598 26,181 -19,266 -76,310 -56,44 -123,45 -123,112 0,67 67,200 65,322 -3,122 -75,232 -83,363 -8,131 49,281 19,383 -30,102 -146,155 -145,205 1,49 120,94 155,192 34,99 -16,251 -79,293 -64,42 -141,-25 -264,13 -124,38 -295,182 -419,228 -125,47 -203,-4 -206,-69 -3,-66 69,-148 115,-223 46,-75 64,-144 38,-201 -27,-57 -99,-101 -104,-193 -5,-93 58,-234 60,-334 2,-100 -58,-160 -74,-247 -16,-86 13,-199 -5,-300 -17,-100 -80,-188 -68,-286 13,-97 100,-204 102,-339 2,-135 -83,-298 -83,-388 0,-90 85,-106 103,-230 18,-124 -30,-356 -34,-513 -4,-157 37,-239 106,-305 69,-67 166,-119 215,-192 49,-73 49,-167 115,-254 66,-87 198,-167 272,-231 74,-64 90,-111 124,-144 35,-33 88,-52 168,-71 80,-19 187,-38 239,-73 53,-35 51,-87 144,-120 93,-33 280,-47 446,-56 166,-9 312,-12 429,0 117,12 205,38 250,105 45,66 46,172 67,196 21,24 62,-33 156,-68 94,-35 242,-47 349,23 108,71 175,225 250,309 75,85 159,100 209,226 50,126 68,361 148,524 81,163 225,254 225,399 0,144 -144,342 -138,521 6,179 163,339 142,481 -21,141 -221,264 -244,348 -24,84 129,130 135,230 6,100 -133,256 -141,382 -8,126 116,221 124,374 8,153 -101,362 -194,420 -93,58 -170,-37 -296,-20 -126,17 -302,145 -376,102 -74,-43 -48,-256 -15,-375 33,-119 73,-144 70,-214 -3,-71 -49,-187 -63,-269 -14,-82 5,-129 10,-219 5,-90 -3,-223 -22,-295 -19,-71 -50,-80 -33,-172 17,-92 80,-267 92,-388 11,-121 -29,-187 -14,-278 16,-92 88,-210 72,-285 -16,-75 -119,-108 -147,-197 -28,-89 18,-233 9,-299 -10,-66 -76,-53 -123,-72 -47,-19 -75,-69 -111,-110 -36,-41 -80,-72 -118,-122 -38,-50 -69,-119 -82,-217 -13,-98 -6,-225 -54,-248z"/>
   <path class="fil7" d="M8797 3849c-6,9 6,110 44,174 38,64 101,93 166,135 66,42 135,99 162,179 27,80 11,184 3,236 -8,52 -8,52 17,14 25,-38 75,-113 100,-188 25,-75 25,-151 -19,-209 -44,-58 -132,-99 -209,-127 -77,-28 -143,-44 -188,-93 -46,-49 -71,-130 -77,-121z"/>
   <path class="fil7" d="M7006 4837c27,49 99,262 105,409 6,146 -54,225 -98,279 -44,54 -71,83 -57,174 15,91 71,244 52,367 -19,123 -114,217 -162,264 -47,47 -47,47 -16,-22 31,-69 94,-207 93,-322 -2,-115 -68,-206 -90,-293 -23,-87 -2,-171 38,-230 41,-60 102,-96 130,-165 28,-70 21,-173 9,-283 -13,-110 -31,-226 -5,-177z"/>
   <path class="fil7" d="M8400 3147c36,-24 -52,-83 -181,-99 -129,-16 -298,13 -419,44 -121,31 -193,66 -259,85 -66,19 -126,22 -116,39 10,17 89,49 203,39 115,-9 265,-60 420,-78 155,-19 315,-6 351,-30z"/>
   <path class="fil7" d="M8284 3576c-17,9 -105,35 -182,38 -77,3 -143,-16 -174,27 -31,42 -28,146 -31,218 -3,72 -13,113 -28,146 -15,33 -37,58 -93,72 -57,14 -148,17 -218,33 -69,16 -117,44 -146,80 -30,36 -42,80 -94,113 -52,33 -143,55 -207,53 -64,-2 -102,-27 -121,-39 -19,-13 -19,-13 33,-35 52,-22 155,-66 236,-126 80,-60 137,-135 203,-160 66,-25 141,0 203,-20 61,-20 108,-86 127,-155 19,-69 9,-141 24,-188 14,-47 52,-69 119,-74 68,-5 165,8 240,11 75,3 129,-3 111,6z"/>
   <path class="fil7" d="M9847 5517c29,42 34,82 10,121 -24,39 -75,79 -126,114 -50,35 -99,67 -112,119 -13,52 9,124 42,177 34,53 79,86 101,126 22,40 20,87 3,136 -17,49 -50,99 -79,143 -28,44 -52,82 -53,50 -1,-31 21,-132 19,-205 -2,-73 -29,-119 -75,-166 -46,-47 -110,-96 -135,-150 -25,-54 -11,-114 17,-160 28,-46 71,-79 122,-108 52,-29 113,-54 152,-74 38,-20 54,-34 55,-62 1,-28 -14,-69 -30,-104 -16,-35 -33,-62 -14,-53 18,9 72,55 101,97z"/>
   <path class="fil11" d="M8761 3415c38,-20 93,-52 151,-73 57,-21 117,-32 181,1 64,33 131,110 184,175 53,65 90,119 132,133 42,15 87,-9 110,-20 23,-12 23,-12 4,-13 -19,-1 -57,-2 -92,-34 -35,-31 -68,-93 -107,-158 -38,-65 -82,-134 -126,-169 -43,-35 -86,-35 -141,-17 -56,17 -125,52 -190,90 -65,38 -126,81 -146,97 -20,16 2,7 41,-13z"/>
   <path class="fil11" d="M6781 4858c12,10 17,63 22,102 5,39 10,64 -6,85 -16,21 -53,38 -90,43 -37,5 -75,-3 -98,5 -23,8 -32,31 -23,53 9,22 36,41 59,62 24,20 44,42 54,59 10,18 9,32 -4,41 -13,9 -38,14 -54,29 -16,15 -23,40 -23,56 0,16 8,23 14,29 6,6 10,12 12,15 2,3 2,3 -12,-14 -14,-17 -42,-51 -44,-79 -1,-29 25,-52 22,-73 -2,-21 -33,-40 -55,-73 -22,-33 -37,-81 -35,-115 2,-33 19,-52 49,-64 30,-11 72,-15 102,-32 29,-16 46,-46 63,-76 17,-31 35,-63 47,-53z"/>
   <path class="fil11" d="M9329 4740c-13,12 -23,83 -31,136 -8,52 -15,86 -1,117 14,31 49,59 86,69 37,11 75,5 97,18 22,13 29,46 18,75 -11,28 -39,52 -64,77 -25,25 -47,51 -59,74 -11,23 -12,42 0,57 12,14 37,24 51,46 15,22 20,57 18,79 -2,22 -10,31 -17,38 -6,8 -11,15 -13,18 -2,4 -2,4 13,-18 16,-21 47,-64 50,-103 4,-39 -20,-74 -16,-102 4,-29 36,-51 61,-93 25,-43 43,-106 45,-152 1,-46 -14,-73 -43,-92 -29,-19 -71,-29 -99,-55 -28,-26 -42,-67 -56,-111 -15,-44 -30,-90 -42,-77z"/>
   <path class="fil11" d="M9189 6396c-12,14 -17,84 -22,136 -5,52 -10,85 6,114 16,28 53,51 90,58 37,6 75,-4 98,6 23,10 32,42 23,71 -9,29 -36,55 -59,82 -24,27 -44,56 -54,79 -10,24 -9,42 4,55 13,13 38,19 54,39 16,20 23,53 23,75 0,21 -8,31 -14,39 -6,8 -10,16 -12,19 -2,4 -2,4 12,-19 14,-23 42,-68 44,-106 1,-38 -25,-70 -22,-98 2,-28 33,-53 55,-98 22,-45 37,-108 35,-153 -2,-45 -19,-70 -49,-85 -30,-15 -72,-20 -102,-42 -29,-22 -46,-61 -63,-102 -17,-41 -35,-84 -47,-70z"/>
   <path class="fil11" d="M6729 4154c18,1 77,-38 121,-66 44,-28 73,-45 86,-75 12,-30 8,-73 -10,-107 -18,-33 -49,-57 -55,-81 -6,-25 13,-51 42,-61 28,-11 65,-6 101,-4 36,2 71,0 95,-6 25,-7 39,-19 41,-37 2,-18 -9,-42 -3,-67 6,-25 28,-51 45,-64 17,-13 29,-13 40,-13 10,-1 18,-2 23,-3 4,-1 4,-1 -22,2 -26,3 -79,8 -110,31 -31,23 -40,62 -63,78 -24,16 -62,7 -111,17 -49,10 -108,38 -142,67 -34,29 -43,58 -37,91 6,33 28,69 29,106 1,37 -20,74 -41,112 -22,39 -44,79 -26,80z"/>
   <path class="fil11" d="M6380 6457c-14,13 -32,94 -46,153 -14,59 -25,97 -14,134 11,36 43,71 79,86 36,15 75,11 95,28 21,17 24,56 10,87 -14,32 -45,57 -73,83 -28,27 -53,55 -67,81 -14,25 -16,48 -6,65 11,17 34,30 46,57 12,27 13,67 9,92 -4,25 -14,34 -21,43 -7,9 -12,16 -15,20 -3,4 -3,4 15,-19 18,-23 54,-70 62,-114 8,-44 -12,-86 -5,-119 7,-32 42,-55 72,-102 30,-47 55,-119 62,-171 6,-52 -6,-85 -33,-109 -27,-24 -67,-39 -92,-71 -25,-32 -34,-81 -44,-132 -10,-51 -20,-105 -34,-92z"/>
  </g>
 </g>
</svg>
