<?xml version="1.0" encoding="UTF-8" standalone="no"?>
<svg
   class="twarz twarz-right"
   data-face="europe-brown"
   xmlns:dc="http://purl.org/dc/elements/1.1/"
   xmlns:cc="http://creativecommons.org/ns#"
   xmlns:rdf="http://www.w3.org/1999/02/22-rdf-syntax-ns#"
   xmlns:svg="http://www.w3.org/2000/svg"
   xmlns="http://www.w3.org/2000/svg"
   xmlns:sodipodi="http://sodipodi.sourceforge.net/DTD/sodipodi-0.dtd"
   xmlns:inkscape="http://www.inkscape.org/namespaces/inkscape"
   xml:space="preserve"
   width="93.960609mm"
   height="89.015572mm"
   version="1.0"
   style="clip-rule:evenodd;fill-rule:evenodd;image-rendering:optimizeQuality;shape-rendering:geometricPrecision;text-rendering:geometricPrecision"
   viewBox="0 0 9396.0609 8901.5572"
   id="svg71"
   sodipodi:docname="face.svg"
   inkscape:version="1.0.1 (3bc2e813f5, 2020-09-07)"><metadata
   id="metadata75"><rdf:RDF><cc:Work
       rdf:about=""><dc:format>image/svg+xml</dc:format><dc:type
         rdf:resource="http://purl.org/dc/dcmitype/StillImage" /></cc:Work></rdf:RDF></metadata><sodipodi:namedview
   pagecolor="#ffffff"
   bordercolor="#666666"
   borderopacity="1"
   objecttolerance="10"
   gridtolerance="10"
   guidetolerance="10"
   inkscape:pageopacity="0"
   inkscape:pageshadow="2"
   inkscape:window-width="1858"
   inkscape:window-height="1057"
   id="namedview73"
   showgrid="false"
   inkscape:zoom="1.1162388"
   inkscape:cx="165.90294"
   inkscape:cy="215.16276"
   inkscape:window-x="54"
   inkscape:window-y="-8"
   inkscape:window-maximized="1"
   inkscape:current-layer="Warstwa_x0020_1"
   inkscape:document-rotation="0" />
 <defs
   id="defs4">
  <style
   type="text/css"
   id="style2">

    .europe-bown__fill5 {fill:#FEFEFE}
    .europe-bown__fill0 {fill:#F6DAD6}
    .europe-bown__fill2 {fill:#E4B9AF}
    .europe-bown__fill3 {fill:#E2A59A}
    .europe-bown__fill7 {fill:#593A1B}
    .europe-bown__fill6 {fill:#1F130D}
    .europe-bown__fill9 {fill:#2F1C16}
    .europe-bown__fill10 {fill:#6D5346}
    .europe-bown__fill8 {fill:#FEFEFE;fill-opacity:0.501961}
    .europe-bown__fill1 {fill:#E4B9AF;fill-opacity:0.501961}
    .europe-bown__fill4 {fill:#D7ACA6;fill-opacity:0.501961}

  </style>
 
   
   
   
   
   
   
   
   
   
   
   
   
   
   
   
  </defs>
 <g
   id="Warstwa_x0020_1"
   transform="translate(-10460.485,-4807.1519)">
  <metadata
   id="CorelCorpID_0Corel-Layer" />
  <path
   class="europe-bown__fill0 face"
   d="m 18216,7126 c 187,404 324,987 299,1677 -25,690 -212,1485 -451,2148 -240,663 -532,1194 -990,1647 -457,454 -1080,831 -1467,1002 -387,171 -540,135 -935,-71 -395,-206 -1033,-583 -1498,-1214 -465,-630 -758,-1515 -882,-2328 -124,-813 -81,-1556 59,-2169 140,-613 377,-1096 750,-1450 373,-354 884,-578 1463,-657 579,-80 1226,-15 1736,103 510,118 884,289 1189,486 305,197 541,421 728,825 z"
   id="europe-brown__face"
   style="opacity:1" /><path
   class="europe-bown__fill1 face"
   d="m 13885,13033 c -247,-191 -498,-427 -712,-718 -275,-372 -489,-833 -644,-1315 47,-47 130,-61 260,1 201,96 513,375 689,634 176,259 214,500 259,717 45,217 95,411 127,558 10,46 18,88 22,123 z"
   id="europe-brown__cheek-left"
   style="opacity:1" /><path
   class="europe-bown__fill2 face"
   d="m 15411,9746 c 13,159 55,391 93,558 38,168 74,271 154,365 80,94 204,180 166,305 -38,125 -237,289 -358,378 -121,89 -164,103 -293,24 -129,-79 -343,-250 -398,-378 -55,-128 51,-212 128,-306 77,-94 127,-199 159,-349 32,-150 48,-347 55,-511 7,-164 5,-296 56,-360 51,-64 154,-61 198,-16 44,45 29,130 42,289 z"
   id="europe-brown__nose"
   style="opacity:1" /><path
   class="europe-bown__fill3 face"
   d="m 15668,11959 c -89,-26 -152,-55 -206,-59 -54,-4 -98,18 -133,35 -14,7 -26,13 -37,18 -8,-4 -17,-9 -27,-14 -34,-17 -79,-38 -133,-35 -54,4 -117,33 -206,59 -119,35 -276,84 -394,111 -34,8 -79,8 -91,22 -41,47 88,6 111,140 40,229 258,402 734,395 519,-7 571,-183 746,-425 34,-48 134,-101 123,-115 -12,-14 -58,-14 -91,-22 -114,-26 -286,-79 -394,-111 z m -487,212 c 99,7 146,5 250,-5 -49,32 -87,81 -121,81 -41,0 -77,-45 -129,-75 z"
   id="europe-brown__mouth"
   style="opacity:1" /><g
   id="europe-brown__eye-right"
   style="opacity:1"
   class="face">
    <path
   class="europe-bown__fill4"
   d="m 16161,10144 c 20,28 78,80 168,117 90,37 214,59 333,50 120,-9 236,-47 322,-102 86,-55 141,-127 174,-206 33,-79 44,-164 23,-172 -21,-8 -75,61 -148,123 -73,61 -167,114 -254,148 -87,33 -168,47 -242,55 -74,8 -141,10 -200,2 -59,-9 -111,-28 -145,-37 -34,-8 -52,-5 -31,23 z"
   id="path15" />
    <path
   class="europe-bown__fill4"
   d="m 15934,9580 c 24,-71 66,-141 121,-196 55,-55 123,-96 217,-125 95,-29 217,-46 314,-42 97,4 170,29 241,61 71,32 142,71 196,114 55,43 94,91 123,128 30,37 50,64 63,77 13,14 18,14 24,-7 5,-22 11,-65 -27,-135 -39,-70 -122,-165 -190,-235 -68,-70 -122,-116 -233,-141 -111,-26 -280,-31 -423,-7 -143,24 -260,78 -341,123 -81,45 -125,82 -158,162 -33,80 -53,204 -51,282 2,79 27,112 45,130 19,18 32,21 41,-13 9,-34 14,-106 38,-177 z"
   id="path17" />
    <path
   class="europe-bown__fill5"
   d="m 15901,9795 c -4,-62 -7,-139 22,-219 29,-80 90,-164 200,-230 110,-66 269,-113 413,-116 143,-2 271,40 378,124 107,84 194,209 243,272 49,63 60,64 28,116 -32,52 -108,155 -193,229 -85,74 -180,120 -281,152 -102,32 -211,51 -321,40 -110,-11 -221,-52 -300,-92 -79,-40 -127,-80 -154,-123 -27,-44 -32,-91 -36,-153 z"
   id="path19" />
    <path
   class="europe-bown__fill6"
   d="m 15898,9750 c -3,-17 -10,-94 22,-182 32,-88 103,-189 178,-251 75,-62 154,-87 240,-103 86,-16 180,-23 245,-20 65,2 101,14 144,25 43,12 92,24 128,27 36,3 59,-3 93,-19 34,-16 79,-44 100,-75 21,-31 18,-67 22,-67 4,-1 14,33 5,71 -9,37 -38,78 -62,102 -23,24 -41,31 -49,39 -8,8 -6,16 8,24 14,8 41,17 79,18 38,2 87,-3 126,-18 39,-16 68,-43 82,-56 14,-13 14,-13 5,0 -9,14 -28,42 -62,67 -34,25 -83,48 -113,59 -29,11 -39,11 -39,17 0,6 9,19 20,30 11,11 23,22 50,26 27,5 69,4 108,-9 39,-12 76,-37 97,-54 21,-18 28,-29 25,-21 -2,8 -14,35 -45,63 -32,28 -84,56 -113,70 -29,14 -36,14 -35,18 0,4 8,13 22,21 14,8 35,15 68,13 33,-2 78,-12 109,-30 32,-18 51,-44 60,-56 9,-13 9,-13 1,2 -8,15 -24,45 -45,73 -21,28 -46,55 -75,79 -29,24 -62,45 -79,53 -17,7 -19,1 -38,-26 -19,-27 -55,-74 -97,-124 -42,-50 -90,-102 -145,-142 -55,-40 -117,-68 -172,-89 -55,-21 -103,-36 -152,-44 -49,-8 -97,-9 -158,-2 -61,7 -134,24 -195,45 -62,22 -113,49 -155,85 -42,36 -75,80 -101,119 -26,39 -44,73 -61,102 -16,28 -31,51 -38,83 -7,32 -6,74 -10,56 z"
   id="path21" />
    <ellipse
   class="europe-bown__fill7"
   transform="matrix(-0.607353,0.17149,0.17149,0.607353,16535.9,9712.55)"
   rx="607"
   ry="574"
   id="ellipse23"
   cx="0"
   cy="0" />
    <path
   class="europe-bown__fill6"
   d="m 15986,10004 c 72,38 145,77 212,103 67,26 130,41 215,42 85,1 192,-12 282,-37 91,-25 166,-60 230,-104 64,-43 118,-94 155,-136 37,-42 56,-74 71,-94 15,-20 25,-28 45,-30 20,-2 50,2 78,17 28,15 54,42 79,69 -45,-13 -90,-27 -121,-26 -31,1 -47,17 -39,36 8,19 41,43 60,60 19,18 26,30 32,42 -40,-26 -80,-51 -120,-46 -40,5 -78,39 -89,59 -11,20 6,25 27,39 21,14 44,36 68,58 -45,-18 -90,-37 -134,-33 -44,3 -87,28 -119,47 -33,18 -56,30 -56,44 -1,15 21,32 39,53 18,21 33,44 47,67 -61,-29 -122,-58 -187,-62 -65,-4 -135,16 -222,24 -87,8 -192,5 -287,-29 -95,-34 -180,-99 -265,-163 z"
   id="path25" />
    <ellipse
   class="europe-bown__fill6"
   transform="matrix(-0.251587,0.0710369,0.0710369,0.251587,16540.1,9708.39)"
   rx="607"
   ry="574"
   id="ellipse27"
   cx="0"
   cy="0" />
    <path
   class="europe-bown__fill8"
   d="m 16323,9516 c -84,24 -134,108 -112,187 23,80 109,125 193,101 84,-24 134,-108 112,-187 -23,-80 -109,-125 -193,-101 z"
   id="path29" />
   </g><path
   class="europe-bown__fill6 face"
   d="m 15956,8701 c 62,-28 159,-78 313,-119 155,-42 367,-75 533,-71 166,5 286,48 390,105 104,57 192,128 221,139 29,11 0,-38 -85,-129 -85,-91 -227,-223 -427,-281 -200,-57 -458,-40 -675,-21 -217,19 -392,40 -475,105 -82,65 -72,173 -41,233 31,60 81,72 119,74 38,2 64,-6 126,-34 z"
   id="europe-brown__eyebrow-right"
   style="opacity:1" /><path
   class="europe-bown__fill1 face"
   d="m 18068,10938 c -49,-16 -116,-9 -206,34 -201,96 -513,375 -689,634 -35,52 -585,1393 -589,1409 171,-128 339,-268 489,-417 457,-454 750,-984 990,-1647 z"
   id="europe-brown__cheek-right"
   style="opacity:1" /><path
   class="europe-bown__fill9 face"
   d="m 15566,7254 c -409,166 -1005,602 -1393,856 -388,254 -566,326 -753,370 -187,44 -381,61 -365,388 15,327 240,964 300,1382 60,417 -45,615 -175,716 -130,101 -285,105 -284,260 0,156 156,463 9,879 -146,416 -595,940 -886,971 -291,31 -426,-430 -667,-760 -241,-330 -588,-530 -758,-942 -170,-412 -163,-1037 -61,-1367 101,-331 297,-367 339,-654 42,-287 -70,-824 -79,-1186 -9,-363 85,-552 245,-706 160,-154 385,-274 497,-443 113,-169 113,-387 409,-741 296,-354 889,-844 1459,-1111 570,-267 1118,-311 1560,-336 443,-25 780,-33 1051,-6 270,27 474,89 577,242 103,153 107,398 156,454 49,56 144,-76 362,-157 218,-81 559,-110 904,72 345,182 693,574 1055,1147 361,574 735,1329 755,1935 20,606 -314,1064 -300,1478 15,414 378,784 329,1111 -49,327 -510,610 -565,804 -54,194 298,300 226,597 -71,298 -566,788 -957,895 -390,107 -677,-168 -829,-460 -152,-292 -171,-600 -215,-764 -44,-164 -115,-185 -76,-397 38,-213 186,-618 212,-897 26,-279 -68,-431 -32,-644 36,-212 203,-485 167,-659 -36,-174 -275,-250 -340,-456 -65,-205 43,-539 21,-692 -22,-152 -175,-123 -284,-167 -109,-44 -174,-160 -258,-254 -84,-94 -185,-167 -272,-283 -87,-116 -160,-276 -307,-408 -147,-132 -368,-235 -777,-69 z"
   id="europe-brown__hair"
   style="opacity:1" /><path
   class="europe-bown__fill10 face"
   d="m 16951,7070 c -15,22 15,254 102,403 87,149 232,214 385,312 152,98 312,229 374,414 62,185 25,425 7,545 -18,120 -18,120 40,33 58,-87 174,-261 232,-436 58,-174 58,-349 -44,-483 -102,-134 -305,-229 -483,-294 -178,-65 -330,-102 -436,-214 -105,-113 -163,-301 -178,-280 z"
   id="europe-brown__strand-five"
   style="opacity:1" /><path
   class="europe-bown__fill10 face"
   d="m 19345,10772 c 67,98 78,189 24,280 -54,91 -174,182 -290,263 -116,82 -229,154 -260,274 -31,120 20,287 98,408 78,122 183,198 234,290 51,93 47,201 7,314 -40,113 -116,229 -182,330 -65,102 -120,189 -122,116 -2,-73 49,-305 44,-474 -5,-169 -67,-274 -172,-383 -105,-109 -254,-221 -312,-347 -58,-125 -25,-263 40,-370 65,-107 163,-183 283,-251 120,-67 261,-125 350,-171 89,-45 125,-78 127,-142 1,-64 -32,-161 -69,-241 -36,-80 -75,-143 -33,-123 42,21 166,126 233,224 z"
   id="europe-brown__strand-one"
   style="opacity:1" /><path
   class="europe-bown__fill10 face"
   d="m 16867,6066 c 89,-47 216,-120 349,-169 133,-49 270,-74 417,2 147,76 303,254 425,405 122,151 209,274 305,309 96,34 201,-20 254,-47 53,-27 53,-27 9,-29 -44,-2 -131,-5 -212,-78 -82,-73 -158,-214 -247,-365 -89,-151 -191,-310 -290,-390 -100,-80 -198,-80 -327,-40 -129,40 -289,120 -439,209 -151,89 -292,187 -338,225 -45,38 5,16 94,-31 z"
   id="europe-brown__strand-four"
   style="opacity:1" /><path
   class="europe-bown__fill10 face"
   d="m 16038,6068 c -27,-134 -94,-350 -184,-449 -89,-99 -201,-80 -331,-108 -130,-29 -280,-106 -465,-88 -185,18 -407,129 -542,292 -136,163 -185,376 -129,397 56,20 217,-153 386,-241 169,-88 345,-92 472,-76 127,15 206,49 282,88 77,39 151,83 144,115 -7,32 -96,51 -179,65 -83,15 -159,25 -258,79 -99,55 -222,155 -300,281 -79,126 -114,279 -60,314 54,36 197,-46 353,-117 156,-71 326,-132 459,-117 133,15 231,107 253,76 23,-31 -29,-183 -25,-249 4,-66 64,-46 101,-61 37,-15 50,-67 24,-201 z"
   id="europe-brown__strand-three"
   style="opacity:1" /><g
   id="europe-brown__eye-left"
   style="opacity:1"
   class="face">
    <path
   class="europe-bown__fill4"
   d="m 14358,10159 c -19,29 -75,83 -164,123 -89,40 -211,66 -331,62 -120,-4 -238,-39 -325,-91 -88,-52 -145,-122 -181,-199 -36,-77 -50,-163 -29,-171 21,-9 77,59 152,117 76,59 171,108 259,138 88,30 170,41 244,46 74,5 141,5 200,-6 59,-11 109,-32 143,-42 34,-9 51,-7 32,22 z"
   id="path47" />
    <path
   class="europe-bown__fill4"
   d="m 14586,9589 c -26,-70 -71,-138 -128,-192 -57,-53 -126,-91 -222,-117 -96,-26 -218,-38 -315,-31 -97,8 -169,36 -239,70 -70,35 -139,76 -192,121 -53,45 -90,95 -118,133 -28,38 -48,65 -60,79 -12,14 -18,15 -24,-6 -6,-21 -14,-65 23,-136 36,-71 116,-169 181,-242 66,-73 117,-120 228,-149 110,-30 278,-42 422,-23 144,19 263,69 345,111 82,42 128,77 164,156 36,79 61,202 62,280 1,79 -23,113 -41,132 -18,19 -31,23 -41,-11 -10,-34 -18,-106 -44,-176 z"
   id="path49" />
    <path
   class="europe-bown__fill5"
   d="m 14628,9802 c 2,-62 2,-139 -30,-218 -32,-79 -96,-161 -208,-222 -112,-62 -273,-104 -417,-101 -143,3 -270,50 -374,138 -104,88 -187,216 -233,281 -47,65 -58,66 -24,117 34,51 113,151 201,222 88,71 184,113 287,142 103,28 212,43 322,28 109,-15 219,-60 296,-103 78,-43 124,-84 149,-129 25,-44 28,-92 30,-154 z"
   id="path51" />
    <path
   class="europe-bown__fill6"
   d="m 14629,9757 c 3,-18 7,-94 -28,-181 -35,-87 -109,-185 -187,-244 -77,-60 -157,-81 -244,-94 -87,-13 -180,-16 -245,-11 -65,5 -101,17 -143,31 -42,13 -91,27 -127,32 -36,5 -59,0 -94,-16 -35,-15 -81,-41 -103,-71 -22,-31 -21,-66 -25,-67 -4,-1 -13,34 -2,71 11,37 41,77 65,100 24,23 42,30 50,37 8,7 7,16 -7,24 -14,9 -41,18 -79,21 -38,3 -87,1 -127,-14 -39,-14 -69,-40 -84,-53 -15,-13 -15,-13 -5,1 10,14 30,41 65,64 35,24 85,45 115,55 30,10 39,10 40,16 0,6 -9,19 -19,31 -10,12 -22,23 -49,28 -27,6 -68,6 -108,-5 -40,-11 -77,-34 -99,-51 -22,-17 -29,-28 -26,-20 3,8 15,34 47,61 33,27 86,53 115,66 30,13 36,12 36,17 0,4 -8,13 -21,22 -14,8 -34,16 -67,16 -33,0 -78,-9 -110,-26 -32,-17 -52,-42 -62,-54 -10,-12 -10,-12 -1,2 9,15 26,44 47,71 22,27 48,53 77,76 30,23 63,43 81,50 18,7 19,0 37,-28 18,-28 52,-76 92,-128 40,-51 86,-105 140,-147 53,-42 115,-72 169,-95 54,-23 102,-39 150,-49 48,-10 97,-13 158,-8 61,5 134,19 197,38 63,20 114,45 158,79 43,34 78,77 105,115 27,38 47,72 64,99 17,28 33,50 41,82 8,32 9,74 12,56 z"
   id="path53" />
    <ellipse
   class="europe-bown__fill7"
   transform="matrix(0.613188,0.149291,-0.149291,0.613188,13989.8,9743.39)"
   rx="607"
   ry="574"
   id="ellipse55"
   cx="0"
   cy="0" />
    <path
   class="europe-bown__fill6"
   d="m 14550,10015 c -71,41 -142,82 -208,111 -66,29 -128,46 -213,50 -85,4 -192,-5 -284,-27 -92,-21 -168,-54 -234,-95 -66,-41 -121,-90 -159,-130 -38,-40 -59,-72 -75,-92 -16,-20 -26,-27 -46,-29 -20,-1 -50,4 -77,20 -27,16 -52,44 -77,72 44,-15 89,-30 120,-30 31,0 48,15 41,35 -7,20 -39,44 -58,63 -19,18 -25,31 -30,43 39,-27 78,-54 118,-51 40,3 80,37 91,56 12,20 -5,25 -25,40 -20,14 -43,38 -66,61 44,-20 89,-40 132,-38 44,2 88,25 121,42 33,17 57,28 58,42 1,15 -20,33 -37,54 -17,21 -31,45 -45,69 60,-31 120,-63 185,-69 65,-7 135,11 223,16 88,5 192,-2 286,-40 94,-37 176,-105 259,-173 z"
   id="path57" />
    <ellipse
   class="europe-bown__fill6"
   transform="matrix(0.254004,0.0618415,-0.0618415,0.254004,13985.5,9739.39)"
   rx="607"
   ry="574"
   id="ellipse59"
   cx="0"
   cy="0" />
    <path
   class="europe-bown__fill8"
   d="m 13924,9473 c 85,21 138,103 119,183 -20,81 -105,129 -190,108 -85,-21 -138,-103 -119,-183 20,-81 105,-129 190,-108 z"
   id="path61" />
   </g><path
   class="europe-bown__fill6 face"
   d="m 14638,8741 c -62,-28 -159,-78 -313,-119 -155,-42 -367,-75 -533,-71 -166,5 -286,48 -390,105 -104,57 -192,128 -221,139 -29,11 0,-38 85,-129 85,-91 227,-223 339,-297 112,-74 196,-89 359,-75 164,14 409,57 573,99 165,42 249,84 290,133 41,49 38,106 18,151 -20,45 -57,77 -89,89 -32,12 -58,5 -119,-24 z"
   id="europe-brown__eyebrow-left"
   style="opacity:1" /><path
   class="europe-bown__fill10 face"
   d="m 12368,8920 c 62,113 229,606 243,944 14,338 -125,521 -226,646 -101,125 -165,192 -131,403 34,210 165,563 121,848 -44,285 -264,502 -373,611 -110,109 -110,109 -37,-51 73,-160 218,-479 214,-744 -4,-265 -156,-476 -209,-677 -53,-202 -6,-395 89,-533 94,-138 236,-221 300,-382 64,-161 49,-401 20,-655 -29,-254 -73,-523 -11,-410 z"
   id="europe-brown__strand-two"
   style="opacity:1" />
 </g>
</svg>
