<?xml version="1.0" encoding="UTF-8"?>
<!DOCTYPE svg PUBLIC "-//W3C//DTD SVG 1.0//EN" "http://www.w3.org/TR/2001/REC-SVG-20010904/DTD/svg10.dtd">
<!-- Creator: CorelDRAW 2017 -->
<svg xmlns="http://www.w3.org/2000/svg" xml:space="preserve" width="162.56mm" height="91.4398mm" version="1.0" style="shape-rendering:geometricPrecision; text-rendering:geometricPrecision; image-rendering:optimizeQuality; fill-rule:evenodd; clip-rule:evenodd"
viewBox="0 0 16256 9144"
 xmlns:xlink="http://www.w3.org/1999/xlink">
 <defs>
  <style type="text/css">
   <![CDATA[
    .fil0 {fill:#FEFEFE}
    .fil1 {fill:#F6DAD6}
    .fil3 {fill:#E4B9AF}
    .fil4 {fill:#E2A59A}
    .fil7 {fill:#593A1B}
    .fil12 {fill:#7688A1}
    .fil6 {fill:#1F130D}
    .fil9 {fill:#2F1C16}
    .fil10 {fill:#6D5346}
    .fil11 {fill:#7688A1;fill-rule:nonzero}
    .fil8 {fill:#FEFEFE;fill-opacity:0.501961}
    .fil2 {fill:#E4B9AF;fill-opacity:0.501961}
    .fil5 {fill:#D7ACA6;fill-opacity:0.501961}
   ]]>
  </style>
 </defs>
 <g id="Warstwa_x0020_1">
  <metadata id="CorelCorpID_0Corel-Layer"/>
  <rect class="fil0" width="16256" height="9144"/>
  <g id="_1552418977296">
   <path class="fil1" d="M9416 3854c81,175 140,427 129,725 -11,298 -92,642 -195,929 -104,287 -230,516 -428,713 -198,196 -467,359 -635,433 -168,74 -233,58 -404,-31 -171,-89 -447,-252 -648,-525 -201,-273 -328,-655 -382,-1007 -54,-352 -35,-673 26,-938 61,-265 163,-474 324,-627 162,-153 382,-250 633,-284 250,-34 530,-6 751,45 221,51 382,125 514,210 132,85 234,182 315,357z"/>
   <path class="fil2" d="M7542 6409c-107,-83 -215,-185 -308,-310 -119,-161 -212,-360 -279,-569 20,-20 56,-26 112,0 87,42 222,162 298,274 76,112 93,216 112,310 19,94 41,178 55,241 4,20 8,38 10,53z"/>
   <path class="fil3" d="M8202 4987c6,69 24,169 40,242 17,72 32,117 66,158 34,41 88,78 72,132 -16,54 -103,125 -155,163 -52,38 -71,44 -127,10 -56,-34 -149,-108 -172,-163 -24,-55 22,-92 55,-132 33,-41 55,-86 69,-151 14,-65 21,-150 24,-221 3,-71 2,-128 24,-156 22,-28 67,-26 86,-7 19,19 12,56 18,125z"/>
   <path class="fil4" d="M8314 5944c-38,-11 -66,-24 -89,-26 -23,-2 -43,8 -57,15 -6,3 -11,6 -16,8 -4,-2 -8,-4 -12,-6 -15,-7 -34,-17 -57,-15 -23,2 -51,14 -89,26 -51,15 -120,36 -171,48 -15,3 -34,3 -40,9 -18,20 38,3 48,60 17,99 112,174 317,171 224,-3 247,-79 323,-184 15,-21 58,-44 53,-50 -5,-6 -25,-6 -40,-9 -49,-11 -124,-34 -171,-48zm-211 92c43,3 63,2 108,-2 -21,14 -38,35 -53,35 -18,0 -33,-20 -56,-33z"/>
   <g>
    <path class="fil5" d="M8527 5159c9,12 34,35 73,51 39,16 92,25 144,22 52,-4 102,-20 139,-44 37,-24 61,-55 75,-89 14,-34 19,-71 10,-75 -9,-3 -32,27 -64,53 -32,26 -72,49 -110,64 -38,14 -73,20 -105,24 -32,3 -61,4 -86,1 -26,-4 -48,-12 -63,-16 -15,-4 -22,-2 -14,10z"/>
    <path class="fil5" d="M8429 4915c10,-31 29,-61 52,-85 24,-24 53,-41 94,-54 41,-13 94,-20 136,-18 42,2 74,13 104,27 31,14 61,31 85,49 24,19 40,39 53,56 13,16 22,28 27,33 6,6 8,6 10,-3 2,-9 5,-28 -12,-58 -17,-30 -53,-71 -82,-102 -30,-30 -53,-50 -101,-61 -48,-11 -121,-14 -183,-3 -62,10 -112,34 -147,53 -35,20 -54,35 -68,70 -14,35 -23,88 -22,122 1,34 12,49 20,56 8,8 14,9 18,-6 4,-15 6,-46 16,-77z"/>
    <path class="fil0" d="M8414 5008c-2,-27 -3,-60 10,-95 13,-35 39,-71 86,-99 48,-28 116,-49 179,-50 62,-1 117,17 164,54 46,36 84,90 105,118 21,27 26,28 12,50 -14,22 -47,67 -83,99 -37,32 -78,52 -122,66 -44,14 -91,22 -139,17 -48,-5 -95,-22 -130,-40 -34,-17 -55,-34 -67,-53 -11,-19 -14,-39 -15,-66z"/>
    <path class="fil6" d="M8413 4989c-1,-8 -4,-41 9,-79 14,-38 44,-82 77,-109 32,-27 67,-38 104,-44 37,-7 78,-10 106,-9 28,1 44,6 62,11 18,5 40,10 55,12 16,1 25,-1 40,-8 15,-7 34,-19 43,-32 9,-14 8,-29 10,-29 2,0 6,14 2,31 -4,16 -17,34 -27,44 -10,10 -18,13 -21,17 -3,3 -3,7 3,10 6,4 18,7 34,8 16,1 38,-1 55,-8 17,-7 29,-18 35,-24 6,-6 6,-6 2,0 -4,6 -12,18 -27,29 -15,11 -36,21 -49,26 -13,5 -17,5 -17,7 0,3 4,8 9,13 5,5 10,9 22,11 12,2 30,2 47,-4 17,-5 33,-16 42,-23 9,-8 12,-12 11,-9 -1,3 -6,15 -20,27 -14,12 -36,24 -49,30 -13,6 -16,6 -15,8 0,2 3,6 10,9 6,3 15,7 29,6 14,-1 34,-5 47,-13 14,-8 22,-19 26,-24 4,-6 4,-6 1,1 -4,6 -10,19 -19,32 -9,12 -20,24 -32,34 -13,10 -27,20 -34,23 -7,3 -8,0 -16,-11 -8,-12 -24,-32 -42,-54 -18,-22 -39,-44 -63,-61 -24,-17 -51,-29 -74,-38 -24,-9 -45,-15 -66,-19 -21,-3 -42,-4 -68,-1 -26,3 -58,10 -85,20 -27,9 -49,21 -67,37 -18,15 -32,34 -44,51 -11,17 -19,32 -26,44 -7,12 -13,22 -16,36 -3,14 -3,32 -4,24z"/>
    <ellipse class="fil7" transform="matrix(-0.262702 0.0741753 0.0741753 0.262702 8688.91 4972.43)" rx="607" ry="574"/>
    <path class="fil6" d="M8451 5099c31,17 63,33 92,45 29,11 56,18 93,18 37,0 83,-5 122,-16 39,-11 72,-26 99,-45 28,-19 51,-41 67,-59 16,-18 24,-32 31,-41 6,-9 11,-12 19,-13 9,-1 22,1 34,7 12,7 23,18 34,30 -19,-6 -39,-12 -52,-11 -13,0 -20,7 -17,16 3,8 18,18 26,26 8,8 11,13 14,18 -17,-11 -35,-22 -52,-20 -17,2 -34,17 -39,26 -5,9 3,11 12,17 9,6 19,16 29,25 -19,-8 -39,-16 -58,-14 -19,1 -37,12 -52,20 -14,8 -24,13 -24,19 0,6 9,14 17,23 8,9 14,19 20,29 -26,-13 -53,-25 -81,-27 -28,-2 -58,7 -96,11 -38,4 -83,2 -124,-13 -41,-15 -78,-43 -115,-71z"/>
    <ellipse class="fil6" transform="matrix(-0.10882 0.030726 0.030726 0.10882 8690.74 4970.63)" rx="607" ry="574"/>
    <path class="fil8" d="M8597 4887c-36,10 -58,47 -48,81 10,34 47,54 84,44 36,-10 58,-47 48,-81 -10,-34 -47,-54 -84,-44z"/>
   </g>
   <path class="fil6" d="M8438 4535c27,-12 69,-34 136,-52 67,-18 159,-33 231,-31 72,2 124,21 169,45 45,25 83,55 96,60 13,5 0,-17 -37,-56 -37,-39 -98,-97 -185,-121 -87,-25 -198,-17 -292,-9 -94,8 -170,17 -205,45 -36,28 -31,75 -18,101 13,26 35,31 52,32 17,1 28,-2 55,-15z"/>
   <path class="fil2" d="M9352 5503c-21,-7 -50,-4 -89,15 -87,42 -222,162 -298,274 -15,22 -253,603 -255,610 74,-55 147,-116 212,-181 198,-196 324,-426 428,-713l2 -6z"/>
   <path class="fil9" d="M8269 3909c-177,72 -435,261 -602,370 -168,110 -245,141 -326,160 -81,19 -165,26 -158,168 7,141 104,417 130,598 26,181 -19,266 -76,310 -56,44 -123,45 -123,112 0,67 67,200 4,380 -63,180 -257,406 -383,420 -126,14 -184,-186 -288,-329 -104,-143 -254,-229 -328,-408 -74,-178 -70,-448 -27,-591 44,-143 129,-159 147,-283 18,-124 -30,-356 -34,-513 -4,-157 37,-239 106,-305 69,-67 166,-119 215,-192 49,-73 49,-167 177,-320 128,-153 384,-365 631,-480 247,-115 483,-134 675,-145 191,-11 337,-14 454,-2 117,12 205,38 250,105 45,66 46,172 67,196 21,24 62,-33 156,-68 94,-35 242,-47 391,31 149,79 300,248 456,496 156,248 318,575 327,837 9,262 -136,460 -130,639 6,179 163,339 142,480 -21,141 -221,264 -244,348 -24,84 129,130 98,258 -31,129 -245,341 -414,387 -169,46 -293,-73 -358,-199 -66,-126 -74,-260 -93,-331 -19,-71 -50,-80 -33,-172 17,-92 80,-267 92,-388 11,-121 -29,-187 -14,-278 16,-92 88,-210 72,-285 -16,-75 -119,-108 -147,-197 -28,-89 18,-233 9,-299 -10,-66 -76,-53 -123,-72 -47,-19 -75,-69 -111,-110 -36,-41 -80,-72 -118,-122 -38,-50 -69,-119 -133,-176 -64,-57 -159,-102 -336,-30z"/>
   <path class="fil10" d="M8869 3829c-6,9 6,110 44,174 38,64 101,93 166,135 66,42 135,99 162,179 27,80 11,184 3,236 -8,52 -8,52 17,14 25,-38 75,-113 100,-188 25,-75 25,-151 -19,-209 -44,-58 -132,-99 -209,-127 -77,-28 -143,-44 -188,-93 -46,-49 -71,-130 -77,-121z"/>
   <path class="fil10" d="M9904 5431c29,42 34,82 10,121 -24,39 -75,79 -126,114 -50,35 -99,67 -112,119 -13,52 9,124 42,177 34,53 79,86 101,126 22,40 20,87 3,136 -17,49 -50,99 -79,143 -28,44 -52,82 -53,50 -1,-31 21,-132 19,-205 -2,-73 -29,-119 -75,-166 -46,-47 -110,-96 -135,-150 -25,-54 -11,-114 17,-160 28,-46 71,-79 122,-108 52,-29 113,-54 152,-74 38,-20 54,-34 55,-62 1,-28 -14,-69 -30,-104 -16,-35 -33,-62 -14,-53 18,9 72,55 101,97z"/>
   <path class="fil10" d="M8832 3395c38,-20 93,-52 151,-73 57,-21 117,-32 181,1 64,33 131,110 184,175 53,65 90,119 132,133 42,15 87,-9 110,-20 23,-12 23,-12 4,-13 -19,-1 -57,-2 -92,-34 -35,-31 -68,-93 -107,-158 -38,-65 -82,-134 -126,-169 -43,-35 -86,-35 -141,-17 -56,17 -125,52 -190,90 -65,38 -126,81 -146,97 -20,16 2,7 41,-13z"/>
   <path class="fil10" d="M8474 3396c-12,-58 -41,-152 -79,-194 -39,-43 -87,-34 -143,-47 -56,-12 -121,-46 -201,-38 -80,8 -176,56 -235,126 -59,70 -80,163 -56,172 24,9 94,-66 167,-104 73,-38 149,-40 204,-33 55,7 89,21 122,38 33,17 65,36 62,50 -3,14 -42,22 -77,28 -36,6 -69,11 -112,34 -43,24 -96,67 -130,121 -34,55 -49,121 -26,136 23,15 85,-20 153,-51 68,-31 141,-57 199,-51 58,7 100,46 110,33 10,-13 -13,-79 -11,-108 2,-29 28,-20 44,-27 16,-7 22,-29 10,-87z"/>
   <g>
    <path class="fil5" d="M7747 5166c-8,12 -32,36 -71,53 -38,17 -91,29 -143,27 -52,-2 -103,-17 -141,-39 -38,-23 -63,-53 -78,-86 -16,-34 -22,-70 -13,-74 9,-4 33,25 66,51 33,25 74,47 112,60 38,13 73,18 105,20 32,2 61,2 86,-2 25,-5 47,-14 62,-18 15,-4 22,-3 14,9z"/>
    <path class="fil5" d="M7846 4919c-11,-30 -31,-60 -55,-83 -25,-23 -55,-39 -96,-51 -41,-11 -94,-17 -136,-13 -42,3 -73,15 -103,30 -30,15 -60,33 -83,52 -23,20 -39,41 -51,57 -12,17 -21,28 -26,34 -5,6 -8,6 -10,-3 -3,-9 -6,-28 10,-59 16,-31 50,-73 78,-105 28,-31 51,-52 98,-65 48,-13 120,-18 183,-10 62,8 114,30 149,48 36,18 56,33 71,67 15,34 26,87 27,121 0,34 -10,49 -18,57 -8,8 -13,10 -18,-5 -4,-15 -8,-46 -19,-76z"/>
    <path class="fil0" d="M7864 5011c1,-27 1,-60 -13,-94 -14,-34 -41,-69 -90,-96 -49,-27 -118,-45 -180,-44 -62,1 -117,22 -162,60 -45,38 -81,93 -101,121 -20,28 -25,29 -10,51 15,22 49,65 87,96 38,31 80,49 124,61 44,12 92,19 139,12 47,-7 95,-26 128,-45 34,-19 54,-36 65,-56 11,-19 12,-40 13,-67z"/>
    <path class="fil6" d="M7864 4992c1,-8 3,-41 -12,-78 -15,-38 -47,-80 -81,-106 -33,-26 -68,-35 -106,-41 -38,-5 -78,-7 -106,-5 -28,2 -44,7 -62,13 -18,6 -39,12 -55,14 -16,2 -26,0 -40,-7 -15,-7 -35,-18 -45,-31 -10,-13 -9,-29 -11,-29 -2,0 -6,15 -1,31 5,16 18,33 28,43 10,10 18,13 22,16 4,3 3,7 -3,11 -6,4 -18,8 -34,9 -16,1 -38,0 -55,-6 -17,-6 -30,-17 -36,-23 -6,-6 -6,-6 -2,0 4,6 13,18 28,28 15,10 37,19 50,24 13,4 17,4 17,7 0,3 -4,8 -8,13 -4,5 -10,10 -21,12 -12,2 -30,3 -47,-2 -17,-5 -33,-15 -43,-22 -10,-7 -12,-12 -11,-9 1,3 6,15 21,26 14,11 37,23 50,29 13,6 16,5 16,7 0,2 -3,6 -9,9 -6,4 -15,7 -29,7 -14,0 -34,-4 -48,-11 -14,-7 -23,-18 -27,-23 -4,-5 -4,-5 -1,1 4,6 11,19 21,31 9,12 21,23 33,33 13,10 27,19 35,22 8,3 8,0 16,-12 8,-12 23,-33 40,-55 17,-22 37,-46 60,-64 23,-18 50,-31 73,-41 24,-10 44,-17 65,-21 21,-4 42,-6 68,-3 26,2 58,8 85,17 27,8 49,19 68,34 19,15 34,33 45,50 12,17 20,31 28,43 8,12 14,22 18,35 3,14 4,32 5,24z"/>
    <ellipse class="fil7" transform="matrix(0.265225 0.0645736 -0.0645736 0.265225 7587.67 4985.77)" rx="607" ry="574"/>
    <path class="fil6" d="M7830 5103c-31,18 -61,35 -90,48 -29,13 -55,20 -92,21 -37,2 -83,-2 -123,-12 -40,-9 -73,-23 -101,-41 -28,-18 -52,-39 -69,-56 -17,-17 -26,-31 -32,-40 -7,-8 -11,-12 -20,-12 -9,-1 -22,2 -33,9 -12,7 -22,19 -33,31 19,-6 38,-13 52,-13 13,0 21,6 18,15 -3,9 -17,19 -25,27 -8,8 -11,13 -13,18 17,-12 34,-23 51,-22 17,1 35,16 40,24 5,8 -2,11 -11,17 -9,6 -19,16 -29,26 19,-9 38,-17 57,-17 19,1 38,11 52,18 14,7 24,12 25,18 0,6 -9,14 -16,23 -8,9 -13,20 -19,30 26,-14 52,-27 80,-30 28,-3 58,5 96,7 38,2 83,-1 124,-17 41,-16 76,-45 112,-75z"/>
    <ellipse class="fil6" transform="matrix(0.109866 0.0267486 -0.0267486 0.109866 7585.78 4984.04)" rx="607" ry="574"/>
    <path class="fil8" d="M7559 4869c37,9 60,44 51,79 -8,35 -45,56 -82,47 -37,-9 -60,-44 -51,-79 8,-35 45,-56 82,-47z"/>
   </g>
   <path class="fil6" d="M7868 4552c-27,-12 -69,-34 -136,-52 -67,-18 -159,-33 -231,-31 -72,2 -124,21 -169,45 -45,25 -83,55 -96,60 -13,5 0,-17 37,-56 37,-39 98,-97 147,-129 49,-32 85,-39 155,-33 71,6 177,25 248,43 71,18 108,36 126,58 18,21 16,46 8,65 -9,19 -25,33 -38,39 -14,5 -25,2 -52,-10z"/>
   <path class="fil10" d="M6886 4630c27,49 99,262 105,409 6,146 -54,225 -98,279 -44,54 -71,83 -57,174 15,91 71,244 52,367 -19,123 -114,217 -162,264 -47,47 -47,47 -16,-22 31,-69 94,-207 93,-322 -2,-115 -68,-206 -90,-293 -23,-87 -2,-171 38,-230 41,-60 102,-96 130,-165 28,-70 21,-173 9,-283 -13,-110 -31,-226 -5,-177z"/>
  </g>
  <path class="fil11" d="M4623 1012c0,0 43,54 121,54 74,0 117,-47 117,-103 0,-115 -165,-103 -165,-163 0,-22 22,-38 51,-38 23,0 46,11 46,27l0 16 58 0 0 -33c0,-50 -63,-69 -104,-69 -68,0 -117,42 -117,99 0,109 165,104 165,164 0,27 -24,41 -50,41 -49,0 -85,-41 -85,-41l-37 45zm99 -325l46 0 52 -67 -60 0 -38 67zm200 374l62 0 0 -100c0,-15 2,-29 5,-41 11,-38 42,-53 69,-53 9,0 15,1 15,1l0 -62c0,0 -6,-1 -11,-1 -39,0 -69,29 -80,65l-1 0c0,0 1,-6 1,-16l0 -15c0,-21 -11,-31 -34,-31l-57 0 0 53 20 0c7,0 11,3 11,11l0 188zm169 -126c0,78 61,132 138,132 77,0 138,-54 138,-132 0,-77 -61,-132 -138,-132 -77,0 -138,55 -138,132zm63 0c0,-46 34,-79 75,-79 41,0 75,32 75,79 0,47 -34,79 -75,79 -41,0 -75,-32 -75,-79zm244 0c0,78 44,132 112,132 58,0 79,-41 79,-41l1 0c0,0 0,4 0,9 0,15 8,26 31,26l58 0 0 -53 -19 0c-7,0 -11,-4 -11,-11l0 -253c0,-23 -10,-34 -34,-34l-60 0 0 53 20 0c7,0 11,3 11,11l0 44c0,8 0,15 0,15l-1 0c0,0 -18,-31 -73,-31 -67,0 -115,52 -115,132zm126 79c-37,0 -62,-31 -62,-79 0,-50 29,-78 63,-78 42,0 62,39 62,78 0,56 -31,80 -63,80zm204 47l63 0 0 -110 14 0c8,0 18,1 23,9l42 79c10,18 18,22 40,22l46 0 0 -53 -17 0c-12,0 -17,-2 -21,-9l-29 -54c-9,-16 -18,-20 -18,-20l0 -1c0,0 8,-4 19,-20l64 -95 -70 0 -51 80c-5,8 -16,9 -24,9l-19 0 0 -159c0,-23 -10,-29 -34,-29l-60 0 0 53 20 0c7,0 11,3 11,11l0 286zm246 -126c0,78 61,132 138,132 77,0 138,-54 138,-132 0,-77 -61,-132 -138,-132 -77,0 -138,55 -138,132zm63 0c0,-46 34,-79 75,-79 41,0 75,32 75,79 0,47 -34,79 -75,79 -41,0 -75,-32 -75,-79zm310 126l71 0 42 -144c4,-13 6,-27 6,-27l1 0c0,0 2,14 6,27l43 144 71 0 60 -190c3,-7 6,-9 14,-9l7 0 0 -53 -43 0c-21,0 -31,6 -36,26l-37 140c-3,13 -5,27 -5,27l-1 0c0,0 -1,-13 -5,-27l-47 -164 -55 0 -46 164c-4,13 -6,27 -6,27l-1 0c0,0 -1,-13 -5,-27l-37 -140c-5,-19 -15,-26 -36,-26l-43 0 0 53 7 0c7,0 11,1 14,9l60 190zm337 -126c0,78 61,132 138,132 77,0 138,-54 138,-132 0,-77 -61,-132 -138,-132 -77,0 -138,55 -138,132zm63 0c0,-46 34,-79 75,-79 41,0 75,32 75,79 0,47 -34,79 -75,79 -41,0 -75,-32 -75,-79zm244 0c0,72 52,132 135,132 63,0 101,-38 101,-38l-26 -43c0,0 -30,28 -71,28 -38,0 -71,-23 -76,-68l174 0c0,0 1,-16 1,-23 0,-67 -40,-120 -112,-120 -76,0 -128,54 -128,132zm66 -33c7,-32 30,-51 62,-51 26,0 46,21 47,51l-109 0zm233 69c0,69 33,96 87,96 43,0 75,-26 87,-52l1 0c0,0 -1,5 -1,11l0 7c0,18 11,28 33,28l58 0 0 -53 -20 0c-7,0 -11,-4 -11,-11l0 -188 -63 0 0 116c0,45 -25,85 -71,85 -31,0 -39,-21 -39,-51l0 -116c0,-23 -10,-33 -33,-33l-60 0 0 53 20 0c7,0 11,3 11,11l0 98zm316 90l62 0 0 -100c0,-15 2,-29 5,-41 11,-38 42,-53 69,-53 9,0 15,1 15,1l0 -62c0,0 -6,-1 -11,-1 -39,0 -69,29 -80,65l-1 0c0,0 1,-6 1,-16l0 -15c0,-21 -11,-31 -34,-31l-57 0 0 53 20 0c7,0 11,3 11,11l0 188zm169 -126c0,78 61,132 138,132 77,0 138,-54 138,-132 0,-77 -61,-132 -138,-132 -77,0 -138,55 -138,132zm63 0c0,-46 34,-79 75,-79 41,0 75,32 75,79 0,47 -34,79 -75,79 -41,0 -75,-32 -75,-79zm270 225l62 0 0 -104c0,-13 -1,-22 -1,-22l1 0c0,0 22,33 72,33 66,0 116,-52 116,-132 0,-78 -44,-132 -112,-132 -59,0 -80,40 -80,40l-1 0c0,0 0,-4 0,-10 0,-14 -8,-24 -32,-24l-56 0 0 53 20 0c7,0 11,3 11,11l0 286zm61 -223c0,-56 31,-80 63,-80 37,0 63,31 63,79 0,50 -29,78 -64,78 -41,0 -62,-39 -62,-78zm221 -1c0,72 52,132 135,132 63,0 101,-38 101,-38l-26 -43c0,0 -30,28 -71,28 -38,0 -71,-23 -76,-68l174 0c0,0 1,-16 1,-23 0,-67 -40,-120 -112,-120 -76,0 -128,54 -128,132zm66 -33c7,-32 30,-51 62,-51 26,0 46,21 47,51l-109 0zm247 -134l55 0 0 -58 -55 0 0 58zm-64 341l0 53c0,0 7,1 19,1 35,0 105,-10 105,-95l0 -226c0,-23 -10,-34 -34,-34l-60 0 0 53 20 0c7,0 11,3 11,11l0 190c0,41 -33,46 -50,46 -6,0 -11,-1 -11,-1zm172 -87c0,0 36,45 105,45 55,0 97,-30 97,-77 0,-84 -134,-76 -134,-116 0,-15 15,-23 38,-23 14,0 32,6 32,18l0 12 55 0 0 -26c0,-41 -54,-52 -88,-52 -52,0 -98,23 -98,74 0,81 133,81 133,117 0,17 -15,25 -34,25 -43,0 -75,-37 -75,-37l-30 41zm258 39l63 0 0 -110 14 0c8,0 18,1 23,9l42 79c10,18 18,22 40,22l46 0 0 -53 -17 0c-12,0 -17,-2 -21,-9l-29 -54c-9,-16 -18,-20 -18,-20l0 -1c0,0 8,-4 19,-20l64 -95 -70 0 -51 80c-5,8 -16,9 -24,9l-19 0 0 -159c0,-23 -10,-29 -34,-29l-60 0 0 53 20 0c7,0 11,3 11,11l0 286zm280 -293l54 0 0 -58 -54 0 0 58zm-3 259c0,24 10,34 33,34l60 0 0 -53 -20 0c-7,0 -11,-4 -11,-11l0 -155c0,-23 -10,-34 -33,-34l-60 0 0 53 20 0c7,0 11,3 11,11l0 154zm278 -59c0,84 70,95 105,95 11,0 19,-1 19,-1l0 -55c0,0 -4,1 -11,1 -17,0 -50,-6 -50,-47l0 -102 57 0 0 -50 -57 0 0 -69 -61 0 0 69 -34 0 0 50 33 0 0 110zm161 126l-24 44c0,0 24,26 64,26 38,0 73,-20 91,-66l90 -228c3,-7 7,-9 14,-9l7 0 0 -53 -42 0c-17,0 -28,6 -34,24l-43 126c-4,13 -8,34 -8,34l-1 0c0,0 -4,-21 -9,-34l-49 -126c-6,-17 -15,-24 -33,-24l-41 0 0 53 7 0c7,0 10,1 13,9l84 189 -8 19c-9,22 -24,32 -41,32 -21,0 -36,-17 -36,-17zm289 65l62 0 0 -104c0,-13 -1,-22 -1,-22l1 0c0,0 22,33 72,33 66,0 116,-52 116,-132 0,-78 -44,-132 -112,-132 -59,0 -80,40 -80,40l-1 0c0,0 0,-4 0,-10 0,-14 -8,-24 -32,-24l-56 0 0 53 20 0c7,0 11,3 11,11l0 286zm61 -223c0,-56 31,-80 63,-80 37,0 63,31 63,79 0,50 -29,78 -64,78 -41,0 -62,-39 -62,-78zm376 35c0,69 33,96 87,96 43,0 75,-26 87,-52l1 0c0,0 -1,5 -1,11l0 7c0,18 11,28 33,28l58 0 0 -53 -20 0c-7,0 -11,-4 -11,-11l0 -188 -63 0 0 116c0,45 -25,85 -71,85 -31,0 -39,-21 -39,-51l0 -116c0,-23 -10,-33 -33,-33l-60 0 0 53 20 0c7,0 11,3 11,11l0 98zm316 90l62 0 0 -100c0,-15 2,-29 5,-41 11,-38 42,-53 69,-53 9,0 15,1 15,1l0 -62c0,0 -6,-1 -11,-1 -39,0 -69,29 -80,65l-1 0c0,0 1,-6 1,-16l0 -15c0,-21 -11,-31 -34,-31l-57 0 0 53 20 0c7,0 11,3 11,11l0 188zm169 -126c0,78 61,132 138,132 77,0 138,-54 138,-132 0,-77 -61,-132 -138,-132 -77,0 -138,55 -138,132zm63 0c0,-46 34,-79 75,-79 41,0 75,32 75,79 0,47 -34,79 -75,79 -41,0 -75,-32 -75,-79zm244 0c0,78 44,132 112,132 58,0 79,-41 79,-41l1 0c0,0 0,4 0,9 0,15 8,26 31,26l58 0 0 -53 -19 0c-7,0 -11,-4 -11,-11l0 -253c0,-23 -10,-34 -34,-34l-60 0 0 53 20 0c7,0 11,3 11,11l0 44c0,8 0,15 0,15l-1 0c0,0 -18,-31 -73,-31 -67,0 -115,52 -115,132zm126 79c-37,0 -62,-31 -62,-79 0,-50 29,-78 63,-78 42,0 62,39 62,78 0,56 -31,80 -63,80zm190 81l-24 44c0,0 24,26 64,26 38,0 73,-20 91,-66l90 -228c3,-7 7,-9 14,-9l7 0 0 -53 -42 0c-17,0 -28,6 -34,24l-43 126c-4,13 -8,34 -8,34l-1 0c0,0 -4,-21 -9,-34l-49 -126c-6,-17 -15,-24 -33,-24l-41 0 0 53 7 0c7,0 10,1 13,9l84 189 -8 19c-9,22 -24,32 -41,32 -21,0 -36,-17 -36,-17zm-5129 398c0,76 20,151 59,208l53 0c-38,-66 -57,-139 -57,-212 0,-71 18,-138 55,-201l-53 0c-39,58 -58,130 -58,205zm172 161l59 0 0 -13c0,-10 -1,-17 -1,-17l1 0c0,0 23,36 75,36 67,0 116,-52 116,-132 0,-78 -43,-132 -112,-132 -53,0 -76,35 -76,35l-1 0c0,0 1,-9 1,-21l0 -73c0,-23 -10,-34 -34,-34l-60 0 0 53 20 0c7,0 11,3 11,11l0 286zm61 -124c0,-56 31,-80 63,-80 37,0 63,31 63,79 0,50 -29,78 -63,78 -42,0 -63,-39 -63,-78zm246 124l62 0 0 -100c0,-15 2,-29 5,-41 11,-38 42,-53 69,-53 9,0 15,1 15,1l0 -62c0,0 -6,-1 -11,-1 -39,0 -69,29 -80,65l-1 0c0,0 1,-6 1,-16l0 -15c0,-21 -11,-31 -34,-31l-57 0 0 53 20 0c7,0 11,3 11,11l0 188zm164 -73c0,49 39,79 85,79 59,0 77,-44 77,-44l1 0c0,0 -1,4 -1,10l0 2c0,11 8,26 30,26l12 0 0 1c-14,11 -33,29 -33,54 0,42 61,47 61,47l15 -46c0,0 -24,-2 -24,-18 0,-14 18,-31 28,-39l0 -53 -20 0c-7,0 -11,-4 -11,-11l0 -94c0,-56 -25,-100 -109,-100 -26,0 -92,5 -92,52l0 27 58 0 0 -13c0,-14 22,-17 34,-17 32,0 46,13 46,49l0 2 -7 0c-42,0 -151,6 -151,85zm63 -3c0,-35 52,-40 84,-40l11 0 0 6c0,31 -24,66 -57,66 -26,0 -38,-16 -38,-33zm210 76l196 0c23,0 33,-10 33,-34l0 -44 -57 0 0 14c0,7 -4,11 -11,11l-55 0c-16,0 -24,1 -24,1l0 -1c0,0 10,-9 21,-23l116 -142 0 -34 -185 0c-24,0 -34,10 -34,34l0 45 57 0 0 -14c0,-7 4,-11 11,-11l45 0c16,0 23,-1 23,-1l0 1c0,0 -10,9 -21,23l-116 142 0 34zm250 -126c0,78 61,132 138,132 77,0 138,-54 138,-132 0,-77 -61,-132 -138,-132 -77,0 -138,55 -138,132zm63 0c0,-46 34,-79 75,-79 41,0 75,32 75,79 0,47 -34,79 -75,79 -41,0 -75,-32 -75,-79zm310 126l71 0 42 -144c4,-13 6,-27 6,-27l1 0c0,0 2,14 6,27l43 144 71 0 60 -190c3,-7 6,-9 14,-9l7 0 0 -53 -43 0c-21,0 -31,6 -36,26l-37 140c-3,13 -5,27 -5,27l-1 0c0,0 -1,-13 -5,-27l-47 -164 -55 0 -46 164c-4,13 -6,27 -6,27l-1 0c0,0 -1,-13 -5,-27l-37 -140c-5,-19 -15,-26 -36,-26l-43 0 0 53 7 0c7,0 11,1 14,9l60 190zm337 -126c0,72 52,132 135,132 63,0 101,-38 101,-38l-26 -43c0,0 -30,28 -71,28 -38,0 -71,-23 -76,-68l174 0c0,0 1,-16 1,-23 0,-67 -40,-120 -112,-120 -76,0 -128,54 -128,132zm66 -33c7,-32 30,-51 62,-51 26,0 46,21 47,51l-109 0zm340 33c0,78 61,132 138,132 77,0 138,-54 138,-132 0,-77 -61,-132 -138,-132 -77,0 -138,55 -138,132zm63 0c0,-46 34,-79 75,-79 41,0 75,32 75,79 0,47 -34,79 -75,79 -41,0 -75,-32 -75,-79zm244 0c0,73 53,132 136,132 69,0 106,-45 106,-45l-26 -43c0,0 -32,34 -75,34 -41,0 -79,-26 -79,-78 0,-45 31,-79 75,-79 15,0 36,6 36,20l0 14 55 0 0 -30c0,-43 -59,-57 -91,-57 -86,0 -138,61 -138,132zm263 126l196 0c23,0 33,-10 33,-34l0 -44 -57 0 0 14c0,7 -4,11 -11,11l-55 0c-16,0 -24,1 -24,1l0 -1c0,0 10,-9 21,-23l116 -142 0 -34 -185 0c-24,0 -34,10 -34,34l0 45 57 0 0 -14c0,-7 4,-11 11,-11l45 0c16,0 23,-1 23,-1l0 1c0,0 -10,9 -21,23l-116 142 0 34zm256 34l-24 44c0,0 24,26 64,26 38,0 73,-20 91,-66l90 -228c3,-7 7,-9 14,-9l7 0 0 -53 -42 0c-17,0 -28,6 -34,24l-43 126c-4,13 -8,34 -8,34l-1 0c0,0 -4,-21 -9,-34l-49 -126c-6,-17 -15,-24 -33,-24l-41 0 0 53 7 0c7,0 10,1 13,9l84 189 -8 19c-9,22 -24,32 -41,32 -21,0 -36,-17 -36,-17zm269 13l54 0c39,-57 59,-132 59,-208 0,-75 -19,-147 -58,-205l-53 0c38,63 55,130 55,201 0,73 -19,147 -57,212z"/>
  <path class="fil12" d="M5681 3698c-40,-9 -118,-34 -173,-31 -55,3 -88,34 -68,54 20,20 92,29 145,40 52,11 84,23 100,33 15,10 14,18 11,28 -2,10 -5,22 10,23 15,1 49,-8 87,-12 38,-5 81,-5 88,-20 7,-16 -22,-47 -45,-73 -23,-26 -41,-47 -53,-62 -13,-15 -20,-24 -29,-19 -9,4 -18,21 -24,32 -6,11 -8,17 -48,7z"/>
  <path class="fil11" d="M3294 3432l36 0 21 -72c2,-7 3,-14 3,-14l1 0c0,0 1,7 3,14l21 72 35 0 30 -95c1,-4 3,-4 7,-4l3 0 0 -27 -21 0c-10,0 -15,3 -18,13l-18 70c-2,7 -2,13 -2,13l0 0c0,0 -1,-7 -3,-13l-23 -82 -28 0 -23 82c-2,7 -3,13 -3,13l-1 0c0,0 -1,-7 -2,-13l-19 -70c-2,-10 -7,-13 -18,-13l-21 0 0 27 3 0c4,0 6,1 7,4l30 95zm185 -17c0,12 5,17 17,17l30 0 0 -26 -10 0c-3,0 -5,-2 -5,-5l0 -57 18 -10 0 -31 -18 10 0 -39c0,-12 -5,-17 -17,-17l-30 0 0 27 10 0c3,0 5,2 5,5l0 42 -16 9 0 31 16 -9 0 54zm61 -46c0,39 31,66 69,66 39,0 69,-27 69,-66 0,-39 -31,-66 -69,-66 -38,0 -69,27 -69,66zm32 0c0,-23 17,-39 37,-39 20,0 38,16 38,39 0,23 -17,39 -38,39 -20,0 -37,-16 -37,-39zm121 43c0,0 18,22 52,22 27,0 48,-15 48,-39 0,-42 -67,-38 -67,-58 0,-7 8,-11 19,-11 7,0 16,3 16,9l0 6 28 0 0 -13c0,-20 -27,-26 -44,-26 -26,0 -49,12 -49,37 0,41 66,41 66,58 0,8 -7,12 -17,12 -21,0 -38,-19 -38,-19l-15 20zm122 36l-12 22c0,0 12,13 32,13 19,0 37,-10 45,-33l45 -114c1,-4 3,-4 7,-4l4 0 0 -27 -21 0c-9,0 -14,3 -17,12l-21 63c-2,6 -4,17 -4,17l0 0c0,0 -2,-10 -4,-17l-25 -63c-3,-9 -8,-12 -17,-12l-21 0 0 27 4 0c3,0 5,1 7,4l42 95 -4 10c-4,11 -12,16 -21,16 -10,0 -18,-9 -18,-9zm209 -17l30 0 0 -6c0,-5 0,-8 0,-8l0 0c0,0 11,18 38,18 33,0 58,-26 58,-66 0,-39 -22,-66 -56,-66 -27,0 -38,18 -38,18l0 0c0,0 0,-4 0,-11l0 -37c0,-12 -5,-17 -17,-17l-30 0 0 27 10 0c3,0 5,2 5,5l0 143zm30 -62c0,-28 15,-40 32,-40 19,0 31,16 31,40 0,25 -15,39 -32,39 -21,0 -31,-19 -31,-39zm123 62l31 0 0 -50c0,-7 1,-14 3,-21 6,-19 21,-26 34,-26 4,0 8,0 8,0l0 -31c0,0 -3,-1 -6,-1 -19,0 -34,14 -40,32l0 0c0,0 0,-3 0,-8l0 -7c0,-11 -6,-15 -17,-15l-29 0 0 27 10 0c3,0 5,2 5,5l0 94zm82 -36c0,24 20,39 42,39 29,0 39,-22 39,-22l0 0c0,0 0,2 0,5l0 1c0,6 4,13 15,13l6 0 0 0c-7,6 -16,15 -16,27 0,21 30,24 30,24l7 -23c0,0 -12,-1 -12,-9 0,-7 9,-15 14,-19l0 -26 -10 0c-3,0 -5,-2 -5,-5l0 -47c0,-28 -12,-50 -54,-50 -13,0 -46,3 -46,26l0 13 29 0 0 -7c0,-7 11,-8 17,-8 16,0 23,7 23,25l0 1 -3 0c-21,0 -75,3 -75,43zm32 -1c0,-17 26,-20 42,-20l5 0 0 3c0,15 -12,33 -29,33 -13,0 -19,-8 -19,-16zm105 38l98 0c12,0 17,-5 17,-17l0 -22 -28 0 0 7c0,4 -2,5 -5,5l-28 0c-8,0 -12,1 -12,1l0 0c0,0 5,-5 11,-12l58 -71 0 -17 -92 0c-12,0 -17,5 -17,17l0 22 28 0 0 -7c0,-3 2,-5 5,-5l23 0c8,0 12,0 12,0l0 0c0,0 -5,4 -11,12l-58 71 0 17zm125 -63c0,39 31,66 69,66 39,0 69,-27 69,-66 0,-39 -31,-66 -69,-66 -38,0 -69,27 -69,66zm32 0c0,-23 17,-39 37,-39 20,0 38,16 38,39 0,23 -17,39 -38,39 -20,0 -37,-16 -37,-39zm155 63l36 0 21 -72c2,-7 3,-14 3,-14l1 0c0,0 1,7 3,14l21 72 35 0 30 -95c1,-4 3,-4 7,-4l3 0 0 -27 -21 0c-10,0 -15,3 -18,13l-18 70c-2,7 -2,13 -2,13l0 0c0,0 -1,-7 -3,-13l-23 -82 -28 0 -23 82c-2,7 -3,13 -3,13l-1 0c0,0 -1,-7 -2,-13l-19 -70c-2,-10 -7,-13 -18,-13l-21 0 0 27 3 0c4,0 6,1 7,4l30 95zm169 -63c0,36 26,66 68,66 31,0 51,-19 51,-19l-13 -22c0,0 -15,14 -35,14 -19,0 -35,-12 -38,-34l87 0c0,0 1,-8 1,-12 0,-33 -20,-60 -56,-60 -38,0 -64,27 -64,66zm33 -16c3,-16 15,-25 31,-25 13,0 23,10 24,25l-55 0zm-1796 359c0,12 5,17 17,17l30 0 0 -26 -10 0c-3,0 -5,-2 -5,-5l0 -127c0,-12 -5,-17 -17,-17l-30 0 0 27 10 0c3,0 5,2 5,5l0 126zm72 -28c0,34 17,48 43,48 22,0 38,-13 43,-26l0 0c0,0 0,3 0,6l0 3c0,9 6,14 17,14l29 0 0 -26 -10 0c-3,0 -5,-2 -5,-5l0 -94 -31 0 0 58c0,22 -13,42 -35,42 -16,0 -20,-10 -20,-26l0 -58c0,-11 -5,-17 -17,-17l-30 0 0 27 10 0c3,0 5,2 5,5l0 49zm157 45l30 0 0 -6c0,-5 0,-8 0,-8l0 0c0,0 11,18 38,18 33,0 58,-26 58,-66 0,-39 -22,-66 -56,-66 -27,0 -38,18 -38,18l0 0c0,0 0,-4 0,-11l0 -37c0,-12 -5,-17 -17,-17l-30 0 0 27 10 0c3,0 5,2 5,5l0 143zm30 -62c0,-28 15,-40 32,-40 19,0 31,16 31,40 0,25 -15,39 -32,39 -21,0 -31,-19 -31,-39zm176 -1c0,37 27,66 68,66 34,0 53,-23 53,-23l-13 -22c0,0 -16,17 -37,17 -20,0 -39,-13 -39,-39 0,-23 16,-39 37,-39 8,0 18,3 18,10l0 7 28 0 0 -15c0,-22 -29,-28 -46,-28 -43,0 -69,30 -69,66zm148 -83l27 0 0 -29 -27 0 0 29zm-1 130c0,12 5,17 17,17l30 0 0 -26 -10 0c-3,0 -5,-2 -5,-5l0 -77c0,-12 -5,-17 -17,-17l-30 0 0 27 10 0c3,0 5,2 5,5l0 77zm60 -46c0,36 26,66 68,66 31,0 51,-19 51,-19l-13 -22c0,0 -15,14 -35,14 -19,0 -35,-12 -38,-34l87 0c0,0 1,-8 1,-12 0,-33 -20,-60 -56,-60 -38,0 -64,27 -64,66zm33 -16c3,-16 15,-25 31,-25 13,0 23,10 24,25l-55 0zm117 79l31 0 0 -55c0,-6 1,-11 2,-16 4,-16 15,-29 30,-29 15,0 17,12 17,25l0 75 31 0 0 -55c0,-6 0,-11 2,-16 3,-16 15,-29 30,-29 15,0 17,11 17,25l0 58c0,12 5,17 17,17l30 0 0 -26 -10 0c-3,0 -5,-2 -5,-5l0 -49c0,-33 -15,-48 -41,-48 -20,0 -36,12 -43,26l0 0c-5,-17 -18,-26 -37,-26 -20,0 -35,14 -41,26l0 0c0,0 0,-3 0,-5l0 -4c0,-9 -5,-14 -17,-14l-29 0 0 27 10 0c3,0 5,2 5,5l0 94zm233 0l31 0 0 -58c0,-6 1,-12 2,-17 4,-15 17,-26 34,-26 16,0 20,10 20,26l0 58c0,12 5,17 17,17l30 0 0 -26 -10 0c-3,0 -5,-2 -5,-5l0 -49c0,-33 -16,-48 -44,-48 -25,0 -39,16 -44,26l0 0c0,0 0,-3 0,-5l0 -4c0,-9 -5,-14 -17,-14l-29 0 0 27 10 0c3,0 5,2 5,5l0 94zm148 17l-12 22c0,0 12,13 32,13 19,0 37,-10 45,-33l45 -114c1,-4 3,-4 7,-4l4 0 0 -27 -21 0c-9,0 -14,3 -17,12l-21 63c-2,6 -4,17 -4,17l0 0c0,0 -2,-10 -4,-17l-25 -63c-3,-9 -8,-12 -17,-12l-21 0 0 27 4 0c3,0 5,1 7,4l42 95 -4 10c-4,11 -12,16 -21,16 -10,0 -18,-9 -18,-9zm209 -17l30 0 0 -6c0,-5 0,-8 0,-8l0 0c0,0 11,18 38,18 33,0 58,-26 58,-66 0,-39 -22,-66 -56,-66 -27,0 -38,18 -38,18l0 0c0,0 0,-4 0,-11l0 -37c0,-12 -5,-17 -17,-17l-30 0 0 27 10 0c3,0 5,2 5,5l0 143zm30 -62c0,-28 15,-40 32,-40 19,0 31,16 31,40 0,25 -15,39 -32,39 -21,0 -31,-19 -31,-39zm121 45c0,12 5,17 17,17l30 0 0 -26 -10 0c-3,0 -5,-2 -5,-5l0 -127c0,-12 -5,-17 -17,-17l-30 0 0 27 10 0c3,0 5,2 5,5l0 126zm60 -46c0,39 31,66 69,66 39,0 69,-27 69,-66 0,-39 -31,-66 -69,-66 -38,0 -69,27 -69,66zm32 0c0,-23 17,-39 37,-39 20,0 38,16 38,39 0,23 -17,39 -38,39 -20,0 -37,-16 -37,-39zm135 63l31 0 0 -58c0,-6 1,-12 2,-17 4,-15 17,-26 34,-26 16,0 20,10 20,26l0 58c0,12 5,17 17,17l30 0 0 -26 -10 0c-3,0 -5,-2 -5,-5l0 -49c0,-33 -16,-48 -44,-48 -25,0 -39,16 -44,26l0 0c0,0 0,-3 0,-5l0 -4c0,-9 -5,-14 -17,-14l-29 0 0 27 10 0c3,0 5,2 5,5l0 94zm146 -63c0,39 22,66 56,66 29,0 39,-20 39,-20l0 0c0,0 0,2 0,5 0,7 4,13 16,13l29 0 0 -26 -10 0c-3,0 -5,-2 -5,-5l0 -127c0,-12 -5,-17 -17,-17l-30 0 0 27 10 0c3,0 5,2 5,5l0 22c0,4 0,7 0,7l-1 0c0,0 -9,-15 -36,-15 -33,0 -57,26 -57,66zm63 40c-19,0 -31,-16 -31,-40 0,-25 14,-39 32,-39 21,0 31,19 31,39 0,28 -15,40 -32,40z"/>
  <path class="fil12" d="M10459 5021c41,-3 122,-2 174,-21 52,-19 74,-58 49,-71 -25,-13 -97,-1 -150,5 -53,5 -87,3 -105,-2 -18,-5 -18,-13 -19,-24 -1,-10 -1,-22 -16,-19 -15,3 -44,22 -79,37 -35,16 -76,29 -79,46 -2,17 35,38 65,56 30,18 53,33 69,43 16,10 26,16 34,10 7,-6 11,-26 14,-38 2,-13 3,-19 44,-21z"/>
  <path class="fil11" d="M10949 4977l30 0 0 -6c0,-5 0,-8 0,-8l0 0c0,0 11,18 38,18 33,0 58,-26 58,-66 0,-39 -22,-66 -56,-66 -27,0 -38,18 -38,18l0 0c0,0 0,-4 0,-11l0 -37c0,-12 -5,-17 -17,-17l-30 0 0 27 10 0c3,0 5,2 5,5l0 143zm30 -62c0,-28 15,-40 32,-40 19,0 31,16 31,40 0,25 -15,39 -32,39 -21,0 -31,-19 -31,-39zm123 62l31 0 0 -50c0,-7 1,-14 3,-21 6,-19 21,-26 34,-26 4,0 8,0 8,0l0 -31c0,0 -3,-1 -6,-1 -19,0 -34,14 -40,32l0 0c0,0 0,-3 0,-8l0 -7c0,-11 -6,-15 -17,-15l-29 0 0 27 10 0c3,0 5,2 5,5l0 94zm82 -36c0,24 20,39 42,39 29,0 39,-22 39,-22l0 0c0,0 0,2 0,5l0 1c0,6 4,13 15,13l6 0 0 0c-7,6 -16,15 -16,27 0,21 30,24 30,24l7 -23c0,0 -12,-1 -12,-9 0,-7 9,-15 14,-19l0 -26 -10 0c-3,0 -5,-2 -5,-5l0 -47c0,-28 -12,-50 -54,-50 -13,0 -46,3 -46,26l0 13 29 0 0 -7c0,-7 11,-8 17,-8 16,0 23,7 23,25l0 1 -3 0c-21,0 -75,3 -75,43zm32 -1c0,-17 26,-20 42,-20l5 0 0 3c0,15 -12,33 -29,33 -13,0 -19,-8 -19,-16zm105 38l98 0c12,0 17,-5 17,-17l0 -22 -28 0 0 7c0,4 -2,5 -5,5l-28 0c-8,0 -12,1 -12,1l0 0c0,0 5,-5 11,-12l58 -71 0 -17 -92 0c-12,0 -17,5 -17,17l0 22 28 0 0 -7c0,-3 2,-5 5,-5l23 0c8,0 12,0 12,0l0 0c0,0 -5,4 -11,12l-58 71 0 17zm125 -63c0,39 31,66 69,66 39,0 69,-27 69,-66 0,-39 -31,-66 -69,-66 -38,0 -69,27 -69,66zm32 0c0,-23 17,-39 37,-39 20,0 38,16 38,39 0,23 -17,39 -38,39 -20,0 -37,-16 -37,-39zm155 63l36 0 21 -72c2,-7 3,-14 3,-14l1 0c0,0 1,7 3,14l21 72 35 0 30 -95c1,-4 3,-4 7,-4l3 0 0 -27 -21 0c-10,0 -15,3 -18,13l-18 70c-2,7 -2,13 -2,13l0 0c0,0 -1,-7 -3,-13l-23 -82 -28 0 -23 82c-2,7 -3,13 -3,13l-1 0c0,0 -1,-7 -2,-13l-19 -70c-2,-10 -7,-13 -18,-13l-21 0 0 27 3 0c4,0 6,1 7,4l30 95zm169 -63c0,36 26,66 68,66 31,0 51,-19 51,-19l-13 -22c0,0 -15,14 -35,14 -19,0 -35,-12 -38,-34l87 0c0,0 1,-8 1,-12 0,-33 -20,-60 -56,-60 -38,0 -64,27 -64,66zm33 -16c3,-16 15,-25 31,-25 13,0 23,10 24,25l-55 0zm182 62c0,12 5,17 17,17l30 0 0 -26 -10 0c-3,0 -5,-2 -5,-5l0 -127c0,-12 -5,-17 -17,-17l-30 0 0 27 10 0c3,0 5,2 5,5l0 126zm72 -28c0,34 17,48 43,48 22,0 38,-13 43,-26l0 0c0,0 0,3 0,6l0 3c0,9 6,14 17,14l29 0 0 -26 -10 0c-3,0 -5,-2 -5,-5l0 -94 -31 0 0 58c0,22 -13,42 -35,42 -16,0 -20,-10 -20,-26l0 -58c0,-11 -5,-17 -17,-17l-30 0 0 27 10 0c3,0 5,2 5,5l0 49zm157 45l30 0 0 -6c0,-5 0,-8 0,-8l0 0c0,0 11,18 38,18 33,0 58,-26 58,-66 0,-39 -22,-66 -56,-66 -27,0 -38,18 -38,18l0 0c0,0 0,-4 0,-11l0 -37c0,-12 -5,-17 -17,-17l-30 0 0 27 10 0c3,0 5,2 5,5l0 143zm30 -62c0,-28 15,-40 32,-40 19,0 31,16 31,40 0,25 -15,39 -32,39 -21,0 -31,-19 -31,-39zm189 112l31 0 0 -52c0,-6 0,-11 0,-11l0 0c0,0 11,17 36,17 33,0 58,-26 58,-66 0,-39 -22,-66 -56,-66 -29,0 -40,20 -40,20l-1 0c0,0 0,-2 0,-5 0,-7 -4,-12 -16,-12l-28 0 0 27 10 0c3,0 5,2 5,5l0 143zm30 -112c0,-28 15,-40 32,-40 19,0 31,16 31,40 0,25 -15,39 -32,39 -21,0 -31,-19 -31,-39zm125 -84l27 0 0 -29 -27 0 0 29zm-1 130c0,12 5,17 17,17l30 0 0 -26 -10 0c-3,0 -5,-2 -5,-5l0 -77c0,-12 -5,-17 -17,-17l-30 0 0 27 10 0c3,0 5,2 5,5l0 77zm94 17l36 0 21 -72c2,-7 3,-14 3,-14l1 0c0,0 1,7 3,14l21 72 35 0 30 -95c1,-4 3,-4 7,-4l3 0 0 -27 -21 0c-10,0 -15,3 -18,13l-18 70c-2,7 -2,13 -2,13l0 0c0,0 -1,-7 -3,-13l-23 -82 -28 0 -23 82c-2,7 -3,13 -3,13l-1 0c0,0 -1,-7 -2,-13l-19 -70c-2,-10 -7,-13 -18,-13l-21 0 0 27 3 0c4,0 6,1 7,4l30 95zm184 0l31 0 0 -58c0,-6 1,-12 2,-17 4,-15 17,-26 34,-26 16,0 20,10 20,26l0 58c0,12 5,17 17,17l30 0 0 -26 -10 0c-3,0 -5,-2 -5,-5l0 -49c0,-33 -16,-48 -44,-48 -25,0 -39,16 -44,26l0 0c0,0 0,-3 0,-5l0 -4c0,-9 -5,-14 -17,-14l-29 0 0 27 10 0c3,0 5,2 5,5l0 94zm146 -63c0,36 26,66 68,66 31,0 51,-19 51,-19l-13 -22c0,0 -15,14 -35,14 -19,0 -35,-12 -38,-34l87 0c0,0 1,-8 1,-12 0,-33 -20,-60 -56,-60 -38,0 -64,27 -64,66zm33 -16c3,-16 15,-25 31,-25 13,0 23,10 24,25l-55 0zm170 16c0,39 31,66 69,66 39,0 69,-27 69,-66 0,-39 -31,-66 -69,-66 -38,0 -69,27 -69,66zm32 0c0,-23 17,-39 37,-39 20,0 38,16 38,39 0,23 -17,39 -38,39 -20,0 -37,-16 -37,-39zm122 0c0,37 27,66 68,66 34,0 53,-23 53,-23l-13 -22c0,0 -16,17 -37,17 -20,0 -39,-13 -39,-39 0,-23 16,-39 37,-39 8,0 18,3 18,10l0 7 28 0 0 -15c0,-22 -29,-28 -46,-28 -43,0 -69,30 -69,66zm132 63l98 0c12,0 17,-5 17,-17l0 -22 -28 0 0 7c0,4 -2,5 -5,5l-28 0c-8,0 -12,1 -12,1l0 0c0,0 5,-5 11,-12l58 -71 0 -17 -92 0c-12,0 -17,5 -17,17l0 22 28 0 0 -7c0,-3 2,-5 5,-5l23 0c8,0 12,0 12,0l0 0c0,0 -5,4 -11,12l-58 71 0 17zm128 17l-12 22c0,0 12,13 32,13 19,0 37,-10 45,-33l45 -114c1,-4 3,-4 7,-4l4 0 0 -27 -21 0c-9,0 -14,3 -17,12l-21 63c-2,6 -4,17 -4,17l0 0c0,0 -2,-10 -4,-17l-25 -63c-3,-9 -8,-12 -17,-12l-21 0 0 27 4 0c3,0 5,1 7,4l42 95 -4 10c-4,11 -12,16 -21,16 -10,0 -18,-9 -18,-9z"/>
  <path class="fil12" d="M8787 6903c33,24 95,77 147,96 52,19 94,3 83,-23 -11,-26 -74,-63 -118,-93 -44,-30 -69,-54 -79,-69 -10,-15 -6,-22 0,-30 6,-8 13,-18 0,-25 -13,-7 -48,-12 -85,-23 -37,-11 -77,-27 -89,-16 -13,12 2,52 13,84 11,33 19,59 25,77 6,19 10,30 19,29 10,0 25,-12 35,-20 10,-8 14,-12 47,12z"/>
  <path class="fil11" d="M7532 7358l27 0 0 -29 -27 0 0 29zm-32 170l0 26c0,0 4,1 9,1 17,0 53,-5 53,-47l0 -113c0,-12 -5,-17 -17,-17l-30 0 0 27 10 0c3,0 5,2 5,5l0 95c0,21 -16,23 -25,23 -3,0 -5,-1 -5,-1zm88 -60c0,25 21,39 43,39 28,0 38,-22 38,-22l0 0c0,0 0,2 0,5 0,7 4,14 16,14l28 0 0 -26 -10 0c-3,0 -5,-2 -5,-5l0 -47c0,-28 -12,-50 -54,-50 -13,0 -46,2 -46,26l0 13 29 0 0 -7c0,-7 11,-8 17,-8 16,0 23,7 23,25l0 1 -4 0c-20,0 -75,3 -75,43zm32 -1c0,-18 26,-20 42,-20l5 0 0 3c0,15 -12,33 -29,33 -13,0 -19,-8 -19,-16zm105 18c0,0 18,22 52,22 27,0 48,-15 48,-39 0,-42 -67,-38 -67,-58 0,-7 8,-11 19,-11 7,0 16,3 16,9l0 6 28 0 0 -13c0,-20 -27,-26 -44,-26 -26,0 -49,12 -49,37 0,41 66,41 66,58 0,8 -7,12 -17,12 -21,0 -38,-19 -38,-19l-15 20zm130 20l31 0 0 -58c0,-6 1,-12 2,-17 4,-15 17,-26 34,-26 16,0 20,10 20,26l0 58c0,12 5,17 17,17l30 0 0 -26 -10 0c-3,0 -5,-2 -5,-5l0 -49c0,-33 -16,-48 -44,-48 -25,0 -39,16 -44,26l0 0c0,0 0,-3 0,-5l0 -4c0,-9 -5,-14 -17,-14l-29 0 0 27 10 0c3,0 5,2 5,5l0 94zm146 -36c0,25 21,39 43,39 28,0 38,-22 38,-22l0 0c0,0 0,2 0,5 0,7 4,14 16,14l28 0 0 -26 -10 0c-3,0 -5,-2 -5,-5l0 -47c0,-28 -12,-50 -54,-50 -13,0 -46,2 -46,26l0 13 29 0 0 -7c0,-7 11,-8 17,-8 16,0 23,7 23,25l0 1 -4 0c-20,0 -75,3 -75,43zm32 -1c0,-18 26,-20 42,-20l5 0 0 3c0,15 -12,33 -29,33 -13,0 -19,-8 -19,-16zm172 -25c0,37 27,66 68,66 34,0 53,-23 53,-23l-13 -22c0,0 -16,17 -37,17 -20,0 -39,-13 -39,-39 0,-23 16,-39 37,-39 8,0 18,3 18,10l0 7 28 0 0 -15c0,-22 -29,-28 -46,-28 -43,0 -69,30 -69,66zm133 0c0,36 26,66 68,66 31,0 51,-19 51,-19l-13 -22c0,0 -15,14 -35,14 -19,0 -35,-12 -38,-34l87 0c0,0 1,-8 1,-12 0,-33 -20,-60 -56,-60 -38,0 -64,27 -64,66zm33 -16c3,-16 15,-25 31,-25 13,0 23,10 24,25l-55 0zm117 79l31 0 0 -50c0,-7 1,-14 3,-21 6,-19 21,-26 34,-26 4,0 8,0 8,0l0 -31c0,0 -3,-1 -6,-1 -19,0 -34,14 -40,32l0 0c0,0 0,-3 0,-8l0 -7c0,-11 -6,-15 -17,-15l-29 0 0 27 10 0c3,0 5,2 5,5l0 94zm82 -36c0,25 21,39 43,39 28,0 38,-22 38,-22l0 0c0,0 0,2 0,5 0,7 4,14 16,14l28 0 0 -26 -10 0c-3,0 -5,-2 -5,-5l0 -47c0,-28 -12,-50 -54,-50 -13,0 -46,2 -46,26l0 13 29 0 0 -7c0,-7 11,-8 17,-8 16,0 23,7 23,25l0 1 -4 0c-20,0 -75,3 -75,43zm32 -1c0,-18 26,-20 42,-20l5 0 0 3c0,15 -12,33 -29,33 -13,0 -19,-8 -19,-16zm184 -43c0,38 10,75 30,104l27 0c-19,-33 -28,-70 -28,-106 0,-35 9,-69 28,-100l-27 0c-20,29 -29,65 -29,102zm86 81l30 0 0 -6c0,-5 0,-8 0,-8l0 0c0,0 11,18 38,18 33,0 58,-26 58,-66 0,-39 -22,-66 -56,-66 -27,0 -38,18 -38,18l0 0c0,0 0,-4 0,-11l0 -37c0,-12 -5,-17 -17,-17l-30 0 0 27 10 0c3,0 5,2 5,5l0 143zm30 -62c0,-28 15,-40 32,-40 19,0 31,16 31,40 0,25 -15,39 -32,39 -21,0 -31,-19 -31,-39zm123 62l31 0 0 -50c0,-7 1,-14 3,-21 6,-19 21,-26 34,-26 4,0 8,0 8,0l0 -31c0,0 -3,-1 -6,-1 -19,0 -34,14 -40,32l0 0c0,0 0,-3 0,-8l0 -7c0,-11 -6,-15 -17,-15l-29 0 0 27 10 0c3,0 5,2 5,5l0 94zm88 0l98 0c12,0 17,-5 17,-17l0 -22 -28 0 0 7c0,4 -2,5 -5,5l-28 0c-8,0 -12,1 -12,1l0 0c0,0 5,-5 11,-12l58 -71 0 -17 -92 0c-12,0 -17,5 -17,17l0 22 28 0 0 -7c0,-3 2,-5 5,-5l23 0c8,0 12,0 12,0l0 0c0,0 -5,4 -11,12l-58 71 0 17zm125 -63c0,39 31,66 69,66 39,0 69,-27 69,-66 0,-39 -31,-66 -69,-66 -38,0 -69,27 -69,66zm32 0c0,-23 17,-39 37,-39 20,0 38,16 38,39 0,23 -17,39 -38,39 -20,0 -37,-16 -37,-39zm121 43c0,0 18,22 52,22 27,0 48,-15 48,-39 0,-42 -67,-38 -67,-58 0,-7 8,-11 19,-11 7,0 16,3 16,9l0 6 28 0 0 -13c0,-20 -27,-26 -44,-26 -26,0 -49,12 -49,37 0,41 66,41 66,58 0,8 -7,12 -17,12 -21,0 -38,-19 -38,-19l-15 20zm129 20l31 0 0 -55 7 0c4,0 9,0 12,5l21 40c5,9 9,11 20,11l23 0 0 -26 -8 0c-6,0 -8,-1 -10,-5l-14 -27c-4,-8 -9,-10 -9,-10l0 0c0,0 4,-2 9,-10l32 -47 -35 0 -26 40c-3,4 -8,5 -12,5l-9 0 0 -80c0,-12 -5,-14 -17,-14l-30 0 0 27 10 0c3,0 5,2 5,5l0 143zm157 0l36 0 21 -72c2,-7 3,-14 3,-14l1 0c0,0 1,7 3,14l21 72 35 0 30 -95c1,-4 3,-4 7,-4l3 0 0 -27 -21 0c-10,0 -15,3 -18,13l-18 70c-2,7 -2,13 -2,13l0 0c0,0 -1,-7 -3,-13l-23 -82 -28 0 -23 82c-2,7 -3,13 -3,13l-1 0c0,0 -1,-7 -2,-13l-19 -70c-2,-10 -7,-13 -18,-13l-21 0 0 27 3 0c4,0 6,1 7,4l30 95zm186 -146l27 0 0 -29 -27 0 0 29zm-1 130c0,12 5,17 17,17l30 0 0 -26 -10 0c-3,0 -5,-2 -5,-5l0 -77c0,-12 -5,-17 -17,-17l-30 0 0 27 10 0c3,0 5,2 5,5l0 77zm73 17l31 0 0 -58c0,-6 1,-12 2,-17 4,-15 17,-26 34,-26 16,0 20,10 20,26l0 58c0,12 5,17 17,17l30 0 0 -26 -10 0c-3,0 -5,-2 -5,-5l0 -49c0,-33 -16,-48 -44,-48 -25,0 -39,16 -44,26l0 0c0,0 0,-3 0,-5l0 -4c0,-9 -5,-14 -17,-14l-29 0 0 27 10 0c3,0 5,2 5,5l0 94zm161 -146l27 0 0 -29 -27 0 0 29zm-1 130c0,12 5,17 17,17l30 0 0 -26 -10 0c-3,0 -5,-2 -5,-5l0 -77c0,-12 -5,-17 -17,-17l-30 0 0 27 10 0c3,0 5,2 5,5l0 77zm60 -46c0,39 31,66 69,66 39,0 69,-27 69,-66 0,-39 -31,-66 -69,-66 -38,0 -69,27 -69,66zm32 0c0,-23 17,-39 37,-39 20,0 38,16 38,39 0,23 -17,39 -38,39 -20,0 -37,-16 -37,-39zm155 63l36 0 21 -72c2,-7 3,-14 3,-14l1 0c0,0 1,7 3,14l21 72 35 0 30 -95c1,-4 3,-4 7,-4l3 0 0 -27 -21 0c-10,0 -15,3 -18,13l-18 70c-2,7 -2,13 -2,13l0 0c0,0 -1,-7 -3,-13l-23 -82 -28 0 -23 82c-2,7 -3,13 -3,13l-1 0c0,0 -1,-7 -2,-13l-19 -70c-2,-10 -7,-13 -18,-13l-21 0 0 27 3 0c4,0 6,1 7,4l30 95zm170 -36c0,25 21,39 43,39 28,0 38,-22 38,-22l0 0c0,0 0,2 0,5 0,7 4,14 16,14l28 0 0 -26 -10 0c-3,0 -5,-2 -5,-5l0 -47c0,-28 -12,-50 -54,-50 -13,0 -46,2 -46,26l0 13 29 0 0 -7c0,-7 11,-8 17,-8 16,0 23,7 23,25l0 1 -4 0c-20,0 -75,3 -75,43zm32 -1c0,-18 26,-20 42,-20l5 0 0 3c0,15 -12,33 -29,33 -13,0 -19,-8 -19,-16zm172 -25c0,39 31,66 69,66 39,0 69,-27 69,-66 0,-39 -31,-66 -69,-66 -38,0 -69,27 -69,66zm32 0c0,-23 17,-39 37,-39 20,0 38,16 38,39 0,23 -17,39 -38,39 -20,0 -37,-16 -37,-39zm135 112l31 0 0 -52c0,-6 0,-11 0,-11l0 0c0,0 11,17 36,17 33,0 58,-26 58,-66 0,-39 -22,-66 -56,-66 -29,0 -40,20 -40,20l-1 0c0,0 0,-2 0,-5 0,-7 -4,-12 -16,-12l-28 0 0 27 10 0c3,0 5,2 5,5l0 143zm30 -112c0,-28 15,-40 32,-40 19,0 31,16 31,40 0,25 -15,39 -32,39 -21,0 -31,-19 -31,-39zm109 26c0,25 21,39 43,39 28,0 38,-22 38,-22l0 0c0,0 0,2 0,5 0,7 4,14 16,14l28 0 0 -26 -10 0c-3,0 -5,-2 -5,-5l0 -47c0,-28 -12,-50 -54,-50 -13,0 -46,2 -46,26l0 13 29 0 0 -7c0,-7 11,-8 17,-8 16,0 23,7 23,25l0 1 -4 0c-20,0 -75,3 -75,43zm32 -1c0,-18 26,-20 42,-20l5 0 0 3c0,15 -12,33 -29,33 -13,0 -19,-8 -19,-16zm118 21c0,12 5,17 17,17l30 0 0 -26 -10 0c-3,0 -5,-2 -5,-5l0 -127c0,-12 -5,-17 -17,-17l-30 0 0 27 10 0c3,0 5,2 5,5l0 126zm60 -46c0,36 26,66 68,66 31,0 51,-19 51,-19l-13 -22c0,0 -15,14 -35,14 -19,0 -35,-12 -38,-34l87 0c0,0 1,-8 1,-12 0,-33 -20,-60 -56,-60 -38,0 -64,27 -64,66zm33 -16c3,-16 15,-25 31,-25 13,0 23,10 24,25l-55 0zm117 79l31 0 0 -58c0,-6 1,-12 2,-17 4,-15 17,-26 34,-26 16,0 20,10 20,26l0 58c0,12 5,17 17,17l30 0 0 -26 -10 0c-3,0 -5,-2 -5,-5l0 -49c0,-33 -16,-48 -44,-48 -25,0 -39,16 -44,26l0 0c0,0 0,-3 0,-5l0 -4c0,-9 -5,-14 -17,-14l-29 0 0 27 10 0c3,0 5,2 5,5l0 94zm161 -146l27 0 0 -29 -27 0 0 29zm-1 130c0,12 5,17 17,17l30 0 0 -26 -10 0c-3,0 -5,-2 -5,-5l0 -77c0,-12 -5,-17 -17,-17l-30 0 0 27 10 0c3,0 5,2 5,5l0 77zm59 17l98 0c12,0 17,-5 17,-17l0 -22 -28 0 0 7c0,4 -2,5 -5,5l-28 0c-8,0 -12,1 -12,1l0 0c0,0 5,-5 11,-12l58 -71 0 -17 -92 0c-12,0 -17,5 -17,17l0 22 28 0 0 -7c0,-3 2,-5 5,-5l23 0c8,0 12,0 12,0l0 0c0,0 -5,4 -11,12l-58 71 0 17zm140 0l31 0 0 -58c0,-6 1,-12 2,-17 4,-15 17,-26 34,-26 16,0 20,10 20,26l0 58c0,12 5,17 17,17l30 0 0 -26 -10 0c-3,0 -5,-2 -5,-5l0 -49c0,-33 -16,-48 -44,-48 -25,0 -39,16 -44,26l0 0c0,0 0,-3 0,-5l0 -4c0,-9 -5,-14 -17,-14l-29 0 0 27 10 0c3,0 5,2 5,5l0 94zm146 -36c0,25 21,39 43,39 28,0 38,-22 38,-22l0 0c0,0 0,2 0,5 0,7 4,14 16,14l28 0 0 -26 -10 0c-3,0 -5,-2 -5,-5l0 -47c0,-28 -12,-50 -54,-50 -13,0 -46,2 -46,26l0 13 29 0 0 -7c0,-7 11,-8 17,-8 16,0 23,7 23,25l0 1 -4 0c-20,0 -75,3 -75,43zm32 -1c0,-18 26,-20 42,-20l5 0 0 3c0,15 -12,33 -29,33 -13,0 -19,-8 -19,-16zm109 61l27 0c20,-29 30,-66 30,-104 0,-37 -10,-73 -29,-102l-27 0c19,31 28,65 28,100 0,37 -10,73 -28,106z"/>
 </g>
</svg>
