<?xml version="1.0" encoding="UTF-8" standalone="no"?>
<svg
   xmlns:dc="http://purl.org/dc/elements/1.1/"
   xmlns:cc="http://creativecommons.org/ns#"
   xmlns:rdf="http://www.w3.org/1999/02/22-rdf-syntax-ns#"
   xmlns:svg="http://www.w3.org/2000/svg"
   xmlns="http://www.w3.org/2000/svg"
   xmlns:sodipodi="http://sodipodi.sourceforge.net/DTD/sodipodi-0.dtd"
   xmlns:inkscape="http://www.inkscape.org/namespaces/inkscape"
   xml:space="preserve"
   width="179.66808mm"
   height="170.26762mm"
   version="1.1"
   style="clip-rule:evenodd;fill-rule:evenodd;image-rendering:optimizeQuality;shape-rendering:geometricPrecision;text-rendering:geometricPrecision"
   viewBox="0 0 17966.808 17026.762"
   id="svg68"
   sodipodi:docname="środkowoeuropejska brązowe oczy.svg"
   inkscape:version="1.0.1 (3bc2e813f5, 2020-09-07)"><metadata
   id="metadata72"><rdf:RDF><cc:Work
       rdf:about=""><dc:format>image/svg+xml</dc:format><dc:type
         rdf:resource="http://purl.org/dc/dcmitype/StillImage" /></cc:Work></rdf:RDF></metadata><sodipodi:namedview
   pagecolor="#ffffff"
   bordercolor="#666666"
   borderopacity="1"
   objecttolerance="10"
   gridtolerance="10"
   guidetolerance="10"
   inkscape:pageopacity="0"
   inkscape:pageshadow="2"
   inkscape:window-width="1858"
   inkscape:window-height="1057"
   id="namedview70"
   showgrid="false"
   inkscape:zoom="1.1162388"
   inkscape:cx="319.86373"
   inkscape:cy="335.24213"
   inkscape:window-x="54"
   inkscape:window-y="-8"
   inkscape:window-maximized="1"
   inkscape:current-layer="svg68" />
 <defs
   id="defs4">
  <style
   type="text/css"
   id="style2">
   <![CDATA[
    .fil5 {fill:#FEFEFE}
    .fil0 {fill:#F6DAD6}
    .fil2 {fill:#E4B9AF}
    .fil3 {fill:#E2A59A}
    .fil7 {fill:#593A1B}
    .fil6 {fill:#1F130D}
    .fil9 {fill:#2F1C16}
    .fil10 {fill:#6D5346}
    .fil8 {fill:#FEFEFE;fill-opacity:0.501961}
    .fil1 {fill:#E4B9AF;fill-opacity:0.501961}
    .fil4 {fill:#D7ACA6;fill-opacity:0.501961}
   ]]>
  </style>
 </defs>
 <g
   id="Warstwa_x0020_1"
   transform="translate(-6386.9388,-1630.052)">
  <metadata
   id="CorelCorpID_0Corel-Layer" />
  <path
   class="fil0"
   d="m 21220,6066 c 357,772 619,1888 571,3207 -48,1319 -405,2841 -863,4109 -458,1268 -1018,2283 -1893,3151 -875,868 -2065,1589 -2806,1916 -741,327 -1032,258 -1788,-136 -756,-395 -1976,-1115 -2866,-2321 -890,-1206 -1449,-2897 -1687,-4452 -238,-1556 -155,-2976 113,-4148 268,-1172 720,-2097 1434,-2773 714,-676 1690,-1105 2797,-1257 1107,-152 2345,-28 3321,197 976,225 1690,552 2274,930 583,378 1036,806 1393,1578 z"
   id="path7" />
  <path
   class="fil1"
   d="m 12937,17364 c -472,-365 -952,-817 -1362,-1373 -525,-712 -936,-1593 -1232,-2515 90,-91 249,-117 497,2 384,184 982,717 1318,1213 336,496 409,956 495,1371 85,415 183,786 243,1067 19,88 34,167 42,235 z"
   id="path9" />
  <path
   class="fil2"
   d="m 15854,11077 c 25,304 104,748 178,1068 74,320 141,517 294,698 152,181 389,345 317,584 -72,239 -453,553 -685,723 -232,170 -314,196 -561,46 -246,-151 -657,-478 -761,-723 -105,-244 97,-405 245,-585 148,-180 242,-380 304,-667 62,-288 91,-663 104,-977 13,-314 10,-566 107,-688 97,-123 295,-116 379,-31 84,85 55,249 79,553 z"
   id="path11" />
  <path
   class="fil3"
   d="m 16347,15309 c -170,-50 -291,-106 -395,-113 -103,-7 -188,34 -254,66 -27,13 -50,25 -70,35 -16,-8 -33,-17 -53,-26 -66,-32 -151,-74 -254,-66 -103,7 -225,63 -395,113 -227,67 -528,160 -754,212 -64,15 -152,15 -175,41 -78,90 168,11 213,267 77,439 494,769 1404,756 993,-14 1092,-351 1426,-813 66,-91 257,-194 234,-219 -23,-27 -111,-27 -175,-41 -218,-50 -546,-151 -754,-212 z m -932,406 c 189,14 280,9 479,-10 -94,61 -167,154 -232,154 -78,0 -148,-87 -246,-144 z"
   id="path13" />
  <g
   id="_2067153965984">
   <path
   class="fil4"
   d="m 17289,11837 c 39,53 148,154 321,225 173,71 409,112 638,96 229,-16 452,-90 615,-196 164,-106 269,-243 332,-394 63,-151 85,-314 44,-330 -40,-15 -143,118 -283,235 -140,117 -319,218 -486,282 -167,64 -321,90 -462,106 -141,15 -269,20 -382,3 -113,-17 -211,-54 -277,-70 -66,-16 -99,-10 -60,44 z"
   id="path15" />
   <path
   class="fil4"
   d="m 16856,10759 c 45,-136 126,-269 231,-375 105,-106 235,-183 416,-239 181,-55 414,-89 600,-81 186,8 325,56 462,117 137,61 271,135 375,218 104,83 179,174 236,246 57,71 96,122 120,148 24,26 35,27 45,-14 10,-41 21,-125 -53,-258 -74,-133 -233,-315 -363,-450 -131,-134 -233,-221 -445,-270 -212,-49 -535,-60 -808,-14 -273,46 -497,149 -652,236 -155,87 -240,156 -303,309 -63,153 -102,390 -98,540 4,150 51,214 87,250 36,35 61,41 78,-25 17,-66 27,-203 72,-339 z"
   id="path17" />
   <path
   class="fil5"
   d="m 16791,11170 c -8,-119 -13,-266 43,-419 55,-154 172,-314 382,-439 210,-126 515,-217 789,-222 274,-5 519,77 724,238 205,161 372,400 465,520 94,120 115,122 53,222 -62,99 -206,296 -369,438 -163,142 -344,230 -538,291 -195,61 -403,97 -613,76 -210,-21 -422,-99 -574,-176 -152,-77 -243,-152 -294,-236 -51,-83 -61,-174 -68,-293 z"
   id="path19" />
   <path
   class="fil6"
   d="m 16786,11084 c -6,-33 -20,-180 41,-349 61,-169 196,-361 340,-480 143,-119 295,-166 460,-196 165,-30 344,-43 468,-39 124,4 194,26 276,49 82,23 175,46 244,52 69,6 113,-5 178,-36 65,-32 151,-84 192,-143 40,-60 35,-127 42,-129 7,-1 27,64 9,135 -18,71 -73,149 -118,195 -44,46 -78,59 -93,74 -15,15 -12,30 15,46 27,16 79,32 152,35 73,4 167,-5 242,-35 74,-30 129,-81 156,-107 27,-26 27,-26 9,1 -18,27 -54,80 -119,128 -65,48 -159,91 -216,113 -56,21 -74,21 -74,33 0,12 18,36 38,58 21,22 44,41 96,50 52,9 131,7 206,-17 75,-24 145,-70 186,-104 41,-34 53,-55 48,-40 -5,15 -26,67 -86,120 -60,53 -160,107 -216,134 -56,27 -69,26 -68,34 1,8 15,25 42,40 27,15 67,29 130,26 63,-3 148,-23 209,-58 61,-34 97,-83 115,-108 18,-24 18,-24 3,4 -15,29 -46,86 -86,140 -39,54 -87,105 -143,151 -55,46 -118,87 -151,101 -33,14 -37,1 -73,-50 -36,-52 -105,-142 -186,-237 -80,-95 -172,-195 -277,-272 -105,-76 -224,-129 -329,-169 -105,-40 -198,-68 -290,-83 -93,-15 -186,-18 -302,-4 -116,14 -256,45 -374,87 -118,42 -215,94 -296,162 -80,68 -144,153 -193,227 -49,75 -85,140 -116,194 -31,54 -59,98 -72,159 -13,62 -12,141 -18,108 z"
   id="path21" />
   <ellipse
   class="fil7"
   transform="matrix(-1.16161,0.327988,0.327988,1.16161,18006.1,11013.1)"
   rx="607"
   ry="574"
   id="ellipse23"
   cx="0"
   cy="0" />
   <path
   class="fil6"
   d="m 16954,11571 c 138,73 277,147 406,197 129,51 248,79 410,80 162,1 366,-24 540,-71 174,-47 317,-115 440,-198 123,-83 226,-180 296,-260 70,-80 108,-142 136,-180 28,-39 47,-54 86,-58 38,-4 96,3 149,33 53,29 102,80 151,132 -86,-26 -172,-51 -231,-49 -59,2 -91,32 -75,69 15,37 78,82 115,116 37,34 49,57 61,80 -77,-49 -154,-98 -229,-89 -76,9 -150,76 -171,114 -21,38 12,48 51,74 39,26 85,69 130,112 -86,-35 -172,-70 -256,-64 -84,6 -166,54 -228,89 -63,35 -106,57 -107,85 -1,28 40,62 75,101 35,39 62,84 90,129 -117,-56 -233,-111 -358,-119 -125,-8 -258,31 -424,47 -167,16 -368,9 -550,-56 -182,-65 -344,-189 -507,-312 z"
   id="path25" />
   <ellipse
   class="fil6"
   transform="matrix(-0.481181,0.135864,0.135864,0.481181,18014.2,11005.2)"
   rx="607"
   ry="574"
   id="ellipse27"
   cx="0"
   cy="0" />
   <path
   class="fil8"
   d="m 17599,10636 c -161,46 -257,206 -214,359 43,152 209,239 370,194 161,-46 257,-206 214,-359 -43,-152 -209,-239 -370,-194 z"
   id="path29" />
  </g>
  <path
   class="fil6"
   d="m 16896,9078 c 118,-54 303,-149 599,-228 296,-80 702,-144 1020,-135 318,9 548,91 746,200 199,109 367,244 423,265 56,21 0,-74 -163,-247 -163,-174 -434,-427 -817,-537 -383,-110 -877,-76 -1291,-40 -415,37 -750,77 -908,200 -157,124 -137,331 -78,446 59,115 155,137 228,141 73,4 123,-11 241,-65 z"
   id="path32" />
  <path
   class="fil1"
   d="m 20937,13357 c -93,-30 -222,-17 -393,65 -384,184 -982,717 -1318,1213 -67,99 -1118,2664 -1127,2696 328,-244 649,-514 936,-798 875,-868 1434,-1883 1893,-3151 l 9,-24 z"
   id="path34" />
  <path
   class="fil9"
   d="m 16151,6311 c -782,318 -1922,1152 -2664,1638 -741,486 -1083,623 -1440,708 -357,85 -728,117 -699,742 29,626 459,1845 573,2643 115,798 -86,1176 -334,1369 -248,193 -544,200 -543,497 1,298 298,885 18,1680 -280,795 -1138,1797 -1695,1857 -557,60 -814,-822 -1275,-1454 -461,-632 -1125,-1014 -1450,-1802 -325,-788 -311,-1982 -117,-2615 194,-632 568,-703 648,-1251 80,-549 -135,-1575 -152,-2269 -17,-694 163,-1055 469,-1350 306,-295 736,-524 951,-847 215,-323 215,-739 782,-1416 566,-677 1699,-1614 2790,-2124 1090,-510 2137,-594 2984,-643 846,-49 1492,-63 2009,-11 517,52 906,170 1104,463 198,293 204,761 298,869 94,108 275,-145 692,-299 417,-154 1069,-210 1729,137 660,347 1326,1097 2017,2194 691,1097 1406,2541 1444,3701 38,1160 -601,2034 -573,2826 28,792 722,1500 628,2125 -94,625 -976,1166 -1080,1538 -104,371 569,573 433,1142 -137,569 -1083,1507 -1830,1712 -747,205 -1294,-322 -1585,-881 -291,-558 -326,-1148 -411,-1462 -85,-314 -219,-353 -146,-760 74,-407 355,-1182 406,-1715 51,-533 -130,-825 -61,-1231 69,-406 389,-927 320,-1260 -69,-333 -525,-479 -650,-871 -125,-392 82,-1031 39,-1323 -42,-292 -334,-236 -542,-319 -208,-83 -333,-306 -493,-486 -160,-181 -354,-319 -521,-542 -167,-222 -306,-528 -587,-779 -281,-252 -705,-450 -1487,-131 z"
   id="path36" />
  <path
   class="fil10"
   d="m 18800,5958 c -28,42 28,486 194,771 167,285 444,410 736,597 292,187 597,437 715,792 118,354 49,812 14,1042 -35,229 -35,229 76,62 111,-167 333,-500 444,-833 111,-333 111,-667 -83,-923 -194,-257 -583,-437 -923,-562 -340,-125 -632,-194 -833,-410 -201,-215 -312,-576 -340,-535 z"
   id="path38" />
  <path
   class="fil10"
   d="m 23380,13040 c 128,187 149,361 45,535 -104,174 -333,347 -555,503 -222,156 -437,295 -496,524 -59,229 38,549 187,781 149,233 351,378 448,555 97,177 90,385 14,601 -76,215 -222,437 -347,632 -125,194 -229,361 -233,222 -3,-139 94,-583 83,-906 -10,-323 -128,-524 -330,-733 -201,-208 -486,-424 -597,-663 -111,-240 -49,-503 76,-708 125,-205 312,-351 542,-479 229,-128 500,-240 670,-326 170,-87 240,-149 242,-273 3,-123 -62,-307 -131,-460 -69,-153 -144,-274 -63,-234 81,40 317,241 445,429 z"
   id="path40" />
  <path
   class="fil10"
   d="m 18639,4038 c 170,-90 413,-229 667,-323 253,-94 517,-142 798,3 281,146 580,486 812,774 233,288 399,524 583,590 184,66 385,-38 486,-90 101,-52 101,-52 17,-56 -83,-3 -250,-10 -406,-149 -156,-139 -302,-410 -472,-698 -170,-288 -365,-594 -555,-746 -191,-153 -378,-153 -625,-76 -247,76 -552,229 -840,399 -288,170 -559,358 -646,430 -87,73 10,31 181,-59 z"
   id="path42" />
  <path
   class="fil10"
   d="m 17054,4042 c -51,-256 -180,-670 -351,-859 -171,-189 -384,-152 -633,-207 -249,-55 -535,-202 -890,-168 -355,34 -778,248 -1037,559 -259,311 -354,720 -247,759 107,39 416,-292 738,-460 323,-169 659,-175 902,-146 243,29 394,94 540,169 146,75 289,159 275,219 -14,60 -184,97 -342,125 -158,28 -304,47 -494,152 -190,105 -424,295 -574,537 -151,241 -218,533 -115,601 103,68 376,-88 675,-224 299,-136 623,-253 879,-224 255,29 441,204 485,146 44,-58 -55,-350 -48,-477 8,-126 123,-88 193,-117 70,-30 96,-128 45,-384 z"
   id="path44" />
  <g
   id="_2067153973216">
   <path
   class="fil4"
   d="m 13840,11867 c -37,55 -143,159 -313,236 -170,77 -404,127 -634,119 -230,-8 -455,-74 -622,-173 -167,-100 -277,-233 -346,-381 -69,-148 -96,-311 -56,-328 40,-17 147,112 291,224 145,112 327,207 496,264 169,58 324,79 466,89 142,10 269,10 382,-11 112,-21 209,-62 274,-80 65,-18 98,-13 62,41 z"
   id="path46" />
   <path
   class="fil4"
   d="m 14277,10777 c -50,-134 -136,-265 -245,-366 -109,-102 -241,-175 -424,-223 -183,-49 -417,-74 -603,-59 -186,14 -323,68 -457,134 -134,66 -266,145 -367,232 -101,87 -172,181 -227,254 -54,73 -91,125 -115,152 -24,27 -34,28 -45,-12 -12,-41 -26,-124 43,-259 69,-136 221,-324 347,-463 126,-139 225,-229 435,-286 211,-57 532,-80 807,-43 275,36 502,131 660,212 158,81 246,147 314,298 68,151 116,386 118,536 2,150 -43,216 -78,253 -35,36 -59,43 -79,-22 -20,-65 -34,-202 -84,-336 z"
   id="path48" />
   <path
   class="fil5"
   d="m 14356,11185 c 3,-119 3,-266 -58,-417 -61,-151 -183,-307 -398,-425 -215,-118 -522,-198 -797,-193 -274,5 -515,96 -715,264 -199,168 -357,413 -446,537 -89,124 -111,126 -45,223 65,97 217,289 385,425 168,136 352,217 548,271 197,54 406,82 616,53 209,-29 418,-115 567,-197 149,-82 238,-161 285,-246 48,-85 54,-176 58,-295 z"
   id="path50" />
   <path
   class="fil6"
   d="m 14359,11099 c 5,-34 13,-180 -54,-347 -67,-167 -209,-353 -357,-467 -148,-114 -300,-155 -466,-179 -166,-24 -345,-31 -469,-22 -124,9 -193,33 -274,59 -81,26 -174,52 -242,61 -69,9 -113,-1 -179,-30 -66,-29 -154,-78 -197,-136 -43,-58 -40,-126 -47,-127 -7,-1 -25,65 -4,135 20,71 79,147 125,191 46,44 80,56 96,71 16,14 13,30 -13,47 -27,17 -78,35 -150,41 -73,6 -167,1 -243,-26 -76,-27 -132,-77 -160,-101 -28,-25 -28,-25 -9,1 19,26 57,78 124,123 67,46 163,86 220,105 57,19 75,18 76,30 1,12 -16,36 -36,59 -20,23 -43,43 -94,54 -51,11 -131,12 -207,-9 -76,-21 -147,-65 -189,-97 -42,-32 -55,-53 -50,-38 5,15 28,66 91,117 62,51 164,101 221,126 57,25 70,24 69,32 -1,8 -14,25 -41,41 -27,16 -66,31 -129,30 -63,-1 -149,-18 -211,-50 -62,-32 -100,-80 -119,-104 -19,-24 -19,-24 -2,4 16,28 49,84 91,136 41,53 91,102 148,145 57,44 121,83 155,95 34,13 37,0 71,-53 34,-53 100,-146 177,-244 77,-98 165,-201 267,-282 102,-80 219,-137 323,-181 104,-44 195,-75 287,-94 92,-19 185,-25 302,-15 117,10 257,36 377,73 120,37 219,86 301,151 83,65 149,147 201,220 52,73 90,137 123,190 33,53 62,95 78,156 15,61 17,141 22,107 z"
   id="path52" />
   <ellipse
   class="fil7"
   transform="matrix(1.17277,0.285531,-0.285531,1.17277,13136.7,11072.1)"
   rx="607"
   ry="574"
   id="ellipse54"
   cx="0"
   cy="0" />
   <path
   class="fil6"
   d="m 14208,11591 c -136,78 -271,157 -398,212 -127,55 -245,88 -407,95 -162,7 -367,-10 -542,-51 -175,-41 -321,-104 -447,-182 -126,-78 -232,-172 -305,-249 -73,-77 -113,-138 -143,-175 -30,-38 -49,-52 -88,-55 -38,-3 -96,7 -148,38 -52,31 -99,84 -146,137 85,-29 170,-57 229,-57 59,0 92,28 78,66 -14,38 -75,85 -111,120 -36,35 -47,58 -58,82 75,-52 150,-103 226,-97 76,6 153,70 175,107 22,37 -10,48 -49,76 -38,28 -82,72 -126,116 85,-38 169,-77 253,-73 84,3 168,48 232,81 64,33 108,53 110,81 2,28 -38,63 -71,104 -33,41 -59,86 -86,132 115,-60 229,-120 353,-132 124,-13 258,21 426,31 167,10 368,-4 547,-76 179,-72 337,-201 495,-330 z"
   id="path56" />
   <ellipse
   class="fil6"
   transform="matrix(0.485804,0.118277,-0.118277,0.485804,13128.3,11064.5)"
   rx="607"
   ry="574"
   id="ellipse58"
   cx="0"
   cy="0" />
   <path
   class="fil8"
   d="m 13010,10554 c 163,40 264,197 227,351 -37,154 -200,247 -363,207 -163,-40 -264,-197 -227,-351 37,-154 200,-247 363,-207 z"
   id="path60" />
  </g>
  <path
   class="fil6"
   d="m 14376,9155 c -118,-54 -303,-149 -599,-228 -296,-80 -702,-144 -1020,-135 -318,9 -548,91 -746,200 -199,109 -367,244 -423,265 -56,21 0,-74 163,-247 163,-174 434,-427 649,-568 215,-141 374,-171 688,-144 314,27 782,109 1097,190 315,81 477,160 555,255 78,94 72,203 34,289 -38,85 -109,147 -169,171 -60,24 -110,9 -228,-46 z"
   id="path63" />
  <path
   class="fil10"
   d="m 10035,9497 c 118,215 437,1160 465,1806 27,647 -238,996 -431,1235 -193,239 -315,368 -250,770 65,402 316,1077 231,1623 -84,545 -504,961 -714,1169 -210,208 -210,208 -71,-98 139,-306 417,-917 410,-1423 -7,-507 -299,-910 -399,-1295 -101,-386 -11,-755 170,-1019 181,-264 452,-422 573,-731 122,-308 94,-767 38,-1253 -56,-486 -139,-1000 -21,-785 z"
   id="path65" />
 </g>
</svg>
