<?xml version="1.0" encoding="UTF-8" standalone="no"?>
<svg
  class="twarz twarz--right"
  data-face="snow"
   xmlns:dc="http://purl.org/dc/elements/1.1/"
   xmlns:cc="http://creativecommons.org/ns#"
   xmlns:rdf="http://www.w3.org/1999/02/22-rdf-syntax-ns#"
   xmlns:svg="http://www.w3.org/2000/svg"
   xmlns="http://www.w3.org/2000/svg"
   xmlns:sodipodi="http://sodipodi.sourceforge.net/DTD/sodipodi-0.dtd"
   xmlns:inkscape="http://www.inkscape.org/namespaces/inkscape"
   xml:space="preserve"
   width="78.227791mm"
   height="90.504601mm"
   version="1.0"
   style="clip-rule:evenodd;fill-rule:evenodd;image-rendering:optimizeQuality;shape-rendering:geometricPrecision;text-rendering:geometricPrecision"
   viewBox="0 0 7822.7791 9050.4601"
   id="svg71"
   sodipodi:docname="face.svg"
   inkscape:version="1.0.1 (3bc2e813f5, 2020-09-07)"><metadata
   id="metadata75"><rdf:RDF><cc:Work
       rdf:about=""><dc:format>image/svg+xml</dc:format><dc:type
         rdf:resource="http://purl.org/dc/dcmitype/StillImage" /></cc:Work></rdf:RDF></metadata><sodipodi:namedview
   pagecolor="#ffffff"
   bordercolor="#666666"
   borderopacity="1"
   objecttolerance="10"
   gridtolerance="10"
   guidetolerance="10"
   inkscape:pageopacity="0"
   inkscape:pageshadow="2"
   inkscape:window-width="1857"
   inkscape:window-height="1057"
   id="namedview73"
   showgrid="false"
   inkscape:zoom="1.1162388"
   inkscape:cx="110.01369"
   inkscape:cy="139.43883"
   inkscape:window-x="55"
   inkscape:window-y="-8"
   inkscape:window-maximized="1"
   inkscape:current-layer="_1552220717024"
   inkscape:document-rotation="0" />
 <defs
   id="defs4">
  <style
   type="text/css"
   id="style2">

    .snow__fill3 {fill:#FEFEFE}
    .snow__fill4 {fill:#2B2A29}
    .snow__fill9 {fill:#2B2A29}
    .snow__fill0 {fill:#FCECE9}
    .snow__fill1 {fill:#F7D1C8}
    .snow__fill10 {fill:#74291D}
    .snow__fill12 {fill:#444444}
    .snow__fill11 {fill:#2F2F2E}
    .snow__fill5 {fill:#29533E}
    .snow__fill6 {fill:#152C20}
    .snow__fill7 {fill:#FEFEFE;fill-opacity:0.501961}
    .snow__fill8 {fill:#F7D1C8;fill-opacity:0.501961}
    .snow__fill2 {fill:#CD877A;fill-opacity:0.501961}

  </style>
 
  
  
 </defs>
 <g
   id="_1552220717024"
   transform="translate(-11939.221,-5862.5563)">
   <path
   class="snow__fill0 face"
   d="m 18593,8243 c 187,404 324,987 299,1677 -25,690 -212,1485 -451,2148 -240,663 -532,1194 -990,1647 -457,454 -1080,831 -1467,1002 -387,171 -540,135 -935,-71 -395,-206 -1033,-583 -1498,-1214 -465,-630 -758,-1515 -882,-2328 -124,-813 -81,-1556 59,-2169 140,-613 377,-1096 750,-1450 373,-354 884,-578 1463,-657 579,-80 1226,-15 1736,103 510,118 884,289 1189,486 305,197 541,421 728,825 z"
   id="snow__face"
   style="opacity:1" />
   <path
   class="snow__fill1 face"
   d="m 15852,10826 c 0,197 -22,507 9,689 31,183 114,239 181,356 67,117 118,293 83,395 -34,101 -154,127 -221,170 -67,42 -80,101 -138,129 -58,28 -161,24 -206,-8 -45,-32 -32,-93 -84,-132 -52,-39 -169,-56 -228,-122 -59,-66 -62,-182 -13,-297 48,-115 147,-230 183,-413 36,-184 9,-436 11,-638 2,-202 34,-353 102,-427 68,-74 171,-69 234,-25 63,44 86,128 87,325 z"
   id="snow__nose"
   style="opacity:1" />
   <g
   id="snow__eye-left"
   style="opacity:1"
   class="face">
    <path
   class="snow__fill2"
   d="m 14830,11151 c -12,32 -53,98 -130,159 -77,60 -190,115 -307,139 -118,24 -240,19 -337,-11 -97,-30 -170,-84 -223,-151 -53,-67 -87,-146 -69,-160 18,-13 88,39 176,78 87,39 192,65 284,73 93,8 174,0 248,-13 73,-12 138,-28 193,-53 55,-24 99,-57 129,-75 31,-17 48,-19 36,13 z"
   id="path11" />
    <path
   class="snow__fill2"
   d="m 14917,10543 c -42,-62 -102,-118 -170,-156 -68,-38 -144,-59 -243,-61 -99,-2 -221,14 -314,45 -93,30 -156,74 -216,125 -60,50 -117,107 -158,163 -41,57 -65,113 -84,157 -18,44 -31,75 -39,91 -9,17 -14,19 -25,-1 -11,-19 -28,-60 -10,-137 18,-77 72,-192 119,-278 47,-86 86,-144 186,-199 100,-55 261,-106 405,-122 144,-16 271,5 361,26 90,22 143,45 196,113 53,68 107,182 126,258 19,76 5,115 -8,138 -13,23 -25,29 -43,-1 -18,-31 -42,-99 -84,-160 z"
   id="path13" />
    <path
   class="snow__fill3"
   d="m 15008,10741 c -13,-61 -31,-135 -81,-205 -50,-69 -131,-134 -255,-167 -124,-33 -290,-36 -429,1 -139,37 -250,113 -330,223 -80,110 -130,254 -160,328 -30,74 -41,78 5,119 45,41 146,120 248,168 102,48 205,67 312,70 107,3 217,-9 319,-49 103,-41 198,-110 264,-170 65,-60 101,-111 115,-160 14,-49 6,-96 -7,-157 z"
   id="path15" />
    <path
   class="snow__fill4"
   d="m 14998,10697 c -2,-18 -16,-93 -70,-170 -55,-76 -150,-154 -239,-193 -89,-40 -172,-42 -259,-33 -87,8 -179,27 -241,47 -62,20 -94,41 -132,64 -38,23 -82,48 -115,61 -34,13 -57,14 -95,7 -37,-7 -88,-21 -117,-45 -29,-24 -36,-59 -40,-59 -4,0 -5,36 15,69 19,33 58,65 87,81 29,17 48,19 57,24 10,5 10,14 -1,25 -11,12 -35,27 -71,39 -36,12 -85,21 -127,17 -42,-5 -77,-23 -94,-32 -17,-9 -17,-9 -5,2 13,11 39,32 78,47 40,15 93,23 125,26 31,3 40,0 42,6 2,6 -4,21 -11,34 -7,14 -16,27 -41,39 -25,12 -65,22 -106,21 -41,-1 -83,-15 -108,-26 -25,-11 -34,-20 -30,-13 5,7 23,30 61,48 38,18 96,31 128,37 32,6 38,3 39,8 1,4 -4,15 -16,26 -11,11 -30,24 -62,31 -32,7 -78,9 -113,1 -35,-9 -61,-28 -73,-38 -13,-10 -13,-10 -1,2 12,12 35,37 63,58 27,22 59,40 93,56 34,15 72,27 90,29 19,2 19,-4 30,-36 11,-31 33,-86 60,-146 27,-59 59,-123 101,-176 42,-53 94,-97 142,-132 47,-35 90,-62 134,-83 45,-21 91,-35 152,-45 61,-9 135,-14 200,-9 65,4 122,17 172,40 50,23 94,56 129,87 35,31 63,58 86,81 24,23 43,41 59,70 15,29 26,69 25,52 z"
   id="path17" />
    <ellipse
   class="snow__fill5"
   cx="14374"
   cy="10834"
   rx="383"
   ry="362"
   id="ellipse19" />
    <path
   class="snow__fill4"
   d="m 14983,10965 c -59,57 -119,113 -176,157 -58,44 -114,75 -195,99 -81,24 -188,40 -282,41 -94,1 -176,-13 -249,-37 -74,-24 -139,-59 -186,-89 -47,-30 -74,-56 -94,-71 -20,-15 -31,-20 -51,-17 -20,3 -48,15 -70,38 -23,22 -40,55 -57,88 40,-25 79,-50 109,-57 30,-7 50,3 48,24 -2,21 -27,52 -41,74 -14,22 -17,35 -19,49 32,-35 63,-71 103,-77 39,-6 86,17 102,33 16,16 1,26 -15,45 -16,19 -33,47 -50,75 38,-30 77,-60 120,-69 43,-9 91,4 128,13 37,9 62,14 66,27 5,14 -11,37 -23,62 -12,25 -19,51 -27,78 51,-45 102,-89 163,-111 62,-22 134,-21 220,-37 86,-16 186,-48 269,-106 82,-59 146,-144 211,-229 z"
   id="path21" />
    <ellipse
   class="snow__fill6"
   cx="14369"
   cy="10831"
   rx="159"
   ry="150"
   id="ellipse23" />
    <path
   class="snow__fill7"
   d="m 14246,10587 c 88,0 159,67 159,150 0,83 -71,150 -159,150 -88,0 -159,-67 -159,-150 0,-83 71,-150 159,-150 z"
   id="path25" />
   </g>
   <path
   class="snow__fill4 face"
   d="m 15015,9858 c -62,-28 -159,-78 -313,-119 -155,-42 -367,-75 -533,-71 -166,5 -286,48 -390,105 -104,57 -192,128 -221,139 -29,11 0,-38 85,-129 85,-91 227,-223 339,-297 112,-74 196,-89 359,-75 164,14 409,57 573,99 165,42 249,84 290,133 41,49 38,106 18,151 -20,45 -57,77 -89,89 -32,12 -58,5 -119,-24 z"
   id="snow__eyebrow-left"
   style="opacity:1" />
   <g
   id="snow__eye-right"
   style="opacity:1"
   class="face">
    <path
   class="snow__fill2"
   d="m 16424,11112 c 12,32 53,98 130,159 77,60 190,114 307,139 118,24 240,19 337,-11 97,-30 170,-84 223,-151 53,-67 87,-146 69,-160 -18,-13 -88,39 -176,78 -87,39 -192,65 -284,73 -93,8 -174,0 -248,-13 -73,-12 -138,-28 -193,-53 -55,-24 -99,-57 -129,-75 -31,-17 -48,-19 -36,13 z"
   id="path31" />
    <path
   class="snow__fill2"
   d="m 16360,10508 c 42,-62 102,-118 170,-156 68,-38 144,-59 243,-61 99,-2 221,14 314,45 93,30 156,74 216,125 60,50 117,107 158,163 41,57 65,113 84,157 18,44 31,75 39,91 9,17 14,19 25,-1 11,-19 28,-60 10,-137 -18,-77 -72,-192 -119,-278 -47,-86 -86,-144 -186,-199 -100,-55 -261,-106 -405,-122 -144,-16 -271,5 -361,26 -90,22 -143,45 -196,113 -53,68 -107,182 -126,258 -19,76 -5,115 8,138 13,23 25,29 43,-1 18,-31 42,-99 84,-160 z"
   id="path33" />
    <path
   class="snow__fill3"
   d="m 16269,10705 c 13,-61 31,-135 81,-205 50,-69 131,-134 255,-167 124,-33 290,-36 429,1 139,37 250,113 330,223 80,110 130,254 160,328 30,74 41,78 -5,119 -45,41 -146,120 -248,168 -102,48 -205,67 -312,70 -107,3 -217,-9 -319,-49 -103,-41 -198,-110 -264,-170 -65,-60 -101,-111 -115,-160 -14,-49 -6,-96 7,-157 z"
   id="path35" />
    <path
   class="snow__fill4"
   d="m 16279,10661 c 2,-18 16,-93 70,-170 55,-76 150,-154 239,-193 89,-40 172,-42 259,-33 87,8 179,27 241,47 62,20 94,41 132,64 38,23 82,48 115,61 34,13 57,14 95,7 37,-7 88,-21 117,-45 29,-24 36,-59 40,-59 4,0 5,36 -15,69 -19,33 -58,65 -87,81 -29,17 -48,19 -57,24 -10,5 -10,14 1,25 11,12 35,27 71,39 36,12 85,21 127,17 42,-5 77,-23 94,-32 17,-9 17,-9 5,2 -13,11 -39,32 -78,47 -40,15 -93,23 -125,26 -31,3 -40,0 -42,6 -2,6 4,21 11,34 7,14 16,27 41,39 25,12 65,22 106,21 41,-1 83,-15 108,-26 25,-11 34,-20 30,-13 -5,7 -23,30 -61,48 -38,18 -96,31 -128,37 -32,6 -38,3 -39,8 -1,4 4,15 16,26 11,11 30,24 62,31 32,7 78,9 113,1 35,-9 61,-28 73,-38 13,-10 13,-10 1,2 -12,12 -35,37 -63,58 -27,22 -59,40 -93,56 -34,15 -72,27 -90,29 -19,2 -19,-4 -30,-36 -11,-31 -33,-86 -60,-146 -27,-59 -59,-123 -101,-176 -42,-53 -94,-97 -142,-132 -47,-35 -90,-62 -134,-83 -45,-21 -91,-35 -152,-45 -61,-9 -135,-14 -200,-9 -65,4 -122,17 -172,40 -50,23 -94,56 -129,87 -35,31 -63,58 -86,81 -24,23 -43,41 -59,70 -15,29 -26,69 -25,52 z"
   id="path37" />
    <ellipse
   class="snow__fill5"
   cx="16903"
   cy="10799"
   rx="383"
   ry="362"
   id="ellipse39" />
    <path
   class="snow__fill4"
   d="m 16294,10930 c 59,57 118,113 176,157 58,44 114,75 195,99 81,24 188,40 282,41 94,1 176,-13 249,-37 74,-24 139,-59 186,-89 47,-30 74,-56 94,-71 20,-15 31,-20 51,-17 20,3 48,15 70,38 23,22 40,55 57,88 -40,-25 -79,-50 -109,-57 -30,-7 -50,3 -48,24 2,21 27,52 41,74 14,22 17,35 19,49 -32,-35 -63,-71 -103,-77 -39,-6 -86,17 -102,33 -16,16 -1,26 15,45 16,19 33,47 50,75 -38,-30 -77,-60 -120,-69 -43,-9 -91,4 -128,13 -37,9 -62,14 -66,27 -5,14 11,37 23,62 12,25 19,51 27,78 -51,-45 -102,-89 -163,-111 -62,-22 -134,-21 -220,-37 -86,-16 -186,-48 -269,-106 -82,-59 -146,-144 -211,-229 z"
   id="path41" />
    <ellipse
   class="snow__fill6"
   cx="16908"
   cy="10796"
   rx="159"
   ry="150"
   id="ellipse43" />
    <path
   class="snow__fill7"
   d="m 16751,10552 c -88,0 -159,67 -159,150 0,83 71,150 159,150 88,0 159,-67 159,-150 0,-83 -71,-150 -159,-150 z"
   id="path45" />
   </g>
   <path
   class="snow__fill4 face"
   d="m 16278,9796 c 62,-28 159,-78 313,-119 155,-42 367,-75 533,-71 166,5 286,48 390,105 104,57 192,128 221,139 29,11 0,-38 -85,-129 -85,-91 -227,-223 -339,-297 -112,-74 -196,-89 -359,-75 -164,14 -409,57 -573,99 -165,42 -249,84 -290,133 -41,49 -38,106 -18,151 20,45 57,77 89,89 32,12 58,5 119,-24 z"
   id="snow__eyeborw-right"
   style="opacity:1" />
   <path
   class="snow__fill8 face"
   d="m 14262,14150 c -247,-191 -498,-427 -712,-718 -275,-372 -489,-833 -644,-1315 47,-47 130,-61 260,1 201,96 513,375 689,634 176,259 214,500 259,717 45,217 95,411 127,558 10,46 18,88 22,123 z"
   id="snow__cheek-left"
   style="opacity:1" />
   <path
   class="snow__fill8 face"
   d="m 18445,12055 c -49,-16 -116,-9 -206,34 -201,96 -513,375 -689,634 -35,52 -585,1393 -589,1409 172,-128 339,-268 489,-417 457,-454 750,-984 990,-1647 z"
   id="snow__cheek-right"
   style="opacity:1" />
   <path
   class="snow__fill9 face"
   d="m 15157,8209 c 191,-23 347,-219 564,-277 217,-58 496,22 902,426 406,405 938,1134 1217,1774 279,640 305,1189 296,1649 -9,460 -52,831 -262,1282 -210,451 -586,982 -867,1257 -282,275 -469,292 -657,310 41,30 81,60 178,99 97,39 250,87 714,16 464,-71 1240,-261 1754,-687 514,-426 766,-1088 766,-2177 0,-1090 -252,-2607 -803,-3750 -550,-1143 -1399,-1910 -2137,-2162 -738,-252 -1366,11 -1774,99 -407,88 -593,0 -884,78 -291,78 -688,322 -1049,706 -361,384 -686,909 -909,2115 -223,1207 -345,3095 -211,4202 134,1107 524,1432 1046,1596 523,164 1178,167 1528,126 350,-41 394,-125 438,-209 0,0 0,0 -130,-35 -130,-35 -389,-105 -666,-259 -278,-154 -573,-391 -749,-778 -176,-387 -232,-923 -213,-1575 19,-651 114,-1417 241,-1990 127,-573 287,-953 425,-1244 138,-292 254,-495 350,-624 96,-130 171,-186 322,-140 151,46 378,196 569,172 z"
   id="snow__hair"
   style="opacity:1" />
   <path
   class="snow__fill10 face"
   d="m 13113,8993 c 211,-484 422,-968 762,-1288 340,-320 809,-476 1365,-502 556,-25 1199,80 1704,440 505,361 872,976 1052,1274 181,297 175,276 142,18 -34,-258 -96,-753 -299,-1147 -203,-394 -548,-686 -911,-866 -363,-180 -744,-247 -1130,-265 -386,-18 -776,13 -1171,136 -395,123 -795,338 -1058,587 -262,249 -387,532 -439,806 -53,274 -34,539 -16,804 z"
   id="snow__hairband"
   style="opacity:1" />
   <path
   class="snow__fill11 face"
   d="m 14724,7266 c 318,-106 570,-204 871,-218 301,-14 649,56 924,130 275,74 476,150 687,320 211,169 432,431 586,694 155,263 244,528 306,737 62,209 97,361 128,492 31,131 58,240 -7,316 -65,76 -223,119 -487,106 -264,-13 -635,-82 -932,-134 -297,-52 -520,-88 -711,-171 -191,-83 -350,-214 -466,-332 -116,-118 -190,-223 -267,-325 -77,-102 -159,-200 -221,-276 -62,-76 -105,-131 -143,-80 -39,51 -74,207 -33,383 41,176 157,372 256,492 99,120 180,163 217,201 37,38 29,70 -59,102 -88,32 -255,64 -491,69 -236,5 -540,-18 -791,-24 -251,-7 -450,2 -599,-38 -150,-41 -250,-132 -316,-293 -66,-162 -98,-394 -15,-708 83,-314 280,-709 571,-965 291,-255 674,-370 992,-476 z"
   id="snow__fringe"
   style="opacity:1" />
   <path
   class="snow__fill12"
   d="m 15332,8249 c 30,76 185,283 360,452 175,169 371,300 608,415 237,116 515,217 733,278 218,61 375,81 372,69 -3,-12 -168,-58 -396,-169 -227,-111 -518,-287 -781,-466 -263,-180 -500,-363 -665,-482 -166,-119 -260,-173 -230,-97 z"
   id="path61"
   style="opacity:1" />
   <path
   class="snow__fill12 face"
   d="m 13028,11008 c 0,149 -87,759 -85,1251 2,492 93,866 191,1116 98,250 203,378 167,385 -36,7 -214,-105 -347,-361 -133,-256 -220,-655 -229,-998 -9,-343 60,-630 138,-929 78,-300 165,-612 165,-463 z"
   id="snow__strand-two"
   style="opacity:1" />
   <path
   class="snow__fill12 face"
   d="m 19055,10419 c -44,-20 76,460 113,935 38,476 -6,948 -146,1356 -140,408 -376,753 -390,849 -15,96 192,-56 350,-232 158,-176 267,-376 347,-688 80,-312 131,-737 53,-1209 -78,-472 -284,-992 -328,-1012 z"
   id="snow__strand-three"
   style="opacity:1;stroke-width:1" />
   <path
   class="snow__fill10 face"
   d="m 16056,13076 c -89,-26 -152,-55 -206,-59 -54,-4 -98,18 -133,35 -14,7 -26,13 -37,18 -8,-4 -17,-9 -27,-14 -34,-17 -79,-38 -133,-35 -54,4 -117,33 -206,59 -119,35 -276,84 -394,111 -34,8 -79,8 -91,22 -12,14 10,42 48,56 205,79 -63,398 791,388 811,-9 641,-321 828,-393 38,-15 60,-42 48,-56 -12,-14 -58,-14 -91,-22 -114,-26 -286,-79 -394,-111 z m -461,205 c 105,17 85,15 211,3 -46,33 -83,76 -115,76 0,0 -198,-95 -96,-79 z"
   id="snow__mouth"
   style="opacity:1" />
  </g>
</svg>
