<?xml version="1.0" encoding="UTF-8"?>
<!DOCTYPE svg PUBLIC "-//W3C//DTD SVG 1.0//EN" "http://www.w3.org/TR/2001/REC-SVG-20010904/DTD/svg10.dtd">
<!-- Creator: CorelDRAW 2017 -->
<svg xmlns="http://www.w3.org/2000/svg" xml:space="preserve" width="162.56mm" height="91.4398mm" version="1.0" style="shape-rendering:geometricPrecision; text-rendering:geometricPrecision; image-rendering:optimizeQuality; fill-rule:evenodd; clip-rule:evenodd"
viewBox="0 0 16256 9144"
 xmlns:xlink="http://www.w3.org/1999/xlink">
 <defs>
  <style type="text/css">
   <![CDATA[
    .fil0 {fill:#FEFEFE}
    .fil7 {fill:#2B2A29}
    .fil12 {fill:#2B2A29}
    .fil4 {fill:#FCECE9}
    .fil5 {fill:#F7D1C8}
    .fil1 {fill:#F6DAD6}
    .fil13 {fill:#74291D}
    .fil3 {fill:#7688A1}
    .fil15 {fill:#444444}
    .fil14 {fill:#2F2F2E}
    .fil8 {fill:#29533E}
    .fil9 {fill:#152C20}
    .fil2 {fill:#7688A1;fill-rule:nonzero}
    .fil10 {fill:#FEFEFE;fill-opacity:0.501961}
    .fil11 {fill:#F7D1C8;fill-opacity:0.501961}
    .fil6 {fill:#CD877A;fill-opacity:0.501961}
   ]]>
  </style>
 </defs>
 <g id="Warstwa_x0020_1">
  <metadata id="CorelCorpID_0Corel-Layer"/>
  <rect class="fil0" width="16256" height="9144"/>
  <path class="fil1" d="M9416 3854c81,175 140,427 129,725 -11,298 -92,642 -195,929 -104,287 -230,516 -428,713 -198,196 -467,359 -635,433 -168,74 -233,58 -404,-31 -171,-89 -447,-252 -648,-525 -201,-273 -328,-655 -382,-1007 -54,-352 -35,-673 26,-938 61,-265 163,-474 324,-627 162,-153 382,-250 633,-284 250,-34 530,-6 751,45 221,51 382,125 514,210 132,85 234,182 315,357z"/>
  <path class="fil2" d="M6062 1104l42 0 37 -108 -56 0 -23 108zm-56 -108l-23 108 42 0 37 -108 -56 0zm195 64l65 0 0 -153 21 0c14,0 25,0 31,12l57 115c11,23 23,26 49,26l37 0 0 -55 -9 0c-11,0 -20,-1 -25,-11l-44 -89c-11,-21 -23,-24 -23,-24l0 -1c0,0 11,-6 22,-26l79 -144 -71 0 -71 131c-6,10 -15,11 -28,11l-25 0 0 -109c0,-23 -10,-34 -34,-34l-63 0 0 55 21 0c7,0 11,4 11,11l0 285zm305 0l62 0 0 -100c0,-15 2,-29 5,-41 11,-38 42,-53 69,-53 9,0 15,1 15,1l0 -62c0,0 -6,-1 -11,-1 -39,0 -69,29 -80,65l-1 0c0,0 1,-6 1,-16l0 -15c0,-21 -11,-31 -34,-31l-57 0 0 53 20 0c7,0 11,3 11,11l0 188zm169 -126c0,78 61,132 138,132 77,0 138,-54 138,-132 0,-77 -61,-132 -138,-132 -77,0 -138,55 -138,132zm63 0c0,-46 34,-79 75,-79 41,0 75,32 75,79 0,47 -34,79 -75,79 -41,0 -75,-32 -75,-79zm51 -158l46 0 52 -67 -60 0 -38 67zm213 250c0,24 10,34 34,34l59 0 0 -53 -19 0c-7,0 -11,-4 -11,-11l0 -253c0,-23 -10,-34 -34,-34l-60 0 0 53 20 0c7,0 11,3 11,11l0 253zm120 -92c0,72 52,132 135,132 63,0 101,-38 101,-38l-26 -43c0,0 -30,28 -71,28 -38,0 -71,-23 -76,-68l174 0c0,0 1,-16 1,-23 0,-67 -40,-120 -112,-120 -76,0 -128,54 -128,132zm66 -33c7,-32 30,-51 62,-51 26,0 46,21 47,51l-109 0zm279 159l71 0 42 -144c4,-13 6,-27 6,-27l1 0c0,0 2,14 6,27l43 144 71 0 60 -190c3,-7 6,-9 14,-9l7 0 0 -53 -43 0c-21,0 -31,6 -36,26l-37 140c-3,13 -5,27 -5,27l-1 0c0,0 -1,-13 -5,-27l-47 -164 -55 0 -46 164c-4,13 -6,27 -6,27l-1 0c0,0 -1,-13 -5,-27l-37 -140c-5,-19 -15,-26 -36,-26l-43 0 0 53 7 0c7,0 11,1 14,9l60 190zm367 0l62 0 0 -116c0,-12 1,-23 5,-34 9,-30 34,-51 68,-51 32,0 40,21 40,51l0 116c0,24 10,34 34,34l60 0 0 -53 -20 0c-7,0 -11,-4 -11,-11l0 -98c0,-67 -32,-96 -88,-96 -51,0 -78,31 -89,52l-1 0c0,0 1,-5 1,-11l0 -7c0,-18 -11,-28 -33,-28l-58 0 0 53 20 0c7,0 11,3 11,11l0 188zm293 -73c0,50 41,79 86,79 57,0 76,-44 76,-44l1 0c0,0 -1,4 -1,11 0,15 9,28 32,28l56 0 0 -53 -20 0c-7,0 -11,-4 -11,-11l0 -94c0,-56 -25,-100 -109,-100 -26,0 -92,5 -92,52l0 27 58 0 0 -13c0,-14 22,-17 34,-17 32,0 46,13 46,49l0 2 -8 0c-41,0 -150,6 -150,85zm63 -3c0,-35 52,-40 84,-40l11 0 0 6c0,31 -24,66 -57,66 -26,0 -38,-16 -38,-33zm344 27c0,0 43,54 121,54 74,0 117,-47 117,-103 0,-115 -165,-103 -165,-163 0,-22 22,-38 51,-38 23,0 46,11 46,27l0 16 58 0 0 -33c0,-50 -63,-69 -104,-69 -68,0 -117,42 -117,99 0,109 165,104 165,164 0,27 -24,41 -50,41 -49,0 -85,-41 -85,-41l-37 45zm99 -325l46 0 52 -67 -60 0 -38 67zm200 374l62 0 0 -116c0,-12 1,-23 5,-34 9,-30 34,-51 68,-51 32,0 40,21 40,51l0 116c0,24 10,34 34,34l60 0 0 -53 -20 0c-7,0 -11,-4 -11,-11l0 -98c0,-67 -32,-96 -88,-96 -51,0 -78,31 -89,52l-1 0c0,0 1,-5 1,-11l0 -7c0,-18 -11,-28 -33,-28l-58 0 0 53 20 0c7,0 11,3 11,11l0 188zm323 -293l54 0 0 -58 -54 0 0 58zm-3 259c0,24 10,34 33,34l60 0 0 -53 -20 0c-7,0 -11,-4 -11,-11l0 -155c0,-23 -10,-34 -33,-34l-60 0 0 53 20 0c7,0 11,3 11,11l0 154zm121 -92c0,72 52,132 135,132 63,0 101,-38 101,-38l-26 -43c0,0 -30,28 -71,28 -38,0 -71,-23 -76,-68l174 0c0,0 1,-16 1,-23 0,-67 -40,-120 -112,-120 -76,0 -128,54 -128,132zm66 -33c7,-32 30,-51 62,-51 26,0 46,21 47,51l-109 0zm206 159l196 0c23,0 33,-10 33,-34l0 -44 -57 0 0 14c0,7 -4,11 -11,11l-55 0c-16,0 -24,1 -24,1l0 -1c0,0 10,-9 21,-23l116 -142 0 -34 -185 0c-24,0 -34,10 -34,34l0 45 57 0 0 -14c0,-7 4,-11 11,-11l45 0c16,0 23,-1 23,-1l0 1c0,0 -10,9 -21,23l-116 142 0 34zm89 -293l54 0 0 -57 -54 0 0 57zm189 293l63 0 0 -110 14 0c8,0 18,1 23,9l42 79c10,18 18,22 40,22l46 0 0 -53 -17 0c-12,0 -17,-2 -21,-9l-29 -54c-9,-16 -18,-20 -18,-20l0 -1c0,0 8,-4 19,-20l64 -95 -70 0 -51 80c-5,8 -16,9 -24,9l-19 0 0 -159c0,-23 -10,-29 -34,-29l-60 0 0 53 20 0c7,0 11,3 11,11l0 286zm249 -73c0,50 41,79 86,79 57,0 76,-44 76,-44l1 0c0,0 -1,4 -1,11 0,15 9,28 32,28l56 0 0 -53 -20 0c-7,0 -11,-4 -11,-11l0 -94c0,-56 -25,-100 -109,-100 -26,0 -92,5 -92,52l0 27 58 0 0 -13c0,-14 22,-17 34,-17 32,0 46,13 46,49l0 2 -8 0c-41,0 -150,6 -150,85zm63 -3c0,-35 52,-40 84,-40l11 0 0 6c0,31 -24,66 -57,66 -26,0 -38,-16 -38,-33zm279 -173l42 0 37 -108 -56 0 -23 108zm-79 0l42 0 37 -108 -56 0 -23 108z"/>
  <path class="fil3" d="M5681 3698c-40,-9 -118,-34 -173,-31 -55,3 -88,34 -68,54 20,20 92,29 145,40 52,11 84,23 100,33 15,10 14,18 11,28 -2,10 -5,22 10,23 15,1 49,-8 87,-12 38,-5 81,-5 88,-20 7,-16 -22,-47 -45,-73 -23,-26 -41,-47 -53,-62 -13,-15 -20,-24 -29,-19 -9,4 -18,21 -24,32 -6,11 -8,17 -48,7z"/>
  <path class="fil2" d="M2893 3432l30 0 0 -6c0,-5 0,-8 0,-8l0 0c0,0 11,18 38,18 33,0 58,-26 58,-66 0,-39 -22,-66 -56,-66 -27,0 -38,18 -38,18l0 0c0,0 0,-4 0,-11l0 -37c0,-12 -5,-17 -17,-17l-30 0 0 27 10 0c3,0 5,2 5,5l0 143zm30 -62c0,-28 15,-40 32,-40 19,0 31,16 31,40 0,25 -15,39 -32,39 -21,0 -31,-19 -31,-39zm110 26c0,25 21,39 43,39 28,0 38,-22 38,-22l0 0c0,0 0,2 0,5 0,7 4,14 16,14l28 0 0 -26 -10 0c-3,0 -5,-2 -5,-5l0 -47c0,-28 -12,-50 -54,-50 -13,0 -46,2 -46,26l0 13 29 0 0 -7c0,-7 11,-8 17,-8 16,0 23,7 23,25l0 1 -4 0c-20,0 -75,3 -75,43zm32 -1c0,-18 26,-20 42,-20l5 0 0 3c0,15 -12,33 -29,33 -13,0 -19,-8 -19,-16zm119 38l31 0 0 -50c0,-7 1,-14 3,-21 6,-19 21,-26 34,-26 4,0 8,0 8,0l0 -31c0,0 -3,-1 -6,-1 -19,0 -34,14 -40,32l0 0c0,0 0,-3 0,-8l0 -7c0,-11 -6,-15 -17,-15l-29 0 0 27 10 0c3,0 5,2 5,5l0 94zm84 -63c0,39 22,66 56,66 29,0 39,-20 39,-20l0 0c0,0 0,2 0,5 0,7 4,13 16,13l29 0 0 -26 -10 0c-3,0 -5,-2 -5,-5l0 -127c0,-12 -5,-17 -17,-17l-30 0 0 27 10 0c3,0 5,2 5,5l0 22c0,4 0,7 0,7l-1 0c0,0 -9,-15 -36,-15 -33,0 -57,26 -57,66zm63 40c-19,0 -31,-16 -31,-40 0,-25 14,-39 32,-39 21,0 31,19 31,39 0,28 -15,40 -32,40zm89 23l98 0c12,0 17,-5 17,-17l0 -22 -28 0 0 7c0,4 -2,5 -5,5l-28 0c-8,0 -12,1 -12,1l0 0c0,0 5,-5 11,-12l58 -71 0 -17 -92 0c-12,0 -17,5 -17,17l0 22 28 0 0 -7c0,-3 2,-5 5,-5l23 0c8,0 12,0 12,0l0 0c0,0 -5,4 -11,12l-58 71 0 17zm125 -63c0,39 31,66 69,66 39,0 69,-27 69,-66 0,-39 -31,-66 -69,-66 -38,0 -69,27 -69,66zm32 0c0,-23 17,-39 37,-39 20,0 38,16 38,39 0,23 -17,39 -38,39 -20,0 -37,-16 -37,-39zm188 0c0,37 27,66 68,66 34,0 53,-23 53,-23l-13 -22c0,0 -16,17 -37,17 -20,0 -39,-13 -39,-39 0,-23 16,-39 37,-39 8,0 18,3 18,10l0 7 28 0 0 -15c0,-22 -29,-28 -46,-28 -43,0 -69,30 -69,66zm148 -83l27 0 0 -29 -27 0 0 29zm-1 130c0,12 5,17 17,17l30 0 0 -26 -10 0c-3,0 -5,-2 -5,-5l0 -77c0,-12 -5,-17 -17,-17l-30 0 0 27 10 0c3,0 5,2 5,5l0 77zm60 -46c0,36 26,66 68,66 31,0 51,-19 51,-19l-13 -22c0,0 -15,14 -35,14 -19,0 -35,-12 -38,-34l87 0c0,0 1,-8 1,-12 0,-33 -20,-60 -56,-60 -38,0 -64,27 -64,66zm33 -16c3,-16 15,-25 31,-25 13,0 23,10 24,25l-55 0zm117 79l31 0 0 -55c0,-6 1,-11 2,-16 4,-16 15,-29 30,-29 15,0 17,12 17,25l0 75 31 0 0 -55c0,-6 0,-11 2,-16 3,-16 15,-29 30,-29 15,0 17,11 17,25l0 58c0,12 5,17 17,17l30 0 0 -26 -10 0c-3,0 -5,-2 -5,-5l0 -49c0,-33 -15,-48 -41,-48 -20,0 -36,12 -43,26l0 0c-5,-17 -18,-26 -37,-26 -20,0 -35,14 -41,26l0 0c0,0 0,-3 0,-5l0 -4c0,-9 -5,-14 -17,-14l-29 0 0 27 10 0c3,0 5,2 5,5l0 94zm233 0l31 0 0 -58c0,-6 1,-12 2,-17 4,-15 17,-26 34,-26 16,0 20,10 20,26l0 58c0,12 5,17 17,17l30 0 0 -26 -10 0c-3,0 -5,-2 -5,-5l0 -49c0,-33 -16,-48 -44,-48 -25,0 -39,16 -44,26l0 0c0,0 0,-3 0,-5l0 -4c0,-9 -5,-14 -17,-14l-29 0 0 27 10 0c3,0 5,2 5,5l0 94zm146 -63c0,36 26,66 68,66 31,0 51,-19 51,-19l-13 -22c0,0 -15,14 -35,14 -19,0 -35,-12 -38,-34l87 0c0,0 1,-8 1,-12 0,-33 -20,-60 -56,-60 -38,0 -64,27 -64,66zm33 -16c3,-16 15,-25 31,-25 13,0 23,10 24,25l-55 0zm205 79l36 0 21 -72c2,-7 3,-14 3,-14l1 0c0,0 1,7 3,14l21 72 35 0 30 -95c1,-4 3,-4 7,-4l3 0 0 -27 -21 0c-10,0 -15,3 -18,13l-18 70c-2,7 -2,13 -2,13l0 0c0,0 -1,-7 -3,-13l-23 -82 -28 0 -23 82c-2,7 -3,13 -3,13l-1 0c0,0 -1,-7 -2,-13l-19 -70c-2,-10 -7,-13 -18,-13l-21 0 0 27 3 0c4,0 6,1 7,4l30 95zm185 -17c0,12 5,17 17,17l30 0 0 -26 -10 0c-3,0 -5,-2 -5,-5l0 -57 18 -10 0 -31 -18 10 0 -39c0,-12 -5,-17 -17,-17l-30 0 0 27 10 0c3,0 5,2 5,5l0 42 -16 9 0 31 16 -9 0 54zm61 -46c0,39 31,66 69,66 39,0 69,-27 69,-66 0,-39 -31,-66 -69,-66 -38,0 -69,27 -69,66zm32 0c0,-23 17,-39 37,-39 20,0 38,16 38,39 0,23 -17,39 -38,39 -20,0 -37,-16 -37,-39zm121 43c0,0 18,22 52,22 27,0 48,-15 48,-39 0,-42 -67,-38 -67,-58 0,-7 8,-11 19,-11 7,0 16,3 16,9l0 6 28 0 0 -13c0,-20 -27,-26 -44,-26 -26,0 -49,12 -49,37 0,41 66,41 66,58 0,8 -7,12 -17,12 -21,0 -38,-19 -38,-19l-15 20zm122 36l-12 22c0,0 12,13 32,13 19,0 37,-10 45,-33l45 -114c1,-4 3,-4 7,-4l4 0 0 -27 -21 0c-9,0 -14,3 -17,12l-21 63c-2,6 -4,17 -4,17l0 0c0,0 -2,-10 -4,-17l-25 -63c-3,-9 -8,-12 -17,-12l-21 0 0 27 4 0c3,0 5,1 7,4l42 95 -4 10c-4,11 -12,16 -21,16 -10,0 -18,-9 -18,-9z"/>
  <g id="_1552263650416">
   <path class="fil4" d="M9345 3873c81,175 140,427 129,725 -11,298 -92,642 -195,929 -104,287 -230,516 -428,713 -198,196 -467,359 -635,433 -168,74 -233,58 -404,-31 -171,-89 -447,-252 -648,-525 -201,-273 -328,-655 -382,-1007 -54,-352 -35,-673 26,-938 61,-265 163,-474 324,-627 162,-153 382,-250 633,-284 250,-34 530,-6 751,45 221,51 382,125 514,210 132,85 234,182 315,357z"/>
   <path class="fil5" d="M8159 4990c0,85 -9,219 4,298 13,79 49,103 78,154 29,50 51,127 36,171 -15,44 -67,55 -96,73 -29,18 -35,44 -60,56 -25,12 -69,10 -89,-4 -19,-14 -14,-40 -36,-57 -22,-17 -73,-24 -99,-53 -26,-29 -27,-79 -6,-128 21,-50 64,-99 79,-179 16,-79 4,-189 5,-276 1,-87 15,-153 44,-185 29,-32 74,-30 101,-11 27,19 37,55 37,141z"/>
   <g>
    <path class="fil6" d="M7717 5131c-5,14 -23,43 -56,69 -33,26 -82,50 -133,60 -51,11 -104,8 -146,-5 -42,-13 -73,-36 -96,-65 -23,-29 -38,-63 -30,-69 8,-6 38,17 76,34 38,17 83,28 123,32 40,4 75,0 107,-5 32,-5 60,-12 83,-23 24,-11 43,-25 56,-32 13,-7 21,-8 16,6z"/>
    <path class="fil6" d="M7755 4868c-18,-27 -44,-51 -73,-67 -29,-17 -62,-25 -105,-26 -43,-1 -96,6 -136,19 -40,13 -67,32 -93,54 -26,22 -51,46 -68,71 -18,24 -28,49 -36,68 -8,19 -13,32 -17,40 -4,7 -6,8 -11,0 -5,-8 -12,-26 -4,-59 8,-33 31,-83 51,-120 20,-37 37,-62 80,-86 43,-24 113,-46 175,-53 62,-7 117,2 156,11 39,9 62,19 85,49 23,30 46,79 55,112 8,33 2,50 -4,60 -6,10 -11,13 -18,-1 -8,-13 -18,-43 -36,-69z"/>
    <path class="fil0" d="M7794 4954c-6,-26 -14,-59 -35,-89 -22,-30 -57,-58 -110,-72 -54,-14 -125,-16 -185,0 -60,16 -108,49 -143,96 -35,48 -56,110 -69,142 -13,32 -18,34 2,52 20,18 63,52 107,73 44,21 89,29 135,30 46,1 94,-4 138,-21 44,-18 86,-48 114,-74 28,-26 44,-48 50,-69 6,-21 3,-42 -3,-68z"/>
    <path class="fil7" d="M7790 4935c-1,-8 -7,-40 -30,-73 -24,-33 -65,-66 -103,-84 -39,-17 -74,-18 -112,-14 -38,4 -78,12 -104,20 -27,9 -41,18 -57,28 -16,10 -35,21 -50,26 -15,6 -25,6 -41,3 -16,-3 -38,-9 -51,-19 -12,-11 -15,-26 -17,-25 -2,0 -2,16 6,30 8,14 25,28 38,35 12,7 21,8 25,10 4,2 5,6 0,11 -5,5 -15,12 -31,17 -16,5 -37,9 -55,7 -18,-2 -33,-10 -41,-14 -8,-4 -8,-4 -2,1 6,5 17,14 34,20 17,6 40,10 54,11 14,1 17,0 18,3 1,3 -2,9 -5,15 -3,6 -7,12 -18,17 -11,5 -28,10 -46,9 -18,-1 -36,-6 -47,-11 -11,-5 -15,-9 -13,-6 2,3 10,13 26,21 16,8 41,14 55,16 14,2 17,2 17,3 0,2 -2,6 -7,11 -5,5 -13,10 -27,14 -14,3 -34,4 -49,0 -15,-4 -26,-12 -32,-16 -5,-4 -5,-4 0,1 5,5 15,16 27,25 12,9 25,17 40,24 15,7 31,12 39,13 8,1 8,-2 13,-15 5,-13 14,-37 26,-63 12,-26 25,-53 44,-76 18,-23 41,-42 61,-57 20,-15 39,-27 58,-36 19,-9 39,-15 66,-19 26,-4 58,-6 87,-4 28,2 53,7 74,17 22,10 41,24 56,38 15,13 27,25 37,35 10,10 19,18 25,30 7,13 11,30 11,22z"/>
    <ellipse class="fil8" cx="7520" cy="4994" rx="166" ry="157"/>
    <path class="fil7" d="M7783 5051c-26,24 -51,49 -76,68 -25,19 -49,32 -84,43 -35,10 -81,17 -122,18 -41,0 -76,-6 -108,-16 -32,-11 -60,-25 -80,-38 -20,-13 -32,-24 -41,-31 -9,-7 -14,-9 -22,-7 -9,2 -21,7 -30,16 -10,10 -17,24 -25,38 17,-11 34,-22 47,-25 13,-3 22,1 21,10 -1,9 -12,23 -18,32 -6,10 -7,15 -8,21 14,-15 27,-31 44,-33 17,-3 37,7 44,14 7,7 0,11 -7,19 -7,8 -14,20 -22,32 17,-13 33,-26 52,-30 19,-4 39,2 55,5 16,4 27,6 29,12 2,6 -5,16 -10,27 -5,11 -8,22 -12,34 22,-19 44,-39 71,-48 27,-9 58,-9 95,-16 37,-7 81,-21 116,-46 36,-25 63,-62 91,-99z"/>
    <ellipse class="fil9" cx="7517" cy="4993" rx="69" ry="65"/>
    <path class="fil10" d="M7464 4887c38,0 69,29 69,65 0,36 -31,65 -69,65 -38,0 -69,-29 -69,-65 0,-36 31,-65 69,-65z"/>
   </g>
   <path class="fil7" d="M7797 4572c-27,-12 -69,-34 -136,-52 -67,-18 -159,-33 -231,-31 -72,2 -124,21 -169,45 -45,25 -83,55 -96,60 -13,5 0,-17 37,-56 37,-39 98,-97 147,-129 49,-32 85,-39 155,-33 71,6 177,25 248,43 71,18 108,36 126,58 18,21 16,46 8,65 -9,19 -25,33 -38,39 -14,5 -25,2 -52,-10z"/>
   <g>
    <path class="fil6" d="M8406 5114c5,14 23,43 56,69 33,26 82,50 133,60 51,11 104,8 146,-5 42,-13 73,-36 96,-65 23,-29 38,-63 30,-69 -8,-6 -38,17 -76,34 -38,17 -83,28 -123,32 -40,4 -75,0 -107,-5 -32,-5 -60,-12 -83,-23 -24,-11 -43,-25 -56,-32 -13,-7 -21,-8 -16,6z"/>
    <path class="fil6" d="M8378 4853c18,-27 44,-51 73,-67 29,-17 62,-25 105,-26 43,-1 96,6 136,19 40,13 67,32 93,54 26,22 51,46 68,71 18,24 28,49 36,68 8,19 13,32 17,40 4,7 6,8 11,0 5,-8 12,-26 4,-59 -8,-33 -31,-83 -51,-120 -20,-37 -37,-62 -80,-86 -43,-24 -113,-46 -175,-53 -62,-7 -117,2 -156,11 -39,9 -62,19 -85,49 -23,29 -46,79 -55,111 -8,33 -2,50 4,60 6,10 11,13 18,-1 8,-13 18,-43 36,-69z"/>
    <path class="fil0" d="M8339 4938c6,-26 14,-59 35,-89 22,-30 57,-58 110,-72 54,-14 125,-16 185,0 60,16 108,49 143,96 35,48 56,110 69,142 13,32 18,34 -2,52 -20,18 -63,52 -107,73 -44,21 -89,29 -135,30 -46,1 -94,-4 -138,-21 -44,-18 -86,-48 -114,-74 -28,-26 -44,-48 -50,-69 -6,-21 -3,-42 3,-68z"/>
    <path class="fil7" d="M8343 4919c1,-8 7,-40 30,-73 24,-33 65,-66 103,-84 39,-17 74,-18 112,-14 38,4 78,12 104,20 27,9 41,18 57,28 16,10 35,21 50,26 15,6 25,6 41,3 16,-3 38,-9 51,-19 12,-11 15,-26 17,-25 2,0 2,16 -6,30 -8,14 -25,28 -38,35 -12,7 -21,8 -25,10 -4,2 -5,6 0,11 5,5 15,12 31,17 16,5 37,9 55,7 18,-2 33,-10 41,-14 8,-4 8,-4 2,1 -6,5 -17,14 -34,20 -17,6 -40,10 -54,11 -14,1 -17,0 -18,3 -1,3 2,9 5,15 3,6 7,12 18,17 11,5 28,10 46,9 18,-1 36,-6 47,-11 11,-5 15,-9 13,-6 -2,3 -10,13 -26,21 -16,8 -41,14 -55,16 -14,2 -17,2 -17,3 0,2 2,6 7,11 5,5 13,10 27,14 14,3 34,4 49,0 15,-4 26,-12 32,-16 5,-4 5,-4 0,1 -5,5 -15,16 -27,25 -12,9 -25,17 -40,24 -15,7 -31,12 -39,13 -8,1 -8,-2 -13,-15 -5,-13 -14,-37 -26,-63 -12,-26 -25,-53 -44,-76 -18,-23 -41,-42 -61,-57 -20,-15 -39,-27 -58,-36 -19,-9 -39,-15 -66,-19 -26,-4 -58,-6 -87,-4 -28,2 -53,7 -74,17 -22,10 -41,24 -56,38 -15,13 -27,25 -37,35 -10,10 -19,18 -25,30 -7,13 -11,30 -11,22z"/>
    <ellipse class="fil8" cx="8613" cy="4979" rx="166" ry="157"/>
    <path class="fil7" d="M8350 5036c26,24 51,49 76,68 25,19 49,32 84,43 35,10 81,17 122,18 41,0 76,-6 108,-16 32,-11 60,-25 80,-38 20,-13 32,-24 41,-31 9,-7 14,-9 22,-7 9,2 21,7 30,16 10,10 17,24 25,38 -17,-11 -34,-22 -47,-25 -13,-3 -22,1 -21,10 1,9 12,23 18,32 6,10 7,15 8,21 -14,-15 -27,-31 -44,-33 -17,-3 -37,7 -44,14 -7,7 0,11 7,19 7,8 14,20 22,32 -17,-13 -33,-26 -52,-30 -19,-4 -39,2 -55,5 -16,4 -27,6 -29,12 -2,6 5,16 10,27 5,11 8,22 12,34 -22,-19 -44,-39 -71,-48 -27,-9 -58,-9 -95,-16 -37,-7 -81,-21 -116,-46 -36,-25 -63,-62 -91,-99z"/>
    <ellipse class="fil9" cx="8616" cy="4978" rx="69" ry="65"/>
    <path class="fil10" d="M8548 4872c-38,0 -69,29 -69,65 0,36 31,65 69,65 38,0 69,-29 69,-65 0,-36 -31,-65 -69,-65z"/>
   </g>
   <path class="fil7" d="M8343 4545c27,-12 69,-34 136,-52 67,-18 159,-33 231,-31 72,2 124,21 169,45 45,25 83,55 96,60 13,5 0,-17 -37,-56 -37,-39 -98,-97 -147,-129 -49,-32 -85,-39 -156,-33 -71,6 -177,25 -248,43 -71,18 -108,36 -126,58 -18,21 -16,46 -8,65 9,19 25,33 38,39 14,5 25,2 52,-10z"/>
   <path class="fil11" d="M7471 6428c-107,-83 -215,-185 -308,-310 -119,-161 -212,-360 -279,-569 20,-20 56,-26 112,0 87,42 222,162 298,274 76,112 93,216 112,310 19,94 41,178 55,241 4,20 8,38 10,53z"/>
   <path class="fil11" d="M9281 5522c-21,-7 -50,-4 -89,15 -87,42 -222,162 -298,274 -15,22 -253,603 -255,610 74,-55 147,-116 212,-181 198,-196 324,-426 428,-713l2 -6z"/>
   <path class="fil12" d="M7858 3859c83,-10 150,-95 244,-120 94,-25 215,9 390,184 175,175 406,491 526,767 121,277 132,514 128,713 -4,199 -23,359 -113,555 -91,195 -253,425 -375,544 -122,119 -203,126 -284,134 18,13 35,26 77,43 42,17 108,38 309,7 201,-31 536,-113 759,-297 222,-184 332,-470 332,-942 0,-471 -109,-1128 -347,-1622 -238,-494 -605,-826 -924,-935 -319,-109 -591,5 -767,43 -176,38 -257,0 -383,34 -126,34 -298,139 -454,305 -156,166 -297,393 -393,915 -97,522 -149,1339 -91,1818 58,479 227,619 453,690 226,71 509,72 661,55 151,-18 170,-54 190,-90 0,0 0,0 -56,-15 -56,-15 -168,-46 -288,-112 -120,-66 -248,-169 -324,-336 -76,-167 -100,-399 -92,-681 8,-282 49,-613 104,-861 55,-248 124,-412 184,-538 60,-126 110,-214 151,-270 41,-56 74,-81 139,-61 65,20 163,85 246,75z"/>
   <path class="fil13" d="M6974 4198c91,-209 182,-419 329,-557 147,-138 350,-206 590,-217 240,-11 519,35 737,191 218,156 377,422 455,551 78,129 76,120 61,8 -15,-112 -41,-326 -129,-496 -88,-170 -237,-297 -394,-374 -157,-78 -322,-107 -489,-115 -167,-8 -336,5 -507,59 -171,53 -344,146 -458,254 -113,108 -167,230 -190,349 -23,119 -15,233 -7,348z"/>
   <path class="fil14" d="M7671 3451c138,-46 247,-88 377,-94 130,-6 281,24 400,56 119,32 206,65 297,138 91,73 187,186 254,300 67,114 106,228 132,319 27,90 42,156 55,213 13,57 25,104 -3,136 -28,33 -96,51 -211,46 -114,-6 -275,-35 -403,-58 -128,-23 -225,-38 -307,-74 -83,-36 -151,-93 -201,-144 -50,-51 -82,-97 -116,-141 -34,-44 -69,-86 -95,-119 -27,-33 -45,-57 -62,-35 -17,22 -32,90 -14,166 18,76 68,161 111,213 43,52 78,71 94,87 16,16 12,30 -25,44 -38,14 -110,28 -212,30 -102,2 -234,-8 -342,-11 -109,-3 -194,1 -259,-17 -65,-18 -108,-57 -137,-127 -29,-70 -42,-170 -7,-306 36,-136 121,-307 247,-417 126,-110 292,-160 429,-206z"/>
   <path class="fil15" d="M7934 3876c13,33 80,122 156,196 76,73 160,130 263,180 102,50 223,94 317,120 94,26 162,35 161,30 -2,-5 -73,-25 -171,-73 -98,-48 -224,-124 -338,-202 -114,-78 -216,-157 -288,-208 -72,-51 -113,-75 -100,-42z"/>
   <path class="fil15" d="M6937 5069c0,64 -38,328 -37,541 1,213 40,375 82,483 42,108 88,163 72,166 -16,3 -93,-46 -150,-156 -57,-111 -95,-283 -99,-432 -4,-148 26,-272 60,-402 34,-130 71,-265 71,-200z"/>
   <path class="fil15" d="M9544 4815c-19,-9 33,199 49,405 16,206 -2,410 -63,587 -60,177 -163,326 -169,367 -6,42 83,-24 152,-101 68,-76 115,-163 150,-298 35,-135 57,-319 23,-523 -34,-204 -123,-429 -142,-438z"/>
   <path class="fil13" d="M8247 5964c-38,-11 -66,-24 -89,-26 -23,-2 -43,8 -57,15 -6,3 -11,6 -16,8 -4,-2 -8,-4 -12,-6 -15,-7 -34,-17 -57,-15 -23,2 -51,14 -89,26 -51,15 -120,36 -171,48 -15,3 -34,3 -40,9 -5,6 4,18 21,24 89,34 -27,172 342,168 351,-4 277,-139 358,-170 16,-6 26,-18 21,-24 -5,-6 -25,-6 -40,-9 -49,-11 -124,-34 -171,-48zm-200 89c46,7 37,6 91,1 -20,14 -36,33 -50,33 0,0 -86,-41 -41,-34z"/>
  </g>
  <path class="fil2" d="M10827 5037l30 0 0 -6c0,-5 0,-8 0,-8l0 0c0,0 11,18 38,18 33,0 58,-26 58,-66 0,-39 -22,-66 -56,-66 -27,0 -38,18 -38,18l0 0c0,0 0,-4 0,-11l0 -37c0,-12 -5,-17 -17,-17l-30 0 0 27 10 0c3,0 5,2 5,5l0 143zm30 -62c0,-28 15,-40 32,-40 19,0 31,16 31,40 0,25 -15,39 -32,39 -21,0 -31,-19 -31,-39zm123 62l31 0 0 -50c0,-7 1,-14 3,-21 6,-19 21,-26 34,-26 4,0 8,0 8,0l0 -31c0,0 -3,-1 -6,-1 -19,0 -34,14 -40,32l0 0c0,0 0,-3 0,-8l0 -7c0,-11 -6,-15 -17,-15l-29 0 0 27 10 0c3,0 5,2 5,5l0 94zm82 -36c0,24 20,39 42,39 29,0 39,-22 39,-22l0 0c0,0 0,2 0,5l0 1c0,6 4,13 15,13l6 0 0 0c-7,6 -16,15 -16,27 0,21 30,24 30,24l7 -23c0,0 -12,-1 -12,-9 0,-7 9,-15 14,-19l0 -26 -10 0c-3,0 -5,-2 -5,-5l0 -47c0,-28 -12,-50 -54,-50 -13,0 -46,3 -46,26l0 13 29 0 0 -7c0,-7 11,-8 17,-8 16,0 23,7 23,25l0 1 -3 0c-21,0 -75,3 -75,43zm32 -1c0,-17 26,-20 42,-20l5 0 0 3c0,15 -12,33 -29,33 -13,0 -19,-8 -19,-16zm105 38l98 0c12,0 17,-5 17,-17l0 -22 -28 0 0 7c0,4 -2,5 -5,5l-28 0c-8,0 -12,1 -12,1l0 0c0,0 5,-5 11,-12l58 -71 0 -17 -92 0c-12,0 -17,5 -17,17l0 22 28 0 0 -7c0,-3 2,-5 5,-5l23 0c8,0 12,0 12,0l0 0c0,0 -5,4 -11,12l-58 71 0 17zm125 -63c0,39 31,66 69,66 39,0 69,-27 69,-66 0,-39 -31,-66 -69,-66 -38,0 -69,27 -69,66zm32 0c0,-23 17,-39 37,-39 20,0 38,16 38,39 0,23 -17,39 -38,39 -20,0 -37,-16 -37,-39zm155 63l36 0 21 -72c2,-7 3,-14 3,-14l1 0c0,0 1,7 3,14l21 72 35 0 30 -95c1,-4 3,-4 7,-4l3 0 0 -27 -21 0c-10,0 -15,3 -18,13l-18 70c-2,7 -2,13 -2,13l0 0c0,0 -1,-7 -3,-13l-23 -82 -28 0 -23 82c-2,7 -3,13 -3,13l-1 0c0,0 -1,-7 -2,-13l-19 -70c-2,-10 -7,-13 -18,-13l-21 0 0 27 3 0c4,0 6,1 7,4l30 95zm169 -63c0,36 26,66 68,66 31,0 51,-19 51,-19l-13 -22c0,0 -15,14 -35,14 -19,0 -35,-12 -38,-34l87 0c0,0 1,-8 1,-12 0,-33 -20,-60 -56,-60 -38,0 -64,27 -64,66zm33 -16c3,-16 15,-25 31,-25 13,0 23,10 24,25l-55 0zm119 47l-17 58 23 0 24 -58 -30 0zm116 32l98 0c12,0 17,-5 17,-17l0 -22 -28 0 0 7c0,4 -2,5 -5,5l-28 0c-8,0 -12,1 -12,1l0 0c0,0 5,-5 11,-12l58 -71 0 -17 -92 0c-12,0 -17,5 -17,17l0 22 28 0 0 -7c0,-3 2,-5 5,-5l23 0c8,0 12,0 12,0l0 0c0,0 -5,4 -11,12l-58 71 0 17zm142 -146l27 0 0 -29 -27 0 0 29zm-1 130c0,12 5,17 17,17l30 0 0 -26 -10 0c-3,0 -5,-2 -5,-5l0 -77c0,-12 -5,-17 -17,-17l-30 0 0 27 10 0c3,0 5,2 5,5l0 77zm60 -46c0,36 26,66 68,66 31,0 51,-19 51,-19l-13 -22c0,0 -15,14 -35,14 -19,0 -35,-12 -38,-34l87 0c0,0 1,-8 1,-12 0,-33 -20,-60 -56,-60 -38,0 -64,27 -64,66zm33 -16c3,-16 15,-25 31,-25 13,0 23,10 24,25l-55 0zm116 62c0,12 5,17 17,17l30 0 0 -26 -10 0c-3,0 -5,-2 -5,-5l0 -127c0,-12 -5,-17 -17,-17l-30 0 0 27 10 0c3,0 5,2 5,5l0 126zm60 -46c0,39 31,66 69,66 39,0 69,-27 69,-66 0,-39 -31,-66 -69,-66 -38,0 -69,27 -69,66zm32 0c0,-23 17,-39 37,-39 20,0 38,16 38,39 0,23 -17,39 -38,39 -20,0 -37,-16 -37,-39zm135 63l31 0 0 -58c0,-6 1,-12 2,-17 4,-15 17,-26 34,-26 16,0 20,10 20,26l0 58c0,12 5,17 17,17l30 0 0 -26 -10 0c-3,0 -5,-2 -5,-5l0 -49c0,-33 -16,-48 -44,-48 -25,0 -39,16 -44,26l0 0c0,0 0,-3 0,-5l0 -4c0,-9 -5,-14 -17,-14l-29 0 0 27 10 0c3,0 5,2 5,5l0 94zm146 -63c0,36 26,66 68,66 31,0 51,-19 51,-19l-13 -22c0,0 -15,14 -35,14 -19,0 -35,-12 -38,-34l87 0c0,0 1,-8 1,-12 0,-33 -20,-60 -56,-60 -38,0 -64,27 -64,66zm33 -16c3,-16 15,-25 31,-25 13,0 23,10 24,25l-55 0zm-2008 359c0,12 5,17 17,17l30 0 0 -26 -10 0c-3,0 -5,-2 -5,-5l0 -127c0,-12 -5,-17 -17,-17l-30 0 0 27 10 0c3,0 5,2 5,5l0 126zm72 -28c0,34 17,48 43,48 22,0 38,-13 43,-26l0 0c0,0 0,3 0,6l0 3c0,9 6,14 17,14l29 0 0 -26 -10 0c-3,0 -5,-2 -5,-5l0 -94 -31 0 0 58c0,22 -13,42 -35,42 -16,0 -20,-10 -20,-26l0 -58c0,-11 -5,-17 -17,-17l-30 0 0 27 10 0c3,0 5,2 5,5l0 49zm157 45l30 0 0 -6c0,-5 0,-8 0,-8l0 0c0,0 11,18 38,18 33,0 58,-26 58,-66 0,-39 -22,-66 -56,-66 -27,0 -38,18 -38,18l0 0c0,0 0,-4 0,-11l0 -37c0,-12 -5,-17 -17,-17l-30 0 0 27 10 0c3,0 5,2 5,5l0 143zm30 -62c0,-28 15,-40 32,-40 19,0 31,16 31,40 0,25 -15,39 -32,39 -21,0 -31,-19 -31,-39zm189 62l31 0 0 -58c0,-6 1,-12 2,-17 4,-15 17,-26 34,-26 16,0 20,10 20,26l0 58c0,12 5,17 17,17l30 0 0 -26 -10 0c-3,0 -5,-2 -5,-5l0 -49c0,-33 -16,-48 -44,-48 -25,0 -39,16 -44,26l0 0c0,0 0,-3 0,-5l0 -4c0,-9 -5,-14 -17,-14l-29 0 0 27 10 0c3,0 5,2 5,5l0 94zm161 -146l27 0 0 -29 -27 0 0 29zm-1 130c0,12 5,17 17,17l30 0 0 -26 -10 0c-3,0 -5,-2 -5,-5l0 -77c0,-12 -5,-17 -17,-17l-30 0 0 27 10 0c3,0 5,2 5,5l0 77zm60 -46c0,36 26,66 68,66 31,0 51,-19 51,-19l-13 -22c0,0 -15,14 -35,14 -19,0 -35,-12 -38,-34l87 0c0,0 1,-8 1,-12 0,-33 -20,-60 -56,-60 -38,0 -64,27 -64,66zm33 -16c3,-16 15,-25 31,-25 13,0 23,10 24,25l-55 0zm116 79l30 0 0 -6c0,-5 0,-8 0,-8l0 0c0,0 11,18 38,18 33,0 58,-26 58,-66 0,-39 -22,-66 -56,-66 -27,0 -38,18 -38,18l0 0c0,0 0,-4 0,-11l0 -37c0,-12 -5,-17 -17,-17l-30 0 0 27 10 0c3,0 5,2 5,5l0 143zm30 -62c0,-28 15,-40 32,-40 19,0 31,16 31,40 0,25 -15,39 -32,39 -21,0 -31,-19 -31,-39zm126 -84l27 0 0 -29 -27 0 0 29zm-1 130c0,12 5,17 17,17l30 0 0 -26 -10 0c-3,0 -5,-2 -5,-5l0 -77c0,-12 -5,-17 -17,-17l-30 0 0 27 10 0c3,0 5,2 5,5l0 77zm60 -46c0,36 26,66 68,66 31,0 51,-19 51,-19l-13 -22c0,0 -15,14 -35,14 -19,0 -35,-12 -38,-34l87 0c0,0 1,-8 1,-12 0,-33 -20,-60 -56,-60 -38,0 -64,27 -64,66zm33 -16c3,-16 15,-25 31,-25 13,0 23,10 24,25l-55 0zm103 60c0,0 18,22 52,22 27,0 48,-15 48,-39 0,-42 -67,-38 -67,-58 0,-7 8,-11 19,-11 7,0 16,3 16,9l0 6 28 0 0 -13c0,-20 -27,-26 -44,-26 -26,0 -49,12 -49,37 0,41 66,41 66,58 0,8 -7,12 -17,12 -21,0 -38,-19 -38,-19l-15 20zm129 20l31 0 0 -55 7 0c4,0 9,0 12,5l21 40c5,9 9,11 20,11l23 0 0 -26 -8 0c-6,0 -8,-1 -10,-5l-14 -27c-4,-8 -9,-10 -9,-10l0 0c0,0 4,-2 9,-10l32 -47 -35 0 -26 40c-3,4 -8,5 -12,5l-9 0 0 -80c0,-12 -5,-14 -17,-14l-30 0 0 27 10 0c3,0 5,2 5,5l0 143zm140 -146l27 0 0 -29 -27 0 0 29zm-1 130c0,12 5,17 17,17l30 0 0 -26 -10 0c-3,0 -5,-2 -5,-5l0 -77c0,-12 -5,-17 -17,-17l-30 0 0 27 10 0c3,0 5,2 5,5l0 77zm60 -46c0,36 26,66 68,66 31,0 51,-19 51,-19l-13 -22c0,0 -15,14 -35,14 -19,0 -35,-12 -38,-34l87 0c0,0 1,-8 1,-12 0,-33 -20,-60 -56,-60 -38,0 -64,27 -64,66zm33 -16c3,-16 15,-25 31,-25 13,0 23,10 24,25l-55 0zm170 16c0,39 31,66 69,66 39,0 69,-27 69,-66 0,-39 -31,-66 -69,-66 -38,0 -69,27 -69,66zm32 0c0,-23 17,-39 37,-39 20,0 38,16 38,39 0,23 -17,39 -38,39 -20,0 -37,-16 -37,-39zm122 0c0,37 27,66 68,66 34,0 53,-23 53,-23l-13 -22c0,0 -16,17 -37,17 -20,0 -39,-13 -39,-39 0,-23 16,-39 37,-39 8,0 18,3 18,10l0 7 28 0 0 -15c0,-22 -29,-28 -46,-28 -43,0 -69,30 -69,66zm132 63l98 0c12,0 17,-5 17,-17l0 -22 -28 0 0 7c0,4 -2,5 -5,5l-28 0c-8,0 -12,1 -12,1l0 0c0,0 5,-5 11,-12l58 -71 0 -17 -92 0c-12,0 -17,5 -17,17l0 22 28 0 0 -7c0,-3 2,-5 5,-5l23 0c8,0 12,0 12,0l0 0c0,0 -5,4 -11,12l-58 71 0 17zm128 17l-12 22c0,0 12,13 32,13 19,0 37,-10 45,-33l45 -114c1,-4 3,-4 7,-4l4 0 0 -27 -21 0c-9,0 -14,3 -17,12l-21 63c-2,6 -4,17 -4,17l0 0c0,0 -2,-10 -4,-17l-25 -63c-3,-9 -8,-12 -17,-12l-21 0 0 27 4 0c3,0 5,1 7,4l42 95 -4 10c-4,11 -12,16 -21,16 -10,0 -18,-9 -18,-9z"/>
  <path class="fil3" d="M10279 5029c40,9 118,34 173,31 55,-3 88,-34 68,-54 -20,-20 -92,-29 -145,-40 -52,-11 -84,-23 -100,-33 -15,-10 -14,-18 -11,-28 2,-10 5,-22 -10,-23 -15,-1 -49,8 -87,12 -38,5 -81,5 -88,20 -7,16 22,47 45,73 23,26 41,47 53,62 13,15 20,24 29,19 9,-4 18,-21 24,-32 6,-11 8,-17 48,-7z"/>
  <path class="fil2" d="M9071 7333l30 0 0 -6c0,-5 0,-8 0,-8l0 0c0,0 11,18 38,18 33,0 58,-26 58,-66 0,-39 -22,-66 -56,-66 -27,0 -38,18 -38,18l0 0c0,0 0,-4 0,-11l0 -37c0,-12 -5,-17 -17,-17l-30 0 0 27 10 0c3,0 5,2 5,5l0 143zm30 -62c0,-28 15,-40 32,-40 19,0 31,16 31,40 0,25 -15,39 -32,39 -21,0 -31,-19 -31,-39zm110 26c0,25 21,39 43,39 28,0 38,-22 38,-22l0 0c0,0 0,2 0,5 0,7 4,14 16,14l28 0 0 -26 -10 0c-3,0 -5,-2 -5,-5l0 -47c0,-28 -12,-50 -54,-50 -13,0 -46,2 -46,26l0 13 29 0 0 -7c0,-7 11,-8 17,-8 16,0 23,7 23,25l0 1 -4 0c-20,0 -75,3 -75,43zm32 -1c0,-18 26,-20 42,-20l5 0 0 3c0,15 -12,33 -29,33 -13,0 -19,-8 -19,-16zm119 38l31 0 0 -50c0,-7 1,-14 3,-21 6,-19 21,-26 34,-26 4,0 8,0 8,0l0 -31c0,0 -3,-1 -6,-1 -19,0 -34,14 -40,32l0 0c0,0 0,-3 0,-8l0 -7c0,-11 -6,-15 -17,-15l-29 0 0 27 10 0c3,0 5,2 5,5l0 94zm84 -63c0,39 22,66 56,66 29,0 39,-20 39,-20l0 0c0,0 0,2 0,5 0,7 4,13 16,13l29 0 0 -26 -10 0c-3,0 -5,-2 -5,-5l0 -127c0,-12 -5,-17 -17,-17l-30 0 0 27 10 0c3,0 5,2 5,5l0 22c0,4 0,7 0,7l-1 0c0,0 -9,-15 -36,-15 -33,0 -57,26 -57,66zm63 40c-19,0 -31,-16 -31,-40 0,-25 14,-39 32,-39 21,0 31,19 31,39 0,28 -15,40 -32,40zm89 23l98 0c12,0 17,-5 17,-17l0 -22 -28 0 0 7c0,4 -2,5 -5,5l-28 0c-8,0 -12,1 -12,1l0 0c0,0 5,-5 11,-12l58 -71 0 -17 -92 0c-12,0 -17,5 -17,17l0 22 28 0 0 -7c0,-3 2,-5 5,-5l23 0c8,0 12,0 12,0l0 0c0,0 -5,4 -11,12l-58 71 0 17zm125 -63c0,39 31,66 69,66 39,0 69,-27 69,-66 0,-39 -31,-66 -69,-66 -38,0 -69,27 -69,66zm32 0c0,-23 17,-39 37,-39 20,0 38,16 38,39 0,23 -17,39 -38,39 -20,0 -37,-16 -37,-39zm207 -83l27 0 0 -29 -27 0 0 29zm-32 170l0 26c0,0 4,1 9,1 17,0 53,-5 53,-47l0 -113c0,-12 -5,-17 -17,-17l-30 0 0 27 10 0c3,0 5,2 5,5l0 95c0,21 -16,23 -25,23 -3,0 -5,-1 -5,-1zm88 -60c0,25 21,39 43,39 28,0 38,-22 38,-22l0 0c0,0 0,2 0,5 0,7 4,14 16,14l28 0 0 -26 -10 0c-3,0 -5,-2 -5,-5l0 -47c0,-28 -12,-50 -54,-50 -13,0 -46,2 -46,26l0 13 29 0 0 -7c0,-7 11,-8 17,-8 16,0 23,7 23,25l0 1 -4 0c-20,0 -75,3 -75,43zm32 -1c0,-18 26,-20 42,-20l5 0 0 3c0,15 -12,33 -29,33 -13,0 -19,-8 -19,-16zm105 18c0,0 18,22 52,22 27,0 48,-15 48,-39 0,-42 -67,-38 -67,-58 0,-7 8,-11 19,-11 7,0 16,3 16,9l0 6 28 0 0 -13c0,-20 -27,-26 -44,-26 -26,0 -49,12 -49,37 0,41 66,41 66,58 0,8 -7,12 -17,12 -21,0 -38,-19 -38,-19l-15 20zm130 20l31 0 0 -58c0,-6 1,-12 2,-17 4,-15 17,-26 34,-26 16,0 20,10 20,26l0 58c0,12 5,17 17,17l30 0 0 -26 -10 0c-3,0 -5,-2 -5,-5l0 -49c0,-33 -16,-48 -44,-48 -25,0 -39,16 -44,26l0 0c0,0 0,-3 0,-5l0 -4c0,-9 -5,-14 -17,-14l-29 0 0 27 10 0c3,0 5,2 5,5l0 94zm146 -36c0,25 21,39 43,39 28,0 38,-22 38,-22l0 0c0,0 0,2 0,5 0,7 4,14 16,14l28 0 0 -26 -10 0c-3,0 -5,-2 -5,-5l0 -47c0,-28 -12,-50 -54,-50 -13,0 -46,2 -46,26l0 13 29 0 0 -7c0,-7 11,-8 17,-8 16,0 23,7 23,25l0 1 -4 0c-20,0 -75,3 -75,43zm32 -1c0,-18 26,-20 42,-20l5 0 0 3c0,15 -12,33 -29,33 -13,0 -19,-8 -19,-16zm121 6l-17 58 23 0 24 -58 -30 0zm-1777 378l31 0 0 -52c0,-6 0,-11 0,-11l0 0c0,0 11,17 36,17 33,0 58,-26 58,-66 0,-39 -22,-66 -56,-66 -29,0 -40,20 -40,20l-1 0c0,0 0,-2 0,-5 0,-7 -4,-12 -16,-12l-28 0 0 27 10 0c3,0 5,2 5,5l0 143zm30 -112c0,-28 15,-40 32,-40 19,0 31,16 31,40 0,25 -15,39 -32,39 -21,0 -31,-19 -31,-39zm110 -1c0,39 31,66 69,66 39,0 69,-27 69,-66 0,-39 -31,-66 -69,-66 -38,0 -69,27 -69,66zm32 0c0,-23 17,-39 37,-39 20,0 38,16 38,39 0,23 -17,39 -38,39 -20,0 -37,-16 -37,-39zm135 63l31 0 0 -50c0,-7 1,-14 3,-21 6,-19 21,-26 34,-26 4,0 8,0 8,0l0 -31c0,0 -3,-1 -6,-1 -19,0 -34,14 -40,32l0 0c0,0 0,-3 0,-8l0 -7c0,-11 -6,-15 -17,-15l-29 0 0 27 10 0c3,0 5,2 5,5l0 94zm84 -63c0,37 27,66 68,66 34,0 53,-23 53,-23l-13 -22c0,0 -16,17 -37,17 -20,0 -39,-13 -39,-39 0,-23 16,-39 37,-39 8,0 18,3 18,10l0 7 28 0 0 -15c0,-22 -29,-28 -46,-28 -43,0 -69,30 -69,66zm133 0c0,36 26,66 68,66 31,0 51,-19 51,-19l-13 -22c0,0 -15,14 -35,14 -19,0 -35,-12 -38,-34l87 0c0,0 1,-8 1,-12 0,-33 -20,-60 -56,-60 -38,0 -64,27 -64,66zm33 -16c3,-16 15,-25 31,-25 13,0 23,10 24,25l-55 0zm116 62c0,12 5,17 17,17l30 0 0 -26 -10 0c-3,0 -5,-2 -5,-5l0 -127c0,-12 -5,-17 -17,-17l-30 0 0 27 10 0c3,0 5,2 5,5l0 126zm60 -20c0,25 21,39 43,39 28,0 38,-22 38,-22l0 0c0,0 0,2 0,5 0,7 4,14 16,14l28 0 0 -26 -10 0c-3,0 -5,-2 -5,-5l0 -47c0,-28 -12,-50 -54,-50 -13,0 -46,2 -46,26l0 13 29 0 0 -7c0,-7 11,-8 17,-8 16,0 23,7 23,25l0 1 -4 0c-20,0 -75,3 -75,43zm32 -1c0,-18 26,-20 42,-20l5 0 0 3c0,15 -12,33 -29,33 -13,0 -19,-8 -19,-16zm119 38l31 0 0 -58c0,-6 1,-12 2,-17 4,-15 17,-26 34,-26 16,0 20,10 20,26l0 58c0,12 5,17 17,17l30 0 0 -26 -10 0c-3,0 -5,-2 -5,-5l0 -49c0,-33 -16,-48 -44,-48 -25,0 -39,16 -44,26l0 0c0,0 0,-3 0,-5l0 -4c0,-9 -5,-14 -17,-14l-29 0 0 27 10 0c3,0 5,2 5,5l0 94zm146 -63c0,39 31,66 69,66 39,0 69,-27 69,-66 0,-39 -31,-66 -69,-66 -38,0 -69,27 -69,66zm32 0c0,-23 17,-39 37,-39 20,0 38,16 38,39 0,23 -17,39 -38,39 -20,0 -37,-16 -37,-39zm155 63l36 0 21 -72c2,-7 3,-14 3,-14l1 0c0,0 1,7 3,14l21 72 35 0 30 -95c1,-4 3,-4 7,-4l3 0 0 -27 -21 0c-10,0 -15,3 -18,13l-18 70c-2,7 -2,13 -2,13l0 0c0,0 -1,-7 -3,-13l-23 -82 -28 0 -23 82c-2,7 -3,13 -3,13l-1 0c0,0 -1,-7 -2,-13l-19 -70c-2,-10 -7,-13 -18,-13l-21 0 0 27 3 0c4,0 6,1 7,4l30 95zm170 -36c0,25 21,39 43,39 28,0 38,-22 38,-22l0 0c0,0 0,2 0,5 0,7 4,14 16,14l28 0 0 -26 -10 0c-3,0 -5,-2 -5,-5l0 -47c0,-28 -12,-50 -54,-50 -13,0 -46,2 -46,26l0 13 29 0 0 -7c0,-7 11,-8 17,-8 16,0 23,7 23,25l0 1 -4 0c-20,0 -75,3 -75,43zm32 -1c0,-18 26,-20 42,-20l5 0 0 3c0,15 -12,33 -29,33 -13,0 -19,-8 -19,-16zm172 -25c0,37 27,66 68,66 34,0 53,-23 53,-23l-13 -22c0,0 -16,17 -37,17 -20,0 -39,-13 -39,-39 0,-23 16,-39 37,-39 8,0 18,3 18,10l0 7 28 0 0 -15c0,-22 -29,-28 -46,-28 -43,0 -69,30 -69,66zm133 0c0,36 26,66 68,66 31,0 51,-19 51,-19l-13 -22c0,0 -15,14 -35,14 -19,0 -35,-12 -38,-34l87 0c0,0 1,-8 1,-12 0,-33 -20,-60 -56,-60 -38,0 -64,27 -64,66zm33 -16c3,-16 15,-25 31,-25 13,0 23,10 24,25l-55 0zm117 79l31 0 0 -50c0,-7 1,-14 3,-21 6,-19 21,-26 34,-26 4,0 8,0 8,0l0 -31c0,0 -3,-1 -6,-1 -19,0 -34,14 -40,32l0 0c0,0 0,-3 0,-8l0 -7c0,-11 -6,-15 -17,-15l-29 0 0 27 10 0c3,0 5,2 5,5l0 94zm82 -36c0,25 21,39 43,39 28,0 38,-22 38,-22l0 0c0,0 0,2 0,5 0,7 4,14 16,14l28 0 0 -26 -10 0c-3,0 -5,-2 -5,-5l0 -47c0,-28 -12,-50 -54,-50 -13,0 -46,2 -46,26l0 13 29 0 0 -7c0,-7 11,-8 17,-8 16,0 23,7 23,25l0 1 -4 0c-20,0 -75,3 -75,43zm32 -1c0,-18 26,-20 42,-20l5 0 0 3c0,15 -12,33 -29,33 -13,0 -19,-8 -19,-16z"/>
  <path class="fil3" d="M8320 7169c40,9 118,34 173,31 55,-3 88,-34 68,-54 -20,-20 -92,-29 -145,-40 -52,-11 -84,-23 -100,-33 -15,-10 -14,-18 -11,-28 2,-10 5,-22 -10,-23 -15,-1 -49,8 -87,12 -38,5 -81,5 -88,20 -7,16 22,47 45,73 23,26 41,47 53,62 13,15 20,24 29,19 9,-4 18,-21 24,-32 6,-11 8,-17 48,-7z"/>
 </g>
</svg>
