<?xml version="1.0" encoding="UTF-8"?>
<!DOCTYPE svg PUBLIC "-//W3C//DTD SVG 1.1//EN" "http://www.w3.org/Graphics/SVG/1.1/DTD/svg11.dtd">
<!-- Creator: CorelDRAW 2017 -->
<svg xmlns="http://www.w3.org/2000/svg" xml:space="preserve" width="297mm" height="210mm" version="1.1" style="shape-rendering:geometricPrecision; text-rendering:geometricPrecision; image-rendering:optimizeQuality; fill-rule:evenodd; clip-rule:evenodd"
viewBox="0 0 29700 21000"
 xmlns:xlink="http://www.w3.org/1999/xlink">
 <defs>
  <style type="text/css">
   <![CDATA[
    .fil0 {fill:#2B2A29}
   ]]>
  </style>
 </defs>
 <g id="Warstwa_x0020_1">
  <metadata id="CorelCorpID_0Corel-Layer"/>
  <path class="fil0" d="M13111 6751c318,-39 577,-364 939,-461 362,-97 826,36 1501,710 675,674 1561,1888 2026,2953 464,1065 507,1980 493,2746 -15,766 -87,1384 -436,2135 -349,751 -975,1635 -1444,2092 -469,457 -781,487 -1093,516 68,50 135,100 296,165 161,65 415,145 1189,26 773,-119 2065,-435 2921,-1145 856,-709 1276,-1811 1276,-3625 0,-1814 -420,-4341 -1337,-6243 -916,-1902 -2329,-3180 -3558,-3600 -1229,-420 -2275,19 -2953,165 -678,146 -987,0 -1472,130 -485,130 -1145,536 -1746,1175 -601,640 -1141,1513 -1513,3522 -372,2009 -574,5154 -351,6996 223,1843 872,2384 1742,2656 870,273 1961,278 2544,210 582,-68 656,-208 730,-348 0,0 0,0 -216,-59 -216,-59 -647,-176 -1109,-432 -462,-256 -955,-651 -1248,-1295 -293,-644 -386,-1537 -354,-2622 32,-1084 189,-2359 401,-3313 212,-954 478,-1586 708,-2072 230,-485 423,-823 582,-1039 159,-216 285,-310 536,-233 252,77 629,326 947,287z"/>
 </g>
</svg>
