<?xml version="1.0" encoding="UTF-8"?>
<!DOCTYPE svg PUBLIC "-//W3C//DTD SVG 1.0//EN" "http://www.w3.org/TR/2001/REC-SVG-20010904/DTD/svg10.dtd">
<!-- Creator: CorelDRAW 2017 -->
<svg xmlns="http://www.w3.org/2000/svg" xml:space="preserve" width="297mm" height="210mm" version="1.0" style="shape-rendering:geometricPrecision; text-rendering:geometricPrecision; image-rendering:optimizeQuality; fill-rule:evenodd; clip-rule:evenodd"
viewBox="0 0 29700 21000"
 xmlns:xlink="http://www.w3.org/1999/xlink">
 <defs>
  <style type="text/css">
   <![CDATA[
    .fil0 {fill:#7688A1}
   ]]>
  </style>
 </defs>
 <g id="Warstwa_x0020_1">
  <metadata id="CorelCorpID_0Corel-Layer"/>
  <path class="fil0" d="M8992 6319c-911,-92 -2363,-55 -3114,265 -751,320 -800,923 -585,2357 215,1434 695,3699 1052,5028 357,1329 591,1723 892,1791 302,68 671,-191 695,-652 25,-462 -295,-1126 -535,-1951 -240,-825 -400,-1809 -302,-2246 98,-437 455,-326 1089,-283 634,43 1545,18 2062,-197 517,-215 640,-622 523,-849 -117,-228 -474,-277 -1120,-265 -646,12 -1582,86 -2111,55 -529,-31 -652,-166 -714,-375 -62,-209 -62,-492 -18,-708 43,-215 129,-363 646,-425 517,-62 1465,-37 2062,-25 597,12 843,12 972,-154 129,-166 142,-499 -37,-775 -178,-277 -548,-499 -1459,-591z"/>
  <path class="fil0" d="M9197 11535c296,-276 906,-414 1533,-240 627,174 1271,660 1573,1500 302,841 263,2036 -5,2546 -268,511 -763,337 -1230,330 -466,-7 -903,154 -1312,130 -409,-25 -790,-235 -1013,-557 -223,-322 -289,-755 -151,-1143 138,-387 479,-729 831,-919 351,-190 712,-230 830,-360 117,-130 -10,-351 -213,-402 -204,-51 -484,67 -680,132 -196,64 -308,75 -373,-127 -66,-202 -85,-615 210,-891zm1551 2008c182,61 291,307 294,558 3,251 -98,507 -294,650 -195,143 -484,172 -673,84 -189,-89 -277,-295 -264,-499 13,-204 128,-404 314,-566 186,-163 442,-287 624,-227z"/>
  <path class="fil0" d="M14802 11238c-643,97 -1437,506 -1774,1207 -337,701 -217,1693 155,2356 372,663 997,997 1629,1007 632,10 1272,-304 1550,-594 278,-290 193,-556 9,-762 -185,-206 -469,-352 -695,-302 -225,50 -392,296 -644,407 -252,111 -591,86 -763,-258 -172,-345 -178,-1009 -25,-1419 154,-409 468,-563 797,-597 329,-34 674,52 905,74 231,22 348,-22 409,-163 62,-142 68,-382 -175,-609 -243,-228 -735,-443 -1379,-346z"/>
  <path class="fil0" d="M18590 13500c268,-71 794,-148 1129,-212 335,-65 480,-117 582,-234 102,-117 160,-299 63,-612 -97,-314 -349,-760 -749,-1002 -400,-242 -948,-278 -1360,-172 -412,106 -689,355 -900,639 -211,283 -355,600 -451,951 -95,351 -142,735 -108,1119 34,383 148,765 448,1075 300,311 786,551 1276,609 489,58 982,-65 1306,-215 325,-151 482,-329 545,-515 63,-186 32,-380 -35,-545 -68,-165 -172,-300 -315,-312 -143,-12 -325,98 -480,225 -155,126 -285,268 -503,328 -218,60 -526,39 -663,-129 -137,-168 -103,-482 -82,-671 22,-189 31,-254 299,-325zm169 -1397c166,68 354,255 315,391 -38,135 -303,218 -508,266 -205,48 -349,60 -417,11 -68,-49 -58,-160 -20,-275 38,-115 106,-235 212,-322 106,-86 251,-138 417,-71z"/>
  <path class="fil0" d="M23542 11013c-187,-265 -670,-372 -1063,-348 -393,24 -697,178 -926,361 -229,183 -382,395 -455,685 -74,291 -67,660 150,997 217,337 646,642 1002,893 356,251 639,448 685,660 46,212 -145,440 -405,414 -260,-26 -591,-307 -848,-508 -258,-201 -443,-324 -581,-207 -138,117 -230,473 -36,805 194,332 674,640 1070,795 396,156 707,159 1011,87 304,-72 599,-220 812,-448 213,-228 344,-536 302,-923 -42,-388 -258,-855 -606,-1116 -348,-260 -829,-313 -1153,-473 -324,-160 -490,-428 -424,-612 65,-184 362,-285 640,-263 278,22 536,167 720,27 184,-139 293,-562 106,-827z"/>
 </g>
</svg>
