<?xml version="1.0" encoding="UTF-8" standalone="no"?>
<svg
   xmlns:dc="http://purl.org/dc/elements/1.1/"
   xmlns:cc="http://creativecommons.org/ns#"
   xmlns:rdf="http://www.w3.org/1999/02/22-rdf-syntax-ns#"
   xmlns:svg="http://www.w3.org/2000/svg"
   xmlns="http://www.w3.org/2000/svg"
   xmlns:sodipodi="http://sodipodi.sourceforge.net/DTD/sodipodi-0.dtd"
   xmlns:inkscape="http://www.inkscape.org/namespaces/inkscape"
   xml:space="preserve"
   width="26.077021mm"
   height="20.316355mm"
   version="1.1"
   style="clip-rule:evenodd;fill-rule:evenodd;image-rendering:optimizeQuality;shape-rendering:geometricPrecision;text-rendering:geometricPrecision"
   viewBox="0 0 2607.7021 2031.6355"
   id="svg25"
   sodipodi:docname="oko meridy2.svg"
   inkscape:version="1.0.1 (3bc2e813f5, 2020-09-07)"><metadata
   id="metadata29"><rdf:RDF><cc:Work
       rdf:about=""><dc:format>image/svg+xml</dc:format><dc:type
         rdf:resource="http://purl.org/dc/dcmitype/StillImage" /></cc:Work></rdf:RDF></metadata><sodipodi:namedview
   pagecolor="#ffffff"
   bordercolor="#666666"
   borderopacity="1"
   objecttolerance="10"
   gridtolerance="10"
   guidetolerance="10"
   inkscape:pageopacity="0"
   inkscape:pageshadow="2"
   inkscape:window-width="1004"
   inkscape:window-height="480"
   id="namedview27"
   showgrid="false"
   inkscape:zoom="1.1162388"
   inkscape:cx="-10.159797"
   inkscape:cy="57.281064"
   inkscape:window-x="62"
   inkscape:window-y="0"
   inkscape:window-maximized="0"
   inkscape:current-layer="svg25" />
 <defs
   id="defs4">
  <style
   type="text/css"
   id="style2">
   <![CDATA[
    .fil1 {fill:#FEFEFE}
    .fil2 {fill:#74291D}
    .fil3 {fill:#4E565A}
    .fil4 {fill:#152C20}
    .fil5 {fill:#FEFEFE;fill-opacity:0.501961}
    .fil0 {fill:#CD877A;fill-opacity:0.501961}
   ]]>
  </style>
 </defs>
 <g
   id="Warstwa_x0020_1"
   transform="translate(-15118.811,-8984.4385)">
  <metadata
   id="CorelCorpID_0Corel-Layer" />
  <g
   id="_2067148934816">
   <path
   class="fil0"
   d="m 15684,10742 c 33,45 126,130 272,190 146,60 346,95 539,81 194,-14 382,-76 521,-166 139,-89 227,-206 281,-333 53,-127 72,-266 37,-279 -34,-13 -121,99 -239,199 -119,99 -270,185 -411,239 -141,54 -272,76 -391,89 -119,13 -228,17 -323,2 -96,-14 -179,-46 -234,-59 -56,-13 -83,-8 -51,37 z"
   id="path7" />
   <path
   class="fil0"
   d="m 15317,9830 c 38,-115 107,-228 196,-317 89,-89 199,-155 352,-202 153,-47 350,-75 508,-69 157,6 275,47 391,99 116,52 229,115 318,185 88,70 151,148 199,208 48,60 81,103 102,125 21,22 29,23 38,-12 9,-35 18,-106 -44,-218 -63,-112 -197,-267 -307,-380 -110,-114 -197,-187 -377,-228 -180,-41 -453,-51 -684,-12 -231,39 -421,126 -551,200 -131,73 -203,132 -256,262 -53,130 -86,330 -83,457 3,127 43,181 73,211 30,30 51,35 66,-21 15,-56 23,-172 61,-287 z"
   id="path9" />
   <path
   class="fil1"
   d="m 15263,10178 c -6,-101 -11,-225 36,-355 47,-130 145,-265 323,-372 178,-106 436,-184 668,-187 232,-4 439,65 612,201 174,136 314,338 394,440 79,102 97,103 45,187 -52,84 -175,251 -312,371 -138,120 -291,194 -455,246 -165,52 -341,82 -519,64 -178,-18 -357,-84 -485,-149 -128,-65 -206,-129 -249,-199 -43,-70 -51,-147 -58,-248 z"
   id="path11" />
   <path
   class="fil2"
   d="m 15259,10105 c -5,-28 -17,-152 35,-295 52,-143 166,-305 287,-406 121,-101 249,-141 389,-166 140,-25 291,-37 396,-33 105,4 164,22 233,41 69,19 148,39 207,44 58,5 95,-4 150,-31 55,-27 128,-71 162,-121 34,-51 30,-108 36,-109 6,-1 23,54 8,114 -15,60 -62,126 -100,165 -38,39 -66,50 -79,63 -13,12 -10,26 13,39 23,13 67,27 128,30 62,3 142,-4 205,-30 63,-25 109,-69 132,-91 23,-22 23,-22 8,1 -15,22 -46,67 -101,108 -55,41 -135,77 -182,95 -48,18 -63,18 -63,28 0,10 15,30 32,49 18,18 37,35 81,43 44,8 111,6 174,-14 63,-20 122,-59 157,-88 35,-29 45,-47 41,-34 -4,13 -22,57 -73,101 -51,45 -135,91 -183,114 -47,23 -58,22 -57,29 1,7 13,21 36,34 23,13 57,24 110,22 53,-3 125,-20 177,-49 51,-29 82,-70 97,-91 15,-21 15,-21 2,3 -13,24 -39,72 -73,118 -33,46 -74,89 -121,128 -47,39 -100,73 -128,85 -28,12 -31,1 -62,-42 -31,-44 -89,-120 -157,-201 -68,-81 -145,-165 -234,-230 -89,-65 -189,-109 -279,-143 -89,-34 -167,-58 -246,-71 -79,-13 -158,-15 -256,-3 -98,12 -216,38 -316,73 -100,35 -182,80 -250,137 -68,58 -121,129 -163,192 -42,63 -72,119 -98,164 -27,46 -50,83 -61,135 -11,52 -10,119 -16,91 z"
   id="path13" />
   <ellipse
   class="fil3"
   transform="matrix(-0.982703,0.277471,0.277471,0.982703,16290.9,10044.7)"
   rx="607"
   ry="574"
   id="ellipse15"
   cx="0"
   cy="0" />
   <path
   class="fil2"
   d="m 15401,10516 c 117,62 234,124 343,167 109,43 210,67 347,68 137,1 310,-20 457,-60 147,-40 268,-98 372,-168 104,-70 191,-153 250,-220 59,-67 91,-120 115,-153 24,-33 40,-45 72,-49 32,-3 81,3 126,28 45,25 87,68 128,111 -73,-22 -146,-43 -195,-41 -50,2 -77,27 -64,58 13,31 66,69 97,98 31,29 42,48 52,67 -65,-41 -130,-83 -194,-75 -64,8 -127,64 -144,96 -18,32 10,41 43,63 33,22 72,58 110,95 -73,-30 -145,-60 -216,-54 -71,5 -140,46 -193,76 -53,30 -90,48 -91,72 -1,24 34,52 63,86 29,33 53,71 76,109 -99,-47 -197,-94 -303,-101 -106,-7 -218,26 -359,39 -141,14 -311,8 -465,-47 -154,-55 -291,-159 -429,-264 z"
   id="path17" />
   <ellipse
   class="fil4"
   transform="matrix(-0.40707,0.114938,0.114938,0.40707,16297.7,10037.9)"
   rx="607"
   ry="574"
   id="ellipse19"
   cx="0"
   cy="0" />
   <path
   class="fil5"
   d="m 15947,9726 c -136,39 -218,174 -181,303 36,129 177,202 313,164 136,-39 218,-174 181,-303 -36,-129 -177,-202 -313,-164 z"
   id="path21" />
  </g>
 </g>
</svg>
