<?xml version="1.0" encoding="UTF-8" standalone="no"?>
<svg
   xmlns:dc="http://purl.org/dc/elements/1.1/"
   xmlns:cc="http://creativecommons.org/ns#"
   xmlns:rdf="http://www.w3.org/1999/02/22-rdf-syntax-ns#"
   xmlns:svg="http://www.w3.org/2000/svg"
   xmlns="http://www.w3.org/2000/svg"
   xmlns:sodipodi="http://sodipodi.sourceforge.net/DTD/sodipodi-0.dtd"
   xmlns:inkscape="http://www.inkscape.org/namespaces/inkscape"
   xml:space="preserve"
   width="28.390806mm"
   height="22.07756mm"
   version="1.1"
   style="clip-rule:evenodd;fill-rule:evenodd;image-rendering:optimizeQuality;shape-rendering:geometricPrecision;text-rendering:geometricPrecision"
   viewBox="0 0 2839.0806 2207.756"
   id="svg25"
   sodipodi:docname="oko1.svg"
   inkscape:version="1.0.1 (3bc2e813f5, 2020-09-07)"><metadata
   id="metadata29"><rdf:RDF><cc:Work
       rdf:about=""><dc:format>image/svg+xml</dc:format><dc:type
         rdf:resource="http://purl.org/dc/dcmitype/StillImage" /></cc:Work></rdf:RDF></metadata><sodipodi:namedview
   pagecolor="#ffffff"
   bordercolor="#666666"
   borderopacity="1"
   objecttolerance="10"
   gridtolerance="10"
   guidetolerance="10"
   inkscape:pageopacity="0"
   inkscape:pageshadow="2"
   inkscape:window-width="753"
   inkscape:window-height="480"
   id="namedview27"
   showgrid="false"
   inkscape:zoom="1.1162388"
   inkscape:cx="-70.034201"
   inkscape:cy="9.4055461"
   inkscape:window-x="62"
   inkscape:window-y="0"
   inkscape:window-maximized="0"
   inkscape:current-layer="svg25" />
 <defs
   id="defs4">
  <style
   type="text/css"
   id="style2">
   <![CDATA[
    .fil1 {fill:#FEFEFE}
    .fil3 {fill:#738767}
    .fil2 {fill:#1F130D}
    .fil4 {fill:#FEFEFE;fill-opacity:0.501961}
    .fil0 {fill:#D7ACA6;fill-opacity:0.501961}
   ]]>
  </style>
 </defs>
 <g
   id="Warstwa_x0020_1"
   transform="translate(-16702.988,-10251.145)">
  <metadata
   id="CorelCorpID_0Corel-Layer" />
  <g
   id="_2067147454432">
   <path
   class="fil0"
   d="m 18920,12132 c -34,50 -131,146 -287,217 -156,71 -371,117 -582,109 -211,-7 -417,-68 -571,-159 -154,-92 -255,-214 -318,-350 -63,-136 -88,-286 -52,-301 37,-15 135,103 267,206 133,103 300,190 455,243 155,53 298,72 428,81 130,9 247,9 351,-10 103,-19 192,-57 252,-74 60,-17 90,-12 57,38 z"
   id="path7" />
   <path
   class="fil0"
   d="m 19322,11130 c -46,-123 -125,-243 -225,-336 -100,-93 -221,-160 -390,-205 -168,-45 -383,-68 -554,-54 -170,13 -296,62 -420,123 -123,61 -244,133 -337,213 -93,80 -158,166 -208,233 -50,67 -84,115 -105,139 -22,25 -31,26 -42,-11 -11,-37 -24,-114 40,-238 63,-124 203,-297 318,-425 115,-128 206,-211 400,-262 193,-52 489,-73 741,-40 252,33 461,120 606,195 145,74 225,135 288,274 63,138 107,354 108,492 2,138 -40,198 -71,232 -32,33 -54,40 -72,-20 -18,-60 -31,-186 -77,-309 z"
   id="path9" />
   <path
   class="fil1"
   d="m 19395,11505 c 3,-109 3,-244 -53,-383 -56,-139 -168,-282 -365,-390 -197,-108 -480,-182 -732,-177 -252,5 -473,88 -656,242 -183,154 -328,379 -410,493 -82,114 -102,116 -42,205 60,89 199,265 353,390 154,125 323,199 504,249 181,50 373,75 565,49 192,-27 384,-105 521,-181 137,-76 218,-148 262,-226 44,-78 50,-162 53,-271 z"
   id="path11" />
   <path
   class="fil2"
   d="m 19397,11426 c 5,-31 12,-166 -50,-319 -62,-153 -192,-324 -328,-429 -135,-105 -276,-143 -428,-165 -152,-22 -317,-28 -431,-20 -114,8 -177,30 -251,54 -74,23 -159,48 -222,56 -63,8 -104,-1 -164,-27 -61,-27 -142,-72 -181,-125 -39,-54 -37,-116 -43,-117 -7,-1 -23,59 -4,124 19,65 72,135 115,175 42,40 74,52 88,65 14,13 12,27 -12,43 -25,15 -71,32 -138,37 -67,6 -154,1 -223,-24 -69,-25 -121,-70 -147,-93 -26,-23 -26,-23 -8,1 17,24 52,71 114,113 61,42 149,78 202,96 52,18 69,17 69,28 1,11 -15,33 -33,54 -18,21 -39,40 -86,49 -47,10 -120,11 -190,-8 -69,-19 -135,-59 -174,-89 -39,-30 -50,-49 -46,-35 5,14 26,60 83,107 57,47 150,93 203,116 52,23 64,22 63,29 -1,7 -13,23 -38,38 -24,15 -60,29 -118,28 -58,-1 -137,-16 -194,-46 -57,-30 -92,-73 -109,-95 -17,-22 -17,-22 -2,4 15,26 45,77 83,125 38,48 84,93 136,134 52,40 111,76 142,88 31,12 34,0 65,-48 32,-49 92,-134 162,-224 70,-90 151,-185 245,-258 94,-74 201,-126 297,-166 95,-41 179,-69 264,-86 85,-17 170,-23 277,-14 107,9 236,33 346,67 110,34 201,79 277,139 76,60 137,135 185,202 48,67 83,126 113,175 31,49 57,88 71,144 14,56 16,129 21,98 z"
   id="path13" />
   <ellipse
   class="fil3"
   transform="matrix(1.07682,0.26217,-0.26217,1.07682,18274.7,11401.5)"
   rx="607"
   ry="574"
   id="ellipse15"
   cx="0"
   cy="0" />
   <path
   class="fil2"
   d="m 19259,11878 c -125,72 -249,144 -366,195 -117,51 -225,81 -374,87 -149,7 -337,-10 -498,-47 -161,-37 -295,-95 -410,-167 -116,-72 -213,-158 -280,-229 -67,-71 -104,-126 -131,-161 -27,-34 -45,-48 -81,-50 -35,-2 -88,6 -136,35 -48,29 -91,77 -134,126 78,-26 156,-53 210,-53 54,0 84,26 71,61 -13,35 -69,78 -102,110 -33,32 -43,54 -53,75 69,-47 138,-95 207,-89 70,6 140,64 160,99 20,34 -9,44 -45,70 -35,25 -76,66 -116,107 78,-35 155,-70 233,-67 77,3 154,44 213,74 59,30 99,49 101,74 2,26 -35,58 -65,95 -30,37 -54,79 -79,121 105,-55 210,-110 324,-122 114,-12 237,19 391,29 154,9 338,-4 503,-70 165,-66 310,-184 455,-303 z"
   id="path17" />
   <ellipse
   class="fil2"
   transform="matrix(0.446057,0.1086,-0.1086,0.446057,18267,11394.5)"
   rx="607"
   ry="574"
   id="ellipse19"
   cx="0"
   cy="0" />
   <path
   class="fil4"
   d="m 18158,10926 c 150,36 243,181 208,322 -34,141 -184,226 -333,190 -150,-36 -243,-181 -208,-322 34,-141 184,-226 333,-190 z"
   id="path21" />
  </g>
 </g>
</svg>
