<?xml version="1.0" encoding="UTF-8" standalone="no"?>
<svg
   xmlns:dc="http://purl.org/dc/elements/1.1/"
   xmlns:cc="http://creativecommons.org/ns#"
   xmlns:rdf="http://www.w3.org/1999/02/22-rdf-syntax-ns#"
   xmlns:svg="http://www.w3.org/2000/svg"
   xmlns="http://www.w3.org/2000/svg"
   xmlns:sodipodi="http://sodipodi.sourceforge.net/DTD/sodipodi-0.dtd"
   xmlns:inkscape="http://www.inkscape.org/namespaces/inkscape"
   xml:space="preserve"
   width="28.282669mm"
   height="22.945562mm"
   version="1.0"
   style="clip-rule:evenodd;fill-rule:evenodd;image-rendering:optimizeQuality;shape-rendering:geometricPrecision;text-rendering:geometricPrecision"
   viewBox="0 0 2828.2669 2294.5562"
   id="svg25"
   sodipodi:docname="oko1.svg"
   inkscape:version="1.0.1 (3bc2e813f5, 2020-09-07)"><metadata
   id="metadata29"><rdf:RDF><cc:Work
       rdf:about=""><dc:format>image/svg+xml</dc:format><dc:type
         rdf:resource="http://purl.org/dc/dcmitype/StillImage" /></cc:Work></rdf:RDF></metadata><sodipodi:namedview
   pagecolor="#ffffff"
   bordercolor="#666666"
   borderopacity="1"
   objecttolerance="10"
   gridtolerance="10"
   guidetolerance="10"
   inkscape:pageopacity="0"
   inkscape:pageshadow="2"
   inkscape:window-width="1004"
   inkscape:window-height="480"
   id="namedview27"
   showgrid="false"
   inkscape:zoom="1.1162388"
   inkscape:cx="-17.049114"
   inkscape:cy="-27.172903"
   inkscape:window-x="62"
   inkscape:window-y="0"
   inkscape:window-maximized="0"
   inkscape:current-layer="svg25" />
 <defs
   id="defs4">
  <style
   type="text/css"
   id="style2">
   <![CDATA[
    .fil1 {fill:#FEFEFE}
    .fil3 {fill:#2B2A29}
    .fil4 {fill:#1F1B20}
    .fil2 {fill:#291A13}
    .fil5 {fill:#FEFEFE;fill-opacity:0.501961}
    .fil0 {fill:#E4B9AF;fill-opacity:0.501961}
   ]]>
  </style>
 </defs>
 <g
   id="Warstwa_x0020_1"
   transform="translate(-15301.091,-11218.95)">
  <metadata
   id="CorelCorpID_0Corel-Layer" />
  <g
   id="_2067267609472">
   <path
   class="fil0"
   d="m 17609,13081 c -80,80 -291,256 -508,349 -217,93 -441,102 -651,58 -210,-44 -407,-140 -545,-258 -138,-118 -219,-259 -258,-406 -40,-147 -39,-302 -3,-342 36,-40 108,34 231,143 123,109 296,253 459,345 164,92 318,131 450,157 133,26 245,39 375,22 130,-17 278,-65 378,-98 100,-33 152,-50 72,30 z"
   id="path7" />
   <path
   class="fil0"
   d="m 17761,12421 c -45,-114 -113,-223 -184,-304 -71,-82 -145,-137 -268,-188 -123,-52 -296,-100 -448,-122 -152,-21 -285,-15 -425,-18 -140,-3 -288,-15 -402,17 -114,32 -195,107 -256,166 -61,59 -104,101 -130,122 -26,21 -35,21 -40,-18 -5,-39 -4,-118 81,-232 85,-114 255,-263 392,-371 138,-108 243,-176 446,-194 203,-19 503,11 750,88 247,77 442,200 574,300 132,99 203,175 242,324 39,150 46,374 24,512 -22,139 -74,192 -124,224 -50,32 -98,41 -132,-14 -34,-55 -56,-176 -100,-290 z"
   id="path9" />
   <path
   class="fil1"
   d="m 17820,12743 c 0,-89 -29,-205 -70,-340 -41,-135 -93,-289 -238,-421 -144,-132 -380,-241 -613,-292 -233,-51 -463,-42 -671,57 -208,99 -394,290 -496,390 -102,100 -120,109 -71,196 49,87 166,252 311,387 145,135 318,241 489,315 171,75 340,118 517,118 177,0 363,-44 495,-85 132,-41 209,-79 263,-128 54,-49 83,-110 83,-198 z"
   id="path11" />
   <ellipse
   class="fil2"
   transform="matrix(1.03469,0.448264,-0.448264,1.03469,16815.5,12458)"
   rx="607"
   ry="574"
   id="ellipse13"
   cx="0"
   cy="0" />
   <path
   class="fil3"
   d="m 17713,12964 c -137,51 -275,101 -400,132 -126,31 -240,42 -390,23 -150,-19 -336,-68 -491,-133 -155,-65 -279,-146 -382,-238 -103,-92 -186,-195 -241,-278 -55,-83 -82,-145 -104,-184 -21,-39 -37,-56 -72,-64 -35,-8 -89,-9 -142,12 -53,20 -105,62 -156,103 83,-13 166,-26 220,-17 54,9 80,41 61,73 -19,32 -82,66 -121,93 -39,27 -53,46 -67,66 77,-36 154,-71 223,-54 69,18 129,89 144,127 14,38 -17,43 -57,62 -40,19 -87,53 -135,87 84,-22 168,-44 245,-27 77,16 147,71 200,111 54,40 91,66 89,92 -2,26 -45,52 -82,84 -37,32 -68,70 -100,108 115,-37 230,-74 346,-66 117,8 235,60 387,96 153,36 340,54 516,17 176,-38 342,-132 508,-226 z"
   id="path15" />
   <ellipse
   class="fil4"
   transform="matrix(0.428605,0.185687,-0.185687,0.428605,16809,12449.7)"
   rx="607"
   ry="574"
   id="ellipse17"
   cx="0"
   cy="0" />
   <path
   class="fil5"
   d="m 16599,12128 c 144,62 212,223 154,359 -59,136 -223,195 -367,133 -144,-62 -212,-223 -154,-359 59,-136 223,-195 367,-133 z"
   id="path19" />
   <path
   class="fil3"
   d="m 17837,12823 c 10,-30 41,-164 5,-328 -35,-164 -137,-358 -255,-487 -118,-128 -252,-191 -401,-239 -149,-48 -313,-83 -419,-103 -106,-21 -153,-27 -215,-41 -62,-14 -138,-35 -196,-53 -58,-18 -97,-34 -153,-71 -56,-37 -130,-96 -160,-157 -30,-60 -17,-122 -23,-125 -7,-2 -33,56 -25,124 8,68 49,147 85,195 35,48 65,65 77,80 12,15 7,30 -20,41 -27,11 -77,20 -145,14 -68,-6 -154,-26 -219,-63 -65,-37 -109,-91 -132,-119 -22,-27 -22,-27 -9,0 13,27 40,80 95,133 54,53 136,104 186,131 49,27 66,29 65,40 -1,11 -21,31 -43,49 -22,18 -46,33 -95,35 -49,2 -122,-10 -189,-41 -66,-31 -125,-83 -159,-119 -34,-36 -42,-58 -40,-43 2,15 16,65 65,122 49,57 135,119 183,151 49,32 60,33 58,40 -2,7 -17,21 -44,32 -27,11 -66,18 -123,8 -58,-11 -134,-40 -186,-79 -52,-39 -79,-89 -93,-114 -14,-25 -14,-25 -3,3 11,28 32,85 62,140 30,55 68,108 113,157 45,49 98,95 127,112 29,17 34,6 74,-37 40,-43 115,-118 287,-194 172,-76 441,-152 682,-165 241,-13 453,39 601,95 148,56 231,116 297,190 66,73 114,159 150,235 36,75 61,140 83,195 22,54 42,98 47,156 5,59 -6,132 4,102 z"
   id="path21" />
  </g>
 </g>
</svg>
