<?xml version="1.0" encoding="UTF-8" standalone="no"?>
<svg
   xmlns:dc="http://purl.org/dc/elements/1.1/"
   xmlns:cc="http://creativecommons.org/ns#"
   xmlns:rdf="http://www.w3.org/1999/02/22-rdf-syntax-ns#"
   xmlns:svg="http://www.w3.org/2000/svg"
   xmlns="http://www.w3.org/2000/svg"
   xmlns:sodipodi="http://sodipodi.sourceforge.net/DTD/sodipodi-0.dtd"
   xmlns:inkscape="http://www.inkscape.org/namespaces/inkscape"
   xml:space="preserve"
   width="28.333069mm"
   height="22.059521mm"
   version="1.1"
   style="clip-rule:evenodd;fill-rule:evenodd;image-rendering:optimizeQuality;shape-rendering:geometricPrecision;text-rendering:geometricPrecision"
   viewBox="0 0 2833.3069 2205.9521"
   id="svg25"
   sodipodi:docname="oko2.svg"
   inkscape:version="1.0.1 (3bc2e813f5, 2020-09-07)"><metadata
   id="metadata29"><rdf:RDF><cc:Work
       rdf:about=""><dc:format>image/svg+xml</dc:format><dc:type
         rdf:resource="http://purl.org/dc/dcmitype/StillImage" /></cc:Work></rdf:RDF></metadata><sodipodi:namedview
   pagecolor="#ffffff"
   bordercolor="#666666"
   borderopacity="1"
   objecttolerance="10"
   gridtolerance="10"
   guidetolerance="10"
   inkscape:pageopacity="0"
   inkscape:pageshadow="2"
   inkscape:window-width="753"
   inkscape:window-height="480"
   id="namedview27"
   showgrid="false"
   inkscape:zoom="1.1162388"
   inkscape:cx="-43.944748"
   inkscape:cy="22.665458"
   inkscape:window-x="62"
   inkscape:window-y="0"
   inkscape:window-maximized="0"
   inkscape:current-layer="svg25" />
 <defs
   id="defs4">
  <style
   type="text/css"
   id="style2">
   <![CDATA[
    .fil1 {fill:#FEFEFE}
    .fil3 {fill:#738767}
    .fil2 {fill:#1F130D}
    .fil4 {fill:#FEFEFE;fill-opacity:0.501961}
    .fil0 {fill:#D7ACA6;fill-opacity:0.501961}
   ]]>
  </style>
 </defs>
 <g
   id="Warstwa_x0020_1"
   transform="translate(-16012.705,-9900.3098)">
  <metadata
   id="CorelCorpID_0Corel-Layer" />
  <g
   id="_2067147441728">
   <path
   class="fil0"
   d="m 16629,11809 c 35,49 136,141 295,206 159,65 375,103 585,88 210,-15 415,-83 565,-180 150,-97 247,-223 305,-362 58,-138 78,-289 41,-303 -37,-14 -131,108 -260,215 -129,108 -293,200 -446,259 -153,59 -295,83 -425,97 -130,14 -247,18 -351,3 -104,-15 -194,-50 -254,-64 -60,-14 -91,-9 -55,40 z"
   id="path7" />
   <path
   class="fil0"
   d="m 16231,10819 c 42,-125 116,-247 212,-344 97,-97 215,-168 382,-219 166,-51 380,-81 551,-74 171,7 299,52 424,108 126,56 249,124 345,200 96,76 164,160 216,225 52,65 88,112 110,136 23,24 32,25 41,-13 10,-38 20,-115 -48,-237 -68,-122 -214,-290 -334,-413 -120,-123 -214,-203 -409,-248 -195,-45 -491,-55 -742,-13 -251,42 -456,137 -598,217 -142,79 -220,143 -278,284 -57,141 -94,358 -90,496 3,138 47,197 80,229 33,32 56,38 72,-23 16,-60 24,-187 66,-311 z"
   id="path9" />
   <path
   class="fil1"
   d="m 16173,11196 c -7,-109 -12,-244 39,-385 51,-141 157,-288 351,-403 193,-115 473,-199 725,-203 252,-4 476,71 665,218 188,147 341,367 427,478 86,111 106,112 49,203 -57,91 -189,272 -339,403 -149,131 -315,211 -494,267 -179,56 -370,89 -563,69 -193,-20 -388,-91 -527,-162 -139,-71 -223,-140 -270,-216 -47,-76 -56,-160 -63,-269 z"
   id="path11" />
   <path
   class="fil2"
   d="m 16168,11117 c -6,-31 -18,-165 38,-320 56,-155 180,-331 312,-441 132,-110 271,-153 422,-180 152,-28 316,-40 430,-36 114,4 178,24 253,45 75,21 161,42 224,48 63,6 103,-4 163,-33 60,-29 139,-77 176,-132 37,-55 32,-117 39,-118 7,-1 25,58 8,124 -16,66 -67,137 -108,179 -41,42 -72,54 -86,68 -14,13 -11,28 14,42 25,15 72,29 139,32 67,3 154,-5 222,-32 68,-28 119,-75 144,-98 25,-24 25,-24 8,1 -17,24 -50,73 -110,117 -60,44 -146,84 -198,104 -52,20 -68,19 -68,30 0,11 16,33 35,53 19,20 41,38 88,46 47,8 121,7 189,-15 69,-22 133,-64 171,-95 38,-31 49,-51 44,-37 -4,14 -24,61 -79,110 -55,49 -147,99 -198,123 -51,25 -63,24 -62,32 1,7 14,23 39,37 25,14 61,26 119,24 58,-3 136,-21 192,-53 56,-32 89,-76 105,-99 17,-22 17,-22 2,4 -14,26 -43,79 -79,128 -36,50 -80,96 -131,138 -51,42 -108,80 -139,93 -30,13 -34,1 -67,-46 -33,-47 -97,-130 -170,-218 -74,-87 -158,-179 -254,-249 -97,-70 -206,-119 -302,-156 -97,-37 -182,-63 -267,-77 -85,-14 -171,-16 -278,-3 -107,13 -235,41 -343,80 -109,38 -198,86 -272,149 -74,63 -132,140 -177,209 -45,69 -78,129 -107,179 -29,50 -54,90 -66,146 -12,56 -11,130 -17,99 z"
   id="path13" />
   <ellipse
   class="fil3"
   transform="matrix(-1.06658,0.301153,0.301153,1.06658,17288,11051.7)"
   rx="607"
   ry="574"
   id="ellipse15"
   cx="0"
   cy="0" />
   <path
   class="fil2"
   d="m 16322,11564 c 127,67 254,135 373,181 118,47 228,72 377,74 149,1 336,-22 496,-65 160,-43 291,-106 404,-182 113,-76 207,-166 272,-239 64,-73 99,-130 125,-166 26,-35 43,-49 79,-53 35,-4 88,3 137,30 49,27 94,74 139,121 -79,-23 -158,-47 -212,-45 -54,2 -83,29 -69,63 14,34 71,75 105,106 34,31 45,52 56,73 -71,-45 -141,-90 -211,-81 -69,8 -138,69 -157,104 -19,35 11,44 47,68 36,24 78,63 120,103 -79,-32 -158,-65 -235,-59 -77,6 -152,50 -210,82 -58,32 -98,52 -99,78 -1,26 37,57 69,93 32,36 57,77 83,118 -107,-51 -214,-102 -329,-110 -115,-8 -236,28 -390,43 -153,15 -338,8 -505,-51 -167,-60 -316,-173 -465,-286 z"
   id="path17" />
   <ellipse
   class="fil2"
   transform="matrix(-0.441813,0.124748,0.124748,0.441813,17295.4,11044.3)"
   rx="607"
   ry="574"
   id="ellipse19"
   cx="0"
   cy="0" />
   <path
   class="fil4"
   d="m 16914,10706 c -148,42 -236,189 -197,329 40,140 192,220 340,178 148,-42 236,-189 197,-329 -40,-140 -192,-220 -340,-178 z"
   id="path21" />
  </g>
 </g>
</svg>
