<?xml version="1.0" encoding="UTF-8" standalone="no"?>
<svg
   xmlns:dc="http://purl.org/dc/elements/1.1/"
   xmlns:cc="http://creativecommons.org/ns#"
   xmlns:rdf="http://www.w3.org/1999/02/22-rdf-syntax-ns#"
   xmlns:svg="http://www.w3.org/2000/svg"
   xmlns="http://www.w3.org/2000/svg"
   xmlns:sodipodi="http://sodipodi.sourceforge.net/DTD/sodipodi-0.dtd"
   xmlns:inkscape="http://www.inkscape.org/namespaces/inkscape"
   xml:space="preserve"
   width="30.861816mm"
   height="24.036835mm"
   version="1.1"
   style="clip-rule:evenodd;fill-rule:evenodd;image-rendering:optimizeQuality;shape-rendering:geometricPrecision;text-rendering:geometricPrecision"
   viewBox="0 0 3086.1816 2403.6835"
   id="svg25"
   sodipodi:docname="oko2.svg"
   inkscape:version="1.0.1 (3bc2e813f5, 2020-09-07)"><metadata
   id="metadata29"><rdf:RDF><cc:Work
       rdf:about=""><dc:format>image/svg+xml</dc:format><dc:type
         rdf:resource="http://purl.org/dc/dcmitype/StillImage" /></cc:Work></rdf:RDF></metadata><sodipodi:namedview
   pagecolor="#ffffff"
   bordercolor="#666666"
   borderopacity="1"
   objecttolerance="10"
   gridtolerance="10"
   guidetolerance="10"
   inkscape:pageopacity="0"
   inkscape:pageshadow="2"
   inkscape:window-width="753"
   inkscape:window-height="480"
   id="namedview27"
   showgrid="false"
   inkscape:zoom="1.1162388"
   inkscape:cx="-42.093315"
   inkscape:cy="49.180592"
   inkscape:window-x="62"
   inkscape:window-y="0"
   inkscape:window-maximized="0"
   inkscape:current-layer="svg25" />
 <defs
   id="defs4">
  <style
   type="text/css"
   id="style2">
   <![CDATA[
    .fil1 {fill:#FEFEFE}
    .fil3 {fill:#593A1B}
    .fil2 {fill:#1F130D}
    .fil4 {fill:#FEFEFE;fill-opacity:0.501961}
    .fil0 {fill:#D7ACA6;fill-opacity:0.501961}
   ]]>
  </style>
 </defs>
 <g
   id="Warstwa_x0020_1"
   transform="translate(-15963.719,-9198.7635)">
  <metadata
   id="CorelCorpID_0Corel-Layer" />
  <g
   id="_2067148708928">
   <path
   class="fil0"
   d="m 16634,11278 c 39,53 148,154 321,225 173,71 409,112 638,96 229,-16 452,-90 615,-196 164,-106 269,-243 332,-394 63,-151 85,-314 44,-330 -40,-15 -143,118 -283,235 -140,117 -319,218 -486,282 -167,64 -321,90 -462,106 -141,15 -269,20 -382,3 -113,-17 -211,-54 -277,-70 -66,-16 -99,-10 -60,44 z"
   id="path7" />
   <path
   class="fil0"
   d="m 16201,10200 c 45,-136 126,-269 231,-375 105,-106 235,-183 416,-239 181,-55 414,-89 600,-81 186,8 325,56 462,117 137,61 271,135 375,218 104,83 179,174 236,246 57,71 96,122 120,148 24,26 35,27 45,-14 10,-41 21,-125 -53,-258 -74,-133 -233,-315 -363,-450 -131,-134 -233,-221 -445,-270 -212,-49 -535,-60 -808,-14 -273,46 -497,149 -652,236 -155,87 -240,156 -303,309 -63,153 -102,390 -98,540 4,150 51,214 87,250 36,35 61,41 78,-25 17,-66 27,-203 72,-339 z"
   id="path9" />
   <path
   class="fil1"
   d="m 16137,10610 c -8,-119 -13,-266 43,-419 55,-154 172,-314 382,-439 210,-126 515,-217 789,-222 274,-5 519,77 724,238 205,161 372,400 465,520 94,120 115,122 53,222 -62,99 -206,296 -369,438 -163,142 -344,230 -538,291 -195,61 -403,97 -613,76 -210,-21 -422,-99 -574,-176 -152,-77 -243,-152 -294,-236 -51,-83 -61,-174 -68,-293 z"
   id="path11" />
   <path
   class="fil2"
   d="m 16132,10524 c -6,-33 -20,-180 41,-349 61,-169 196,-361 340,-480 143,-119 295,-166 460,-196 165,-30 344,-43 468,-39 124,4 194,26 276,49 82,23 175,46 244,52 69,6 113,-5 178,-36 65,-32 151,-84 192,-143 40,-60 35,-127 42,-129 7,-1 27,64 9,135 -18,71 -73,149 -118,195 -44,46 -78,59 -93,74 -15,15 -12,30 15,46 27,16 79,32 152,35 73,4 167,-5 242,-35 74,-30 129,-81 156,-107 27,-26 27,-26 9,1 -18,27 -54,80 -119,128 -65,48 -159,91 -216,113 -56,21 -74,21 -74,33 0,12 18,36 38,58 21,22 44,41 96,50 52,9 131,7 206,-17 75,-24 145,-70 186,-104 41,-34 53,-55 48,-40 -5,15 -26,67 -86,120 -60,53 -160,107 -216,134 -56,27 -69,26 -68,34 1,8 15,25 42,40 27,15 67,29 130,26 63,-3 148,-23 209,-58 61,-34 97,-83 115,-108 18,-24 18,-24 3,4 -15,29 -46,86 -86,140 -39,54 -87,105 -143,151 -55,46 -118,87 -151,101 -33,14 -37,1 -73,-50 -36,-52 -105,-142 -186,-237 -80,-95 -172,-195 -277,-272 -105,-76 -224,-129 -329,-169 -105,-40 -198,-68 -290,-83 -93,-15 -186,-18 -302,-4 -116,14 -256,45 -374,87 -118,42 -215,94 -296,162 -80,68 -144,153 -193,227 -49,75 -85,140 -116,194 -31,54 -59,98 -72,159 -13,62 -12,141 -18,108 z"
   id="path13" />
   <ellipse
   class="fil3"
   transform="matrix(-1.16161,0.327988,0.327988,1.16161,17351.7,10453.4)"
   rx="607"
   ry="574"
   id="ellipse15"
   cx="0"
   cy="0" />
   <path
   class="fil2"
   d="m 16300,11011 c 138,73 277,147 406,197 129,51 248,79 410,80 162,1 366,-24 540,-71 174,-47 317,-115 440,-198 123,-83 226,-180 296,-260 70,-80 108,-142 136,-180 28,-39 47,-54 86,-58 38,-4 96,3 149,33 53,29 102,80 151,132 -86,-26 -172,-51 -231,-49 -59,2 -91,32 -75,69 15,37 78,82 115,116 37,34 49,57 61,80 -77,-49 -154,-98 -229,-89 -76,9 -150,76 -171,114 -21,38 12,48 51,74 39,26 85,69 130,112 -86,-35 -172,-70 -256,-64 -84,6 -166,54 -228,89 -63,35 -106,57 -107,85 -1,28 40,62 75,101 35,39 62,84 90,129 -117,-56 -233,-111 -358,-119 -125,-8 -258,31 -424,47 -167,16 -368,9 -550,-56 -182,-65 -344,-189 -507,-312 z"
   id="path17" />
   <ellipse
   class="fil2"
   transform="matrix(-0.481181,0.135864,0.135864,0.481181,17359.8,10445.4)"
   rx="607"
   ry="574"
   id="ellipse19"
   cx="0"
   cy="0" />
   <path
   class="fil4"
   d="m 16945,10077 c -161,46 -257,206 -214,359 43,152 209,239 370,194 161,-46 257,-206 214,-359 -43,-152 -209,-239 -370,-194 z"
   id="path21" />
  </g>
 </g>
</svg>
