<?xml version="1.0" encoding="UTF-8" standalone="no"?>
<svg
   xmlns:dc="http://purl.org/dc/elements/1.1/"
   xmlns:cc="http://creativecommons.org/ns#"
   xmlns:rdf="http://www.w3.org/1999/02/22-rdf-syntax-ns#"
   xmlns:svg="http://www.w3.org/2000/svg"
   xmlns="http://www.w3.org/2000/svg"
   xmlns:sodipodi="http://sodipodi.sourceforge.net/DTD/sodipodi-0.dtd"
   xmlns:inkscape="http://www.inkscape.org/namespaces/inkscape"
   xml:space="preserve"
   width="10.785041mm"
   height="29.055878mm"
   version="1.1"
   style="clip-rule:evenodd;fill-rule:evenodd;image-rendering:optimizeQuality;shape-rendering:geometricPrecision;text-rendering:geometricPrecision"
   viewBox="0 0 1078.5041 2905.5878"
   id="svg10"
   sodipodi:docname="pasemko10.svg"
   inkscape:version="1.0.1 (3bc2e813f5, 2020-09-07)"><metadata
   id="metadata14"><rdf:RDF><cc:Work
       rdf:about=""><dc:format>image/svg+xml</dc:format><dc:type
         rdf:resource="http://purl.org/dc/dcmitype/StillImage" /></cc:Work></rdf:RDF></metadata><sodipodi:namedview
   pagecolor="#ffffff"
   bordercolor="#666666"
   borderopacity="1"
   objecttolerance="10"
   gridtolerance="10"
   guidetolerance="10"
   inkscape:pageopacity="0"
   inkscape:pageshadow="2"
   inkscape:window-width="1004"
   inkscape:window-height="480"
   id="namedview12"
   showgrid="false"
   inkscape:zoom="1.1162388"
   inkscape:cx="14.779569"
   inkscape:cy="46.513565"
   inkscape:window-x="62"
   inkscape:window-y="0"
   inkscape:window-maximized="0"
   inkscape:current-layer="svg10" />
 <defs
   id="defs4">
  <style
   type="text/css"
   id="style2">
   <![CDATA[
    .fil0 {fill:#E64223}
   ]]>
  </style>
 </defs>
 <g
   id="Warstwa_x0020_1"
   transform="translate(-14458.957,-9269.3286)">
  <metadata
   id="CorelCorpID_0Corel-Layer" />
  <path
   class="fil0"
   d="m 14561,9279 c -44,51 -65,313 -84,507 -19,194 -37,319 24,425 60,106 198,192 338,215 140,24 280,-16 367,24 87,39 119,157 85,264 -34,108 -134,206 -222,308 -88,102 -164,208 -201,296 -37,88 -34,159 15,206 48,47 142,71 203,145 60,74 87,200 85,280 -1,80 -31,116 -53,147 -22,31 -37,59 -44,72 -7,14 -7,14 46,-71 53,-84 159,-253 163,-396 4,-143 -93,-260 -84,-366 9,-106 123,-200 207,-366 84,-166 137,-405 131,-572 -6,-166 -70,-260 -182,-317 -112,-57 -270,-76 -380,-159 -110,-82 -172,-227 -236,-380 -65,-153 -132,-313 -176,-262 z"
   id="path7" />
 </g>
</svg>
