<?xml version="1.0" encoding="UTF-8" standalone="no"?>
<svg
   xmlns:dc="http://purl.org/dc/elements/1.1/"
   xmlns:cc="http://creativecommons.org/ns#"
   xmlns:rdf="http://www.w3.org/1999/02/22-rdf-syntax-ns#"
   xmlns:svg="http://www.w3.org/2000/svg"
   xmlns="http://www.w3.org/2000/svg"
   xmlns:sodipodi="http://sodipodi.sourceforge.net/DTD/sodipodi-0.dtd"
   xmlns:inkscape="http://www.inkscape.org/namespaces/inkscape"
   xml:space="preserve"
   width="49.010513mm"
   height="29.883638mm"
   version="1.1"
   style="clip-rule:evenodd;fill-rule:evenodd;image-rendering:optimizeQuality;shape-rendering:geometricPrecision;text-rendering:geometricPrecision"
   viewBox="0 0 4901.0513 2988.3638"
   id="svg10"
   sodipodi:docname="pasemko4.svg"
   inkscape:version="1.0.1 (3bc2e813f5, 2020-09-07)"><metadata
   id="metadata14"><rdf:RDF><cc:Work
       rdf:about=""><dc:format>image/svg+xml</dc:format><dc:type
         rdf:resource="http://purl.org/dc/dcmitype/StillImage" /></cc:Work></rdf:RDF></metadata><sodipodi:namedview
   pagecolor="#ffffff"
   bordercolor="#666666"
   borderopacity="1"
   objecttolerance="10"
   gridtolerance="10"
   guidetolerance="10"
   inkscape:pageopacity="0"
   inkscape:pageshadow="2"
   inkscape:window-width="1004"
   inkscape:window-height="480"
   id="namedview12"
   showgrid="false"
   inkscape:zoom="1.1162388"
   inkscape:cx="69.986749"
   inkscape:cy="200.84631"
   inkscape:window-x="62"
   inkscape:window-y="0"
   inkscape:window-maximized="0"
   inkscape:current-layer="svg10" />
 <defs
   id="defs4">
  <style
   type="text/css"
   id="style2">
   <![CDATA[
    .fil0 {fill:#74291D}
   ]]>
  </style>
 </defs>
 <g
   id="Warstwa_x0020_1"
   transform="translate(-12998.267,-5185.9415)">
  <metadata
   id="CorelCorpID_0Corel-Layer" />
  <path
   class="fil0"
   d="m 17885,5255 c -65,35 -394,129 -681,141 -288,12 -535,-59 -652,100 -117,159 -106,546 -117,816 -12,270 -47,423 -104,546 -57,123 -137,217 -348,270 -211,53 -555,65 -815,123 -260,59 -436,164 -548,300 -112,135 -159,300 -352,423 -194,123 -535,206 -775,200 -241,-6 -382,-100 -452,-147 -70,-47 -70,-47 123,-129 194,-82 582,-247 881,-470 300,-223 511,-505 758,-599 247,-94 529,0 758,-76 229,-76 405,-323 476,-582 70,-258 35,-529 88,-705 53,-176 194,-258 446,-276 253,-18 617,29 899,41 282,12 482,-12 417,24 z"
   id="path7" />
 </g>
</svg>
