<?xml version="1.0" encoding="UTF-8" standalone="no"?>
<svg
   xmlns:dc="http://purl.org/dc/elements/1.1/"
   xmlns:cc="http://creativecommons.org/ns#"
   xmlns:rdf="http://www.w3.org/1999/02/22-rdf-syntax-ns#"
   xmlns:svg="http://www.w3.org/2000/svg"
   xmlns="http://www.w3.org/2000/svg"
   xmlns:sodipodi="http://sodipodi.sourceforge.net/DTD/sodipodi-0.dtd"
   xmlns:inkscape="http://www.inkscape.org/namespaces/inkscape"
   xml:space="preserve"
   width="32.940773mm"
   height="13.991605mm"
   version="1.1"
   style="clip-rule:evenodd;fill-rule:evenodd;image-rendering:optimizeQuality;shape-rendering:geometricPrecision;text-rendering:geometricPrecision"
   viewBox="0 0 3294.0773 1399.1605"
   id="svg10"
   sodipodi:docname="usta.svg"
   inkscape:version="1.0.1 (3bc2e813f5, 2020-09-07)"><metadata
   id="metadata14"><rdf:RDF><cc:Work
       rdf:about=""><dc:format>image/svg+xml</dc:format><dc:type
         rdf:resource="http://purl.org/dc/dcmitype/StillImage" /></cc:Work></rdf:RDF></metadata><sodipodi:namedview
   pagecolor="#ffffff"
   bordercolor="#666666"
   borderopacity="1"
   objecttolerance="10"
   gridtolerance="10"
   guidetolerance="10"
   inkscape:pageopacity="0"
   inkscape:pageshadow="2"
   inkscape:window-width="753"
   inkscape:window-height="480"
   id="namedview12"
   showgrid="false"
   inkscape:zoom="1.1162388"
   inkscape:cx="40.220487"
   inkscape:cy="-0.045757827"
   inkscape:window-x="62"
   inkscape:window-y="0"
   inkscape:window-maximized="0"
   inkscape:current-layer="svg10" />
 <defs
   id="defs4">
  <style
   type="text/css"
   id="style2">
   <![CDATA[
    .fil0 {fill:#E2A59A}
   ]]>
  </style>
 </defs>
 <g
   id="Warstwa_x0020_1"
   transform="translate(-13785.833,-10501.211)">
  <metadata
   id="CorelCorpID_0Corel-Layer" />
  <path
   class="fil0"
   d="m 16151,10615 c -170,-50 -291,-106 -395,-113 -103,-7 -188,34 -254,66 -27,13 -50,25 -70,35 -16,-8 -33,-17 -53,-26 -66,-32 -151,-74 -254,-66 -103,7 -225,63 -395,113 -227,67 -528,160 -754,212 -64,15 -152,15 -175,41 -78,90 168,11 213,267 77,439 494,769 1404,756 993,-14 1092,-351 1426,-813 66,-91 257,-194 234,-219 -23,-27 -111,-27 -175,-41 -218,-50 -546,-151 -754,-212 z m -932,406 c 189,14 280,9 479,-10 -94,61 -167,154 -232,154 -78,0 -148,-87 -246,-144 z"
   id="path7" />
 </g>
</svg>
