<?xml version="1.0" encoding="UTF-8" standalone="no"?>
<svg
   xmlns:dc="http://purl.org/dc/elements/1.1/"
   xmlns:cc="http://creativecommons.org/ns#"
   xmlns:rdf="http://www.w3.org/1999/02/22-rdf-syntax-ns#"
   xmlns:svg="http://www.w3.org/2000/svg"
   xmlns="http://www.w3.org/2000/svg"
   xmlns:sodipodi="http://sodipodi.sourceforge.net/DTD/sodipodi-0.dtd"
   xmlns:inkscape="http://www.inkscape.org/namespaces/inkscape"
   xml:space="preserve"
   width="134.88477mm"
   height="195.94339mm"
   version="1.1"
   style="clip-rule:evenodd;fill-rule:evenodd;image-rendering:optimizeQuality;shape-rendering:geometricPrecision;text-rendering:geometricPrecision"
   viewBox="0 0 13488.477 19594.339"
   id="svg10"
   sodipodi:docname="włosy.svg"
   inkscape:version="1.0.1 (3bc2e813f5, 2020-09-07)"><metadata
   id="metadata14"><rdf:RDF><cc:Work
       rdf:about=""><dc:format>image/svg+xml</dc:format><dc:type
         rdf:resource="http://purl.org/dc/dcmitype/StillImage" /></cc:Work></rdf:RDF></metadata><sodipodi:namedview
   pagecolor="#ffffff"
   bordercolor="#666666"
   borderopacity="1"
   objecttolerance="10"
   gridtolerance="10"
   guidetolerance="10"
   inkscape:pageopacity="0"
   inkscape:pageshadow="2"
   inkscape:window-width="753"
   inkscape:window-height="480"
   id="namedview12"
   showgrid="false"
   inkscape:zoom="1.1162388"
   inkscape:cx="188.75645"
   inkscape:cy="363.17461"
   inkscape:window-x="63"
   inkscape:window-y="0"
   inkscape:window-maximized="0"
   inkscape:current-layer="svg10" />
 <defs
   id="defs4">
  <style
   type="text/css"
   id="style2">
   <![CDATA[
    .fil0 {fill:#4C3A36}
   ]]>
  </style>
 </defs>
 <g
   id="Warstwa_x0020_1"
   transform="translate(-9855.8189,-891.00522)">
  <metadata
   id="CorelCorpID_0Corel-Layer" />
  <path
   class="fil0"
   d="m 17752,4321 c -352,-67 -854,156 -1294,346 -441,190 -820,346 -921,575 -100,229 78,530 -41,916 -119,386 -536,857 -871,1053 -335,195 -587,115 -626,412 -38,297 138,971 48,1556 -90,585 -446,1081 -541,1548 -95,466 70,903 333,1381 263,478 625,998 805,1389 180,391 179,652 84,872 -95,220 -285,398 -514,588 -229,190 -497,391 -742,575 -245,184 -469,351 -636,653 -167,301 -279,736 -112,1333 167,597 614,1356 820,1936 206,580 173,982 61,1027 -112,45 -301,-268 -541,-552 -240,-285 -530,-541 -803,-720 -273,-179 -530,-279 -831,-435 -301,-156 -647,-368 -948,-670 -301,-301 -558,-692 -614,-1144 -56,-452 89,-965 273,-1322 184,-357 407,-558 469,-921 61,-363 -39,-887 -234,-1473 -195,-586 -485,-1233 -497,-1819 -11,-586 257,-1110 457,-1624 201,-513 335,-1015 452,-1490 117,-474 218,-921 312,-1395 95,-474 184,-976 329,-1690 145,-714 346,-1640 681,-2271 335,-630 803,-965 1311,-1255 508,-290 1054,-536 1908,-686 854,-151 2014,-206 2645,89 630,296 731,943 870,1239 139,296 318,240 642,195 324,-45 792,-78 1205,28 413,106 770,351 1133,776 363,424 731,1027 1032,1869 301,842 536,1925 480,2812 -56,887 -402,1579 -469,2343 -67,764 145,1601 201,2226 56,625 -45,1038 -418,1395 -374,357 -1021,658 -1088,1010 -67,351 446,753 407,1523 -39,770 -630,1908 -1495,2449 -865,541 -2003,485 -2340,391 -338,-95 126,-229 594,-580 469,-351 943,-921 873,-1356 -70,-435 -683,-736 -706,-1250 -22,-513 547,-1239 986,-2069 439,-831 749,-1766 869,-2617 120,-851 50,-1617 -41,-2348 -91,-731 -202,-1428 -411,-2067 -209,-639 -517,-1220 -721,-1384 -204,-165 -304,86 -466,58 -162,-28 -385,-335 -597,-667 -212,-332 -413,-689 -764,-756 z"
   id="path7" />
 </g>
</svg>
