<?xml version="1.0" encoding="UTF-8" standalone="no"?>
<svg
   xmlns:dc="http://purl.org/dc/elements/1.1/"
   xmlns:cc="http://creativecommons.org/ns#"
   xmlns:rdf="http://www.w3.org/1999/02/22-rdf-syntax-ns#"
   xmlns:svg="http://www.w3.org/2000/svg"
   xmlns="http://www.w3.org/2000/svg"
   xmlns:sodipodi="http://sodipodi.sourceforge.net/DTD/sodipodi-0.dtd"
   xmlns:inkscape="http://www.inkscape.org/namespaces/inkscape"
   xml:space="preserve"
   width="69.354439mm"
   height="112.94195mm"
   version="1.0"
   style="clip-rule:evenodd;fill-rule:evenodd;image-rendering:optimizeQuality;shape-rendering:geometricPrecision;text-rendering:geometricPrecision"
   viewBox="0 0 6935.4439 11294.195"
   id="svg75"
   sodipodi:docname="face.svg"
   inkscape:version="1.0.1 (3bc2e813f5, 2020-09-07)"><metadata
   id="metadata79"><rdf:RDF><cc:Work
       rdf:about=""><dc:format>image/svg+xml</dc:format><dc:type
         rdf:resource="http://purl.org/dc/dcmitype/StillImage" /></cc:Work></rdf:RDF></metadata><sodipodi:namedview
   pagecolor="#ffffff"
   bordercolor="#666666"
   borderopacity="1"
   objecttolerance="10"
   gridtolerance="10"
   guidetolerance="10"
   inkscape:pageopacity="0"
   inkscape:pageshadow="2"
   inkscape:window-width="1858"
   inkscape:window-height="1057"
   id="namedview77"
   showgrid="false"
   inkscape:zoom="1.1162388"
   inkscape:cx="44.474524"
   inkscape:cy="173.42506"
   inkscape:window-x="54"
   inkscape:window-y="-8"
   inkscape:window-maximized="1"
   inkscape:current-layer="asia"
   inkscape:document-rotation="0" />
 <defs
   id="defs4">
  <style
   type="text/css"
   id="style2">
   <![CDATA[
    .str0 {stroke:#2B2A29;stroke-width:20}
    .fil7 {fill:#FEFEFE}
    .fil12 {fill:#434242}
    .fil9 {fill:#2B2A29}
    .fil0 {fill:#2B2A29}
    .fil1 {fill:#F6DAD6}
    .fil4 {fill:#E4B9AF}
    .fil5 {fill:#2F2F2E}
    .fil10 {fill:#1F1B20}
    .fil8 {fill:#291A13}
    .fil2 {fill:#E48583}
    .fil11 {fill:#FEFEFE;fill-opacity:0.501961}
    .fil6 {fill:#E4B9AF;fill-opacity:0.501961}
    .fil3 {fill:#E4B9AF;fill-opacity:0.701961}
   ]]>
  </style>
 
  
  
 </defs>
 <g
  id="asia"
   style="opacity:1"
   transform="translate(-13673.278,-3067.088)">
   <path
   class="fil0 face"
   d="m 16154,5916 c -247,-73 -628,-163 -820,-372 -192,-209 -196,-535 -100,-917 96,-381 292,-817 579,-1087 287,-270 664,-376 1044,-434 379,-58 761,-69 1207,94 447,163 958,501 1285,857 327,356 468,730 468,1089 0,359 -142,704 -327,937 -185,232 -414,352 -686,387 -272,34 -588,-16 -958,-93 -370,-76 -795,-178 -1064,-256 -269,-78 -381,-133 -628,-205 z" id="asia__hair-bun"
   style="opacity:1" />
   <path
   class="fil1 face"
   d="m 19681,11835 c -251,543 -597,1121 -1007,1553 -410,432 -885,718 -1146,865 -261,147 -308,154 -700,-39 -392,-193 -1128,-585 -1643,-1224 -514,-638 -807,-1522 -931,-2336 -124,-813 -81,-1556 59,-2169 140,-613 377,-1096 750,-1450 373,-354 884,-578 1463,-657 579,-80 1226,-15 1877,154 651,169 1306,443 1614,1084 308,641 268,1651 170,2409 -98,758 -254,1266 -505,1809 z"
    id="asia__face"
   style="opacity:1" />
   <path
   class="fil2 face"
   d="m 17615,12574 c -89,-26 -152,-55 -206,-59 -54,-4 -98,18 -133,35 -14,7 -26,13 -37,18 -8,-4 -17,-9 -27,-14 -34,-17 -79,-38 -133,-35 -54,4 -117,33 -206,59 -119,35 -276,84 -394,111 -34,8 -79,8 -91,22 -12,14 10,42 48,56 205,79 -63,398 791,388 811,-9 641,-321 828,-393 38,-15 60,-42 48,-56 -12,-14 -58,-14 -91,-22 -114,-26 -286,-79 -394,-111 z m -461,205 c 105,17 85,15 211,3 -46,33 -83,76 -115,76 0,0 -198,-95 -96,-79 z"
   id="asia__lips"
   style="opacity:1" />
   <path
   class="fil3 face"
   d="m 15903,13678 c -247,-191 -498,-427 -712,-718 -275,-372 -489,-833 -644,-1315 47,-47 130,-61 260,1 201,96 513,375 689,634 176,259 214,500 259,717 45,217 95,411 127,558 10,46 18,88 22,123 z"
    id="asia__cheek-left"
   style="opacity:1" />
   <path
   class="fil3 face"
   d="m 19766,11634 c -49,-16 -116,-9 -206,34 -201,96 -513,375 -689,634 -35,52 -585,1393 -589,1409 171,-128 339,-268 489,-417 457,-454 750,-984 990,-1647 z"
    id="asia__cheek-right"
   style="opacity:1" />
   <path
   class="fil4 face"
   d="m 17332,10717 c 12,117 48,288 137,444 89,155 229,295 212,425 -18,130 -194,251 -301,317 -107,66 -145,76 -259,18 -114,-58 -303,-184 -330,-317 -27,-133 110,-272 185,-414 75,-142 89,-287 95,-408 6,-121 4,-218 49,-265 45,-47 136,-45 175,-12 39,33 25,96 37,213 z"
    id="asia__nose"
   style="opacity:1" />
   <path
   class="fil5 face"
   d="m 16602,9546 c -131,-21 -369,-54 -593,-39 -224,15 -435,80 -527,87 -93,8 -67,-42 -12,-133 55,-91 139,-224 343,-277 204,-52 527,-24 725,11 198,35 272,77 307,126 35,49 33,106 15,151 -17,45 -49,77 -77,89 -27,12 -50,5 -181,-16 z"
    id="asia__eyebrow-left"
   style="opacity:1" />
   <g
   class="face" id="asia__eye-right"
   style="opacity:1">
    <path
   class="fil6"
   d="m 18045,10763 c 45,45 163,143 284,195 122,52 247,57 364,33 118,-24 228,-78 305,-144 77,-66 122,-145 145,-227 22,-82 22,-169 2,-191 -20,-23 -61,19 -129,80 -69,61 -166,142 -257,193 -92,51 -178,73 -252,88 -74,15 -137,22 -210,12 -73,-10 -156,-36 -212,-55 -56,-18 -85,-28 -40,17 z"
   id="path21" />
    <path
   class="fil6"
   d="m 17960,10394 c 25,-64 63,-125 103,-170 40,-46 81,-76 150,-105 69,-29 166,-56 251,-68 85,-12 159,-8 238,-10 78,-2 161,-8 225,9 64,18 109,60 143,93 34,33 58,56 73,68 15,12 20,12 22,-10 3,-22 2,-66 -45,-130 -48,-64 -143,-147 -220,-208 -77,-61 -136,-98 -250,-109 -113,-11 -281,6 -420,49 -138,43 -247,112 -321,168 -74,56 -113,98 -135,181 -22,84 -26,209 -13,287 12,78 41,108 69,125 28,18 55,23 74,-8 19,-31 31,-98 56,-162 z"
   id="path23" />
    <path
   class="fil7"
   d="m 17927,10574 c 0,-50 16,-115 39,-191 23,-76 52,-162 133,-236 81,-74 213,-135 343,-163 130,-28 259,-24 376,32 116,56 220,162 277,218 57,56 67,61 39,110 -28,49 -93,141 -174,217 -81,76 -178,135 -274,176 -96,42 -190,66 -289,66 -99,0 -203,-25 -277,-48 -74,-23 -117,-44 -147,-72 -30,-28 -47,-61 -47,-111 z"
   id="path25" />
    <ellipse
   class="fil8"
   transform="matrix(-0.57909,0.250882,0.250882,0.57909,18489.3,10414.7)"
   rx="607"
   ry="574"
   id="ellipse27"
   cx="0"
   cy="0" />
    <path
   class="fil9"
   d="m 17987,10698 c 77,28 154,57 224,74 70,17 134,23 218,13 84,-11 188,-38 275,-74 87,-36 156,-82 214,-133 58,-52 104,-109 135,-155 31,-46 46,-81 58,-103 12,-22 21,-31 40,-36 20,-5 50,-5 80,7 30,11 59,35 88,58 -46,-7 -93,-14 -123,-9 -30,5 -45,23 -34,41 11,18 46,37 68,52 22,15 29,26 37,37 -43,-20 -86,-40 -125,-30 -39,10 -72,50 -81,71 -8,21 10,24 32,35 22,11 49,30 75,49 -47,-12 -94,-24 -137,-15 -43,9 -82,40 -112,62 -30,23 -51,37 -50,51 1,15 25,29 46,47 21,18 38,39 56,60 -64,-21 -129,-41 -194,-37 -65,4 -131,34 -217,54 -85,20 -190,30 -289,9 -99,-21 -192,-74 -284,-126 z"
   id="path29" />
    <ellipse
   class="fil10"
   transform="matrix(-0.239879,0.103924,0.103924,0.239879,18493,10410)"
   rx="607"
   ry="574"
   id="ellipse31"
   cx="0"
   cy="0" />
    <path
   class="fil11"
   d="m 18252,10248 c -80,35 -119,125 -86,201 33,76 125,109 205,75 80,-35 119,-125 86,-201 -33,-76 -125,-109 -205,-75 z"
   id="path33" />
    <path
   class="fil9"
   d="m 17918,10619 c -6,-17 -23,-92 -3,-184 20,-92 77,-201 143,-272 66,-72 141,-107 225,-134 83,-27 175,-46 234,-58 59,-12 86,-15 120,-23 35,-8 77,-20 110,-30 32,-10 54,-19 86,-40 32,-21 73,-54 89,-88 17,-34 9,-69 13,-70 4,-1 18,31 14,69 -4,38 -28,82 -47,109 -20,27 -36,36 -43,45 -7,9 -4,17 11,23 15,6 43,11 81,8 38,-3 86,-14 123,-35 37,-21 61,-51 74,-66 12,-15 12,-15 5,0 -8,15 -23,45 -53,75 -30,29 -76,58 -104,73 -28,15 -37,16 -36,22 1,6 12,17 24,27 12,10 26,18 53,19 27,1 69,-5 106,-23 37,-18 70,-46 89,-67 19,-20 24,-32 22,-24 -1,8 -9,36 -36,68 -28,32 -75,67 -102,85 -27,18 -34,18 -33,23 1,4 10,12 25,18 15,6 37,10 69,4 32,-6 75,-22 104,-44 29,-22 44,-50 52,-64 8,-14 8,-14 2,2 -6,16 -18,48 -35,78 -17,31 -38,60 -63,88 -25,28 -55,53 -71,63 -16,10 -19,3 -41,-21 -22,-24 -64,-66 -161,-109 -96,-42 -247,-85 -382,-92 -135,-7 -253,22 -336,53 -83,31 -129,65 -166,106 -37,41 -64,89 -84,131 -20,42 -34,79 -47,109 -12,30 -24,55 -26,87 -3,33 4,74 -2,57 z"
   id="path35" />
   </g>
   <g
   class="face" id="asia__eye-left"
   style="opacity:1">
    <path
   class="fil6"
   d="m 16414,10778 c -45,45 -163,143 -284,195 -122,52 -247,57 -364,33 -118,-24 -228,-78 -305,-144 -77,-66 -122,-145 -145,-227 -22,-82 -22,-169 -2,-191 20,-23 61,19 129,80 69,61 166,142 257,193 92,51 178,73 252,88 74,15 137,22 210,12 73,-10 156,-36 212,-55 56,-18 85,-28 40,17 z"
   id="path39" />
    <path
   class="fil6"
   d="m 16499,10409 c -25,-64 -63,-125 -103,-170 -40,-46 -81,-76 -150,-105 -69,-29 -166,-56 -251,-68 -85,-12 -159,-8 -238,-10 -78,-2 -161,-8 -225,9 -64,18 -109,60 -143,93 -34,33 -58,56 -73,68 -15,12 -20,12 -22,-10 -3,-22 -2,-66 45,-130 48,-64 143,-147 220,-208 77,-61 136,-98 250,-109 113,-11 281,6 420,49 138,43 247,112 321,168 74,56 113,98 135,181 22,84 26,209 13,287 -12,78 -41,108 -69,125 -28,18 -55,23 -74,-8 -19,-31 -31,-98 -56,-162 z"
   id="path41" />
    <path
   class="fil7"
   d="m 16532,10589 c 0,-50 -16,-115 -39,-191 -23,-76 -52,-162 -133,-236 -81,-74 -213,-135 -343,-163 -130,-28 -259,-24 -376,32 -116,56 -220,162 -277,218 -57,56 -67,61 -39,110 28,49 93,141 174,217 81,76 178,135 274,176 96,42 190,66 289,66 99,0 203,-25 277,-48 74,-23 117,-44 147,-72 30,-28 47,-61 47,-111 z"
   id="path43" />
    <ellipse
   class="fil8"
   transform="matrix(0.57909,0.250882,-0.250882,0.57909,15969.7,10429.6)"
   rx="607"
   ry="574"
   id="ellipse45"
   cx="0"
   cy="0" />
    <path
   class="fil9"
   d="m 16472,10713 c -77,28 -154,57 -224,74 -70,17 -134,23 -218,13 -84,-11 -188,-38 -275,-74 -87,-36 -156,-82 -214,-133 -58,-52 -104,-109 -135,-155 -31,-46 -46,-81 -58,-103 -12,-22 -21,-31 -40,-36 -20,-5 -50,-5 -80,7 -30,11 -59,35 -88,58 46,-7 93,-14 123,-9 30,5 45,23 34,41 -11,18 -46,37 -68,52 -22,15 -29,26 -37,37 43,-20 86,-40 125,-30 39,10 72,50 81,71 8,21 -10,24 -32,35 -22,11 -49,30 -75,49 47,-12 94,-24 137,-15 43,9 82,40 112,62 30,23 51,37 50,51 -1,15 -25,29 -46,47 -21,18 -38,39 -56,60 64,-21 129,-41 194,-37 65,4 131,34 217,54 85,20 190,30 289,9 99,-21 192,-74 284,-126 z"
   id="path47" />
    <ellipse
   class="fil10"
   transform="matrix(0.239879,0.103924,-0.103924,0.239879,15966,10424.9)"
   rx="607"
   ry="574"
   id="ellipse49"
   cx="0"
   cy="0" />
    <path
   class="fil11"
   d="m 15848,10245 c 80,35 119,125 86,201 -33,76 -125,109 -205,75 -80,-35 -119,-125 -86,-201 33,-76 125,-109 205,-75 z"
   id="path51" />
    <path
   class="fil9"
   d="m 16541,10634 c 6,-17 23,-92 3,-184 -20,-92 -77,-201 -143,-272 -66,-72 -141,-107 -225,-134 -83,-27 -175,-46 -234,-58 -59,-12 -86,-15 -120,-23 -35,-8 -77,-20 -110,-30 -32,-10 -54,-19 -86,-40 -32,-21 -73,-54 -89,-88 -17,-34 -9,-69 -13,-70 -4,-1 -18,31 -14,69 4,38 28,82 47,109 20,27 36,36 43,45 7,9 4,17 -11,23 -15,6 -43,11 -81,8 -38,-3 -86,-14 -123,-35 -37,-21 -61,-51 -74,-66 -12,-15 -12,-15 -5,0 8,15 23,45 53,75 30,29 76,58 104,73 28,15 37,16 36,22 -1,6 -12,17 -24,27 -12,10 -26,18 -53,19 -27,1 -69,-5 -106,-23 -37,-18 -70,-46 -89,-67 -19,-20 -24,-32 -22,-24 1,8 9,36 36,68 28,32 75,67 102,85 27,18 34,18 33,23 -1,4 -10,12 -25,18 -15,6 -37,10 -69,4 -32,-6 -75,-22 -104,-44 -29,-22 -44,-50 -52,-64 -8,-14 -8,-14 -2,2 6,16 18,48 35,78 17,31 38,60 63,88 25,28 55,53 71,63 16,10 19,3 41,-21 22,-24 64,-66 161,-109 96,-42 247,-85 382,-92 135,-7 253,22 336,53 83,31 129,65 166,106 37,41 64,89 84,131 20,42 34,79 47,109 12,30 24,55 26,87 3,33 -4,74 2,57 z"
   id="path53" />
   </g>
   <path
   class="fil5 face"
   d="m 17795,9552 c 131,-21 369,-54 593,-39 224,15 435,80 527,87 93,8 67,-42 12,-133 -55,-91 -139,-224 -343,-277 -204,-52 -527,-24 -725,11 -198,35 -272,77 -307,126 -35,49 -33,106 -15,151 17,45 49,77 77,89 27,12 50,5 181,-16 z"
   id="asia__eyebrow-right"
   style="opacity:1" />
   <path
   class="fil0 str0 face"
   d="m 17105,7491 c -309,8 -632,-126 -993,-79 -361,47 -761,276 -998,572 -238,296 -314,659 -416,1098 -102,439 -229,955 -310,1210 -81,255 -116,249 -259,109 -143,-140 -395,-413 -359,-1167 36,-754 360,-1988 761,-2685 401,-697 879,-857 1275,-946 395,-89 707,-107 962,-65 254,42 450,143 608,154 158,11 278,-69 441,-93 163,-24 370,9 595,71 225,62 468,152 751,307 283,154 604,372 860,782 256,410 446,1013 461,1708 15,695 -145,1483 -266,1899 -122,416 -205,459 -307,258 -102,-201 -221,-648 -310,-1029 -89,-381 -147,-697 -247,-1044 -100,-347 -241,-724 -473,-958 -232,-233 -554,-323 -863,-292 -309,31 -603,182 -912,190 z"
    id="asia__hair"
   style="opacity:1" />
   <path
   class="fil1 face"
   d="m 14466,11584 c -87,147 -275,173 -434,88 -159,-85 -290,-281 -337,-575 -47,-294 -11,-686 44,-948 54,-261 127,-392 234,-465 107,-73 249,-87 347,-4 98,84 152,265 180,485 27,220 27,477 34,740 7,263 20,531 -67,678 z"
   id="asia__ear-left"
   style="opacity:1" />
   <path
   class="fil1 face"
   d="m 19816,11486 c 87,147 275,173 434,88 159,-85 290,-281 337,-575 47,-294 11,-686 -44,-948 -54,-261 -127,-392 -234,-465 -107,-73 -249,-87 -347,-4 -98,84 -152,265 -180,485 -27,220 -27,477 -34,740 -7,263 -20,531 67,678 z"
   id="asia__ear-right"
   style="opacity:1" />
   <path
   class="fil12 face"
   d="m 18123,4172 c -20,42 64,129 103,263 40,134 36,316 -31,461 -67,145 -198,254 -152,318 45,64 267,82 416,0 149,-82 225,-263 201,-459 -24,-196 -147,-407 -270,-514 -123,-107 -247,-111 -267,-69 z"
    id="asia__strand-four"
   style="opacity:1" />
   <path
   class="fil12 face"
   d="m 17061,3444 c 36,-94 -145,-98 -376,-15 -231,84 -510,254 -722,439 -212,185 -358,385 -350,659 7,274 167,623 327,800 160,177 319,183 361,165 42,-18 -34,-60 -110,-209 -76,-148 -152,-402 -98,-649 54,-247 240,-486 459,-699 220,-212 474,-398 510,-492 z"
   id="asia__strand-three"
   style="opacity:1" />
   <path
   class="fil12 face"
   d="m 16964,6937 c -41,-29 -146,-107 -298,-142 -152,-34 -349,-25 -579,16 -230,42 -491,116 -741,243 -250,127 -490,307 -634,486 -143,180 -191,359 -200,327 -9,-33 20,-278 115,-487 95,-210 257,-384 468,-528 211,-144 473,-259 674,-325 202,-66 343,-83 474,-61 131,23 250,86 367,169 117,83 231,187 300,248 69,62 93,82 52,53 z"
   id="asia__strand-two"
   style="opacity:1" />
   <path
   class="fil12 face"
   d="m 17444,6980 c 38,-29 137,-107 280,-142 142,-34 328,-25 544,16 216,42 461,116 697,243 235,127 461,307 595,486 135,180 179,359 188,327 9,-33 -19,-278 -108,-487 -90,-210 -241,-384 -440,-528 -199,-144 -444,-259 -634,-325 -189,-66 -323,-83 -445,-61 -123,23 -235,86 -345,169 -110,83 -217,187 -282,248 -65,62 -87,82 -49,53 z"
   id="asia__strand-one"
   style="opacity:1" />
  </g>
</svg>
