<?xml version="1.0" encoding="UTF-8"?>
<!DOCTYPE svg PUBLIC "-//W3C//DTD SVG 1.0//EN" "http://www.w3.org/TR/2001/REC-SVG-20010904/DTD/svg10.dtd">
<!-- Creator: CorelDRAW 2017 -->
<svg xmlns="http://www.w3.org/2000/svg" xml:space="preserve" width="162.56mm" height="91.4398mm" version="1.0" style="shape-rendering:geometricPrecision; text-rendering:geometricPrecision; image-rendering:optimizeQuality; fill-rule:evenodd; clip-rule:evenodd"
viewBox="0 0 16256 9144"
 xmlns:xlink="http://www.w3.org/1999/xlink">
 <defs>
  <style type="text/css">
   <![CDATA[
    .str0 {stroke:#2B2A29;stroke-width:20}
    .fil0 {fill:#FEFEFE}
    .fil14 {fill:#434242}
    .fil11 {fill:#2B2A29}
    .fil3 {fill:#2B2A29}
    .fil4 {fill:#F6DAD6}
    .fil7 {fill:#E4B9AF}
    .fil2 {fill:#7688A1}
    .fil8 {fill:#2F2F2E}
    .fil12 {fill:#1F1B20}
    .fil10 {fill:#291A13}
    .fil5 {fill:#E48583}
    .fil1 {fill:#7688A1;fill-rule:nonzero}
    .fil13 {fill:#FEFEFE;fill-opacity:0.501961}
    .fil9 {fill:#E4B9AF;fill-opacity:0.501961}
    .fil6 {fill:#E4B9AF;fill-opacity:0.701961}
   ]]>
  </style>
 </defs>
 <g id="Warstwa_x0020_1">
  <metadata id="CorelCorpID_0Corel-Layer"/>
  <rect class="fil0" width="16256" height="9144"/>
  <path class="fil1" d="M6003 988c0,50 41,79 86,79 57,0 76,-44 76,-44l1 0c0,0 -1,4 -1,11 0,15 9,28 32,28l56 0 0 -53 -20 0c-7,0 -11,-4 -11,-11l0 -94c0,-56 -25,-100 -109,-100 -26,0 -92,5 -92,52l0 27 58 0 0 -13c0,-14 22,-17 34,-17 32,0 46,13 46,49l0 2 -8 0c-41,0 -150,6 -150,85zm63 -3c0,-35 52,-40 84,-40l11 0 0 6c0,31 -24,66 -57,66 -26,0 -38,-16 -38,-33zm210 76l196 0c23,0 33,-10 33,-34l0 -44 -57 0 0 14c0,7 -4,11 -11,11l-55 0c-16,0 -24,1 -24,1l0 -1c0,0 10,-9 21,-23l116 -142 0 -34 -185 0c-24,0 -34,10 -34,34l0 45 57 0 0 -14c0,-7 4,-11 11,-11l45 0c16,0 23,-1 23,-1l0 1c0,0 -10,9 -21,23l-116 142 0 34zm293 -293l55 0 0 -58 -55 0 0 58zm-64 341l0 53c0,0 7,1 19,1 35,0 105,-10 105,-95l0 -226c0,-23 -10,-34 -34,-34l-60 0 0 53 20 0c7,0 11,3 11,11l0 190c0,41 -33,46 -50,46 -6,0 -11,-1 -11,-1zm176 -121c0,50 41,79 86,79 57,0 76,-44 76,-44l1 0c0,0 -1,4 -1,11 0,15 9,28 32,28l56 0 0 -53 -20 0c-7,0 -11,-4 -11,-11l0 -94c0,-56 -25,-100 -109,-100 -26,0 -92,5 -92,52l0 27 58 0 0 -13c0,-14 22,-17 34,-17 32,0 46,13 46,49l0 2 -8 0c-41,0 -150,6 -150,85zm63 -3c0,-35 52,-40 84,-40l11 0 0 6c0,31 -24,66 -57,66 -26,0 -38,-16 -38,-33zm239 -17c0,84 70,95 105,95 11,0 19,-1 19,-1l0 -55c0,0 -4,1 -11,1 -17,0 -50,-6 -50,-47l0 -102 57 0 0 -50 -57 0 0 -69 -61 0 0 69 -34 0 0 50 33 0 0 110zm161 126l-24 44c0,0 24,26 64,26 38,0 73,-20 91,-66l90 -228c3,-7 7,-9 14,-9l7 0 0 -53 -42 0c-17,0 -28,6 -34,24l-43 126c-4,13 -8,34 -8,34l-1 0c0,0 -4,-21 -9,-34l-49 -126c-6,-17 -15,-24 -33,-24l-41 0 0 53 7 0c7,0 10,1 13,9l84 189 -8 19c-9,22 -24,32 -41,32 -21,0 -36,-17 -36,-17zm259 -160c0,73 53,132 136,132 69,0 106,-45 106,-45l-26 -43c0,0 -32,34 -75,34 -41,0 -79,-26 -79,-78 0,-45 31,-79 75,-79 15,0 36,6 36,20l0 14 55 0 0 -30c0,-43 -59,-57 -91,-57 -86,0 -138,61 -138,132zm287 126l63 0 0 -110 14 0c8,0 18,1 23,9l42 79c10,18 18,22 40,22l46 0 0 -53 -17 0c-12,0 -17,-2 -21,-9l-29 -54c-9,-16 -18,-20 -18,-20l0 -1c0,0 8,-4 19,-20l64 -95 -70 0 -51 80c-5,8 -16,9 -24,9l-19 0 0 -159c0,-23 -10,-29 -34,-29l-60 0 0 53 20 0c7,0 11,3 11,11l0 286zm280 -293l54 0 0 -58 -54 0 0 58zm-3 259c0,24 10,34 33,34l60 0 0 -53 -20 0c-7,0 -11,-4 -11,-11l0 -155c0,-23 -10,-34 -33,-34l-60 0 0 53 20 0c7,0 11,3 11,11l0 154zm278 -59c0,84 70,95 105,95 11,0 19,-1 19,-1l0 -55c0,0 -4,1 -11,1 -17,0 -50,-6 -50,-47l0 -102 57 0 0 -50 -57 0 0 -69 -61 0 0 69 -34 0 0 50 33 0 0 110zm161 126l-24 44c0,0 24,26 64,26 38,0 73,-20 91,-66l90 -228c3,-7 7,-9 14,-9l7 0 0 -53 -42 0c-17,0 -28,6 -34,24l-43 126c-4,13 -8,34 -8,34l-1 0c0,0 -4,-21 -9,-34l-49 -126c-6,-17 -15,-24 -33,-24l-41 0 0 53 7 0c7,0 10,1 13,9l84 189 -8 19c-9,22 -24,32 -41,32 -21,0 -36,-17 -36,-17zm289 65l62 0 0 -104c0,-13 -1,-22 -1,-22l1 0c0,0 22,33 72,33 66,0 116,-52 116,-132 0,-78 -44,-132 -112,-132 -59,0 -80,40 -80,40l-1 0c0,0 0,-4 0,-10 0,-14 -8,-24 -32,-24l-56 0 0 53 20 0c7,0 11,3 11,11l0 286zm61 -223c0,-56 31,-80 63,-80 37,0 63,31 63,79 0,50 -29,78 -64,78 -41,0 -62,-39 -62,-78zm376 35c0,69 33,96 87,96 43,0 75,-26 87,-52l1 0c0,0 -1,5 -1,11l0 7c0,18 11,28 33,28l58 0 0 -53 -20 0c-7,0 -11,-4 -11,-11l0 -188 -63 0 0 116c0,45 -25,85 -71,85 -31,0 -39,-21 -39,-51l0 -116c0,-23 -10,-33 -33,-33l-60 0 0 53 20 0c7,0 11,3 11,11l0 98zm316 90l62 0 0 -100c0,-15 2,-29 5,-41 11,-38 42,-53 69,-53 9,0 15,1 15,1l0 -62c0,0 -6,-1 -11,-1 -39,0 -69,29 -80,65l-1 0c0,0 1,-6 1,-16l0 -15c0,-21 -11,-31 -34,-31l-57 0 0 53 20 0c7,0 11,3 11,11l0 188zm169 -126c0,78 61,132 138,132 77,0 138,-54 138,-132 0,-77 -61,-132 -138,-132 -77,0 -138,55 -138,132zm63 0c0,-46 34,-79 75,-79 41,0 75,32 75,79 0,47 -34,79 -75,79 -41,0 -75,-32 -75,-79zm244 0c0,78 44,132 112,132 58,0 79,-41 79,-41l1 0c0,0 0,4 0,9 0,15 8,26 31,26l58 0 0 -53 -19 0c-7,0 -11,-4 -11,-11l0 -253c0,-23 -10,-34 -34,-34l-60 0 0 53 20 0c7,0 11,3 11,11l0 44c0,8 0,15 0,15l-1 0c0,0 -18,-31 -73,-31 -67,0 -115,52 -115,132zm126 79c-37,0 -62,-31 -62,-79 0,-50 29,-78 63,-78 42,0 62,39 62,78 0,56 -31,80 -63,80zm190 81l-24 44c0,0 24,26 64,26 38,0 73,-20 91,-66l90 -228c3,-7 7,-9 14,-9l7 0 0 -53 -42 0c-17,0 -28,6 -34,24l-43 126c-4,13 -8,34 -8,34l-1 0c0,0 -4,-21 -9,-34l-49 -126c-6,-17 -15,-24 -33,-24l-41 0 0 53 7 0c7,0 10,1 13,9l84 189 -8 19c-9,22 -24,32 -41,32 -21,0 -36,-17 -36,-17z"/>
  <path class="fil2" d="M5681 3698c-40,-9 -118,-34 -173,-31 -55,3 -88,34 -68,54 20,20 92,29 145,40 52,11 84,23 100,33 15,10 14,18 11,28 -2,10 -5,22 10,23 15,1 49,-8 87,-12 38,-5 81,-5 88,-20 7,-16 -22,-47 -45,-73 -23,-26 -41,-47 -53,-62 -13,-15 -20,-24 -29,-19 -9,4 -18,21 -24,32 -6,11 -8,17 -48,7z"/>
  <path class="fil1" d="M2893 3432l30 0 0 -6c0,-5 0,-8 0,-8l0 0c0,0 11,18 38,18 33,0 58,-26 58,-66 0,-39 -22,-66 -56,-66 -27,0 -38,18 -38,18l0 0c0,0 0,-4 0,-11l0 -37c0,-12 -5,-17 -17,-17l-30 0 0 27 10 0c3,0 5,2 5,5l0 143zm30 -62c0,-28 15,-40 32,-40 19,0 31,16 31,40 0,25 -15,39 -32,39 -21,0 -31,-19 -31,-39zm110 26c0,25 21,39 43,39 28,0 38,-22 38,-22l0 0c0,0 0,2 0,5 0,7 4,14 16,14l28 0 0 -26 -10 0c-3,0 -5,-2 -5,-5l0 -47c0,-28 -12,-50 -54,-50 -13,0 -46,2 -46,26l0 13 29 0 0 -7c0,-7 11,-8 17,-8 16,0 23,7 23,25l0 1 -4 0c-20,0 -75,3 -75,43zm32 -1c0,-18 26,-20 42,-20l5 0 0 3c0,15 -12,33 -29,33 -13,0 -19,-8 -19,-16zm119 38l31 0 0 -50c0,-7 1,-14 3,-21 6,-19 21,-26 34,-26 4,0 8,0 8,0l0 -31c0,0 -3,-1 -6,-1 -19,0 -34,14 -40,32l0 0c0,0 0,-3 0,-8l0 -7c0,-11 -6,-15 -17,-15l-29 0 0 27 10 0c3,0 5,2 5,5l0 94zm84 -63c0,39 22,66 56,66 29,0 39,-20 39,-20l0 0c0,0 0,2 0,5 0,7 4,13 16,13l29 0 0 -26 -10 0c-3,0 -5,-2 -5,-5l0 -127c0,-12 -5,-17 -17,-17l-30 0 0 27 10 0c3,0 5,2 5,5l0 22c0,4 0,7 0,7l-1 0c0,0 -9,-15 -36,-15 -33,0 -57,26 -57,66zm63 40c-19,0 -31,-16 -31,-40 0,-25 14,-39 32,-39 21,0 31,19 31,39 0,28 -15,40 -32,40zm89 23l98 0c12,0 17,-5 17,-17l0 -22 -28 0 0 7c0,4 -2,5 -5,5l-28 0c-8,0 -12,1 -12,1l0 0c0,0 5,-5 11,-12l58 -71 0 -17 -92 0c-12,0 -17,5 -17,17l0 22 28 0 0 -7c0,-3 2,-5 5,-5l23 0c8,0 12,0 12,0l0 0c0,0 -5,4 -11,12l-58 71 0 17zm125 -63c0,39 31,66 69,66 39,0 69,-27 69,-66 0,-39 -31,-66 -69,-66 -38,0 -69,27 -69,66zm32 0c0,-23 17,-39 37,-39 20,0 38,16 38,39 0,23 -17,39 -38,39 -20,0 -37,-16 -37,-39zm188 0c0,37 27,66 68,66 34,0 53,-23 53,-23l-13 -22c0,0 -16,17 -37,17 -20,0 -39,-13 -39,-39 0,-23 16,-39 37,-39 8,0 18,3 18,10l0 7 28 0 0 -15c0,-22 -29,-28 -46,-28 -43,0 -69,30 -69,66zm148 -83l27 0 0 -29 -27 0 0 29zm-1 130c0,12 5,17 17,17l30 0 0 -26 -10 0c-3,0 -5,-2 -5,-5l0 -77c0,-12 -5,-17 -17,-17l-30 0 0 27 10 0c3,0 5,2 5,5l0 77zm60 -46c0,36 26,66 68,66 31,0 51,-19 51,-19l-13 -22c0,0 -15,14 -35,14 -19,0 -35,-12 -38,-34l87 0c0,0 1,-8 1,-12 0,-33 -20,-60 -56,-60 -38,0 -64,27 -64,66zm33 -16c3,-16 15,-25 31,-25 13,0 23,10 24,25l-55 0zm117 79l31 0 0 -55c0,-6 1,-11 2,-16 4,-16 15,-29 30,-29 15,0 17,12 17,25l0 75 31 0 0 -55c0,-6 0,-11 2,-16 3,-16 15,-29 30,-29 15,0 17,11 17,25l0 58c0,12 5,17 17,17l30 0 0 -26 -10 0c-3,0 -5,-2 -5,-5l0 -49c0,-33 -15,-48 -41,-48 -20,0 -36,12 -43,26l0 0c-5,-17 -18,-26 -37,-26 -20,0 -35,14 -41,26l0 0c0,0 0,-3 0,-5l0 -4c0,-9 -5,-14 -17,-14l-29 0 0 27 10 0c3,0 5,2 5,5l0 94zm233 0l31 0 0 -58c0,-6 1,-12 2,-17 4,-15 17,-26 34,-26 16,0 20,10 20,26l0 58c0,12 5,17 17,17l30 0 0 -26 -10 0c-3,0 -5,-2 -5,-5l0 -49c0,-33 -16,-48 -44,-48 -25,0 -39,16 -44,26l0 0c0,0 0,-3 0,-5l0 -4c0,-9 -5,-14 -17,-14l-29 0 0 27 10 0c3,0 5,2 5,5l0 94zm146 -63c0,36 26,66 68,66 31,0 51,-19 51,-19l-13 -22c0,0 -15,14 -35,14 -19,0 -35,-12 -38,-34l87 0c0,0 1,-8 1,-12 0,-33 -20,-60 -56,-60 -38,0 -64,27 -64,66zm33 -16c3,-16 15,-25 31,-25 13,0 23,10 24,25l-55 0zm205 79l36 0 21 -72c2,-7 3,-14 3,-14l1 0c0,0 1,7 3,14l21 72 35 0 30 -95c1,-4 3,-4 7,-4l3 0 0 -27 -21 0c-10,0 -15,3 -18,13l-18 70c-2,7 -2,13 -2,13l0 0c0,0 -1,-7 -3,-13l-23 -82 -28 0 -23 82c-2,7 -3,13 -3,13l-1 0c0,0 -1,-7 -2,-13l-19 -70c-2,-10 -7,-13 -18,-13l-21 0 0 27 3 0c4,0 6,1 7,4l30 95zm185 -17c0,12 5,17 17,17l30 0 0 -26 -10 0c-3,0 -5,-2 -5,-5l0 -57 18 -10 0 -31 -18 10 0 -39c0,-12 -5,-17 -17,-17l-30 0 0 27 10 0c3,0 5,2 5,5l0 42 -16 9 0 31 16 -9 0 54zm61 -46c0,39 31,66 69,66 39,0 69,-27 69,-66 0,-39 -31,-66 -69,-66 -38,0 -69,27 -69,66zm32 0c0,-23 17,-39 37,-39 20,0 38,16 38,39 0,23 -17,39 -38,39 -20,0 -37,-16 -37,-39zm121 43c0,0 18,22 52,22 27,0 48,-15 48,-39 0,-42 -67,-38 -67,-58 0,-7 8,-11 19,-11 7,0 16,3 16,9l0 6 28 0 0 -13c0,-20 -27,-26 -44,-26 -26,0 -49,12 -49,37 0,41 66,41 66,58 0,8 -7,12 -17,12 -21,0 -38,-19 -38,-19l-15 20zm122 36l-12 22c0,0 12,13 32,13 19,0 37,-10 45,-33l45 -114c1,-4 3,-4 7,-4l4 0 0 -27 -21 0c-9,0 -14,3 -17,12l-21 63c-2,6 -4,17 -4,17l0 0c0,0 -2,-10 -4,-17l-25 -63c-3,-9 -8,-12 -17,-12l-21 0 0 27 4 0c3,0 5,1 7,4l42 95 -4 10c-4,11 -12,16 -21,16 -10,0 -18,-9 -18,-9z"/>
  <path class="fil1" d="M10793 5012l30 0 0 -6c0,-5 0,-8 0,-8l0 0c0,0 11,18 38,18 33,0 58,-26 58,-66 0,-39 -22,-66 -56,-66 -27,0 -38,18 -38,18l0 0c0,0 0,-4 0,-11l0 -37c0,-12 -5,-17 -17,-17l-30 0 0 27 10 0c3,0 5,2 5,5l0 143zm30 -62c0,-28 15,-40 32,-40 19,0 31,16 31,40 0,25 -15,39 -32,39 -21,0 -31,-19 -31,-39zm123 62l31 0 0 -50c0,-7 1,-14 3,-21 6,-19 21,-26 34,-26 4,0 8,0 8,0l0 -31c0,0 -3,-1 -6,-1 -19,0 -34,14 -40,32l0 0c0,0 0,-3 0,-8l0 -7c0,-11 -6,-15 -17,-15l-29 0 0 27 10 0c3,0 5,2 5,5l0 94zm82 -36c0,24 20,39 42,39 29,0 39,-22 39,-22l0 0c0,0 0,2 0,5l0 1c0,6 4,13 15,13l6 0 0 0c-7,6 -16,15 -16,27 0,21 30,24 30,24l7 -23c0,0 -12,-1 -12,-9 0,-7 9,-15 14,-19l0 -26 -10 0c-3,0 -5,-2 -5,-5l0 -47c0,-28 -12,-50 -54,-50 -13,0 -46,3 -46,26l0 13 29 0 0 -7c0,-7 11,-8 17,-8 16,0 23,7 23,25l0 1 -3 0c-21,0 -75,3 -75,43zm32 -1c0,-17 26,-20 42,-20l5 0 0 3c0,15 -12,33 -29,33 -13,0 -19,-8 -19,-16zm105 38l98 0c12,0 17,-5 17,-17l0 -22 -28 0 0 7c0,4 -2,5 -5,5l-28 0c-8,0 -12,1 -12,1l0 0c0,0 5,-5 11,-12l58 -71 0 -17 -92 0c-12,0 -17,5 -17,17l0 22 28 0 0 -7c0,-3 2,-5 5,-5l23 0c8,0 12,0 12,0l0 0c0,0 -5,4 -11,12l-58 71 0 17zm125 -63c0,39 31,66 69,66 39,0 69,-27 69,-66 0,-39 -31,-66 -69,-66 -38,0 -69,27 -69,66zm32 0c0,-23 17,-39 37,-39 20,0 38,16 38,39 0,23 -17,39 -38,39 -20,0 -37,-16 -37,-39zm155 63l36 0 21 -72c2,-7 3,-14 3,-14l1 0c0,0 1,7 3,14l21 72 35 0 30 -95c1,-4 3,-4 7,-4l3 0 0 -27 -21 0c-10,0 -15,3 -18,13l-18 70c-2,7 -2,13 -2,13l0 0c0,0 -1,-7 -3,-13l-23 -82 -28 0 -23 82c-2,7 -3,13 -3,13l-1 0c0,0 -1,-7 -2,-13l-19 -70c-2,-10 -7,-13 -18,-13l-21 0 0 27 3 0c4,0 6,1 7,4l30 95zm169 -63c0,36 26,66 68,66 31,0 51,-19 51,-19l-13 -22c0,0 -15,14 -35,14 -19,0 -35,-12 -38,-34l87 0c0,0 1,-8 1,-12 0,-33 -20,-60 -56,-60 -38,0 -64,27 -64,66zm33 -16c3,-16 15,-25 31,-25 13,0 23,10 24,25l-55 0zm182 62c0,12 5,17 17,17l30 0 0 -26 -10 0c-3,0 -5,-2 -5,-5l0 -127c0,-12 -5,-17 -17,-17l-30 0 0 27 10 0c3,0 5,2 5,5l0 126zm72 -28c0,34 17,48 43,48 22,0 38,-13 43,-26l0 0c0,0 0,3 0,6l0 3c0,9 6,14 17,14l29 0 0 -26 -10 0c-3,0 -5,-2 -5,-5l0 -94 -31 0 0 58c0,22 -13,42 -35,42 -16,0 -20,-10 -20,-26l0 -58c0,-11 -5,-17 -17,-17l-30 0 0 27 10 0c3,0 5,2 5,5l0 49zm157 45l30 0 0 -6c0,-5 0,-8 0,-8l0 0c0,0 11,18 38,18 33,0 58,-26 58,-66 0,-39 -22,-66 -56,-66 -27,0 -38,18 -38,18l0 0c0,0 0,-4 0,-11l0 -37c0,-12 -5,-17 -17,-17l-30 0 0 27 10 0c3,0 5,2 5,5l0 143zm30 -62c0,-28 15,-40 32,-40 19,0 31,16 31,40 0,25 -15,39 -32,39 -21,0 -31,-19 -31,-39zm175 62l98 0c12,0 17,-5 17,-17l0 -22 -28 0 0 7c0,4 -2,5 -5,5l-28 0c-8,0 -12,1 -12,1l0 0c0,0 5,-5 11,-12l58 -71 0 -17 -92 0c-12,0 -17,5 -17,17l0 22 28 0 0 -7c0,-3 2,-5 5,-5l23 0c8,0 12,0 12,0l0 0c0,0 -5,4 -11,12l-58 71 0 17zm142 -146l27 0 0 -29 -27 0 0 29zm-1 130c0,12 5,17 17,17l30 0 0 -26 -10 0c-3,0 -5,-2 -5,-5l0 -77c0,-12 -5,-17 -17,-17l-30 0 0 27 10 0c3,0 5,2 5,5l0 77zm60 -46c0,36 26,66 68,66 31,0 51,-19 51,-19l-13 -22c0,0 -15,14 -35,14 -19,0 -35,-12 -38,-34l87 0c0,0 1,-8 1,-12 0,-33 -20,-60 -56,-60 -38,0 -64,27 -64,66zm33 -16c3,-16 15,-25 31,-25 13,0 23,10 24,25l-55 0zm116 62c0,12 5,17 17,17l30 0 0 -26 -10 0c-3,0 -5,-2 -5,-5l0 -127c0,-12 -5,-17 -17,-17l-30 0 0 27 10 0c3,0 5,2 5,5l0 126zm60 -46c0,39 31,66 69,66 39,0 69,-27 69,-66 0,-39 -31,-66 -69,-66 -38,0 -69,27 -69,66zm32 0c0,-23 17,-39 37,-39 20,0 38,16 38,39 0,23 -17,39 -38,39 -20,0 -37,-16 -37,-39zm135 63l31 0 0 -58c0,-6 1,-12 2,-17 4,-15 17,-26 34,-26 16,0 20,10 20,26l0 58c0,12 5,17 17,17l30 0 0 -26 -10 0c-3,0 -5,-2 -5,-5l0 -49c0,-33 -16,-48 -44,-48 -25,0 -39,16 -44,26l0 0c0,0 0,-3 0,-5l0 -4c0,-9 -5,-14 -17,-14l-29 0 0 27 10 0c3,0 5,2 5,5l0 94zm146 -63c0,36 26,66 68,66 31,0 51,-19 51,-19l-13 -22c0,0 -15,14 -35,14 -19,0 -35,-12 -38,-34l87 0c0,0 1,-8 1,-12 0,-33 -20,-60 -56,-60 -38,0 -64,27 -64,66zm33 -16c3,-16 15,-25 31,-25 13,0 23,10 24,25l-55 0zm170 16c0,39 31,66 69,66 39,0 69,-27 69,-66 0,-39 -31,-66 -69,-66 -38,0 -69,27 -69,66zm32 0c0,-23 17,-39 37,-39 20,0 38,16 38,39 0,23 -17,39 -38,39 -20,0 -37,-16 -37,-39zm122 0c0,37 27,66 68,66 34,0 53,-23 53,-23l-13 -22c0,0 -16,17 -37,17 -20,0 -39,-13 -39,-39 0,-23 16,-39 37,-39 8,0 18,3 18,10l0 7 28 0 0 -15c0,-22 -29,-28 -46,-28 -43,0 -69,30 -69,66zm132 63l98 0c12,0 17,-5 17,-17l0 -22 -28 0 0 7c0,4 -2,5 -5,5l-28 0c-8,0 -12,1 -12,1l0 0c0,0 5,-5 11,-12l58 -71 0 -17 -92 0c-12,0 -17,5 -17,17l0 22 28 0 0 -7c0,-3 2,-5 5,-5l23 0c8,0 12,0 12,0l0 0c0,0 -5,4 -11,12l-58 71 0 17zm128 17l-12 22c0,0 12,13 32,13 19,0 37,-10 45,-33l45 -114c1,-4 3,-4 7,-4l4 0 0 -27 -21 0c-9,0 -14,3 -17,12l-21 63c-2,6 -4,17 -4,17l0 0c0,0 -2,-10 -4,-17l-25 -63c-3,-9 -8,-12 -17,-12l-21 0 0 27 4 0c3,0 5,1 7,4l42 95 -4 10c-4,11 -12,16 -21,16 -10,0 -18,-9 -18,-9zm135 -49l-17 58 23 0 24 -58 -30 0zm-2351 265c0,37 27,66 68,66 34,0 53,-23 53,-23l-13 -22c0,0 -16,17 -37,17 -20,0 -39,-13 -39,-39 0,-23 16,-39 37,-39 8,0 18,3 18,10l0 7 28 0 0 -15c0,-22 -29,-28 -46,-28 -43,0 -69,30 -69,66zm132 63l98 0c12,0 17,-5 17,-17l0 -22 -28 0 0 7c0,4 -2,5 -5,5l-28 0c-8,0 -12,1 -12,1l0 0c0,0 5,-5 11,-12l58 -71 0 -17 -92 0c-12,0 -17,5 -17,17l0 22 28 0 0 -7c0,-3 2,-5 5,-5l23 0c8,0 12,0 12,0l0 0c0,0 -5,4 -11,12l-58 71 0 17zm128 -36c0,25 21,39 43,39 28,0 38,-22 38,-22l0 0c0,0 0,2 0,5 0,7 4,14 16,14l28 0 0 -26 -10 0c-3,0 -5,-2 -5,-5l0 -47c0,-28 -12,-50 -54,-50 -13,0 -46,2 -46,26l0 13 29 0 0 -7c0,-7 11,-8 17,-8 16,0 23,7 23,25l0 1 -4 0c-20,0 -75,3 -75,43zm32 -1c0,-18 26,-20 42,-20l5 0 0 3c0,15 -12,33 -29,33 -13,0 -19,-8 -19,-16zm105 18c0,0 18,22 52,22 27,0 48,-15 48,-39 0,-42 -67,-38 -67,-58 0,-7 8,-11 19,-11 7,0 16,3 16,9l0 6 28 0 0 -13c0,-20 -27,-26 -44,-26 -26,0 -49,12 -49,37 0,41 66,41 66,58 0,8 -7,12 -17,12 -21,0 -38,-19 -38,-19l-15 20zm117 -43c0,36 26,66 68,66 31,0 51,-19 51,-19l-13 -22c0,0 -15,14 -35,14 -19,0 -35,-12 -38,-34l87 0c0,0 1,-8 1,-12 0,-33 -20,-60 -56,-60 -38,0 -64,27 -64,66zm33 -16c3,-16 15,-25 31,-25 13,0 23,10 24,25l-55 0zm117 79l31 0 0 -55c0,-6 1,-11 2,-16 4,-16 15,-29 30,-29 15,0 17,12 17,25l0 75 31 0 0 -55c0,-6 0,-11 2,-16 3,-16 15,-29 30,-29 15,0 17,11 17,25l0 58c0,12 5,17 17,17l30 0 0 -26 -10 0c-3,0 -5,-2 -5,-5l0 -49c0,-33 -15,-48 -41,-48 -20,0 -36,12 -43,26l0 0c-5,-17 -18,-26 -37,-26 -20,0 -35,14 -41,26l0 0c0,0 0,-3 0,-5l0 -4c0,-9 -5,-14 -17,-14l-29 0 0 27 10 0c3,0 5,2 5,5l0 94zm284 -20c0,0 18,22 52,22 27,0 48,-15 48,-39 0,-42 -67,-38 -67,-58 0,-7 8,-11 19,-11 7,0 16,3 16,9l0 6 28 0 0 -13c0,-20 -27,-26 -44,-26 -26,0 -49,12 -49,37 0,41 66,41 66,58 0,8 -7,12 -17,12 -21,0 -38,-19 -38,-19l-15 20zm129 20l31 0 0 -55 7 0c4,0 9,0 12,5l21 40c5,9 9,11 20,11l23 0 0 -26 -8 0c-6,0 -8,-1 -10,-5l-14 -27c-4,-8 -9,-10 -9,-10l0 0c0,0 4,-2 9,-10l32 -47 -35 0 -26 40c-3,4 -8,5 -12,5l-9 0 0 -80c0,-12 -5,-14 -17,-14l-30 0 0 27 10 0c3,0 5,2 5,5l0 143zm123 -63c0,39 31,66 69,66 39,0 69,-27 69,-66 0,-39 -31,-66 -69,-66 -38,0 -69,27 -69,66zm32 0c0,-23 17,-39 37,-39 20,0 38,16 38,39 0,23 -17,39 -38,39 -20,0 -37,-16 -37,-39zm121 43c0,0 18,22 52,22 27,0 48,-15 48,-39 0,-42 -67,-38 -67,-58 0,-7 8,-11 19,-11 7,0 16,3 16,9l0 6 28 0 0 -13c0,-20 -27,-26 -44,-26 -26,0 -49,12 -49,37 0,41 66,41 66,58 0,8 -7,12 -17,12 -21,0 -38,-19 -38,-19l-15 20zm39 -122l23 0 26 -34 -30 0 -19 34zm91 142l31 0 0 -58c0,-6 1,-12 2,-17 4,-15 17,-26 34,-26 16,0 20,10 20,26l0 58c0,12 5,17 17,17l30 0 0 -26 -10 0c-3,0 -5,-2 -5,-5l0 -49c0,-33 -16,-48 -44,-48 -25,0 -39,16 -44,26l0 0c0,0 0,-3 0,-5l0 -4c0,-9 -5,-14 -17,-14l-29 0 0 27 10 0c3,0 5,2 5,5l0 94zm146 -63c0,36 26,66 68,66 31,0 51,-19 51,-19l-13 -22c0,0 -15,14 -35,14 -19,0 -35,-12 -38,-34l87 0c0,0 1,-8 1,-12 0,-33 -20,-60 -56,-60 -38,0 -64,27 -64,66zm33 -16c3,-16 15,-25 31,-25 13,0 23,10 24,25l-55 0z"/>
  <path class="fil2" d="M10279 5029c40,9 118,34 173,31 55,-3 88,-34 68,-54 -20,-20 -92,-29 -145,-40 -52,-11 -84,-23 -100,-33 -15,-10 -14,-18 -11,-28 2,-10 5,-22 -10,-23 -15,-1 -49,8 -87,12 -38,5 -81,5 -88,20 -7,16 22,47 45,73 23,26 41,47 53,62 13,15 20,24 29,19 9,-4 18,-21 24,-32 6,-11 8,-17 48,-7z"/>
  <path class="fil1" d="M7626 7670l27 0 0 -29 -27 0 0 29zm-32 170l0 26c0,0 4,1 9,1 17,0 53,-5 53,-47l0 -113c0,-12 -5,-17 -17,-17l-30 0 0 27 10 0c3,0 5,2 5,5l0 95c0,21 -16,23 -25,23 -3,0 -5,-1 -5,-1zm88 -60c0,25 21,39 43,39 28,0 38,-22 38,-22l0 0c0,0 0,2 0,5 0,7 4,14 16,14l28 0 0 -26 -10 0c-3,0 -5,-2 -5,-5l0 -47c0,-28 -12,-50 -54,-50 -13,0 -46,2 -46,26l0 13 29 0 0 -7c0,-7 11,-8 17,-8 16,0 23,7 23,25l0 1 -4 0c-20,0 -75,3 -75,43zm32 -1c0,-18 26,-20 42,-20l5 0 0 3c0,15 -12,33 -29,33 -13,0 -19,-8 -19,-16zm105 18c0,0 18,22 52,22 27,0 48,-15 48,-39 0,-42 -67,-38 -67,-58 0,-7 8,-11 19,-11 7,0 16,3 16,9l0 6 28 0 0 -13c0,-20 -27,-26 -44,-26 -26,0 -49,12 -49,37 0,41 66,41 66,58 0,8 -7,12 -17,12 -21,0 -38,-19 -38,-19l-15 20zm130 20l31 0 0 -58c0,-6 1,-12 2,-17 4,-15 17,-26 34,-26 16,0 20,10 20,26l0 58c0,12 5,17 17,17l30 0 0 -26 -10 0c-3,0 -5,-2 -5,-5l0 -49c0,-33 -16,-48 -44,-48 -25,0 -39,16 -44,26l0 0c0,0 0,-3 0,-5l0 -4c0,-9 -5,-14 -17,-14l-29 0 0 27 10 0c3,0 5,2 5,5l0 94zm146 -36c0,25 21,39 43,39 28,0 38,-22 38,-22l0 0c0,0 0,2 0,5 0,7 4,14 16,14l28 0 0 -26 -10 0c-3,0 -5,-2 -5,-5l0 -47c0,-28 -12,-50 -54,-50 -13,0 -46,2 -46,26l0 13 29 0 0 -7c0,-7 11,-8 17,-8 16,0 23,7 23,25l0 1 -4 0c-20,0 -75,3 -75,43zm32 -1c0,-18 26,-20 42,-20l5 0 0 3c0,15 -12,33 -29,33 -13,0 -19,-8 -19,-16zm184 21c0,12 5,17 17,17l30 0 0 -26 -10 0c-3,0 -5,-2 -5,-5l0 -127c0,-12 -5,-17 -17,-17l-30 0 0 27 10 0c3,0 5,2 5,5l0 126zm72 -28c0,34 17,48 43,48 22,0 38,-13 43,-26l0 0c0,0 0,3 0,6l0 3c0,9 6,14 17,14l29 0 0 -26 -10 0c-3,0 -5,-2 -5,-5l0 -94 -31 0 0 58c0,22 -13,42 -35,42 -16,0 -20,-10 -20,-26l0 -58c0,-11 -5,-17 -17,-17l-30 0 0 27 10 0c3,0 5,2 5,5l0 49zm157 45l30 0 0 -6c0,-5 0,-8 0,-8l0 0c0,0 11,18 38,18 33,0 58,-26 58,-66 0,-39 -22,-66 -56,-66 -27,0 -38,18 -38,18l0 0c0,0 0,-4 0,-11l0 -37c0,-12 -5,-17 -17,-17l-30 0 0 27 10 0c3,0 5,2 5,5l0 143zm30 -62c0,-28 15,-40 32,-40 19,0 31,16 31,40 0,25 -15,39 -32,39 -21,0 -31,-19 -31,-39zm176 -1c0,39 31,66 69,66 39,0 69,-27 69,-66 0,-39 -31,-66 -69,-66 -38,0 -69,27 -69,66zm32 0c0,-23 17,-39 37,-39 20,0 38,16 38,39 0,23 -17,39 -38,39 -20,0 -37,-16 -37,-39zm132 46c0,12 5,17 17,17l30 0 0 -26 -10 0c-3,0 -5,-2 -5,-5l0 -127c0,-12 -5,-17 -17,-17l-30 0 0 27 10 0c3,0 5,2 5,5l0 126zm75 -130l27 0 0 -29 -27 0 0 29zm-1 130c0,12 5,17 17,17l30 0 0 -26 -10 0c-3,0 -5,-2 -5,-5l0 -77c0,-12 -5,-17 -17,-17l-30 0 0 27 10 0c3,0 5,2 5,5l0 77zm94 17l36 0 21 -72c2,-7 3,-14 3,-14l1 0c0,0 1,7 3,14l21 72 35 0 30 -95c1,-4 3,-4 7,-4l3 0 0 -27 -21 0c-10,0 -15,3 -18,13l-18 70c-2,7 -2,13 -2,13l0 0c0,0 -1,-7 -3,-13l-23 -82 -28 0 -23 82c-2,7 -3,13 -3,13l-1 0c0,0 -1,-7 -2,-13l-19 -70c-2,-10 -7,-13 -18,-13l-21 0 0 27 3 0c4,0 6,1 7,4l30 95zm183 0l31 0 0 -55 7 0c4,0 9,0 12,5l21 40c5,9 9,11 20,11l23 0 0 -26 -8 0c-6,0 -8,-1 -10,-5l-14 -27c-4,-8 -9,-10 -9,-10l0 0c0,0 4,-2 9,-10l32 -47 -35 0 -26 40c-3,4 -8,5 -12,5l-9 0 0 -80c0,-12 -5,-14 -17,-14l-30 0 0 27 10 0c3,0 5,2 5,5l0 143zm123 -63c0,39 31,66 69,66 39,0 69,-27 69,-66 0,-39 -31,-66 -69,-66 -38,0 -69,27 -69,66zm32 0c0,-23 17,-39 37,-39 20,0 38,16 38,39 0,23 -17,39 -38,39 -20,0 -37,-16 -37,-39zm155 63l36 0 21 -72c2,-7 3,-14 3,-14l1 0c0,0 1,7 3,14l21 72 35 0 30 -95c1,-4 3,-4 7,-4l3 0 0 -27 -21 0c-10,0 -15,3 -18,13l-18 70c-2,7 -2,13 -2,13l0 0c0,0 -1,-7 -3,-13l-23 -82 -28 0 -23 82c-2,7 -3,13 -3,13l-1 0c0,0 -1,-7 -2,-13l-19 -70c-2,-10 -7,-13 -18,-13l-21 0 0 27 3 0c4,0 6,1 7,4l30 95zm170 -36c0,25 21,39 43,39 28,0 38,-22 38,-22l0 0c0,0 0,2 0,5 0,7 4,14 16,14l28 0 0 -26 -10 0c-3,0 -5,-2 -5,-5l0 -47c0,-28 -12,-50 -54,-50 -13,0 -46,2 -46,26l0 13 29 0 0 -7c0,-7 11,-8 17,-8 16,0 23,7 23,25l0 1 -4 0c-20,0 -75,3 -75,43zm32 -1c0,-18 26,-20 42,-20l5 0 0 3c0,15 -12,33 -29,33 -13,0 -19,-8 -19,-16zm172 -25c0,37 27,66 68,66 34,0 53,-23 53,-23l-13 -22c0,0 -16,17 -37,17 -20,0 -39,-13 -39,-39 0,-23 16,-39 37,-39 8,0 18,3 18,10l0 7 28 0 0 -15c0,-22 -29,-28 -46,-28 -43,0 -69,30 -69,66zm133 0c0,36 26,66 68,66 31,0 51,-19 51,-19l-13 -22c0,0 -15,14 -35,14 -19,0 -35,-12 -38,-34l87 0c0,0 1,-8 1,-12 0,-33 -20,-60 -56,-60 -38,0 -64,27 -64,66zm33 -16c3,-16 15,-25 31,-25 13,0 23,10 24,25l-55 0zm117 79l31 0 0 -50c0,-7 1,-14 3,-21 6,-19 21,-26 34,-26 4,0 8,0 8,0l0 -31c0,0 -3,-1 -6,-1 -19,0 -34,14 -40,32l0 0c0,0 0,-3 0,-8l0 -7c0,-11 -6,-15 -17,-15l-29 0 0 27 10 0c3,0 5,2 5,5l0 94zm82 -36c0,25 21,39 43,39 28,0 38,-22 38,-22l0 0c0,0 0,2 0,5 0,7 4,14 16,14l28 0 0 -26 -10 0c-3,0 -5,-2 -5,-5l0 -47c0,-28 -12,-50 -54,-50 -13,0 -46,2 -46,26l0 13 29 0 0 -7c0,-7 11,-8 17,-8 16,0 23,7 23,25l0 1 -4 0c-20,0 -75,3 -75,43zm32 -1c0,-18 26,-20 42,-20l5 0 0 3c0,15 -12,33 -29,33 -13,0 -19,-8 -19,-16z"/>
  <path class="fil2" d="M8230 7153c11,42 27,126 57,180 29,54 72,78 80,53 8,-25 -19,-100 -36,-155 -16,-55 -21,-90 -20,-108 1,-18 9,-19 19,-19 10,0 22,-1 16,-16 -6,-15 -30,-46 -53,-83 -23,-37 -44,-80 -61,-82 -17,-3 -30,34 -42,65 -11,30 -21,53 -28,69 -7,17 -11,27 -3,34 8,8 27,12 40,15 13,3 19,4 30,46z"/>
  <g id="_1552261175456">
   <path class="fil3" d="M7597 3076c-107,-31 -272,-71 -355,-161 -83,-90 -85,-232 -43,-396 42,-165 126,-353 250,-470 124,-117 287,-163 451,-188 164,-25 329,-30 522,41 193,71 415,217 556,371 141,154 203,316 203,471 0,155 -61,305 -141,405 -80,101 -179,152 -297,167 -118,15 -254,-7 -415,-40 -160,-33 -344,-77 -460,-111 -116,-34 -165,-57 -272,-89z"/>
   <path class="fil4" d="M9122 5636c-109,235 -258,485 -436,672 -177,187 -383,311 -496,374 -113,63 -133,67 -303,-17 -169,-83 -488,-253 -711,-529 -223,-276 -349,-659 -403,-1010 -54,-352 -35,-673 26,-938 61,-265 163,-474 324,-627 162,-153 382,-250 633,-284 250,-34 530,-6 812,67 282,73 565,191 698,469 133,277 116,714 73,1042 -42,328 -110,548 -219,783z"/>
   <path class="fil5" d="M8229 5956c-38,-11 -66,-24 -89,-26 -23,-2 -43,8 -57,15 -6,3 -11,6 -16,8 -4,-2 -8,-4 -12,-6 -15,-7 -34,-17 -57,-15 -23,2 -51,14 -89,26 -51,15 -120,36 -171,48 -15,3 -34,3 -40,9 -5,6 4,18 21,24 89,34 -27,172 342,168 351,-4 277,-139 358,-170 16,-6 26,-18 21,-24 -5,-6 -25,-6 -40,-9 -49,-11 -124,-34 -171,-48zm-200 89c46,7 37,6 91,1 -20,14 -36,33 -50,33 0,0 -86,-41 -41,-34z"/>
   <path class="fil6" d="M7488 6433c-107,-83 -215,-185 -308,-310 -119,-161 -212,-360 -279,-569 20,-20 56,-26 112,0 87,42 222,162 298,274 76,112 93,216 112,310 19,94 41,178 55,241 4,20 8,38 10,53z"/>
   <path class="fil6" d="M9159 5549c-21,-7 -50,-4 -89,15 -87,42 -222,162 -298,274 -15,22 -253,603 -255,610 74,-55 147,-116 212,-181 198,-196 324,-426 428,-713l2 -6z"/>
   <path class="fil7" d="M8106 5153c5,51 21,125 59,192 38,67 99,127 92,184 -8,56 -84,109 -130,137 -46,28 -63,33 -112,8 -49,-25 -131,-80 -143,-137 -11,-57 48,-118 80,-179 32,-61 38,-124 41,-176 3,-52 2,-94 21,-115 19,-20 59,-19 76,-5 17,14 11,42 16,92z"/>
   <path class="fil8" d="M7790 4646c-56,-9 -160,-23 -257,-17 -97,7 -188,35 -228,38 -40,3 -29,-18 -5,-57 24,-39 60,-97 148,-120 88,-23 228,-10 314,5 86,15 118,33 133,54 15,21 14,46 7,65 -8,19 -21,33 -33,39 -12,5 -22,2 -78,-7z"/>
   <g>
    <path class="fil9" d="M8415 5173c19,19 70,62 123,85 53,22 107,25 158,14 51,-11 98,-34 132,-62 34,-29 53,-63 63,-98 10,-36 10,-73 1,-83 -9,-10 -26,8 -56,35 -30,26 -72,61 -111,84 -40,22 -77,32 -109,38 -32,6 -59,9 -91,5 -31,-4 -67,-16 -91,-24 -24,-8 -37,-12 -17,7z"/>
    <path class="fil9" d="M8378 5013c11,-28 27,-54 45,-74 17,-20 35,-33 65,-46 30,-13 72,-24 109,-29 37,-5 69,-4 103,-4 34,-1 70,-4 97,4 28,8 47,26 62,40 15,14 25,24 31,29 6,5 9,5 10,-4 1,-10 1,-29 -20,-56 -21,-28 -62,-64 -95,-90 -33,-26 -59,-43 -108,-47 -49,-5 -122,3 -182,21 -60,19 -107,48 -139,73 -32,24 -49,42 -58,78 -9,36 -11,90 -6,124 5,34 18,47 30,54 12,8 24,10 32,-3 8,-13 13,-43 24,-70z"/>
    <path class="fil0" d="M8364 5091c0,-21 7,-50 17,-82 10,-33 23,-70 58,-102 35,-32 92,-58 148,-71 56,-12 112,-10 163,14 50,24 95,70 120,94 25,24 29,26 17,48 -12,21 -40,61 -75,94 -35,33 -77,58 -118,76 -41,18 -82,29 -125,29 -43,0 -88,-11 -120,-21 -32,-10 -51,-19 -64,-31 -13,-12 -20,-27 -20,-48z"/>
    <ellipse class="fil10" transform="matrix(-0.250477 0.108515 0.108515 0.250477 8606.71 5021.85)" rx="607" ry="574"/>
    <path class="fil11" d="M8389 5144c33,12 66,25 97,32 30,7 58,10 94,6 36,-5 81,-16 119,-32 38,-16 68,-35 93,-58 25,-22 45,-47 58,-67 13,-20 20,-35 25,-45 5,-10 9,-13 17,-16 8,-2 22,-2 34,3 13,5 25,15 38,25 -20,-3 -40,-6 -53,-4 -13,2 -19,10 -15,18 5,8 20,16 29,22 9,6 13,11 16,16 -19,-9 -37,-17 -54,-13 -17,4 -31,21 -35,31 -4,9 4,10 14,15 10,5 21,13 33,21 -20,-5 -41,-11 -59,-7 -19,4 -36,17 -49,27 -13,10 -22,16 -22,22 1,6 11,13 20,20 9,8 17,17 24,26 -28,-9 -56,-18 -84,-16 -28,2 -57,15 -94,23 -37,9 -82,13 -125,4 -43,-9 -83,-32 -123,-55z"/>
    <ellipse class="fil12" transform="matrix(-0.103756 0.0449509 0.0449509 0.103756 8608.28 5019.83)" rx="607" ry="574"/>
    <path class="fil13" d="M8504 4950c-35,15 -51,54 -37,87 14,33 54,47 89,32 35,-15 51,-54 37,-87 -14,-33 -54,-47 -89,-32z"/>
    <path class="fil11" d="M8359 5110c-2,-7 -10,-40 -1,-79 9,-40 33,-87 62,-118 29,-31 61,-46 97,-58 36,-12 76,-20 101,-25 26,-5 37,-7 52,-10 15,-3 33,-8 47,-13 14,-4 24,-8 37,-17 14,-9 31,-23 39,-38 7,-15 4,-30 6,-30 2,-1 8,13 6,30 -2,17 -12,36 -21,47 -9,12 -16,16 -19,19 -3,4 -2,7 5,10 7,3 19,5 35,3 16,-1 37,-6 53,-15 16,-9 26,-22 32,-29 5,-7 5,-7 2,0 -3,6 -10,19 -23,32 -13,13 -33,25 -45,32 -12,6 -16,7 -16,10 0,3 5,7 10,12 5,4 11,8 23,8 12,0 30,-2 46,-10 16,-8 30,-20 39,-29 8,-9 10,-14 10,-10 -1,4 -4,16 -16,29 -12,14 -33,29 -44,37 -12,8 -15,8 -14,10 0,2 4,5 11,8 7,3 16,4 30,2 14,-3 33,-10 45,-19 13,-10 19,-22 22,-28 3,-6 3,-6 1,1 -3,7 -8,21 -15,34 -7,13 -16,26 -27,38 -11,12 -24,23 -31,27 -7,4 -8,1 -18,-9 -10,-10 -28,-29 -70,-47 -42,-18 -107,-37 -165,-40 -58,-3 -110,9 -145,23 -36,14 -56,28 -72,46 -16,18 -28,39 -36,57 -9,18 -15,34 -20,47 -5,13 -10,24 -11,38 -1,14 2,32 -1,25z"/>
   </g>
   <g>
    <path class="fil9" d="M7709 5179c-19,19 -70,62 -123,85 -53,22 -107,25 -158,14 -51,-11 -98,-34 -132,-62 -34,-29 -53,-63 -63,-98 -10,-36 -9,-73 -1,-83 9,-10 26,8 56,35 30,26 72,61 111,84 40,22 77,32 109,38 32,6 59,9 91,5 31,-4 67,-16 91,-24 24,-8 37,-12 17,7z"/>
    <path class="fil9" d="M7746 5019c-11,-28 -27,-54 -45,-74 -17,-20 -35,-33 -65,-46 -30,-13 -72,-24 -108,-29 -37,-5 -69,-4 -103,-4 -34,-1 -70,-4 -97,4 -28,8 -47,26 -62,40 -15,14 -25,24 -31,29 -6,5 -9,5 -10,-4 -1,-10 -1,-29 20,-56 21,-28 62,-64 95,-90 33,-26 59,-43 108,-47 49,-5 122,3 182,21 60,19 107,48 139,73 32,24 49,42 58,78 9,36 11,90 6,124 -5,34 -18,47 -30,54 -12,8 -24,10 -32,-3 -8,-13 -13,-43 -24,-70z"/>
    <path class="fil0" d="M7760 5097c0,-21 -7,-50 -17,-82 -10,-33 -23,-70 -58,-102 -35,-32 -92,-58 -148,-71 -56,-12 -112,-10 -163,14 -50,24 -95,70 -120,94 -25,24 -29,26 -17,48 12,21 40,61 75,94 35,33 77,58 118,76 41,18 82,29 125,29 43,0 88,-11 120,-21 32,-10 51,-19 64,-31 13,-12 20,-27 20,-48z"/>
    <ellipse class="fil10" transform="matrix(0.250477 0.108515 -0.108515 0.250477 7516.87 5028.31)" rx="607" ry="574"/>
    <path class="fil11" d="M7734 5151c-33,12 -66,25 -97,32 -30,7 -58,10 -94,6 -36,-5 -81,-16 -119,-32 -38,-16 -68,-35 -93,-58 -25,-22 -45,-47 -58,-67 -13,-20 -20,-35 -25,-45 -5,-10 -9,-13 -17,-16 -8,-2 -22,-2 -34,3 -13,5 -25,15 -38,25 20,-3 40,-6 53,-4 13,2 19,10 15,18 -5,8 -20,16 -29,22 -9,6 -13,11 -16,16 19,-9 37,-17 54,-13 17,4 31,21 35,31 4,9 -4,10 -14,15 -10,5 -21,13 -33,21 20,-5 41,-11 59,-7 19,4 36,17 49,27 13,10 22,16 22,22 -1,6 -11,13 -20,20 -9,8 -17,17 -24,26 28,-9 56,-18 84,-16 28,2 57,15 94,23 37,9 82,13 125,4 43,-9 83,-32 123,-55z"/>
    <ellipse class="fil12" transform="matrix(0.103756 0.0449509 -0.0449509 0.103756 7515.3 5026.28)" rx="607" ry="574"/>
    <path class="fil13" d="M7464 4949c35,15 51,54 37,87 -14,33 -54,47 -89,32 -35,-15 -51,-54 -37,-87 14,-33 54,-47 89,-32z"/>
    <path class="fil11" d="M7764 5117c2,-7 10,-40 1,-79 -9,-40 -33,-87 -62,-118 -29,-31 -61,-46 -97,-58 -36,-12 -76,-20 -101,-25 -26,-5 -37,-7 -52,-10 -15,-3 -33,-8 -48,-13 -14,-4 -24,-8 -37,-17 -14,-9 -31,-23 -39,-38 -7,-15 -4,-30 -6,-30 -2,-1 -8,13 -6,30 2,17 12,36 21,47 9,12 16,16 19,19 3,4 2,7 -5,10 -7,3 -19,5 -35,3 -16,-1 -37,-6 -53,-15 -16,-9 -26,-22 -32,-29 -5,-7 -5,-7 -2,0 3,6 10,19 23,32 13,13 33,25 45,32 12,6 16,7 16,10 0,3 -5,7 -10,12 -5,4 -11,8 -23,8 -12,0 -30,-2 -46,-10 -16,-8 -30,-20 -39,-29 -8,-9 -10,-14 -10,-10 1,4 4,16 16,29 12,14 33,29 44,37 12,8 15,8 14,10 0,2 -4,5 -11,8 -7,3 -16,4 -30,2 -14,-3 -33,-10 -45,-19 -13,-10 -19,-22 -22,-28 -3,-6 -3,-6 -1,1 3,7 8,21 15,34 7,13 16,26 27,38 11,12 24,23 31,27 7,4 8,1 18,-9 10,-10 28,-29 70,-47 42,-18 107,-37 165,-40 58,-3 110,9 145,23 36,14 56,28 72,46 16,18 28,39 36,57 9,18 15,34 20,47 5,13 10,24 11,38 1,14 -2,32 1,25z"/>
   </g>
   <path class="fil8" d="M8306 4649c56,-9 160,-23 257,-17 97,7 188,35 228,38 40,3 29,-18 5,-57 -24,-39 -60,-97 -148,-120 -88,-23 -228,-10 -314,5 -86,15 -118,33 -133,54 -15,21 -14,46 -7,65 8,19 21,33 33,39 12,5 22,2 78,-7z"/>
   <path class="fil3 str0" d="M8008 3757c-134,4 -273,-55 -430,-34 -156,20 -329,119 -432,247 -103,128 -136,285 -180,475 -44,190 -99,413 -134,523 -35,110 -50,108 -112,47 -62,-60 -171,-179 -155,-505 16,-326 156,-860 329,-1161 174,-301 380,-371 551,-409 171,-38 306,-46 416,-28 110,18 195,62 263,67 68,5 120,-30 191,-40 71,-10 160,4 258,31 97,27 203,66 325,133 122,67 261,161 372,338 111,177 193,438 199,739 7,301 -63,641 -115,821 -53,180 -89,199 -133,111 -44,-87 -96,-280 -134,-445 -38,-165 -64,-301 -107,-451 -43,-150 -104,-313 -205,-414 -100,-101 -240,-140 -373,-126 -133,13 -261,79 -395,82z"/>
   <path class="fil4" d="M6866 5527c-38,64 -119,75 -188,38 -69,-37 -125,-122 -146,-249 -20,-127 -5,-297 19,-410 24,-113 55,-170 101,-201 46,-31 108,-38 150,-2 42,36 66,115 78,210 12,95 12,206 15,320 3,114 9,230 -29,293z"/>
   <path class="fil4" d="M9180 5485c38,64 119,75 188,38 69,-37 125,-122 146,-249 20,-127 5,-297 -19,-410 -24,-113 -55,-170 -101,-201 -46,-31 -108,-38 -150,-2 -42,36 -66,115 -78,210 -12,95 -12,206 -15,320 -3,114 -9,230 29,293z"/>
   <path class="fil14" d="M8448 2322c-9,18 27,56 45,114 17,58 16,137 -13,199 -29,63 -86,110 -66,137 20,27 115,35 180,0 64,-35 97,-114 87,-199 -10,-85 -64,-176 -117,-222 -53,-46 -107,-48 -115,-30z"/>
   <path class="fil14" d="M7989 2007c16,-41 -63,-42 -163,-6 -100,36 -221,110 -312,190 -92,80 -155,166 -152,285 3,119 72,269 141,346 69,77 138,79 156,71 18,-8 -15,-26 -48,-90 -33,-64 -66,-174 -42,-281 24,-107 104,-210 199,-302 95,-92 205,-172 221,-213z"/>
   <path class="fil14" d="M7947 3517c-18,-13 -63,-46 -129,-61 -66,-15 -151,-11 -250,7 -99,18 -212,50 -321,105 -108,55 -212,133 -274,210 -62,78 -82,155 -86,141 -4,-14 9,-120 50,-211 41,-91 111,-166 203,-228 91,-62 205,-112 292,-140 87,-29 148,-36 205,-26 57,10 108,37 159,73 51,36 100,81 130,107 30,27 40,35 22,23z"/>
   <path class="fil14" d="M8154 3536c17,-13 59,-46 121,-61 62,-15 142,-11 235,7 93,18 200,50 301,105 102,55 199,133 258,210 58,78 77,155 81,141 4,-14 -8,-120 -47,-211 -39,-91 -104,-166 -190,-228 -86,-62 -192,-112 -274,-140 -82,-29 -140,-36 -193,-26 -53,10 -102,37 -149,73 -48,36 -94,81 -122,107 -28,27 -38,35 -21,23z"/>
  </g>
 </g>
</svg>
